  0
SECTION
  2
HEADER
  9
$ACADVER
  1
AC1009
  9
$EXTMAX
 10
264.000030517578
 20
32.0102920532227
 30
0.0
  9
$EXTMIN
 10
0.0000479762894
 20
0.0102976514027
 30
0.0
  9
$INSUNITS
 70
     4
  9
$LUNITS
 70
     2
  9
$LUPREC
 70
     4
  9
$MEASUREMENT
 70
     1
  0
ENDSEC
  0
SECTION
  2
TABLES
  0
TABLE
  2
LAYER
 70
     1
  0
LAYER
  2
0
 70
     0
 62
     7
  6
Continuous
  0
LAYER
  2
decoupeINt
 70
     0
 62
     7
  6
Continuous
  0
LAYER
  2
decoupeEXt
 70
     0
 62
     7
  6
Continuous
  0
ENDTAB
  0
TABLE
  2
APPID
 70
     1
  0
APPID
  2
ACAD
 70
     0
  0
ENDTAB
  0
ENDSEC
  0
SECTION
  2
ENTITIES
  0
LINE
  8
decoupeINt
 10
236.702804841213
 20
17.3260905201601
 30
0.0
 11
227.908509596016
 21
17.3260905201601
 31
0.0
  0
LINE
  8
decoupeINt
 10
227.908509596016
 20
17.3260905201601
 30
0.0
 11
227.908509596016
 21
26.3208903225989
 31
0.0
  0
LINE
  8
decoupeINt
 10
227.908509596016
 20
26.3208903225989
 30
0.0
 11
236.702804841213
 21
26.3208903225989
 31
0.0
  0
LINE
  8
decoupeINt
 10
236.702804841213
 20
26.3208903225989
 30
0.0
 11
236.702804841213
 21
17.3260905201601
 31
0.0
  0
LINE
  8
decoupeINt
 10
236.952918773442
 20
26.8207736775087
 30
0.0
 11
227.658395663787
 21
26.8207736775087
 31
0.0
  0
ARC
  8
decoupeINt
 10
227.658083797921
 20
26.5709717667203
 30
0.0
 40
0.2498021054632
 50
89.9284689673826
 51
180.032057538144
  0
LINE
  8
decoupeINt
 10
227.408281731558
 20
26.5708320000538
 30
0.0
 11
227.408281731558
 21
17.0761488427053
 31
0.0
  0
ARC
  8
decoupeINt
 10
227.658377529999
 20
17.0763030105512
 30
0.0
 40
0.2500958459582
 50
180.03531912908
 51
270.004154365387
  0
LINE
  8
decoupeINt
 10
227.658395663787
 20
16.8262071652504
 30
0.0
 11
236.952918773442
 21
16.8262071652504
 31
0.0
  0
ARC
  8
decoupeINt
 10
236.953230639309
 20
17.0760090760389
 30
0.0
 40
0.2498021054633
 50
269.928468967383
 51
360.032057538125
  0
LINE
  8
decoupeINt
 10
237.203032705671
 20
17.0761488427053
 30
0.0
 11
237.203032705671
 21
26.5708320000538
 31
0.0
  0
ARC
  8
decoupeINt
 10
236.95293690723
 20
26.5706778322075
 30
0.0
 40
0.2500958459586
 50
0.0353191291837
 51
90.0041543653151
  0
LINE
  8
decoupeINt
 10
89.5379719786988
 20
20.8254462593027
 30
0.0
 11
86.444962651433
 21
20.8254462593027
 31
0.0
  0
ARC
  8
decoupeINt
 10
86.4415896397877
 20
22.1937881272809
 30
0.0
 40
1.3683460252691
 50
224.884257195828
 51
270.141235859698
  0
LINE
  8
decoupeINt
 10
85.472070287007
 20
21.2281779215284
 30
0.0
 11
82.5606200924224
 21
24.1398003708873
 31
0.0
  0
ARC
  8
decoupeINt
 10
82.3828531653835
 20
23.9611673177298
 30
0.0
 40
0.2520135869933
 50
45.1392403933293
 51
134.860759606668
  0
ARC
  8
decoupeINt
 10
82.383276271849
 20
23.9620334438484
 30
0.0
 40
0.251699758421
 50
135.06810431044
 51
224.93189568956
  0
LINE
  8
decoupeINt
 10
82.2050862383446
 20
23.7842665168095
 30
0.0
 11
85.1165364329292
 21
20.8726440674506
 31
0.0
  0
ARC
  8
decoupeINt
 10
86.4400879657414
 20
22.1912957393784
 30
0.0
 40
1.868323015939
 50
224.893747374712
 51
270.149491940682
  0
LINE
  8
decoupeINt
 10
86.444962651433
 20
20.322979082779
 30
0.0
 11
89.5379719786988
 21
20.322979082779
 31
0.0
  0
ARC
  8
decoupeINt
 10
89.5351588720155
 20
17.9235860113014
 30
0.0
 40
2.3993947205543
 50
0.050704711633
 51
89.9328250679971
  0
LINE
  8
decoupeINt
 10
91.9345526530129
 20
17.9257093893679
 30
0.0
 11
91.9345526530129
 21
13.0741536722648
 31
0.0
  0
ARC
  8
decoupeINt
 10
90.6848779796956
 20
13.0753255681353
 30
0.0
 40
1.2496752227962
 50
270.061635310142
 51
359.946270282048
  0
LINE
  8
decoupeINt
 10
90.6862223039326
 20
11.8256510684103
 30
0.0
 11
84.6862440068215
 21
11.8256510684103
 31
0.0
  0
ARC
  8
decoupeINt
 10
84.6875442522324
 20
13.0756263637266
 30
0.0
 40
1.2499759715847
 50
180.067504517466
 51
269.940399984077
  0
LINE
  8
decoupeINt
 10
83.4375691481927
 20
13.0741536722648
 30
0.0
 11
83.4375691481927
 21
17.5350355613405
 31
0.0
  0
ARC
  8
decoupeINt
 10
81.5710297302333
 20
17.5403067390474
 30
0.0
 40
1.8665468609469
 50
359.838194988068
 51
405.14385772662
  0
LINE
  8
decoupeINt
 10
82.8875596539726
 20
18.8634643804529
 30
0.0
 11
77.6110514087639
 21
24.1398003708873
 31
0.0
  0
ARC
  8
decoupeINt
 10
77.433284481725
 20
23.952957652983
 30
0.0
 40
0.2578978122875
 50
46.4259007156614
 51
133.574099284336
  0
ARC
  8
decoupeINt
 10
77.4337075881905
 20
23.9620334438484
 30
0.0
 40
0.2516997584209
 50
135.068104310424
 51
224.931895689576
  0
LINE
  8
decoupeINt
 10
77.2555175546861
 20
23.7842665168095
 30
0.0
 11
82.5320257998948
 21
18.5079305263751
 31
0.0
  0
ARC
  8
decoupeINt
 10
81.5704858611202
 20
17.5398544943314
 30
0.0
 40
1.3644523654844
 50
-0.2023559804052
 51
45.1940744335989
  0
LINE
  8
decoupeINt
 10
82.9349297168947
 20
17.5350355613405
 30
0.0
 11
82.9349297168947
 21
13.0741536722648
 31
0.0
  0
ARC
  8
decoupeINt
 10
84.6882489670421
 20
13.0759861889983
 30
0.0
 40
1.7533202077929
 50
180.059883809794
 51
269.934481001668
  0
LINE
  8
decoupeINt
 10
84.6862440068215
 20
11.3226671275638
 30
0.0
 11
90.6862223039326
 21
11.3226671275638
 31
0.0
  0
ARC
  8
decoupeINt
 10
90.6841606882835
 20
13.0756979915593
 30
0.0
 40
1.7530320762553
 50
270.067381484058
 51
359.949525744315
  0
LINE
  8
decoupeINt
 10
92.4371920843109
 20
13.0741536722648
 30
0.0
 11
92.4371920843109
 21
17.9257093893679
 31
0.0
  0
ARC
  8
decoupeINt
 10
89.5473582063107
 20
17.9280513338516
 30
0.0
 40
2.8898348269653
 50
359.953567052273
 51
405.100590337381
  0
ARC
  8
decoupeINt
 10
89.5403350991031
 20
17.9369039797294
 30
0.0
 40
2.8885432462091
 50
44.8779644600678
 51
90.0468737454183
  0
ARC
  8
decoupeINt
 10
182.430774715127
 20
14.4809448768036
 30
0.0
 40
1.3652364002113
 50
179.804244995736
 51
225.17015369983
  0
LINE
  8
decoupeINt
 10
181.065546283074
 20
14.4856092925717
 30
0.0
 11
181.065546283074
 21
18.9466634364217
 31
0.0
  0
ARC
  8
decoupeINt
 10
179.311932340432
 20
18.9443635659902
 30
0.0
 40
1.7536154507847
 50
0.075143559478
 51
89.9304916290608
  0
LINE
  8
decoupeINt
 10
179.314059738373
 20
20.6979777263484
 30
0.0
 11
173.314081441262
 21
20.6979777263484
 31
0.0
  0
ARC
  8
decoupeINt
 10
173.316259141658
 20
18.9446581965217
 30
0.0
 40
1.7533208822263
 50
90.0711638554455
 51
179.934471887383
  0
LINE
  8
decoupeINt
 10
171.562939406109
 20
18.9466634364217
 30
0.0
 11
171.562939406109
 21
14.0949354645443
 31
0.0
  0
ARC
  8
decoupeINt
 10
174.454067214029
 20
14.0932803008006
 30
0.0
 40
2.8911282817082
 50
179.967198307078
 51
225.094149123656
  0
ARC
  8
decoupeINt
 10
174.460509047717
 20
14.0850949713631
 30
0.0
 40
2.8898969515672
 50
224.889127035778
 51
270.036137655395
  0
LINE
  8
decoupeINt
 10
174.462331766496
 20
11.1951985946095
 30
0.0
 11
177.555338493153
 21
11.1951985946095
 31
0.0
  0
ARC
  8
decoupeINt
 10
177.558738306193
 20
9.826915211227
 30
0.0
 40
1.3682876071826
 50
44.8832371276659
 51
90.1423641767702
  0
LINE
  8
decoupeINt
 10
178.528233458187
 20
10.7924669323838
 30
0.0
 11
181.439683652772
 21
7.8810167377992
 31
0.0
  0
ARC
  8
decoupeINt
 10
181.617450579811
 20
8.0596497909566
 30
0.0
 40
0.2520135869932
 50
225.139240393322
 51
314.860759606678
  0
ARC
  8
decoupeINt
 10
181.616584453692
 20
8.0587836648381
 30
0.0
 40
0.2520135869932
 50
315.13924039332
 51
404.860759606678
  0
LINE
  8
decoupeINt
 10
181.79521750685
 20
8.236550591877
 30
0.0
 11
178.883767312265
 21
11.1480007864616
 31
0.0
  0
ARC
  8
decoupeINt
 10
177.561200133867
 20
9.8323127165513
 30
0.0
 40
1.8655345182227
 50
44.8506046789088
 51
90.1800276667543
  0
LINE
  8
decoupeINt
 10
177.555338493153
 20
11.6978380259075
 30
0.0
 11
174.462331766496
 21
11.6978380259075
 31
0.0
  0
ARC
  8
decoupeINt
 10
174.465022944364
 20
14.0969369487921
 30
0.0
 40
2.3991004322922
 50
180.047799838606
 51
269.935728757307
  0
LINE
  8
decoupeINt
 10
172.065923346956
 20
14.0949354645443
 30
0.0
 11
172.065923346956
 21
18.9466634364217
 31
0.0
  0
ARC
  8
decoupeINt
 10
173.31568138593
 20
18.945580811282
 30
0.0
 40
1.2497585078959
 50
90.073350252392
 51
179.950366523884
  0
LINE
  8
decoupeINt
 10
173.314081441262
 20
20.1953382950505
 30
0.0
 11
179.314059738373
 21
20.1953382950505
 31
0.0
  0
ARC
  8
decoupeINt
 10
179.312826794194
 20
18.9456029052205
 30
0.0
 40
1.2497359980191
 50
0.048621444254
 51
89.9434740542037
  0
LINE
  8
decoupeINt
 10
180.562562342227
 20
18.9466634364217
 30
0.0
 11
180.562562342227
 21
14.4856092925717
 31
0.0
  0
ARC
  8
decoupeINt
 10
182.42566078144
 20
14.4790837006632
 30
0.0
 40
1.8631098672769
 50
179.799319596654
 51
225.195417015721
  0
LINE
  8
decoupeINt
 10
181.112744091222
 20
13.1571804734593
 30
0.0
 11
186.389252336431
 21
7.8810167377992
 31
0.0
  0
ARC
  8
decoupeINt
 10
186.565705653821
 20
8.0553039572153
 30
0.0
 40
0.2480157415765
 50
224.646158110949
 51
270.303467192159
  0
ARC
  8
decoupeINt
 10
186.566959877134
 20
8.058614545663
 30
0.0
 40
0.2513228582645
 50
270.013538706447
 51
315.036835990447
  0
ARC
  8
decoupeINt
 10
186.566153137351
 20
8.0587836648381
 30
0.0
 40
0.2520135869934
 50
315.139240393366
 51
404.860759606632
  0
LINE
  8
decoupeINt
 10
186.744786190508
 20
8.236550591877
 30
0.0
 11
181.4682779453
 21
13.5127143275371
 31
0.0
  0
LINE
  8
decoupeINt
 10
204.744721081842
 20
8.236550591877
 30
0.0
 11
199.468212836633
 21
13.5127143275371
 31
0.0
  0
ARC
  8
decoupeINt
 10
200.43070960646
 20
14.4809448768034
 30
0.0
 40
1.365236400211
 50
179.804244995729
 51
225.170153699834
  0
LINE
  8
decoupeINt
 10
199.065481174407
 20
14.4856092925717
 30
0.0
 11
199.065481174407
 21
18.9466634364217
 31
0.0
  0
ARC
  8
decoupeINt
 10
197.311867231766
 20
18.9443635659902
 30
0.0
 40
1.7536154507847
 50
0.075143559478
 51
89.9304916290608
  0
LINE
  8
decoupeINt
 10
197.313994629706
 20
20.6979777263484
 30
0.0
 11
191.314016332595
 21
20.6979777263484
 31
0.0
  0
ARC
  8
decoupeINt
 10
191.316194032991
 20
18.9446581965214
 30
0.0
 40
1.7533208822266
 50
90.0711638554567
 51
179.934471887372
  0
LINE
  8
decoupeINt
 10
189.562874297443
 20
18.9466634364217
 30
0.0
 11
189.562874297443
 21
14.0949354645443
 31
0.0
  0
ARC
  8
decoupeINt
 10
192.454002105363
 20
14.0932803008012
 30
0.0
 40
2.8911282817093
 50
179.967198307088
 51
225.09414912365
  0
ARC
  8
decoupeINt
 10
192.460443939051
 20
14.085094971364
 30
0.0
 40
2.8898969515681
 50
224.889127035785
 51
270.036137655388
  0
LINE
  8
decoupeINt
 10
192.462266657829
 20
11.1951985946095
 30
0.0
 11
195.555273384486
 21
11.1951985946095
 31
0.0
  0
ARC
  8
decoupeINt
 10
195.558673197526
 20
9.8269152112253
 30
0.0
 40
1.3682876071843
 50
44.8832371276955
 51
90.1423641767355
  0
LINE
  8
decoupeINt
 10
196.528168349521
 20
10.7924669323838
 30
0.0
 11
199.439618544105
 21
7.8810167377992
 31
0.0
  0
ARC
  8
decoupeINt
 10
199.617385471144
 20
8.0596497909566
 30
0.0
 40
0.2520135869932
 50
225.139240393322
 51
314.860759606678
  0
ARC
  8
decoupeINt
 10
199.616519345026
 20
8.0587836648381
 30
0.0
 40
0.2520135869932
 50
315.13924039332
 51
404.860759606678
  0
LINE
  8
decoupeINt
 10
199.795152398183
 20
8.236550591877
 30
0.0
 11
196.883702203598
 21
11.1480007864616
 31
0.0
  0
ARC
  8
decoupeINt
 10
195.561135025201
 20
9.8323127165527
 30
0.0
 40
1.8655345182213
 50
44.8506046788915
 51
90.1800276667676
  0
LINE
  8
decoupeINt
 10
195.555273384486
 20
11.6978380259075
 30
0.0
 11
192.462266657829
 21
11.6978380259075
 31
0.0
  0
ARC
  8
decoupeINt
 10
192.464957835697
 20
14.0969369487919
 30
0.0
 40
2.399100432292
 50
180.047799838602
 51
269.935728757311
  0
LINE
  8
decoupeINt
 10
190.065858238289
 20
14.0949354645443
 30
0.0
 11
190.065858238289
 21
18.9466634364217
 31
0.0
  0
ARC
  8
decoupeINt
 10
191.315616277263
 20
18.9455808112824
 30
0.0
 40
1.2497585078955
 50
90.0733502523816
 51
179.950366523899
  0
LINE
  8
decoupeINt
 10
191.314016332595
 20
20.1953382950505
 30
0.0
 11
197.313994629706
 21
20.1953382950505
 31
0.0
  0
ARC
  8
decoupeINt
 10
197.312761685528
 20
18.9456029052208
 30
0.0
 40
1.2497359980188
 50
0.0486214442423
 51
89.9434740542193
  0
LINE
  8
decoupeINt
 10
198.562497233561
 20
18.9466634364217
 30
0.0
 11
198.562497233561
 21
14.4856092925717
 31
0.0
  0
ARC
  8
decoupeINt
 10
200.425595672774
 20
14.4790837006635
 30
0.0
 40
1.8631098672776
 50
179.799319596663
 51
225.195417015713
  0
LINE
  8
decoupeINt
 10
199.112678982555
 20
13.1571804734593
 30
0.0
 11
204.389187227764
 21
7.8810167377992
 31
0.0
  0
ARC
  8
decoupeINt
 10
204.565640545152
 20
8.0553039572103
 30
0.0
 40
0.2480157415715
 50
224.646158110461
 51
270.303467192645
  0
ARC
  8
decoupeINt
 10
204.566894768469
 20
8.0586145456595
 30
0.0
 40
0.2513228582611
 50
270.013538706117
 51
315.036835990773
  0
ARC
  8
decoupeINt
 10
204.566088028684
 20
8.0587836648381
 30
0.0
 40
0.2520135869932
 50
315.13924039332
 51
404.860759606678
  0
LINE
  8
decoupeINt
 10
158.090041623019
 20
8.6370526266528
 30
0.0
 11
105.910041636064
 21
8.6370526266528
 31
0.0
  0
ARC
  8
decoupeINt
 10
105.911509439096
 20
9.1385204295592
 30
0.0
 40
0.5014699510415
 50
180.167705041449
 51
269.83229495847
  0
LINE
  8
decoupeINt
 10
105.410041636189
 20
9.1370526265281
 30
0.0
 11
105.410041636189
 21
22.9170526230826
 31
0.0
  0
ARC
  8
decoupeINt
 10
105.911509439093
 20
22.9155848200545
 30
0.0
 40
0.5014699510383
 50
90.1677050411692
 51
179.832294958902
  0
LINE
  8
decoupeINt
 10
105.910041636064
 20
23.4170526229578
 30
0.0
 11
158.090041623019
 21
23.4170526229578
 31
0.0
  0
ARC
  8
decoupeINt
 10
158.088573819989
 20
22.9155848200529
 30
0.0
 40
0.5014699510399
 50
0.167705041279
 51
89.832294958721
  0
LINE
  8
decoupeINt
 10
158.590041622894
 20
22.9170526230826
 30
0.0
 11
158.590041622894
 21
9.1370526265281
 31
0.0
  0
ARC
  8
decoupeINt
 10
158.088573819989
 20
9.1385204295576
 30
0.0
 40
0.5014699510398
 50
270.167705041273
 51
359.832294958739
  0
LINE
  8
decoupeEXt
 10
3.0000479755395
 20
32.0102938034474
 30
0.0
 11
261.000016230734
 21
32.0102938034474
 31
0.0
  0
ARC
  8
decoupeEXt
 10
260.997571160155
 20
29.0167822515238
 30
0.0
 40
2.9935125504781
 50
44.8790935733812
 51
89.95320138532
  0
ARC
  8
decoupeEXt
 10
261.012499891966
 20
29.0103423181625
 30
0.0
 40
2.9875163384125
 50
-0.0009304201666
 51
45.16863546147
  0
LINE
  8
decoupeEXt
 10
264.000016229984
 20
29.0102938041974
 30
0.0
 11
264.000016229984
 21
3.0102976507343
 31
0.0
  0
ARC
  8
decoupeEXt
 10
261.006504678053
 20
3.0127427213176
 30
0.0
 40
2.9935125504862
 50
314.879093573441
 51
359.953201385246
  0
ARC
  8
decoupeEXt
 10
261.000064744703
 20
2.9978139894928
 30
0.0
 40
2.9875163384023
 50
269.999069579761
 51
315.168635461558
  0
LINE
  8
decoupeEXt
 10
261.000016230734
 20
0.0102976514844
 30
0.0
 11
3.0000479755395
 21
0.0102976514844
 31
0.0
  0
ARC
  8
decoupeEXt
 10
3.0024930461204
 20
3.0038092034104
 30
0.0
 40
2.9935125504805
 50
224.879093573388
 51
269.953201385292
  0
ARC
  8
decoupeEXt
 10
2.9875643142895
 20
3.010249136762
 30
0.0
 40
2.9875163383939
 50
179.999069579695
 51
225.16863546162
  0
LINE
  8
decoupeEXt
 10
0.0000479762895
 20
3.0102976507343
 30
0.0
 11
0.0000479762895
 21
29.0102938041974
 31
0.0
  0
ARC
  8
decoupeEXt
 10
2.9935595282051
 20
29.0078487336213
 30
0.0
 40
2.9935125504701
 50
134.879093573312
 51
179.953201385383
  0
ARC
  8
decoupeEXt
 10
2.9999994615714
 20
29.0227774654359
 30
0.0
 40
2.9875163384054
 50
89.9990695797768
 51
135.168635461522
  0
ENDSEC
  0
EOF
