  0
SECTION
  2
HEADER
  9
$ACADVER
  1
AC1009
  9
$EXTMAX
 10
7124.70068359375
 20
-2204.45532226563
 30
0.0
  9
$EXTMIN
 10
419.101196289063
 20
-3017.25854492188
 30
0.0
  9
$INSUNITS
 70
     1
  9
$LUNITS
 70
     2
  9
$LUPREC
 70
     4
  9
$MEASUREMENT
 70
     0
  0
ENDSEC
  0
SECTION
  2
TABLES
  0
TABLE
  2
LAYER
 70
     1
  0
LAYER
  2
0
 70
     0
 62
     7
  6
Continuous
  0
LAYER
  2
NOIR
 70
     0
 62
     7
  6
Continuous
  0
LAYER
  2
CUIVRE
 70
     0
 62
     7
  6
Continuous
  0
LAYER
  2
ARGENT
 70
     0
 62
     7
  6
Continuous
  0
LAYER
  2
decoupeINt
 70
     0
 62
     7
  6
Continuous
  0
LAYER
  2
decoupeEXt
 70
     0
 62
     7
  6
Continuous
  0
LAYER
  2
BLANC
 70
     0
 62
     7
  6
Continuous
  0
ENDTAB
  0
TABLE
  2
APPID
 70
     1
  0
APPID
  2
ACAD
 70
     0
  0
ENDTAB
  0
ENDSEC
  0
SECTION
  2
ENTITIES
  0
POLYLINE
  8
NOIR
 66
     1
 10
0.0
 20
0.0
 30
0.0
 70
     1
  0
VERTEX
  8
NOIR
 10
277.500008238188
 20
-86.7897067382852
 42
0.0
  0
VERTEX
  8
NOIR
 10
19.5000586566918
 20
-86.7897067382852
 42
0.1992519613095
  0
VERTEX
  8
NOIR
 10
17.3813007099355
 20
-87.6709567804506
 42
0.1993837812258
  0
VERTEX
  8
NOIR
 10
16.5000479762895
 20
-89.7896958868408
 42
0.0
  0
VERTEX
  8
NOIR
 10
16.5000479762895
 20
-115.789702322941
 42
0.1995475695412
  0
VERTEX
  8
NOIR
 10
17.3813007099355
 20
-117.908441429331
 42
0.1996767825502
  0
VERTEX
  8
NOIR
 10
19.5000586566918
 20
-118.789691471496
 42
0.0
  0
VERTEX
  8
NOIR
 10
277.500008238188
 20
-118.789691471496
 42
0.1992519613096
  0
VERTEX
  8
NOIR
 10
279.618766184944
 20
-117.908441429331
 42
0.1993837812255
  0
VERTEX
  8
NOIR
 10
280.50001891859
 20
-115.789702322941
 42
0.0
  0
VERTEX
  8
NOIR
 10
280.50001891859
 20
-89.7896958868408
 42
0.199547569541
  0
VERTEX
  8
NOIR
 10
279.618766184944
 20
-87.6709567804506
 42
0.1996767825502
  0
SEQEND
  0
POLYLINE
  8
CUIVRE
 66
     1
 10
0.0
 20
0.0
 30
0.0
 70
     1
  0
VERTEX
  8
CUIVRE
 10
38.0285358855392
 20
-100.358508311376
 42
0.0
  0
VERTEX
  8
CUIVRE
 10
38.8572993718324
 20
-100.358508311451
 42
0.0
  0
VERTEX
  8
CUIVRE
 10
38.857299371791
 20
-100.815615878223
 42
0.0
  0
VERTEX
  8
CUIVRE
 10
38.8675243552231
 20
-100.815615878224
 42
-0.1679513238377
  0
VERTEX
  8
CUIVRE
 10
39.1759513548014
 20
-100.433133288782
 42
-0.1398236735243
  0
VERTEX
  8
CUIVRE
 10
39.6511645451126
 20
-100.308209014143
 42
-0.0505056710121
  0
VERTEX
  8
CUIVRE
 10
39.8520283112532
 20
-100.328436698776
 42
0.0
  0
VERTEX
  8
CUIVRE
 10
39.8520283111832
 20
-101.107107292636
 42
0.0690243650967
  0
VERTEX
  8
CUIVRE
 10
39.5256385838471
 20
-101.056792117924
 42
0.0854138762237
  0
VERTEX
  8
CUIVRE
 10
39.2799912425549
 20
-101.095155796959
 42
0.1661517980392
  0
VERTEX
  8
CUIVRE
 10
38.9853639205362
 20
-101.319109889273
 42
0.1491077458191
  0
VERTEX
  8
CUIVRE
 10
38.8825601615277
 20
-101.674673259531
 42
0.0
  0
VERTEX
  8
CUIVRE
 10
38.8825601614116
 20
-102.96578382274
 42
0.0
  0
VERTEX
  8
CUIVRE
 10
38.0285358853047
 20
-102.965783822663
 42
0.0
  0
SEQEND
  0
POLYLINE
  8
CUIVRE
 66
     1
 10
0.0
 20
0.0
 30
0.0
 70
     1
  0
VERTEX
  8
CUIVRE
 10
40.7767542195538
 20
-101.870503920644
 42
0.0765263916134
  0
VERTEX
  8
CUIVRE
 10
40.8177691188339
 20
-102.098206533996
 42
0.1694671946857
  0
VERTEX
  8
CUIVRE
 10
41.025912138474
 20
-102.373789533556
 42
0.1454186202785
  0
VERTEX
  8
CUIVRE
 10
41.3593718701671
 20
-102.46350532783
 42
0.1251632653048
  0
VERTEX
  8
CUIVRE
 10
41.6463813790735
 20
-102.393969330916
 42
0.1727911791868
  0
VERTEX
  8
CUIVRE
 10
41.8468527184943
 20
-102.177110527963
 42
0.0
  0
VERTEX
  8
CUIVRE
 10
42.6453699416861
 20
-102.177110528035
 42
-0.2033805918232
  0
VERTEX
  8
CUIVRE
 10
42.1508167011219
 20
-102.839147957485
 42
-0.0771883495597
  0
VERTEX
  8
CUIVRE
 10
41.7636181561483
 20
-102.993808704502
 42
-0.0588943031043
  0
VERTEX
  8
CUIVRE
 10
41.3494485554495
 20
-103.041073995995
 42
-0.0811439527576
  0
VERTEX
  8
CUIVRE
 10
40.7983473755006
 20
-102.957652144551
 42
-0.0828373906698
  0
VERTEX
  8
CUIVRE
 10
40.4237444130878
 20
-102.764868514693
 42
-0.1348098784945
  0
VERTEX
  8
CUIVRE
 10
40.0387344526499
 20
-102.270476746089
 42
-0.1003912527319
  0
VERTEX
  8
CUIVRE
 10
39.9227299434658
 20
-101.65458847074
 42
-0.2071201434061
  0
VERTEX
  8
CUIVRE
 10
40.3358723499926
 20
-100.671284487428
 42
-0.19285886181
  0
VERTEX
  8
CUIVRE
 10
41.3294431533305
 20
-100.283234015943
 42
-0.1011221656042
  0
VERTEX
  8
CUIVRE
 10
41.9130385594135
 20
-100.394172179048
 42
-0.1877794758313
  0
VERTEX
  8
CUIVRE
 10
42.5376644301215
 20
-101.008170962007
 42
-0.0703400346306
  0
VERTEX
  8
CUIVRE
 10
42.6661208386048
 20
-101.430075978662
 42
-0.0505535772985
  0
VERTEX
  8
CUIVRE
 10
42.6907150988621
 20
-101.870503920816
 42
0.0
  0
SEQEND
  0
POLYLINE
  8
CUIVRE
 66
     1
 10
0.0
 20
0.0
 30
0.0
 70
     1
  0
VERTEX
  8
CUIVRE
 10
41.8366118578299
 20
-101.393406828904
 42
0.1708006784534
  0
VERTEX
  8
CUIVRE
 10
41.690739159697
 20
-101.024508058358
 42
0.2172034258179
  0
VERTEX
  8
CUIVRE
 10
41.3294431532785
 20
-100.860882070625
 42
0.2096619726007
  0
VERTEX
  8
CUIVRE
 10
40.9487518286732
 20
-101.018812929557
 42
0.082302859736
  0
VERTEX
  8
CUIVRE
 10
40.834416953265
 20
-101.193133853403
 42
0.0687930796296
  0
VERTEX
  8
CUIVRE
 10
40.7767542195964
 20
-101.393406828809
 42
0.0
  0
SEQEND
  0
POLYLINE
  8
CUIVRE
 66
     1
 10
0.0
 20
0.0
 30
0.0
 70
     1
  0
VERTEX
  8
CUIVRE
 10
43.7813588009426
 20
-102.106805828392
 42
0.2433445045042
  0
VERTEX
  8
CUIVRE
 10
43.9221428471888
 20
-102.398059083176
 42
0.0958631776079
  0
VERTEX
  8
CUIVRE
 10
44.0733350074761
 20
-102.468075931558
 42
0.0680204418142
  0
VERTEX
  8
CUIVRE
 10
44.2387521475885
 20
-102.488543835654
 42
0.1166161688925
  0
VERTEX
  8
CUIVRE
 10
44.4951680340718
 20
-102.431169352011
 42
0.1149055987863
  0
VERTEX
  8
CUIVRE
 10
44.6003307032611
 20
-102.343363289503
 42
0.160292178317
  0
VERTEX
  8
CUIVRE
 10
44.6404955470514
 20
-102.212310509997
 42
0.1953288252629
  0
VERTEX
  8
CUIVRE
 10
44.5914250363092
 20
-102.083384239032
 42
0.0856315114629
  0
VERTEX
  8
CUIVRE
 10
44.5107536172317
 20
-102.02294865522
 42
0.0433957826569
  0
VERTEX
  8
CUIVRE
 10
44.3699291149309
 20
-101.970362699187
 42
0.0200252468608
  0
VERTEX
  8
CUIVRE
 10
44.2235575686052
 20
-101.935934288535
 42
0.0
  0
VERTEX
  8
CUIVRE
 10
44.0301957003455
 20
-101.891902586167
 42
0.0
  0
VERTEX
  8
CUIVRE
 10
43.8583047559278
 20
-101.85545067328
 42
-0.0255947973638
  0
VERTEX
  8
CUIVRE
 10
43.5573976063787
 20
-101.776723881731
 42
-0.0149193111908
  0
VERTEX
  8
CUIVRE
 10
43.4459786638669
 20
-101.734832005934
 42
-0.0639643102618
  0
VERTEX
  8
CUIVRE
 10
43.2636736237395
 20
-101.632573549502
 42
-0.1366651244794
  0
VERTEX
  8
CUIVRE
 10
43.06894492463
 20
-101.388806206816
 42
-0.0988335072988
  0
VERTEX
  8
CUIVRE
 10
43.0129132100193
 20
-101.08191001232
 42
-0.154261505323
  0
VERTEX
  8
CUIVRE
 10
43.1271546716165
 20
-100.691808578609
 42
-0.1006173379565
  0
VERTEX
  8
CUIVRE
 10
43.3456979053089
 20
-100.487278725082
 42
-0.0497391343541
  0
VERTEX
  8
CUIVRE
 10
43.5464152437983
 20
-100.389595972432
 42
-0.050937113322
  0
VERTEX
  8
CUIVRE
 10
43.8703824121547
 20
-100.307889990609
 42
-0.0430487696215
  0
VERTEX
  8
CUIVRE
 10
44.2035521668926
 20
-100.283234016201
 42
-0.0428417780706
  0
VERTEX
  8
CUIVRE
 10
44.6059242919904
 20
-100.315574534355
 42
-0.0574528379492
  0
VERTEX
  8
CUIVRE
 10
44.9029907601096
 20
-100.400159274474
 42
-0.0688216000283
  0
VERTEX
  8
CUIVRE
 10
45.1063893354471
 20
-100.515657416624
 42
-0.1231425081549
  0
VERTEX
  8
CUIVRE
 10
45.3262861666688
 20
-100.7867570167
 42
-0.1006501424161
  0
VERTEX
  8
CUIVRE
 10
45.4040514189137
 20
-101.127112695501
 42
0.0
  0
VERTEX
  8
CUIVRE
 10
44.6153776537021
 20
-101.127112695431
 42
0.1027834250839
  0
VERTEX
  8
CUIVRE
 10
44.5910463966494
 20
-100.999030575858
 42
0.1530943672529
  0
VERTEX
  8
CUIVRE
 10
44.5049827655148
 20
-100.901115157893
 42
0.0927331116058
  0
VERTEX
  8
CUIVRE
 10
44.3737359968169
 20
-100.849599806743
 42
0.0470678569753
  0
VERTEX
  8
CUIVRE
 10
44.2334014966038
 20
-100.835843563321
 42
0.0749497575088
  0
VERTEX
  8
CUIVRE
 10
44.0113743408868
 20
-100.861320266737
 42
0.1269420637741
  0
VERTEX
  8
CUIVRE
 10
43.9083640588299
 20
-100.920389823142
 42
0.1935459651402
  0
VERTEX
  8
CUIVRE
 10
43.8668580780406
 20
-101.031674224232
 42
0.2283560326399
  0
VERTEX
  8
CUIVRE
 10
43.9309649525995
 20
-101.158445940197
 42
0.0750868958918
  0
VERTEX
  8
CUIVRE
 10
44.0317262237758
 20
-101.220688715365
 42
0.0343061720951
  0
VERTEX
  8
CUIVRE
 10
44.2266487964642
 20
-101.286929016195
 42
0.0
  0
VERTEX
  8
CUIVRE
 10
44.3016452309164
 20
-101.305168171173
 42
0.0142921400378
  0
VERTEX
  8
CUIVRE
 10
44.5663956502943
 20
-101.357562740831
 42
0.0433212430548
  0
VERTEX
  8
CUIVRE
 10
44.5996204252831
 20
-101.363609935932
 42
-0.0087012759832
  0
VERTEX
  8
CUIVRE
 10
44.8314359937774
 20
-101.408522022073
 42
-0.0617468205019
  0
VERTEX
  8
CUIVRE
 10
45.0787387589699
 20
-101.489298726117
 42
-0.134500501439
  0
VERTEX
  8
CUIVRE
 10
45.3762194641923
 20
-101.740640588361
 42
-0.1479521500251
  0
VERTEX
  8
CUIVRE
 10
45.4944404150772
 20
-102.111680160709
 42
-0.1330509727921
  0
VERTEX
  8
CUIVRE
 10
45.3880559066514
 20
-102.540600788882
 42
-0.1036782214345
  0
VERTEX
  8
CUIVRE
 10
45.1693963039678
 20
-102.784403535544
 42
-0.0558297404854
  0
VERTEX
  8
CUIVRE
 10
44.9578876047438
 20
-102.906457849945
 42
-0.0609378487453
  0
VERTEX
  8
CUIVRE
 10
44.6075949342341
 20
-103.010036906381
 42
0.0
  0
VERTEX
  8
CUIVRE
 10
44.5172665307121
 20
-103.023854760337
 42
-0.0319924423794
  0
VERTEX
  8
CUIVRE
 10
44.2436423568823
 20
-103.041073996254
 42
-0.0298004055177
  0
VERTEX
  8
CUIVRE
 10
44.0257335237194
 20
-103.031993341832
 42
-0.0544099700798
  0
VERTEX
  8
CUIVRE
 10
43.6473231176033
 20
-102.961816516184
 42
-0.0574350821234
  0
VERTEX
  8
CUIVRE
 10
43.3791181851993
 20
-102.844550962079
 42
-0.1357343187383
  0
VERTEX
  8
CUIVRE
 10
43.0742810637652
 20
-102.530990570718
 42
-0.1170377889699
  0
VERTEX
  8
CUIVRE
 10
42.967789914619
 20
-102.106805828319
 42
0.0
  0
SEQEND
  0
POLYLINE
  8
CUIVRE
 66
     1
 10
0.0
 20
0.0
 30
0.0
 70
     1
  0
VERTEX
  8
CUIVRE
 10
47.1579213346048
 20
-100.283234016466
 42
-0.0939006313932
  0
VERTEX
  8
CUIVRE
 10
47.691259819797
 20
-100.379771385621
 42
-0.1604843337866
  0
VERTEX
  8
CUIVRE
 10
48.315767361267
 20
-100.889007239709
 42
-0.143473309346
  0
VERTEX
  8
CUIVRE
 10
48.5343088598324
 20
-101.664670559214
 42
-0.0903805536469
  0
VERTEX
  8
CUIVRE
 10
48.4382000289846
 20
-102.196980969229
 42
-0.1597695336089
  0
VERTEX
  8
CUIVRE
 10
47.9324523113215
 20
-102.822925769105
 42
-0.1455263412819
  0
VERTEX
  8
CUIVRE
 10
47.1579213343571
 20
-103.041073996516
 42
-0.0913171333014
  0
VERTEX
  8
CUIVRE
 10
46.6260304024982
 20
-102.945565303055
 42
-0.1610547670167
  0
VERTEX
  8
CUIVRE
 10
46.0030565024076
 20
-102.438307071705
 42
-0.1428611930274
  0
VERTEX
  8
CUIVRE
 10
45.7863287546545
 20
-101.664670558967
 42
-0.0899710046058
  0
VERTEX
  8
CUIVRE
 10
45.8814624856025
 20
-101.132325592564
 42
-0.1593438319698
  0
VERTEX
  8
CUIVRE
 10
46.3838181480844
 20
-100.503594674477
 42
-0.1469835384129
  0
SEQEND
  0
POLYLINE
  8
CUIVRE
 66
     1
 10
0.0
 20
0.0
 30
0.0
 70
     1
  0
VERTEX
  8
CUIVRE
 10
38.0181047208083
 20
-105.256132479473
 42
0.0
  0
VERTEX
  8
CUIVRE
 10
38.0181047208738
 20
-104.532587883246
 42
0.0
  0
VERTEX
  8
CUIVRE
 10
39.5802563172753
 20
-104.532587883386
 42
0.0
  0
VERTEX
  8
CUIVRE
 10
39.5802563172102
 20
-105.256132479613
 42
0.0
  0
SEQEND
  0
POLYLINE
  8
CUIVRE
 66
     1
 10
0.0
 20
0.0
 30
0.0
 70
     1
  0
VERTEX
  8
CUIVRE
 10
40.1082877853684
 20
-103.653525099762
 42
0.0
  0
VERTEX
  8
CUIVRE
 10
40.9370353734216
 20
-103.653525099837
 42
0.0
  0
VERTEX
  8
CUIVRE
 10
40.9370353733895
 20
-104.010224599493
 42
0.0
  0
VERTEX
  8
CUIVRE
 10
40.9471174608352
 20
-104.010224599494
 42
-0.0849778476929
  0
VERTEX
  8
CUIVRE
 10
41.1022444106529
 20
-103.825775408064
 42
-0.1738431055237
  0
VERTEX
  8
CUIVRE
 10
41.7660211210283
 20
-103.578171417664
 42
-0.07564245676
  0
VERTEX
  8
CUIVRE
 10
42.1574841331114
 20
-103.633034902069
 42
-0.1002718728401
  0
VERTEX
  8
CUIVRE
 10
42.419875231994
 20
-103.775661605565
 42
-0.148490890589
  0
VERTEX
  8
CUIVRE
 10
42.6525202621342
 20
-104.150145522703
 42
-0.0714878935643
  0
VERTEX
  8
CUIVRE
 10
42.7053223702283
 20
-104.587793267816
 42
0.0
  0
VERTEX
  8
CUIVRE
 10
42.7053223700781
 20
-106.260800611282
 42
0.0
  0
VERTEX
  8
CUIVRE
 10
41.8515362750917
 20
-106.260800611205
 42
0.0
  0
VERTEX
  8
CUIVRE
 10
41.851536275205
 20
-104.999983943008
 42
0.0021940955464
  0
VERTEX
  8
CUIVRE
 10
41.8514511053325
 20
-104.764869615163
 42
0.046102989132
  0
VERTEX
  8
CUIVRE
 10
41.8336546689331
 20
-104.582090350712
 42
0.0785637681595
  0
VERTEX
  8
CUIVRE
 10
41.7872991328534
 20
-104.449442798677
 42
0.1809943701125
  0
VERTEX
  8
CUIVRE
 10
41.6296739744426
 20
-104.314072549386
 42
0.0871037127324
  0
VERTEX
  8
CUIVRE
 10
41.4245162093518
 20
-104.281408942728
 42
0.1127447717068
  0
VERTEX
  8
CUIVRE
 10
41.2246554013091
 20
-104.324282422783
 42
0.1796686596777
  0
VERTEX
  8
CUIVRE
 10
41.0202776610257
 20
-104.544290800027
 42
0.1047018992773
  0
VERTEX
  8
CUIVRE
 10
40.9622326532784
 20
-104.838892821967
 42
0.0
  0
VERTEX
  8
CUIVRE
 10
40.9622326531507
 20
-106.260800611125
 42
0.0
  0
VERTEX
  8
CUIVRE
 10
40.1082877851339
 20
-106.260800611048
 42
0.0
  0
SEQEND
  0
POLYLINE
  8
CUIVRE
 66
     1
 10
0.0
 20
0.0
 30
0.0
 70
     1
  0
VERTEX
  8
CUIVRE
 10
43.2384663298404
 20
-104.457313587985
 42
-0.1210797585673
  0
VERTEX
  8
CUIVRE
 10
43.3476896561195
 20
-104.053303238888
 42
-0.1326993928496
  0
VERTEX
  8
CUIVRE
 10
43.6454809939595
 20
-103.759109168126
 42
-0.0773165998658
  0
VERTEX
  8
CUIVRE
 10
44.048572474099
 20
-103.616986163772
 42
-0.0472954439636
  0
VERTEX
  8
CUIVRE
 10
44.4742285820294
 20
-103.578171417907
 42
-0.0341244771096
  0
VERTEX
  8
CUIVRE
 10
44.8906712712177
 20
-103.605438639806
 42
-0.0480964349135
  0
VERTEX
  8
CUIVRE
 10
44.910596652415
 20
-103.608552310751
 42
-0.060163020523
  0
VERTEX
  8
CUIVRE
 10
45.2158265098524
 20
-103.691244771309
 42
-0.0694052400657
  0
VERTEX
  8
CUIVRE
 10
45.4230204646219
 20
-103.811566165782
 42
-0.135507054921
  0
VERTEX
  8
CUIVRE
 10
45.6318486516763
 20
-104.100576010817
 42
-0.0903517532413
  0
VERTEX
  8
CUIVRE
 10
45.6899060456842
 20
-104.452423378738
 42
0.0
  0
VERTEX
  8
CUIVRE
 10
45.6899060455822
 20
-105.592445522169
 42
0.0289520562141
  0
VERTEX
  8
CUIVRE
 10
45.7024749155901
 20
-105.932261494254
 42
0.0873032477833
  0
VERTEX
  8
CUIVRE
 10
45.7904570058293
 20
-106.260800611559
 42
0.0
  0
VERTEX
  8
CUIVRE
 10
44.9314790327406
 20
-106.260800611482
 42
-0.0482671724642
  0
VERTEX
  8
CUIVRE
 10
44.8987296633765
 20
-106.139236243656
 42
-0.0422507989374
  0
VERTEX
  8
CUIVRE
 10
44.8889762921789
 20
-106.076970901871
 42
0.0
  0
VERTEX
  8
CUIVRE
 10
44.8811638593519
 20
-106.014496002817
 42
-0.119639663083
  0
VERTEX
  8
CUIVRE
 10
44.4842361652877
 20
-106.262427407427
 42
-0.0808529236626
  0
VERTEX
  8
CUIVRE
 10
44.0221700089317
 20
-106.33607490713
 42
-0.0656777959398
  0
VERTEX
  8
CUIVRE
 10
43.6929567840251
 20
-106.294075494633
 42
-0.0726108177755
  0
VERTEX
  8
CUIVRE
 10
43.461657104684
 20
-106.193844303387
 42
-0.1438684880152
  0
VERTEX
  8
CUIVRE
 10
43.2100514002163
 20
-105.914884470416
 42
-0.1127286858699
  0
VERTEX
  8
CUIVRE
 10
43.1328822643642
 20
-105.54732222549
 42
-0.070603120907
  0
VERTEX
  8
CUIVRE
 10
43.1664723550851
 20
-105.292966123125
 42
-0.177384252968
  0
VERTEX
  8
CUIVRE
 10
43.42257843361
 20
-104.942061993018
 42
-0.0742709199709
  0
VERTEX
  8
CUIVRE
 10
43.7119415257649
 20
-104.80811366428
 42
-0.0226701527285
  0
VERTEX
  8
CUIVRE
 10
43.9435495972008
 20
-104.751658908491
 42
-0.0189277777238
  0
VERTEX
  8
CUIVRE
 10
44.2968202081444
 20
-104.697799777573
 42
0.0203210722607
  0
VERTEX
  8
CUIVRE
 10
44.6499744495535
 20
-104.643379707424
 42
0.0223260352545
  0
VERTEX
  8
CUIVRE
 10
44.7378514186453
 20
-104.618991499841
 42
0.1733625341884
  0
VERTEX
  8
CUIVRE
 10
44.8463544999115
 20
-104.535644275614
 42
0.1324645500091
  0
VERTEX
  8
CUIVRE
 10
44.8761942636373
 20
-104.402108203983
 42
0.1674665264514
  0
VERTEX
  8
CUIVRE
 10
44.832195980833
 20
-104.27115282394
 42
0.0900274881616
  0
VERTEX
  8
CUIVRE
 10
44.7557160344895
 20
-104.204160615411
 42
0.0824713840499
  0
VERTEX
  8
CUIVRE
 10
44.6148507298846
 20
-104.148378571788
 42
0.0493993294013
  0
VERTEX
  8
CUIVRE
 10
44.4643052675643
 20
-104.130844474237
 42
0.0637660477318
  0
VERTEX
  8
CUIVRE
 10
44.3181890982597
 20
-104.146924848063
 42
0.1555075059317
  0
VERTEX
  8
CUIVRE
 10
44.127664903716
 20
-104.256845964892
 42
0.1366366797173
  0
VERTEX
  8
CUIVRE
 10
44.037301605782
 20
-104.457313588057
 42
0.0
  0
SEQEND
  0
POLYLINE
  8
CUIVRE
 66
     1
 10
0.0
 20
0.0
 30
0.0
 70
     1
  0
VERTEX
  8
CUIVRE
 10
44.3436695187305
 20
-105.80842448109
 42
0.109910854802
  0
VERTEX
  8
CUIVRE
 10
44.6134444915533
 20
-105.757777157958
 42
0.1396473424874
  0
VERTEX
  8
CUIVRE
 10
44.7663228946176
 20
-105.623778257382
 42
0.0773466211889
  0
VERTEX
  8
CUIVRE
 10
44.8275768398343
 20
-105.486457640453
 42
0.0550262444247
  0
VERTEX
  8
CUIVRE
 10
44.8640030476464
 20
-105.264759655988
 42
0.0
  0
VERTEX
  8
CUIVRE
 10
44.8668362042542
 20
-105.208640481112
 42
0.0042106597378
  0
VERTEX
  8
CUIVRE
 10
44.8679778036208
 20
-105.124418523787
 42
0.0
  0
VERTEX
  8
CUIVRE
 10
44.8661280534371
 20
-105.040153521047
 42
-0.0706338761411
  0
VERTEX
  8
CUIVRE
 10
44.739501378833
 20
-105.092628346244
 42
-0.0295987164783
  0
VERTEX
  8
CUIVRE
 10
44.6398127077007
 20
-105.117016872869
 42
0.0
  0
VERTEX
  8
CUIVRE
 10
44.5643984241368
 20
-105.132191708801
 42
0.017318966411
  0
VERTEX
  8
CUIVRE
 10
44.3387951867458
 20
-105.180778797794
 42
0.0458216161042
  0
VERTEX
  8
CUIVRE
 10
44.2143178412899
 20
-105.218218108074
 42
0.123020153571
  0
VERTEX
  8
CUIVRE
 10
44.0500270702098
 20
-105.326150682089
 42
0.1843984408898
  0
VERTEX
  8
CUIVRE
 10
43.9869859054146
 20
-105.512281016819
 42
0.1081750686049
  0
VERTEX
  8
CUIVRE
 10
44.0128961037741
 20
-105.641314305236
 42
0.1910869677968
  0
VERTEX
  8
CUIVRE
 10
44.1537673433784
 20
-105.773405399196
 42
0.1033150882397
  0
SEQEND
  0
POLYLINE
  8
CUIVRE
 66
     1
 10
0.0
 20
0.0
 30
0.0
 70
     1
  0
VERTEX
  8
CUIVRE
 10
46.2528993351179
 20
-103.653525100314
 42
0.0
  0
VERTEX
  8
CUIVRE
 10
47.0817421869898
 20
-103.653525100388
 42
0.0
  0
VERTEX
  8
CUIVRE
 10
47.0817421869578
 20
-104.010224600045
 42
0.0
  0
VERTEX
  8
CUIVRE
 10
47.0919671701312
 20
-104.010224600046
 42
-0.0848491035735
  0
VERTEX
  8
CUIVRE
 10
47.247010665463
 20
-103.825775408616
 42
-0.1747432980891
  0
VERTEX
  8
CUIVRE
 10
47.9107914438088
 20
-103.578171418216
 42
-0.0756254040919
  0
VERTEX
  8
CUIVRE
 10
48.3022810163725
 20
-103.633080337096
 42
-0.0996195212597
  0
VERTEX
  8
CUIVRE
 10
48.5645657638007
 20
-103.775722660355
 42
-0.1482453385109
  0
VERTEX
  8
CUIVRE
 10
48.7971881846096
 20
-104.150188264311
 42
-0.0438500476397
  0
VERTEX
  8
CUIVRE
 10
48.8392154769112
 20
-104.367056061216
 42
-0.0323283767671
  0
VERTEX
  8
CUIVRE
 10
48.8500298322379
 20
-104.587793268368
 42
0.0
  0
VERTEX
  8
CUIVRE
 10
48.8500298320878
 20
-106.260800611834
 42
0.0
  0
VERTEX
  8
CUIVRE
 10
47.9962272113573
 20
-106.260800611757
 42
0.0
  0
VERTEX
  8
CUIVRE
 10
47.9962272114706
 20
-104.99998394356
 42
0.0022776433916
  0
VERTEX
  8
CUIVRE
 10
47.9961541233299
 20
-104.764869615714
 42
0.0458068862938
  0
VERTEX
  8
CUIVRE
 10
47.978398577375
 20
-104.582179046696
 42
0.0788707132982
  0
VERTEX
  8
CUIVRE
 10
47.9320772502011
 20
-104.449494638246
 42
0.1811734915564
  0
VERTEX
  8
CUIVRE
 10
47.7744795103616
 20
-104.314083196406
 42
0.0867316323623
  0
VERTEX
  8
CUIVRE
 10
47.5693024094359
 20
-104.281408943279
 42
0.1131256295939
  0
VERTEX
  8
CUIVRE
 10
47.3694061848987
 20
-104.324282423334
 42
0.1798481385998
  0
VERTEX
  8
CUIVRE
 10
47.1650325517437
 20
-104.544290800579
 42
0.1046002937736
  0
VERTEX
  8
CUIVRE
 10
47.1070029760592
 20
-104.838892822519
 42
0.0
  0
VERTEX
  8
CUIVRE
 10
47.1070029759315
 20
-106.260800611677
 42
0.0
  0
VERTEX
  8
CUIVRE
 10
46.2528993348837
 20
-106.2608006116
 42
0.0
  0
SEQEND
  0
POLYLINE
  8
CUIVRE
 66
     1
 10
0.0
 20
0.0
 30
0.0
 70
     1
  0
VERTEX
  8
CUIVRE
 10
51.1163395459079
 20
-104.608179726221
 42
0.2167198586466
  0
VERTEX
  8
CUIVRE
 10
50.9847265144915
 20
-104.334669936309
 42
0.1776835693905
  0
VERTEX
  8
CUIVRE
 10
50.6994015674697
 20
-104.231093768878
 42
0.1203707375216
  0
VERTEX
  8
CUIVRE
 10
50.4321446704928
 20
-104.289018997759
 42
0.122462883914
  0
VERTEX
  8
CUIVRE
 10
50.2796003955938
 20
-104.422515396845
 42
0.1089311781307
  0
VERTEX
  8
CUIVRE
 10
50.1705785307218
 20
-104.701489223429
 42
0.0497502113458
  0
VERTEX
  8
CUIVRE
 10
50.1468714207589
 20
-104.999983943753
 42
0.0589512738793
  0
VERTEX
  8
CUIVRE
 10
50.1714253584967
 20
-105.232070133029
 42
0.0496350108989
  0
VERTEX
  8
CUIVRE
 10
50.2281889678814
 20
-105.400868416827
 42
0.1338740480943
  0
VERTEX
  8
CUIVRE
 10
50.3974434038823
 20
-105.607960943051
 42
0.1538381655728
  0
VERTEX
  8
CUIVRE
 10
50.6541353763025
 20
-105.683152557313
 42
0.0715696300879
  0
VERTEX
  8
CUIVRE
 10
50.8355539985118
 20
-105.656962566673
 42
0.1754621315351
  0
VERTEX
  8
CUIVRE
 10
51.0519306811423
 20
-105.492510834414
 42
0.1087893534651
  0
VERTEX
  8
CUIVRE
 10
51.1413780527844
 20
-105.235825409519
 42
0.0
  0
VERTEX
  8
CUIVRE
 10
51.9703638003844
 20
-105.235825409594
 42
-0.0932643338861
  0
VERTEX
  8
CUIVRE
 10
51.838398714786
 20
-105.688688938182
 42
-0.158142240987
  0
VERTEX
  8
CUIVRE
 10
51.3415268458273
 20
-106.181211383108
 42
-0.1196351965497
  0
VERTEX
  8
CUIVRE
 10
50.6593272543461
 20
-106.336074907726
 42
-0.0853466663427
  0
VERTEX
  8
CUIVRE
 10
50.1351975061159
 20
-106.24706310058
 42
-0.1611138139979
  0
VERTEX
  8
CUIVRE
 10
49.5101833695289
 20
-105.761232816031
 42
-0.0759169841456
  0
VERTEX
  8
CUIVRE
 10
49.3450789662423
 20
-105.396678494393
 42
-0.0653147467872
  0
VERTEX
  8
CUIVRE
 10
49.2927677797111
 20
-104.999983943676
 42
-0.0832558899542
  0
VERTEX
  8
CUIVRE
 10
49.3782648513462
 20
-104.456661552624
 42
-0.166508824433
  0
VERTEX
  8
CUIVRE
 10
49.8705206643074
 20
-103.801156119211
 42
-0.0830674439648
  0
VERTEX
  8
CUIVRE
 10
50.248297600471
 20
-103.630818649953
 42
-0.0651736243773
  0
VERTEX
  8
CUIVRE
 10
50.6593272545937
 20
-103.578171418463
 42
-0.0707616377255
  0
VERTEX
  8
CUIVRE
 10
51.1061922756929
 20
-103.636889470224
 42
-0.066151416323
  0
VERTEX
  8
CUIVRE
 10
51.4213745290098
 20
-103.768474034678
 42
-0.2525304432484
  0
VERTEX
  8
CUIVRE
 10
51.9454046800225
 20
-104.608179726296
 42
0.0
  0
SEQEND
  0
POLYLINE
  8
CUIVRE
 66
     1
 10
0.0
 20
0.0
 30
0.0
 70
     1
  0
VERTEX
  8
CUIVRE
 10
53.1264378684197
 20
-105.165425446131
 42
0.075478737282
  0
VERTEX
  8
CUIVRE
 10
53.167478988312
 20
-105.393113471596
 42
0.168892364318
  0
VERTEX
  8
CUIVRE
 10
53.3756600448045
 20
-105.668683426992
 42
0.1458142830184
  0
VERTEX
  8
CUIVRE
 10
53.7091197847202
 20
-105.758426853317
 42
0.1251934219909
  0
VERTEX
  8
CUIVRE
 10
53.9961252765039
 20
-105.688863427555
 42
0.1737317067249
  0
VERTEX
  8
CUIVRE
 10
54.1965204630254
 20
-105.472047930754
 42
0.0
  0
VERTEX
  8
CUIVRE
 10
54.9951170525595
 20
-105.472047930825
 42
-0.2028206373132
  0
VERTEX
  8
CUIVRE
 10
54.5006198810179
 20
-106.134155038833
 42
-0.0772065151661
  0
VERTEX
  8
CUIVRE
 10
54.1134040811117
 20
-106.288820272484
 42
-0.058580403033
  0
VERTEX
  8
CUIVRE
 10
53.6991956990612
 20
-106.336074907999
 42
-0.0812691722622
  0
VERTEX
  8
CUIVRE
 10
53.1480337683017
 20
-106.252661400931
 42
-0.0828791472923
  0
VERTEX
  8
CUIVRE
 10
52.7734176294975
 20
-106.059878567295
 42
-0.1344090069907
  0
VERTEX
  8
CUIVRE
 10
52.3884048705616
 20
-105.565341986525
 42
-0.0997006737204
  0
VERTEX
  8
CUIVRE
 10
52.2724771231195
 20
-104.949446487014
 42
-0.0986911668
  0
VERTEX
  8
CUIVRE
 10
52.3771101992105
 20
-104.414961723559
 42
-0.1545530146504
  0
VERTEX
  8
CUIVRE
 10
52.9008715336726
 20
-103.798603290413
 42
-0.1407560116172
  0
VERTEX
  8
CUIVRE
 10
53.6791116813658
 20
-103.578171418734
 42
-0.1010787934601
  0
VERTEX
  8
CUIVRE
 10
54.2626785103088
 20
-103.689096414236
 42
-0.1878166847255
  0
VERTEX
  8
CUIVRE
 10
54.8873331276023
 20
-104.303090374977
 42
-0.070366485246
  0
VERTEX
  8
CUIVRE
 10
55.0157933226017
 20
-104.724996597823
 42
-0.0505642196464
  0
VERTEX
  8
CUIVRE
 10
55.0403832436244
 20
-105.165425446303
 42
0.0
  0
SEQEND
  0
POLYLINE
  8
CUIVRE
 66
     1
 10
0.0
 20
0.0
 30
0.0
 70
     1
  0
VERTEX
  8
CUIVRE
 10
54.1862796026189
 20
-104.688344231695
 42
0.1698025489113
  0
VERTEX
  8
CUIVRE
 10
54.0404374282404
 20
-104.319500235468
 42
0.2174510606502
  0
VERTEX
  8
CUIVRE
 10
53.6791116813138
 20
-104.155819473415
 42
0.2097022713117
  0
VERTEX
  8
CUIVRE
 10
53.2984218912889
 20
-104.313744169936
 42
0.082250892996
  0
VERTEX
  8
CUIVRE
 10
53.184092008705
 20
-104.488064771916
 42
0.0686424505343
  0
VERTEX
  8
CUIVRE
 10
53.1264378684623
 20
-104.6883442316
 42
0.0
  0
SEQEND
  0
POLYLINE
  8
CUIVRE
 66
     1
 10
0.0
 20
0.0
 30
0.0
 70
     1
  0
VERTEX
  8
CUIVRE
 10
31.3522105813253
 20
-105.58795637995
 42
0.0810031598028
  0
VERTEX
  8
CUIVRE
 10
31.5504742932005
 20
-105.857448432688
 42
0.0835022750132
  0
VERTEX
  8
CUIVRE
 10
31.6908218571003
 20
-105.954227125257
 42
0.1126240267755
  0
VERTEX
  8
CUIVRE
 10
31.857261579427
 20
-105.99103255177
 42
0.1830100152433
  0
VERTEX
  8
CUIVRE
 10
32.1080645307609
 20
-105.904216145564
 42
0.0947142043152
  0
VERTEX
  8
CUIVRE
 10
32.181547563798
 20
-105.81546364878
 42
0.1250225989057
  0
VERTEX
  8
CUIVRE
 10
32.2093503380452
 20
-105.703711588332
 42
0.1595123602014
  0
VERTEX
  8
CUIVRE
 10
32.1328692182913
 20
-105.49700585921
 42
0.0381130592287
  0
VERTEX
  8
CUIVRE
 10
32.0958295034305
 20
-105.452477853801
 42
0.028990720922
  0
VERTEX
  8
CUIVRE
 10
31.9499858445693
 20
-105.311651979341
 42
0.0184144974139
  0
VERTEX
  8
CUIVRE
 10
31.8732961708202
 20
-105.245455801449
 42
0.0
  0
VERTEX
  8
CUIVRE
 10
31.795249860765
 20
-105.180746093634
 42
-0.0062526202354
  0
VERTEX
  8
CUIVRE
 10
31.6229688756289
 20
-105.036826168701
 42
-0.0111172820594
  0
VERTEX
  8
CUIVRE
 10
31.3740649680347
 20
-104.809942681626
 42
0.0
  0
VERTEX
  8
CUIVRE
 10
31.3147304296225
 20
-104.749944847181
 42
-0.0089691098385
  0
VERTEX
  8
CUIVRE
 10
31.2298702802073
 20
-104.656230767515
 42
-0.0371396963563
  0
VERTEX
  8
CUIVRE
 10
31.1534285719191
 20
-104.555461263003
 42
-0.0577538686451
  0
VERTEX
  8
CUIVRE
 10
31.0483434902554
 20
-104.346624282268
 42
-0.0788943683616
  0
VERTEX
  8
CUIVRE
 10
31.0083900520296
 20
-104.116211588621
 42
-0.2156834609333
  0
VERTEX
  8
CUIVRE
 10
31.2495467360458
 20
-103.573609049716
 42
-0.1972741399607
  0
VERTEX
  8
CUIVRE
 10
31.8445147263687
 20
-103.347266276388
 42
-0.1214538085167
  0
VERTEX
  8
CUIVRE
 10
32.2779077384038
 20
-103.452686198276
 42
-0.0546797365792
  0
VERTEX
  8
CUIVRE
 10
32.5494590369095
 20
-103.643872044554
 42
-0.0432744062899
  0
VERTEX
  8
CUIVRE
 10
32.7853918351897
 20
-103.877595662733
 42
0.0810031598028
  0
VERTEX
  8
CUIVRE
 10
32.9836555470648
 20
-104.14708771547
 42
0.0835022750155
  0
VERTEX
  8
CUIVRE
 10
33.1240031109644
 20
-104.24386640804
 42
0.1126240267755
  0
VERTEX
  8
CUIVRE
 10
33.2904428332911
 20
-104.280671834553
 42
0.1830100152414
  0
VERTEX
  8
CUIVRE
 10
33.5412457846253
 20
-104.193855428347
 42
0.0947142043149
  0
VERTEX
  8
CUIVRE
 10
33.6147288176623
 20
-104.105102931563
 42
0.1250225989076
  0
VERTEX
  8
CUIVRE
 10
33.6425315919096
 20
-103.993350871115
 42
0.1595123602068
  0
VERTEX
  8
CUIVRE
 10
33.5660504721553
 20
-103.786645141993
 42
0.0381130592166
  0
VERTEX
  8
CUIVRE
 10
33.5290107572947
 20
-103.742117136584
 42
0.0289907209251
  0
VERTEX
  8
CUIVRE
 10
33.3831670984335
 20
-103.601291262125
 42
0.0184144974251
  0
VERTEX
  8
CUIVRE
 10
33.3064774246845
 20
-103.535095084232
 42
0.0
  0
VERTEX
  8
CUIVRE
 10
33.2284311146294
 20
-103.470385376417
 42
-0.00625262023
  0
VERTEX
  8
CUIVRE
 10
33.0561501294933
 20
-103.326465451484
 42
-0.0111172820704
  0
VERTEX
  8
CUIVRE
 10
32.8072462218991
 20
-103.099581964409
 42
0.0
  0
VERTEX
  8
CUIVRE
 10
32.7479116834869
 20
-103.039584129964
 42
-0.0089691098401
  0
VERTEX
  8
CUIVRE
 10
32.6630515340717
 20
-102.945870050298
 42
-0.0371396963529
  0
VERTEX
  8
CUIVRE
 10
32.5866098257835
 20
-102.845100545786
 42
-0.057753868652
  0
VERTEX
  8
CUIVRE
 10
32.4815247441198
 20
-102.636263565051
 42
-0.078894368361
  0
VERTEX
  8
CUIVRE
 10
32.441571305894
 20
-102.405850871404
 42
-0.2156834609311
  0
VERTEX
  8
CUIVRE
 10
32.6827279899102
 20
-101.863248332498
 42
-0.1972741399606
  0
VERTEX
  8
CUIVRE
 10
33.2776959802331
 20
-101.636905559171
 42
-0.1214538085134
  0
VERTEX
  8
CUIVRE
 10
33.7110889922682
 20
-101.742325481059
 42
-0.060048937271
  0
VERTEX
  8
CUIVRE
 10
33.8440174423373
 20
-101.836113694513
 42
-0.0303793304003
  0
VERTEX
  8
CUIVRE
 10
34.0173868045744
 20
-102.007135467725
 42
-0.0065443529096
  0
VERTEX
  8
CUIVRE
 10
34.1787391725037
 20
-102.189563470626
 42
0.0810031597999
  0
VERTEX
  8
CUIVRE
 10
34.3770028843789
 20
-102.459055523363
 42
0.0835022750128
  0
VERTEX
  8
CUIVRE
 10
34.5173504482786
 20
-102.555834215933
 42
0.1126240267772
  0
VERTEX
  8
CUIVRE
 10
34.6837901706054
 20
-102.592639642446
 42
0.1830100152461
  0
VERTEX
  8
CUIVRE
 10
34.9345931219393
 20
-102.50582323624
 42
0.0947142043193
  0
VERTEX
  8
CUIVRE
 10
35.0080761549764
 20
-102.417070739456
 42
0.1250225989054
  0
VERTEX
  8
CUIVRE
 10
35.0358789292236
 20
-102.305318679008
 42
0.1595123602154
  0
VERTEX
  8
CUIVRE
 10
34.9593978094696
 20
-102.098612949886
 42
0.0381130592519
  0
VERTEX
  8
CUIVRE
 10
34.9223580946089
 20
-102.054084944477
 42
0.0289907209366
  0
VERTEX
  8
CUIVRE
 10
34.7765144357476
 20
-101.913259070017
 42
0.0184144974189
  0
VERTEX
  8
CUIVRE
 10
34.6998247619986
 20
-101.847062892124
 42
0.0
  0
VERTEX
  8
CUIVRE
 10
34.6217784519434
 20
-101.78235318431
 42
-0.0062526202257
  0
VERTEX
  8
CUIVRE
 10
34.4494974668073
 20
-101.638433259376
 42
-0.0111172820573
  0
VERTEX
  8
CUIVRE
 10
34.200593559213
 20
-101.411549772302
 42
0.0
  0
VERTEX
  8
CUIVRE
 10
34.1412590208009
 20
-101.351551937857
 42
-0.0089691098365
  0
VERTEX
  8
CUIVRE
 10
34.0563988713856
 20
-101.257837858191
 42
-0.0371396963608
  0
VERTEX
  8
CUIVRE
 10
33.9799571630975
 20
-101.157068353679
 42
-0.0577538686443
  0
VERTEX
  8
CUIVRE
 10
33.8748720814338
 20
-100.948231372944
 42
-0.0788943683575
  0
VERTEX
  8
CUIVRE
 10
33.8349186432079
 20
-100.717818679296
 42
-0.2156834609314
  0
VERTEX
  8
CUIVRE
 10
34.0760753272242
 20
-100.175216140391
 42
-0.1972741399598
  0
VERTEX
  8
CUIVRE
 10
34.6710433175474
 20
-99.9488733670638
 42
0.0
  0
VERTEX
  8
CUIVRE
 10
34.6834025976004
 20
-99.9503375326467
 42
0.1108592367827
  0
VERTEX
  8
CUIVRE
 10
33.1828481953367
 20
-99.6120291558604
 42
0.4142144007222
  0
VERTEX
  8
CUIVRE
 10
29.6524004691228
 20
-103.14247688144
 42
0.2227072287984
  0
VERTEX
  8
CUIVRE
 10
30.9184299960154
 20
-105.849697509403
 42
0.0
  0
SEQEND
  0
POLYLINE
  8
CUIVRE
 66
     1
 10
0.0
 20
0.0
 30
0.0
 70
     1
  0
VERTEX
  8
CUIVRE
 10
35.5001486097182
 20
-100.483293804288
 42
0.0
  0
VERTEX
  8
CUIVRE
 10
35.1220063164886
 20
-100.817037429388
 42
0.0124906350057
  0
VERTEX
  8
CUIVRE
 10
35.078814020194
 20
-100.759912052549
 42
0.0730619407669
  0
VERTEX
  8
CUIVRE
 10
34.8991756460012
 20
-100.584890020199
 42
0.1553540304717
  0
VERTEX
  8
CUIVRE
 10
34.6620860692357
 20
-100.502844721091
 42
0.1779645048155
  0
VERTEX
  8
CUIVRE
 10
34.4757064034782
 20
-100.563822911164
 42
0.2265205233292
  0
VERTEX
  8
CUIVRE
 10
34.4033593982758
 20
-100.701282221019
 42
0.1676083373428
  0
VERTEX
  8
CUIVRE
 10
34.4550358305414
 20
-100.845976231404
 42
0.0433633454965
  0
VERTEX
  8
CUIVRE
 10
34.5548000497448
 20
-100.950323749121
 42
0.0142136185705
  0
VERTEX
  8
CUIVRE
 10
34.8794715942892
 20
-101.236650059469
 42
0.0
  0
VERTEX
  8
CUIVRE
 10
35.0828561858381
 20
-101.408409322951
 42
-0.0289791380426
  0
VERTEX
  8
CUIVRE
 10
35.1332915700147
 20
-101.45182733364
 42
0.0
  0
VERTEX
  8
CUIVRE
 10
35.2082776642243
 20
-101.517697619325
 42
-0.0792141323414
  0
VERTEX
  8
CUIVRE
 10
35.2268631452495
 20
-101.534446227589
 42
0.0
  0
VERTEX
  8
CUIVRE
 10
35.2811697278378
 20
-101.585982741709
 42
-0.0352300777259
  0
VERTEX
  8
CUIVRE
 10
35.4207204266022
 20
-101.745234609289
 42
-0.0572145505728
  0
VERTEX
  8
CUIVRE
 10
35.530939150488
 20
-101.926013666126
 42
-0.1079101409134
  0
VERTEX
  8
CUIVRE
 10
35.604319684292
 20
-102.280513991565
 42
-0.1004482406943
  0
VERTEX
  8
CUIVRE
 10
35.5416237352049
 20
-102.617410124152
 42
-0.1085094995616
  0
VERTEX
  8
CUIVRE
 10
35.3455930132943
 20
-102.898564121595
 42
-0.1069143164563
  0
VERTEX
  8
CUIVRE
 10
35.0323225370352
 20
-103.086911008068
 42
-0.0854926359596
  0
VERTEX
  8
CUIVRE
 10
34.6710433172605
 20
-103.142476881891
 42
-0.0611962277136
  0
VERTEX
  8
CUIVRE
 10
34.3761005162054
 20
-103.105171733506
 42
-0.0787814199531
  0
VERTEX
  8
CUIVRE
 10
34.1050141290481
 20
-102.983313470421
 42
-0.0778259915199
  0
VERTEX
  8
CUIVRE
 10
33.877090884578
 20
-102.772130945488
 42
-0.0541496430811
  0
VERTEX
  8
CUIVRE
 10
33.7082898521171
 20
-102.51131385706
 42
0.0
  0
VERTEX
  8
CUIVRE
 10
33.7072347916248
 20
-102.512024408003
 42
0.0067316705041
  0
VERTEX
  8
CUIVRE
 10
33.6217082834538
 20
-102.401611904834
 42
0.0703850925041
  0
VERTEX
  8
CUIVRE
 10
33.4684781949493
 20
-102.257348899987
 42
0.1566355846475
  0
VERTEX
  8
CUIVRE
 10
33.2687387319217
 20
-102.190876913198
 42
0.1779645048215
  0
VERTEX
  8
CUIVRE
 10
33.0823590661642
 20
-102.251855103271
 42
0.2265205233277
  0
VERTEX
  8
CUIVRE
 10
33.0100120609618
 20
-102.389314413126
 42
0.1676083373534
  0
VERTEX
  8
CUIVRE
 10
33.0616884932274
 20
-102.534008423511
 42
0.0433633454982
  0
VERTEX
  8
CUIVRE
 10
33.1614527124308
 20
-102.638355941228
 42
0.0142136185584
  0
VERTEX
  8
CUIVRE
 10
33.4861242569752
 20
-102.924682251576
 42
0.0
  0
VERTEX
  8
CUIVRE
 10
33.6895088485241
 20
-103.096441515058
 42
-0.0289791380398
  0
VERTEX
  8
CUIVRE
 10
33.7399442327006
 20
-103.139859525747
 42
0.0
  0
VERTEX
  8
CUIVRE
 10
33.8149303269102
 20
-103.205729811432
 42
-0.079214132344
  0
VERTEX
  8
CUIVRE
 10
33.8335158079354
 20
-103.222478419696
 42
0.0
  0
VERTEX
  8
CUIVRE
 10
33.8878223905239
 20
-103.274014933816
 42
-0.0352300777196
  0
VERTEX
  8
CUIVRE
 10
34.0273730892881
 20
-103.433266801396
 42
-0.0572145505652
  0
VERTEX
  8
CUIVRE
 10
34.137591813174
 20
-103.614045858234
 42
-0.1079101409014
  0
VERTEX
  8
CUIVRE
 10
34.2109723469781
 20
-103.968546183672
 42
-0.1004482406947
  0
VERTEX
  8
CUIVRE
 10
34.1482763978907
 20
-104.305442316259
 42
-0.108509499565
  0
VERTEX
  8
CUIVRE
 10
33.9522456759803
 20
-104.586596313702
 42
-0.1069143164585
  0
VERTEX
  8
CUIVRE
 10
33.638975199721
 20
-104.774943200175
 42
-0.085492635961
  0
VERTEX
  8
CUIVRE
 10
33.2776959799463
 20
-104.830509073998
 42
-0.0611962277144
  0
VERTEX
  8
CUIVRE
 10
32.9827531788912
 20
-104.793203925613
 42
-0.0787814199558
  0
VERTEX
  8
CUIVRE
 10
32.7116667917342
 20
-104.671345662528
 42
-0.0790246771131
  0
VERTEX
  8
CUIVRE
 10
32.484512078983
 20
-104.461035484773
 42
-0.0475046815946
  0
VERTEX
  8
CUIVRE
 10
32.316019107142
 20
-104.201240851684
 42
0.0
  0
VERTEX
  8
CUIVRE
 10
32.3148994511093
 20
-104.202015998168
 42
0.0821383820931
  0
VERTEX
  8
CUIVRE
 10
32.1109137959253
 20
-103.994822778525
 42
0.1530421736358
  0
VERTEX
  8
CUIVRE
 10
31.8355574780573
 20
-103.901237630415
 42
0.1779645048157
  0
VERTEX
  8
CUIVRE
 10
31.6491778122998
 20
-103.962215820488
 42
0.2265205233277
  0
VERTEX
  8
CUIVRE
 10
31.5768308070974
 20
-104.099675130343
 42
0.1676083373551
  0
VERTEX
  8
CUIVRE
 10
31.628507239363
 20
-104.244369140728
 42
0.0433633455009
  0
VERTEX
  8
CUIVRE
 10
31.7282714585664
 20
-104.348716658445
 42
0.0142136185599
  0
VERTEX
  8
CUIVRE
 10
32.0529430031108
 20
-104.635042968793
 42
0.0
  0
VERTEX
  8
CUIVRE
 10
32.2563275946598
 20
-104.806802232275
 42
-0.0289791380542
  0
VERTEX
  8
CUIVRE
 10
32.3067629788363
 20
-104.850220242964
 42
0.0
  0
VERTEX
  8
CUIVRE
 10
32.3817490730459
 20
-104.916090528649
 42
-0.079214132327
  0
VERTEX
  8
CUIVRE
 10
32.4003345540711
 20
-104.932839136913
 42
0.0
  0
VERTEX
  8
CUIVRE
 10
32.4546411366595
 20
-104.984375651034
 42
-0.0352300777237
  0
VERTEX
  8
CUIVRE
 10
32.5941918354237
 20
-105.143627518613
 42
-0.0572145505656
  0
VERTEX
  8
CUIVRE
 10
32.7044105593096
 20
-105.32440657545
 42
-0.107910140914
  0
VERTEX
  8
CUIVRE
 10
32.7777910931137
 20
-105.678906900889
 42
-0.1004482406931
  0
VERTEX
  8
CUIVRE
 10
32.7150951440263
 20
-106.015803033476
 42
-0.1085094995618
  0
VERTEX
  8
CUIVRE
 10
32.5190644221159
 20
-106.29695703092
 42
-0.1334742556807
  0
VERTEX
  8
CUIVRE
 10
32.114179575193
 20
-106.507301642105
 42
0.0778986122316
  0
VERTEX
  8
CUIVRE
 10
33.1828481947027
 20
-106.672924607654
 42
0.4142176351409
  0
VERTEX
  8
CUIVRE
 10
36.7132959209166
 20
-103.142476882074
 42
0.2175666681574
  0
SEQEND
  0
POLYLINE
  8
CUIVRE
 66
     1
 10
0.0
 20
0.0
 30
0.0
 70
     1
  0
VERTEX
  8
CUIVRE
 10
277.500008238188
 20
-86.7897067382852
 42
0.0
  0
VERTEX
  8
CUIVRE
 10
90.1459402918624
 20
-86.7897067382852
 42
0.0
  0
VERTEX
  8
CUIVRE
 10
90.1458756963224
 20
-86.7896421427449
 42
0.0
  0
VERTEX
  8
CUIVRE
 10
86.6102818590441
 20
-86.7895775472048
 42
0.0
  0
VERTEX
  8
CUIVRE
 10
86.6104110501247
 20
-86.7897067382852
 42
0.0
  0
VERTEX
  8
CUIVRE
 10
19.500037124845
 20
-86.7897067382852
 42
0.1995475695412
  0
VERTEX
  8
CUIVRE
 10
17.3812980184547
 20
-87.6709594719314
 42
0.1996767825505
  0
VERTEX
  8
CUIVRE
 10
16.5000479762895
 20
-89.7897174186876
 42
0.0
  0
VERTEX
  8
CUIVRE
 10
16.5000479762895
 20
-115.789702322941
 42
0.1992519613096
  0
VERTEX
  8
CUIVRE
 10
17.3812980184547
 20
-117.908460269697
 42
0.1993837812255
  0
VERTEX
  8
CUIVRE
 10
19.500037124845
 20
-118.789713003343
 42
0.0
  0
VERTEX
  8
CUIVRE
 10
277.500008238188
 20
-118.789713003343
 42
0.1992498908272
  0
VERTEX
  8
CUIVRE
 10
279.618766184944
 20
-117.908460269697
 42
0.199680318062
  0
VERTEX
  8
CUIVRE
 10
280.50001891859
 20
-115.789702322941
 42
0.0
  0
VERTEX
  8
CUIVRE
 10
280.50001891859
 20
-89.7897174186876
 42
0.1992498908267
  0
VERTEX
  8
CUIVRE
 10
279.618766184944
 20
-87.6709594719314
 42
0.199680318062
  0
SEQEND
  0
POLYLINE
  8
CUIVRE
 66
     1
 10
0.0
 20
0.0
 30
0.0
 70
     1
  0
VERTEX
  8
CUIVRE
 10
59.7857133503968
 20
-117.273009715962
 42
0.0
  0
VERTEX
  8
CUIVRE
 10
19.500037124845
 20
-117.273009715962
 42
-0.4135852090032
  0
VERTEX
  8
CUIVRE
 10
18.0000425505673
 20
-115.773015141684
 42
0.0
  0
VERTEX
  8
CUIVRE
 10
18.0000425505673
 20
-89.7728795145034
 42
-0.4135852090032
  0
VERTEX
  8
CUIVRE
 10
19.500037124845
 20
-88.2728849402256
 42
0.0
  0
VERTEX
  8
CUIVRE
 10
66.6184788855264
 20
-88.2728849402256
 42
-0.0015408550389
  0
VERTEX
  8
CUIVRE
 10
66.5724445909501
 20
-88.6956391812918
 42
-0.004657582403
  0
VERTEX
  8
CUIVRE
 10
66.5264239401181
 20
-89.1050560971496
 42
-0.0041473953977
  0
VERTEX
  8
CUIVRE
 10
66.5036294171402
 20
-89.3033165865025
 42
-0.0070730324047
  0
VERTEX
  8
CUIVRE
 10
66.1014452739485
 20
-92.42041641696
 42
-0.0099141588793
  0
VERTEX
  8
CUIVRE
 10
65.3456490107852
 20
-97.0737520848613
 42
-0.0122071495657
  0
VERTEX
  8
CUIVRE
 10
65.3190568315175
 20
-97.2186953850686
 42
-0.0099118562596
  0
VERTEX
  8
CUIVRE
 10
64.4041652942288
 20
-101.693017552702
 42
-0.0329733980599
  0
VERTEX
  8
CUIVRE
 10
59.932086844826
 20
-116.879342961232
 42
0.0
  0
SEQEND
  0
POLYLINE
  8
CUIVRE
 66
     1
 10
0.0
 20
0.0
 30
0.0
 70
     1
  0
VERTEX
  8
CUIVRE
 10
66.0503611081622
 20
-117.273009715962
 42
0.0
  0
VERTEX
  8
CUIVRE
 10
60.9592851274471
 20
-117.273009715962
 42
0.0
  0
VERTEX
  8
CUIVRE
 10
60.9642374522069
 20
-117.259681502803
 42
0.0081279975615
  0
VERTEX
  8
CUIVRE
 10
62.2821808844663
 20
-113.486551010877
 42
0.0
  0
VERTEX
  8
CUIVRE
 10
62.5150975178108
 20
-112.774264607652
 42
0.0
  0
VERTEX
  8
CUIVRE
 10
62.7294194241188
 20
-112.105173818969
 42
0.0213309441183
  0
VERTEX
  8
CUIVRE
 10
65.4776570474327
 20
-101.934518746218
 42
0.0144762680378
  0
VERTEX
  8
CUIVRE
 10
66.7941169337753
 20
-95.1623680951702
 42
0.0
  0
VERTEX
  8
CUIVRE
 10
66.9310436579385
 20
-94.3107994087528
 42
0.01224990857
  0
VERTEX
  8
CUIVRE
 10
67.7197251892333
 20
-88.3258748151581
 42
0.0
  0
VERTEX
  8
CUIVRE
 10
67.7253880649371
 20
-88.2728849402256
 42
0.0
  0
VERTEX
  8
CUIVRE
 10
72.5111209264255
 20
-88.2728849402256
 42
0.0
  0
VERTEX
  8
CUIVRE
 10
72.4780910734603
 20
-88.7354966683543
 42
-0.0386061437496
  0
VERTEX
  8
CUIVRE
 10
70.0739311890787
 20
-104.137657309035
 42
-0.0324753586814
  0
VERTEX
  8
CUIVRE
 10
66.1179280433663
 20
-117.09466142906
 42
0.0
  0
SEQEND
  0
POLYLINE
  8
CUIVRE
 66
     1
 10
0.0
 20
0.0
 30
0.0
 70
     1
  0
VERTEX
  8
CUIVRE
 10
72.3687308236504
 20
-117.273009715962
 42
0.0
  0
VERTEX
  8
CUIVRE
 10
67.2247295635432
 20
-117.273009715962
 42
0.0162209568874
  0
VERTEX
  8
CUIVRE
 10
69.3904032151879
 20
-110.894536312255
 42
0.0
  0
VERTEX
  8
CUIVRE
 10
69.5121254988592
 20
-110.491383980674
 42
0.0
  0
VERTEX
  8
CUIVRE
 10
69.6247766804388
 20
-110.113012968486
 42
0.0
  0
VERTEX
  8
CUIVRE
 10
69.8321901224968
 20
-109.402462330145
 42
0.0
  0
VERTEX
  8
CUIVRE
 10
70.0095940192013
 20
-108.779588603807
 42
0.0
  0
VERTEX
  8
CUIVRE
 10
70.1616969012076
 20
-108.233702400553
 42
0.0
  0
VERTEX
  8
CUIVRE
 10
70.2923893901843
 20
-107.755400362811
 42
0.0
  0
VERTEX
  8
CUIVRE
 10
70.5157183450177
 20
-106.916891607003
 42
0.0054630181458
  0
VERTEX
  8
CUIVRE
 10
71.1443223563459
 20
-104.390699572427
 42
0.0055704384113
  0
VERTEX
  8
CUIVRE
 10
71.5798161304276
 20
-102.467559700953
 42
0.0338085090165
  0
VERTEX
  8
CUIVRE
 10
73.5750094759639
 20
-88.82059052684
 42
0.0
  0
VERTEX
  8
CUIVRE
 10
73.5785463122712
 20
-88.7752218714738
 42
0.0
  0
VERTEX
  8
CUIVRE
 10
73.6013644564261
 20
-88.4578219722432
 42
0.0
  0
VERTEX
  8
CUIVRE
 10
73.6144342874232
 20
-88.2728849402256
 42
0.0
  0
VERTEX
  8
CUIVRE
 10
78.2255008078094
 20
-88.2728849402256
 42
0.0
  0
VERTEX
  8
CUIVRE
 10
78.2041789012185
 20
-88.9941686661554
 42
-0.0081515601937
  0
VERTEX
  8
CUIVRE
 10
78.0999701410653
 20
-91.1563652658394
 42
-0.0445393323645
  0
VERTEX
  8
CUIVRE
 10
75.7030449572027
 20
-106.600211561892
 42
0.0
  0
VERTEX
  8
CUIVRE
 10
75.620051881677
 20
-106.933804167401
 42
-0.0074669887064
  0
VERTEX
  8
CUIVRE
 10
74.9343911149276
 20
-109.507523331905
 42
-0.0103589944381
  0
VERTEX
  8
CUIVRE
 10
73.7671532808908
 20
-113.32820163637
 42
-0.0103733756378
  0
VERTEX
  8
CUIVRE
 10
72.4360609085403
 20
-117.095005938608
 42
0.0
  0
SEQEND
  0
POLYLINE
  8
CUIVRE
 66
     1
 10
0.0
 20
0.0
 30
0.0
 70
     1
  0
VERTEX
  8
CUIVRE
 10
78.721336175524
 20
-117.273009715962
 42
0.0
  0
VERTEX
  8
CUIVRE
 10
73.5431208108785
 20
-117.273009715962
 42
0.0
  0
VERTEX
  8
CUIVRE
 10
73.7802071629617
 20
-116.634107640461
 42
0.0
  0
VERTEX
  8
CUIVRE
 10
73.8897276120754
 20
-116.334036999416
 42
0.0
  0
VERTEX
  8
CUIVRE
 10
73.9948560676157
 20
-116.042958485923
 42
0.0256231328493
  0
VERTEX
  8
CUIVRE
 10
76.7708523028559
 20
-106.864794895159
 42
0.0224024437749
  0
VERTEX
  8
CUIVRE
 10
78.3321707391163
 20
-99.100350848119
 42
0.0224091848524
  0
VERTEX
  8
CUIVRE
 10
79.1979220722144
 20
-91.2280232519326
 42
0.0067303857261
  0
VERTEX
  8
CUIVRE
 10
79.2765277208156
 20
-89.7575705253938
 42
0.0
  0
VERTEX
  8
CUIVRE
 10
79.3040088339737
 20
-89.021842190693
 42
0.0
  0
VERTEX
  8
CUIVRE
 10
79.315502717559
 20
-88.6538740333554
 42
0.0
  0
VERTEX
  8
CUIVRE
 10
79.3257351147172
 20
-88.2859117075292
 42
0.0
  0
VERTEX
  8
CUIVRE
 10
79.3260796242657
 20
-88.2728849402256
 42
0.0
  0
VERTEX
  8
CUIVRE
 10
83.7624152080091
 20
-88.2728849402256
 42
0.0
  0
VERTEX
  8
CUIVRE
 10
83.7626714741473
 20
-88.2843614145609
 42
-0.0085952708544
  0
VERTEX
  8
CUIVRE
 10
83.7810008966194
 20
-90.9355420571666
 42
0.0
  0
VERTEX
  8
CUIVRE
 10
83.7705869388152
 20
-91.5982829286471
 42
0.0
  0
VERTEX
  8
CUIVRE
 10
83.7583238332154
 20
-92.0952677738781
 42
-0.0056080086181
  0
VERTEX
  8
CUIVRE
 10
83.6968722664022
 20
-93.5855020924891
 42
-0.0503472044623
  0
VERTEX
  8
CUIVRE
 10
81.3063205091873
 20
-109.07172306301
 42
-0.0127422799842
  0
VERTEX
  8
CUIVRE
 10
80.1481434595167
 20
-113.116914780422
 42
0.0
  0
VERTEX
  8
CUIVRE
 10
79.9887507908723
 20
-113.61819056455
 42
-0.0112544490165
  0
VERTEX
  8
CUIVRE
 10
78.7860609069528
 20
-117.098106524545
 42
0.0
  0
SEQEND
  0
POLYLINE
  8
CUIVRE
 66
     1
 10
0.0
 20
0.0
 30
0.0
 70
     1
  0
VERTEX
  8
CUIVRE
 10
89.2784437168297
 20
-96.0196343075923
 42
-0.0562294991276
  0
VERTEX
  8
CUIVRE
 10
86.8952989149081
 20
-111.54736867871
 42
-0.010128987915
  0
VERTEX
  8
CUIVRE
 10
86.0823729029208
 20
-114.342897905608
 42
0.0
  0
VERTEX
  8
CUIVRE
 10
85.8619336440861
 20
-115.036564136796
 42
0.0
  0
VERTEX
  8
CUIVRE
 10
85.6922171897476
 20
-115.555483662546
 42
0.0
  0
VERTEX
  8
CUIVRE
 10
85.6276251538897
 20
-115.749742411493
 42
0.0
  0
VERTEX
  8
CUIVRE
 10
85.3974706684683
 20
-116.428304642078
 42
0.0
  0
VERTEX
  8
CUIVRE
 10
85.2800324196428
 20
-116.766768863965
 42
0.0
  0
VERTEX
  8
CUIVRE
 10
85.1610378476334
 20
-117.104652205967
 42
0.0
  0
VERTEX
  8
CUIVRE
 10
85.1012869728111
 20
-117.273009715962
 42
0.0
  0
VERTEX
  8
CUIVRE
 10
79.8922595354197
 20
-117.273009715962
 42
0.0064891485474
  0
VERTEX
  8
CUIVRE
 10
80.5845931501297
 20
-115.314980877635
 42
0.0
  0
VERTEX
  8
CUIVRE
 10
80.7092136002003
 20
-114.94598798904
 42
0.0
  0
VERTEX
  8
CUIVRE
 10
80.8245285580435
 20
-114.599558866505
 42
0.0117072422571
  0
VERTEX
  8
CUIVRE
 10
80.8513539361742
 20
-114.51825986715
 42
0.0117169249993
  0
VERTEX
  8
CUIVRE
 10
80.8776809266466
 20
-114.438205149026
 42
0.0165703041197
  0
VERTEX
  8
CUIVRE
 10
82.371199523678
 20
-109.34733070183
 42
0.0503291785834
  0
VERTEX
  8
CUIVRE
 10
84.7955132166483
 20
-93.6437242061898
 42
0.0
  0
VERTEX
  8
CUIVRE
 10
84.8127174369377
 20
-93.3083660363106
 42
0.0
  0
VERTEX
  8
CUIVRE
 10
84.839736874802
 20
-92.6793753529887
 42
0.0151157643481
  0
VERTEX
  8
CUIVRE
 10
84.8626925786107
 20
-88.2728849402256
 42
0.0
  0
VERTEX
  8
CUIVRE
 10
88.2230817786173
 20
-88.2728849402256
 42
0.0
  0
VERTEX
  8
CUIVRE
 10
89.2465765835911
 20
-90.6618218089318
 42
0.0
  0
VERTEX
  8
CUIVRE
 10
89.2542006792585
 20
-90.829176996699
 42
0.0
  0
VERTEX
  8
CUIVRE
 10
89.2803261730229
 20
-91.4776435911514
 42
0.0
  0
VERTEX
  8
CUIVRE
 10
89.2852929926077
 20
-91.6195664768793
 42
-0.0091363092616
  0
VERTEX
  8
CUIVRE
 10
89.3238146534178
 20
-93.8196943916682
 42
0.0
  0
VERTEX
  8
CUIVRE
 10
89.3209894279667
 20
-94.3697679862155
 42
-0.0075573877593
  0
SEQEND
  0
POLYLINE
  8
CUIVRE
 66
     1
 10
0.0
 20
0.0
 30
0.0
 70
     1
  0
VERTEX
  8
CUIVRE
 10
196.327163647207
 20
-99.9170708300555
 42
0.0
  0
VERTEX
  8
CUIVRE
 10
196.327163647207
 20
-105.917070659013
 42
-0.4124967703036
  0
VERTEX
  8
CUIVRE
 10
195.827151101217
 20
-106.417083205004
 42
0.0
  0
VERTEX
  8
CUIVRE
 10
191.075503153186
 20
-106.417083205004
 42
-0.1992528288131
  0
VERTEX
  8
CUIVRE
 10
189.740369855282
 20
-105.861763419071
 42
-0.199677476318
  0
VERTEX
  8
CUIVRE
 10
189.185050069349
 20
-104.526630121167
 42
0.0
  0
VERTEX
  8
CUIVRE
 10
189.185050069349
 20
-99.9170708300555
 42
-0.4124822359072
  0
VERTEX
  8
CUIVRE
 10
189.685041083492
 20
-99.4170798159118
 42
0.0
  0
VERTEX
  8
CUIVRE
 10
195.827151101217
 20
-99.4170798159118
 42
-0.4125501804591
  0
SEQEND
  0
POLYLINE
  8
CUIVRE
 66
     1
 10
0.0
 20
0.0
 30
0.0
 70
     1
  0
VERTEX
  8
CUIVRE
 10
187.019764493176
 20
-88.6431681093496
 42
0.0
  0
VERTEX
  8
CUIVRE
 10
187.428072903718
 20
-88.2728849402256
 42
0.0
  0
VERTEX
  8
CUIVRE
 10
195.680949861561
 20
-88.2728849402256
 42
-0.0245216769148
  0
VERTEX
  8
CUIVRE
 10
194.656344480533
 20
-89.7233386988274
 42
-0.0384460609254
  0
VERTEX
  8
CUIVRE
 10
192.858348094985
 20
-91.6870123443735
 42
-0.0407066338228
  0
VERTEX
  8
CUIVRE
 10
190.770784457516
 20
-93.3395222748422
 42
-0.0668152974846
  0
VERTEX
  8
CUIVRE
 10
187.293648420355
 20
-95.0399948414338
 42
0.0
  0
VERTEX
  8
CUIVRE
 10
187.178560298289
 20
-95.078150485445
 42
-0.0134453812807
  0
VERTEX
  8
CUIVRE
 10
186.278111857034
 20
-95.3445126055194
 42
0.0
  0
VERTEX
  8
CUIVRE
 10
185.936882910079
 20
-95.4315386259312
 42
-0.0296339515074
  0
VERTEX
  8
CUIVRE
 10
183.512312779643
 20
-95.86718883237
 42
-0.0239783286213
  0
VERTEX
  8
CUIVRE
 10
182.870757442259
 20
-95.9141833905927
 42
-0.026895004569
  0
VERTEX
  8
CUIVRE
 10
181.667381192965
 20
-95.8793316750382
 42
-0.016600840087
  0
VERTEX
  8
CUIVRE
 10
180.621574341113
 20
-95.7608029553798
 42
-0.0201179683856
  0
VERTEX
  8
CUIVRE
 10
178.813120555981
 20
-95.4170915746091
 42
-0.0254575400908
  0
VERTEX
  8
CUIVRE
 10
176.160817302415
 20
-94.6521361423158
 42
-0.0060871633585
  0
VERTEX
  8
CUIVRE
 10
175.997794118058
 20
-94.5953080931977
 42
-0.0273235377178
  0
VERTEX
  8
CUIVRE
 10
173.604218164064
 20
-93.6109957990799
 42
0.0183902668132
  0
VERTEX
  8
CUIVRE
 10
172.576213594038
 20
-92.7210283039382
 42
0.0236474831803
  0
VERTEX
  8
CUIVRE
 10
171.474675453551
 20
-91.9237602851788
 42
0.0149016616
  0
VERTEX
  8
CUIVRE
 10
171.55796297008
 20
-91.9477457362511
 42
0.0287179472467
  0
VERTEX
  8
CUIVRE
 10
174.218773811543
 20
-92.5497758665425
 42
0.0
  0
VERTEX
  8
CUIVRE
 10
174.556062808386
 20
-92.6026639999057
 42
0.0
  0
VERTEX
  8
CUIVRE
 10
174.703904334821
 20
-92.6240570306759
 42
0.0093917571157
  0
VERTEX
  8
CUIVRE
 10
175.259473862878
 20
-92.6942693828115
 42
0.0276739643105
  0
VERTEX
  8
CUIVRE
 10
176.935970007849
 20
-92.7938191499786
 42
0.0210025063003
  0
VERTEX
  8
CUIVRE
 10
177.780011526999
 20
-92.7620009064247
 42
0.0281549615627
  0
VERTEX
  8
CUIVRE
 10
178.617176604651
 20
-92.6499864134694
 42
0.0090639272322
  0
VERTEX
  8
CUIVRE
 10
179.571774059047
 20
-92.4455082893401
 42
0.0207285045391
  0
VERTEX
  8
CUIVRE
 10
181.219269874658
 20
-91.9920257517009
 42
0.0393789257774
  0
VERTEX
  8
CUIVRE
 10
183.591698564727
 20
-91.0237538663369
 42
0.0226643838089
  0
VERTEX
  8
CUIVRE
 10
184.710775137928
 20
-90.3975263816821
 42
0.0212948246324
  0
VERTEX
  8
CUIVRE
 10
185.77160639887
 20
-89.6768690096988
 42
0.0
  0
VERTEX
  8
CUIVRE
 10
185.812219754315
 20
-89.6465023516426
 42
0.0117622737109
  0
VERTEX
  8
CUIVRE
 10
185.968468230807
 20
-89.5275804610262
 42
0.0204860301759
  0
SEQEND
  0
POLYLINE
  8
CUIVRE
 66
     1
 10
0.0
 20
0.0
 30
0.0
 70
     1
  0
VERTEX
  8
CUIVRE
 10
175.679156111137
 20
-97.9953750365363
 42
0.0
  0
VERTEX
  8
CUIVRE
 10
175.745472443421
 20
-98.0125576876449
 42
-0.0316656440459
  0
VERTEX
  8
CUIVRE
 10
176.767554371408
 20
-98.3537875870127
 42
0.0
  0
VERTEX
  8
CUIVRE
 10
176.814372441416
 20
-98.3728233389168
 42
-0.0378369657984
  0
VERTEX
  8
CUIVRE
 10
178.233749909612
 20
-99.0884221120807
 42
0.0
  0
VERTEX
  8
CUIVRE
 10
178.403567114241
 20
-99.191717366801
 42
0.0
  0
VERTEX
  8
CUIVRE
 10
178.440539535483
 20
-99.2146994369005
 42
-0.0233625283055
  0
VERTEX
  8
CUIVRE
 10
179.547438513056
 20
-99.9832166633723
 42
0.0564707954468
  0
VERTEX
  8
CUIVRE
 10
177.618615318646
 20
-99.7094613360432
 42
0.0591655464682
  0
VERTEX
  8
CUIVRE
 10
175.679156111137
 20
-99.8933642667476
 42
0.0
  0
SEQEND
  0
POLYLINE
  8
CUIVRE
 66
     1
 10
0.0
 20
0.0
 30
0.0
 70
     1
  0
VERTEX
  8
CUIVRE
 10
166.297665872325
 20
-94.8105134515035
 42
0.0
  0
VERTEX
  8
CUIVRE
 10
161.029555047362
 20
-94.8105134515035
 42
-0.0683126009445
  0
VERTEX
  8
CUIVRE
 10
163.099088500892
 20
-92.9145697467366
 42
-0.0344377505348
  0
VERTEX
  8
CUIVRE
 10
164.154039480097
 20
-92.2794317444371
 42
-0.0366503230168
  0
VERTEX
  8
CUIVRE
 10
165.149176819645
 20
-91.8614918197849
 42
-0.0406863926493
  0
VERTEX
  8
CUIVRE
 10
166.065119972085
 20
-91.6340998740171
 42
-0.0736921392594
  0
VERTEX
  8
CUIVRE
 10
167.708982833414
 20
-91.6029625654828
 42
-0.0496688873801
  0
VERTEX
  8
CUIVRE
 10
168.907701215968
 20
-91.8790754270446
 42
-0.0213924526245
  0
VERTEX
  8
CUIVRE
 10
169.016853692832
 20
-91.9163906581855
 42
-0.0216923293408
  0
VERTEX
  8
CUIVRE
 10
169.121999485663
 20
-91.9542241611527
 42
0.0
  0
VERTEX
  8
CUIVRE
 10
169.172698620428
 20
-91.9731263441045
 42
-0.0263198348548
  0
VERTEX
  8
CUIVRE
 10
169.951564598285
 20
-92.3167247824798
 42
-0.0310735563703
  0
VERTEX
  8
CUIVRE
 10
171.050136405757
 20
-92.9659913037165
 42
-0.011177268728
  0
VERTEX
  8
CUIVRE
 10
171.181762128752
 20
-93.0562483822578
 42
0.0
  0
VERTEX
  8
CUIVRE
 10
171.40911802163
 20
-93.218252484436
 42
-0.0170996178528
  0
VERTEX
  8
CUIVRE
 10
172.070397058491
 20
-93.7324569467817
 42
0.1045689256099
  0
VERTEX
  8
CUIVRE
 10
169.077377404741
 20
-93.7003738558195
 42
0.047910258311
  0
VERTEX
  8
CUIVRE
 10
167.63972649912
 20
-94.1358316893844
 42
0.0177778859709
  0
VERTEX
  8
CUIVRE
 10
166.955716085582
 20
-94.4472521105359
 42
0.0
  0
VERTEX
  8
CUIVRE
 10
166.788699158818
 20
-94.5335350256865
 42
0.0127820480355
  0
SEQEND
  0
POLYLINE
  8
CUIVRE
 66
     1
 10
0.0
 20
0.0
 30
0.0
 70
     1
  0
VERTEX
  8
CUIVRE
 10
175.679156111137
 20
-101.033410958357
 42
-0.0715018711777
  0
VERTEX
  8
CUIVRE
 10
177.71880237239
 20
-100.83544805266
 42
-0.0500655234191
  0
VERTEX
  8
CUIVRE
 10
179.235901884387
 20
-101.061478978241
 42
-0.032616159469
  0
VERTEX
  8
CUIVRE
 10
180.330038639782
 20
-101.413264650041
 42
-0.0377984387607
  0
VERTEX
  8
CUIVRE
 10
181.877709961251
 20
-102.168718419551
 42
-0.0287821507775
  0
VERTEX
  8
CUIVRE
 10
183.310580907135
 20
-103.124325535743
 42
0.042030355537
  0
VERTEX
  8
CUIVRE
 10
181.712792276159
 20
-102.820467767327
 42
0.0696711738382
  0
VERTEX
  8
CUIVRE
 10
179.278871884164
 20
-102.910668762147
 42
0.0647355606921
  0
VERTEX
  8
CUIVRE
 10
176.9590521476
 20
-103.652415609938
 42
0.011970324642
  0
VERTEX
  8
CUIVRE
 10
176.794307193119
 20
-103.730846689739
 42
0.0269183056134
  0
VERTEX
  8
CUIVRE
 10
175.679156111137
 20
-104.352803522089
 42
0.0
  0
SEQEND
  0
POLYLINE
  8
CUIVRE
 66
     1
 10
0.0
 20
0.0
 30
0.0
 70
     1
  0
VERTEX
  8
CUIVRE
 10
185.767601475368
 20
-88.2728849402256
 42
0.0
  0
VERTEX
  8
CUIVRE
 10
185.606967604397
 20
-88.4066808658383
 42
-0.0090858816458
  0
VERTEX
  8
CUIVRE
 10
185.363203612181
 20
-88.6037824661379
 42
0.0
  0
VERTEX
  8
CUIVRE
 10
185.239624458746
 20
-88.700241276925
 42
-0.0046680170429
  0
VERTEX
  8
CUIVRE
 10
185.114626689833
 20
-88.7949245654749
 42
-0.0183641774113
  0
VERTEX
  8
CUIVRE
 10
184.361709797176
 20
-89.317050124061
 42
-0.0555616534937
  0
VERTEX
  8
CUIVRE
 10
181.492633268675
 20
-90.7339293361814
 42
0.0
  0
VERTEX
  8
CUIVRE
 10
181.304253248999
 20
-90.8016137193399
 42
-0.0202921016396
  0
VERTEX
  8
CUIVRE
 10
179.868289601367
 20
-91.2391414121731
 42
-0.0139073911082
  0
VERTEX
  8
CUIVRE
 10
178.404269703663
 20
-91.5709825074892
 42
-0.0413642920725
  0
VERTEX
  8
CUIVRE
 10
177.235829649397
 20
-91.6905361289823
 42
-0.011602963933
  0
VERTEX
  8
CUIVRE
 10
176.722900712489
 20
-91.6924549009862
 42
-0.0308202897427
  0
VERTEX
  8
CUIVRE
 10
174.808542083242
 20
-91.5286128896397
 42
-0.0170152285027
  0
VERTEX
  8
CUIVRE
 10
173.390220542699
 20
-91.2750570682051
 42
-0.0109196133213
  0
VERTEX
  8
CUIVRE
 10
172.338762875764
 20
-91.0250071697342
 42
0.0
  0
VERTEX
  8
CUIVRE
 10
172.142938273056
 20
-90.9727138888304
 42
0.0
  0
VERTEX
  8
CUIVRE
 10
171.777043716977
 20
-90.8701220557517
 42
0.0
  0
VERTEX
  8
CUIVRE
 10
171.458271696727
 20
-90.7754731938178
 42
-0.0127097219868
  0
VERTEX
  8
CUIVRE
 10
170.354345023304
 20
-90.4077688500913
 42
-0.023433255782
  0
VERTEX
  8
CUIVRE
 10
170.285963563074
 20
-90.3828330676085
 42
-0.023339081749
  0
VERTEX
  8
CUIVRE
 10
170.221930127169
 20
-90.3592409085975
 42
-0.0133590573177
  0
VERTEX
  8
CUIVRE
 10
169.272355100911
 20
-89.9800374124008
 42
0.02676235486
  0
VERTEX
  8
CUIVRE
 10
168.132208476663
 20
-89.0559792288341
 42
0.0334597693851
  0
VERTEX
  8
CUIVRE
 10
166.890932846732
 20
-88.2728849402256
 42
0.0
  0
SEQEND
  0
POLYLINE
  8
CUIVRE
 66
     1
 10
0.0
 20
0.0
 30
0.0
 70
     1
  0
VERTEX
  8
CUIVRE
 10
162.971383117623
 20
-88.2728849402256
 42
0.0
  0
VERTEX
  8
CUIVRE
 10
163.967080308401
 20
-88.2728849402256
 42
0.0
  0
VERTEX
  8
CUIVRE
 10
165.299126477772
 20
-88.7441094070675
 42
-0.0321245264021
  0
VERTEX
  8
CUIVRE
 10
166.110297716851
 20
-89.0900528038354
 42
-0.0204513078511
  0
VERTEX
  8
CUIVRE
 10
166.689611485674
 20
-89.4085849273297
 42
-0.0122595824149
  0
VERTEX
  8
CUIVRE
 10
167.107943391366
 20
-89.6747824010899
 42
-0.014933005276
  0
VERTEX
  8
CUIVRE
 10
167.261371352584
 20
-89.7798499376283
 42
-0.0244475632558
  0
VERTEX
  8
CUIVRE
 10
168.286820941815
 20
-90.5803668325524
 42
0.1145994841192
  0
VERTEX
  8
CUIVRE
 10
165.229439871716
 20
-90.6873912230585
 42
0.0484142100609
  0
VERTEX
  8
CUIVRE
 10
163.792993059456
 20
-91.2296318502304
 42
0.0368443977754
  0
VERTEX
  8
CUIVRE
 10
162.471392103479
 20
-92.0112657105041
 42
0.0436251929645
  0
VERTEX
  8
CUIVRE
 10
160.933052977753
 20
-93.2840762923449
 42
0.0459402885329
  0
VERTEX
  8
CUIVRE
 10
159.646026232332
 20
-94.8105134515035
 42
0.0
  0
VERTEX
  8
CUIVRE
 10
155.985203174166
 20
-94.8105134515035
 42
-0.0061271739554
  0
VERTEX
  8
CUIVRE
 10
156.019417278703
 20
-94.7086032206805
 42
0.0
  0
VERTEX
  8
CUIVRE
 10
156.085918862223
 20
-94.5349018656116
 42
-0.0047309263786
  0
VERTEX
  8
CUIVRE
 10
156.222362340098
 20
-94.2014145641458
 42
-0.0308796064419
  0
VERTEX
  8
CUIVRE
 10
156.82696201391
 20
-92.9935866335359
 42
-0.0495756331581
  0
VERTEX
  8
CUIVRE
 10
158.012889897666
 20
-91.3531097990882
 42
-0.0244024450555
  0
VERTEX
  8
CUIVRE
 10
158.722032210062
 20
-90.6293354283884
 42
-0.0232071992466
  0
VERTEX
  8
CUIVRE
 10
159.496207642418
 20
-89.9757310430443
 42
-0.0338296207114
  0
VERTEX
  8
CUIVRE
 10
160.535696682697
 20
-89.275829568462
 42
-0.0447806431422
  0
VERTEX
  8
CUIVRE
 10
161.67006289361
 20
-88.7430758784219
 42
0.0
  0
SEQEND
  0
POLYLINE
  8
CUIVRE
 66
     1
 10
0.0
 20
0.0
 30
0.0
 70
     1
  0
VERTEX
  8
CUIVRE
 10
154.643790651443
 20
-88.2728849402256
 42
0.0
  0
VERTEX
  8
CUIVRE
 10
160.097290677207
 20
-88.2728849402256
 42
0.0393352896536
  0
VERTEX
  8
CUIVRE
 10
158.824758532342
 20
-89.1042941400503
 42
0.0347646357136
  0
VERTEX
  8
CUIVRE
 10
157.594963962859
 20
-90.1892783858562
 42
0.055690281998
  0
VERTEX
  8
CUIVRE
 10
156.070650595886
 20
-92.1165347527537
 42
0.0502690946791
  0
VERTEX
  8
CUIVRE
 10
154.989333728614
 20
-94.323097035881
 42
0.0379837660231
  0
VERTEX
  8
CUIVRE
 10
154.978165818622
 20
-94.353290312504
 42
0.0101802558201
  0
VERTEX
  8
CUIVRE
 10
154.825820884145
 20
-94.8105134515035
 42
0.0
  0
VERTEX
  8
CUIVRE
 10
152.037037620682
 20
-94.8105134515035
 42
-0.0384657045727
  0
VERTEX
  8
CUIVRE
 10
152.229342995887
 20
-93.3000720271069
 42
-0.0113575990047
  0
VERTEX
  8
CUIVRE
 10
152.311546193027
 20
-92.928112653914
 42
-0.0080616593643
  0
VERTEX
  8
CUIVRE
 10
152.381599844407
 20
-92.65118810599
 42
0.0
  0
VERTEX
  8
CUIVRE
 10
152.409692961676
 20
-92.5477754621457
 42
-0.0142746394358
  0
VERTEX
  8
CUIVRE
 10
152.632888416703
 20
-91.8319484904969
 42
-0.0199535792069
  0
VERTEX
  8
CUIVRE
 10
152.970274818012
 20
-90.9670138335117
 42
-0.0651517769915
  0
VERTEX
  8
CUIVRE
 10
154.398155343345
 20
-88.5832234479063
 42
0.0
  0
SEQEND
  0
POLYLINE
  8
CUIVRE
 66
     1
 10
0.0
 20
0.0
 30
0.0
 70
     1
  0
VERTEX
  8
CUIVRE
 10
149.23292368231
 20
-88.9547769959905
 42
-0.0380600318443
  0
VERTEX
  8
CUIVRE
 10
149.239756037323
 20
-88.9337211773395
 42
0.0
  0
VERTEX
  8
CUIVRE
 10
149.294641575243
 20
-88.7775191348752
 42
0.0
  0
VERTEX
  8
CUIVRE
 10
149.353502024294
 20
-88.6226697912124
 42
0.0
  0
VERTEX
  8
CUIVRE
 10
149.48323140116
 20
-88.2728849402256
 42
0.0
  0
VERTEX
  8
CUIVRE
 10
153.265407947795
 20
-88.2728849402256
 42
0.0753083904066
  0
VERTEX
  8
CUIVRE
 10
151.593847618352
 20
-91.4712469931912
 42
0.006137218639
  0
VERTEX
  8
CUIVRE
 10
151.460620269018
 20
-91.8767512607494
 42
0.0637289832832
  0
VERTEX
  8
CUIVRE
 10
150.936803313774
 20
-94.8105134515035
 42
0.0
  0
VERTEX
  8
CUIVRE
 10
149.004707638259
 20
-94.8105134515035
 42
-0.0736148159996
  0
VERTEX
  8
CUIVRE
 10
148.701074913541
 20
-91.8663362634369
 42
-0.0353069916935
  0
VERTEX
  8
CUIVRE
 10
148.870198057848
 20
-90.3928387513267
 42
-0.0316391001651
  0
SEQEND
  0
POLYLINE
  8
CUIVRE
 66
     1
 10
0.0
 20
0.0
 30
0.0
 70
     1
  0
VERTEX
  8
CUIVRE
 10
145.359430573469
 20
-88.3186401146391
 42
0.0
  0
VERTEX
  8
CUIVRE
 10
145.363650815439
 20
-88.2728849402256
 42
0.0
  0
VERTEX
  8
CUIVRE
 10
148.310413238747
 20
-88.2728849402256
 42
0.0101857376746
  0
VERTEX
  8
CUIVRE
 10
148.185270145245
 20
-88.6200859695984
 42
0.0120763353457
  0
VERTEX
  8
CUIVRE
 10
148.071499058711
 20
-88.9951788566429
 42
0.0238051127847
  0
VERTEX
  8
CUIVRE
 10
148.058882837719
 20
-89.0393995651824
 42
0.0604136871744
  0
VERTEX
  8
CUIVRE
 10
147.60104100245
 20
-91.9135354364117
 42
0.0647531514362
  0
VERTEX
  8
CUIVRE
 10
147.879388729849
 20
-94.8105134515035
 42
0.0
  0
VERTEX
  8
CUIVRE
 10
146.807016632678
 20
-94.8105134515035
 42
-0.0109362270229
  0
VERTEX
  8
CUIVRE
 10
146.760644660204
 20
-94.7251376032569
 42
-0.0272627180446
  0
VERTEX
  8
CUIVRE
 10
146.113843348625
 20
-93.3661266824605
 42
-0.0342413470945
  0
VERTEX
  8
CUIVRE
 10
145.63951683642
 20
-91.937712921894
 42
-0.0859340197104
  0
SEQEND
  0
POLYLINE
  8
CUIVRE
 66
     1
 10
0.0
 20
0.0
 30
0.0
 70
     1
  0
VERTEX
  8
CUIVRE
 10
144.260315922594
 20
-88.2728849402256
 42
0.0848232471072
  0
VERTEX
  8
CUIVRE
 10
144.573948802832
 20
-92.2107367391001
 42
0.0281655049071
  0
VERTEX
  8
CUIVRE
 10
144.997063352892
 20
-93.5375175218489
 42
0.0
  0
VERTEX
  8
CUIVRE
 10
145.060498980394
 20
-93.6997730277613
 42
0.0
  0
VERTEX
  8
CUIVRE
 10
145.17668180308
 20
-93.9814869738784
 42
0.0102206664249
  0
VERTEX
  8
CUIVRE
 10
145.362747853756
 20
-94.3989894977391
 42
0.0149921436091
  0
VERTEX
  8
CUIVRE
 10
145.411375179103
 20
-94.5024679595547
 42
0.0127396926981
  0
VERTEX
  8
CUIVRE
 10
145.485769965817
 20
-94.6569186788949
 42
0.0
  0
VERTEX
  8
CUIVRE
 10
145.561872996921
 20
-94.8105134515035
 42
0.0
  0
VERTEX
  8
CUIVRE
 10
144.27754140002
 20
-94.8105134515035
 42
0.0
  0
VERTEX
  8
CUIVRE
 10
144.165327008135
 20
-94.6512462169234
 42
-0.0093301795063
  0
VERTEX
  8
CUIVRE
 10
143.832908763955
 20
-94.1706515606587
 42
-0.0119062822408
  0
VERTEX
  8
CUIVRE
 10
143.064339901814
 20
-92.9652508998448
 42
-0.0121911862998
  0
VERTEX
  8
CUIVRE
 10
142.532266404521
 20
-92.0335981328138
 42
0.0
  0
VERTEX
  8
CUIVRE
 10
142.438110651293
 20
-91.8556502196163
 42
-0.0260628760988
  0
VERTEX
  8
CUIVRE
 10
141.804525654609
 20
-90.4861819194855
 42
-0.0337369638238
  0
VERTEX
  8
CUIVRE
 10
141.332802970309
 20
-89.0529622173201
 42
-0.0100575566919
  0
VERTEX
  8
CUIVRE
 10
141.243011829124
 20
-88.6644709768445
 42
0.0
  0
VERTEX
  8
CUIVRE
 10
141.204080711124
 20
-88.4689817176971
 42
-0.0115277669128
  0
VERTEX
  8
CUIVRE
 10
141.168170469808
 20
-88.2728849402256
 42
0.0
  0
SEQEND
  0
POLYLINE
  8
CUIVRE
 66
     1
 10
0.0
 20
0.0
 30
0.0
 70
     1
  0
VERTEX
  8
CUIVRE
 10
140.051851873353
 20
-88.2728849402256
 42
0.0
  0
VERTEX
  8
CUIVRE
 10
140.065869105608
 20
-88.356019400654
 42
0.0
  0
VERTEX
  8
CUIVRE
 10
140.108930135814
 20
-88.5998953612752
 42
0.0181245849568
  0
VERTEX
  8
CUIVRE
 10
140.266890427173
 20
-89.3256415249776
 42
0.031021300102
  0
VERTEX
  8
CUIVRE
 10
140.735670657902
 20
-90.7755458304584
 42
0.024927624868
  0
VERTEX
  8
CUIVRE
 10
140.761787610204
 20
-90.8420955068454
 42
0.0195527664347
  0
VERTEX
  8
CUIVRE
 10
141.214509000329
 20
-91.8714414428915
 42
0.003316941153
  0
VERTEX
  8
CUIVRE
 10
141.402538691615
 20
-92.2488707664701
 42
0.0
  0
VERTEX
  8
CUIVRE
 10
141.574179696646
 20
-92.575368853487
 42
0.0
  0
VERTEX
  8
CUIVRE
 10
141.729428842975
 20
-92.8583991688641
 42
0.006765740721
  0
VERTEX
  8
CUIVRE
 10
142.011296816908
 20
-93.3479227696337
 42
0.00649811724
  0
VERTEX
  8
CUIVRE
 10
142.120040871112
 20
-93.529745636911
 42
0.0
  0
VERTEX
  8
CUIVRE
 10
142.313858408573
 20
-93.8457511809733
 42
0.0
  0
VERTEX
  8
CUIVRE
 10
142.38763254031
 20
-93.9636279846177
 42
0.0
  0
VERTEX
  8
CUIVRE
 10
142.517981075814
 20
-94.1690548680328
 42
0.0057979279282
  0
VERTEX
  8
CUIVRE
 10
142.917202383976
 20
-94.7799166972252
 42
0.0
  0
VERTEX
  8
CUIVRE
 10
142.93845431675
 20
-94.8105134515035
 42
0.0
  0
VERTEX
  8
CUIVRE
 10
141.998653800221
 20
-94.8105134515035
 42
-0.0069754328532
  0
VERTEX
  8
CUIVRE
 10
141.326890660311
 20
-93.962334768617
 42
-0.0224434619652
  0
VERTEX
  8
CUIVRE
 10
139.46056582885
 20
-91.3077772124161
 42
0.0
  0
VERTEX
  8
CUIVRE
 10
139.229903142723
 20
-90.9404439609305
 42
-0.0142701947401
  0
VERTEX
  8
CUIVRE
 10
138.462977461091
 20
-89.6306969253886
 42
-0.0202245681262
  0
VERTEX
  8
CUIVRE
 10
137.784785257438
 20
-88.2728849402256
 42
0.0
  0
SEQEND
  0
POLYLINE
  8
CUIVRE
 66
     1
 10
0.0
 20
0.0
 30
0.0
 70
     1
  0
VERTEX
  8
CUIVRE
 10
136.583049824795
 20
-88.2728849402256
 42
0.0
  0
VERTEX
  8
CUIVRE
 10
136.667799173732
 20
-88.4702243159901
 42
0.0116722849945
  0
VERTEX
  8
CUIVRE
 10
137.077804473056
 20
-89.3564198849718
 42
0.0160705983352
  0
VERTEX
  8
CUIVRE
 10
137.770468128576
 20
-90.6465193595822
 42
0.0108896140644
  0
VERTEX
  8
CUIVRE
 10
138.53142007688
 20
-91.8975775594909
 42
0.0
  0
VERTEX
  8
CUIVRE
 10
138.773150150068
 20
-92.2726590678421
 42
0.0108748443082
  0
VERTEX
  8
CUIVRE
 10
139.656918972037
 20
-93.5601345136701
 42
0.0
  0
VERTEX
  8
CUIVRE
 10
139.886331526041
 20
-93.876144134388
 42
0.0
  0
VERTEX
  8
CUIVRE
 10
139.973160269317
 20
-93.9940474780989
 42
0.0
  0
VERTEX
  8
CUIVRE
 10
140.280356515357
 20
-94.404162797833
 42
0.0057654814152
  0
VERTEX
  8
CUIVRE
 10
140.592559609763
 20
-94.8105134515035
 42
0.0
  0
VERTEX
  8
CUIVRE
 10
139.837696125251
 20
-94.8105134515035
 42
-0.0233602223525
  0
VERTEX
  8
CUIVRE
 10
137.30795340494
 20
-91.7517161621003
 42
-0.0246690811898
  0
VERTEX
  8
CUIVRE
 10
135.0871893651
 20
-88.4617838320512
 42
0.0
  0
VERTEX
  8
CUIVRE
 10
134.975675930611
 20
-88.2728849402256
 42
0.0
  0
SEQEND
  0
POLYLINE
  8
CUIVRE
 66
     1
 10
0.0
 20
0.0
 30
0.0
 70
     1
  0
VERTEX
  8
CUIVRE
 10
133.699784817649
 20
-88.2728849402256
 42
0.0
  0
VERTEX
  8
CUIVRE
 10
133.941867371028
 20
-88.6851982742697
 42
0.0166467682994
  0
VERTEX
  8
CUIVRE
 10
133.967169864688
 20
-88.7285952786018
 42
0.0077511561787
  0
VERTEX
  8
CUIVRE
 10
134.145989278529
 20
-89.0309136062145
 42
0.009662017622
  0
VERTEX
  8
CUIVRE
 10
134.262452877957
 20
-89.2223346587192
 42
0.007249349368
  0
VERTEX
  8
CUIVRE
 10
134.376279991929
 20
-89.4071271946331
 42
0.0402970794732
  0
VERTEX
  8
CUIVRE
 10
138.371829528124
 20
-94.8105134515035
 42
0.0
  0
VERTEX
  8
CUIVRE
 10
137.768873222665
 20
-94.8105134515035
 42
0.0
  0
VERTEX
  8
CUIVRE
 10
137.419711444092
 20
-94.4355253447702
 42
0.0
  0
VERTEX
  8
CUIVRE
 10
137.067602504796
 20
-94.0633368362932
 42
-0.0425897903944
  0
VERTEX
  8
CUIVRE
 10
132.395643921708
 20
-88.2728849402256
 42
0.0
  0
SEQEND
  0
POLYLINE
  8
CUIVRE
 66
     1
 10
0.0
 20
0.0
 30
0.0
 70
     1
  0
VERTEX
  8
CUIVRE
 10
131.071715258574
 20
-88.2728849402256
 42
0.0
  0
VERTEX
  8
CUIVRE
 10
131.254520637759
 20
-88.548944747828
 42
0.0449135681993
  0
VERTEX
  8
CUIVRE
 10
136.260330505214
 20
-94.8105134515035
 42
0.0
  0
VERTEX
  8
CUIVRE
 10
135.281169772766
 20
-94.8105134515035
 42
0.0193283365086
  0
VERTEX
  8
CUIVRE
 10
132.407766351447
 20
-91.3525634537244
 42
0.0
  0
VERTEX
  8
CUIVRE
 10
132.242550433417
 20
-91.1668750524164
 42
-0.0210555225732
  0
VERTEX
  8
CUIVRE
 10
129.894676854191
 20
-88.2728849402256
 42
0.0
  0
SEQEND
  0
POLYLINE
  8
CUIVRE
 66
     1
 10
0.0
 20
0.0
 30
0.0
 70
     1
  0
VERTEX
  8
CUIVRE
 10
128.525100675877
 20
-88.2728849402256
 42
0.0
  0
VERTEX
  8
CUIVRE
 10
128.740806716947
 20
-88.5678927729969
 42
0.0251401938864
  0
VERTEX
  8
CUIVRE
 10
131.588694899829
 20
-92.0868855564054
 42
-0.0081254036315
  0
VERTEX
  8
CUIVRE
 10
132.758116852635
 20
-93.4312437549827
 42
0.0
  0
VERTEX
  8
CUIVRE
 10
133.044022661956
 20
-93.7729015161609
 42
-0.0168910246767
  0
VERTEX
  8
CUIVRE
 10
133.097361745624
 20
-93.837225291708
 42
-0.0162831647383
  0
VERTEX
  8
CUIVRE
 10
133.147281658279
 20
-93.8975933484845
 42
0.0
  0
VERTEX
  8
CUIVRE
 10
133.519001531567
 20
-94.3522600649769
 42
0.0
  0
VERTEX
  8
CUIVRE
 10
133.886250610788
 20
-94.8105134515035
 42
0.0
  0
VERTEX
  8
CUIVRE
 10
132.248021580165
 20
-94.8105134515035
 42
0.0172734217546
  0
VERTEX
  8
CUIVRE
 10
130.102422979572
 20
-91.6500274872486
 42
0.0
  0
VERTEX
  8
CUIVRE
 10
129.819001650089
 20
-91.2656061311153
 42
0.014749519956
  0
VERTEX
  8
CUIVRE
 10
127.746724414678
 20
-88.6429958545754
 42
0.0
  0
VERTEX
  8
CUIVRE
 10
127.67090358792
 20
-88.5511224300738
 42
0.0
  0
VERTEX
  8
CUIVRE
 10
127.446828852687
 20
-88.2728849402256
 42
0.0
  0
SEQEND
  0
POLYLINE
  8
CUIVRE
 66
     1
 10
0.0
 20
0.0
 30
0.0
 70
     1
  0
VERTEX
  8
CUIVRE
 10
126.032272646443
 20
-88.2728849402256
 42
0.0
  0
VERTEX
  8
CUIVRE
 10
126.281180795253
 20
-88.5847737408746
 42
0.0033236657509
  0
VERTEX
  8
CUIVRE
 10
126.590048050533
 20
-88.9683453475634
 42
0.0
  0
VERTEX
  8
CUIVRE
 10
126.903192785114
 20
-89.3485514099545
 42
-0.0307888728844
  0
VERTEX
  8
CUIVRE
 10
130.940069547343
 20
-94.8105134515035
 42
0.0
  0
VERTEX
  8
CUIVRE
 10
128.723150602585
 20
-94.8105134515035
 42
0.0175785367474
  0
VERTEX
  8
CUIVRE
 10
126.877258551057
 20
-91.473095455244
 42
0.0181541045466
  0
VERTEX
  8
CUIVRE
 10
124.802631940371
 20
-88.2728849402256
 42
0.0
  0
SEQEND
  0
POLYLINE
  8
CUIVRE
 66
     1
 10
0.0
 20
0.0
 30
0.0
 70
     1
  0
VERTEX
  8
CUIVRE
 10
123.457365217074
 20
-88.2728849402256
 42
0.0
  0
VERTEX
  8
CUIVRE
 10
123.66359724556
 20
-88.562725129769
 42
-0.0342878150247
  0
VERTEX
  8
CUIVRE
 10
127.496438227675
 20
-94.8105134515035
 42
0.0
  0
VERTEX
  8
CUIVRE
 10
124.84205675183
 20
-94.8105134515035
 42
0.0163904845963
  0
VERTEX
  8
CUIVRE
 10
123.367335127718
 20
-91.4904530506875
 42
0.0103802647628
  0
VERTEX
  8
CUIVRE
 10
123.317807443451
 20
-91.3882183406028
 42
0.0153670342038
  0
VERTEX
  8
CUIVRE
 10
121.680449561323
 20
-88.2728849402256
 42
0.0
  0
SEQEND
  0
POLYLINE
  8
CUIVRE
 66
     1
 10
0.0
 20
0.0
 30
0.0
 70
     1
  0
VERTEX
  8
CUIVRE
 10
120.417628279357
 20
-88.2728849402256
 42
0.0
  0
VERTEX
  8
CUIVRE
 10
120.560944251544
 20
-88.5220730030431
 42
-0.0086322494368
  0
VERTEX
  8
CUIVRE
 10
120.615495378699
 20
-88.6171575785212
 42
-0.031711695176
  0
VERTEX
  8
CUIVRE
 10
123.656965436751
 20
-94.8105134515035
 42
0.0
  0
VERTEX
  8
CUIVRE
 10
122.32089281203
 20
-94.8105134515035
 42
0.4141898594637
  0
VERTEX
  8
CUIVRE
 10
121.320889251897
 20
-95.8105170116377
 42
0.0
  0
VERTEX
  8
CUIVRE
 10
121.320889251897
 20
-97.2342242527639
 42
0.0
  0
VERTEX
  8
CUIVRE
 10
121.158518880441
 20
-96.660755940623
 42
0.0
  0
VERTEX
  8
CUIVRE
 10
121.00187080825
 20
-96.1244019858488
 42
0.016686283578
  0
VERTEX
  8
CUIVRE
 10
119.682410659502
 20
-92.1478897656669
 42
0.0086500102486
  0
VERTEX
  8
CUIVRE
 10
119.591054079584
 20
-91.9023807761479
 42
0.0
  0
VERTEX
  8
CUIVRE
 10
119.416876894852
 20
-91.4432375492206
 42
0.0
  0
VERTEX
  8
CUIVRE
 10
119.261324137523
 20
-91.042675443182
 42
0.0135246989737
  0
VERTEX
  8
CUIVRE
 10
118.08906670903
 20
-88.2728849402256
 42
0.0
  0
SEQEND
  0
POLYLINE
  8
CUIVRE
 66
     1
 10
0.0
 20
0.0
 30
0.0
 70
     1
  0
VERTEX
  8
CUIVRE
 10
100.380694554983
 20
-88.2728849402256
 42
0.0
  0
VERTEX
  8
CUIVRE
 10
104.064685880288
 20
-88.2728849402256
 42
0.0
  0
VERTEX
  8
CUIVRE
 10
104.087014405402
 20
-88.3773789926626
 42
-0.0049560708147
  0
VERTEX
  8
CUIVRE
 10
104.459538037406
 20
-90.2166337902469
 42
0.0
  0
VERTEX
  8
CUIVRE
 10
104.546529319415
 20
-90.6777309431293
 42
-0.0079130543665
  0
VERTEX
  8
CUIVRE
 10
104.578519108045
 20
-90.8507534900513
 42
0.0
  0
VERTEX
  8
CUIVRE
 10
104.687760853634
 20
-91.4567784556538
 42
0.0
  0
VERTEX
  8
CUIVRE
 10
104.792742215555
 20
-92.0634589071057
 42
0.0
  0
VERTEX
  8
CUIVRE
 10
104.923093477158
 20
-92.8389034413277
 42
0.0
  0
VERTEX
  8
CUIVRE
 10
105.034830628565
 20
-93.517854412464
 42
0.0
  0
VERTEX
  8
CUIVRE
 10
105.130249684095
 20
-94.1123129049489
 42
0.0
  0
VERTEX
  8
CUIVRE
 10
105.211568311068
 20
-94.6327644598281
 42
0.0
  0
VERTEX
  8
CUIVRE
 10
105.22906367466
 20
-94.746707284064
 42
-0.0054709420287
  0
VERTEX
  8
CUIVRE
 10
105.483583013582
 20
-96.5145907662424
 42
0.0
  0
VERTEX
  8
CUIVRE
 10
105.512886604634
 20
-96.7359351221752
 42
0.0
  0
VERTEX
  8
CUIVRE
 10
105.562628913864
 20
-97.1235430667471
 42
0.0
  0
VERTEX
  8
CUIVRE
 10
105.633288254468
 20
-97.7053507121786
 42
-0.0053693630948
  0
VERTEX
  8
CUIVRE
 10
105.650170648798
 20
-97.8509156704806
 42
-0.006752505289
  0
VERTEX
  8
CUIVRE
 10
105.662616233055
 20
-97.9601057832793
 42
-0.0103444230703
  0
VERTEX
  8
CUIVRE
 10
105.68092843142
 20
-98.1239066280621
 42
-0.012368412592
  0
VERTEX
  8
CUIVRE
 10
105.698802328176
 20
-98.2877129203065
 42
0.0
  0
VERTEX
  8
CUIVRE
 10
105.744105333807
 20
-98.3368055309714
 42
0.0
  0
VERTEX
  8
CUIVRE
 10
105.975831068884
 20
-98.3554090465917
 42
0.0
  0
VERTEX
  8
CUIVRE
 10
102.941175647008
 20
-98.3554090465917
 42
-0.1901537578348
  0
VERTEX
  8
CUIVRE
 10
101.491867040057
 20
-97.7819729030719
 42
0.0
  0
VERTEX
  8
CUIVRE
 10
101.401217965101
 20
-96.8250976320437
 42
0.0123901863425
  0
VERTEX
  8
CUIVRE
 10
101.047946081673
 20
-93.1311931833673
 42
0.0
  0
VERTEX
  8
CUIVRE
 10
100.934680018706
 20
-92.210395032171
 42
0.0
  0
VERTEX
  8
CUIVRE
 10
100.890306662565
 20
-91.8653615784815
 42
0.0
  0
VERTEX
  8
CUIVRE
 10
100.810474963061
 20
-91.2617750623385
 42
0.0
  0
VERTEX
  8
CUIVRE
 10
100.686344402698
 20
-90.3570788494928
 42
0.0
  0
VERTEX
  8
CUIVRE
 10
100.654626407581
 20
-90.1309866920322
 42
0.0
  0
VERTEX
  8
CUIVRE
 10
100.630685897549
 20
-89.9614320729515
 42
0.0030063233911
  0
VERTEX
  8
CUIVRE
 10
100.55820309986
 20
-89.4529378031576
 42
0.0
  0
VERTEX
  8
CUIVRE
 10
100.515294322977
 20
-89.157666568766
 42
0.0
  0
VERTEX
  8
CUIVRE
 10
100.482360414599
 20
-88.9363020259419
 42
0.0
  0
SEQEND
  0
POLYLINE
  8
CUIVRE
 66
     1
 10
0.0
 20
0.0
 30
0.0
 70
     1
  0
VERTEX
  8
CUIVRE
 10
107.721245632792
 20
-105.789623657906
 42
-0.4124967703046
  0
VERTEX
  8
CUIVRE
 10
107.221233086802
 20
-106.289636203896
 42
0.0
  0
VERTEX
  8
CUIVRE
 10
101.079123069077
 20
-106.289636203896
 42
-0.4124288175783
  0
VERTEX
  8
CUIVRE
 10
100.579132054933
 20
-105.789623657906
 42
0.0
  0
VERTEX
  8
CUIVRE
 10
100.579132054933
 20
-99.789623828948
 42
-0.4125375332105
  0
VERTEX
  8
CUIVRE
 10
101.079123069077
 20
-99.2896328148043
 42
0.0
  0
VERTEX
  8
CUIVRE
 10
105.830792548955
 20
-99.2896328148043
 42
-0.1992528288127
  0
VERTEX
  8
CUIVRE
 10
107.165925846859
 20
-99.8449526007373
 42
-0.1996774763175
  0
VERTEX
  8
CUIVRE
 10
107.721245632792
 20
-101.180085898642
 42
0.0
  0
SEQEND
  0
POLYLINE
  8
CUIVRE
 66
     1
 10
0.0
 20
0.0
 30
0.0
 70
     1
  0
VERTEX
  8
CUIVRE
 10
116.419939478274
 20
-117.186989988064
 42
0.0
  0
VERTEX
  8
CUIVRE
 10
116.405168631381
 20
-117.273009715962
 42
0.0
  0
VERTEX
  8
CUIVRE
 10
111.429740199736
 20
-117.273009715962
 42
0.0085758548939
  0
VERTEX
  8
CUIVRE
 10
111.468395519376
 20
-117.095872140999
 42
0.0276909025122
  0
VERTEX
  8
CUIVRE
 10
112.368588173433
 20
-111.459155198738
 42
0.0096848882018
  0
VERTEX
  8
CUIVRE
 10
112.386698600223
 20
-111.281597188537
 42
0.0269805005217
  0
VERTEX
  8
CUIVRE
 10
112.640152966632
 20
-105.7575412062
 42
0.0101233988345
  0
VERTEX
  8
CUIVRE
 10
112.602407908683
 20
-104.312597766161
 42
0.0149461351335
  0
VERTEX
  8
CUIVRE
 10
112.408238128644
 20
-101.791268989376
 42
0.0
  0
VERTEX
  8
CUIVRE
 10
112.35604800486
 20
-101.320067050396
 42
0.0135577033209
  0
VERTEX
  8
CUIVRE
 10
111.842972123064
 20
-97.801814143848
 42
0.0
  0
VERTEX
  8
CUIVRE
 10
111.805212568167
 20
-97.5827509143966
 42
0.0
  0
VERTEX
  8
CUIVRE
 10
111.659339514712
 20
-96.7623170409348
 42
0.0016775875997
  0
VERTEX
  8
CUIVRE
 10
111.546058326161
 20
-96.147690767381
 42
0.0
  0
VERTEX
  8
CUIVRE
 10
111.371283031753
 20
-95.2266838856333
 42
0.0
  0
VERTEX
  8
CUIVRE
 10
111.326861080903
 20
-94.9965298756443
 42
0.0
  0
VERTEX
  8
CUIVRE
 10
111.293387332335
 20
-94.8239167957492
 42
0.0036904302091
  0
VERTEX
  8
CUIVRE
 10
111.192351588955
 20
-94.3063883227776
 42
0.0
  0
VERTEX
  8
CUIVRE
 10
111.192351588955
 20
-94.3062160680033
 42
0.0
  0
VERTEX
  8
CUIVRE
 10
111.039600777753
 20
-93.5462907940913
 42
0.0
  0
VERTEX
  8
CUIVRE
 10
110.90004205592
 20
-92.8825530697732
 42
0.0
  0
VERTEX
  8
CUIVRE
 10
110.773372460113
 20
-92.302668540017
 42
0.0057164992919
  0
VERTEX
  8
CUIVRE
 10
110.296306735265
 20
-90.2810428130929
 42
0.0
  0
VERTEX
  8
CUIVRE
 10
110.16868942122
 20
-89.7776643428284
 42
0.0157841437541
  0
VERTEX
  8
CUIVRE
 10
110.156541894673
 20
-89.7304817725675
 42
0.0059149855802
  0
VERTEX
  8
CUIVRE
 10
110.061436837384
 20
-89.3653126157836
 42
0.003402968855
  0
VERTEX
  8
CUIVRE
 10
109.76515618865
 20
-88.2728849402256
 42
0.0
  0
VERTEX
  8
CUIVRE
 10
112.904520981431
 20
-88.2728849402256
 42
0.0
  0
VERTEX
  8
CUIVRE
 10
112.966748018633
 20
-88.4438693355279
 42
-0.005738617556
  0
VERTEX
  8
CUIVRE
 10
113.337270949914
 20
-89.4905818420531
 42
0.0
  0
VERTEX
  8
CUIVRE
 10
113.415829456956
 20
-89.7204568819291
 42
0.0
  0
VERTEX
  8
CUIVRE
 10
113.49108267781
 20
-89.9434493365373
 42
-0.0061725731061
  0
VERTEX
  8
CUIVRE
 10
114.04601448364
 20
-91.680572010523
 42
-0.0096547165474
  0
VERTEX
  8
CUIVRE
 10
114.788013237963
 20
-94.3132965280764
 42
0.0
  0
VERTEX
  8
CUIVRE
 10
114.873503485096
 20
-94.6443644732299
 42
0.0
  0
VERTEX
  8
CUIVRE
 10
114.94704204218
 20
-94.9343820287355
 42
-0.0069193063854
  0
VERTEX
  8
CUIVRE
 10
115.010427588233
 20
-95.1883783406012
 42
-0.0059507464785
  0
VERTEX
  8
CUIVRE
 10
115.429991290587
 20
-96.9722032092639
 42
0.0
  0
VERTEX
  8
CUIVRE
 10
115.583860724651
 20
-97.6658266225722
 42
0.0
  0
VERTEX
  8
CUIVRE
 10
115.726091392401
 20
-98.3165918412124
 42
-0.0123269891365
  0
VERTEX
  8
CUIVRE
 10
115.742606432711
 20
-98.3929400773122
 42
-0.0122664871968
  0
VERTEX
  8
CUIVRE
 10
115.758953633749
 20
-98.4686968097596
 42
-0.0122062413968
  0
VERTEX
  8
CUIVRE
 10
115.775134768998
 20
-98.543871517097
 42
-0.0121454977404
  0
VERTEX
  8
CUIVRE
 10
115.791149640982
 20
-98.618464360169
 42
-0.0120850022224
  0
VERTEX
  8
CUIVRE
 10
115.807000054922
 20
-98.6924846496111
 42
-0.0064054632784
  0
VERTEX
  8
CUIVRE
 10
116.282957715235
 20
-101.047104430834
 42
0.0
  0
VERTEX
  8
CUIVRE
 10
116.364733046155
 20
-101.49014578948
 42
0.0
  0
VERTEX
  8
CUIVRE
 10
116.438709085645
 20
-101.905961015589
 42
0.0
  0
VERTEX
  8
CUIVRE
 10
116.505524971717
 20
-102.296283916956
 42
-0.0046559380474
  0
VERTEX
  8
CUIVRE
 10
116.623564042509
 20
-103.029355917221
 42
-0.0148803129986
  0
VERTEX
  8
CUIVRE
 10
116.947366683413
 20
-105.607577382617
 42
-0.0188134821771
  0
VERTEX
  8
CUIVRE
 10
117.09586721248
 20
-108.201836452984
 42
-0.0475975998857
  0
SEQEND
  0
POLYLINE
  8
CUIVRE
 66
     1
 10
0.0
 20
0.0
 30
0.0
 70
     1
  0
VERTEX
  8
CUIVRE
 10
122.364623992846
 20
-117.213172713752
 42
0.0
  0
VERTEX
  8
CUIVRE
 10
122.357583078948
 20
-117.273009715962
 42
0.0
  0
VERTEX
  8
CUIVRE
 10
117.520281444416
 20
-117.273009715962
 42
0.0473541720004
  0
VERTEX
  8
CUIVRE
 10
118.195541691371
 20
-108.181165880073
 42
0.0206363083057
  0
VERTEX
  8
CUIVRE
 10
118.021684076716
 20
-105.287477822452
 42
0.0073320504055
  0
VERTEX
  8
CUIVRE
 10
118.007971938151
 20
-105.15227992953
 42
0.0088023116032
  0
VERTEX
  8
CUIVRE
 10
117.979666212927
 20
-104.886276468184
 42
0.0116791020614
  0
VERTEX
  8
CUIVRE
 10
117.706391938868
 20
-102.831672221825
 42
0.0
  0
VERTEX
  8
CUIVRE
 10
117.6456499463
 20
-102.447846757519
 42
0.0
  0
VERTEX
  8
CUIVRE
 10
117.586316766534
 20
-102.088414393429
 42
0.0
  0
VERTEX
  8
CUIVRE
 10
117.528694986398
 20
-101.751716802065
 42
0.0
  0
VERTEX
  8
CUIVRE
 10
117.473026630965
 20
-101.43636913199
 42
0.0
  0
VERTEX
  8
CUIVRE
 10
117.419460918638
 20
-101.140958949807
 42
0.0
  0
VERTEX
  8
CUIVRE
 10
117.36809921182
 20
-100.864218721144
 42
0.0017521581795
  0
VERTEX
  8
CUIVRE
 10
117.166656457003
 20
-99.8282491808684
 42
0.0
  0
VERTEX
  8
CUIVRE
 10
117.12748229764
 20
-99.6342336084159
 42
0.0041075945106
  0
VERTEX
  8
CUIVRE
 10
116.8226122207
 20
-98.181843956642
 42
0.0
  0
VERTEX
  8
CUIVRE
 10
116.783351270645
 20
-98.0004938594921
 42
0.0
  0
VERTEX
  8
CUIVRE
 10
116.644485580458
 20
-97.366237123063
 42
0.0
  0
VERTEX
  8
CUIVRE
 10
116.503827553339
 20
-96.7324245634905
 42
0.0
  0
VERTEX
  8
CUIVRE
 10
116.382137866961
 20
-96.1955704756563
 42
0.0137843963939
  0
VERTEX
  8
CUIVRE
 10
115.347076807125
 20
-92.1995364808514
 42
0.0156259308113
  0
VERTEX
  8
CUIVRE
 10
114.073937112052
 20
-88.2728849402256
 42
0.0
  0
VERTEX
  8
CUIVRE
 10
116.881087040821
 20
-88.2728849402256
 42
0.0
  0
VERTEX
  8
CUIVRE
 10
116.977528182561
 20
-88.4821098954142
 42
0.0
  0
VERTEX
  8
CUIVRE
 10
117.0526001397
 20
-88.6456847954513
 42
-0.0250010696365
  0
VERTEX
  8
CUIVRE
 10
119.145177250218
 20
-93.9104062520679
 42
0.0
  0
VERTEX
  8
CUIVRE
 10
119.20229126667
 20
-94.0780870439258
 42
-0.0202971703475
  0
VERTEX
  8
CUIVRE
 10
120.744740095682
 20
-99.345184979504
 42
0.0
  0
VERTEX
  8
CUIVRE
 10
120.892069095938
 20
-99.9364003530156
 42
0.0
  0
VERTEX
  8
CUIVRE
 10
121.109160540196
 20
-100.824164888676
 42
0.0
  0
VERTEX
  8
CUIVRE
 10
121.215748765409
 20
-101.268567597448
 42
0.0
  0
VERTEX
  8
CUIVRE
 10
121.320889251897
 20
-101.713300552372
 42
0.0
  0
VERTEX
  8
CUIVRE
 10
121.320889251897
 20
-109.768881198144
 42
0.4142288465785
  0
VERTEX
  8
CUIVRE
 10
122.32089281203
 20
-110.768884758278
 42
0.0
  0
VERTEX
  8
CUIVRE
 10
122.651751169695
 20
-110.768884758278
 42
-0.0360483723036
  0
SEQEND
  0
POLYLINE
  8
CUIVRE
 66
     1
 10
0.0
 20
0.0
 30
0.0
 70
     1
  0
VERTEX
  8
CUIVRE
 10
128.171676942784
 20
-117.243145044474
 42
0.0
  0
VERTEX
  8
CUIVRE
 10
128.169975926888
 20
-117.273009715962
 42
0.0
  0
VERTEX
  8
CUIVRE
 10
123.464104685117
 20
-117.273009715962
 42
0.035452781512
  0
VERTEX
  8
CUIVRE
 10
123.751576371515
 20
-110.768884758278
 42
0.0
  0
VERTEX
  8
CUIVRE
 10
128.015657180996
 20
-110.768884758278
 42
-0.0082636277236
  0
VERTEX
  8
CUIVRE
 10
128.128456102864
 20
-111.87386064388
 42
0.0
  0
VERTEX
  8
CUIVRE
 10
128.15075794751
 20
-112.150649469869
 42
0.0
  0
VERTEX
  8
CUIVRE
 10
128.178831463741
 20
-112.566274560174
 42
0.0
  0
VERTEX
  8
CUIVRE
 10
128.199754470988
 20
-112.982250948317
 42
0.0
  0
VERTEX
  8
CUIVRE
 10
128.219977183149
 20
-113.514644145213
 42
-0.0220691436488
  0
SEQEND
  0
POLYLINE
  8
CUIVRE
 66
     1
 10
0.0
 20
0.0
 30
0.0
 70
     1
  0
VERTEX
  8
CUIVRE
 10
129.27152367645
 20
-117.273009715962
 42
0.0253557681632
  0
VERTEX
  8
CUIVRE
 10
129.298739930783
 20
-112.932986082878
 42
0.0179644610381
  0
VERTEX
  8
CUIVRE
 10
129.122889338108
 20
-110.768884758278
 42
0.0
  0
VERTEX
  8
CUIVRE
 10
133.113580288987
 20
-110.768884758278
 42
-0.0083519564465
  0
VERTEX
  8
CUIVRE
 10
133.172529481256
 20
-111.058997952372
 42
-0.0162631679671
  0
VERTEX
  8
CUIVRE
 10
133.540318420155
 20
-113.248225457647
 42
-0.0195761818407
  0
VERTEX
  8
CUIVRE
 10
133.74876976908
 20
-115.458241073566
 42
0.0
  0
VERTEX
  8
CUIVRE
 10
133.760735081829
 20
-115.684905072242
 42
-0.0147204502404
  0
VERTEX
  8
CUIVRE
 10
133.765482370835
 20
-115.784119331547
 42
0.0
  0
VERTEX
  8
CUIVRE
 10
133.780749841235
 20
-116.156228247848
 42
0.0
  0
VERTEX
  8
CUIVRE
 10
133.789719208518
 20
-116.435407024545
 42
0.0
  0
VERTEX
  8
CUIVRE
 10
133.799526046419
 20
-116.854137163346
 42
0.0
  0
VERTEX
  8
CUIVRE
 10
133.805398526119
 20
-117.273009715962
 42
0.0
  0
SEQEND
  0
POLYLINE
  8
CUIVRE
 66
     1
 10
0.0
 20
0.0
 30
0.0
 70
     1
  0
VERTEX
  8
CUIVRE
 10
134.905697428567
 20
-117.273009715962
 42
0.0
  0
VERTEX
  8
CUIVRE
 10
134.905632833027
 20
-117.266916203322
 42
0.0
  0
VERTEX
  8
CUIVRE
 10
134.898810050827
 20
-116.799630357287
 42
0.0
  0
VERTEX
  8
CUIVRE
 10
134.890595156406
 20
-116.449157929938
 42
0.0
  0
VERTEX
  8
CUIVRE
 10
134.87266725997
 20
-115.923791177408
 42
0.0
  0
VERTEX
  8
CUIVRE
 10
134.860939238291
 20
-115.661139201304
 42
0.0332980794227
  0
VERTEX
  8
CUIVRE
 10
134.859333949063
 20
-115.628267975613
 42
0.0
  0
VERTEX
  8
CUIVRE
 10
134.847238464552
 20
-115.398640921671
 42
0.0082534645726
  0
VERTEX
  8
CUIVRE
 10
134.810245200072
 20
-114.815610825539
 42
0.0173876548377
  0
VERTEX
  8
CUIVRE
 10
134.587372504575
 20
-112.783338906175
 42
0.0133745970152
  0
VERTEX
  8
CUIVRE
 10
134.238274773841
 20
-110.768884758278
 42
0.0
  0
VERTEX
  8
CUIVRE
 10
137.957492200482
 20
-110.768884758278
 42
0.0
  0
VERTEX
  8
CUIVRE
 10
138.070047974128
 20
-111.168309590384
 42
-0.0189277661774
  0
VERTEX
  8
CUIVRE
 10
138.797280932775
 20
-114.193857892297
 42
-0.011979471999
  0
VERTEX
  8
CUIVRE
 10
139.063023226905
 20
-115.727403414562
 42
0.0
  0
VERTEX
  8
CUIVRE
 10
139.09072307545
 20
-115.920048763643
 42
-0.0064827056007
  0
VERTEX
  8
CUIVRE
 10
139.177153319185
 20
-116.595501832953
 42
0.0
  0
VERTEX
  8
CUIVRE
 10
139.214016947015
 20
-116.934006705675
 42
0.0
  0
VERTEX
  8
CUIVRE
 10
139.246474676289
 20
-117.273009715962
 42
0.0
  0
SEQEND
  0
POLYLINE
  8
CUIVRE
 66
     1
 10
0.0
 20
0.0
 30
0.0
 70
     1
  0
VERTEX
  8
CUIVRE
 10
140.351898158271
 20
-117.273009715962
 42
0.0
  0
VERTEX
  8
CUIVRE
 10
140.348022425851
 20
-117.228331133887
 42
0.015514147524
  0
VERTEX
  8
CUIVRE
 10
140.155889930475
 20
-115.592405256312
 42
0.0090299783082
  0
VERTEX
  8
CUIVRE
 10
139.952422085923
 20
-114.374002087058
 42
0.0128859401024
  0
VERTEX
  8
CUIVRE
 10
139.565802873412
 20
-112.562048629006
 42
0.016143242481
  0
VERTEX
  8
CUIVRE
 10
139.538768917794
 20
-112.449393041067
 42
0.0055699934152
  0
VERTEX
  8
CUIVRE
 10
139.434738786207
 20
-112.027757185837
 42
0.0
  0
VERTEX
  8
CUIVRE
 10
139.354040960323
 20
-111.712200721961
 42
0.0122679039758
  0
VERTEX
  8
CUIVRE
 10
139.338655747052
 20
-111.653061014332
 42
0.01689354459
  0
VERTEX
  8
CUIVRE
 10
139.309614395751
 20
-111.542262772822
 42
0.0159096022145
  0
VERTEX
  8
CUIVRE
 10
139.283990089225
 20
-111.445375556018
 42
0.0
  0
VERTEX
  8
CUIVRE
 10
139.192819158575
 20
-111.106834597919
 42
0.0
  0
VERTEX
  8
CUIVRE
 10
139.099369099068
 20
-110.768884758278
 42
0.0
  0
VERTEX
  8
CUIVRE
 10
142.564015501197
 20
-110.768884758278
 42
-0.0048344522365
  0
VERTEX
  8
CUIVRE
 10
142.634264295807
 20
-110.968453723197
 42
0.0
  0
VERTEX
  8
CUIVRE
 10
142.768953536535
 20
-111.355616252679
 42
0.0
  0
VERTEX
  8
CUIVRE
 10
142.831402916006
 20
-111.537366722483
 42
0.0
  0
VERTEX
  8
CUIVRE
 10
142.950992124706
 20
-111.88987865372
 42
0.0
  0
VERTEX
  8
CUIVRE
 10
143.169866912009
 20
-112.552693326972
 42
0.0
  0
VERTEX
  8
CUIVRE
 10
143.354922157701
 20
-113.134692103373
 42
-0.0110626120357
  0
VERTEX
  8
CUIVRE
 10
143.944895795914
 20
-115.189185919651
 42
0.0
  0
VERTEX
  8
CUIVRE
 10
144.011308365783
 20
-115.448048983883
 42
-0.0083551208001
  0
VERTEX
  8
CUIVRE
 10
144.228808785799
 20
-116.357657036065
 42
0.0
  0
VERTEX
  8
CUIVRE
 10
144.279330177481
 20
-116.585961209564
 42
0.0
  0
VERTEX
  8
CUIVRE
 10
144.316156852622
 20
-116.757449155657
 42
0.0
  0
VERTEX
  8
CUIVRE
 10
144.369625331974
 20
-117.015036411937
 42
0.0
  0
VERTEX
  8
CUIVRE
 10
144.4209004359
 20
-117.273009715962
 42
0.0
  0
SEQEND
  0
POLYLINE
  8
CUIVRE
 66
     1
 10
0.0
 20
0.0
 30
0.0
 70
     1
  0
VERTEX
  8
CUIVRE
 10
145.542300548196
 20
-117.273009715962
 42
0.0
  0
VERTEX
  8
CUIVRE
 10
145.524278392438
 20
-117.178377249351
 42
0.0
  0
VERTEX
  8
CUIVRE
 10
145.443729132534
 20
-116.769872587043
 42
0.0111845044328
  0
VERTEX
  8
CUIVRE
 10
145.096659985651
 20
-115.247537828834
 42
0.0173997172377
  0
VERTEX
  8
CUIVRE
 10
145.07878021717
 20
-115.176548957618
 42
0.0
  0
VERTEX
  8
CUIVRE
 10
145.007114913822
 20
-114.897478984122
 42
0.0
  0
VERTEX
  8
CUIVRE
 10
144.867366371802
 20
-114.375550220739
 42
0.0
  0
VERTEX
  8
CUIVRE
 10
144.739679859892
 20
-113.920379691684
 42
0.0
  0
VERTEX
  8
CUIVRE
 10
144.624068975814
 20
-113.523219983038
 42
0.0054421703353
  0
VERTEX
  8
CUIVRE
 10
144.413642913365
 20
-112.830511873734
 42
0.0059373907948
  0
VERTEX
  8
CUIVRE
 10
144.080832490525
 20
-111.796826496117
 42
0.0
  0
VERTEX
  8
CUIVRE
 10
143.99477556157
 20
-111.539313965769
 42
0.0
  0
VERTEX
  8
CUIVRE
 10
143.863808531153
 20
-111.153723851657
 42
0.0248935525946
  0
VERTEX
  8
CUIVRE
 10
143.847270661764
 20
-111.105531088878
 42
0.0
  0
VERTEX
  8
CUIVRE
 10
143.730761682817
 20
-110.768884758278
 42
0.0
  0
VERTEX
  8
CUIVRE
 10
146.943959178217
 20
-110.768884758278
 42
0.0
  0
VERTEX
  8
CUIVRE
 10
147.122463935897
 20
-111.194368244301
 42
0.0
  0
VERTEX
  8
CUIVRE
 10
147.210470801289
 20
-111.407632326798
 42
0.0
  0
VERTEX
  8
CUIVRE
 10
147.296952274374
 20
-111.621438231643
 42
0.0
  0
VERTEX
  8
CUIVRE
 10
147.573501403462
 20
-112.318719748452
 42
0.0
  0
VERTEX
  8
CUIVRE
 10
147.811879217564
 20
-112.930247779392
 42
-0.0081875254744
  0
VERTEX
  8
CUIVRE
 10
148.606002135423
 20
-115.085867747451
 42
0.0
  0
VERTEX
  8
CUIVRE
 10
148.791723455507
 20
-115.62940293061
 42
-0.0069341594841
  0
VERTEX
  8
CUIVRE
 10
149.058278482613
 20
-116.448637774592
 42
0.0
  0
VERTEX
  8
CUIVRE
 10
149.122477578669
 20
-116.654267444611
 42
0.0
  0
VERTEX
  8
CUIVRE
 10
149.216781897643
 20
-116.963231470859
 42
0.0
  0
VERTEX
  8
CUIVRE
 10
149.308651187445
 20
-117.273009715962
 42
0.0
  0
SEQEND
  0
POLYLINE
  8
CUIVRE
 66
     1
 10
0.0
 20
0.0
 30
0.0
 70
     1
  0
VERTEX
  8
CUIVRE
 10
150.456363216509
 20
-117.273009715962
 42
0.0
  0
VERTEX
  8
CUIVRE
 10
150.416313981493
 20
-117.133591008043
 42
0.0
  0
VERTEX
  8
CUIVRE
 10
150.306017307578
 20
-116.756646460937
 42
0.0
  0
VERTEX
  8
CUIVRE
 10
150.199322398585
 20
-116.404305745053
 42
0.0134183405708
  0
VERTEX
  8
CUIVRE
 10
149.312385137174
 20
-113.789601951247
 42
0.0
  0
VERTEX
  8
CUIVRE
 10
149.071378859054
 20
-113.142711358238
 42
0.0
  0
VERTEX
  8
CUIVRE
 10
148.886874430353
 20
-112.659042464598
 42
0.0
  0
VERTEX
  8
CUIVRE
 10
148.605085405724
 20
-111.93535486463
 42
0.0
  0
VERTEX
  8
CUIVRE
 10
148.462387650649
 20
-111.57425134199
 42
0.0
  0
VERTEX
  8
CUIVRE
 10
148.318767595299
 20
-111.21353892619
 42
0.0
  0
VERTEX
  8
CUIVRE
 10
148.134670305306
 20
-110.768884758278
 42
0.0
  0
VERTEX
  8
CUIVRE
 10
151.017483143669
 20
-110.768884758278
 42
-0.0093049013624
  0
VERTEX
  8
CUIVRE
 10
151.844960273268
 20
-112.401706036298
 42
-0.006469861525
  0
VERTEX
  8
CUIVRE
 10
152.233759277521
 20
-113.230258123092
 42
-0.0163968880347
  0
VERTEX
  8
CUIVRE
 10
152.281177588516
 20
-113.334434413095
 42
0.0
  0
VERTEX
  8
CUIVRE
 10
152.444920835598
 20
-113.699833991229
 42
0.0
  0
VERTEX
  8
CUIVRE
 10
152.605327652821
 20
-114.066767007074
 42
0.0
  0
VERTEX
  8
CUIVRE
 10
152.945648678413
 20
-114.863164505014
 42
-0.0108277403521
  0
VERTEX
  8
CUIVRE
 10
152.977236910438
 20
-114.937994307968
 42
0.0
  0
VERTEX
  8
CUIVRE
 10
153.219717690522
 20
-115.518706697905
 42
-0.0367435372875
  0
VERTEX
  8
CUIVRE
 10
153.23100630152
 20
-115.546039373812
 42
-0.0032068188874
  0
VERTEX
  8
CUIVRE
 10
153.580099650263
 20
-116.407091637429
 42
-0.0045500745295
  0
VERTEX
  8
CUIVRE
 10
153.750120974585
 20
-116.839362836042
 42
0.0
  0
VERTEX
  8
CUIVRE
 10
153.833927654149
 20
-117.056043317306
 42
0.0
  0
VERTEX
  8
CUIVRE
 10
153.875517852798
 20
-117.16451223375
 42
-0.0096431709263
  0
VERTEX
  8
CUIVRE
 10
153.916875504055
 20
-117.273009715962
 42
0.0
  0
SEQEND
  0
POLYLINE
  8
CUIVRE
 66
     1
 10
0.0
 20
0.0
 30
0.0
 70
     1
  0
VERTEX
  8
CUIVRE
 10
155.09296650718
 20
-117.273009715962
 42
0.0
  0
VERTEX
  8
CUIVRE
 10
155.026540759854
 20
-117.096039467254
 42
0.0
  0
VERTEX
  8
CUIVRE
 10
154.943884793463
 20
-116.877236723323
 42
0.0074645534986
  0
VERTEX
  8
CUIVRE
 10
154.297629785255
 20
-115.246692648278
 42
0.0
  0
VERTEX
  8
CUIVRE
 10
154.214010637918
 20
-115.044033198682
 42
0.0
  0
VERTEX
  8
CUIVRE
 10
154.140383007786
 20
-114.866846907539
 42
0.0028630750582
  0
VERTEX
  8
CUIVRE
 10
153.615429649096
 20
-113.63096242819
 42
0.0
  0
VERTEX
  8
CUIVRE
 10
153.536467683417
 20
-113.449269751147
 42
0.0
  0
VERTEX
  8
CUIVRE
 10
153.461640604588
 20
-113.279272743942
 42
0.0142402838251
  0
VERTEX
  8
CUIVRE
 10
152.2554351426
 20
-110.768884758278
 42
0.0
  0
VERTEX
  8
CUIVRE
 10
154.696629803448
 20
-110.768884758278
 42
0.0
  0
VERTEX
  8
CUIVRE
 10
154.921514219518
 20
-111.112455927948
 42
-0.0169683704936
  0
VERTEX
  8
CUIVRE
 10
156.511483573342
 20
-113.749472943948
 42
-0.0184563297008
  0
VERTEX
  8
CUIVRE
 10
157.912841757397
 20
-116.491425209592
 42
-0.0037108555845
  0
VERTEX
  8
CUIVRE
 10
158.091950759621
 20
-116.881738253246
 42
0.0
  0
VERTEX
  8
CUIVRE
 10
158.269086162418
 20
-117.273009715962
 42
0.0
  0
SEQEND
  0
POLYLINE
  8
CUIVRE
 66
     1
 10
0.0
 20
0.0
 30
0.0
 70
     1
  0
VERTEX
  8
CUIVRE
 10
159.476699789232
 20
-117.273009715962
 42
0.0
  0
VERTEX
  8
CUIVRE
 10
159.38355302005
 20
-117.066411646081
 42
0.0
  0
VERTEX
  8
CUIVRE
 10
159.324974490532
 20
-116.936387916381
 42
0.0
  0
VERTEX
  8
CUIVRE
 10
159.119057146312
 20
-116.481776640608
 42
0.0
  0
VERTEX
  8
CUIVRE
 10
159.01519723594
 20
-116.254852607547
 42
0.0
  0
VERTEX
  8
CUIVRE
 10
158.989090752547
 20
-116.19814126487
 42
0.0
  0
VERTEX
  8
CUIVRE
 10
158.910541409925
 20
-116.028404376375
 42
0.0168644381672
  0
VERTEX
  8
CUIVRE
 10
157.548853907649
 20
-113.35012384543
 42
0.0
  0
VERTEX
  8
CUIVRE
 10
157.36583260203
 20
-113.022078670498
 42
0.0
  0
VERTEX
  8
CUIVRE
 10
157.203489049326
 20
-112.736330750489
 42
0.0120934475994
  0
VERTEX
  8
CUIVRE
 10
156.011170581386
 20
-110.768884758278
 42
0.0
  0
VERTEX
  8
CUIVRE
 10
157.889522767331
 20
-110.768884758278
 42
0.0
  0
VERTEX
  8
CUIVRE
 10
158.197938465637
 20
-111.153335567634
 42
-0.0187327682802
  0
VERTEX
  8
CUIVRE
 10
160.388898372892
 20
-114.129999671025
 42
-0.0212598251084
  0
VERTEX
  8
CUIVRE
 10
162.333674411457
 20
-117.273009715962
 42
0.0
  0
SEQEND
  0
POLYLINE
  8
CUIVRE
 66
     1
 10
0.0
 20
0.0
 30
0.0
 70
     1
  0
VERTEX
  8
CUIVRE
 10
163.593804212574
 20
-117.273009715962
 42
0.0
  0
VERTEX
  8
CUIVRE
 10
163.460823526843
 20
-117.030927162583
 42
0.0213569809153
  0
VERTEX
  8
CUIVRE
 10
161.506671114019
 20
-113.815608824897
 42
0.0097647122916
  0
VERTEX
  8
CUIVRE
 10
160.431731929106
 20
-112.271287843409
 42
0.0026216472732
  0
VERTEX
  8
CUIVRE
 10
159.872200332869
 20
-111.514876310693
 42
0.0026943560633
  0
VERTEX
  8
CUIVRE
 10
159.298803671113
 20
-110.768884758278
 42
0.0
  0
VERTEX
  8
CUIVRE
 10
160.519723979239
 20
-110.768884758278
 42
-0.0190563937734
  0
VERTEX
  8
CUIVRE
 10
163.383355901069
 20
-113.909725009407
 42
-0.0224269257145
  0
VERTEX
  8
CUIVRE
 10
165.981965934796
 20
-117.273009715962
 42
0.0
  0
SEQEND
  0
POLYLINE
  8
CUIVRE
 66
     1
 10
0.0
 20
0.0
 30
0.0
 70
     1
  0
VERTEX
  8
CUIVRE
 10
168.270241419792
 20
-114.045558137993
 42
-0.0126457105955
  0
VERTEX
  8
CUIVRE
 10
168.187658097494
 20
-113.952726087458
 42
-0.0136743047155
  0
VERTEX
  8
CUIVRE
 10
167.569497057172
 20
-113.214403441801
 42
-0.0258973645913
  0
VERTEX
  8
CUIVRE
 10
166.732393677928
 20
-112.037311705277
 42
-0.0339819082336
  0
VERTEX
  8
CUIVRE
 10
166.041286172682
 20
-110.768884758278
 42
0.0
  0
VERTEX
  8
CUIVRE
 10
167.426171494059
 20
-110.768884758278
 42
0.0454366947834
  0
VERTEX
  8
CUIVRE
 10
167.697946464152
 20
-112.417599798284
 42
0.0433498914523
  0
VERTEX
  8
CUIVRE
 10
168.287294642444
 20
-114.059015542232
 42
0.0
  0
SEQEND
  0
POLYLINE
  8
CUIVRE
 66
     1
 10
0.0
 20
0.0
 30
0.0
 70
     1
  0
VERTEX
  8
CUIVRE
 10
170.852620399995
 20
-116.058785812185
 42
-0.0155993669359
  0
VERTEX
  8
CUIVRE
 10
170.765023025152
 20
-115.949844088859
 42
-0.0188456855664
  0
VERTEX
  8
CUIVRE
 10
170.123861166563
 20
-115.077039849979
 42
-0.0382192342339
  0
VERTEX
  8
CUIVRE
 10
169.318340608841
 20
-113.666555000841
 42
-0.0113856310289
  0
VERTEX
  8
CUIVRE
 10
169.153315785225
 20
-113.29489808498
 42
-0.0352243752194
  0
VERTEX
  8
CUIVRE
 10
168.762480969094
 20
-112.140269611722
 42
-0.0433798284009
  0
VERTEX
  8
CUIVRE
 10
168.533705097027
 20
-110.768884758278
 42
0.0
  0
VERTEX
  8
CUIVRE
 10
170.977849620884
 20
-110.768884758278
 42
0.0632638968466
  0
VERTEX
  8
CUIVRE
 10
170.672974800192
 20
-113.034700725471
 42
0.0654248161807
  0
VERTEX
  8
CUIVRE
 10
170.960107379135
 20
-115.302867267181
 42
0.0297380354383
  0
VERTEX
  8
CUIVRE
 10
171.30963384796
 20
-116.37104065423
 42
0.0
  0
VERTEX
  8
CUIVRE
 10
171.081352685383
 20
-116.214551665564
 42
0.0087908861559
  0
VERTEX
  8
CUIVRE
 10
170.9671420398
 20
-116.136405316897
 42
0.0146799440005
  0
SEQEND
  0
POLYLINE
  8
CUIVRE
 66
     1
 10
0.0
 20
0.0
 30
0.0
 70
     1
  0
VERTEX
  8
CUIVRE
 10
172.966164948349
 20
-117.273009715962
 42
0.0
  0
VERTEX
  8
CUIVRE
 10
172.834239323111
 20
-117.031960691228
 42
-0.0275037574278
  0
VERTEX
  8
CUIVRE
 10
172.368015797205
 20
-116.053276147067
 42
-0.0160051929851
  0
VERTEX
  8
CUIVRE
 10
172.179308945813
 20
-115.544914676781
 42
0.0
  0
VERTEX
  8
CUIVRE
 10
172.137257481114
 20
-115.415978478901
 42
0.0
  0
VERTEX
  8
CUIVRE
 10
172.107130778137
 20
-115.318816304877
 42
0.0
  0
VERTEX
  8
CUIVRE
 10
172.0642768276
 20
-115.172394179034
 42
0.0
  0
VERTEX
  8
CUIVRE
 10
172.024297374529
 20
-115.02519257107
 42
-0.0707298559041
  0
VERTEX
  8
CUIVRE
 10
171.779580042489
 20
-112.889979868466
 42
-0.0653443336171
  0
VERTEX
  8
CUIVRE
 10
172.126465987513
 20
-110.768884758278
 42
0.0
  0
VERTEX
  8
CUIVRE
 10
174.679174082849
 20
-110.768884758278
 42
0.4141835521703
  0
VERTEX
  8
CUIVRE
 10
175.679156111137
 20
-109.768881198144
 42
0.0
  0
VERTEX
  8
CUIVRE
 10
175.679156111137
 20
-105.67843320112
 42
-0.0491433275389
  0
VERTEX
  8
CUIVRE
 10
177.422761999915
 20
-104.649770752917
 42
-0.036629232584
  0
VERTEX
  8
CUIVRE
 10
178.625230604775
 20
-104.192287342199
 42
-0.0734588267558
  0
VERTEX
  8
CUIVRE
 10
180.845124273582
 20
-103.870361053919
 42
-0.0526631431483
  0
VERTEX
  8
CUIVRE
 10
182.513697930831
 20
-104.055328831224
 42
-0.034482747694
  0
VERTEX
  8
CUIVRE
 10
183.721580828518
 20
-104.406297151954
 42
-0.0408107961802
  0
VERTEX
  8
CUIVRE
 10
185.431411214027
 20
-105.198750646023
 42
-0.0297555895959
  0
VERTEX
  8
CUIVRE
 10
187.013154216213
 20
-106.223361179499
 42
0.0392778721101
  0
VERTEX
  8
CUIVRE
 10
185.402438799902
 20
-105.885941128632
 42
0.0667645196275
  0
VERTEX
  8
CUIVRE
 10
182.93750530361
 20
-105.902483618646
 42
0.0641690199093
  0
VERTEX
  8
CUIVRE
 10
180.563311044269
 20
-106.565416097491
 42
0.0181417031757
  0
VERTEX
  8
CUIVRE
 10
179.722403429259
 20
-106.956001699559
 42
0.0363641694083
  0
VERTEX
  8
CUIVRE
 10
178.334036478841
 20
-107.795097212552
 42
0.0605267969639
  0
VERTEX
  8
CUIVRE
 10
176.535085341865
 20
-109.429077008474
 42
0.0557136025914
  0
VERTEX
  8
CUIVRE
 10
175.165190928431
 20
-111.436436604085
 42
0.0327243910465
  0
VERTEX
  8
CUIVRE
 10
174.540112641694
 20
-112.811223785008
 42
0.0605120192015
  0
VERTEX
  8
CUIVRE
 10
173.99899707201
 20
-115.009422029709
 42
0.0675387555675
  0
VERTEX
  8
CUIVRE
 10
174.032874169816
 20
-117.273009715962
 42
0.0
  0
SEQEND
  0
POLYLINE
  8
CUIVRE
 66
     1
 10
0.0
 20
0.0
 30
0.0
 70
     1
  0
VERTEX
  8
CUIVRE
 10
177.364389163287
 20
-117.273009715962
 42
0.0
  0
VERTEX
  8
CUIVRE
 10
175.143680613495
 20
-117.273009715962
 42
0.0
  0
VERTEX
  8
CUIVRE
 10
175.130739973578
 20
-117.192502140841
 42
-0.0907289212252
  0
VERTEX
  8
CUIVRE
 10
175.196127152459
 20
-114.490368572674
 42
-0.0382719717608
  0
VERTEX
  8
CUIVRE
 10
175.573434348834
 20
-113.188954161141
 42
-0.0321191716329
  0
VERTEX
  8
CUIVRE
 10
176.13464079798
 20
-111.955612493712
 42
0.0
  0
VERTEX
  8
CUIVRE
 10
176.134985307529
 20
-111.955612493712
 42
-0.0423975884751
  0
VERTEX
  8
CUIVRE
 10
177.037539411407
 20
-110.554819566654
 42
-0.0689696691068
  0
VERTEX
  8
CUIVRE
 10
178.817478302878
 20
-108.806352423446
 42
-0.0315689204558
  0
VERTEX
  8
CUIVRE
 10
179.866728560504
 20
-108.127289807021
 42
-0.02901842991
  0
VERTEX
  8
CUIVRE
 10
180.990158374891
 20
-107.579652208348
 42
-0.0721088961427
  0
VERTEX
  8
CUIVRE
 10
183.281548839727
 20
-106.975582195338
 42
-0.0534427728053
  0
VERTEX
  8
CUIVRE
 10
185.056319290333
 20
-106.971216000209
 42
-0.0369964787904
  0
VERTEX
  8
CUIVRE
 10
186.365087419195
 20
-107.207567201696
 42
-0.0454455797635
  0
VERTEX
  8
CUIVRE
 10
188.240407009283
 20
-107.879787123155
 42
-0.0345280992496
  0
VERTEX
  8
CUIVRE
 10
189.985431877959
 20
-108.840643283337
 42
0.0
  0
VERTEX
  8
CUIVRE
 10
190.086933003694
 20
-108.944254530056
 42
0.0
  0
VERTEX
  8
CUIVRE
 10
190.18339567728
 20
-109.021769178474
 42
0.0
  0
VERTEX
  8
CUIVRE
 10
190.397488031914
 20
-109.151671814425
 42
0.0
  0
VERTEX
  8
CUIVRE
 10
190.505082578378
 20
-109.215706382013
 42
-0.0132357196341
  0
VERTEX
  8
CUIVRE
 10
190.61274070213
 20
-109.279613043698
 42
0.0374782254946
  0
VERTEX
  8
CUIVRE
 10
189.008174895878
 20
-108.928200399975
 42
0.1283454958736
  0
VERTEX
  8
CUIVRE
 10
184.15757916403
 20
-109.479966878012
 42
0.0194195424755
  0
VERTEX
  8
CUIVRE
 10
183.284981833795
 20
-109.849047892104
 42
0.0194865431204
  0
VERTEX
  8
CUIVRE
 10
182.546466666787
 20
-110.226731903543
 42
0.0352036313765
  0
VERTEX
  8
CUIVRE
 10
181.329289309756
 20
-111.016770961962
 42
0.0550938572015
  0
VERTEX
  8
CUIVRE
 10
179.742868787848
 20
-112.503535679193
 42
0.0497614268859
  0
VERTEX
  8
CUIVRE
 10
178.501765905895
 20
-114.288631156324
 42
0.0346939370543
  0
VERTEX
  8
CUIVRE
 10
177.836258832781
 20
-115.685776923424
 42
0.0409756337464
  0
VERTEX
  8
CUIVRE
 10
177.387277516417
 20
-117.166663924701
 42
0.0
  0
SEQEND
  0
POLYLINE
  8
CUIVRE
 66
     1
 10
0.0
 20
0.0
 30
0.0
 70
     1
  0
VERTEX
  8
CUIVRE
 10
181.758285477021
 20
-117.273009715962
 42
0.0
  0
VERTEX
  8
CUIVRE
 10
178.494272823215
 20
-117.273009715962
 42
-0.0371211471236
  0
VERTEX
  8
CUIVRE
 10
178.890196654938
 20
-116.015656158731
 42
-0.033557716149
  0
VERTEX
  8
CUIVRE
 10
179.460880488989
 20
-114.827444090217
 42
-0.0437518579809
  0
VERTEX
  8
CUIVRE
 10
180.415519932693
 20
-113.416590850564
 42
-0.0709162764033
  0
VERTEX
  8
CUIVRE
 10
182.287076621349
 20
-111.684614709119
 42
-0.032898354118
  0
VERTEX
  8
CUIVRE
 10
183.382374685739
 20
-111.027343178901
 42
0.0
  0
VERTEX
  8
CUIVRE
 10
183.453516325079
 20
-110.990921444004
 42
-0.0269998175172
  0
VERTEX
  8
CUIVRE
 10
184.549286520703
 20
-110.507638861262
 42
-0.0726007074924
  0
VERTEX
  8
CUIVRE
 10
186.954427013671
 20
-109.966686433038
 42
-0.0124407093775
  0
VERTEX
  8
CUIVRE
 10
187.185114800968
 20
-109.952505923904
 42
-0.050514498572
  0
VERTEX
  8
CUIVRE
 10
188.970340502756
 20
-110.051063467951
 42
-0.0319974945782
  0
VERTEX
  8
CUIVRE
 10
190.277154318266
 20
-110.346755296438
 42
-0.0034611261206
  0
VERTEX
  8
CUIVRE
 10
190.517204982101
 20
-110.420768849867
 42
-0.0210440353948
  0
VERTEX
  8
CUIVRE
 10
191.401477727309
 20
-110.74471534936
 42
-0.0268506206564
  0
VERTEX
  8
CUIVRE
 10
192.677017743832
 20
-111.350681088494
 42
-0.0113984109981
  0
VERTEX
  8
CUIVRE
 10
193.291223730547
 20
-111.699363276932
 42
-0.0085479546141
  0
VERTEX
  8
CUIVRE
 10
193.592472600531
 20
-111.883639084983
 42
-0.0069080453179
  0
VERTEX
  8
CUIVRE
 10
193.74164195136
 20
-111.978088584899
 42
-0.0078866212969
  0
VERTEX
  8
CUIVRE
 10
193.88984471878
 20
-112.074016119171
 42
0.0
  0
VERTEX
  8
CUIVRE
 10
194.009685947494
 20
-112.196565476871
 42
0.0
  0
VERTEX
  8
CUIVRE
 10
194.069290650825
 20
-112.25816727836
 42
0.0221249387628
  0
VERTEX
  8
CUIVRE
 10
194.099092725919
 20
-112.288950821704
 42
0.030970536821
  0
VERTEX
  8
CUIVRE
 10
194.128891281763
 20
-112.31965142727
 42
0.0175461248468
  0
VERTEX
  8
CUIVRE
 10
193.344352819246
 20
-112.114711080316
 42
0.0162602720853
  0
VERTEX
  8
CUIVRE
 10
192.647466359944
 20
-111.980400544912
 42
0.0609552677952
  0
VERTEX
  8
CUIVRE
 10
190.17050613484
 20
-111.881303507304
 42
0.0626566640859
  0
VERTEX
  8
CUIVRE
 10
187.745301602369
 20
-112.394862168082
 42
0.0385353150861
  0
VERTEX
  8
CUIVRE
 10
186.005664813379
 20
-113.147573411739
 42
0.0673142528271
  0
VERTEX
  8
CUIVRE
 10
183.696299105521
 20
-114.799800865679
 42
0.0677221160236
  0
VERTEX
  8
CUIVRE
 10
181.916544550875
 20
-117.012323646962
 42
0.0
  0
SEQEND
  0
POLYLINE
  8
CUIVRE
 66
     1
 10
0.0
 20
0.0
 30
0.0
 70
     1
  0
VERTEX
  8
CUIVRE
 10
187.535473755471
 20
-117.273009715962
 42
0.0
  0
VERTEX
  8
CUIVRE
 10
183.065117853811
 20
-117.273009715962
 42
-0.0860967005404
  0
VERTEX
  8
CUIVRE
 10
185.259446290213
 20
-114.927373147882
 42
-0.0417216658695
  0
VERTEX
  8
CUIVRE
 10
186.622482952198
 20
-114.06851943345
 42
-0.0369155166332
  0
VERTEX
  8
CUIVRE
 10
188.103591532835
 20
-113.43459198553
 42
-0.0735664574672
  0
VERTEX
  8
CUIVRE
 10
190.619095083532
 20
-112.958001684969
 42
-0.0520407395634
  0
VERTEX
  8
CUIVRE
 10
192.531718361247
 20
-113.079982263801
 42
-0.0343951042812
  0
VERTEX
  8
CUIVRE
 10
193.928957805508
 20
-113.411813800496
 42
0.0
  0
VERTEX
  8
CUIVRE
 10
193.993322951892
 20
-113.431826415083
 42
0.0
  0
VERTEX
  8
CUIVRE
 10
194.056544374043
 20
-113.451881354447
 42
-0.039600241807
  0
VERTEX
  8
CUIVRE
 10
195.983610467251
 20
-114.248183253646
 42
0.0
  0
VERTEX
  8
CUIVRE
 10
196.041791078899
 20
-114.277677505467
 42
-0.009540928611
  0
VERTEX
  8
CUIVRE
 10
196.488223466141
 20
-114.514374772747
 42
0.0
  0
VERTEX
  8
CUIVRE
 10
196.653643364652
 20
-114.606715276503
 42
-0.0183400791829
  0
VERTEX
  8
CUIVRE
 10
197.78235044833
 20
-115.302651948713
 42
0.0
  0
VERTEX
  8
CUIVRE
 10
197.980831257114
 20
-115.505583394781
 42
0.0
  0
VERTEX
  8
CUIVRE
 10
198.07919803851
 20
-115.607968285767
 42
0.0
  0
VERTEX
  8
CUIVRE
 10
198.177782814496
 20
-115.710099085384
 42
0.0348191251907
  0
VERTEX
  8
CUIVRE
 10
196.387005113257
 20
-115.214852966273
 42
0.0315330346602
  0
VERTEX
  8
CUIVRE
 10
195.005121684874
 20
-115.022777764474
 42
0.049488717238
  0
VERTEX
  8
CUIVRE
 10
192.914419823653
 20
-115.068629734055
 42
0.0513132861214
  0
VERTEX
  8
CUIVRE
 10
190.876204379364
 20
-115.536444741081
 42
0.0642074199552
  0
VERTEX
  8
CUIVRE
 10
188.168359327958
 20
-116.854538273738
 42
0.0
  0
SEQEND
  0
POLYLINE
  8
CUIVRE
 66
     1
 10
0.0
 20
0.0
 30
0.0
 70
     1
  0
VERTEX
  8
CUIVRE
 10
189.622232686427
 20
-117.273009715962
 42
-0.041233071858
  0
VERTEX
  8
CUIVRE
 10
191.229326666602
 20
-116.578241615821
 42
-0.0550925792924
  0
VERTEX
  8
CUIVRE
 10
193.207668311929
 20
-116.143864269403
 42
-0.039174152198
  0
VERTEX
  8
CUIVRE
 10
194.725566452403
 20
-116.109106460679
 42
-0.0530262650103
  0
VERTEX
  8
CUIVRE
 10
196.967896229602
 20
-116.484546497196
 42
-0.0412067870303
  0
VERTEX
  8
CUIVRE
 10
199.100293258059
 20
-117.273009715962
 42
0.0
  0
SEQEND
  0
POLYLINE
  8
CUIVRE
 66
     1
 10
0.0
 20
0.0
 30
0.0
 70
     1
  0
VERTEX
  8
CUIVRE
 10
214.318830309376
 20
-105.917070659013
 42
-0.4124967703039
  0
VERTEX
  8
CUIVRE
 10
213.818817763386
 20
-106.417083205004
 42
0.0
  0
VERTEX
  8
CUIVRE
 10
209.067169815355
 20
-106.417083205004
 42
-0.1992528288131
  0
VERTEX
  8
CUIVRE
 10
207.73203651745
 20
-105.861763419071
 42
-0.1996774763179
  0
VERTEX
  8
CUIVRE
 10
207.176716731518
 20
-104.526630121167
 42
0.0
  0
VERTEX
  8
CUIVRE
 10
207.176716731518
 20
-99.9170708300555
 42
-0.4124822359073
  0
VERTEX
  8
CUIVRE
 10
207.676707745661
 20
-99.4170798159118
 42
0.0
  0
VERTEX
  8
CUIVRE
 10
213.818817763386
 20
-99.4170798159118
 42
-0.4125501804588
  0
VERTEX
  8
CUIVRE
 10
214.318830309376
 20
-99.9170708300555
 42
0.0
  0
SEQEND
  0
POLYLINE
  8
CUIVRE
 66
     1
 10
0.0
 20
0.0
 30
0.0
 70
     1
  0
VERTEX
  8
CUIVRE
 10
230.518379831965
 20
-117.273009715962
 42
0.0
  0
VERTEX
  8
CUIVRE
 10
226.875643525095
 20
-117.273009715962
 42
0.0
  0
VERTEX
  8
CUIVRE
 10
224.075426850991
 20
-114.468034503718
 42
0.0
  0
VERTEX
  8
CUIVRE
 10
224.423510686082
 20
-114.201125730998
 42
0.065626528818
  0
VERTEX
  8
CUIVRE
 10
228.302577001114
 20
-110.320044306323
 42
0.0298047766214
  0
VERTEX
  8
CUIVRE
 10
229.84271545034
 20
-108.043994335662
 42
0.0276779264785
  0
VERTEX
  8
CUIVRE
 10
231.109752003855
 20
-105.605267985751
 42
0.0442060284652
  0
VERTEX
  8
CUIVRE
 10
232.555027984238
 20
-101.527140930284
 42
0.0726329080571
  0
VERTEX
  8
CUIVRE
 10
233.243447948307
 20
-95.0860487684831
 42
0.0029178659716
  0
VERTEX
  8
CUIVRE
 10
233.224148181462
 20
-94.6804395610644
 42
0.0152415630962
  0
VERTEX
  8
CUIVRE
 10
233.087848237734
 20
-93.1639981401902
 42
0.0233447270443
  0
VERTEX
  8
CUIVRE
 10
232.7007958955
 20
-90.9137607204632
 42
0.0219160269474
  0
VERTEX
  8
CUIVRE
 10
232.109518713674
 20
-88.7082804140208
 42
0.0115845767907
  0
VERTEX
  8
CUIVRE
 10
231.961379607808
 20
-88.2802272999786
 42
0.0
  0
VERTEX
  8
CUIVRE
 10
231.958774254348
 20
-88.2728849402256
 42
0.0
  0
VERTEX
  8
CUIVRE
 10
235.466269031574
 20
-88.2728849402256
 42
0.0
  0
VERTEX
  8
CUIVRE
 10
235.624549637274
 20
-88.5329250538216
 42
0.0
  0
VERTEX
  8
CUIVRE
 10
235.797134848025
 20
-88.8211264856915
 42
-0.0283579706173
  0
VERTEX
  8
CUIVRE
 10
236.947432888918
 20
-91.0613608988085
 42
-0.0309380237809
  0
VERTEX
  8
CUIVRE
 10
237.821487028218
 20
-93.4230658403595
 42
-0.021400267199
  0
VERTEX
  8
CUIVRE
 10
238.332938825431
 20
-95.4548427435032
 42
-0.0408766722898
  0
VERTEX
  8
CUIVRE
 10
238.778888216594
 20
-99.0922869614134
 42
-0.064648312667
  0
VERTEX
  8
CUIVRE
 10
238.282632403815
 20
-104.557711580828
 42
-0.0306408925969
  0
VERTEX
  8
CUIVRE
 10
237.519412718198
 20
-107.198372780217
 42
0.0
  0
VERTEX
  8
CUIVRE
 10
237.461167083523
 20
-107.360098670241
 42
-0.0264270289968
  0
VERTEX
  8
CUIVRE
 10
236.450683534637
 20
-109.730769829338
 42
-0.0493347330746
  0
VERTEX
  8
CUIVRE
 10
234.084133278004
 20
-113.596922537722
 42
-0.0546804148001
  0
VERTEX
  8
CUIVRE
 10
230.969536617605
 20
-116.890367266784
 42
0.0
  0
SEQEND
  0
POLYLINE
  8
CUIVRE
 66
     1
 10
0.0
 20
0.0
 30
0.0
 70
     1
  0
VERTEX
  8
CUIVRE
 10
240.955404263763
 20
-117.273009715962
 42
0.0
  0
VERTEX
  8
CUIVRE
 10
232.19461257216
 20
-117.273009715962
 42
0.0501365227823
  0
VERTEX
  8
CUIVRE
 10
235.156616779509
 20
-113.995530811466
 42
0.0457525941332
  0
VERTEX
  8
CUIVRE
 10
237.439425938904
 20
-110.213427706822
 42
0.0441221692876
  0
VERTEX
  8
CUIVRE
 10
239.022064075796
 20
-106.117968763209
 42
0.0736015928451
  0
VERTEX
  8
CUIVRE
 10
239.894566903484
 20
-99.6023416547678
 42
0.0
  0
VERTEX
  8
CUIVRE
 10
239.890630057659
 20
-99.3962669669732
 42
0.0345638154723
  0
VERTEX
  8
CUIVRE
 10
239.592538624258
 20
-96.218302306727
 42
0.0097679063562
  0
VERTEX
  8
CUIVRE
 10
239.450750727351
 20
-95.4324372857611
 42
0.0123875789877
  0
VERTEX
  8
CUIVRE
 10
239.190434703652
 20
-94.2634895117131
 42
0.0
  0
VERTEX
  8
CUIVRE
 10
239.153976495574
 20
-94.11824180426
 42
0.0
  0
VERTEX
  8
CUIVRE
 10
239.121385920304
 20
-93.991359506317
 42
0.0
  0
VERTEX
  8
CUIVRE
 10
239.092325650009
 20
-93.8804279688318
 42
0.0
  0
VERTEX
  8
CUIVRE
 10
239.066491879381
 20
-93.7834652384881
 42
0.0046580948187
  0
VERTEX
  8
CUIVRE
 10
238.875341737156
 20
-93.1080118582334
 42
0.0305196220272
  0
VERTEX
  8
CUIVRE
 10
237.956762340681
 20
-90.6268195340286
 42
0.028826508479
  0
VERTEX
  8
CUIVRE
 10
236.748791953345
 20
-88.2728849402256
 42
0.0
  0
VERTEX
  8
CUIVRE
 10
238.892610278276
 20
-88.2728849402256
 42
0.0
  0
VERTEX
  8
CUIVRE
 10
239.213305604259
 20
-88.6149183263706
 42
-0.0261222046014
  0
VERTEX
  8
CUIVRE
 10
240.948378408325
 20
-90.6622185590634
 42
-0.0443524080262
  0
VERTEX
  8
CUIVRE
 10
243.10072863089
 20
-94.0620160489584
 42
-0.0501170191127
  0
VERTEX
  8
CUIVRE
 10
244.576630255696
 20
-97.8053995523716
 42
-0.0218340867145
  0
VERTEX
  8
CUIVRE
 10
245.060014304353
 20
-99.8772203803165
 42
-0.0418849451995
  0
VERTEX
  8
CUIVRE
 10
245.434960365074
 20
-103.5788629401
 42
-0.0659579146909
  0
VERTEX
  8
CUIVRE
 10
244.789586798789
 20
-109.112328686425
 42
-0.0311227835876
  0
VERTEX
  8
CUIVRE
 10
243.94196103253
 20
-111.770788033871
 42
0.0
  0
VERTEX
  8
CUIVRE
 10
243.813644992014
 20
-112.095245696448
 42
-0.0249323902159
  0
VERTEX
  8
CUIVRE
 10
242.788281189303
 20
-114.311368786526
 42
-0.0111005753983
  0
VERTEX
  8
CUIVRE
 10
242.742828118816
 20
-114.398129973085
 42
0.0
  0
VERTEX
  8
CUIVRE
 10
242.563224496845
 20
-114.732450889483
 42
-0.0270962845507
  0
VERTEX
  8
CUIVRE
 10
241.157717496134
 20
-116.98476288308
 42
0.0
  0
SEQEND
  0
POLYLINE
  8
CUIVRE
 66
     1
 10
0.0
 20
0.0
 30
0.0
 70
     1
  0
VERTEX
  8
CUIVRE
 10
248.922230637097
 20
-117.273009715962
 42
0.0
  0
VERTEX
  8
CUIVRE
 10
242.291347697402
 20
-117.273009715962
 42
0.0140610970615
  0
VERTEX
  8
CUIVRE
 10
243.063081256473
 20
-116.067961048149
 42
0.006372625131
  0
VERTEX
  8
CUIVRE
 10
243.422762340248
 20
-115.449339270879
 42
0.0184137724732
  0
VERTEX
  8
CUIVRE
 10
243.46640953691
 20
-115.3712171523
 42
0.0096597522875
  0
VERTEX
  8
CUIVRE
 10
243.763243211629
 20
-114.819864880149
 42
0.0
  0
VERTEX
  8
CUIVRE
 10
243.891100404565
 20
-114.572033322899
 42
0.0435728269631
  0
VERTEX
  8
CUIVRE
 10
245.543753813982
 20
-110.508267014374
 42
0.0358449118331
  0
VERTEX
  8
CUIVRE
 10
246.280748985996
 20
-107.298433376611
 42
0.0554392548671
  0
VERTEX
  8
CUIVRE
 10
246.486562383426
 20
-102.368807555919
 42
0.0271009190285
  0
VERTEX
  8
CUIVRE
 10
246.18580337837
 20
-99.917005181952
 42
0.0247654059493
  0
VERTEX
  8
CUIVRE
 10
245.635997117411
 20
-97.5087768310916
 42
0.0
  0
VERTEX
  8
CUIVRE
 10
245.635652607862
 20
-97.5080878119945
 42
0.0318711971116
  0
VERTEX
  8
CUIVRE
 10
244.74510709982
 20
-94.9820927875535
 42
0.0223732054152
  0
VERTEX
  8
CUIVRE
 10
243.874115360785
 20
-93.1719708583862
 42
0.0321805883557
  0
VERTEX
  8
CUIVRE
 10
242.278828928187
 20
-90.6176369662257
 42
0.0279937352478
  0
VERTEX
  8
CUIVRE
 10
240.388858311214
 20
-88.2728849402256
 42
0.0
  0
VERTEX
  8
CUIVRE
 10
240.906462376026
 20
-88.2728849402256
 42
0.0
  0
VERTEX
  8
CUIVRE
 10
241.467776089807
 20
-88.6781358285249
 42
-0.0355818022825
  0
VERTEX
  8
CUIVRE
 10
241.499185304229
 20
-88.7008350806719
 42
-0.0354477720898
  0
VERTEX
  8
CUIVRE
 10
241.530070039325
 20
-88.7232082899817
 42
-0.0097768450192
  0
VERTEX
  8
CUIVRE
 10
242.486789114087
 20
-89.4454910063747
 42
-0.0092598673375
  0
VERTEX
  8
CUIVRE
 10
242.721072240728
 20
-89.6324377095569
 42
0.0
  0
VERTEX
  8
CUIVRE
 10
242.895310698851
 20
-89.7745869871579
 42
-0.0209130487414
  0
VERTEX
  8
CUIVRE
 10
242.960304862632
 20
-89.8283478374434
 42
-0.0068925561913
  0
VERTEX
  8
CUIVRE
 10
243.073480827172
 20
-89.9229806573186
 42
0.0
  0
VERTEX
  8
CUIVRE
 10
243.157952388983
 20
-89.9944979855625
 42
0.0
  0
VERTEX
  8
CUIVRE
 10
243.283829927916
 20
-90.1025705330732
 42
-0.0351568126139
  0
VERTEX
  8
CUIVRE
 10
243.299527600388
 20
-90.1161797243993
 42
-0.0218364015175
  0
VERTEX
  8
CUIVRE
 10
243.354258080803
 20
-90.1638673782914
 42
-0.0240082946106
  0
VERTEX
  8
CUIVRE
 10
243.408742886196
 20
-90.2117200837839
 42
0.0
  0
VERTEX
  8
CUIVRE
 10
243.409431905294
 20
-90.2122368481067
 42
-0.0140503350989
  0
VERTEX
  8
CUIVRE
 10
244.598502189769
 20
-91.3167299692011
 42
-0.0266832908699
  0
VERTEX
  8
CUIVRE
 10
246.515818317418
 20
-93.4122251580456
 42
-0.0473946452148
  0
VERTEX
  8
CUIVRE
 10
248.897191658101
 20
-96.9429730570742
 42
-0.0535065296096
  0
VERTEX
  8
CUIVRE
 10
250.519764477301
 20
-100.880491782506
 42
0.0
  0
VERTEX
  8
CUIVRE
 10
250.591051485603
 20
-101.130495145768
 42
-0.0453820039127
  0
VERTEX
  8
CUIVRE
 10
251.338710615682
 20
-105.150227555008
 42
-0.072768821985
  0
VERTEX
  8
CUIVRE
 10
251.018743849666
 20
-111.262391770641
 42
-0.0338861825272
  0
VERTEX
  8
CUIVRE
 10
250.21379406278
 20
-114.221682247001
 42
-0.0306113699609
  0
VERTEX
  8
CUIVRE
 10
249.031138718124
 20
-117.051253225946
 42
0.0
  0
SEQEND
  0
POLYLINE
  8
CUIVRE
 66
     1
 10
0.0
 20
0.0
 30
0.0
 70
     1
  0
VERTEX
  8
CUIVRE
 10
278.999959748772
 20
-115.773015141684
 42
-0.4135852090032
  0
VERTEX
  8
CUIVRE
 10
277.499965174494
 20
-117.273009715962
 42
0.0
  0
VERTEX
  8
CUIVRE
 10
250.141945161803
 20
-117.273009715962
 42
0.0199840591444
  0
VERTEX
  8
CUIVRE
 10
250.987595594485
 20
-115.303671197663
 42
0.010022082244
  0
VERTEX
  8
CUIVRE
 10
251.305314540595
 20
-114.420945456689
 42
0.0191298389558
  0
VERTEX
  8
CUIVRE
 10
251.808437265408
 20
-112.735483134687
 42
0.0690166926285
  0
VERTEX
  8
CUIVRE
 10
252.525304926667
 20
-106.638257963562
 42
0.034255934409
  0
VERTEX
  8
CUIVRE
 10
252.250230952163
 20
-103.574396946832
 42
0.0150799646066
  0
VERTEX
  8
CUIVRE
 10
251.960733478533
 20
-102.062933950848
 42
0.0
  0
VERTEX
  8
CUIVRE
 10
251.873322270895
 20
-101.688245551817
 42
0.0
  0
VERTEX
  8
CUIVRE
 10
251.839028091983
 20
-101.548082977363
 42
0.010696349489
  0
VERTEX
  8
CUIVRE
 10
251.576375262627
 20
-100.572844755673
 42
0.0402222144189
  0
VERTEX
  8
CUIVRE
 10
250.361257445061
 20
-97.3932532623565
 42
0.0291704105821
  0
VERTEX
  8
CUIVRE
 10
249.128302740377
 20
-95.1583295945861
 42
0.0210864775974
  0
VERTEX
  8
CUIVRE
 10
248.044397288477
 20
-93.5805808345611
 42
0.0
  0
VERTEX
  8
CUIVRE
 10
247.827378472766
 20
-93.2945942292424
 42
0.0139873426983
  0
VERTEX
  8
CUIVRE
 10
246.977997053524
 20
-92.2505352713673
 42
0.018442121672
  0
VERTEX
  8
CUIVRE
 10
245.607521122171
 20
-90.7685810933753
 42
0.0165012481989
  0
VERTEX
  8
CUIVRE
 10
244.136347052681
 20
-89.3866197150665
 42
0.0102708162089
  0
VERTEX
  8
CUIVRE
 10
243.462689667842
 20
-88.8174717784333
 42
0.0066885711808
  0
VERTEX
  8
CUIVRE
 10
242.769139377513
 20
-88.2728849402256
 42
0.0
  0
VERTEX
  8
CUIVRE
 10
277.499965174494
 20
-88.2728849402256
 42
-0.4135852090033
  0
VERTEX
  8
CUIVRE
 10
278.999959748772
 20
-89.7728795145034
 42
0.0
  0
SEQEND
  0
POLYLINE
  8
ARGENT
 66
     1
 10
0.0
 20
0.0
 30
0.0
 70
     1
  0
VERTEX
  8
ARGENT
 10
175.679165532757
 20
-109.768889926171
 42
0.0
  0
VERTEX
  8
ARGENT
 10
175.679165532757
 20
-95.8105186188961
 42
0.4142135623711
  0
VERTEX
  8
ARGENT
 10
174.679165533007
 20
-94.810518619147
 42
0.0
  0
VERTEX
  8
ARGENT
 10
122.320898673266
 20
-94.810518619147
 42
0.4142135623738
  0
VERTEX
  8
ARGENT
 10
121.320898673517
 20
-95.8105186188961
 42
0.0
  0
VERTEX
  8
ARGENT
 10
121.320898673517
 20
-109.768889926171
 42
0.4142135623738
  0
VERTEX
  8
ARGENT
 10
122.320898673266
 20
-110.768889925921
 42
0.0
  0
VERTEX
  8
ARGENT
 10
174.679165533007
 20
-110.768889925921
 42
0.4142135623732
  0
SEQEND
  0
POLYLINE
  8
decoupeINt
 66
     1
 10
0.0
 20
0.0
 30
0.0
 70
     1
  0
VERTEX
  8
decoupeINt
 10
253.452918773442
 20
-91.9792263224913
 42
0.0
  0
VERTEX
  8
decoupeINt
 10
244.158395663787
 20
-91.9792263224913
 42
0.414743201269
  0
VERTEX
  8
decoupeINt
 10
243.908281731558
 20
-92.2291679999462
 42
0.0
  0
VERTEX
  8
decoupeINt
 10
243.908281731558
 20
-101.723851157295
 42
0.4140542585993
  0
VERTEX
  8
decoupeINt
 10
244.158395663787
 20
-101.97379283475
 42
0.0
  0
VERTEX
  8
decoupeINt
 10
253.452918773442
 20
-101.97379283475
 42
0.4147432012689
  0
VERTEX
  8
decoupeINt
 10
253.703032705671
 20
-101.723851157295
 42
0.0
  0
VERTEX
  8
decoupeINt
 10
253.703032705671
 20
-92.2291679999462
 42
0.4140542585984
  0
SEQEND
  0
POLYLINE
  8
decoupeINt
 66
     1
 10
0.0
 20
0.0
 30
0.0
 70
     1
  0
VERTEX
  8
decoupeINt
 10
253.202804841213
 20
-101.47390947984
 42
0.0
  0
VERTEX
  8
decoupeINt
 10
244.408509596016
 20
-101.47390947984
 42
0.0
  0
VERTEX
  8
decoupeINt
 10
244.408509596016
 20
-92.4791096774011
 42
0.0
  0
VERTEX
  8
decoupeINt
 10
253.202804841213
 20
-92.4791096774011
 42
0.0
  0
SEQEND
  0
POLYLINE
  8
decoupeINt
 66
     1
 10
0.0
 20
0.0
 30
0.0
 70
     1
  0
VERTEX
  8
decoupeINt
 10
106.037971978699
 20
-97.9745537406973
 42
0.0
  0
VERTEX
  8
decoupeINt
 10
102.944962651433
 20
-97.9745537406973
 42
-0.2000782736037
  0
VERTEX
  8
decoupeINt
 10
101.972070287007
 20
-97.5718220784716
 42
0.0
  0
VERTEX
  8
decoupeINt
 10
99.0606200924224
 20
-94.6601996291127
 42
0.4127906976743
  0
VERTEX
  8
decoupeINt
 10
98.7050862383446
 20
-94.6601996291127
 42
0.4135174418604
  0
VERTEX
  8
decoupeINt
 10
98.7050862383446
 20
-95.0157334831905
 42
0.0
  0
VERTEX
  8
decoupeINt
 10
101.616536432929
 20
-97.9273559325494
 42
0.2000726732825
  0
VERTEX
  8
decoupeINt
 10
102.944962651433
 20
-98.477020917221
 42
0.0
  0
VERTEX
  8
decoupeINt
 10
106.037971978699
 20
-98.477020917221
 42
-0.4136110957101
  0
VERTEX
  8
decoupeINt
 10
108.434552653013
 20
-100.874290610632
 42
0.0
  0
VERTEX
  8
decoupeINt
 10
108.434552653013
 20
-105.725846327735
 42
-0.4136239448877
  0
VERTEX
  8
decoupeINt
 10
107.186222303933
 20
-106.97434893159
 42
0.0
  0
VERTEX
  8
decoupeINt
 10
101.186244006821
 20
-106.97434893159
 42
-0.4135639593849
  0
VERTEX
  8
decoupeINt
 10
99.9375691481927
 20
-105.725846327735
 42
0.0
  0
VERTEX
  8
decoupeINt
 10
99.9375691481927
 20
-101.26496443866
 42
0.2002992109725
  0
VERTEX
  8
decoupeINt
 10
99.3875596539726
 20
-99.9365356195471
 42
0.0
  0
VERTEX
  8
decoupeINt
 10
94.1110514087639
 20
-94.6601996291127
 42
0.3997093023257
  0
VERTEX
  8
decoupeINt
 10
93.7555175546861
 20
-94.6601996291127
 42
0.4135174418606
  0
VERTEX
  8
decoupeINt
 10
93.7555175546861
 20
-95.0157334831905
 42
0.0
  0
VERTEX
  8
decoupeINt
 10
99.0320257998948
 20
-100.292069473625
 42
-0.2007111817569
  0
VERTEX
  8
decoupeINt
 10
99.4349297168947
 20
-101.26496443866
 42
0.0
  0
VERTEX
  8
decoupeINt
 10
99.4349297168947
 20
-105.725846327735
 42
0.4135726545551
  0
VERTEX
  8
decoupeINt
 10
101.186244006821
 20
-107.477332872436
 42
0.0
  0
VERTEX
  8
decoupeINt
 10
107.186222303933
 20
-107.477332872436
 42
0.4136112178536
  0
VERTEX
  8
decoupeINt
 10
108.937192084311
 20
-105.725846327735
 42
0.0
  0
VERTEX
  8
decoupeINt
 10
108.937192084311
 20
-100.874290610632
 42
0.1995793447529
  0
VERTEX
  8
decoupeINt
 10
108.087189363749
 20
-98.8249425166008
 42
0.1996786461131
  0
SEQEND
  0
POLYLINE
  8
decoupeINt
 66
     1
 10
0.0
 20
0.0
 30
0.0
 70
     1
  0
VERTEX
  8
decoupeINt
 10
197.9682779453
 20
-105.287285672463
 42
-0.2005726443807
  0
VERTEX
  8
decoupeINt
 10
197.565546283074
 20
-104.314390707428
 42
0.0
  0
VERTEX
  8
decoupeINt
 10
197.565546283074
 20
-99.8533365635783
 42
0.4134743019605
  0
VERTEX
  8
decoupeINt
 10
195.814059738373
 20
-98.1020222736516
 42
0.0
  0
VERTEX
  8
decoupeINt
 10
189.814081441262
 20
-98.1020222736516
 42
0.4135149722306
  0
VERTEX
  8
decoupeINt
 10
188.062939406109
 20
-99.8533365635783
 42
0.0
  0
VERTEX
  8
decoupeINt
 10
188.062939406109
 20
-104.705064535456
 42
0.199488275093
  0
VERTEX
  8
decoupeINt
 10
188.913092837771
 20
-106.754412629487
 42
0.199579287288
  0
VERTEX
  8
decoupeINt
 10
190.962331766496
 20
-107.604801405391
 42
0.0
  0
VERTEX
  8
decoupeINt
 10
194.055338493153
 20
-107.604801405391
 42
-0.2000880229785
  0
VERTEX
  8
decoupeINt
 10
195.028233458187
 20
-108.007533067616
 42
0.0
  0
VERTEX
  8
decoupeINt
 10
197.939683652772
 20
-110.918983262201
 42
0.4127906976744
  0
VERTEX
  8
decoupeINt
 10
198.29521750685
 20
-110.918983262201
 42
0.4127906976744
  0
VERTEX
  8
decoupeINt
 10
198.29521750685
 20
-110.563449408123
 42
0.0
  0
VERTEX
  8
decoupeINt
 10
195.383767312265
 20
-107.651999213538
 42
0.2004070462207
  0
VERTEX
  8
decoupeINt
 10
194.055338493153
 20
-107.102161974092
 42
0.0
  0
VERTEX
  8
decoupeINt
 10
190.962331766496
 20
-107.102161974092
 42
-0.4136407764671
  0
VERTEX
  8
decoupeINt
 10
188.565923346956
 20
-104.705064535456
 42
0.0
  0
VERTEX
  8
decoupeINt
 10
188.565923346956
 20
-99.8533365635783
 42
-0.4135850152257
  0
VERTEX
  8
decoupeINt
 10
189.814081441262
 20
-98.6046617049495
 42
0.0
  0
VERTEX
  8
decoupeINt
 10
195.814059738373
 20
-98.6046617049495
 42
-0.4136761561546
  0
VERTEX
  8
decoupeINt
 10
197.062562342227
 20
-99.8533365635783
 42
0.0
  0
VERTEX
  8
decoupeINt
 10
197.062562342227
 20
-104.314390707428
 42
0.2007096702602
  0
VERTEX
  8
decoupeINt
 10
197.612744091222
 20
-105.642819526541
 42
0.0
  0
VERTEX
  8
decoupeINt
 10
202.889252336431
 20
-110.918983262201
 42
0.2018956071031
  0
VERTEX
  8
decoupeINt
 10
203.067019263469
 20
-110.992708305585
 42
0.1990180451337
  0
VERTEX
  8
decoupeINt
 10
203.244786190508
 20
-110.918983262201
 42
0.4127906976739
  0
VERTEX
  8
decoupeINt
 10
203.244786190508
 20
-110.563449408123
 42
0.0
  0
SEQEND
  0
POLYLINE
  8
decoupeINt
 66
     1
 10
0.0
 20
0.0
 30
0.0
 70
     1
  0
VERTEX
  8
decoupeINt
 10
221.244721081842
 20
-110.563449408123
 42
0.0
  0
VERTEX
  8
decoupeINt
 10
215.968212836633
 20
-105.287285672463
 42
-0.2005726443808
  0
VERTEX
  8
decoupeINt
 10
215.565481174407
 20
-104.314390707428
 42
0.0
  0
VERTEX
  8
decoupeINt
 10
215.565481174407
 20
-99.8533365635783
 42
0.4134743019605
  0
VERTEX
  8
decoupeINt
 10
213.813994629706
 20
-98.1020222736516
 42
0.0
  0
VERTEX
  8
decoupeINt
 10
207.814016332595
 20
-98.1020222736516
 42
0.4135149722305
  0
VERTEX
  8
decoupeINt
 10
206.062874297443
 20
-99.8533365635783
 42
0.0
  0
VERTEX
  8
decoupeINt
 10
206.062874297443
 20
-104.705064535456
 42
0.1994882750929
  0
VERTEX
  8
decoupeINt
 10
206.913027729104
 20
-106.754412629487
 42
0.1995792872879
  0
VERTEX
  8
decoupeINt
 10
208.962266657829
 20
-107.604801405391
 42
0.0
  0
VERTEX
  8
decoupeINt
 10
212.055273384486
 20
-107.604801405391
 42
-0.2000880229782
  0
VERTEX
  8
decoupeINt
 10
213.028168349521
 20
-108.007533067616
 42
0.0
  0
VERTEX
  8
decoupeINt
 10
215.939618544105
 20
-110.918983262201
 42
0.4127906976744
  0
VERTEX
  8
decoupeINt
 10
216.295152398183
 20
-110.918983262201
 42
0.4127906976744
  0
VERTEX
  8
decoupeINt
 10
216.295152398183
 20
-110.563449408123
 42
0.0
  0
VERTEX
  8
decoupeINt
 10
213.383702203598
 20
-107.651999213538
 42
0.2004070462208
  0
VERTEX
  8
decoupeINt
 10
212.055273384486
 20
-107.102161974092
 42
0.0
  0
VERTEX
  8
decoupeINt
 10
208.962266657829
 20
-107.102161974092
 42
-0.4136407764671
  0
VERTEX
  8
decoupeINt
 10
206.565858238289
 20
-104.705064535456
 42
0.0
  0
VERTEX
  8
decoupeINt
 10
206.565858238289
 20
-99.8533365635783
 42
-0.4135850152258
  0
VERTEX
  8
decoupeINt
 10
207.814016332595
 20
-98.6046617049495
 42
0.0
  0
VERTEX
  8
decoupeINt
 10
213.813994629706
 20
-98.6046617049495
 42
-0.4136761561547
  0
VERTEX
  8
decoupeINt
 10
215.062497233561
 20
-99.8533365635783
 42
0.0
  0
VERTEX
  8
decoupeINt
 10
215.062497233561
 20
-104.314390707428
 42
0.2007096702601
  0
VERTEX
  8
decoupeINt
 10
215.612678982555
 20
-105.642819526541
 42
0.0
  0
VERTEX
  8
decoupeINt
 10
220.889187227764
 20
-110.918983262201
 42
0.2018956071076
  0
VERTEX
  8
decoupeINt
 10
221.066954154803
 20
-110.992708305585
 42
0.1990180451366
  0
VERTEX
  8
decoupeINt
 10
221.244721081842
 20
-110.918983262201
 42
0.4127906976744
  0
SEQEND
  0
POLYLINE
  8
decoupeINt
 66
     1
 10
0.0
 20
0.0
 30
0.0
 70
     1
  0
VERTEX
  8
decoupeINt
 10
174.590041623019
 20
-110.162947373347
 42
0.0
  0
VERTEX
  8
decoupeINt
 10
122.410041636064
 20
-110.162947373347
 42
-0.4124999999982
  0
VERTEX
  8
decoupeINt
 10
121.910041636189
 20
-109.662947373472
 42
0.0
  0
VERTEX
  8
decoupeINt
 10
121.910041636189
 20
-95.8829473769174
 42
-0.4125000000018
  0
VERTEX
  8
decoupeINt
 10
122.410041636064
 20
-95.3829473770422
 42
0.0
  0
VERTEX
  8
decoupeINt
 10
174.590041623019
 20
-95.3829473770422
 42
-0.4125000000003
  0
VERTEX
  8
decoupeINt
 10
175.090041622894
 20
-95.8829473769174
 42
0.0
  0
VERTEX
  8
decoupeINt
 10
175.090041622894
 20
-109.662947373472
 42
-0.4125000000005
  0
SEQEND
  0
POLYLINE
  8
decoupeEXt
 66
     1
 10
0.0
 20
0.0
 30
0.0
 70
     1
  0
VERTEX
  8
decoupeEXt
 10
19.5000479755394
 20
-86.7897061965526
 42
0.0
  0
VERTEX
  8
decoupeEXt
 10
277.500016230734
 20
-86.7897061965526
 42
-0.1992485393023
  0
VERTEX
  8
decoupeEXt
 10
279.618766230205
 20
-87.670956196332
 42
-0.1996816252862
  0
VERTEX
  8
decoupeEXt
 10
280.500016229984
 20
-89.7897061958026
 42
0.0
  0
VERTEX
  8
decoupeEXt
 10
280.500016229984
 20
-115.789702349266
 42
-0.1992485393017
  0
VERTEX
  8
decoupeEXt
 10
279.618766230205
 20
-117.908452348736
 42
-0.199681625287
  0
VERTEX
  8
decoupeEXt
 10
277.500016230734
 20
-118.789702348516
 42
0.0
  0
VERTEX
  8
decoupeEXt
 10
19.5000479755394
 20
-118.789702348516
 42
-0.1992485393021
  0
VERTEX
  8
decoupeEXt
 10
17.3812979760691
 20
-117.908452348736
 42
-0.1996816252875
  0
VERTEX
  8
decoupeEXt
 10
16.5000479762895
 20
-115.789702349266
 42
0.0
  0
VERTEX
  8
decoupeEXt
 10
16.5000479762895
 20
-89.7897061958026
 42
-0.1992485393029
  0
VERTEX
  8
decoupeEXt
 10
17.3812979760691
 20
-87.670956196332
 42
-0.1996816252867
  0
SEQEND
  0
POLYLINE
  8
BLANC
 66
     1
 10
0.0
 20
0.0
 30
0.0
 70
     1
  0
VERTEX
  8
BLANC
 10
105.706891734099
 20
-102.725913672241
 42
0.4142135623504
  0
VERTEX
  8
BLANC
 10
104.209327399783
 20
-101.228349337926
 42
0.4142135623502
  0
VERTEX
  8
BLANC
 10
102.711763065467
 20
-102.725913672241
 42
0.4142135623497
  0
VERTEX
  8
BLANC
 10
104.209327399783
 20
-104.223478006557
 42
0.4142135623499
  0
SEQEND
  0
POLYLINE
  8
BLANC
 66
     1
 10
0.0
 20
0.0
 30
0.0
 70
     1
  0
VERTEX
  8
BLANC
 10
192.756107020438
 20
-101.077970911881
 42
0.0
  0
VERTEX
  8
BLANC
 10
190.980709972076
 20
-102.853367960163
 42
0.0
  0
VERTEX
  8
BLANC
 10
192.756107020358
 20
-104.628765008524
 42
0.0
  0
VERTEX
  8
BLANC
 10
194.53150406872
 20
-102.853367960242
 42
0.0
  0
SEQEND
  0
POLYLINE
  8
BLANC
 66
     1
 10
0.0
 20
0.0
 30
0.0
 70
     1
  0
VERTEX
  8
BLANC
 10
210.747773581404
 20
-100.730860837593
 42
0.0
  0
VERTEX
  8
BLANC
 10
211.244909560825
 20
-102.076479607198
 42
0.0
  0
VERTEX
  8
BLANC
 10
212.678292526263
 20
-102.133464952153
 42
0.0
  0
VERTEX
  8
BLANC
 10
211.552156493138
 20
-103.022088432622
 42
0.0
  0
VERTEX
  8
BLANC
 10
211.940899905252
 20
-104.40292608227
 42
0.0
  0
VERTEX
  8
BLANC
 10
210.747773581404
 20
-103.606506826797
 42
0.0
  0
VERTEX
  8
BLANC
 10
209.554647257556
 20
-104.40292608227
 42
0.0
  0
VERTEX
  8
BLANC
 10
209.943390669672
 20
-103.022088432622
 42
0.0
  0
VERTEX
  8
BLANC
 10
208.817254636547
 20
-102.133464952153
 42
0.0
  0
VERTEX
  8
BLANC
 10
210.250637601985
 20
-102.076479607198
 42
0.0
  0
SEQEND
  0
ENDSEC
  0
EOF
