  0
SECTION
  2
HEADER
  9
$ACADVER
  1
AC1009
  9
$EXTMAX
 10
280.500030517578
 20
-86.7895812988281
 30
0.0
  9
$EXTMIN
 10
16.5000476837158
 20
-118.789710998535
 30
0.0
  9
$INSUNITS
 70
     4
  9
$LUNITS
 70
     2
  9
$LUPREC
 70
     4
  9
$MEASUREMENT
 70
     1
  0
ENDSEC
  0
SECTION
  2
TABLES
  0
TABLE
  2
LAYER
 70
     1
  0
LAYER
  2
0
 70
     0
 62
     7
  6
Continuous
  0
LAYER
  2
CUIVRE
 70
     0
 62
     7
  6
Continuous
  0
ENDTAB
  0
TABLE
  2
APPID
 70
     1
  0
APPID
  2
ACAD
 70
     0
  0
ENDTAB
  0
ENDSEC
  0
SECTION
  2
ENTITIES
  0
LINE
  8
CUIVRE
 10
38.0181047208083
 20
-105.256132479473
 30
0.0
 11
38.0181047208738
 21
-104.532587883246
 31
0.0
  0
LINE
  8
CUIVRE
 10
38.0181047208738
 20
-104.532587883246
 30
0.0
 11
39.5802563172753
 21
-104.532587883386
 31
0.0
  0
LINE
  8
CUIVRE
 10
39.5802563172753
 20
-104.532587883386
 30
0.0
 11
39.5802563172102
 21
-105.256132479613
 31
0.0
  0
LINE
  8
CUIVRE
 10
39.5802563172102
 20
-105.256132479613
 30
0.0
 11
38.0181047208083
 21
-105.256132479473
 31
0.0
  0
LINE
  8
CUIVRE
 10
38.0285358855392
 20
-100.358508311376
 30
0.0
 11
38.8572993718324
 21
-100.358508311451
 31
0.0
  0
LINE
  8
CUIVRE
 10
38.8572993718324
 20
-100.358508311451
 30
0.0
 11
38.857299371791
 21
-100.815615878223
 31
0.0
  0
LINE
  8
CUIVRE
 10
38.857299371791
 20
-100.815615878223
 30
0.0
 11
38.8675243552231
 21
-100.815615878224
 31
0.0
  0
ARC
  8
CUIVRE
 10
39.5750137194319
 20
-101.070526171869
 30
0.0
 40
0.7520109429224
 50
122.050080584343
 51
160.185773994592
  0
ARC
  8
CUIVRE
 10
39.6325514858382
 20
-101.20372475249
 30
0.0
 40
0.8957091512327
 50
88.8092937245676
 51
120.648100121865
  0
ARC
  8
CUIVRE
 10
39.6517260225936
 20
-101.310050093473
 30
0.0
 40
1.0018412366687
 50
78.4668909345777
 51
90.0321111673762
  0
LINE
  8
CUIVRE
 10
39.8520283112532
 20
-100.328436698776
 30
0.0
 11
39.8520283111832
 21
-101.107107292636
 31
0.0
  0
ARC
  8
CUIVRE
 10
39.5074646841574
 20
-102.258471531116
 30
0.0
 40
1.2018168340972
 50
73.3393710267087
 51
89.1335389801258
  0
ARC
  8
CUIVRE
 10
39.5142833224857
 20
-101.789719851153
 30
0.0
 40
0.7330156915762
 50
89.1123865651149
 51
108.640407990074
  0
ARC
  8
CUIVRE
 10
39.460347104465
 20
-101.638205091215
 30
0.0
 40
0.5722156699337
 50
108.372200409334
 51
146.106669634578
  0
ARC
  8
CUIVRE
 10
39.51685947087
 20
-101.665424252164
 30
0.0
 40
0.6343667377546
 50
146.912350189278
 51
180.835396674911
  0
LINE
  8
CUIVRE
 10
38.8825601615277
 20
-101.674673259531
 30
0.0
 11
38.8825601614116
 21
-102.96578382274
 31
0.0
  0
LINE
  8
CUIVRE
 10
38.8825601614116
 20
-102.96578382274
 30
0.0
 11
38.0285358853047
 21
-102.965783822663
 31
0.0
  0
LINE
  8
CUIVRE
 10
38.0285358853047
 20
-102.965783822663
 30
0.0
 11
38.0285358855392
 21
-100.358508311376
 31
0.0
  0
ARC
  8
CUIVRE
 10
41.5367749153999
 20
-101.851150514107
 30
0.0
 40
0.7602670665358
 50
181.458682556987
 51
198.963122449548
  0
ARC
  8
CUIVRE
 10
41.3167083433839
 20
-101.937761355049
 30
0.0
 40
0.5241020942926
 50
197.826367585177
 51
236.299858283971
  0
ARC
  8
CUIVRE
 10
41.3436175333188
 20
-101.857494739585
 30
0.0
 40
0.6062153348401
 50
238.393663169071
 51
271.489171578333
  0
ARC
  8
CUIVRE
 10
41.3661618770107
 20
-101.864447834533
 30
0.0
 40
0.5990959726691
 50
269.350609781804
 51
297.887516432249
  0
ARC
  8
CUIVRE
 10
41.442226373496
 20
-102.004151276772
 30
0.0
 40
0.4400424770853
 50
297.641891904117
 51
336.855508400327
  0
LINE
  8
CUIVRE
 10
41.8468527184943
 20
-102.177110527963
 30
0.0
 11
42.6453699416861
 21
-102.177110528035
 31
0.0
  0
ARC
  8
CUIVRE
 10
41.6179634068112
 20
-101.925358903562
 30
0.0
 40
1.0578010532837
 50
300.247532720684
 51
346.231751546582
  0
ARC
  8
CUIVRE
 10
41.4592819475222
 20
-101.669879581819
 30
0.0
 40
1.3584582620643
 50
282.945880042081
 51
300.601138621079
  0
ARC
  8
CUIVRE
 10
41.3565931769286
 20
-101.265433874325
 30
0.0
 40
1.7756544954741
 50
269.76946091563
 51
283.251467706281
  0
ARC
  8
CUIVRE
 10
41.32922374979
 20
-101.312630654575
 30
0.0
 40
1.7285616642922
 50
252.114228285045
 51
270.670396938055
  0
ARC
  8
CUIVRE
 10
41.1888669139556
 20
-101.738481046605
 30
0.0
 40
1.2801889219888
 50
233.297241947044
 51
252.238926273676
  0
ARC
  8
CUIVRE
 10
41.1314087021544
 20
-101.81666149557
 30
0.0
 40
1.1831674848192
 50
202.554347712582
 51
233.265344972276
  0
ARC
  8
CUIVRE
 10
41.4989947162824
 20
-101.676563049829
 30
0.0
 40
1.5764179382857
 50
179.201295934257
 51
202.132445754683
  0
ARC
  8
CUIVRE
 10
41.2652619619599
 20
-101.640218777223
 30
0.0
 40
1.3426089187748
 50
133.806623312069
 51
180.613237778601
  0
ARC
  8
CUIVRE
 10
41.316971914063
 20
-101.717305190976
 30
0.0
 40
1.4341254013758
 50
89.5017462344512
 51
133.165655788819
  0
ARC
  8
CUIVRE
 10
41.3497777628928
 20
-101.766747422735
 30
0.0
 40
1.4836527641195
 50
67.6883283775435
 51
90.7853075961106
  0
ARC
  8
CUIVRE
 10
41.4367289782718
 20
-101.503443561447
 30
0.0
 40
1.2072091023908
 50
24.2213244086422
 51
66.7618182002515
  0
ARC
  8
CUIVRE
 10
41.1097923291407
 20
-101.673419671468
 30
0.0
 40
1.5752379446292
 50
8.8866736387863
 51
24.980913762722
  0
ARC
  8
CUIVRE
 10
40.5059586705225
 20
-101.771603845304
 30
0.0
 40
2.1869937988269
 50
-2.591909531657
 51
8.9842620517814
  0
LINE
  8
CUIVRE
 10
42.6907150988621
 20
-101.870503920816
 30
0.0
 11
40.7767542195538
 21
-101.870503920644
 31
0.0
  0
ARC
  8
CUIVRE
 10
41.2394724768094
 20
-101.41624170898
 30
0.0
 40
0.5975758295928
 50
2.1899494672245
 51
40.9604548397231
  0
ARC
  8
CUIVRE
 10
41.3306435370237
 20
-101.338926183839
 30
0.0
 40
0.4780456203114
 50
41.1258933968516
 51
90.1438711950237
  0
ARC
  8
CUIVRE
 10
41.3191355181584
 20
-101.373828012268
 30
0.0
 40
0.5130494970165
 50
88.848797765446
 51
136.213711167154
  0
ARC
  8
CUIVRE
 10
41.4175081443331
 20
-101.450920087999
 30
0.0
 40
0.6375335911529
 50
137.329636838071
 51
156.14964526648
  0
ARC
  8
CUIVRE
 10
41.52995054823
 20
-101.501830002171
 30
0.0
 40
0.7609601132707
 50
156.067089666506
 51
171.808501403896
  0
LINE
  8
CUIVRE
 10
40.7767542195964
 20
-101.393406828809
 30
0.0
 11
41.8366118578299
 21
-101.393406828904
 31
0.0
  0
ARC
  8
CUIVRE
 10
44.13325116351
 20
-102.116362708388
 30
0.0
 40
0.3520221140617
 50
178.444313146453
 51
233.151452125383
  0
ARC
  8
CUIVRE
 10
44.1786567021841
 20
-102.042399406099
 30
0.0
 40
0.4385124441831
 50
234.199575478905
 51
256.102865820747
  0
ARC
  8
CUIVRE
 10
44.230922551605
 20
-101.873154334326
 30
0.0
 40
0.6154393072577
 50
255.163773475129
 51
270.728934440292
  0
ARC
  8
CUIVRE
 10
44.2456342283978
 20
-101.917631608201
 30
0.0
 40
0.5709537060846
 50
269.309359534014
 51
295.915641823665
  0
ARC
  8
CUIVRE
 10
44.3592321555504
 20
-102.161484948114
 30
0.0
 40
0.3020070210683
 50
296.750635059188
 51
322.970067658693
  0
ARC
  8
CUIVRE
 10
44.4212680928573
 20
-102.216803252512
 30
0.0
 40
0.2192734854188
 50
324.747632345268
 51
361.174027941771
  0
ARC
  8
CUIVRE
 10
44.4572442116788
 20
-102.208256157382
 30
0.0
 40
0.1832961802411
 50
358.732563659907
 51
402.941995748724
  0
ARC
  8
CUIVRE
 10
44.3759422827326
 20
-102.286958522896
 30
0.0
 40
0.2964376935207
 50
43.3722466885931
 51
62.949784268428
  0
ARC
  8
CUIVRE
 10
44.1379679367721
 20
-102.806407765103
 30
0.0
 40
0.8676274202759
 50
64.553950593723
 51
74.4932952655818
  0
ARC
  8
CUIVRE
 10
43.8671031388717
 20
-103.779753314441
 30
0.0
 40
1.8779585620483
 50
74.4694960811414
 51
79.0583312716654
  0
LINE
  8
CUIVRE
 10
44.2235575686052
 20
-101.935934288535
 30
0.0
 11
44.0301957003455
 21
-101.891902586167
 31
0.0
  0
LINE
  8
CUIVRE
 10
44.0301957003455
 20
-101.891902586167
 30
0.0
 11
43.8583047559278
 21
-101.85545067328
 31
0.0
  0
ARC
  8
CUIVRE
 10
44.4763200325486
 20
-98.878868993347
 30
0.0
 40
3.040062726236
 50
252.405951569797
 51
258.270566635162
  0
ARC
  8
CUIVRE
 10
44.2035059121438
 20
-99.8891679373866
 30
0.0
 40
1.9950747820092
 50
247.68498094619
 51
251.103981545431
  0
ARC
  8
CUIVRE
 10
43.7528608931561
 20
-100.974091626869
 30
0.0
 40
0.8203064226215
 50
233.391284059358
 51
248.03088022392
  0
ARC
  8
CUIVRE
 10
43.6039015532978
 20
-101.161127979042
 30
0.0
 40
0.5813914085691
 50
203.054666003794
 51
234.183161936977
  0
ARC
  8
CUIVRE
 10
43.8096420820078
 20
-101.09500997548
 30
0.0
 40
0.7968365607168
 50
179.058017099408
 51
201.635665693552
  0
ARC
  8
CUIVRE
 10
43.6871975365657
 20
-101.06759606065
 30
0.0
 40
0.6744362403064
 50
146.138479057248
 51
181.216112883948
  0
ARC
  8
CUIVRE
 10
43.7394688762211
 20
-101.127052244933
 30
0.0
 40
0.7512427931337
 50
121.61167162612
 51
144.594118208637
  0
ARC
  8
CUIVRE
 10
43.9358172458752
 20
-101.444791651611
 30
0.0
 40
1.1247541245002
 50
110.255723771153
 51
121.645706991174
  0
ARC
  8
CUIVRE
 10
44.1083723591826
 20
-101.934652475919
 30
0.0
 40
1.6440788905949
 50
98.3231380840601
 51
109.986983879189
  0
ARC
  8
CUIVRE
 10
44.1798882269709
 20
-102.226815373804
 30
0.0
 40
1.9437254115938
 50
89.3024336812288
 51
99.1623971216904
  0
ARC
  8
CUIVRE
 10
44.2163639296272
 20
-102.643107210622
 30
0.0
 40
2.3599079717258
 50
80.4984441999438
 51
90.3110560019744
  0
ARC
  8
CUIVRE
 10
44.3876108070733
 20
-101.646253663003
 30
0.0
 40
1.3484686578175
 50
67.5301967719668
 51
80.682958359932
  0
ARC
  8
CUIVRE
 10
44.5871209443154
 20
-101.193270483574
 30
0.0
 40
0.8536973295783
 50
52.5363350725389
 51
68.2842524034088
  0
ARC
  8
CUIVRE
 10
44.6743059442098
 20
-101.090865101491
 30
0.0
 40
0.7194163868813
 50
25.0061146793229
 51
53.086928242253
  0
ARC
  8
CUIVRE
 10
44.5283400657519
 20
-101.148135418034
 30
0.0
 40
0.8759636573051
 50
1.3752042379021
 51
24.3650936738653
  0
LINE
  8
CUIVRE
 10
45.4040514189137
 20
-101.127112695501
 30
0.0
 11
44.6153776537021
 21
-101.127112695431
 31
0.0
  0
ARC
  8
CUIVRE
 10
44.2949692210327
 20
-101.121627310139
 30
0.0
 40
0.3204553840669
 50
359.019193335277
 51
382.492988334615
  0
ARC
  8
CUIVRE
 10
44.39186826207
 20
-101.087319068563
 30
0.0
 40
0.2178687385528
 50
23.9059850101386
 51
58.7223020169659
  0
ARC
  8
CUIVRE
 10
44.3016729938278
 20
-101.22614405425
 30
0.0
 40
0.3833779424155
 50
57.973488909661
 51
79.1657441492092
  0
ARC
  8
CUIVRE
 10
44.2306645985616
 20
-101.586454321924
 30
0.0
 40
0.7506157482639
 50
79.0118845471937
 51
89.7910874443966
  0
ARC
  8
CUIVRE
 10
44.206889822884
 20
-101.585008332616
 30
0.0
 40
0.7496337241597
 50
87.9732450727804
 51
105.118408022441
  0
ARC
  8
CUIVRE
 10
44.0743263208083
 20
-101.090454653094
 30
0.0
 40
0.2376247436349
 50
105.362307472858
 51
134.300508329991
  0
ARC
  8
CUIVRE
 10
44.0259705568731
 20
-101.02763625764
 30
0.0
 40
0.1591637084716
 50
137.63802834731
 51
181.453743891803
  0
ARC
  8
CUIVRE
 10
44.0304615953898
 20
-101.028536848565
 30
0.0
 40
0.163633596841
 50
181.098609351929
 51
232.551699306473
  0
ARC
  8
CUIVRE
 10
44.1874129953455
 20
-100.855976580308
 30
0.0
 40
0.3965517775779
 50
229.707121690698
 51
246.883538553338
  0
ARC
  8
CUIVRE
 10
44.6113335620472
 20
-99.8350177722104
 30
0.0
 40
1.5020081988064
 50
247.301104068884
 51
255.160417281349
  0
LINE
  8
CUIVRE
 10
44.2266487964642
 20
-101.286929016195
 30
0.0
 11
44.3016452309164
 21
-101.305168171173
 31
0.0
  0
ARC
  8
CUIVRE
 10
45.3503259611424
 20
-96.7012621376319
 30
0.0
 40
4.7218303696366
 50
257.168064255568
 51
260.443358475605
  0
ARC
  8
CUIVRE
 10
44.6178399454289
 20
-101.169211283587
 30
0.0
 40
0.1952505747699
 50
254.723445563887
 51
264.645739072842
  0
ARC
  8
CUIVRE
 10
43.4252379741116
 20
-108.04595177258
 30
0.0
 40
6.7847525056877
 50
78.038255075505
 51
80.0323903106
  0
ARC
  8
CUIVRE
 10
44.6292862724194
 20
-102.446370159859
 30
0.0
 40
1.0573520071161
 50
64.8446741224363
 51
78.9780592235957
  0
ARC
  8
CUIVRE
 10
44.7687540723114
 20
-102.15790288359
 30
0.0
 40
0.7369681304866
 50
34.484808447241
 51
65.1261644459468
  0
ARC
  8
CUIVRE
 10
44.8220952284491
 20
-102.121549750965
 30
0.0
 40
0.6724176223106
 50
0.8410043918884
 51
34.5049244817108
  0
ARC
  8
CUIVRE
 10
44.649582332364
 20
-102.129784845174
 30
0.0
 40
0.8450520454536
 50
-29.087370869614
 51
1.2276183304419
  0
ARC
  8
CUIVRE
 10
44.6971621440527
 20
-102.140914335806
 30
0.0
 40
0.7981750760142
 50
306.273639575667
 51
329.95034444974
  0
ARC
  8
CUIVRE
 10
44.5187984939654
 20
-101.901267988189
 30
0.0
 40
1.0969074278995
 50
293.59676710578
 51
306.378731840122
  0
ARC
  8
CUIVRE
 10
44.3593819539136
 20
-101.526493987647
 30
0.0
 40
1.5041639788679
 50
279.498235668114
 51
293.446913142625
  0
LINE
  8
CUIVRE
 10
44.6075949342341
 20
-103.010036906381
 30
0.0
 11
44.5172665307121
 21
-103.023854760337
 31
0.0
  0
ARC
  8
CUIVRE
 10
44.2460351054423
 20
-100.896459007345
 30
0.0
 40
2.1446163237047
 50
269.936075082125
 51
277.265702798253
  0
ARC
  8
CUIVRE
 10
44.2107992386265
 20
-101.210087750322
 30
0.0
 40
1.8312807821878
 50
264.199897480004
 51
271.027626660311
  0
ARC
  8
CUIVRE
 10
44.1580184396767
 20
-101.263352500901
 30
0.0
 40
1.7735810450043
 50
253.264982355694
 51
265.722545332316
  0
ARC
  8
CUIVRE
 10
44.0219633723324
 20
-101.739608398365
 30
0.0
 40
1.2783379849349
 50
239.809558094982
 51
252.958263731277
  0
ARC
  8
CUIVRE
 10
43.793585395574
 20
-102.136655793326
 30
0.0
 40
0.8203039914684
 50
208.732296926965
 51
239.651353096021
  0
ARC
  8
CUIVRE
 10
43.9147090830642
 20
-102.094542350614
 30
0.0
 40
0.9469985767964
 50
180.741991774958
 51
207.443601190859
  0
LINE
  8
CUIVRE
 10
42.967789914619
 20
-102.106805828319
 30
0.0
 11
43.7813588009426
 21
-102.106805828392
 31
0.0
  0
ARC
  8
CUIVRE
 10
47.169836785796
 20
-101.738936966082
 30
0.0
 40
1.4557517149218
 50
69.0114549584807
 51
90.4689760489529
  0
ARC
  8
CUIVRE
 10
47.2306649887085
 20
-101.582181531886
 30
0.0
 40
1.2876093189578
 50
32.5708489088143
 51
69.0401788353015
  0
ARC
  8
CUIVRE
 10
47.1012786406284
 20
-101.649805328352
 30
0.0
 40
1.4331073177682
 50
-0.5943241327624
 51
32.0644639880555
  0
ARC
  8
CUIVRE
 10
47.0258679613084
 20
-101.667152473532
 30
0.0
 40
1.5084429403324
 50
-20.5632994154433
 51
0.0942715670093
  0
ARC
  8
CUIVRE
 10
47.2308783337432
 20
-101.738783427364
 30
0.0
 40
1.291344517614
 50
302.907854565367
 51
339.217459806809
  0
ARC
  8
CUIVRE
 10
47.1783661141402
 20
-101.629610194608
 30
0.0
 40
1.4116118634798
 50
269.170139765725
 51
302.289824387528
  0
ARC
  8
CUIVRE
 10
47.1512707574185
 20
-101.549298219552
 30
0.0
 40
1.4917906015625
 50
249.384970017522
 51
270.255432130849
  0
ARC
  8
CUIVRE
 10
47.0815195762857
 20
-101.749997589619
 30
0.0
 40
1.2793953825338
 50
212.547315636892
 51
249.144085310765
  0
ARC
  8
CUIVRE
 10
47.2208874844608
 20
-101.679966505472
 30
0.0
 40
1.4346402738119
 50
179.389108336551
 51
211.910427418701
  0
ARC
  8
CUIVRE
 10
47.3011342945241
 20
-101.66070378465
 30
0.0
 40
1.5148107336952
 50
159.585571985352
 51
180.150038339039
  0
ARC
  8
CUIVRE
 10
47.094031707564
 20
-101.586111333177
 30
0.0
 40
1.2946990447328
 50
123.267932334822
 51
159.482396092324
  0
ARC
  8
CUIVRE
 10
47.1375773898695
 20
-101.681618700128
 30
0.0
 40
1.3985326594642
 50
89.1665097868744
 51
122.613165265232
  0
LINE
  8
CUIVRE
 10
40.1082877853684
 20
-103.653525099762
 30
0.0
 11
40.9370353734216
 21
-103.653525099837
 31
0.0
  0
LINE
  8
CUIVRE
 10
40.9370353734216
 20
-103.653525099837
 30
0.0
 11
40.9370353733895
 21
-104.010224599493
 31
0.0
  0
LINE
  8
CUIVRE
 10
40.9370353733895
 20
-104.010224599493
 30
0.0
 11
40.9471174608352
 21
-104.010224599494
 31
0.0
  0
ARC
  8
CUIVRE
 10
41.563401453852
 20
-104.371079088216
 30
0.0
 40
0.7141581912152
 50
130.220816520141
 51
149.649627669773
  0
ARC
  8
CUIVRE
 10
41.7794456331057
 20
-104.627688053865
 30
0.0
 40
1.0496024900824
 50
90.732838254269
 51
130.180507808817
  0
ARC
  8
CUIVRE
 10
41.7814650944962
 20
-104.891994305218
 30
0.0
 40
1.3139136562869
 50
73.3704573032492
 51
90.6734802332442
  0
ARC
  8
CUIVRE
 10
41.9366550652461
 20
-104.351969799469
 30
0.0
 40
0.7520856759128
 50
50.020999167412
 51
72.9250618030735
  0
ARC
  8
CUIVRE
 10
41.9196166290949
 20
-104.345949474009
 30
0.0
 40
0.7586085437622
 50
14.9579066522967
 51
48.7426427010968
  0
ARC
  8
CUIVRE
 10
41.156246929235
 20
-104.552679738725
 30
0.0
 40
1.5494733562774
 50
-1.298524592098
 51
15.0574690894373
  0
LINE
  8
CUIVRE
 10
42.7053223702283
 20
-104.587793267816
 30
0.0
 11
42.7053223700781
 21
-106.260800611282
 31
0.0
  0
LINE
  8
CUIVRE
 10
42.7053223700781
 20
-106.260800611282
 30
0.0
 11
41.8515362750917
 21
-106.260800611205
 31
0.0
  0
LINE
  8
CUIVRE
 10
41.8515362750917
 20
-106.260800611205
 30
0.0
 11
41.851536275205
 21
-104.999983943008
 31
0.0
  0
ARC
  8
CUIVRE
 10
15.0621867735437
 20
-104.892131172153
 30
0.0
 40
26.7895666060939
 50
359.769330898004
 51
360.272179749728
  0
ARC
  8
CUIVRE
 10
40.853513059192
 20
-104.769778567174
 30
0.0
 40
0.997950119868
 50
0.2818411068858
 51
10.8403914607238
  0
ARC
  8
CUIVRE
 10
41.3909806776596
 20
-104.66236537741
 30
0.0
 40
0.4498937012909
 50
10.2783889709806
 51
28.2469700243826
  0
ARC
  8
CUIVRE
 10
41.5276305685202
 20
-104.592346436736
 30
0.0
 40
0.2963936792064
 50
28.8253482633761
 51
69.8619456586786
  0
ARC
  8
CUIVRE
 10
41.4340571920095
 20
-104.882105106349
 30
0.0
 40
0.6007719295541
 50
70.997521303178
 51
90.9099643199472
  0
ARC
  8
CUIVRE
 10
41.4184449221772
 20
-104.740383268021
 30
0.0
 40
0.4590144788634
 50
89.2421387755595
 51
114.972680620982
  0
ARC
  8
CUIVRE
 10
41.4187150883764
 20
-104.709487998929
 30
0.0
 40
0.4313264402268
 50
116.738149017214
 51
157.480485212998
  0
ARC
  8
CUIVRE
 10
41.6869742723392
 20
-104.828668336016
 30
0.0
 40
0.7248137378057
 50
156.899466828474
 51
180.808261892055
  0
LINE
  8
CUIVRE
 10
40.9622326532784
 20
-104.838892821967
 30
0.0
 11
40.9622326531507
 21
-106.260800611125
 31
0.0
  0
LINE
  8
CUIVRE
 10
40.9622326531507
 20
-106.260800611125
 30
0.0
 11
40.1082877851339
 21
-106.260800611048
 31
0.0
  0
LINE
  8
CUIVRE
 10
40.1082877851339
 20
-106.260800611048
 30
0.0
 11
40.1082877853684
 21
-103.653525099762
 31
0.0
  0
ARC
  8
CUIVRE
 10
44.1150308893207
 20
-104.477521605707
 30
0.0
 40
0.8767974628825
 50
151.064344779257
 51
178.679356743096
  0
ARC
  8
CUIVRE
 10
44.0410745710962
 20
-104.45735320862
 30
0.0
 40
0.8025204161628
 50
119.533934439797
 51
149.769745409258
  0
ARC
  8
CUIVRE
 10
44.3038284223385
 20
-104.983635734243
 30
0.0
 40
1.3902829379588
 50
100.579520321265
 51
118.263997331265
  0
ARC
  8
CUIVRE
 10
44.4661132842233
 20
-105.84253062781
 30
0.0
 40
2.2643737521732
 50
89.7946569956841
 51
100.62590313439
  0
ARC
  8
CUIVRE
 10
44.4829196182311
 20
-106.639161246909
 30
0.0
 40
3.0610021671609
 50
82.3449583851285
 51
90.1626788665321
  0
ARC
  8
CUIVRE
 10
44.8844868804476
 20
-103.710325839084
 30
0.0
 40
0.1050693640487
 50
75.6112126393482
 51
86.6256157075833
  0
ARC
  8
CUIVRE
 10
44.7208370331222
 20
-104.913652621806
 30
0.0
 40
1.3188235420367
 50
67.9555035717178
 51
81.7272521910309
  0
ARC
  8
CUIVRE
 10
44.888109527036
 20
-104.4941299487
 30
0.0
 40
0.8671926134952
 50
51.9149445155778
 51
67.7959863949972
  0
ARC
  8
CUIVRE
 10
45.0040245415528
 20
-104.334268463681
 30
0.0
 40
0.6699069157562
 50
20.4165746134337
 51
51.2844864486471
  0
ARC
  8
CUIVRE
 10
44.6952760438752
 20
-104.435830985896
 30
0.0
 40
0.9947683891232
 50
-0.9557181139437
 51
19.6953057656646
  0
LINE
  8
CUIVRE
 10
45.6899060456842
 20
-104.452423378738
 30
0.0
 11
45.6899060455822
 21
-105.592445522169
 31
0.0
  0
ARC
  8
CUIVRE
 10
48.6280300060747
 20
-105.653912725826
 30
0.0
 40
2.9387668543704
 50
178.801514934938
 51
185.434984427175
  0
ARC
  8
CUIVRE
 10
46.6800939968597
 20
-105.846507412494
 30
0.0
 40
0.9813729314593
 50
185.012998714588
 51
204.970826669002
  0
LINE
  8
CUIVRE
 10
45.7904570058293
 20
-106.260800611559
 30
0.0
 11
44.9314790327406
 21
-106.260800611482
 31
0.0
  0
ARC
  8
CUIVRE
 10
45.5432805530383
 20
-106.030788126531
 30
0.0
 40
0.6536106206845
 50
189.550776009234
 51
200.604218611873
  0
ARC
  8
CUIVRE
 10
45.2616222958573
 20
-106.050495430392
 30
0.0
 40
0.3735853244541
 50
184.063878634839
 51
193.741292733421
  0
LINE
  8
CUIVRE
 10
44.8889762921789
 20
-106.076970901871
 30
0.0
 11
44.8811638593519
 21
-106.014496002817
 31
0.0
  0
ARC
  8
CUIVRE
 10
44.1720361672048
 20
-105.320910484444
 30
0.0
 40
0.9919289062556
 50
288.345136448655
 51
315.634815809853
  0
ARC
  8
CUIVRE
 10
44.0269711578784
 20
-104.879866678424
 30
0.0
 40
1.4562161434288
 50
269.811095302661
 51
288.300999743403
  0
ARC
  8
CUIVRE
 10
44.0167429349065
 20
-105.067343243005
 30
0.0
 40
1.2687432713858
 50
255.214429636502
 51
270.245084558886
  0
ARC
  8
CUIVRE
 10
43.9205847860658
 20
-105.451790777545
 30
0.0
 40
0.872501032637
 50
238.26501984396
 51
254.877039711209
  0
ARC
  8
CUIVRE
 10
43.8105688451796
 20
-105.626199162349
 30
0.0
 40
0.6663035410373
 50
205.674878047087
 51
238.422402804493
  0
ARC
  8
CUIVRE
 10
43.9762561159025
 20
-105.562139058457
 30
0.0
 40
0.8435039964325
 50
178.993501320264
 51
204.720402830527
  0
ARC
  8
CUIVRE
 10
44.0458423256683
 20
-105.538491105663
 30
0.0
 40
0.9130027722925
 50
164.399971279999
 51
180.554208377181
  0
ARC
  8
CUIVRE
 10
43.7735178432113
 20
-105.467104921206
 30
0.0
 40
0.6315287369958
 50
123.75882150501
 51
163.993781385063
  0
ARC
  8
CUIVRE
 10
44.0156503022284
 20
-105.843727090115
 30
0.0
 40
1.0792285155009
 50
106.344546345164
 51
123.33499245966
  0
ARC
  8
CUIVRE
 10
44.4499926008338
 20
-107.332681612941
 30
0.0
 40
2.6302400492759
 50
101.101421099434
 51
106.296147591728
  0
ARC
  8
CUIVRE
 10
44.8313068855386
 20
-109.389091598022
 30
0.0
 40
4.7216411291973
 50
96.4997768315691
 51
100.837186023065
  0
ARC
  8
CUIVRE
 10
43.8041708615882
 20
-100.327703657831
 30
0.0
 40
4.3977771060442
 50
276.431908618298
 51
281.088514416188
  0
ARC
  8
CUIVRE
 10
44.4209574926402
 20
-103.647657117131
 30
0.0
 40
1.0217202373319
 50
282.952806110661
 51
288.06870658698
  0
ARC
  8
CUIVRE
 10
44.6755231864844
 20
-104.425552010953
 30
0.0
 40
0.2032329805556
 50
287.859484999306
 51
327.200237964249
  0
ARC
  8
CUIVRE
 10
44.6136743007188
 20
-104.413547909207
 30
0.0
 40
0.2627690959499
 50
332.312253155214
 51
362.495171849782
  0
ARC
  8
CUIVRE
 10
44.664182923681
 20
-104.400470658945
 30
0.0
 40
0.2120176639429
 50
359.5574644557
 51
397.585090037598
  0
ARC
  8
CUIVRE
 10
44.6094311434293
 20
-104.44831482493
 30
0.0
 40
0.2846235186665
 50
38.4947772240553
 51
59.0720846442809
  0
ARC
  8
CUIVRE
 10
44.5173383396029
 20
-104.600377927466
 30
0.0
 40
0.4623981874869
 50
58.9674657278253
 51
77.8258366928654
  0
ARC
  8
CUIVRE
 10
44.4510580258062
 20
-104.899632402801
 30
0.0
 40
0.7689020539192
 50
77.7005184227166
 51
89.0128149694638
  0
ARC
  8
CUIVRE
 10
44.4540352568378
 20
-104.709415728358
 30
0.0
 40
0.5786623965803
 50
88.9830699745659
 51
103.577412294089
  0
ARC
  8
CUIVRE
 10
44.3953671341856
 20
-104.500772630626
 30
0.0
 40
0.362166677725
 50
102.304133624269
 51
137.660639795596
  0
ARC
  8
CUIVRE
 10
44.4424249936612
 20
-104.519328034217
 30
0.0
 40
0.4098423488847
 50
140.174883258712
 51
171.296979634549
  0
LINE
  8
CUIVRE
 10
44.037301605782
 20
-104.457313588057
 30
0.0
 11
43.2384663298404
 21
-104.457313587985
 31
0.0
  0
ARC
  8
CUIVRE
 10
44.3647477651416
 20
-105.176891394624
 30
0.0
 40
0.6318847456402
 50
268.088387709607
 51
293.177395152508
  0
ARC
  8
CUIVRE
 10
44.4546738159739
 20
-105.422428413437
 30
0.0
 40
0.3710349146319
 50
295.335188691341
 51
327.134356966352
  0
ARC
  8
CUIVRE
 10
44.3557570450107
 20
-105.35831719484
 30
0.0
 40
0.488910925005
 50
327.114355636544
 51
344.805672125672
  0
ARC
  8
CUIVRE
 10
43.8416022592874
 20
-105.210615045033
 30
0.0
 40
1.0238334878937
 50
344.370163578736
 51
356.968544607598
  0
LINE
  8
CUIVRE
 10
44.8640030476464
 20
-105.264759655988
 30
0.0
 11
44.8668362042542
 21
-105.208640481112
 31
0.0
  0
ARC
  8
CUIVRE
 10
39.866975400358
 20
-105.098750389583
 30
0.0
 40
5.0010682749342
 50
358.740919962593
 51
359.705926387303
  0
LINE
  8
CUIVRE
 10
44.8679778036208
 20
-105.124418523787
 30
0.0
 11
44.8661280534371
 21
-105.040153521047
 31
0.0
  0
ARC
  8
CUIVRE
 10
44.6180130898935
 20
-104.620447277727
 30
0.0
 40
0.4875596023211
 50
284.428774160016
 51
300.590024860998
  0
ARC
  8
CUIVRE
 10
44.48384440065
 20
-104.26355863487
 30
0.0
 40
0.8675926906173
 50
280.356441729933
 51
287.137987923829
  0
LINE
  8
CUIVRE
 10
44.6398127077007
 20
-105.117016872869
 30
0.0
 11
44.5643984241368
 21
-105.132191708801
 31
0.0
  0
ARC
  8
CUIVRE
 10
45.1527430850218
 20
-108.412100558447
 30
0.0
 40
3.3322592189051
 50
100.169470262746
 51
104.138288206841
  0
ARC
  8
CUIVRE
 10
44.4803942717893
 20
-105.87721347496
 30
0.0
 40
0.7106838681476
 50
101.492719839814
 51
111.986920187752
  0
ARC
  8
CUIVRE
 10
44.3481921969626
 20
-105.601001252978
 30
0.0
 40
0.4055185311785
 50
109.276744429379
 51
137.329934850661
  0
ARC
  8
CUIVRE
 10
44.2622739840392
 20
-105.50177835558
 30
0.0
 40
0.2754883520694
 50
140.393308568792
 51
182.184861979857
  0
ARC
  8
CUIVRE
 10
44.294656234408
 20
-105.517618125594
 30
0.0
 40
0.3077166165045
 50
179.006198804755
 51
203.702068006944
  0
ARC
  8
CUIVRE
 10
44.2498369161321
 20
-105.529786995692
 30
0.0
 40
0.2618764772465
 50
205.206221391891
 51
248.478476707993
  0
ARC
  8
CUIVRE
 10
44.3325524782939
 20
-105.336297997649
 30
0.0
 40
0.4722573503443
 50
247.754516784379
 51
271.348879672391
  0
LINE
  8
CUIVRE
 10
46.2528993351179
 20
-103.653525100314
 30
0.0
 11
47.0817421869898
 21
-103.653525100388
 31
0.0
  0
LINE
  8
CUIVRE
 10
47.0817421869898
 20
-103.653525100388
 30
0.0
 11
47.0817421869578
 21
-104.010224600045
 31
0.0
  0
LINE
  8
CUIVRE
 10
47.0817421869578
 20
-104.010224600045
 30
0.0
 11
47.0919671701312
 21
-104.010224600046
 31
0.0
  0
ARC
  8
CUIVRE
 10
47.7090387352764
 20
-104.371532432199
 30
0.0
 40
0.7150668962311
 50
130.250651014425
 51
149.650167409299
  0
ARC
  8
CUIVRE
 10
47.9223238792146
 20
-104.622626870707
 30
0.0
 40
1.0445191186875
 50
90.6326100592924
 51
130.280506038503
  0
ARC
  8
CUIVRE
 10
47.9260582400863
 20
-104.892397728305
 30
0.0
 40
1.3143149809683
 50
73.3664132748133
 51
90.6655502507283
  0
ARC
  8
CUIVRE
 10
48.0790080805526
 20
-104.356085569916
 30
0.0
 40
0.7566950314065
 50
50.0826332699357
 51
72.8386666269228
  0
ARC
  8
CUIVRE
 10
48.0632587463084
 20
-104.346627142165
 30
0.0
 40
0.7597635508089
 50
14.9841987137202
 51
48.7138705067095
  0
ARC
  8
CUIVRE
 10
47.5841621354177
 20
-104.497769457696
 30
0.0
 40
1.2618418609371
 50
5.945899900119
 51
15.9891566949073
  0
ARC
  8
CUIVRE
 10
47.1394140154279
 20
-104.560966231562
 30
0.0
 40
1.7108261637655
 50
-0.8984775988511
 51
6.5080610586284
  0
LINE
  8
CUIVRE
 10
48.8500298322379
 20
-104.587793268368
 30
0.0
 11
48.8500298320878
 21
-106.260800611834
 31
0.0
  0
LINE
  8
CUIVRE
 10
48.8500298320878
 20
-106.260800611834
 30
0.0
 11
47.9962272113573
 21
-106.260800611757
 31
0.0
  0
LINE
  8
CUIVRE
 10
47.9962272113573
 20
-106.260800611757
 30
0.0
 11
47.9962272114706
 21
-104.99998394356
 31
0.0
  0
ARC
  8
CUIVRE
 10
22.1895708713612
 20
-104.890449080431
 30
0.0
 40
25.8068887962643
 50
359.75681283165
 51
360.278809343303
  0
ARC
  8
CUIVRE
 10
46.9922991237987
 20
-104.770225348477
 30
0.0
 40
1.0038692862904
 50
0.3056795774185
 51
10.7965111723069
  0
ARC
  8
CUIVRE
 10
47.5372784846517
 20
-104.661750259795
 30
0.0
 40
0.4482393491855
 50
10.2253093441511
 51
28.2638038291142
  0
ARC
  8
CUIVRE
 10
47.6725583449986
 20
-104.592118773631
 30
0.0
 40
0.2961278544006
 50
28.7919310700176
 51
69.8682766771164
  0
ARC
  8
CUIVRE
 10
47.578417378737
 20
-104.884710929343
 30
0.0
 40
0.6033708387502
 50
71.0377777764165
 51
90.8655856463694
  0
ARC
  8
CUIVRE
 10
47.5628892697177
 20
-104.738949490393
 30
0.0
 40
0.4575854899519
 50
89.1969634578086
 51
115.013692241159
  0
ARC
  8
CUIVRE
 10
47.5631525515704
 20
-104.70918950697
 30
0.0
 40
0.4309189223408
 50
116.718800168179
 51
157.500982356049
  0
ARC
  8
CUIVRE
 10
47.8324276530727
 20
-104.828767958899
 30
0.0
 40
0.725495330711
 50
156.913873010399
 51
180.799634072818
  0
LINE
  8
CUIVRE
 10
47.1070029760592
 20
-104.838892822519
 30
0.0
 11
47.1070029759315
 21
-106.260800611677
 31
0.0
  0
LINE
  8
CUIVRE
 10
47.1070029759315
 20
-106.260800611677
 30
0.0
 11
46.2528993348837
 21
-106.2608006116
 31
0.0
  0
LINE
  8
CUIVRE
 10
46.2528993348837
 20
-106.2608006116
 30
0.0
 11
46.2528993351179
 21
-103.653525100314
 31
0.0
  0
ARC
  8
CUIVRE
 10
50.7498410201699
 20
-104.616117958979
 30
0.0
 40
0.3665844853611
 50
1.2408129797543
 51
50.1529476335097
  0
ARC
  8
CUIVRE
 10
50.7009337751135
 20
-104.671658408346
 30
0.0
 40
0.4405673038364
 50
49.8978018975625
 51
90.1992640115022
  0
ARC
  8
CUIVRE
 10
50.6843358709959
 20
-104.807084229604
 30
0.0
 40
0.5761874573933
 50
88.5017042614086
 51
115.956554863003
  0
ARC
  8
CUIVRE
 10
50.6243096470124
 20
-104.662506144471
 30
0.0
 40
0.4200238409418
 50
117.226528616157
 51
145.153897800306
  0
ARC
  8
CUIVRE
 10
50.85774470349
 20
-104.809241468615
 30
0.0
 40
0.6955630060171
 50
146.221069766319
 51
171.088208299228
  0
ARC
  8
CUIVRE
 10
51.6549795287554
 20
-104.969572424916
 30
0.0
 40
1.5084147062007
 50
169.762716921141
 51
181.155232534156
  0
ARC
  8
CUIVRE
 10
51.1399568433829
 20
-105.012260804901
 30
0.0
 40
0.9931613050999
 50
179.29172608607
 51
192.786744441783
  0
ARC
  8
CUIVRE
 10
51.04791026373
 20
-105.031268548748
 30
0.0
 40
0.8991924517874
 50
192.903710704732
 51
204.269889355499
  0
ARC
  8
CUIVRE
 10
50.6926152635686
 20
-105.194009085592
 30
0.0
 40
0.5084118085219
 50
204.00858852764
 51
234.508911472642
  0
ARC
  8
CUIVRE
 10
50.6450902729736
 20
-105.238282890736
 30
0.0
 40
0.4449616097311
 50
236.181918411573
 51
271.164779012356
  0
ARC
  8
CUIVRE
 10
50.6538289872972
 20
-105.039589871463
 30
0.0
 40
0.6435627587829
 50
270.027277522383
 51
286.401908480163
  0
ARC
  8
CUIVRE
 10
50.7166438171605
 20
-105.275932764035
 30
0.0
 40
0.3991532809931
 50
287.331879567284
 51
327.139619074799
  0
ARC
  8
CUIVRE
 10
50.5137675468617
 20
-105.161049093902
 30
0.0
 40
0.6320494003809
 50
328.370538984383
 51
353.205554375409
  0
LINE
  8
CUIVRE
 10
51.1413780527844
 20
-105.235825409519
 30
0.0
 11
51.9703638003844
 21
-105.235825409594
 31
0.0
  0
ARC
  8
CUIVRE
 10
50.7010155226719
 20
-105.111594662581
 30
0.0
 40
1.2754130031621
 50
333.097321877281
 51
354.410280359005
  0
ARC
  8
CUIVRE
 10
50.8308282131048
 20
-105.16911174032
 30
0.0
 40
1.1336484377427
 50
296.775202499161
 51
332.721050851783
  0
ARC
  8
CUIVRE
 10
50.6814426867982
 20
-104.853463953856
 30
0.0
 40
1.4827758876126
 50
269.14540832757
 51
296.434078479647
  0
ARC
  8
CUIVRE
 10
50.6560992047091
 20
-104.767455698318
 30
0.0
 40
1.5686225308931
 50
250.605178856366
 51
270.11790838596
  0
ARC
  8
CUIVRE
 10
50.5569838775769
 20
-105.059489309298
 30
0.0
 40
1.260252059269
 50
213.836708457536
 51
250.446668438632
  0
ARC
  8
CUIVRE
 10
50.6212153754852
 20
-105.038388730967
 30
0.0
 40
1.3254794187657
 50
195.682688521683
 51
213.048269251233
  0
ARC
  8
CUIVRE
 10
50.8308416792838
 20
-104.998958073126
 30
0.0
 40
1.5380742416922
 50
180.038215357635
 51
194.986020947992
  0
ARC
  8
CUIVRE
 10
50.9556909623845
 20
-104.983273013637
 30
0.0
 40
1.6630071457019
 50
161.538812975244
 51
180.575753315032
  0
ARC
  8
CUIVRE
 10
50.5812961288707
 20
-104.84750127288
 30
0.0
 40
1.2649268522853
 50
124.188012986112
 51
162.002103838924
  0
ARC
  8
CUIVRE
 10
50.5685198577709
 20
-104.845100613991
 30
0.0
 40
1.2557957565849
 50
104.773318054489
 51
123.767366390204
  0
ARC
  8
CUIVRE
 10
50.6549045393417
 20
-105.174469728474
 30
0.0
 40
1.5963044368021
 50
89.841256319104
 51
104.756856129265
  0
ARC
  8
CUIVRE
 10
50.6763483533243
 20
-105.178393869316
 30
0.0
 40
1.6003129725201
 50
74.4190296097532
 51
90.6094154863394
  0
ARC
  8
CUIVRE
 10
50.7686740139887
 20
-104.888608789636
 30
0.0
 40
1.296425791001
 50
59.7707214082116
 51
74.9094525621755
  0
ARC
  8
CUIVRE
 10
50.9051108698574
 20
-104.674022674769
 30
0.0
 40
1.042375414777
 50
3.6215707241155
 51
60.3120398357089
  0
LINE
  8
CUIVRE
 10
51.9454046800225
 20
-104.608179726296
 30
0.0
 11
51.1163395459079
 21
-104.608179726221
 31
0.0
  0
ARC
  8
CUIVRE
 10
53.8968082730985
 20
-105.144107860813
 30
0.0
 40
0.7706652969019
 50
181.585076538366
 51
198.850790738593
  0
ARC
  8
CUIVRE
 10
53.6678417596233
 20
-105.23153209021
 30
0.0
 40
0.5258055208203
 50
197.896745053662
 51
236.242160095127
  0
ARC
  8
CUIVRE
 10
53.6929844197461
 20
-105.153990985755
 30
0.0
 40
0.6046511953171
 50
238.344838106207
 51
271.529142883239
  0
ARC
  8
CUIVRE
 10
53.7158878488501
 20
-105.159503795286
 30
0.0
 40
0.598961297693
 50
269.352562904749
 51
297.896274330312
  0
ARC
  8
CUIVRE
 10
53.7937422090638
 20
-105.30079066981
 30
0.0
 40
0.437674960776
 50
297.542403603544
 51
336.965290909098
  0
LINE
  8
CUIVRE
 10
54.1965204630254
 20
-105.472047930754
 30
0.0
 11
54.9951170525595
 21
-105.472047930825
 31
0.0
  0
ARC
  8
CUIVRE
 10
53.9653167763255
 20
-105.218649826119
 30
0.0
 40
1.0605183677809
 50
300.315162413576
 51
346.176133090466
  0
ARC
  8
CUIVRE
 10
53.8091806203199
 20
-104.965130190449
 30
0.0
 40
1.3582000395281
 50
282.943503773113
 51
300.602900938744
  0
ARC
  8
CUIVRE
 10
53.7053262237108
 20
-104.550821957594
 30
0.0
 40
1.785263476426
 50
269.80324815715
 51
283.213561698496
  0
ARC
  8
CUIVRE
 10
53.6785163937336
 20
-104.610083485871
 30
0.0
 40
1.7261152982716
 50
252.101755760316
 51
270.686434599211
  0
ARC
  8
CUIVRE
 10
53.5382491883933
 20
-105.034024732178
 30
0.0
 40
1.2795872008213
 50
233.293405864812
 51
252.244594850228
  0
ARC
  8
CUIVRE
 10
53.484128977022
 20
-105.109425997907
 30
0.0
 40
1.1867900851272
 50
202.591534453649
 51
233.212293817067
  0
ARC
  8
CUIVRE
 10
53.859451126163
 20
-104.969594276794
 30
0.0
 40
1.5871018933166
 50
179.272627464022
 51
202.047076686122
  0
ARC
  8
CUIVRE
 10
53.6655390583138
 20
-104.944674291063
 30
0.0
 40
1.3930701091983
 50
157.650935036359
 51
180.19627671286
  0
ARC
  8
CUIVRE
 10
53.6121774878633
 20
-104.933764821343
 30
0.0
 40
1.3396073535818
 50
122.071756086675
 51
157.214643186963
  0
ARC
  8
CUIVRE
 10
53.6737489632225
 20
-105.04325214298
 30
0.0
 40
1.4650905389442
 50
89.7902779423661
 51
121.838636235711
  0
ARC
  8
CUIVRE
 10
53.6993453482032
 20
-105.062233705108
 30
0.0
 40
1.4842002126105
 50
67.6939811503034
 51
90.781120779109
  0
ARC
  8
CUIVRE
 10
53.7865571530305
 20
-104.798231739867
 30
0.0
 40
1.207009824906
 50
24.2187490104746
 51
66.7674799439763
  0
ARC
  8
CUIVRE
 10
53.4600251118828
 20
-104.96818060621
 30
0.0
 40
1.5746597052755
 50
8.8840825000108
 51
24.9843548017192
  0
ARC
  8
CUIVRE
 10
52.8560841003033
 20
-105.06647785438
 30
0.0
 40
2.1865391314725
 50
-2.5936952494289
 51
8.9849091616647
  0
LINE
  8
CUIVRE
 10
55.0403832436244
 20
-105.165425446303
 30
0.0
 11
53.1264378684197
 21
-105.165425446131
 31
0.0
  0
ARC
  8
CUIVRE
 10
53.585967798398
 20
-104.712454322231
 30
0.0
 40
0.6007957712506
 50
2.2999121242894
 51
40.8481105604388
  0
ARC
  8
CUIVRE
 10
53.68049154429
 20
-104.633427609082
 30
0.0
 40
0.4776101289517
 50
41.0933615397122
 51
90.1655334132116
  0
ARC
  8
CUIVRE
 10
53.6687600099323
 20
-104.668669516379
 30
0.0
 40
0.5129545044815
 50
88.8436648072922
 51
136.217425028716
  0
ARC
  8
CUIVRE
 10
53.7675165451791
 20
-104.74605700621
 30
0.0
 40
0.6379217684919
 50
137.336650676959
 51
156.144829287618
  0
ARC
  8
CUIVRE
 10
53.8812580528101
 20
-104.797195023747
 30
0.0
 40
0.7626283535575
 50
156.087032818195
 51
171.794085159484
  0
LINE
  8
CUIVRE
 10
53.1264378684623
 20
-104.6883442316
 30
0.0
 11
54.1862796026189
 21
-104.688344231695
 31
0.0
  0
ARC
  8
CUIVRE
 10
32.2776181593414
 20
-105.114816236661
 30
0.0
 40
1.0393463237255
 50
207.07964194914
 51
225.603753939729
  0
ARC
  8
CUIVRE
 10
31.9083764350832
 20
-105.488576775447
 30
0.0
 40
0.5139652154376
 50
225.864724641277
 51
244.957742422494
  0
ARC
  8
CUIVRE
 10
31.8547051903819
 20
-105.607857380396
 30
0.0
 40
0.3831836988735
 50
244.679032366798
 51
270.382248488261
  0
ARC
  8
CUIVRE
 10
31.8680399657149
 20
-105.616490979257
 30
0.0
 40
0.3746966281568
 50
268.351623161495
 51
309.835360829499
  0
ARC
  8
CUIVRE
 10
31.912643621769
 20
-105.667619961937
 30
0.0
 40
0.306866560215
 50
309.555621262138
 51
331.197955811404
  0
ARC
  8
CUIVRE
 10
31.9754781135673
 20
-105.704861115014
 30
0.0
 40
0.2338750495326
 50
331.776452451364
 51
360.2816174391
  0
ARC
  8
CUIVRE
 10
31.8553877419733
 20
-105.717175877131
 30
0.0
 40
0.3542185857501
 50
2.1784086032891
 51
38.4305388062895
  0
ARC
  8
CUIVRE
 10
31.822695235655
 20
-105.717348403472
 30
0.0
 40
0.3804717286689
 50
35.3893658536639
 51
44.1200098492994
  0
ARC
  8
CUIVRE
 10
30.8095236048671
 20
-106.63868322571
 30
0.0
 40
1.7497617120699
 50
42.6816254306097
 51
49.3239487897328
  0
ARC
  8
CUIVRE
 10
31.0132492447029
 20
-106.31935977067
 30
0.0
 40
1.3758453584008
 50
47.0903377090162
 51
51.3101527159021
  0
LINE
  8
CUIVRE
 10
31.8732961708202
 20
-105.245455801449
 30
0.0
 11
31.795249860765
 21
-105.180746093634
 31
0.0
  0
ARC
  8
CUIVRE
 10
37.463268941661
 20
-98.2207038839933
 30
0.0
 40
8.9760028888909
 50
229.408836787659
 51
230.841813115198
  0
ARC
  8
CUIVRE
 10
36.5999311981356
 20
-99.3268469071477
 30
0.0
 40
7.574563824209
 50
226.37598151726
 51
228.9237699236
  0
LINE
  8
CUIVRE
 10
31.3740649680347
 20
-104.809942681626
 30
0.0
 11
31.3147304296225
 21
-104.749944847181
 31
0.0
  0
ARC
  8
CUIVRE
 10
33.884224573998
 20
-102.337933283256
 30
0.0
 40
3.5242162167616
 50
221.13377236592
 51
223.189285807496
  0
ARC
  8
CUIVRE
 10
31.8690277924644
 20
-104.092000484947
 30
0.0
 40
0.8525714851208
 50
212.929278054182
 51
221.437159104577
  0
ARC
  8
CUIVRE
 10
32.0018663806166
 20
-103.997676739117
 30
0.0
 40
1.0153670717104
 50
200.100408925566
 51
213.32193350088
  0
ARC
  8
CUIVRE
 10
31.753952563107
 20
-104.10560174599
 30
0.0
 40
0.7456379997591
 50
180.815301419392
 51
198.859183720103
  0
ARC
  8
CUIVRE
 10
31.7286446700509
 20
-104.111433108572
 30
0.0
 40
0.7202704690966
 50
131.694902683345
 51
180.380119357217
  0
ARC
  8
CUIVRE
 10
31.8227057032643
 20
-104.185081006844
 30
0.0
 40
0.8380985360074
 50
88.508879336438
 51
133.147602190837
  0
ARC
  8
CUIVRE
 10
31.8474162287995
 20
-104.278911251735
 30
0.0
 40
0.9316494935355
 50
62.4789451063904
 51
90.1784406189531
  0
ARC
  8
CUIVRE
 10
31.5421803561397
 20
-104.786120648216
 30
0.0
 40
1.5229386768023
 50
48.5929145292284
 51
61.1121200377378
  0
ARC
  8
CUIVRE
 10
31.3197123766422
 20
-105.121185637944
 30
0.0
 40
1.9221686454766
 50
40.3137174509142
 51
50.225296849824
  0
ARC
  8
CUIVRE
 10
33.7107994132048
 20
-103.404455519444
 30
0.0
 40
1.0393463237243
 50
207.079641949134
 51
225.603753939733
  0
ARC
  8
CUIVRE
 10
33.3415576889394
 20
-103.778216058241
 30
0.0
 40
0.5139652154233
 50
225.864724640995
 51
244.957742422735
  0
ARC
  8
CUIVRE
 10
33.2878864442457
 20
-103.897496663179
 30
0.0
 40
0.3831836988731
 50
244.679032366828
 51
270.382248488304
  0
ARC
  8
CUIVRE
 10
33.3012212195788
 20
-103.906130262035
 30
0.0
 40
0.3746966281604
 50
268.351623161535
 51
309.835360829123
  0
ARC
  8
CUIVRE
 10
33.345824875632
 20
-103.957259244719
 30
0.0
 40
0.3068665602162
 50
309.555621262306
 51
331.197955811517
  0
ARC
  8
CUIVRE
 10
33.408659367435
 20
-103.994500397798
 30
0.0
 40
0.2338750495293
 50
331.776452451093
 51
360.281617439271
  0
ARC
  8
CUIVRE
 10
33.2885689958487
 20
-104.00681515991
 30
0.0
 40
0.354218585739
 50
2.1784086027732
 51
38.4305388069731
  0
ARC
  8
CUIVRE
 10
33.2558764894263
 20
-104.006987686331
 30
0.0
 40
0.3804717287889
 50
35.3893658549713
 51
44.1200098478284
  0
ARC
  8
CUIVRE
 10
32.2427048588679
 20
-104.928322508354
 30
0.0
 40
1.7497617118752
 50
42.6816254302921
 51
49.3239487901475
  0
ARC
  8
CUIVRE
 10
32.4464304991183
 20
-104.608999052816
 30
0.0
 40
1.3758453575591
 50
47.0903377077704
 51
51.3101527172336
  0
LINE
  8
CUIVRE
 10
33.3064774246845
 20
-103.535095084232
 30
0.0
 11
33.2284311146294
 21
-103.470385376417
 31
0.0
  0
ARC
  8
CUIVRE
 10
38.8964502004741
 20
-96.5103431608643
 30
0.0
 40
8.9760028966003
 50
229.408836788226
 51
230.841813114535
  0
ARC
  8
CUIVRE
 10
38.0331124469366
 20
-97.6164861954915
 30
0.0
 40
7.5745638166902
 50
226.375981515964
 51
228.923769924835
  0
LINE
  8
CUIVRE
 10
32.8072462218991
 20
-103.099581964409
 30
0.0
 11
32.7479116834869
 21
-103.039584129964
 31
0.0
  0
ARC
  8
CUIVRE
 10
35.3174058273891
 20
-100.627572566469
 30
0.0
 40
3.5242162161223
 50
221.133772365717
 51
223.189285807667
  0
ARC
  8
CUIVRE
 10
33.3022090463905
 20
-102.381639767684
 30
0.0
 40
0.8525714851979
 50
212.929278054564
 51
221.437159104188
  0
ARC
  8
CUIVRE
 10
33.4350476343733
 20
-102.287316021954
 30
0.0
 40
1.0153670715909
 50
200.100408924802
 51
213.321933501674
  0
ARC
  8
CUIVRE
 10
33.1871338169766
 20
-102.395241028772
 30
0.0
 40
0.7456379997643
 50
180.815301419468
 51
198.859183720042
  0
ARC
  8
CUIVRE
 10
33.1618259239223
 20
-102.401072391358
 30
0.0
 40
0.7202704691036
 50
131.694902683598
 51
180.38011935699
  0
ARC
  8
CUIVRE
 10
33.2558869571288
 20
-102.474720289627
 30
0.0
 40
0.8380985360075
 50
88.5088793364412
 51
133.147602190833
  0
ARC
  8
CUIVRE
 10
33.280597482658
 20
-102.568550534542
 30
0.0
 40
0.9316494935598
 50
62.4789451067585
 51
90.1784406185842
  0
ARC
  8
CUIVRE
 10
33.3884954373499
 20
-102.340641197939
 30
0.0
 40
0.6797413469407
 50
47.9221132549938
 51
61.6678100371375
  0
ARC
  8
CUIVRE
 10
32.5246150378384
 20
-103.347012803361
 30
0.0
 40
2.005901000078
 50
41.9104139428904
 51
48.8707029095676
  0
ARC
  8
CUIVRE
 10
27.1294523293566
 20
-108.261886936858
 30
0.0
 40
9.3040613323167
 50
40.7419260352763
 51
42.2417598290757
  0
ARC
  8
CUIVRE
 10
35.1041467505492
 20
-101.716423327315
 30
0.0
 40
1.0393463237617
 50
207.079641949491
 51
225.603753939418
  0
ARC
  8
CUIVRE
 10
34.7349050262635
 20
-102.09018386612
 30
0.0
 40
0.5139652154407
 50
225.864724641306
 51
244.957742422414
  0
ARC
  8
CUIVRE
 10
34.6812337815592
 20
-102.209464471078
 30
0.0
 40
0.3831836988676
 50
244.679032366558
 51
270.382248488427
  0
ARC
  8
CUIVRE
 10
34.6945685568956
 20
-102.218098069938
 30
0.0
 40
0.3746966281512
 50
268.351623161116
 51
309.83536082975
  0
ARC
  8
CUIVRE
 10
34.7391722129575
 20
-102.269227052621
 30
0.0
 40
0.306866560202
 50
309.555621261712
 51
331.197955811928
  0
ARC
  8
CUIVRE
 10
34.8020067047454
 20
-102.30646820569
 30
0.0
 40
0.2338750495328
 50
331.776452451376
 51
360.281617439047
  0
ARC
  8
CUIVRE
 10
34.6819163331807
 20
-102.318782967796
 30
0.0
 40
0.3542185857208
 50
2.1784086017195
 51
38.4305388078497
  0
ARC
  8
CUIVRE
 10
34.6492238270101
 20
-102.318955494
 30
0.0
 40
0.3804717284392
 50
35.3893658509208
 51
44.1200098518539
  0
ARC
  8
CUIVRE
 10
33.6360521966595
 20
-103.240290315749
 30
0.0
 40
1.7497617111864
 50
42.6816254288998
 51
49.3239487913834
  0
ARC
  8
CUIVRE
 10
33.839777836126
 20
-102.920966861062
 30
0.0
 40
1.3758453580263
 50
47.0903377084381
 51
51.3101527164736
  0
LINE
  8
CUIVRE
 10
34.6998247619986
 20
-101.847062892124
 30
0.0
 11
34.6217784519434
 21
-101.78235318431
 31
0.0
  0
ARC
  8
CUIVRE
 10
40.2897975417255
 20
-94.8223109640303
 30
0.0
 40
8.9760029027515
 50
229.408836788771
 51
230.841813114098
  0
ARC
  8
CUIVRE
 10
39.4264597902726
 20
-95.9284539967715
 30
0.0
 40
7.574563825632
 50
226.375981517501
 51
228.923769923362
  0
LINE
  8
CUIVRE
 10
34.200593559213
 20
-101.411549772302
 30
0.0
 11
34.1412590208009
 21
-101.351551937857
 31
0.0
  0
ARC
  8
CUIVRE
 10
36.7107531657687
 20
-98.9395403733954
 30
0.0
 40
3.5242162175608
 50
221.133772366157
 51
223.189285807267
  0
ARC
  8
CUIVRE
 10
34.6955563835595
 20
-100.693607575687
 30
0.0
 40
0.8525714850165
 50
212.92927805365
 51
221.437159105089
  0
ARC
  8
CUIVRE
 10
34.8283949718086
 20
-100.599283829786
 30
0.0
 40
1.0153670717257
 50
200.100408925661
 51
213.321933500779
  0
ARC
  8
CUIVRE
 10
34.5804811543248
 20
-100.707208836659
 30
0.0
 40
0.7456379997986
 50
180.815301419855
 51
198.859183719623
  0
ARC
  8
CUIVRE
 10
34.5551732612346
 20
-100.71304019925
 30
0.0
 40
0.720270469102
 50
131.694902683538
 51
180.380119356992
  0
ARC
  8
CUIVRE
 10
34.6492342944446
 20
-100.786688097524
 30
0.0
 40
0.8380985360113
 50
88.5088793365519
 51
133.147602190762
  0
LINE
  8
CUIVRE
 10
34.6710433175474
 20
-99.9488733670638
 30
0.0
 11
34.6834025976004
 21
-99.9503375326467
 31
0.0
  0
ARC
  8
CUIVRE
 10
33.1795782536784
 20
-103.123514069754
 30
0.0
 40
3.5114864363995
 50
64.6429013880861
 51
89.9466454201817
  0
ARC
  8
CUIVRE
 10
33.1828431424231
 20
-103.142471829161
 30
0.0
 40
3.5304426733039
 50
89.9999179959424
 51
180.000081993764
  0
ARC
  8
CUIVRE
 10
33.173676351337
 20
-103.14539423011
 30
0.0
 40
3.5212770907139
 50
179.952530919611
 51
230.173675351413
  0
LINE
  8
CUIVRE
 10
30.9184299960154
 20
-105.849697509403
 30
0.0
 11
31.3522105813253
 21
-105.58795637995
 31
0.0
  0
LINE
  8
CUIVRE
 10
35.5001486097182
 20
-100.483293804288
 30
0.0
 11
35.1220063164886
 21
-100.817037429388
 31
0.0
  0
ARC
  8
CUIVRE
 10
33.9572244067302
 20
-101.65283347027
 30
0.0
 40
1.4336219582773
 50
35.6615509477193
 51
38.5240447660678
  0
ARC
  8
CUIVRE
 10
34.3933093275694
 20
-101.283798209098
 30
0.0
 40
0.8627707625057
 50
37.3883009808335
 51
54.1031650176274
  0
ARC
  8
CUIVRE
 10
34.6517878114424
 20
-100.916190265673
 30
0.0
 40
0.4134738121558
 50
53.2506431652093
 51
88.5728050658826
  0
ARC
  8
CUIVRE
 10
34.6518438550691
 20
-100.786862978483
 30
0.0
 40
0.2842028738115
 50
87.9347050998116
 51
128.298579312847
  0
ARC
  8
CUIVRE
 10
34.5834559084184
 20
-100.708301517445
 30
0.0
 40
0.1802332474542
 50
126.714903191596
 51
177.768015596141
  0
ARC
  8
CUIVRE
 10
34.638956252025
 20
-100.698715427084
 30
0.0
 40
0.2356108357603
 50
180.624204604577
 51
218.683443501165
  0
ARC
  8
CUIVRE
 10
35.1053749826468
 20
-100.324067066958
 30
0.0
 40
0.8338646105299
 50
218.747685723425
 51
228.679610308752
  0
ARC
  8
CUIVRE
 10
39.7522446385693
 20
-95.3840690222018
 30
0.0
 40
7.6155513220547
 50
226.962429450252
 51
230.21973153058
  0
LINE
  8
CUIVRE
 10
34.8794715942892
 20
-101.236650059469
 30
0.0
 11
35.0828561858381
 21
-101.408409322951
 31
0.0
  0
ARC
  8
CUIVRE
 10
34.7338257843959
 20
-101.864853731302
 30
0.0
 40
0.5745987461227
 50
45.9561860675539
 51
52.5958570546085
  0
LINE
  8
CUIVRE
 10
35.1332915700147
 20
-101.45182733364
 30
0.0
 11
35.2082776642243
 21
-101.517697619325
 31
0.0
  0
ARC
  8
CUIVRE
 10
35.1650434367418
 20
-101.584359689917
 30
0.0
 40
0.0794545787327
 50
38.9175352474547
 51
57.0342469010137
  0
LINE
  8
CUIVRE
 10
35.2268631452495
 20
-101.534446227589
 30
0.0
 11
35.2811697278378
 21
-101.585982741709
 31
0.0
  0
ARC
  8
CUIVRE
 10
34.2222631308739
 20
-102.654660525809
 30
0.0
 40
1.504445209146
 50
37.1923347884364
 51
45.263135907847
  0
ARC
  8
CUIVRE
 10
34.688498270938
 20
-102.315650290428
 30
0.0
 40
0.9281828131
 50
24.8209737235974
 51
37.9193027958806
  0
ARC
  8
CUIVRE
 10
34.7559070238524
 20
-102.271287997694
 30
0.0
 40
0.8484628226134
 50
-0.6230336959146
 51
24.0128191355885
  0
ARC
  8
CUIVRE
 10
34.7429499513888
 20
-102.29449604632
 30
0.0
 40
0.8614832062304
 50
-22.014116649988
 51
0.9299634586804
  0
ARC
  8
CUIVRE
 10
34.8034717875409
 20
-102.311660773773
 30
0.0
 40
0.798968687182
 50
312.728585945942
 51
337.500211841019
  0
ARC
  8
CUIVRE
 10
34.7535765246953
 20
-102.268583880938
 30
0.0
 40
0.8644990609547
 50
288.810335506577
 51
313.220565302019
  0
ARC
  8
CUIVRE
 10
34.6903832352413
 20
-102.065952643303
 30
0.0
 40
1.0766979468236
 50
268.970783519373
 51
288.516724492983
  0
ARC
  8
CUIVRE
 10
34.6754008888899
 20
-101.923430681948
 30
0.0
 40
1.2190539881507
 50
255.787519267426
 51
269.795192831975
  0
ARC
  8
CUIVRE
 10
34.6248546238449
 20
-102.189333264306
 30
0.0
 40
0.94901986688
 50
236.78613738681
 51
254.804293716646
  0
ARC
  8
CUIVRE
 10
34.6653240855494
 20
-102.15000022467
 30
0.0
 40
1.0041704102881
 50
218.283058330641
 51
236.083581023413
  0
ARC
  8
CUIVRE
 10
34.9933091996905
 20
-101.864680913908
 30
0.0
 40
1.4385440162913
 50
206.711939290893
 51
219.110014981802
  0
LINE
  8
CUIVRE
 10
33.7082898521171
 20
-102.51131385706
 30
0.0
 11
33.7072347916248
 21
-102.512024408003
 31
0.0
  0
ARC
  8
CUIVRE
 10
29.5641705900435
 20
-105.632947783245
 30
0.0
 40
5.1870168394323
 50
36.9903010965449
 51
38.5330630290322
  0
ARC
  8
CUIVRE
 10
33.0352256238499
 20
-102.871040311749
 30
0.0
 40
0.7512156409681
 50
38.6742377872272
 51
54.7787535415827
  0
ARC
  8
CUIVRE
 10
33.265118065235
 20
-102.535087763278
 30
0.0
 40
0.3442298919901
 50
53.7884474684179
 51
89.3973424439244
  0
ARC
  8
CUIVRE
 10
33.2584965177523
 20
-102.474895170581
 30
0.0
 40
0.2842028738027
 50
87.9347050991779
 51
128.298579313541
  0
ARC
  8
CUIVRE
 10
33.1901085711054
 20
-102.396333709553
 30
0.0
 40
0.1802332474552
 50
126.714903191745
 51
177.768015595967
  0
ARC
  8
CUIVRE
 10
33.245608914697
 20
-102.386747619196
 30
0.0
 40
0.2356108357461
 50
180.624204603388
 51
218.683443502344
  0
ARC
  8
CUIVRE
 10
33.7120276453093
 20
-102.012099259087
 30
0.0
 40
0.8338646104976
 50
218.74768572325
 51
228.679610308959
  0
ARC
  8
CUIVRE
 10
38.3588973055311
 20
-97.0721012094552
 30
0.0
 40
7.6155513285202
 50
226.962429451661
 51
230.21973152922
  0
LINE
  8
CUIVRE
 10
33.4861242569752
 20
-102.924682251576
 30
0.0
 11
33.6895088485241
 21
-103.096441515058
 31
0.0
  0
ARC
  8
CUIVRE
 10
33.3404784470451
 20
-103.552885923451
 30
0.0
 40
0.5745987461786
 50
45.9561860678382
 51
52.595857054246
  0
LINE
  8
CUIVRE
 10
33.7399442327006
 20
-103.139859525747
 30
0.0
 11
33.8149303269102
 21
-103.205729811432
 31
0.0
  0
ARC
  8
CUIVRE
 10
33.7716960994294
 20
-103.272391882022
 30
0.0
 40
0.0794545787301
 50
38.9175352471188
 51
57.0342469012755
  0
LINE
  8
CUIVRE
 10
33.8335158079354
 20
-103.222478419696
 30
0.0
 11
33.8878223905239
 21
-103.274014933816
 31
0.0
  0
ARC
  8
CUIVRE
 10
32.8289157933562
 20
-104.342692718094
 30
0.0
 40
1.5044452094154
 50
37.1923347891249
 51
45.2631359070881
  0
ARC
  8
CUIVRE
 10
33.2951509335162
 20
-104.0036824826
 30
0.0
 40
0.9281828132252
 50
24.8209737244399
 51
37.9193027949741
  0
ARC
  8
CUIVRE
 10
33.3625596864472
 20
-103.959320189821
 30
0.0
 40
0.8484628227045
 50
-0.6230336945339
 51
24.0128191342433
  0
ARC
  8
CUIVRE
 10
33.3496026140785
 20
-103.982528238427
 30
0.0
 40
0.8614832062267
 50
-22.0141166500782
 51
0.9299634586957
  0
ARC
  8
CUIVRE
 10
33.4101244502472
 20
-103.999692965895
 30
0.0
 40
0.7989686871574
 50
312.728585945589
 51
337.500211841429
  0
ARC
  8
CUIVRE
 10
33.3602291873903
 20
-103.95661607306
 30
0.0
 40
0.8644990609379
 50
288.810335506304
 51
313.220565302242
  0
ARC
  8
CUIVRE
 10
33.2970358979298
 20
-103.753984835428
 30
0.0
 40
1.0766979468056
 50
268.970783519208
 51
288.516724493151
  0
ARC
  8
CUIVRE
 10
33.2820535515736
 20
-103.61146287407
 30
0.0
 40
1.219053988135
 50
255.787519267342
 51
269.79519283207
  0
ARC
  8
CUIVRE
 10
33.2315072865172
 20
-103.877365456444
 30
0.0
 40
0.9490198668468
 50
236.78613738649
 51
254.804293716943
  0
ARC
  8
CUIVRE
 10
33.2592652207181
 20
-103.852058727041
 30
0.0
 40
0.9854415873539
 50
218.168297109752
 51
236.241858936222
  0
ARC
  8
CUIVRE
 10
33.7643856502742
 20
-103.446421499317
 30
0.0
 40
1.6332537763531
 50
207.526370202568
 51
218.405462574482
  0
LINE
  8
CUIVRE
 10
32.316019107142
 20
-104.201240851684
 30
0.0
 11
32.3148994511093
 21
-104.202015998168
 31
0.0
  0
ARC
  8
CUIVRE
 10
31.5865388371011
 20
-104.715090356241
 30
0.0
 40
0.8909289988269
 50
35.161767510497
 51
53.9443335590371
  0
ARC
  8
CUIVRE
 10
31.8239414860537
 20
-104.38729955983
 30
0.0
 40
0.4862007100946
 50
53.826367180505
 51
88.630996141141
  0
ARC
  8
CUIVRE
 10
31.8253152638906
 20
-104.185255887807
 30
0.0
 40
0.2842028738112
 50
87.9347050997898
 51
128.298579312876
  0
ARC
  8
CUIVRE
 10
31.7569273172411
 20
-104.10669442677
 30
0.0
 40
0.1802332474553
 50
126.714903191761
 51
177.768015595973
  0
ARC
  8
CUIVRE
 10
31.8124276608304
 20
-104.097108336414
 30
0.0
 40
0.2356108357439
 50
180.624204603204
 51
218.683443502536
  0
ARC
  8
CUIVRE
 10
32.2788463914063
 20
-103.722459976341
 30
0.0
 40
0.8338646104445
 50
218.747685722937
 51
228.67961030928
  0
ARC
  8
CUIVRE
 10
36.9257160511113
 20
-98.7824619273025
 30
0.0
 40
7.6155513276806
 50
226.962429451479
 51
230.219731529398
  0
LINE
  8
CUIVRE
 10
32.0529430031108
 20
-104.635042968793
 30
0.0
 11
32.2563275946598
 21
-104.806802232275
 31
0.0
  0
ARC
  8
CUIVRE
 10
31.9072971933675
 20
-105.263246640452
 30
0.0
 40
0.5745987458932
 50
45.9561860662204
 51
52.5958570559315
  0
LINE
  8
CUIVRE
 10
32.3067629788363
 20
-104.850220242964
 30
0.0
 11
32.3817490730459
 21
-104.916090528649
 31
0.0
  0
ARC
  8
CUIVRE
 10
32.3385148455537
 20
-104.982752599252
 30
0.0
 40
0.079454578747
 50
38.9175352490807
 51
57.034246899351
  0
LINE
  8
CUIVRE
 10
32.4003345540711
 20
-104.932839136913
 30
0.0
 11
32.4546411366595
 21
-104.984375651034
 31
0.0
  0
ARC
  8
CUIVRE
 10
31.3957345396233
 20
-106.053053435196
 30
0.0
 40
1.5044452092416
 50
37.1923347886922
 51
45.2631359075835
  0
ARC
  8
CUIVRE
 10
31.8619696796591
 20
-105.714043199814
 30
0.0
 40
0.9281828132172
 50
24.8209737244506
 51
37.919302795076
  0
ARC
  8
CUIVRE
 10
31.9293784326794
 20
-105.669680907017
 30
0.0
 40
0.8484628226081
 50
-0.6230336959732
 51
24.0128191356668
  0
ARC
  8
CUIVRE
 10
31.9164213602002
 20
-105.692888955642
 30
0.0
 40
0.8614832062406
 50
-22.0141166498911
 51
0.9299634585078
  0
ARC
  8
CUIVRE
 10
31.9769431963629
 20
-105.710053683099
 30
0.0
 40
0.7989686871808
 50
312.728585945978
 51
337.500211841098
  0
ARC
  8
CUIVRE
 10
31.9296611544108
 20
-105.65728219589
 30
0.0
 40
0.8698161337613
 50
282.247496443396
 51
312.65780221458
  0
ARC
  8
CUIVRE
 10
33.1768221839742
 20
-103.181247097607
 30
0.0
 40
3.4916827099509
 50
252.281816326719
 51
270.098882167173
  0
ARC
  8
CUIVRE
 10
33.1828727407795
 20
-103.142501427517
 30
0.0
 40
3.5304231802224
 50
269.999601637954
 51
360.000398351757
  0
ARC
  8
CUIVRE
 10
33.1957639945553
 20
-103.140895147653
 30
0.0
 40
3.5175322819919
 50
359.974235713438
 51
409.071706005053
  0
LINE
  8
CUIVRE
 10
277.500008238188
 20
-86.7897067382852
 30
0.0
 11
90.1459402918624
 21
-86.7897067382852
 31
0.0
  0
LINE
  8
CUIVRE
 10
90.1459402918624
 20
-86.7897067382852
 30
0.0
 11
90.145875696322
 21
-86.7896421427449
 31
0.0
  0
LINE
  8
CUIVRE
 10
90.145875696322
 20
-86.7896421427449
 30
0.0
 11
86.6102818590441
 21
-86.7895775472045
 31
0.0
  0
LINE
  8
CUIVRE
 10
86.6102818590441
 20
-86.7895775472045
 30
0.0
 11
86.6104110501247
 21
-86.7897067382852
 31
0.0
  0
LINE
  8
CUIVRE
 10
86.6104110501247
 20
-86.7897067382852
 30
0.0
 11
19.500037124845
 21
-86.7897067382852
 31
0.0
  0
ARC
  8
CUIVRE
 10
19.5007680881463
 20
-89.77906440006
 30
0.0
 40
2.9893577511431
 50
90.0140100704042
 51
135.154029928919
  0
ARC
  8
CUIVRE
 10
19.4876407887392
 20
-89.7896928076008
 30
0.0
 40
2.9875928125511
 50
134.83197342501
 51
180.000471989153
  0
LINE
  8
CUIVRE
 10
16.5000479762895
 20
-89.7897174186876
 30
0.0
 11
16.5000479762895
 21
-115.789702322941
 31
0.0
  0
ARC
  8
CUIVRE
 10
19.4935216558054
 20
-115.78728091873
 30
0.0
 40
2.993474658846
 50
180.046346227287
 51
225.12120835855
  0
ARC
  8
CUIVRE
 10
19.5017111307809
 20
-115.798088044988
 30
0.0
 40
2.9916254267114
 50
224.86402065879
 51
269.967939341887
  0
LINE
  8
CUIVRE
 10
19.500037124845
 20
-118.789713003343
 30
0.0
 11
277.500008238188
 21
-118.789713003343
 31
0.0
  0
ARC
  8
CUIVRE
 10
277.497571645141
 20
-115.796209257015
 30
0.0
 40
2.9935047379724
 50
270.0466364765
 51
315.121042207659
  0
ARC
  8
CUIVRE
 10
277.51247360207
 20
-115.789744013251
 30
0.0
 40
2.9875453168111
 50
314.831521770204
 51
360.000799545633
  0
LINE
  8
CUIVRE
 10
280.50001891859
 20
-115.789702322941
 30
0.0
 11
280.50001891859
 21
-89.7897174186876
 31
0.0
  0
ARC
  8
CUIVRE
 10
277.506515172261
 20
-89.7921540117346
 30
0.0
 40
2.9935047379737
 50
0.0466364765119
 51
45.1210422076501
  0
ARC
  8
CUIVRE
 10
277.500049928497
 20
-89.7772520548072
 30
0.0
 40
2.9875453168128
 50
44.8315217702186
 51
90.0007995456218
  0
LINE
  8
CUIVRE
 10
59.7857133503965
 20
-117.273009715962
 30
0.0
 11
19.500037124845
 21
-117.273009715962
 31
0.0
  0
ARC
  8
CUIVRE
 10
19.501648205
 20
-115.771404061529
 30
0.0
 40
1.5016065187004
 50
180.06147290245
 51
269.938527097549
  0
LINE
  8
CUIVRE
 10
18.0000425505673
 20
-115.773015141684
 30
0.0
 11
18.0000425505673
 21
-89.7728795145034
 31
0.0
  0
ARC
  8
CUIVRE
 10
19.5016482049999
 20
-89.7744905946583
 30
0.0
 40
1.5016065187004
 50
90.0614729024497
 51
179.938527097551
  0
LINE
  8
CUIVRE
 10
19.500037124845
 20
-88.2728849402256
 30
0.0
 11
66.6184788855264
 21
-88.2728849402256
 31
0.0
  0
ARC
  8
CUIVRE
 10
-1.995227632962
 20
-81.0153269372634
 30
0.0
 40
68.9964699848595
 50
353.608899809719
 51
353.962037492516
  0
ARC
  8
CUIVRE
 10
44.5740831649036
 20
-86.4302006552009
 30
0.0
 40
22.1147036413891
 50
353.052852947535
 51
354.120284486667
  0
ARC
  8
CUIVRE
 10
54.5643287599909
 20
-87.830183588188
 30
0.0
 40
12.0298387774952
 50
352.966099509721
 51
353.916607073282
  0
ARC
  8
CUIVRE
 10
-43.8674615617422
 20
-76.6471704618364
 30
0.0
 40
111.094355205823
 50
351.837527288742
 51
353.458519877964
  0
ARC
  8
CUIVRE
 10
-51.6055764360698
 20
-75.6904505821836
 30
0.0
 40
118.890011004607
 50
349.638520046763
 51
351.910603451949
  0
ARC
  8
CUIVRE
 10
62.3643852439081
 20
-96.6017023364524
 30
0.0
 40
3.0184043156386
 50
348.205016975829
 51
351.00255062722
  0
ARC
  8
CUIVRE
 10
-47.9800825288684
 20
-76.3824373782334
 30
0.0
 40
115.199152026096
 50
347.307910568943
 51
349.579466304792
  0
ARC
  8
CUIVRE
 10
-52.8474246851908
 20
-75.4163301095792
 30
0.0
 40
120.159892042584
 50
339.814216171248
 51
347.368425386035
  0
LINE
  8
CUIVRE
 10
59.932086844826
 20
-116.879342961232
 30
0.0
 11
59.7857133503965
 21
-117.273009715962
 31
0.0
  0
LINE
  8
CUIVRE
 10
66.0503611081619
 20
-117.273009715962
 30
0.0
 11
60.9592851274468
 21
-117.273009715962
 31
0.0
  0
LINE
  8
CUIVRE
 10
60.9592851274468
 20
-117.273009715962
 30
0.0
 11
60.9642374522069
 21
-117.259681502803
 31
0.0
  0
ARC
  8
CUIVRE
 10
-54.4226309665897
 20
-74.8386441058946
 30
0.0
 40
122.93768265803
 50
339.814461812259
 51
341.677220616991
  0
LINE
  8
CUIVRE
 10
62.2821808844663
 20
-113.486551010877
 30
0.0
 11
62.5150975178108
 21
-112.774264607652
 31
0.0
  0
LINE
  8
CUIVRE
 10
62.5150975178108
 20
-112.774264607652
 30
0.0
 11
62.7294194241188
 21
-112.105173818969
 31
0.0
  0
ARC
  8
CUIVRE
 10
-55.0429382981891
 20
-74.8249849729024
 30
0.0
 40
123.531942119719
 50
342.435104576848
 51
347.323055596623
  0
ARC
  8
CUIVRE
 10
-50.7922371232896
 20
-75.8184137871365
 30
0.0
 40
119.166854572506
 50
347.34054726016
 51
350.658031779846
  0
LINE
  8
CUIVRE
 10
66.7941169337753
 20
-95.1623680951702
 30
0.0
 11
66.9310436579385
 21
-94.3107994087528
 31
0.0
  0
ARC
  8
CUIVRE
 10
-54.7985167480812
 20
-75.2250908433478
 30
0.0
 40
123.216679666701
 50
351.089264653111
 51
353.896596477675
  0
LINE
  8
CUIVRE
 10
67.7197251892333
 20
-88.3258748151581
 30
0.0
 11
67.7253880649371
 21
-88.2728849402256
 31
0.0
  0
LINE
  8
CUIVRE
 10
67.7253880649371
 20
-88.2728849402256
 30
0.0
 11
72.5111209264252
 21
-88.2728849402256
 31
0.0
  0
LINE
  8
CUIVRE
 10
72.5111209264252
 20
-88.2728849402256
 30
0.0
 11
72.4780910734603
 21
-88.7354966683543
 31
0.0
  0
ARC
  8
CUIVRE
 10
-28.3143858750882
 20
-80.8912750704736
 30
0.0
 40
101.097256253077
 50
346.706414592421
 51
355.549899193413
  0
ARC
  8
CUIVRE
 10
-31.5437630240379
 20
-80.1943941313949
 30
0.0
 40
104.400362206193
 50
339.301545561265
 51
346.741734663145
  0
LINE
  8
CUIVRE
 10
66.1179280433663
 20
-117.09466142906
 30
0.0
 11
66.0503611081619
 21
-117.273009715962
 31
0.0
  0
LINE
  8
CUIVRE
 10
72.3687308236504
 20
-117.273009715962
 30
0.0
 11
67.2247295635432
 21
-117.273009715962
 31
0.0
  0
ARC
  8
CUIVRE
 10
-29.9726267519944
 20
-80.7148442291873
 30
0.0
 40
103.845199881785
 50
339.387562987757
 51
343.104806461542
  0
LINE
  8
CUIVRE
 10
69.3904032151879
 20
-110.894536312255
 30
0.0
 11
69.5121254988592
 21
-110.491383980674
 31
0.0
  0
LINE
  8
CUIVRE
 10
69.5121254988592
 20
-110.491383980674
 30
0.0
 11
69.6247766804388
 21
-110.113012968486
 31
0.0
  0
LINE
  8
CUIVRE
 10
69.6247766804388
 20
-110.113012968486
 30
0.0
 11
69.8321901224968
 21
-109.402462330145
 31
0.0
  0
LINE
  8
CUIVRE
 10
69.8321901224968
 20
-109.402462330145
 30
0.0
 11
70.0095940192013
 21
-108.779588603807
 31
0.0
  0
LINE
  8
CUIVRE
 10
70.0095940192013
 20
-108.779588603807
 30
0.0
 11
70.1616969012076
 21
-108.233702400553
 31
0.0
  0
LINE
  8
CUIVRE
 10
70.1616969012076
 20
-108.233702400553
 30
0.0
 11
70.2923893901843
 21
-107.755400362811
 31
0.0
  0
LINE
  8
CUIVRE
 10
70.2923893901843
 20
-107.755400362811
 30
0.0
 11
70.5157183450177
 21
-106.916891607003
 31
0.0
  0
ARC
  8
CUIVRE
 10
-44.7707599344607
 20
-76.8883204376659
 30
0.0
 40
119.133064933949
 50
345.400608338738
 51
346.652627416147
  0
ARC
  8
CUIVRE
 10
-14.9453295128769
 20
-83.8848752779371
 30
0.0
 40
88.4981185616985
 50
346.60228223119
 51
347.878919470736
  0
ARC
  8
CUIVRE
 10
-28.2209577575873
 20
-80.9073056804848
 30
0.0
 40
102.103080375049
 50
347.809563933527
 51
355.55495331276
  0
LINE
  8
CUIVRE
 10
73.5750094759639
 20
-88.82059052684
 30
0.0
 11
73.5785463122712
 21
-88.7752218714738
 31
0.0
  0
LINE
  8
CUIVRE
 10
73.5785463122712
 20
-88.7752218714738
 30
0.0
 11
73.6013644564261
 21
-88.4578219722432
 31
0.0
  0
LINE
  8
CUIVRE
 10
73.6013644564261
 20
-88.4578219722432
 30
0.0
 11
73.6144342874232
 21
-88.2728849402256
 31
0.0
  0
LINE
  8
CUIVRE
 10
73.6144342874232
 20
-88.2728849402256
 30
0.0
 11
78.2255008078091
 21
-88.2728849402256
 31
0.0
  0
LINE
  8
CUIVRE
 10
78.2255008078091
 20
-88.2728849402256
 30
0.0
 11
78.2041789012184
 21
-88.9941686661553
 31
0.0
  0
ARC
  8
CUIVRE
 10
11.8441262228281
 20
-86.8795034163401
 30
0.0
 40
66.3937376609986
 50
356.306640815838
 51
358.174799419196
  0
ARC
  8
CUIVRE
 10
-9.6130892961902
 20
-85.4509975709566
 30
0.0
 40
87.8984187365013
 50
346.07747063941
 51
356.278391904859
  0
LINE
  8
CUIVRE
 10
75.7030449572027
 20
-106.600211561892
 30
0.0
 11
75.620051881677
 21
-106.933804167401
 31
0.0
  0
ARC
  8
CUIVRE
 10
-10.8878902221903
 20
-85.265542078206
 30
0.0
 40
89.1803657147251
 50
344.226753385787
 51
345.938029335874
  0
ARC
  8
CUIVRE
 10
-17.8461185096532
 20
-83.2512149837052
 30
0.0
 40
96.4241499535914
 50
341.824794460773
 51
344.198816190628
  0
ARC
  8
CUIVRE
 10
-17.6692060791608
 20
-83.1355182377249
 30
0.0
 40
96.2922943118053
 50
339.349234949997
 51
341.72655225392
  0
LINE
  8
CUIVRE
 10
72.4360609085403
 20
-117.095005938608
 30
0.0
 11
72.3687308236504
 21
-117.273009715962
 31
0.0
  0
LINE
  8
CUIVRE
 10
78.7213361755237
 20
-117.273009715962
 30
0.0
 11
73.5431208108785
 21
-117.273009715962
 31
0.0
  0
LINE
  8
CUIVRE
 10
73.5431208108785
 20
-117.273009715962
 30
0.0
 11
73.7802071629617
 21
-116.634107640461
 31
0.0
  0
LINE
  8
CUIVRE
 10
73.7802071629617
 20
-116.634107640461
 30
0.0
 11
73.8897276120754
 21
-116.334036999416
 31
0.0
  0
LINE
  8
CUIVRE
 10
73.8897276120754
 20
-116.334036999416
 30
0.0
 11
73.9948560676157
 21
-116.042958485923
 31
0.0
  0
ARC
  8
CUIVRE
 10
-14.1079368890042
 20
-84.3867954978774
 30
0.0
 40
93.6173850408284
 50
340.236159336962
 51
346.107264161123
  0
ARC
  8
CUIVRE
 10
-9.0522914778847
 20
-85.567789088896
 30
0.0
 40
88.426096061749
 50
346.063566544254
 51
351.196969809316
  0
ARC
  8
CUIVRE
 10
-9.0156380428606
 20
-85.5105943034042
 30
0.0
 40
88.3986492088959
 50
351.156699837513
 51
356.291647268542
  0
ARC
  8
CUIVRE
 10
24.619771392554
 20
-87.5731244094752
 30
0.0
 40
54.7003913803212
 50
356.16883162191
 51
357.711299118316
  0
LINE
  8
CUIVRE
 10
79.2765277208156
 20
-89.7575705253938
 30
0.0
 11
79.3040088339737
 21
-89.021842190693
 31
0.0
  0
LINE
  8
CUIVRE
 10
79.3040088339737
 20
-89.021842190693
 30
0.0
 11
79.315502717559
 21
-88.6538740333554
 31
0.0
  0
LINE
  8
CUIVRE
 10
79.315502717559
 20
-88.6538740333554
 30
0.0
 11
79.3257351147172
 21
-88.2859117075292
 31
0.0
  0
LINE
  8
CUIVRE
 10
79.3257351147172
 20
-88.2859117075292
 30
0.0
 11
79.3260796242657
 21
-88.2728849402256
 31
0.0
  0
LINE
  8
CUIVRE
 10
79.3260796242657
 20
-88.2728849402256
 30
0.0
 11
83.7624152080091
 21
-88.2728849402256
 31
0.0
  0
LINE
  8
CUIVRE
 10
83.7624152080091
 20
-88.2728849402256
 30
0.0
 11
83.7626735901705
 21
-88.2843614145609
 31
0.0
  0
ARC
  8
CUIVRE
 10
6.656793445861
 20
-90.1430478651675
 30
0.0
 40
77.1282793024081
 50
-0.588725327627
 51
1.3808839044917
  0
LINE
  8
CUIVRE
 10
83.7810011961253
 20
-90.9355420571666
 30
0.0
 11
83.7705870688821
 21
-91.5982829286471
 31
0.0
  0
LINE
  8
CUIVRE
 10
83.7705870688821
 20
-91.5982829286471
 30
0.0
 11
83.7583238892488
 21
-92.0952677738781
 31
0.0
  0
ARC
  8
CUIVRE
 10
17.2979192052048
 20
-90.1010764090687
 30
0.0
 40
66.4903165127552
 50
356.996038090128
 51
358.281315361605
  0
ARC
  8
CUIVRE
 10
5.7993940128079
 20
-89.4883718231577
 30
0.0
 40
78.0051510780735
 50
345.460225593248
 51
356.989220083865
  0
ARC
  8
CUIVRE
 10
1.3745784157357
 20
-88.3748958105572
 30
0.0
 40
82.5678027587748
 50
342.562997881027
 51
345.483155301269
  0
LINE
  8
CUIVRE
 10
80.1481434595167
 20
-113.116914780422
 30
0.0
 11
79.9887507908723
 21
-113.61819056455
 31
0.0
  0
ARC
  8
CUIVRE
 10
2.0963012465625
 20
-88.6456558605739
 30
0.0
 40
81.7976844755042
 50
339.644785116916
 51
342.224005941204
  0
LINE
  8
CUIVRE
 10
78.7860609069528
 20
-117.098106524545
 30
0.0
 11
78.7213361755237
 21
-117.273009715962
 31
0.0
  0
ARC
  8
CUIVRE
 10
19.2678364005714
 20
-93.2213858997326
 30
0.0
 40
70.0665064845066
 50
344.837871883593
 51
357.711167831067
  0
ARC
  8
CUIVRE
 10
17.4976780770093
 20
-92.8828473181641
 30
0.0
 40
71.8637191883293
 50
342.625174838794
 51
344.946488487892
  0
LINE
  8
CUIVRE
 10
86.0823729029208
 20
-114.342897905608
 30
0.0
 11
85.8619336440861
 21
-115.036564136796
 31
0.0
  0
LINE
  8
CUIVRE
 10
85.8619336440861
 20
-115.036564136796
 30
0.0
 11
85.6922171897476
 21
-115.555483662546
 31
0.0
  0
LINE
  8
CUIVRE
 10
85.6922171897476
 20
-115.555483662546
 30
0.0
 11
85.6276251538897
 21
-115.749742411493
 31
0.0
  0
LINE
  8
CUIVRE
 10
85.6276251538897
 20
-115.749742411493
 30
0.0
 11
85.3974706684683
 21
-116.428304642078
 31
0.0
  0
LINE
  8
CUIVRE
 10
85.3974706684683
 20
-116.428304642078
 30
0.0
 11
85.2800324196428
 21
-116.766768863965
 31
0.0
  0
LINE
  8
CUIVRE
 10
85.2800324196428
 20
-116.766768863965
 30
0.0
 11
85.1610378476334
 21
-117.104652205967
 31
0.0
  0
LINE
  8
CUIVRE
 10
85.1610378476334
 20
-117.104652205967
 30
0.0
 11
85.1012869728111
 21
-117.273009715962
 31
0.0
  0
LINE
  8
CUIVRE
 10
85.1012869728111
 20
-117.273009715962
 30
0.0
 11
79.8922595354197
 21
-117.273009715962
 31
0.0
  0
ARC
  8
CUIVRE
 10
4.8068665001991
 20
-89.6223735786813
 30
0.0
 40
80.014835662206
 50
339.783474590187
 51
341.270657013158
  0
LINE
  8
CUIVRE
 10
80.5845931501296
 20
-115.314980877635
 30
0.0
 11
80.7092136002001
 21
-114.94598798904
 31
0.0
  0
LINE
  8
CUIVRE
 10
80.7092136002001
 20
-114.94598798904
 30
0.0
 11
80.8245285580434
 21
-114.599558866505
 31
0.0
  0
ARC
  8
CUIVRE
 10
79.1020957179639
 20
-113.986150623609
 30
0.0
 40
1.8283994533572
 50
340.397712215967
 51
343.080691929781
  0
ARC
  8
CUIVRE
 10
79.1566519353494
 20
-113.916579682408
 30
0.0
 40
1.798341990921
 50
340.453306943731
 51
343.138505473197
  0
ARC
  8
CUIVRE
 10
4.8383326250477
 20
-89.3658954040305
 30
0.0
 40
80.0662426124823
 50
341.75116006677
 51
345.548446510861
  0
ARC
  8
CUIVRE
 10
5.7764594090645
 20
-89.4837436792004
 30
0.0
 40
79.1284797189404
 50
345.461555720134
 51
356.986429425417
  0
LINE
  8
CUIVRE
 10
84.7955132166483
 20
-93.6437242061898
 30
0.0
 11
84.8127174369377
 21
-93.3083660363106
 31
0.0
  0
LINE
  8
CUIVRE
 10
84.8127174369377
 20
-93.3083660363106
 30
0.0
 11
84.839736874802
 21
-92.6793753529887
 31
0.0
  0
ARC
  8
CUIVRE
 10
11.9888127917694
 20
-90.0965519424285
 30
0.0
 40
72.8966948257733
 50
357.969512043255
 51
361.433526237731
  0
LINE
  8
CUIVRE
 10
84.8626925786107
 20
-88.2728849402256
 30
0.0
 11
88.223081778617
 21
-88.2728849402256
 31
0.0
  0
LINE
  8
CUIVRE
 10
88.223081778617
 20
-88.2728849402256
 30
0.0
 11
89.2465765835911
 21
-90.6618218089318
 31
0.0
  0
LINE
  8
CUIVRE
 10
89.2465765835911
 20
-90.6618218089318
 30
0.0
 11
89.2542006792585
 21
-90.829176996699
 31
0.0
  0
LINE
  8
CUIVRE
 10
89.2542006792585
 20
-90.829176996699
 30
0.0
 11
89.2803261730229
 21
-91.4776435911514
 31
0.0
  0
LINE
  8
CUIVRE
 10
89.2803261730229
 20
-91.4776435911514
 30
0.0
 11
89.2852929926077
 21
-91.6195664768793
 31
0.0
  0
ARC
  8
CUIVRE
 10
29.1067156586729
 20
-93.7736240169547
 30
0.0
 40
60.2171166183032
 50
-0.0438353484428
 51
2.0499942380931
  0
LINE
  8
CUIVRE
 10
89.3238146534178
 20
-93.8196943916682
 30
0.0
 11
89.3209894279667
 21
-94.3697679862155
 31
0.0
  0
ARC
  8
CUIVRE
 10
34.7249037111982
 20
-93.787360325855
 30
0.0
 40
54.599192066143
 50
357.656823627599
 51
359.388816345364
  0
LINE
  8
CUIVRE
 10
196.327163647207
 20
-99.9170708300555
 30
0.0
 11
196.327163647207
 21
-105.917070659013
 31
0.0
  0
ARC
  8
CUIVRE
 10
195.82568048496
 20
-105.915600042757
 30
0.0
 40
0.5014853185584
 50
270.168021320745
 51
359.831978679244
  0
LINE
  8
CUIVRE
 10
195.827151101217
 20
-106.417083205004
 30
0.0
 11
191.075503153186
 21
-106.417083205004
 31
0.0
  0
ARC
  8
CUIVRE
 10
191.077026944799
 20
-104.530755749424
 30
0.0
 40
1.8863280710456
 50
224.878662627956
 51
269.953715984456
  0
ARC
  8
CUIVRE
 10
191.067673245589
 20
-104.526647044337
 30
0.0
 40
1.8826231763164
 50
179.999484959994
 51
225.168136427595
  0
LINE
  8
CUIVRE
 10
189.185050069349
 20
-104.526630121167
 30
0.0
 11
189.185050069349
 21
-99.9170708300555
 31
0.0
  0
ARC
  8
CUIVRE
 10
189.686524130782
 20
-99.9185538773446
 30
0.0
 40
0.5014762543922
 50
90.1694446618417
 51
179.830555338157
  0
LINE
  8
CUIVRE
 10
189.685041083492
 20
-99.4170798159118
 30
0.0
 11
195.827151101217
 21
-99.4170798159118
 31
0.0
  0
ARC
  8
CUIVRE
 10
195.825737221302
 20
-99.918506303169
 30
0.0
 40
0.5014284806226
 50
0.1640247144486
 51
89.8384426446633
  0
LINE
  8
CUIVRE
 10
187.019764493176
 20
-88.6431681093496
 30
0.0
 11
187.428072903718
 21
-88.2728849402256
 31
0.0
  0
LINE
  8
CUIVRE
 10
187.428072903718
 20
-88.2728849402256
 30
0.0
 11
195.680949861561
 21
-88.2728849402256
 31
0.0
  0
ARC
  8
CUIVRE
 10
180.390074039114
 20
-78.5584783840584
 30
0.0
 40
18.1157549706332
 50
321.953074498708
 51
327.571902830333
  0
ARC
  8
CUIVRE
 10
181.007203014778
 20
-79.0307755661721
 30
0.0
 40
17.3386841801225
 50
313.118453708955
 51
321.925304403457
  0
ARC
  8
CUIVRE
 10
181.682485108069
 20
-79.7137289657819
 30
0.0
 40
16.3786271819829
 50
303.702982638149
 51
313.027108058024
  0
ARC
  8
CUIVRE
 10
182.698033856918
 20
-81.237585759472
 30
0.0
 40
14.5473767285203
 50
288.415562385499
 51
303.705774337944
  0
LINE
  8
CUIVRE
 10
187.293648420355
 20
-95.0399948414338
 30
0.0
 11
187.178560298289
 21
-95.078150485445
 31
0.0
  0
ARC
  8
CUIVRE
 10
181.776561895345
 20
-78.4716489559643
 30
0.0
 40
17.4630318041875
 50
284.938136894394
 51
288.019405633175
  0
LINE
  8
CUIVRE
 10
186.278111857034
 20
-95.3445126055194
 30
0.0
 11
185.936882910079
 21
-95.4315386259312
 31
0.0
  0
ARC
  8
CUIVRE
 10
181.052562823498
 20
-75.2129991891406
 30
0.0
 40
20.8001422991585
 50
276.791485159177
 51
283.581099550053
  0
ARC
  8
CUIVRE
 10
182.701847746146
 20
-89.2056239591491
 30
0.0
 40
6.7106855186823
 50
271.442301960656
 51
276.936677225403
  0
ARC
  8
CUIVRE
 10
182.592795846278
 20
-84.7189773385145
 30
0.0
 40
11.1986562228389
 50
265.259887874012
 51
271.422283329346
  0
ARC
  8
CUIVRE
 10
182.92896659347
 20
-80.0751014781291
 30
0.0
 40
15.8545037714733
 50
261.631713188604
 51
265.435996036279
  0
ARC
  8
CUIVRE
 10
183.986817692338
 20
-73.1249264182477
 30
0.0
 40
22.8846623181827
 50
256.933778861026
 51
261.543855702094
  0
ARC
  8
CUIVRE
 10
184.994171828566
 20
-69.0051514419663
 30
0.0
 40
27.1255594671269
 50
250.995227781293
 51
256.828406280498
  0
ARC
  8
CUIVRE
 10
178.413149082345
 20
-87.928602643911
 30
0.0
 40
7.0907616763684
 50
250.084490646257
 51
251.479548494403
  0
ARC
  8
CUIVRE
 10
183.800366332104
 20
-72.21919064307
 30
0.0
 40
23.6974843664326
 50
244.515754885739
 51
250.776290778164
  0
ARC
  8
CUIVRE
 10
160.995958146082
 20
-107.136131509172
 30
0.0
 40
18.490470969055
 50
47.0093664555945
 51
51.2236300976531
  0
ARC
  8
CUIVRE
 10
163.601480569992
 20
-103.961287829563
 30
0.0
 40
14.3836458193432
 50
51.3945466768466
 51
56.8131407251872
  0
ARC
  8
CUIVRE
 10
171.918625436421
 20
-90.5387775596018
 30
0.0
 40
1.4543963481243
 50
252.226981128216
 51
255.641937638299
  0
ARC
  8
CUIVRE
 10
178.124933686877
 20
-69.1045542065313
 30
0.0
 40
23.7683929549039
 50
253.961091925111
 51
260.540952168279
  0
LINE
  8
CUIVRE
 10
174.218773811543
 20
-92.5497758665425
 30
0.0
 11
174.556062808386
 21
-92.6026639999057
 31
0.0
  0
LINE
  8
CUIVRE
 10
174.556062808386
 20
-92.6026639999057
 30
0.0
 11
174.703904334821
 21
-92.6240570306759
 31
0.0
  0
ARC
  8
CUIVRE
 10
176.850512956391
 20
-77.8717140332658
 30
0.0
 40
14.9077011134323
 50
261.721014002066
 51
263.873382900006
  0
ARC
  8
CUIVRE
 10
176.996342079112
 20
-77.6105763572322
 30
0.0
 40
15.183362818904
 50
263.431392915154
 51
269.772179981478
  0
ARC
  8
CUIVRE
 10
176.979414421532
 20
-82.7354275272748
 30
0.0
 40
10.0584854452725
 50
269.752528419865
 51
274.565240746314
  0
ARC
  8
CUIVRE
 10
177.204757698753
 20
-85.2783378498506
 30
0.0
 40
7.5057397844078
 50
274.395565309806
 51
280.846502992801
  0
ARC
  8
CUIVRE
 10
173.455051050372
 20
-66.2203341560821
 30
0.0
 40
26.9290560303284
 50
281.051632639601
 51
283.128874860593
  0
ARC
  8
CUIVRE
 10
174.928561138413
 20
-72.3573736009464
 30
0.0
 40
20.6177734366587
 50
283.014896834037
 51
287.764839910687
  0
ARC
  8
CUIVRE
 10
176.267871478459
 20
-76.4697081000028
 30
0.0
 40
16.2929030979165
 50
287.691942681086
 51
296.71226699779
  0
ARC
  8
CUIVRE
 10
177.247168633849
 20
-78.3729813797193
 30
0.0
 40
14.1525652993357
 50
296.634371114552
 51
301.827776146825
  0
ARC
  8
CUIVRE
 10
176.784551793447
 20
-77.5887480774833
 30
0.0
 40
15.0628622164815
 50
301.749711552506
 51
306.629388354353
  0
LINE
  8
CUIVRE
 10
185.77160639887
 20
-89.6768690096988
 30
0.0
 11
185.812219754315
 21
-89.6465023516426
 31
0.0
  0
ARC
  8
CUIVRE
 10
183.363080969979
 20
-86.2665341815907
 30
0.0
 40
4.1740227138224
 50
305.927240701207
 51
308.622830957629
  0
ARC
  8
CUIVRE
 10
175.705774548298
 20
-76.2613297041818
 30
0.0
 40
16.7724861235439
 50
307.725325605353
 51
312.419721240417
  0
LINE
  8
CUIVRE
 10
175.679156111137
 20
-97.9953750365363
 30
0.0
 11
175.745472443421
 21
-98.0125576876449
 31
0.0
  0
ARC
  8
CUIVRE
 10
173.56520746703
 20
-106.244409854379
 30
0.0
 40
8.5156881966315
 50
67.9106135326878
 51
75.1654203885494
  0
LINE
  8
CUIVRE
 10
176.767554371408
 20
-98.3537875870127
 30
0.0
 11
176.814372441416
 21
-98.3728233389168
 31
0.0
  0
ARC
  8
CUIVRE
 10
172.802657905359
 20
-108.095442330056
 30
0.0
 40
10.5177551580969
 50
58.910681622757
 51
67.5781407844953
  0
LINE
  8
CUIVRE
 10
178.233749909612
 20
-99.0884221120807
 30
0.0
 11
178.403567114241
 21
-99.191717366801
 31
0.0
  0
LINE
  8
CUIVRE
 10
178.403567114241
 20
-99.191717366801
 30
0.0
 11
178.440539535483
 21
-99.2146994369005
 31
0.0
  0
ARC
  8
CUIVRE
 10
170.774654265357
 20
-111.437304579779
 30
0.0
 40
14.427677340912
 50
52.5511862869605
 51
57.9045095495811
  0
ARC
  8
CUIVRE
 10
177.374958511126
 20
-108.358138138747
 30
0.0
 40
8.6521083602481
 50
75.4578265746869
 51
88.3862485209757
  0
ARC
  8
CUIVRE
 10
177.423234884525
 20
-107.967778726724
 30
0.0
 40
8.2606282835669
 50
88.6447134668554
 51
102.188668795345
  0
LINE
  8
CUIVRE
 10
175.679156111137
 20
-99.8933642667476
 30
0.0
 11
175.679156111137
 21
-97.9953750365363
 31
0.0
  0
LINE
  8
CUIVRE
 10
166.297665872325
 20
-94.8105134515035
 30
0.0
 11
161.029555047362
 21
-94.8105134515035
 31
0.0
  0
ARC
  8
CUIVRE
 10
168.970427112234
 20
-101.400959535728
 30
0.0
 40
10.319468433002
 50
124.677558648677
 51
140.309367861087
  0
ARC
  8
CUIVRE
 10
168.231864460425
 20
-100.246308805719
 30
0.0
 40
8.9498484165803
 50
117.105516752782
 51
124.994949937578
  0
ARC
  8
CUIVRE
 10
167.498639868084
 20
-98.8493967499274
 30
0.0
 40
7.3722989581738
 50
108.583597904796
 51
116.979475313605
  0
ARC
  8
CUIVRE
 10
167.002059017865
 20
-97.3665473298213
 30
0.0
 40
5.8085117378777
 50
99.2826218123105
 51
108.602115967416
  0
ARC
  8
CUIVRE
 10
166.992110832134
 20
-97.1650380415503
 30
0.0
 40
5.608082476898
 50
82.6558803325257
 51
99.5144017415935
  0
ARC
  8
CUIVRE
 10
166.922002879053
 20
-97.7596818319276
 30
0.0
 40
6.2068131576823
 50
71.3417701584575
 51
82.7156936333703
  0
ARC
  8
CUIVRE
 10
168.526397626078
 20
-93.1727449190355
 30
0.0
 40
1.3486931386238
 50
68.6753013973128
 51
73.5773426986179
  0
ARC
  8
CUIVRE
 10
168.633607784965
 20
-93.1465226055503
 30
0.0
 40
1.2884494688671
 50
67.7249132298127
 51
72.6956493319672
  0
LINE
  8
CUIVRE
 10
169.121999485663
 20
-91.9542241611527
 30
0.0
 11
169.172698620428
 21
-91.9731263441045
 31
0.0
  0
ARC
  8
CUIVRE
 10
166.300709016381
 20
-99.5378901794715
 30
0.0
 40
8.091599110845
 50
63.1798858442544
 51
69.2105553707022
  0
ARC
  8
CUIVRE
 10
165.282268471279
 20
-101.471302151469
 30
0.0
 40
10.2766051362539
 50
55.8568816636831
 51
62.976125424935
  0
ARC
  8
CUIVRE
 10
169.097437303365
 20
-95.9548013903408
 30
0.0
 40
3.5701567918496
 50
54.2804092042353
 51
56.8419438341882
  0
LINE
  8
CUIVRE
 10
171.181762128752
 20
-93.0562483822578
 30
0.0
 11
171.40911802163
 21
-93.218252484436
 31
0.0
  0
ARC
  8
CUIVRE
 10
164.224178610671
 20
-103.140566046538
 30
0.0
 40
12.2505371622563
 50
50.1724128585818
 51
54.0909747002037
  0
ARC
  8
CUIVRE
 10
170.498022740613
 20
-100.793785622878
 30
0.0
 40
7.2342742322488
 50
77.4465276821841
 51
101.325177473692
  0
ARC
  8
CUIVRE
 10
170.625594032702
 20
-101.402673836169
 30
0.0
 40
7.8563604623504
 50
101.365402428656
 51
112.337235058716
  0
ARC
  8
CUIVRE
 10
171.675660213652
 20
-103.907339736619
 30
0.0
 40
10.5721866454048
 50
112.442132461625
 51
116.516094640678
  0
LINE
  8
CUIVRE
 10
166.955716085582
 20
-94.4472521105359
 30
0.0
 11
166.788699158818
 21
-94.5335350256865
 31
0.0
  0
ARC
  8
CUIVRE
 10
171.959630100961
 20
-104.274418544666
 30
0.0
 40
11.0282971731239
 50
117.961519237289
 51
120.890789339333
  0
ARC
  8
CUIVRE
 10
177.387600440125
 20
-108.029413526425
 30
0.0
 40
7.2015855169305
 50
87.3640292520589
 51
103.723210075452
  0
ARC
  8
CUIVRE
 10
177.351505683233
 20
-108.505044935167
 30
0.0
 40
7.6783867575185
 50
75.7936019100547
 51
87.258202178492
  0
ARC
  8
CUIVRE
 10
177.089432434157
 20
-109.6149123902
 30
0.0
 40
8.8186480955745
 50
68.4402071171719
 51
75.9126312383571
  0
ARC
  8
CUIVRE
 10
176.114419306873
 20
-112.012710871023
 30
0.0
 40
11.4070025226388
 50
59.6526174077857
 51
68.3112594330306
  0
ARC
  8
CUIVRE
 10
174.300676619348
 20
-115.082041035666
 30
0.0
 40
14.9721519913536
 50
53.0026914969444
 51
59.5972539531895
  0
ARC
  8
CUIVRE
 10
180.707508490114
 20
-112.459385494745
 30
0.0
 40
9.6911986073148
 50
74.4189232353347
 51
84.0459049873811
  0
ARC
  8
CUIVRE
 10
180.817927818294
 20
-111.556773797127
 30
0.0
 40
8.7820171626045
 50
84.1515599865742
 51
100.093256099472
  0
ARC
  8
CUIVRE
 10
180.971483901479
 20
-112.202829265189
 30
0.0
 40
9.445061262662
 50
100.323517249341
 51
115.139142064208
  0
ARC
  8
CUIVRE
 10
178.514476552662
 20
-107.131833344019
 30
0.0
 40
3.8112586960353
 50
114.086354455021
 51
116.829619759334
  0
ARC
  8
CUIVRE
 10
182.008883272498
 20
-114.391130379245
 30
0.0
 40
11.8673270801969
 50
116.06599503502
 51
122.233726832748
  0
LINE
  8
CUIVRE
 10
175.679156111137
 20
-104.352803522089
 30
0.0
 11
175.679156111137
 21
-101.033410958357
 31
0.0
  0
LINE
  8
CUIVRE
 10
185.767601475368
 20
-88.2728849402256
 30
0.0
 11
185.606967604397
 21
-88.4066808658381
 31
0.0
  0
ARC
  8
CUIVRE
 10
180.062240124667
 20
-81.7985663611515
 30
0.0
 40
8.6261915195248
 50
307.917019547684
 51
309.999292934593
  0
LINE
  8
CUIVRE
 10
185.363203612181
 20
-88.6037824661378
 30
0.0
 11
185.239624458746
 21
-88.700241276925
 31
0.0
  0
ARC
  8
CUIVRE
 10
180.106384374578
 20
-82.0533568712753
 30
0.0
 40
8.3982870910549
 50
306.608282942277
 51
307.678105872754
  0
ARC
  8
CUIVRE
 10
177.632629785393
 20
-78.8096397976028
 30
0.0
 40
12.4774272016926
 50
302.63601872321
 51
306.844305133605
  0
ARC
  8
CUIVRE
 10
176.571595882915
 20
-77.1559149868571
 30
0.0
 40
14.4422672258376
 50
289.921877718141
 51
302.642591441463
  0
LINE
  8
CUIVRE
 10
181.492633268675
 20
-90.7339293361814
 30
0.0
 11
181.304253248999
 21
-90.8016137193399
 31
0.0
  0
ARC
  8
CUIVRE
 10
175.198121640485
 20
-73.3364975609974
 30
0.0
 40
18.5017600688391
 50
284.620613423182
 51
289.270582380561
  0
ARC
  8
CUIVRE
 10
173.172240288223
 20
-65.0928528234107
 30
0.0
 40
26.9900997288063
 50
281.177548558826
 51
284.364682347186
  0
ARC
  8
CUIVRE
 10
177.098720610385
 20
-84.5809538613682
 30
0.0
 40
7.1109042258036
 50
271.104818159013
 51
280.5794143628
  0
ARC
  8
CUIVRE
 10
176.938028465318
 20
-80.6413042691086
 30
0.0
 40
11.0532443308961
 50
268.884789819275
 51
271.54387394663
  0
ARC
  8
CUIVRE
 10
177.093469942592
 20
-76.0968883829257
 30
0.0
 40
15.5999684798897
 50
261.577585322958
 51
268.638840185793
  0
ARC
  8
CUIVRE
 10
177.823727601068
 20
-70.5688659902203
 30
0.0
 40
21.1755125981552
 50
257.914592510587
 51
261.813819363459
  0
ARC
  8
CUIVRE
 10
178.588597400421
 20
-67.0802170454504
 30
0.0
 40
24.746987810269
 50
255.371581760672
 51
257.874073328744
  0
LINE
  8
CUIVRE
 10
172.338762875764
 20
-91.0250071697342
 30
0.0
 11
172.142938273056
 21
-90.9727138888304
 31
0.0
  0
LINE
  8
CUIVRE
 10
172.142938273056
 20
-90.9727138888304
 30
0.0
 11
171.777043716977
 21
-90.8701220557517
 31
0.0
  0
LINE
  8
CUIVRE
 10
171.777043716977
 20
-90.8701220557517
 30
0.0
 11
171.458271696727
 21
-90.7754731938178
 31
0.0
  0
ARC
  8
CUIVRE
 10
178.137877749165
 20
-68.8809111117048
 30
0.0
 40
22.8908057041092
 50
250.121372516785
 51
253.034069401919
  0
ARC
  8
CUIVRE
 10
170.586038065816
 20
-89.6661672075324
 30
0.0
 40
0.7769521621017
 50
247.280496648486
 51
252.650020585443
  0
ARC
  8
CUIVRE
 10
170.506520064529
 20
-89.685507060605
 30
0.0
 40
0.7313745486255
 50
247.10046059195
 51
252.448413228037
  0
ARC
  8
CUIVRE
 10
176.842250690383
 20
-72.4025628928268
 30
0.0
 40
19.1382060215105
 50
246.700442426364
 51
249.761930723096
  0
ARC
  8
CUIVRE
 10
160.076393333748
 20
-100.161036842034
 30
0.0
 40
13.7192733848887
 50
47.910154917941
 51
54.0421711656008
  0
ARC
  8
CUIVRE
 10
161.667107408519
 20
-97.9284375966776
 30
0.0
 40
10.9780712928291
 50
53.9202704541197
 51
61.5858249121623
  0
LINE
  8
CUIVRE
 10
166.890932846732
 20
-88.2728849402256
 30
0.0
 11
185.767601475368
 21
-88.2728849402256
 31
0.0
  0
LINE
  8
CUIVRE
 10
162.971383117623
 20
-88.2728849402256
 30
0.0
 11
163.967080308401
 21
-88.2728849402256
 31
0.0
  0
LINE
  8
CUIVRE
 10
163.967080308401
 20
-88.2728849402256
 30
0.0
 11
165.299126477772
 21
-88.7441094070675
 31
0.0
  0
ARC
  8
CUIVRE
 10
163.01528421301
 20
-95.2232761931581
 30
0.0
 40
6.8699008531634
 50
63.2230814158449
 51
70.5829494806975
  0
ARC
  8
CUIVRE
 10
162.507796483043
 20
-96.3279794527262
 30
0.0
 40
8.0848993385394
 50
58.8528542101665
 51
63.539295407234
  0
ARC
  8
CUIVRE
 10
161.471238066201
 20
-98.0711143036992
 30
0.0
 40
10.1129044463757
 50
56.125372785052
 51
58.9349213586703
  0
ARC
  8
CUIVRE
 10
165.426067839953
 20
-92.2953482695301
 30
0.0
 40
3.1138514481708
 50
53.8855701586901
 51
57.3077085120215
  0
ARC
  8
CUIVRE
 10
159.59292865219
 20
-100.660055654638
 30
0.0
 40
13.3110439069849
 50
49.2217064702607
 51
54.8235593786962
  0
ARC
  8
CUIVRE
 10
166.988539024064
 20
-97.215994950966
 30
0.0
 40
6.7614418923658
 50
78.929740446748
 51
105.07992855443
  0
ARC
  8
CUIVRE
 10
167.30466104161
 20
-98.3586109673774
 30
0.0
 40
7.9469588692534
 50
105.137360421083
 51
116.224422994649
  0
ARC
  8
CUIVRE
 10
168.428606906958
 20
-100.57572386705
 30
0.0
 40
10.4325620884814
 50
116.381176343617
 51
124.821472429031
  0
ARC
  8
CUIVRE
 10
168.982352074482
 20
-101.446551417794
 30
0.0
 40
11.4637348243141
 50
124.608196597436
 51
134.600018890014
  0
ARC
  8
CUIVRE
 10
168.578645130625
 20
-101.036315312775
 30
0.0
 40
10.8881719860564
 50
134.603170236366
 51
145.124511168919
  0
LINE
  8
CUIVRE
 10
159.646026232332
 20
-94.8105134515035
 30
0.0
 11
155.985203174166
 21
-94.8105134515035
 31
0.0
  0
ARC
  8
CUIVRE
 10
160.160279251584
 20
-96.1555044127794
 30
0.0
 40
4.3863721841799
 50
160.739549263027
 51
162.143776616353
  0
LINE
  8
CUIVRE
 10
156.019417278703
 20
-94.7086032206805
 30
0.0
 11
156.085918862223
 21
-94.5349018656116
 31
0.0
  0
ARC
  8
CUIVRE
 10
173.776473458393
 20
-101.578185021754
 30
0.0
 40
19.0411018467336
 50
157.206375598253
 51
158.290615967984
  0
ARC
  8
CUIVRE
 10
166.293862186418
 20
-98.4876467772908
 30
0.0
 40
10.9456336380967
 50
149.871514186718
 51
156.946350509887
  0
ARC
  8
CUIVRE
 10
165.672190521477
 20
-98.1390469979581
 30
0.0
 40
10.2329775585072
 50
138.459908331494
 51
149.812512010254
  0
ARC
  8
CUIVRE
 10
165.778023564935
 20
-98.2519707805615
 30
0.0
 40
10.3870873546076
 50
132.789289332469
 51
138.380808076636
  0
ARC
  8
CUIVRE
 10
166.146293649895
 20
-98.6378613519824
 30
0.0
 40
10.9204462086432
 50
127.514150860994
 51
132.831894616326
  0
ARC
  8
CUIVRE
 10
165.182286150138
 20
-97.2987853693854
 30
0.0
 40
9.2713868144149
 50
120.077783442775
 51
127.82800573853
  0
ARC
  8
CUIVRE
 10
164.071156472909
 20
-95.3296581744354
 30
0.0
 40
7.0105860467374
 50
110.028981374828
 51
120.285096910676
  0
LINE
  8
CUIVRE
 10
161.67006289361
 20
-88.7430758784219
 30
0.0
 11
162.971383117623
 21
-88.2728849402256
 31
0.0
  0
LINE
  8
CUIVRE
 10
154.643790651443
 20
-88.2728849402256
 30
0.0
 11
160.097290677207
 21
-88.2728849402256
 31
0.0
  0
ARC
  8
CUIVRE
 10
164.736966366081
 20
-96.7638014659974
 30
0.0
 40
9.6758593388678
 50
118.653433770914
 51
127.663772891091
  0
ARC
  8
CUIVRE
 10
166.002787402407
 20
-98.4798161457468
 30
0.0
 40
11.8078156887202
 50
127.438166390384
 51
135.402426553002
  0
ARC
  8
CUIVRE
 10
165.457647604284
 20
-97.9745000122333
 30
0.0
 40
11.064875499387
 50
135.283629674734
 51
148.033731944257
  0
ARC
  8
CUIVRE
 10
166.476013541143
 20
-98.5838691263648
 30
0.0
 40
12.2514485642564
 50
148.137454802869
 51
159.64859304241
  0
ARC
  8
CUIVRE
 10
155.182187935049
 20
-94.4115921182756
 30
0.0
 40
0.2121888888416
 50
155.351011821567
 51
164.052066832674
  0
ARC
  8
CUIVRE
 10
166.129013614072
 20
-98.3227004558196
 30
0.0
 40
11.8362841907062
 50
160.405600621652
 51
162.73866279764
  0
LINE
  8
CUIVRE
 10
154.825820884145
 20
-94.8105134515035
 30
0.0
 11
152.037037620682
 21
-94.8105134515035
 31
0.0
  0
ARC
  8
CUIVRE
 10
161.935471172937
 20
-95.3032930053794
 30
0.0
 40
9.9106921290651
 50
168.338617348327
 51
177.149963387243
  0
ARC
  8
CUIVRE
 10
160.456844557168
 20
-94.9232905984577
 30
0.0
 40
8.3860968555855
 50
166.236487450189
 51
168.83934548891
  0
ARC
  8
CUIVRE
 10
160.93371798439
 20
-94.9619419455836
 30
0.0
 40
8.8587983376657
 50
164.879922704851
 51
166.727478910887
  0
LINE
  8
CUIVRE
 10
152.381599844407
 20
-92.65118810599
 30
0.0
 11
152.409692961676
 21
-92.5477754621457
 31
0.0
  0
ARC
  8
CUIVRE
 10
165.055427087968
 20
-96.0980163036828
 30
0.0
 40
13.1346412827221
 50
161.046835193581
 51
164.318119389196
  0
ARC
  8
CUIVRE
 10
163.63410292009
 20
-95.6249395245771
 30
0.0
 40
11.6367307064378
 50
156.404449861786
 51
160.976866596355
  0
ARC
  8
CUIVRE
 10
162.79245391672
 20
-95.2309158167504
 30
0.0
 40
10.7077571120079
 50
141.623259736377
 51
156.533873665473
  0
LINE
  8
CUIVRE
 10
154.398155343345
 20
-88.5832234479063
 30
0.0
 11
154.643790651443
 21
-88.2728849402256
 31
0.0
  0
ARC
  8
CUIVRE
 10
149.37444614145
 20
-88.9890628819061
 30
0.0
 40
0.1456163741277
 50
157.663134443613
 51
166.381643061341
  0
LINE
  8
CUIVRE
 10
149.239756037323
 20
-88.9337211773395
 30
0.0
 11
149.294641575243
 21
-88.7775191348752
 31
0.0
  0
LINE
  8
CUIVRE
 10
149.294641575243
 20
-88.7775191348752
 30
0.0
 11
149.353502024294
 21
-88.6226697912124
 31
0.0
  0
LINE
  8
CUIVRE
 10
149.353502024294
 20
-88.6226697912124
 30
0.0
 11
149.48323140116
 21
-88.2728849402256
 31
0.0
  0
LINE
  8
CUIVRE
 10
149.48323140116
 20
-88.2728849402256
 30
0.0
 11
153.265407947795
 21
-88.2728849402256
 31
0.0
  0
ARC
  8
CUIVRE
 10
162.986960749032
 20
-95.3896461150402
 30
0.0
 40
12.0481068424292
 50
143.793629246099
 51
161.020523478421
  0
ARC
  8
CUIVRE
 10
168.044854461314
 20
-97.1008194465594
 30
0.0
 40
17.3875734981892
 50
161.108935265829
 51
162.515464510693
  0
ARC
  8
CUIVRE
 10
162.6607142723
 20
-95.3901483482765
 30
0.0
 40
11.7382309049107
 50
162.583696030203
 51
177.169578183623
  0
LINE
  8
CUIVRE
 10
150.936803313774
 20
-94.8105134515035
 30
0.0
 11
149.004707638259
 21
-94.8105134515035
 31
0.0
  0
ARC
  8
CUIVRE
 10
158.797296612645
 20
-92.3128592426234
 30
0.0
 40
10.1060910033705
 50
177.467644655212
 51
194.308540494307
  0
ARC
  8
CUIVRE
 10
159.206098578316
 20
-92.3256134930068
 30
0.0
 40
10.5150586194798
 50
169.408229213726
 51
177.496635817101
  0
ARC
  8
CUIVRE
 10
160.403196986913
 20
-92.5370571631034
 30
0.0
 40
11.7306324166782
 50
162.219077363582
 51
169.46780689878
  0
LINE
  8
CUIVRE
 10
145.359430573469
 20
-88.3186401146391
 30
0.0
 11
145.363650815439
 21
-88.2728849402256
 31
0.0
  0
LINE
  8
CUIVRE
 10
145.363650815439
 20
-88.2728849402256
 30
0.0
 11
148.310413238747
 21
-88.2728849402256
 31
0.0
  0
ARC
  8
CUIVRE
 10
156.76870239488
 20
-91.5176942862396
 30
0.0
 40
9.0593290668092
 50
159.011948562551
 51
161.346266956784
  0
ARC
  8
CUIVRE
 10
155.892291730214
 20
-91.1625375052712
 30
0.0
 40
8.1155555276525
 50
161.742913278636
 51
164.510470934805
  0
ARC
  8
CUIVRE
 10
148.529331254943
 20
-89.1497089950883
 30
0.0
 40
0.4832079092838
 50
161.349138664145
 51
166.803838430794
  0
ARC
  8
CUIVRE
 10
159.680115192365
 20
-92.3641638956373
 30
0.0
 40
12.0874769614564
 50
164.034494419787
 51
177.863483552299
  0
ARC
  8
CUIVRE
 10
158.878016685044
 20
-92.291881070983
 30
0.0
 40
11.2833206976059
 50
178.078431614386
 51
192.898071102024
  0
LINE
  8
CUIVRE
 10
147.879388729849
 20
-94.8105134515035
 30
0.0
 11
146.807016632678
 21
-94.8105134515035
 31
0.0
  0
ARC
  8
CUIVRE
 10
148.735272330261
 20
-93.7078981368393
 30
0.0
 40
2.2212452740284
 50
207.255489584578
 51
209.761788280868
  0
ARC
  8
CUIVRE
 10
158.890155208407
 20
-88.1188517348028
 30
0.0
 40
13.8118803612947
 50
202.328123567641
 51
208.574730993698
  0
ARC
  8
CUIVRE
 10
156.293464985659
 20
-89.1928679621892
 30
0.0
 40
11.0018537083296
 50
194.447294622426
 51
202.291768470565
  0
ARC
  8
CUIVRE
 10
155.950361527281
 20
-89.3193643526731
 30
0.0
 40
10.6381045054558
 50
174.602217160577
 51
194.248578074207
  0
ARC
  8
CUIVRE
 10
155.939678228598
 20
-89.3240898506125
 30
0.0
 40
11.7265739087996
 50
174.856932257215
 51
194.250565131255
  0
ARC
  8
CUIVRE
 10
156.552810246721
 20
-89.1214969495402
 30
0.0
 40
12.3707931827062
 50
194.460969279468
 51
200.91432140463
  0
LINE
  8
CUIVRE
 10
144.997063352892
 20
-93.5375175218487
 30
0.0
 11
145.060498980394
 21
-93.6997730277611
 31
0.0
  0
LINE
  8
CUIVRE
 10
145.060498980394
 20
-93.6997730277611
 30
0.0
 11
145.17668180308
 21
-93.9814869738782
 31
0.0
  0
ARC
  8
CUIVRE
 10
155.480861870688
 20
-89.6394925649626
 30
0.0
 40
11.1816386237768
 50
202.849674358133
 51
205.191996997661
  0
ARC
  8
CUIVRE
 10
147.11221847508
 20
-93.6400308575148
 30
0.0
 40
1.9070043713755
 50
203.452255194176
 51
206.887944023242
  0
ARC
  8
CUIVRE
 10
148.478976354624
 20
-93.1200287479421
 30
0.0
 40
3.3647162058434
 50
204.259092587428
 51
207.17865714692
  0
LINE
  8
CUIVRE
 10
145.485769965816
 20
-94.6569186788949
 30
0.0
 11
145.561872996921
 21
-94.8105134515035
 31
0.0
  0
LINE
  8
CUIVRE
 10
145.561872996921
 20
-94.8105134515035
 30
0.0
 11
144.27754140002
 21
-94.8105134515035
 31
0.0
  0
LINE
  8
CUIVRE
 10
144.27754140002
 20
-94.8105134515035
 30
0.0
 11
144.165327008135
 21
-94.6512462169234
 31
0.0
  0
ARC
  8
CUIVRE
 10
156.875419458643
 20
-85.5046543545007
 30
0.0
 40
15.6590738167427
 50
213.601748779353
 51
215.740006361855
  0
ARC
  8
CUIVRE
 10
168.755217931348
 20
-77.4323537655077
 30
0.0
 40
30.0215273980903
 50
211.157471880002
 51
213.886061838675
  0
ARC
  8
CUIVRE
 10
161.900511035315
 20
-81.5900182293999
 30
0.0
 40
22.004482754141
 50
208.334055885763
 51
211.127931566919
  0
LINE
  8
CUIVRE
 10
142.532266404521
 20
-92.0335981328138
 30
0.0
 11
142.438110651293
 21
-91.8556502196163
 31
0.0
  0
ARC
  8
CUIVRE
 10
155.24859209045
 20
-85.0975781081179
 30
0.0
 40
14.4837831165477
 50
201.841728017576
 51
207.813547305932
  0
ARC
  8
CUIVRE
 10
152.177120690835
 20
-86.2779583880143
 30
0.0
 40
11.193742585765
 50
194.353676212445
 51
202.082687322368
  0
ARC
  8
CUIVRE
 10
150.943630784827
 20
-86.6270101095438
 30
0.0
 40
9.9122779879066
 50
191.861650911689
 51
194.166595406689
  0
LINE
  8
CUIVRE
 10
141.243011829124
 20
-88.6644709768443
 30
0.0
 11
141.204080711123
 21
-88.4689817176971
 31
0.0
  0
ARC
  8
CUIVRE
 10
145.438265664805
 20
-87.5922597671298
 30
0.0
 40
4.3239985662102
 50
189.056388009513
 51
191.698240549542
  0
LINE
  8
CUIVRE
 10
141.168170469808
 20
-88.2728849402256
 30
0.0
 11
144.260315922594
 21
-88.2728849402256
 31
0.0
  0
LINE
  8
CUIVRE
 10
140.051851873353
 20
-88.2728849402256
 30
0.0
 11
140.065869105608
 21
-88.356019400654
 31
0.0
  0
LINE
  8
CUIVRE
 10
140.065869105608
 20
-88.356019400654
 30
0.0
 11
140.108930135814
 21
-88.5998953612752
 31
0.0
  0
ARC
  8
CUIVRE
 10
150.195142962914
 20
-86.7846716523816
 30
0.0
 40
10.2482547932268
 50
190.202352727611
 51
194.355746863783
  0
ARC
  8
CUIVRE
 10
152.174784129333
 20
-86.2763392775155
 30
0.0
 40
12.2921184756056
 50
194.363316830413
 51
201.470595870487
  0
ARC
  8
CUIVRE
 10
141.415743376987
 20
-90.5470556216463
 30
0.0
 40
0.7174306090252
 50
198.571271644521
 51
204.2830795533
  0
ARC
  8
CUIVRE
 10
154.144245801039
 20
-85.5705244743494
 30
0.0
 40
14.3833114539071
 50
201.500298586375
 51
205.980891629772
  0
ARC
  8
CUIVRE
 10
169.755303096599
 20
-77.8883925812314
 30
0.0
 40
31.7821110550144
 50
206.101713007007
 51
206.861897134977
  0
LINE
  8
CUIVRE
 10
141.402538691615
 20
-92.2488707664701
 30
0.0
 11
141.574179696646
 21
-92.575368853487
 31
0.0
  0
LINE
  8
CUIVRE
 10
141.574179696646
 20
-92.575368853487
 30
0.0
 11
141.729428842975
 21
-92.8583991688641
 31
0.0
  0
ARC
  8
CUIVRE
 10
159.957857344388
 20
-82.6883711117204
 30
0.0
 40
20.8735496816953
 50
209.15807743885
 51
210.70864733426
  0
ARC
  8
CUIVRE
 10
149.060586871643
 20
-89.2553354138338
 30
0.0
 40
8.1511816039536
 50
210.138049519645
 51
211.627287329128
  0
LINE
  8
CUIVRE
 10
142.120040871112
 20
-93.529745636911
 30
0.0
 11
142.313858408573
 21
-93.8457511809733
 31
0.0
  0
LINE
  8
CUIVRE
 10
142.313858408573
 20
-93.8457511809733
 30
0.0
 11
142.38763254031
 21
-93.9636279846177
 31
0.0
  0
LINE
  8
CUIVRE
 10
142.38763254031
 20
-93.9636279846177
 30
0.0
 11
142.517981075814
 21
-94.1690548680328
 31
0.0
  0
ARC
  8
CUIVRE
 10
169.05636749807
 20
-77.2610996860355
 30
0.0
 40
31.4668858060888
 50
212.501748242018
 51
213.830520553649
  0
LINE
  8
CUIVRE
 10
142.917202383976
 20
-94.7799166972252
 30
0.0
 11
142.93845431675
 21
-94.8105134515035
 31
0.0
  0
LINE
  8
CUIVRE
 10
142.93845431675
 20
-94.8105134515035
 30
0.0
 11
141.998653800221
 21
-94.8105134515035
 31
0.0
  0
ARC
  8
CUIVRE
 10
172.060076303001
 20
-70.3115577632459
 30
0.0
 40
38.7799942329272
 50
217.580144582313
 51
219.17877010471
  0
ARC
  8
CUIVRE
 10
169.948219833363
 20
-71.8563460301765
 30
0.0
 40
36.1642810205908
 50
212.53828684774
 51
217.681086065792
  0
LINE
  8
CUIVRE
 10
139.46056582885
 20
-91.3077772124161
 30
0.0
 11
139.229903142723
 21
-90.9404439609304
 31
0.0
  0
ARC
  8
CUIVRE
 10
161.787268094518
 20
-76.8525108411071
 30
0.0
 40
26.5951983101665
 50
208.716081217997
 51
211.986346972532
  0
ARC
  8
CUIVRE
 10
154.90120617671
 20
-80.5719482051744
 30
0.0
 40
18.7690247930725
 50
204.223701347933
 51
208.858199113715
  0
LINE
  8
CUIVRE
 10
137.784785257438
 20
-88.2728849402256
 30
0.0
 11
140.051851873353
 21
-88.2728849402256
 31
0.0
  0
LINE
  8
CUIVRE
 10
136.583049824795
 20
-88.2728849402256
 30
0.0
 11
136.667799173732
 21
-88.4702243159901
 31
0.0
  0
ARC
  8
CUIVRE
 10
155.852820759728
 20
-80.1320672931578
 30
0.0
 40
20.9186499514792
 50
203.4906365337
 51
206.165346437457
  0
ARC
  8
CUIVRE
 10
157.495776547044
 20
-79.2248519960686
 30
0.0
 40
22.7934694563825
 50
206.390990557876
 51
210.072394955168
  0
ARC
  8
CUIVRE
 10
166.945122735515
 20
-73.758022910352
 30
0.0
 40
33.7102616834898
 50
210.06550468517
 51
212.554517755058
  0
LINE
  8
CUIVRE
 10
138.531423576478
 20
-91.8975775594909
 30
0.0
 11
138.773152474475
 21
-92.2726590678421
 31
0.0
  0
ARC
  8
CUIVRE
 10
168.866464667785
 20
-72.562651143691
 30
0.0
 40
35.9734881702356
 50
213.223317804679
 51
215.710729911419
  0
LINE
  8
CUIVRE
 10
139.656919254315
 20
-93.5601345136699
 30
0.0
 11
139.886331644284
 21
-93.8761441343878
 31
0.0
  0
LINE
  8
CUIVRE
 10
139.886331644284
 20
-93.8761441343878
 30
0.0
 11
139.973160348324
 21
-93.9940474780988
 31
0.0
  0
LINE
  8
CUIVRE
 10
139.973160348324
 20
-93.9940474780988
 30
0.0
 11
140.280356525146
 21
-94.4041627978328
 31
0.0
  0
ARC
  8
CUIVRE
 10
158.060445341569
 20
-81.0666605337063
 30
0.0
 40
22.2265724970244
 50
216.874920555039
 51
218.195912550603
  0
LINE
  8
CUIVRE
 10
140.592559609763
 20
-94.8105134515035
 30
0.0
 11
139.837696125251
 21
-94.8105134515035
 31
0.0
  0
ARC
  8
CUIVRE
 10
171.290065825848
 20
-66.2227011326299
 30
0.0
 40
42.5031125091113
 50
216.915656197381
 51
222.268451262769
  0
ARC
  8
CUIVRE
 10
169.517926648759
 20
-67.6149053811396
 30
0.0
 40
40.2500684601087
 50
211.193769215211
 51
216.846359694257
  0
LINE
  8
CUIVRE
 10
135.0871893651
 20
-88.4617838320512
 30
0.0
 11
134.975675930611
 21
-88.2728849402256
 31
0.0
  0
LINE
  8
CUIVRE
 10
134.975675930611
 20
-88.2728849402256
 30
0.0
 11
136.583049824795
 21
-88.2728849402256
 31
0.0
  0
LINE
  8
CUIVRE
 10
133.699784817649
 20
-88.2728849402256
 30
0.0
 11
133.941867371028
 21
-88.6851982742697
 31
0.0
  0
ARC
  8
CUIVRE
 10
134.607583127667
 20
-88.32612743817
 30
0.0
 40
0.7563790940889
 50
208.341340512553
 51
212.147321465242
  0
ARC
  8
CUIVRE
 10
143.237449650561
 20
-83.4493310038239
 30
0.0
 40
10.6681167993011
 50
209.660766198887
 51
211.547297571904
  0
ARC
  8
CUIVRE
 10
139.156685200104
 20
-86.1134665402425
 30
0.0
 40
5.7981523782352
 50
210.209842105875
 51
212.424144527794
  0
ARC
  8
CUIVRE
 10
140.691759842956
 20
-85.3895120473262
 30
0.0
 40
7.4850863201835
 50
210.801225952842
 51
212.462625341376
  0
ARC
  8
CUIVRE
 10
169.841814792257
 20
-67.3609887379713
 30
0.0
 40
41.7592669897783
 50
211.86597210315
 51
221.096388302149
  0
LINE
  8
CUIVRE
 10
138.371829528124
 20
-94.8105134515035
 30
0.0
 11
137.768873222665
 21
-94.8105134515035
 31
0.0
  0
LINE
  8
CUIVRE
 10
137.768873222665
 20
-94.8105134515035
 30
0.0
 11
137.419711444092
 21
-94.4355253447702
 31
0.0
  0
LINE
  8
CUIVRE
 10
137.419711444092
 20
-94.4355253447702
 30
0.0
 11
137.067602504796
 21
-94.0633368362932
 31
0.0
  0
ARC
  8
CUIVRE
 10
168.659640927875
 20
-63.7936854696437
 30
0.0
 40
43.7528134590657
 50
214.020437013813
 51
223.775402678159
  0
LINE
  8
CUIVRE
 10
132.395643921708
 20
-88.2728849402256
 30
0.0
 11
133.699784817649
 21
-88.2728849402256
 31
0.0
  0
LINE
  8
CUIVRE
 10
131.071715258573
 20
-88.2728849402256
 30
0.0
 11
131.254520637759
 21
-88.548944747828
 31
0.0
  0
ARC
  8
CUIVRE
 10
168.540554250198
 20
-63.8723637251313
 30
0.0
 40
44.7122125768526
 50
213.497321885626
 51
223.783840451626
  0
LINE
  8
CUIVRE
 10
136.260330505214
 20
-94.8105134515035
 30
0.0
 11
135.281169772766
 21
-94.8105134515035
 31
0.0
  0
ARC
  8
CUIVRE
 10
89.1347466719782
 20
-130.233338360403
 30
0.0
 40
58.174469396149
 50
37.5104930715336
 51
41.9396699968612
  0
LINE
  8
CUIVRE
 10
132.407766351447
 20
-91.3525634537244
 30
0.0
 11
132.242550433417
 21
-91.1668750524164
 31
0.0
  0
ARC
  8
CUIVRE
 10
165.414794021722
 20
-61.8550683243866
 30
0.0
 40
44.2671408422005
 50
216.639745183312
 51
221.464602573689
  0
LINE
  8
CUIVRE
 10
129.894676854191
 20
-88.2728849402256
 30
0.0
 11
131.071715258573
 21
-88.2728849402256
 31
0.0
  0
LINE
  8
CUIVRE
 10
128.525100675877
 20
-88.2728849402256
 30
0.0
 11
128.740806716947
 21
-88.5678927729969
 31
0.0
  0
ARC
  8
CUIVRE
 10
165.136325536287
 20
-62.025218477131
 30
0.0
 40
45.0460580839811
 50
216.102677696373
 51
221.863172323621
  0
ARC
  8
CUIVRE
 10
90.8133238793268
 20
-128.737115675304
 30
0.0
 40
54.8258173639733
 50
40.088070439198
 51
41.9502347972445
  0
LINE
  8
CUIVRE
 10
132.758116852635
 20
-93.4312437549824
 30
0.0
 11
133.044022661956
 21
-93.7729015161607
 31
0.0
  0
ARC
  8
CUIVRE
 10
132.118923072359
 20
-94.59429713442
 30
0.0
 40
1.2371337891957
 50
37.7310925559406
 51
41.6018621675841
  0
ARC
  8
CUIVRE
 10
132.195719723645
 20
-94.6336405405841
 30
0.0
 40
1.2030110491772
 50
37.7224802348798
 51
41.4539769371295
  0
LINE
  8
CUIVRE
 10
133.147281658279
 20
-93.8975933484843
 30
0.0
 11
133.519001531567
 21
-94.3522600649768
 31
0.0
  0
LINE
  8
CUIVRE
 10
133.519001531567
 20
-94.3522600649768
 30
0.0
 11
133.886250610788
 21
-94.8105134515035
 31
0.0
  0
LINE
  8
CUIVRE
 10
133.886250610788
 20
-94.8105134515035
 30
0.0
 11
132.248021580165
 21
-94.8105134515035
 31
0.0
  0
ARC
  8
CUIVRE
 10
85.4468337260794
 20
-124.274473037612
 30
0.0
 40
55.3034908395956
 50
32.1927048836695
 51
36.1510878831031
  0
LINE
  8
CUIVRE
 10
130.102422979572
 20
-91.6500274872486
 30
0.0
 11
129.819001650089
 21
-91.2656061311153
 31
0.0
  0
ARC
  8
CUIVRE
 10
84.3400652352648
 20
-125.07114583129
 30
0.0
 40
56.6669936721873
 50
36.6242712143949
 51
40.0043670904822
  0
LINE
  8
CUIVRE
 10
127.746724414678
 20
-88.6429958545754
 30
0.0
 11
127.67090358792
 21
-88.5511224300738
 31
0.0
  0
LINE
  8
CUIVRE
 10
127.67090358792
 20
-88.5511224300738
 30
0.0
 11
127.446828852687
 21
-88.2728849402256
 31
0.0
  0
LINE
  8
CUIVRE
 10
127.446828852687
 20
-88.2728849402256
 30
0.0
 11
128.525100675877
 21
-88.2728849402256
 31
0.0
  0
LINE
  8
CUIVRE
 10
126.032272646443
 20
-88.2728849402256
 30
0.0
 11
126.281180795253
 21
-88.5847737408746
 31
0.0
  0
ARC
  8
CUIVRE
 10
155.286843623585
 20
-65.5443916274509
 30
0.0
 40
37.0430517647169
 50
218.461550214727
 51
219.223275490036
  0
LINE
  8
CUIVRE
 10
126.590048050533
 20
-88.9683453475634
 30
0.0
 11
126.903192785114
 21
-89.3485514099545
 31
0.0
  0
ARC
  8
CUIVRE
 10
84.6135432280372
 20
-124.827158506457
 30
0.0
 40
55.2009603283169
 50
32.9406730747937
 51
39.9947345498828
  0
LINE
  8
CUIVRE
 10
130.940069547343
 20
-94.8105134515035
 30
0.0
 11
128.723150602585
 21
-94.8105134515035
 31
0.0
  0
ARC
  8
CUIVRE
 10
80.3504827156787
 20
-119.385764463439
 30
0.0
 40
54.2573309405884
 50
26.9323919866932
 51
30.9606809630328
  0
ARC
  8
CUIVRE
 10
81.7844011042341
 20
-118.43323765497
 30
0.0
 40
52.537748906371
 50
30.8743819986256
 51
35.0345393011033
  0
LINE
  8
CUIVRE
 10
124.802631940371
 20
-88.2728849402256
 30
0.0
 11
126.032272646443
 21
-88.2728849402256
 31
0.0
  0
LINE
  8
CUIVRE
 10
123.457365217074
 20
-88.2728849402256
 30
0.0
 11
123.66359724556
 21
-88.562725129769
 31
0.0
  0
ARC
  8
CUIVRE
 10
80.0795748040205
 20
-119.599850884887
 30
0.0
 40
53.5057958292706
 50
27.6003798654597
 51
35.4554908896578
  0
LINE
  8
CUIVRE
 10
127.496438227675
 20
-94.8105134515035
 30
0.0
 11
124.84205675183
 21
-94.8105134515035
 31
0.0
  0
ARC
  8
CUIVRE
 10
73.478241704737
 20
-115.638003898058
 30
0.0
 40
55.42585907763
 50
22.0720402364021
 51
25.8281262717493
  0
ARC
  8
CUIVRE
 10
120.880599050119
 20
-92.6320400467708
 30
0.0
 40
2.7362523986763
 50
24.6584558705156
 51
27.0373518693987
  0
ARC
  8
CUIVRE
 10
71.8290108047245
 20
-116.461767609328
 30
0.0
 40
57.269355262961
 50
25.9647377081638
 51
29.486325337681
  0
LINE
  8
CUIVRE
 10
121.680449561323
 20
-88.2728849402256
 30
0.0
 11
123.457365217074
 21
-88.2728849402256
 31
0.0
  0
LINE
  8
CUIVRE
 10
120.417628279357
 20
-88.2728849402256
 30
0.0
 11
120.560944251544
 21
-88.5220730030431
 31
0.0
  0
ARC
  8
CUIVRE
 10
117.834664937068
 20
-90.1493617588841
 30
0.0
 40
3.1750067079343
 50
28.8542364597665
 51
30.8325531639116
  0
ARC
  8
CUIVRE
 10
73.3598436188891
 20
-115.667233801931
 30
0.0
 40
54.450006858923
 50
22.5223309691304
 51
29.7876813790403
  0
LINE
  8
CUIVRE
 10
123.656965436751
 20
-94.8105134515035
 30
0.0
 11
122.32089281203
 21
-94.8105134515035
 31
0.0
  0
ARC
  8
CUIVRE
 10
122.320933277549
 20
-95.8105574771557
 30
0.0
 40
1.0000440264709
 50
90.0023184013275
 51
179.997681598668
  0
LINE
  8
CUIVRE
 10
121.320889251896
 20
-95.8105170116377
 30
0.0
 11
121.320889251896
 21
-97.2342242527639
 31
0.0
  0
LINE
  8
CUIVRE
 10
121.320889251896
 20
-97.2342242527639
 30
0.0
 11
121.158518880441
 21
-96.660755940623
 31
0.0
  0
LINE
  8
CUIVRE
 10
121.158518880441
 20
-96.660755940623
 30
0.0
 11
121.00187080825
 21
-96.1244019858488
 31
0.0
  0
ARC
  8
CUIVRE
 10
60.7811693952921
 20
-113.899275912953
 30
0.0
 40
62.7891632512572
 50
16.4446075258561
 51
20.2684671562258
  0
ARC
  8
CUIVRE
 10
112.541636160494
 20
-94.665298163197
 30
0.0
 40
7.5715259681015
 50
19.4195909031112
 51
21.4019777830667
  0
LINE
  8
CUIVRE
 10
119.591054079584
 20
-91.9023807761479
 30
0.0
 11
119.416876894852
 21
-91.4432375492206
 31
0.0
  0
LINE
  8
CUIVRE
 10
119.416876894852
 20
-91.4432375492206
 30
0.0
 11
119.261324137523
 21
-91.042675443182
 31
0.0
  0
ARC
  8
CUIVRE
 10
67.4858146977878
 20
-111.322643202585
 30
0.0
 40
55.6055794868331
 50
21.3897996296402
 51
24.4892433395575
  0
LINE
  8
CUIVRE
 10
118.08906670903
 20
-88.2728849402256
 30
0.0
 11
120.417628279357
 21
-88.2728849402256
 31
0.0
  0
LINE
  8
CUIVRE
 10
100.380694554983
 20
-88.2728849402256
 30
0.0
 11
104.064685880288
 21
-88.2728849402256
 31
0.0
  0
LINE
  8
CUIVRE
 10
104.064685880288
 20
-88.2728849402256
 30
0.0
 11
104.087014405402
 21
-88.3773789926626
 31
0.0
  0
ARC
  8
CUIVRE
 10
11.4976839535705
 20
-108.087823541079
 30
0.0
 40
94.6640678283721
 50
10.8819074545538
 51
12.0177459174949
  0
LINE
  8
CUIVRE
 10
104.459538037406
 20
-90.2166337902469
 30
0.0
 11
104.546529319415
 21
-90.6777309431293
 31
0.0
  0
ARC
  8
CUIVRE
 10
99.0965023448716
 20
-91.7748439407345
 30
0.0
 40
5.5593570628951
 50
9.5682616510398
 51
11.3817622730682
  0
LINE
  8
CUIVRE
 10
104.578519108045
 20
-90.8507534900513
 30
0.0
 11
104.687760853634
 21
-91.4567784556538
 31
0.0
  0
LINE
  8
CUIVRE
 10
104.687760853634
 20
-91.4567784556538
 30
0.0
 11
104.792742215555
 21
-92.0634589071057
 31
0.0
  0
LINE
  8
CUIVRE
 10
104.792742215555
 20
-92.0634589071057
 30
0.0
 11
104.923093477158
 21
-92.8389034413277
 31
0.0
  0
LINE
  8
CUIVRE
 10
104.923093477158
 20
-92.8389034413277
 30
0.0
 11
105.034830628565
 21
-93.517854412464
 31
0.0
  0
LINE
  8
CUIVRE
 10
105.034830628565
 20
-93.517854412464
 30
0.0
 11
105.130249684095
 21
-94.1123129049489
 31
0.0
  0
LINE
  8
CUIVRE
 10
105.130249684095
 20
-94.1123129049489
 30
0.0
 11
105.211568311068
 21
-94.6327644598281
 31
0.0
  0
LINE
  8
CUIVRE
 10
105.211568311068
 20
-94.6327644598281
 30
0.0
 11
105.22906367466
 21
-94.746707284064
 31
0.0
  0
ARC
  8
CUIVRE
 10
24.5735916856653
 20
-107.260808854855
 30
0.0
 40
81.6205115145183
 50
7.5655714869702
 51
8.8194065302916
  0
LINE
  8
CUIVRE
 10
105.483583013582
 20
-96.5145907662424
 30
0.0
 11
105.512886604634
 21
-96.7359351221752
 31
0.0
  0
LINE
  8
CUIVRE
 10
105.512886604634
 20
-96.7359351221752
 30
0.0
 11
105.562628913864
 21
-97.1235430667471
 31
0.0
  0
LINE
  8
CUIVRE
 10
105.562628913864
 20
-97.1235430667471
 30
0.0
 11
105.633288254468
 21
-97.7053507121786
 31
0.0
  0
ARC
  8
CUIVRE
 10
98.864353853942
 20
-98.5641625262629
 30
0.0
 40
6.8231979782676
 50
6.0002402716587
 51
7.2307958221084
  0
ARC
  8
CUIVRE
 10
101.613999934476
 20
-98.3662662631924
 30
0.0
 40
4.0689384694975
 50
5.7287918157783
 51
7.276328512206
  0
ARC
  8
CUIVRE
 10
101.713520726076
 20
-98.4845209478098
 30
0.0
 40
3.983762867946
 50
5.1935822882363
 51
7.5642648644048
  0
ARC
  8
CUIVRE
 10
102.379391373384
 20
-98.5670356452657
 30
0.0
 40
3.3311424874168
 50
4.810009580037
 51
7.6444964114398
  0
LINE
  8
CUIVRE
 10
105.698802328176
 20
-98.2877129203065
 30
0.0
 11
105.744105333807
 21
-98.3368055309714
 31
0.0
  0
LINE
  8
CUIVRE
 10
105.744105333807
 20
-98.3368055309714
 30
0.0
 11
105.975831068884
 21
-98.3554090465917
 31
0.0
  0
LINE
  8
CUIVRE
 10
105.975831068884
 20
-98.3554090465917
 30
0.0
 11
102.941175647008
 21
-98.3554090465917
 31
0.0
  0
ARC
  8
CUIVRE
 10
102.9431722217
 20
-96.232145818273
 30
0.0
 40
2.1232641670411
 50
226.880244597461
 51
269.946122897952
  0
LINE
  8
CUIVRE
 10
101.491867040057
 20
-97.7819729030719
 30
0.0
 11
101.401217965101
 21
-96.8250976320437
 31
0.0
  0
ARC
  8
CUIVRE
 10
26.7031569517523
 20
-102.105109452551
 30
0.0
 40
74.8844365938523
 50
4.0432115653
 51
6.8826878081181
  0
LINE
  8
CUIVRE
 10
101.047946081673
 20
-93.1311931833673
 30
0.0
 11
100.934680018706
 21
-92.210395032171
 31
0.0
  0
LINE
  8
CUIVRE
 10
100.934680018706
 20
-92.210395032171
 30
0.0
 11
100.890306662565
 21
-91.8653615784815
 31
0.0
  0
LINE
  8
CUIVRE
 10
100.890306662565
 20
-91.8653615784815
 30
0.0
 11
100.810474963061
 21
-91.2617750623385
 31
0.0
  0
LINE
  8
CUIVRE
 10
100.810474963061
 20
-91.2617750623385
 30
0.0
 11
100.686344402698
 21
-90.3570788494928
 31
0.0
  0
LINE
  8
CUIVRE
 10
100.686344402698
 20
-90.3570788494928
 30
0.0
 11
100.654626407581
 21
-90.1309866920322
 31
0.0
  0
LINE
  8
CUIVRE
 10
100.654626407581
 20
-90.1309866920322
 30
0.0
 11
100.630685897549
 21
-89.9614320729515
 31
0.0
  0
ARC
  8
CUIVRE
 10
58.3094332177413
 20
-95.7346587957041
 30
0.0
 40
42.7132131217081
 50
7.7680193589133
 51
8.457015851859
  0
LINE
  8
CUIVRE
 10
100.55820309986
 20
-89.4529378031576
 30
0.0
 11
100.515294322977
 21
-89.157666568766
 31
0.0
  0
LINE
  8
CUIVRE
 10
100.515294322977
 20
-89.157666568766
 30
0.0
 11
100.482360414599
 21
-88.9363020259419
 31
0.0
  0
LINE
  8
CUIVRE
 10
100.482360414599
 20
-88.9363020259419
 30
0.0
 11
100.380694554983
 21
-88.2728849402256
 31
0.0
  0
ARC
  8
CUIVRE
 10
107.219762470545
 20
-105.78815304165
 30
0.0
 40
0.5014853185578
 50
270.16802132069
 51
359.831978679321
  0
LINE
  8
CUIVRE
 10
107.221233086802
 20
-106.289636203896
 30
0.0
 11
101.079123069077
 21
-106.289636203896
 31
0.0
  0
ARC
  8
CUIVRE
 10
101.080662875177
 20
-105.788105449497
 30
0.0
 40
0.5015331181599
 50
180.173442319066
 51
269.824090321814
  0
LINE
  8
CUIVRE
 10
100.579132054933
 20
-105.789623657906
 30
0.0
 11
100.579132054933
 21
-99.789623828948
 31
0.0
  0
ARC
  8
CUIVRE
 10
101.080558584559
 20
-99.7910593444303
 30
0.0
 40
0.5014285844638
 50
90.1640295217777
 51
179.835970478229
  0
LINE
  8
CUIVRE
 10
101.079123069077
 20
-99.2896328148043
 30
0.0
 11
105.830792548955
 21
-99.2896328148043
 31
0.0
  0
ARC
  8
CUIVRE
 10
105.829268757342
 20
-101.175960270384
 30
0.0
 40
1.8863280710455
 50
44.8786626279538
 51
89.9537159844587
  0
ARC
  8
CUIVRE
 10
105.838622456551
 20
-101.180068975471
 30
0.0
 40
1.8826231763165
 50
-0.0005150400036
 51
45.1681364275925
  0
LINE
  8
CUIVRE
 10
107.721245632792
 20
-101.180085898642
 30
0.0
 11
107.721245632792
 21
-105.789623657906
 31
0.0
  0
LINE
  8
CUIVRE
 10
116.419939478274
 20
-117.186989988064
 30
0.0
 11
116.405168631381
 21
-117.273009715962
 31
0.0
  0
LINE
  8
CUIVRE
 10
116.405168631381
 20
-117.273009715962
 30
0.0
 11
111.429740199736
 21
-117.273009715962
 31
0.0
  0
ARC
  8
CUIVRE
 10
106.285601664021
 20
-116.057658898846
 30
0.0
 40
5.2857581181219
 50
346.707088915442
 51
348.672481898685
  0
ARC
  8
CUIVRE
 10
61.0679030679347
 20
-106.156593825615
 30
0.0
 40
51.5739997422078
 50
347.75406173225
 51
354.098727775879
  0
ARC
  8
CUIVRE
 10
107.794695393977
 20
-110.902928152214
 30
0.0
 40
4.6075897913385
 50
353.066357311578
 51
355.285900793835
  0
ARC
  8
CUIVRE
 10
61.3650533167348
 20
-106.172782999363
 30
0.0
 40
51.2767810012839
 50
354.282013522356
 51
360.463988998617
  0
ARC
  8
CUIVRE
 10
76.9416786253329
 20
-105.96709810452
 30
0.0
 40
35.6990894056136
 50
0.3363333630404
 51
2.6563662205776
  0
ARC
  8
CUIVRE
 10
70.341152778088
 20
-106.299033770437
 30
0.0
 40
42.307914309409
 50
2.6911337894734
 51
6.1162806130118
  0
LINE
  8
CUIVRE
 10
112.408238128644
 20
-101.791268989376
 30
0.0
 11
112.35604800486
 21
-101.320067050396
 31
0.0
  0
ARC
  8
CUIVRE
 10
47.2359021103896
 20
-109.020167585982
 30
0.0
 40
65.573812986399
 50
6.7435992590172
 51
9.850605621421
  0
LINE
  8
CUIVRE
 10
111.842972123064
 20
-97.801814143848
 30
0.0
 11
111.805212568167
 21
-97.5827509143966
 31
0.0
  0
LINE
  8
CUIVRE
 10
111.805212568167
 20
-97.5827509143966
 30
0.0
 11
111.659339514712
 21
-96.7623170409348
 31
0.0
  0
ARC
  8
CUIVRE
 10
20.0091892976089
 20
-113.33651724011
 30
0.0
 40
93.1367497127738
 50
10.2506981384858
 51
10.635172534707
  0
LINE
  8
CUIVRE
 10
111.546058326161
 20
-96.147690767381
 30
0.0
 11
111.371283031753
 21
-95.2266838856333
 31
0.0
  0
LINE
  8
CUIVRE
 10
111.371283031753
 20
-95.2266838856333
 30
0.0
 11
111.326861080903
 21
-94.9965298756443
 31
0.0
  0
LINE
  8
CUIVRE
 10
111.326861080903
 20
-94.9965298756443
 30
0.0
 11
111.293387332335
 21
-94.8239167957492
 31
0.0
  0
ARC
  8
CUIVRE
 10
76.1845296946839
 20
-101.409501430681
 30
0.0
 40
35.7211675285776
 50
10.6238705663618
 51
11.4696510290065
  0
LINE
  8
CUIVRE
 10
111.192351588955
 20
-94.3063883227776
 30
0.0
 11
111.192351588955
 21
-94.3062160680033
 31
0.0
  0
LINE
  8
CUIVRE
 10
111.192351588955
 20
-94.3062160680033
 30
0.0
 11
111.039600777753
 21
-93.5462907940913
 31
0.0
  0
LINE
  8
CUIVRE
 10
111.039600777753
 20
-93.5462907940913
 30
0.0
 11
110.90004205592
 21
-92.8825530697732
 31
0.0
  0
LINE
  8
CUIVRE
 10
110.90004205592
 20
-92.8825530697732
 30
0.0
 11
110.773372460113
 21
-92.302668540017
 31
0.0
  0
ARC
  8
CUIVRE
 10
22.1258518462665
 20
-112.154717314613
 30
0.0
 40
90.8431987081658
 50
12.6227621421213
 51
13.9328730035395
  0
LINE
  8
CUIVRE
 10
110.296306735265
 20
-90.2810428130929
 30
0.0
 11
110.16868942122
 21
-89.7776643428284
 31
0.0
  0
ARC
  8
CUIVRE
 10
109.415492216089
 20
-89.9464259073604
 30
0.0
 40
0.7718720719659
 50
12.6291247290756
 51
16.2462836383671
  0
ARC
  8
CUIVRE
 10
94.6754614375831
 20
-93.5674222020651
 30
0.0
 40
15.9494816209934
 50
13.9200870811226
 51
15.2756861102923
  0
ARC
  8
CUIVRE
 10
29.6587400076624
 20
-110.585182334171
 30
0.0
 40
83.1557365931991
 50
14.7843858342189
 51
15.5642858365812
  0
LINE
  8
CUIVRE
 10
109.76515618865
 20
-88.2728849402256
 30
0.0
 11
112.904520981431
 21
-88.2728849402256
 31
0.0
  0
LINE
  8
CUIVRE
 10
112.904520981431
 20
-88.2728849402256
 30
0.0
 11
112.966748018633
 21
-88.4438693355279
 31
0.0
  0
ARC
  8
CUIVRE
 10
67.5540049889214
 20
-105.108339964349
 30
0.0
 40
48.3737719308871
 50
18.8357263957218
 51
20.1509062236024
  0
LINE
  8
CUIVRE
 10
113.337270949914
 20
-89.4905818420531
 30
0.0
 11
113.415829456956
 21
-89.7204568819291
 31
0.0
  0
LINE
  8
CUIVRE
 10
113.415829456956
 20
-89.7204568819291
 30
0.0
 11
113.49108267781
 21
-89.9434493365373
 31
0.0
  0
ARC
  8
CUIVRE
 10
43.4147245515694
 20
-113.286862450097
 30
0.0
 40
73.8621073624864
 50
17.0090042115244
 51
18.4236357964476
  0
ARC
  8
CUIVRE
 10
46.2513898618984
 20
-112.208518222571
 30
0.0
 40
70.83436809408
 50
14.6334770763496
 51
16.8461063712967
  0
LINE
  8
CUIVRE
 10
114.788013237963
 20
-94.3132965280764
 30
0.0
 11
114.873503485096
 21
-94.6443644732299
 31
0.0
  0
LINE
  8
CUIVRE
 10
114.873503485096
 20
-94.6443644732299
 30
0.0
 11
114.94704204218
 21
-94.9343820287355
 31
0.0
  0
ARC
  8
CUIVRE
 10
105.802086998652
 20
-97.3514403375753
 30
0.0
 40
9.4589837517819
 50
13.2192557520904
 51
14.8050186574956
  0
ARC
  8
CUIVRE
 10
40.2816404963625
 20
-113.706182187949
 30
0.0
 40
76.9889646608584
 50
12.5537592093663
 51
13.9175537442411
  0
LINE
  8
CUIVRE
 10
115.429991290587
 20
-96.9722032092639
 30
0.0
 11
115.583860724651
 21
-97.6658266225722
 31
0.0
  0
LINE
  8
CUIVRE
 10
115.583860724651
 20
-97.6658266225722
 30
0.0
 11
115.726091392401
 21
-98.3165918412124
 31
0.0
  0
ARC
  8
CUIVRE
 10
114.186188332059
 20
-98.6896516842043
 30
0.0
 40
1.5844478791375
 50
10.7932146419965
 51
13.6182093639266
  0
ARC
  8
CUIVRE
 10
114.207034616026
 20
-98.7639362519634
 30
0.0
 40
1.5797528179442
 50
10.7713227576455
 51
13.5824535527577
  0
ARC
  8
CUIVRE
 10
114.22759597076
 20
-98.8376458794981
 30
0.0
 40
1.5751760879527
 50
10.7487471506704
 51
13.5460726925141
  0
ARC
  8
CUIVRE
 10
114.247967582194
 20
-98.9107655788992
 30
0.0
 40
1.5706211729878
 50
10.7255915344561
 51
13.5089977193153
  0
ARC
  8
CUIVRE
 10
114.268055705001
 20
-98.9833209284554
 30
0.0
 40
1.5661849996873
 50
10.7017874674658
 51
13.4713311356017
  0
ARC
  8
CUIVRE
 10
24.1498626022418
 20
-118.445271094432
 30
0.0
 40
93.761417535968
 50
10.6936577570521
 51
12.161661726611
  0
LINE
  8
CUIVRE
 10
116.282957715235
 20
-101.047104430834
 30
0.0
 11
116.364733046155
 21
-101.49014578948
 31
0.0
  0
LINE
  8
CUIVRE
 10
116.364733046155
 20
-101.49014578948
 30
0.0
 11
116.438709085645
 21
-101.905961015589
 31
0.0
  0
LINE
  8
CUIVRE
 10
116.438709085645
 20
-101.905961015589
 30
0.0
 11
116.505524971717
 21
-102.296283916956
 31
0.0
  0
ARC
  8
CUIVRE
 10
77.2031901758233
 20
-109.000775382162
 30
0.0
 40
39.870085605822
 50
8.61370950569
 51
9.6807641944358
  0
ARC
  8
CUIVRE
 10
73.4790747939937
 20
-109.757380188741
 30
0.0
 40
43.6659279428874
 50
5.4533492316272
 51
8.8634140873557
  0
ARC
  8
CUIVRE
 10
82.560414930063
 20
-108.877334397605
 30
0.0
 40
34.5420578689842
 50
1.1205368464879
 51
5.4317607528459
  0
ARC
  8
CUIVRE
 10
69.6715092409465
 20
-109.152236722963
 30
0.0
 40
47.4338801879551
 50
-9.7522663948509
 51
1.1480732383301
  0
LINE
  8
CUIVRE
 10
122.364623992846
 20
-117.213172713752
 30
0.0
 11
122.357583078948
 21
-117.273009715962
 31
0.0
  0
LINE
  8
CUIVRE
 10
122.357583078948
 20
-117.273009715962
 30
0.0
 11
117.520281444416
 21
-117.273009715962
 31
0.0
  0
ARC
  8
CUIVRE
 10
69.9663756060079
 20
-109.170135986652
 30
0.0
 40
48.2393047541242
 50
350.330046685676
 51
361.17472222197
  0
ARC
  8
CUIVRE
 10
83.0677553234244
 20
-108.839635136468
 30
0.0
 40
35.1339573187214
 50
1.0738818280977
 51
5.8027041191937
  0
ARC
  8
CUIVRE
 10
113.405250285394
 20
-105.687394804571
 30
0.0
 40
4.6337236152202
 50
4.9511146702032
 51
6.6314667329513
  0
ARC
  8
CUIVRE
 10
110.439472467383
 20
-105.823144653294
 30
0.0
 40
7.5981737092946
 50
5.0654059577185
 51
7.0826950777627
  0
ARC
  8
CUIVRE
 10
73.8686724727808
 20
-109.707818665869
 30
0.0
 40
44.3737201269769
 50
6.2379382242039
 51
8.9144695608886
  0
LINE
  8
CUIVRE
 10
117.706391938868
 20
-102.831672221825
 30
0.0
 11
117.6456499463
 21
-102.447846757519
 31
0.0
  0
LINE
  8
CUIVRE
 10
117.6456499463
 20
-102.447846757519
 30
0.0
 11
117.586316766534
 21
-102.088414393429
 31
0.0
  0
LINE
  8
CUIVRE
 10
117.586316766534
 20
-102.088414393429
 30
0.0
 11
117.528694986398
 21
-101.751716802065
 31
0.0
  0
LINE
  8
CUIVRE
 10
117.528694986398
 20
-101.751716802065
 30
0.0
 11
117.473026630965
 21
-101.43636913199
 31
0.0
  0
LINE
  8
CUIVRE
 10
117.473026630965
 20
-101.43636913199
 30
0.0
 11
117.419460918638
 21
-101.140958949807
 31
0.0
  0
LINE
  8
CUIVRE
 10
117.419460918638
 20
-101.140958949807
 30
0.0
 11
117.36809921182
 21
-100.864218721144
 31
0.0
  0
ARC
  8
CUIVRE
 10
-30.5455268298548
 20
-129.08823606156
 30
0.0
 40
150.582322746159
 50
10.8029841078872
 51
11.2045487718503
  0
LINE
  8
CUIVRE
 10
117.166656457003
 20
-99.8282491808684
 30
0.0
 11
117.12748229764
 21
-99.6342336084159
 31
0.0
  0
ARC
  8
CUIVRE
 10
28.5799328671487
 20
-117.462994260825
 30
0.0
 40
90.324599177335
 50
11.384108099911
 51
12.3254941231162
  0
LINE
  8
CUIVRE
 10
116.8226122207
 20
-98.181843956642
 30
0.0
 11
116.783351270645
 21
-98.0004938594921
 31
0.0
  0
LINE
  8
CUIVRE
 10
116.783351270645
 20
-98.0004938594921
 30
0.0
 11
116.644485580458
 21
-97.366237123063
 31
0.0
  0
LINE
  8
CUIVRE
 10
116.644485580458
 20
-97.366237123063
 30
0.0
 11
116.503827553339
 21
-96.7324245634905
 31
0.0
  0
LINE
  8
CUIVRE
 10
116.503827553339
 20
-96.7324245634905
 30
0.0
 11
116.382137866961
 21
-96.1955704756563
 31
0.0
  0
ARC
  8
CUIVRE
 10
43.4045119530412
 20
-112.966318514169
 30
0.0
 40
74.8798495845401
 50
12.9422457284059
 51
16.1011966075825
  0
ARC
  8
CUIVRE
 10
51.9031641739607
 20
-110.600258911685
 30
0.0
 40
66.0584334977838
 50
16.173814881875
 51
19.7547229968869
  0
LINE
  8
CUIVRE
 10
114.073937112052
 20
-88.2728849402256
 30
0.0
 11
116.881087040821
 21
-88.2728849402256
 31
0.0
  0
LINE
  8
CUIVRE
 10
116.881087040821
 20
-88.2728849402256
 30
0.0
 11
116.977528182561
 21
-88.4821098954142
 31
0.0
  0
LINE
  8
CUIVRE
 10
116.977528182561
 20
-88.4821098954142
 30
0.0
 11
117.0526001397
 21
-88.6456847954513
 31
0.0
  0
ARC
  8
CUIVRE
 10
65.4868324846578
 20
-112.189842181979
 30
0.0
 40
56.6864687636777
 50
18.8120993883682
 51
24.5407291145305
  0
LINE
  8
CUIVRE
 10
119.145177250218
 20
-93.9104062520679
 30
0.0
 11
119.20229126667
 21
-94.0780870439258
 31
0.0
  0
ARC
  8
CUIVRE
 10
55.1254613452303
 20
-115.702132618688
 30
0.0
 40
67.6272096112243
 50
13.9968958233172
 51
18.6480259647205
  0
LINE
  8
CUIVRE
 10
120.744740095682
 20
-99.345184979504
 30
0.0
 11
120.892069095938
 21
-99.9364003530156
 31
0.0
  0
LINE
  8
CUIVRE
 10
120.892069095938
 20
-99.9364003530156
 30
0.0
 11
121.109160540195
 21
-100.824164888676
 31
0.0
  0
LINE
  8
CUIVRE
 10
121.109160540195
 20
-100.824164888676
 30
0.0
 11
121.215748765409
 21
-101.268567597448
 31
0.0
  0
LINE
  8
CUIVRE
 10
121.215748765409
 20
-101.268567597448
 30
0.0
 11
121.320889251896
 21
-101.713300552371
 31
0.0
  0
LINE
  8
CUIVRE
 10
121.320889251896
 20
-101.713300552371
 30
0.0
 11
121.320889251896
 21
-109.768881198144
 31
0.0
  0
ARC
  8
CUIVRE
 10
122.320866720989
 20
-109.768907289185
 30
0.0
 40
0.9999774694331
 50
179.998505059764
 51
270.001494940241
  0
LINE
  8
CUIVRE
 10
122.32089281203
 20
-110.768884758278
 30
0.0
 11
122.651751169695
 21
-110.768884758278
 31
0.0
  0
ARC
  8
CUIVRE
 10
77.8743158713414
 20
-112.002353235409
 30
0.0
 40
44.7944210408208
 50
-6.6801945817539
 51
1.577907928372
  0
LINE
  8
CUIVRE
 10
128.171676942784
 20
-117.243145044474
 30
0.0
 11
128.169975926888
 21
-117.273009715962
 31
0.0
  0
LINE
  8
CUIVRE
 10
128.169975926888
 20
-117.273009715962
 30
0.0
 11
123.464104685117
 21
-117.273009715962
 31
0.0
  0
ARC
  8
CUIVRE
 10
77.8007864141285
 20
-111.996350357329
 30
0.0
 40
45.9671814396385
 50
353.408378614845
 51
361.530156011906
  0
LINE
  8
CUIVRE
 10
123.751576371514
 20
-110.768884758278
 30
0.0
 11
128.015657180995
 21
-110.768884758278
 31
0.0
  0
ARC
  8
CUIVRE
 10
94.6454410455279
 20
-114.73365187398
 30
0.0
 40
33.6049208183795
 50
4.8817966190175
 51
6.7756374795466
  0
LINE
  8
CUIVRE
 10
128.128456102864
 20
-111.87386064388
 30
0.0
 11
128.15075794751
 21
-112.150649469869
 31
0.0
  0
LINE
  8
CUIVRE
 10
128.15075794751
 20
-112.150649469869
 30
0.0
 11
128.178831463741
 21
-112.566274560174
 31
0.0
  0
LINE
  8
CUIVRE
 10
128.178831463741
 20
-112.566274560174
 30
0.0
 11
128.199754470988
 21
-112.982250948317
 31
0.0
  0
LINE
  8
CUIVRE
 10
128.199754470988
 20
-112.982250948317
 30
0.0
 11
128.219977183149
 21
-113.514644145213
 31
0.0
  0
ARC
  8
CUIVRE
 10
85.9798149351897
 20
-114.832014337034
 30
0.0
 40
42.2607000765036
 50
-3.2707141901682
 51
1.7863400627358
  0
ARC
  8
CUIVRE
 10
86.5213577091884
 20
-114.834826605802
 30
0.0
 40
42.8196383346127
 50
356.735768754747
 51
362.545637892417
  0
ARC
  8
CUIVRE
 10
99.1041095522734
 20
-114.297346719355
 30
0.0
 40
30.2254393457098
 50
2.5871808370409
 51
6.7038892195007
  0
LINE
  8
CUIVRE
 10
129.122889338108
 20
-110.768884758278
 30
0.0
 11
133.113580288987
 21
-110.768884758278
 31
0.0
  0
ARC
  8
CUIVRE
 10
124.459671564849
 20
-112.678350707642
 30
0.0
 40
8.8620650199318
 50
10.5287336869248
 51
12.4428166022733
  0
ARC
  8
CUIVRE
 10
99.7121721121631
 20
-117.805826312194
 30
0.0
 40
34.1337839710792
 50
7.6731456330506
 51
11.4000606222914
  0
ARC
  8
CUIVRE
 10
105.432088054022
 20
-117.01426628084
 30
0.0
 40
28.3594019294764
 50
3.1452874440784
 51
7.6312448499335
  0
LINE
  8
CUIVRE
 10
133.74876976908
 20
-115.458241073566
 30
0.0
 11
133.760735081829
 21
-115.684905072242
 31
0.0
  0
ARC
  8
CUIVRE
 10
132.078500599846
 20
-115.815118776936
 30
0.0
 40
1.6872665649698
 50
1.0527307084411
 51
4.4261657426814
  0
LINE
  8
CUIVRE
 10
133.765482370835
 20
-115.784119331547
 30
0.0
 11
133.780749841235
 21
-116.156228247848
 31
0.0
  0
LINE
  8
CUIVRE
 10
133.780749841235
 20
-116.156228247848
 30
0.0
 11
133.789719208518
 21
-116.435407024545
 31
0.0
  0
LINE
  8
CUIVRE
 10
133.789719208518
 20
-116.435407024545
 30
0.0
 11
133.799526046419
 21
-116.854137163346
 31
0.0
  0
LINE
  8
CUIVRE
 10
133.799526046419
 20
-116.854137163346
 30
0.0
 11
133.805398526119
 21
-117.273009715962
 31
0.0
  0
LINE
  8
CUIVRE
 10
133.805398526119
 20
-117.273009715962
 30
0.0
 11
129.27152367645
 21
-117.273009715962
 31
0.0
  0
LINE
  8
CUIVRE
 10
134.905697428567
 20
-117.273009715962
 30
0.0
 11
134.905632833027
 21
-117.266916203322
 31
0.0
  0
LINE
  8
CUIVRE
 10
134.905632833027
 20
-117.266916203322
 30
0.0
 11
134.898810050827
 21
-116.799630357287
 31
0.0
  0
LINE
  8
CUIVRE
 10
134.898810050827
 20
-116.799630357287
 30
0.0
 11
134.890595156406
 21
-116.449157929938
 31
0.0
  0
LINE
  8
CUIVRE
 10
134.890595156406
 20
-116.449157929938
 30
0.0
 11
134.87266725997
 21
-115.923791177408
 31
0.0
  0
LINE
  8
CUIVRE
 10
134.87266725997
 20
-115.923791177408
 30
0.0
 11
134.860939238291
 21
-115.661139201304
 31
0.0
  0
ARC
  8
CUIVRE
 10
134.613615023277
 20
-115.656742641255
 30
0.0
 40
0.247363289662
 50
358.981588576271
 51
366.610127664985
  0
LINE
  8
CUIVRE
 10
134.859333949063
 20
-115.628267975613
 30
0.0
 11
134.847238464552
 21
-115.398640921671
 31
0.0
  0
ARC
  8
CUIVRE
 10
117.169782518476
 20
-116.227586989899
 30
0.0
 40
17.696881089884
 50
2.6847949285776
 51
4.5763067250095
  0
ARC
  8
CUIVRE
 10
105.487602389401
 20
-117.002973502574
 30
0.0
 40
29.4041142849617
 50
4.2661556311674
 51
8.2507110639542
  0
ARC
  8
CUIVRE
 10
96.7650761906236
 20
-118.300332408434
 30
0.0
 40
38.2225498333676
 50
8.29898718192
 51
11.3640362788195
  0
LINE
  8
CUIVRE
 10
134.238274773841
 20
-110.768884758278
 30
0.0
 11
137.957492200482
 21
-110.768884758278
 31
0.0
  0
LINE
  8
CUIVRE
 10
137.957492200482
 20
-110.768884758278
 30
0.0
 11
138.070047974128
 21
-111.168309590384
 31
0.0
  0
ARC
  8
CUIVRE
 10
98.4862092225168
 20
-122.2830147499
 30
0.0
 40
41.1146806031193
 50
11.346749373692
 51
15.6841559198981
  0
ARC
  8
CUIVRE
 10
106.931132283148
 20
-120.505619574343
 30
0.0
 40
32.4852237993071
 50
8.4582621149546
 51
11.2036235384494
  0
LINE
  8
CUIVRE
 10
139.063023226905
 20
-115.727403414562
 30
0.0
 11
139.09072307545
 21
-115.920048763643
 31
0.0
  0
ARC
  8
CUIVRE
 10
113.086762655269
 20
-119.59074369089
 30
0.0
 40
26.2617584861195
 50
6.5490274648391
 51
8.034733335561
  0
LINE
  8
CUIVRE
 10
139.177153319185
 20
-116.595501832953
 30
0.0
 11
139.214016947015
 21
-116.934006705675
 31
0.0
  0
LINE
  8
CUIVRE
 10
139.214016947015
 20
-116.934006705675
 30
0.0
 11
139.246474676289
 21
-117.273009715962
 31
0.0
  0
LINE
  8
CUIVRE
 10
139.246474676289
 20
-117.273009715962
 30
0.0
 11
134.905697428567
 21
-117.273009715962
 31
0.0
  0
LINE
  8
CUIVRE
 10
140.351898158271
 20
-117.273009715962
 30
0.0
 11
140.348022425851
 21
-117.228331133887
 31
0.0
  0
ARC
  8
CUIVRE
 10
113.896461523086
 20
-119.505708286204
 30
0.0
 40
26.5494165827907
 50
4.920810519815
 51
8.4761060016817
  0
ARC
  8
CUIVRE
 10
106.324733343536
 20
-120.6158654217
 30
0.0
 40
34.2020804636682
 50
8.4459215266605
 51
10.5153838641651
  0
ARC
  8
CUIVRE
 10
104.611258046857
 20
-120.967575493771
 30
0.0
 40
35.9509817099048
 50
10.5681280337366
 51
13.5212045224012
  0
ARC
  8
CUIVRE
 10
137.808116012394
 20
-112.92426919181
 30
0.0
 40
1.7946216418821
 50
11.6443865593313
 51
15.3438238658801
  0
ARC
  8
CUIVRE
 10
120.56290858774
 20
-116.907651731437
 30
0.0
 40
19.4925459039074
 50
13.2214938021343
 51
14.4980290592481
  0
LINE
  8
CUIVRE
 10
139.434738786207
 20
-112.027757185837
 30
0.0
 11
139.354040960323
 21
-111.712200721961
 31
0.0
  0
ARC
  8
CUIVRE
 10
138.141358342109
 20
-111.996109393183
 30
0.0
 40
1.2454731093501
 50
13.1765549897685
 51
15.9880104378441
  0
ARC
  8
CUIVRE
 10
137.684949464058
 20
-112.027309191402
 30
0.0
 40
1.6955253370124
 50
12.7517352550303
 51
16.6230822235255
  0
ARC
  8
CUIVRE
 10
137.774723125626
 20
-111.896371979276
 30
0.0
 40
1.5752093642441
 50
12.9911976614053
 51
16.6371023130601
  0
LINE
  8
CUIVRE
 10
139.283990089225
 20
-111.445375556018
 30
0.0
 11
139.192819158575
 21
-111.106834597919
 31
0.0
  0
LINE
  8
CUIVRE
 10
139.192819158575
 20
-111.106834597919
 30
0.0
 11
139.099369099068
 21
-110.768884758278
 31
0.0
  0
LINE
  8
CUIVRE
 10
139.099369099068
 20
-110.768884758278
 30
0.0
 11
142.564015501197
 21
-110.768884758278
 31
0.0
  0
ARC
  8
CUIVRE
 10
132.279237516334
 20
-114.501301715074
 30
0.0
 40
10.9410965875135
 50
18.8382179738474
 51
19.9461841797673
  0
LINE
  8
CUIVRE
 10
142.634264295807
 20
-110.968453723197
 30
0.0
 11
142.768953536535
 21
-111.355616252679
 31
0.0
  0
LINE
  8
CUIVRE
 10
142.768953536535
 20
-111.355616252679
 30
0.0
 11
142.831402916006
 21
-111.537366722483
 31
0.0
  0
LINE
  8
CUIVRE
 10
142.831402916006
 20
-111.537366722483
 30
0.0
 11
142.950992124706
 21
-111.88987865372
 31
0.0
  0
LINE
  8
CUIVRE
 10
142.950992124706
 20
-111.88987865372
 30
0.0
 11
143.169866912009
 21
-112.552693326972
 31
0.0
  0
LINE
  8
CUIVRE
 10
143.169866912009
 20
-112.552693326972
 30
0.0
 11
143.354922157701
 21
-113.134692103373
 31
0.0
  0
ARC
  8
CUIVRE
 10
97.2268224160119
 20
-127.492909909714
 30
0.0
 40
48.3110753798091
 50
14.7544519397343
 51
17.2897124403478
  0
LINE
  8
CUIVRE
 10
143.944895795914
 20
-115.189185919651
 30
0.0
 11
144.011308365783
 21
-115.448048983883
 31
0.0
  0
ARC
  8
CUIVRE
 10
116.904875935655
 20
-122.41039616642
 30
0.0
 40
27.9862994584726
 50
12.4903441444962
 51
14.4051522256662
  0
LINE
  8
CUIVRE
 10
144.228808785799
 20
-116.357657036065
 30
0.0
 11
144.279330177481
 21
-116.585961209564
 31
0.0
  0
LINE
  8
CUIVRE
 10
144.279330177481
 20
-116.585961209564
 30
0.0
 11
144.316156852622
 21
-116.757449155657
 31
0.0
  0
LINE
  8
CUIVRE
 10
144.316156852622
 20
-116.757449155657
 30
0.0
 11
144.369625331974
 21
-117.015036411937
 31
0.0
  0
LINE
  8
CUIVRE
 10
144.369625331974
 20
-117.015036411937
 30
0.0
 11
144.4209004359
 21
-117.273009715962
 31
0.0
  0
LINE
  8
CUIVRE
 10
144.4209004359
 20
-117.273009715962
 30
0.0
 11
140.351898158271
 21
-117.273009715962
 31
0.0
  0
LINE
  8
CUIVRE
 10
145.542300548196
 20
-117.273009715962
 30
0.0
 11
145.524278392438
 21
-117.178377249351
 31
0.0
  0
LINE
  8
CUIVRE
 10
145.524278392438
 20
-117.178377249351
 30
0.0
 11
145.443729132534
 21
-116.769872587043
 31
0.0
  0
ARC
  8
CUIVRE
 10
111.246686103395
 20
-123.765547118032
 30
0.0
 40
34.9052605502424
 50
11.561457244307
 51
14.124649968386
  0
ARC
  8
CUIVRE
 10
144.068057276518
 20
-115.468863017566
 30
0.0
 40
1.0521446537446
 50
12.1432293749016
 51
16.1305484699932
  0
LINE
  8
CUIVRE
 10
145.07878021717
 20
-115.176548957618
 30
0.0
 11
145.007114913822
 21
-114.897478984122
 31
0.0
  0
LINE
  8
CUIVRE
 10
145.007114913822
 20
-114.897478984122
 30
0.0
 11
144.867366371802
 21
-114.375550220739
 31
0.0
  0
LINE
  8
CUIVRE
 10
144.867366371802
 20
-114.375550220739
 30
0.0
 11
144.739679859892
 21
-113.920379691684
 31
0.0
  0
LINE
  8
CUIVRE
 10
144.739679859892
 20
-113.920379691684
 30
0.0
 11
144.624068975814
 21
-113.523219983038
 31
0.0
  0
ARC
  8
CUIVRE
 10
112.698481418276
 20
-122.843038486912
 30
0.0
 40
33.2581141654052
 50
16.2737477586372
 51
17.5209890118721
  0
ARC
  8
CUIVRE
 10
100.724376683252
 20
-126.326503353305
 30
0.0
 40
45.7262918870789
 50
17.1663701877614
 51
18.5271039335632
  0
LINE
  8
CUIVRE
 10
144.080832490525
 20
-111.796826496117
 30
0.0
 11
143.99477556157
 21
-111.539313965769
 31
0.0
  0
LINE
  8
CUIVRE
 10
143.99477556157
 20
-111.539313965769
 30
0.0
 11
143.863808531153
 21
-111.153723851657
 31
0.0
  0
ARC
  8
CUIVRE
 10
143.371851118552
 20
-111.29561041897
 30
0.0
 40
0.5120096618192
 50
16.0882117068489
 51
21.7922156684161
  0
LINE
  8
CUIVRE
 10
143.847270661764
 20
-111.105531088878
 30
0.0
 11
143.730761682817
 21
-110.768884758278
 31
0.0
  0
LINE
  8
CUIVRE
 10
143.730761682817
 20
-110.768884758278
 30
0.0
 11
146.943959178216
 21
-110.768884758278
 31
0.0
  0
LINE
  8
CUIVRE
 10
146.943959178216
 20
-110.768884758278
 30
0.0
 11
147.122463935897
 21
-111.194368244301
 31
0.0
  0
LINE
  8
CUIVRE
 10
147.122463935897
 20
-111.194368244301
 30
0.0
 11
147.210470801288
 21
-111.407632326798
 31
0.0
  0
LINE
  8
CUIVRE
 10
147.210470801288
 20
-111.407632326798
 30
0.0
 11
147.296952274374
 21
-111.621438231643
 31
0.0
  0
LINE
  8
CUIVRE
 10
147.296952274374
 20
-111.621438231643
 30
0.0
 11
147.573501403462
 21
-112.318719748452
 31
0.0
  0
LINE
  8
CUIVRE
 10
147.573501403462
 20
-112.318719748452
 30
0.0
 11
147.811879217564
 21
-112.930247779392
 31
0.0
  0
ARC
  8
CUIVRE
 10
82.393100726232
 20
-138.254384869802
 30
0.0
 40
70.1493299944618
 50
19.2854219911316
 51
21.161822680698
  0
LINE
  8
CUIVRE
 10
148.606002135423
 20
-115.085867747451
 30
0.0
 11
148.791723455507
 21
-115.62940293061
 31
0.0
  0
ARC
  8
CUIVRE
 10
119.390222639087
 20
-125.648772301199
 30
0.0
 40
31.0618095551799
 50
17.2287873315075
 51
18.8179541530585
  0
LINE
  8
CUIVRE
 10
149.058278482613
 20
-116.448637774592
 30
0.0
 11
149.122477578669
 21
-116.654267444611
 31
0.0
  0
LINE
  8
CUIVRE
 10
149.122477578669
 20
-116.654267444611
 30
0.0
 11
149.216781897643
 21
-116.963231470859
 31
0.0
  0
LINE
  8
CUIVRE
 10
149.216781897643
 20
-116.963231470859
 30
0.0
 11
149.308651187445
 21
-117.273009715962
 31
0.0
  0
LINE
  8
CUIVRE
 10
149.308651187445
 20
-117.273009715962
 30
0.0
 11
145.542300548196
 21
-117.273009715962
 31
0.0
  0
LINE
  8
CUIVRE
 10
150.456363216509
 20
-117.273009715962
 30
0.0
 11
150.416313981493
 21
-117.133591008043
 31
0.0
  0
LINE
  8
CUIVRE
 10
150.416313981493
 20
-117.133591008043
 30
0.0
 11
150.306017307578
 21
-116.756646460937
 31
0.0
  0
LINE
  8
CUIVRE
 10
150.306017307578
 20
-116.756646460937
 30
0.0
 11
150.199322398585
 21
-116.404305745053
 31
0.0
  0
ARC
  8
CUIVRE
 10
101.049514155475
 20
-131.618698135783
 30
0.0
 40
51.4507666235749
 50
17.1999842849254
 51
20.2750568673848
  0
LINE
  8
CUIVRE
 10
149.312385137174
 20
-113.789601951247
 30
0.0
 11
149.071378859054
 21
-113.142711358238
 31
0.0
  0
LINE
  8
CUIVRE
 10
149.071378859054
 20
-113.142711358238
 30
0.0
 11
148.886874430353
 21
-112.659042464598
 31
0.0
  0
LINE
  8
CUIVRE
 10
148.886874430353
 20
-112.659042464598
 30
0.0
 11
148.605085405724
 21
-111.93535486463
 31
0.0
  0
LINE
  8
CUIVRE
 10
148.605085405724
 20
-111.93535486463
 30
0.0
 11
148.462387650649
 21
-111.57425134199
 31
0.0
  0
LINE
  8
CUIVRE
 10
148.462387650649
 20
-111.57425134199
 30
0.0
 11
148.318767595299
 21
-111.21353892619
 31
0.0
  0
LINE
  8
CUIVRE
 10
148.318767595299
 20
-111.21353892619
 30
0.0
 11
148.134670305306
 21
-110.768884758278
 31
0.0
  0
LINE
  8
CUIVRE
 10
148.134670305306
 20
-110.768884758278
 30
0.0
 11
151.017483143669
 21
-110.768884758278
 31
0.0
  0
ARC
  8
CUIVRE
 10
107.56509559861
 20
-133.815662314114
 30
0.0
 40
49.1860136530113
 50
25.8086348144254
 51
27.9410995794731
  0
ARC
  8
CUIVRE
 10
120.024864521694
 20
-127.838820202628
 30
0.0
 40
35.3669759440019
 50
24.3969894711441
 51
25.8797518200139
  0
ARC
  8
CUIVRE
 10
150.669540876884
 20
-114.005129184355
 30
0.0
 40
1.7456243486141
 50
22.5950049150756
 51
26.3525581160224
  0
LINE
  8
CUIVRE
 10
152.281177588516
 20
-113.334434413095
 30
0.0
 11
152.444920835598
 21
-113.699833991229
 31
0.0
  0
LINE
  8
CUIVRE
 10
152.444920835598
 20
-113.699833991229
 30
0.0
 11
152.605327652821
 21
-114.066767007074
 31
0.0
  0
LINE
  8
CUIVRE
 10
152.605327652821
 20
-114.066767007074
 30
0.0
 11
152.945648678413
 21
-114.863164505014
 31
0.0
  0
ARC
  8
CUIVRE
 10
151.233911761211
 20
-115.629829637708
 30
0.0
 40
1.8755848952801
 50
21.6455605653538
 51
24.1269988891571
  0
LINE
  8
CUIVRE
 10
152.977236910438
 20
-114.937994307968
 30
0.0
 11
153.219717690522
 21
-115.518706697905
 31
0.0
  0
ARC
  8
CUIVRE
 10
153.039643796188
 20
-115.60907611902
 30
0.0
 40
0.2014776406783
 50
18.2324058986579
 51
26.6496177143751
  0
ARC
  8
CUIVRE
 10
86.2795755628944
 20
-143.191211158307
 30
0.0
 40
72.4344503737217
 50
21.7014612196338
 51
22.436407451975
  0
ARC
  8
CUIVRE
 10
129.914826310092
 20
-125.964711823411
 30
0.0
 40
25.5224071334291
 50
20.9493580038265
 51
21.9921510755206
  0
LINE
  8
CUIVRE
 10
153.750120974585
 20
-116.839362836042
 30
0.0
 11
153.833927654149
 21
-117.056043317306
 31
0.0
  0
LINE
  8
CUIVRE
 10
153.833927654149
 20
-117.056043317306
 30
0.0
 11
153.875517852798
 21
-117.16451223375
 31
0.0
  0
ARC
  8
CUIVRE
 10
151.083652086534
 20
-118.290861783156
 30
0.0
 40
3.0105112131139
 50
19.7611221362554
 51
21.9711056160944
  0
LINE
  8
CUIVRE
 10
153.916875504055
 20
-117.273009715962
 30
0.0
 11
150.456363216509
 21
-117.273009715962
 31
0.0
  0
LINE
  8
CUIVRE
 10
155.09296650718
 20
-117.273009715962
 30
0.0
 11
155.026540759854
 21
-117.096039467254
 31
0.0
  0
LINE
  8
CUIVRE
 10
155.026540759854
 20
-117.096039467254
 30
0.0
 11
154.943884793463
 21
-116.877236723323
 31
0.0
  0
ARC
  8
CUIVRE
 10
100.014235206
 20
-137.704886773753
 30
0.0
 40
58.7457012080423
 50
20.7652016369475
 51
22.4759195096085
  0
LINE
  8
CUIVRE
 10
154.297629785255
 20
-115.246692648278
 30
0.0
 11
154.214010637918
 21
-115.044033198682
 31
0.0
  0
LINE
  8
CUIVRE
 10
154.214010637918
 20
-115.044033198682
 30
0.0
 11
154.140383007786
 21
-114.866846907539
 31
0.0
  0
ARC
  8
CUIVRE
 10
45.9629614315896
 20
-160.086775215659
 30
0.0
 40
117.248439030401
 50
22.6857238210663
 51
23.3418904972134
  0
LINE
  8
CUIVRE
 10
153.615429649096
 20
-113.63096242819
 30
0.0
 11
153.536467683417
 21
-113.449269751147
 31
0.0
  0
LINE
  8
CUIVRE
 10
153.536467683417
 20
-113.449269751147
 30
0.0
 11
153.461640604588
 21
-113.279272743942
 31
0.0
  0
ARC
  8
CUIVRE
 10
108.795530672401
 20
-133.195722441729
 30
0.0
 40
48.9052793166415
 50
24.0319117593265
 51
27.2953238291469
  0
LINE
  8
CUIVRE
 10
152.2554351426
 20
-110.768884758278
 30
0.0
 11
154.696629803448
 21
-110.768884758278
 31
0.0
  0
LINE
  8
CUIVRE
 10
154.696629803448
 20
-110.768884758278
 30
0.0
 11
154.921514219518
 21
-111.112455927948
 31
0.0
  0
ARC
  8
CUIVRE
 10
116.875737016901
 20
-135.849706405716
 30
0.0
 40
45.3807527940099
 50
29.1433110587427
 51
33.0318019466942
  0
ARC
  8
CUIVRE
 10
120.083731631985
 20
-134.096064130933
 30
0.0
 40
41.7248712931662
 50
24.9559876080433
 51
29.1853866116191
  0
ARC
  8
CUIVRE
 10
131.707404444857
 20
-128.752972603623
 30
0.0
 40
28.932170489569
 50
24.2244739053765
 51
25.0749354551491
  0
LINE
  8
CUIVRE
 10
158.091950759621
 20
-116.881738253246
 30
0.0
 11
158.269086162418
 21
-117.273009715962
 31
0.0
  0
LINE
  8
CUIVRE
 10
158.269086162418
 20
-117.273009715962
 30
0.0
 11
155.09296650718
 21
-117.273009715962
 31
0.0
  0
LINE
  8
CUIVRE
 10
159.476699789232
 20
-117.273009715962
 30
0.0
 11
159.38355302005
 21
-117.066411646081
 31
0.0
  0
LINE
  8
CUIVRE
 10
159.38355302005
 20
-117.066411646081
 30
0.0
 11
159.324974490532
 21
-116.936387916381
 31
0.0
  0
LINE
  8
CUIVRE
 10
159.324974490532
 20
-116.936387916381
 30
0.0
 11
159.119057146312
 21
-116.481776640608
 31
0.0
  0
LINE
  8
CUIVRE
 10
159.119057146312
 20
-116.481776640608
 30
0.0
 11
159.01519723594
 21
-116.254852607547
 31
0.0
  0
LINE
  8
CUIVRE
 10
159.01519723594
 20
-116.254852607547
 30
0.0
 11
158.989090752547
 21
-116.19814126487
 31
0.0
  0
LINE
  8
CUIVRE
 10
158.989090752547
 20
-116.19814126487
 30
0.0
 11
158.910541409925
 21
-116.028404376375
 31
0.0
  0
ARC
  8
CUIVRE
 10
118.537909877613
 20
-134.869305275431
 30
0.0
 40
44.55254115684
 50
25.01728914348
 51
28.8819673111804
  0
LINE
  8
CUIVRE
 10
157.548853907649
 20
-113.35012384543
 30
0.0
 11
157.36583260203
 21
-113.022078670498
 31
0.0
  0
LINE
  8
CUIVRE
 10
157.36583260203
 20
-113.022078670498
 30
0.0
 11
157.203489049326
 21
-112.736330750489
 31
0.0
  0
ARC
  8
CUIVRE
 10
115.941542946849
 20
-136.397029450638
 30
0.0
 40
47.5644495305367
 50
29.8311075674463
 51
32.6025864905919
  0
LINE
  8
CUIVRE
 10
156.011170581386
 20
-110.768884758278
 30
0.0
 11
157.889522767331
 21
-110.768884758278
 31
0.0
  0
LINE
  8
CUIVRE
 10
157.889522767331
 20
-110.768884758278
 30
0.0
 11
158.197938465637
 21
-111.153335567634
 31
0.0
  0
ARC
  8
CUIVRE
 10
119.581995392772
 20
-141.871077686773
 30
0.0
 40
49.3433961164482
 50
34.2083892590405
 51
38.501121419883
  0
ARC
  8
CUIVRE
 10
124.418491111281
 20
-138.560312661868
 30
0.0
 40
43.4822997482504
 50
29.3118293849231
 51
34.1834885165155
  0
LINE
  8
CUIVRE
 10
162.333674411457
 20
-117.273009715962
 30
0.0
 11
159.476699789232
 21
-117.273009715962
 31
0.0
  0
LINE
  8
CUIVRE
 10
163.593804212574
 20
-117.273009715962
 30
0.0
 11
163.460823526843
 21
-117.030927162583
 31
0.0
  0
ARC
  8
CUIVRE
 10
124.863123677597
 20
-138.287701540459
 30
0.0
 40
44.06396362794
 50
28.8427399930175
 51
33.7366554899073
  0
ARC
  8
CUIVRE
 10
121.434659054324
 20
-140.561839500956
 30
0.0
 40
48.1780759878323
 50
33.7212926598618
 51
35.9591287459456
  0
ARC
  8
CUIVRE
 10
88.021140066467
 20
-165.249587762317
 30
0.0
 40
89.7217592125534
 50
36.1905995699581
 51
36.7914354899525
  0
ARC
  8
CUIVRE
 10
90.3680230081504
 20
-164.344991564011
 30
0.0
 40
87.3032172560938
 50
37.2384604495884
 51
37.8559598790609
  0
LINE
  8
CUIVRE
 10
159.298803671113
 20
-110.768884758278
 30
0.0
 11
160.519723979239
 21
-110.768884758278
 31
0.0
  0
ARC
  8
CUIVRE
 10
120.761956742489
 20
-149.893524729729
 30
0.0
 40
55.780081647011
 50
40.17326636271
 51
44.5401415530779
  0
ARC
  8
CUIVRE
 10
127.209924706375
 20
-144.544321634077
 30
0.0
 40
47.4024855334978
 50
35.1216223432425
 51
40.2606336379934
  0
LINE
  8
CUIVRE
 10
165.981965934796
 20
-117.273009715962
 30
0.0
 11
163.593804212574
 21
-117.273009715962
 31
0.0
  0
ARC
  8
CUIVRE
 10
170.063904083457
 20
-112.3667681262
 30
0.0
 40
2.4567380110054
 50
220.207253031363
 51
223.105281943747
  0
ARC
  8
CUIVRE
 10
181.374411635618
 20
-102.284170291817
 30
0.0
 40
17.6081135625376
 50
218.370910276184
 51
221.504634756303
  0
ARC
  8
CUIVRE
 10
178.506370049401
 20
-104.550306553197
 30
0.0
 40
13.9528407768196
 50
212.452050550197
 51
218.385962981136
  0
ARC
  8
CUIVRE
 10
175.707698224328
 20
-106.324591234566
 30
0.0
 40
10.6391384461857
 50
204.691392504631
 51
212.476476452516
  0
LINE
  8
CUIVRE
 10
166.041286172682
 20
-110.768884758278
 30
0.0
 11
167.426171494059
 21
-110.768884758278
 31
0.0
  0
ARC
  8
CUIVRE
 10
176.61482616875
 20
-110.100979836003
 30
0.0
 40
9.2128970316567
 50
184.157403910809
 51
194.563570080229
  0
ARC
  8
CUIVRE
 10
177.440920878345
 20
-109.845907783113
 30
0.0
 40
10.0766636470871
 50
194.786185921342
 51
204.715032852226
  0
LINE
  8
CUIVRE
 10
168.287294642444
 20
-114.059015542232
 30
0.0
 11
168.270241419792
 21
-114.045558137993
 31
0.0
  0
ARC
  8
CUIVRE
 10
172.554328659553
 20
-114.600795512263
 30
0.0
 40
2.2408807900729
 50
217.01449949927
 51
220.589321106105
  0
ARC
  8
CUIVRE
 10
182.018633052893
 20
-107.01104308649
 30
0.0
 40
14.3717049098713
 50
214.141697086475
 51
218.460298850147
  0
ARC
  8
CUIVRE
 10
178.933900203522
 20
-109.110415676005
 30
0.0
 40
10.6403661528249
 50
205.352991684521
 51
214.107933804895
  0
ARC
  8
CUIVRE
 10
177.395427258056
 20
-109.857663609455
 30
0.0
 40
8.9301165933204
 50
202.637758894951
 51
205.247040569731
  0
ARC
  8
CUIVRE
 10
177.142542200972
 20
-109.94713098142
 30
0.0
 40
8.6622908806933
 50
194.665903875328
 51
202.735399696327
  0
ARC
  8
CUIVRE
 10
176.536576107111
 20
-110.138612093201
 30
0.0
 40
8.0276514645564
 50
184.503081331481
 51
194.438776427541
  0
LINE
  8
CUIVRE
 10
168.533705097027
 20
-110.768884758278
 30
0.0
 11
170.977849620884
 21
-110.768884758278
 31
0.0
  0
ARC
  8
CUIVRE
 10
179.743403188248
 20
-113.101744962013
 30
0.0
 40
9.0706761640188
 50
165.096784695894
 51
179.576504915128
  0
ARC
  8
CUIVRE
 10
179.446515152186
 20
-113.076295123392
 30
0.0
 40
8.7736389486914
 50
179.728368993357
 51
194.701293293008
  0
ARC
  8
CUIVRE
 10
180.106787649924
 20
-112.901173573044
 30
0.0
 40
9.4567379458508
 50
194.712348149797
 51
201.525795817223
  0
LINE
  8
CUIVRE
 10
171.30963384796
 20
-116.37104065423
 30
0.0
 11
171.081352685383
 21
-116.214551665564
 31
0.0
  0
ARC
  8
CUIVRE
 10
168.802050755906
 20
-119.423211922052
 30
0.0
 40
3.9358249360569
 50
54.6115603665207
 51
56.6262311695465
  0
ARC
  8
CUIVRE
 10
169.588302989641
 20
-118.047483116926
 30
0.0
 40
2.3565685824964
 50
54.1896221636585
 51
57.5537758571891
  0
LINE
  8
CUIVRE
 10
172.966164948349
 20
-117.273009715962
 30
0.0
 11
172.834239323111
 21
-117.031960691228
 31
0.0
  0
ARC
  8
CUIVRE
 10
181.490314921881
 20
-112.308007482509
 30
0.0
 40
9.8612057421898
 50
202.321186240207
 51
208.622994431118
  0
ARC
  8
CUIVRE
 10
180.212199034759
 20
-112.852262605064
 30
0.0
 40
8.4721719978059
 50
198.531326909923
 51
202.199133775282
  0
LINE
  8
CUIVRE
 10
172.179308945813
 20
-115.544914676781
 30
0.0
 11
172.137257481114
 21
-115.415978478901
 31
0.0
  0
LINE
  8
CUIVRE
 10
172.137257481114
 20
-115.415978478901
 30
0.0
 11
172.107130778137
 21
-115.318816304877
 31
0.0
  0
LINE
  8
CUIVRE
 10
172.107130778137
 20
-115.318816304877
 30
0.0
 11
172.0642768276
 21
-115.172394179034
 31
0.0
  0
LINE
  8
CUIVRE
 10
172.0642768276
 20
-115.172394179034
 30
0.0
 11
172.024297374529
 21
-115.02519257107
 31
0.0
  0
ARC
  8
CUIVRE
 10
179.41125291584
 20
-113.096941593579
 30
0.0
 40
7.6344786332474
 50
178.446588587354
 51
194.62972688087
  0
ARC
  8
CUIVRE
 10
180.033441651101
 20
-113.15091178938
 30
0.0
 40
8.2579850400365
 50
163.234735988152
 51
178.189293563311
  0
LINE
  8
CUIVRE
 10
172.126465987513
 20
-110.768884758278
 30
0.0
 11
174.679174082849
 21
-110.768884758278
 31
0.0
  0
ARC
  8
CUIVRE
 10
174.679112082954
 20
-109.768840731199
 30
0.0
 40
1.000044029001
 50
270.003552175914
 51
359.997681516923
  0
LINE
  8
CUIVRE
 10
175.679156111137
 20
-109.768881198144
 30
0.0
 11
175.679156111137
 21
-105.67843320112
 31
0.0
  0
ARC
  8
CUIVRE
 10
181.771292166999
 20
-114.012683521391
 30
0.0
 40
10.3234611504124
 50
114.912136117464
 51
126.165903448745
  0
ARC
  8
CUIVRE
 10
181.14219980188
 20
-112.617046048193
 30
0.0
 40
8.7927068183464
 50
106.633968352799
 51
115.025018670713
  0
ARC
  8
CUIVRE
 10
180.824866466462
 20
-111.54544733959
 30
0.0
 40
7.6751130200967
 50
89.8487724943266
 51
106.65411051696
  0
ARC
  8
CUIVRE
 10
180.803776002329
 20
-111.861851365776
 30
0.0
 40
7.9915972798966
 50
77.645188125159
 51
89.7035521285523
  0
ARC
  8
CUIVRE
 10
180.576143836108
 20
-112.977553994409
 30
0.0
 40
9.1301816921983
 50
69.8481254942136
 51
77.7478590365258
  0
ARC
  8
CUIVRE
 10
179.730145789733
 20
-115.259209302886
 30
0.0
 40
11.5636177654177
 50
60.4597570123632
 51
69.8077150936376
  0
ARC
  8
CUIVRE
 10
177.621349560832
 20
-118.988750592436
 30
0.0
 40
15.8480649149592
 50
53.6571865864678
 51
60.4746538136192
  0
ARC
  8
CUIVRE
 10
184.063462576718
 20
-116.290888485103
 30
0.0
 40
10.4907476767483
 50
73.6699074427113
 51
82.6671077313455
  0
ARC
  8
CUIVRE
 10
184.231639356256
 20
-115.083022786184
 30
0.0
 40
9.2713042422801
 50
82.745200568731
 51
98.0238267763146
  0
ARC
  8
CUIVRE
 10
184.322532335887
 20
-115.445630707146
 30
0.0
 40
9.6431300018667
 50
98.2578591275646
 51
112.944179505984
  0
ARC
  8
CUIVRE
 10
185.523513179188
 20
-118.344941731904
 30
0.0
 40
12.7812686925459
 50
112.8353144949
 51
116.992630548279
  0
ARC
  8
CUIVRE
 10
184.78928879127
 20
-116.907810621592
 30
0.0
 40
11.1674450118368
 50
116.982562136617
 51
125.312945259047
  0
ARC
  8
CUIVRE
 10
184.158829349266
 20
-116.015257200933
 30
0.0
 40
10.0746832316416
 50
125.321328310138
 51
139.176145851389
  0
ARC
  8
CUIVRE
 10
184.829672069772
 20
-116.560713849541
 30
0.0
 40
10.9389402146479
 50
139.311250771638
 51
152.066681195762
  0
ARC
  8
CUIVRE
 10
185.344175820949
 20
-116.894040420987
 30
0.0
 40
11.5497693857661
 50
151.801399000932
 51
159.298601525308
  0
ARC
  8
CUIVRE
 10
183.317960121079
 20
-116.137707530689
 30
0.0
 40
9.3870176564034
 50
159.24512080278
 51
173.096563889643
  0
ARC
  8
CUIVRE
 10
182.356562974162
 20
-116.016389142982
 30
0.0
 40
8.4180098940323
 50
173.129795085661
 51
188.585066537519
  0
LINE
  8
CUIVRE
 10
174.032874169816
 20
-117.273009715962
 30
0.0
 11
172.966164948349
 21
-117.273009715962
 31
0.0
  0
LINE
  8
CUIVRE
 10
177.364389163287
 20
-117.273009715962
 30
0.0
 11
175.143680613495
 21
-117.273009715962
 31
0.0
  0
LINE
  8
CUIVRE
 10
175.143680613495
 20
-117.273009715962
 30
0.0
 11
175.130739973578
 21
-117.192502140841
 31
0.0
  0
ARC
  8
CUIVRE
 10
182.547766691608
 20
-116.020124048125
 30
0.0
 40
7.509111513904
 50
168.245426303977
 51
188.982187877921
  0
ARC
  8
CUIVRE
 10
183.873422131174
 20
-116.300695647711
 30
0.0
 40
8.8641261422796
 50
159.448517747419
 51
168.215528765165
  0
ARC
  8
CUIVRE
 10
185.443865382865
 20
-116.935934824009
 30
0.0
 40
10.5577115363829
 50
151.853758657543
 51
159.212400764642
  0
LINE
  8
CUIVRE
 10
176.13464079798
 20
-111.955612493712
 30
0.0
 11
176.134985307529
 21
-111.955612493712
 31
0.0
  0
ARC
  8
CUIVRE
 10
184.831276842047
 20
-116.567615539092
 30
0.0
 40
9.8435795594862
 50
142.350147657862
 51
152.061143284486
  0
ARC
  8
CUIVRE
 10
184.23517290194
 20
-116.101785610542
 30
0.0
 40
9.0870655415307
 50
126.598115750919
 51
142.379807699941
  0
ARC
  8
CUIVRE
 10
184.714363989234
 20
-116.767743059232
 30
0.0
 40
9.9074215441524
 50
119.294145776865
 51
126.526807356364
  0
ARC
  8
CUIVRE
 10
185.142485988037
 20
-117.523909864471
 30
0.0
 40
10.7763669637892
 50
112.663480323774
 51
119.312148777272
  0
ARC
  8
CUIVRE
 10
184.219261711565
 20
-115.180511504879
 30
0.0
 40
8.2583394459522
 50
96.519847694131
 51
113.017434763189
  0
ARC
  8
CUIVRE
 10
184.18930035817
 20
-115.25188738836
 30
0.0
 40
8.32593781308
 50
84.0226854952367
 51
96.2592259470781
  0
ARC
  8
CUIVRE
 10
184.115769823303
 20
-115.921156197438
 30
0.0
 40
8.9992256796857
 50
75.5257020759143
 51
84.0008051164497
  0
ARC
  8
CUIVRE
 10
183.61244560151
 20
-117.83866350062
 30
0.0
 40
10.9816777176111
 50
65.0753682606934
 51
75.483566521511
  0
ARC
  8
CUIVRE
 10
182.164154102632
 20
-120.979969157185
 30
0.0
 40
14.4407624005911
 50
57.2066164345674
 51
65.1167314273777
  0
LINE
  8
CUIVRE
 10
189.985431877959
 20
-108.840643283337
 30
0.0
 11
190.086933003694
 21
-108.944254530056
 31
0.0
  0
LINE
  8
CUIVRE
 10
190.086933003694
 20
-108.944254530056
 30
0.0
 11
190.18339567728
 21
-109.021769178474
 31
0.0
  0
LINE
  8
CUIVRE
 10
190.18339567728
 20
-109.021769178474
 30
0.0
 11
190.397488031914
 21
-109.151671814425
 31
0.0
  0
LINE
  8
CUIVRE
 10
190.397488031914
 20
-109.151671814425
 30
0.0
 11
190.505082578378
 21
-109.215706382013
 31
0.0
  0
ARC
  8
CUIVRE
 10
189.352036079099
 20
-111.280780440645
 30
0.0
 40
2.3651737985051
 50
57.7897043237802
 51
60.8229307029392
  0
ARC
  8
CUIVRE
 10
187.469638304598
 20
-119.792192947214
 30
0.0
 40
10.9723939461354
 50
73.3541305972916
 51
81.9394889652101
  0
ARC
  8
CUIVRE
 10
187.639940747784
 20
-118.49676262927
 30
0.0
 40
9.6658909480663
 50
81.8622886235085
 51
111.116975884316
  0
ARC
  8
CUIVRE
 10
188.470900980852
 20
-120.893765986628
 30
0.0
 40
12.2016210065434
 50
110.701785746135
 51
115.151857696379
  0
ARC
  8
CUIVRE
 10
187.75933084727
 20
-119.508973731263
 30
0.0
 40
10.6458426774227
 50
114.852943984717
 51
119.318365543058
  0
ARC
  8
CUIVRE
 10
187.541418983808
 20
-119.254872980709
 30
0.0
 40
10.3177943359287
 50
118.954209578917
 51
127.018957149287
  0
ARC
  8
CUIVRE
 10
187.262109709761
 20
-118.937020613606
 30
0.0
 40
9.8958937162386
 50
126.835775307464
 51
139.449605208393
  0
ARC
  8
CUIVRE
 10
188.068379265954
 20
-119.615909400259
 30
0.0
 40
10.9498851441078
 50
139.493172177556
 51
150.888251855335
  0
ARC
  8
CUIVRE
 10
188.224545008175
 20
-119.776989223829
 30
0.0
 40
11.1648783132142
 50
150.555945696893
 51
158.504022439542
  0
ARC
  8
CUIVRE
 10
186.631766482376
 20
-119.160940028144
 30
0.0
 40
9.4571514431408
 50
158.440696984029
 51
167.826369983676
  0
LINE
  8
CUIVRE
 10
177.387277516417
 20
-117.166663924701
 30
0.0
 11
177.364389163287
 21
-117.273009715962
 31
0.0
  0
LINE
  8
CUIVRE
 10
181.758285477021
 20
-117.273009715962
 30
0.0
 11
178.494272823215
 21
-117.273009715962
 31
0.0
  0
ARC
  8
CUIVRE
 10
187.148472268215
 20
-119.307089124926
 30
0.0
 40
8.8900307691151
 50
158.269663971894
 51
166.773299704186
  0
ARC
  8
CUIVRE
 10
188.017573541648
 20
-119.668272196256
 30
0.0
 40
9.8311043504609
 50
150.501602356392
 51
158.189579381869
  0
ARC
  8
CUIVRE
 10
187.984444496144
 20
-119.566426536156
 30
0.0
 40
9.7523893486153
 50
140.905755919642
 51
150.926552392953
  0
ARC
  8
CUIVRE
 10
187.426299376937
 20
-119.115190287757
 30
0.0
 40
9.0346590395768
 50
124.668968674997
 51
140.894618167462
  0
ARC
  8
CUIVRE
 10
187.824034250617
 20
-119.670320578752
 30
0.0
 40
9.7174789953259
 50
117.198807139686
 51
124.73583618643
  0
LINE
  8
CUIVRE
 10
183.382374685739
 20
-111.027343178901
 30
0.0
 11
183.453516325079
 21
-110.990921444004
 31
0.0
  0
ARC
  8
CUIVRE
 10
188.473008260558
 20
-120.887972657257
 30
0.0
 40
11.0971582852587
 50
110.706377534269
 51
116.892776917085
  0
ARC
  8
CUIVRE
 10
187.604804075892
 20
-118.475592444257
 30
0.0
 40
8.5337255539904
 50
94.3708962460923
 51
110.98061115793
  0
ARC
  8
CUIVRE
 10
187.354688631221
 20
-114.594622937425
 30
0.0
 40
4.6452131975966
 50
92.0920512357948
 51
94.9431047207408
  0
ARC
  8
CUIVRE
 10
187.591203702775
 20
-118.814454155682
 30
0.0
 40
8.8712476382342
 50
81.0564416339358
 51
92.6236798460325
  0
ARC
  8
CUIVRE
 10
187.315839468338
 20
-120.398738032121
 30
0.0
 40
10.4791098171015
 50
73.5850227218232
 51
80.9158071325453
  0
ARC
  8
CUIVRE
 10
185.051183563041
 20
-127.722612190751
 30
0.0
 40
18.1447285222484
 50
72.4675619682575
 51
73.2607904770964
  0
ARC
  8
CUIVRE
 10
187.11260957003
 20
-121.08311818221
 30
0.0
 40
11.1927192051267
 50
67.4689683474304
 51
72.2911942364461
  0
ARC
  8
CUIVRE
 10
186.401306695479
 20
-122.915397897315
 30
0.0
 40
13.1577818811016
 50
61.5130795389592
 51
67.6653102912254
  0
ARC
  8
CUIVRE
 10
185.337509152664
 20
-124.994579186274
 30
0.0
 40
15.4927189886871
 50
59.1104973595185
 51
61.7227076074188
  0
ARC
  8
CUIVRE
 10
188.052771135105
 20
-120.601411623624
 30
0.0
 40
10.3289810901909
 50
57.5661154512451
 51
59.5251146305337
  0
ARC
  8
CUIVRE
 10
190.249122522439
 20
-117.328998381005
 30
0.0
 40
6.389830013972
 50
56.8676609974303
 51
58.4508431796236
  0
ARC
  8
CUIVRE
 10
190.775101338815
 20
-116.723677095531
 30
0.0
 40
5.5965144079257
 50
56.1824180796069
 51
57.9898610663466
  0
LINE
  8
CUIVRE
 10
193.88984471878
 20
-112.074016119171
 30
0.0
 11
194.009685947494
 21
-112.196565476871
 31
0.0
  0
LINE
  8
CUIVRE
 10
194.009685947494
 20
-112.196565476871
 30
0.0
 11
194.069290650825
 21
-112.25816727836
 31
0.0
  0
ARC
  8
CUIVRE
 10
194.43185902806
 20
-111.936976349031
 30
0.0
 40
0.4843753103262
 50
221.536989646948
 51
226.606824957338
  0
ARC
  8
CUIVRE
 10
194.361575364404
 20
-112.063992294745
 30
0.0
 40
0.3456927455966
 50
220.597948322841
 51
227.693604442582
  0
ARC
  8
CUIVRE
 10
190.8174981061
 20
-123.391969650897
 30
0.0
 40
11.5568834730256
 50
73.3496775778112
 51
77.3705405841372
  0
ARC
  8
CUIVRE
 10
190.931444993457
 20
-122.759280089776
 30
0.0
 40
10.914622007789
 50
77.2280465794889
 51
80.9542980569745
  0
ARC
  8
CUIVRE
 10
191.004062925301
 20
-122.052032106177
 30
0.0
 40
10.204829109537
 50
80.7326323120873
 51
94.6852871648627
  0
ARC
  8
CUIVRE
 10
190.998957721747
 20
-121.77665664377
 30
0.0
 40
9.929972090959
 50
94.7857151416433
 51
109.126817348945
  0
ARC
  8
CUIVRE
 10
191.751487776537
 20
-124.040448856146
 30
0.0
 40
12.3154056762787
 50
108.983676145881
 51
117.810952126518
  0
ARC
  8
CUIVRE
 10
190.959424070739
 20
-122.511631903283
 30
0.0
 40
10.5936453694151
 50
117.879664134384
 51
133.283716208763
  0
ARC
  8
CUIVRE
 10
190.936614926695
 20
-122.445994102268
 30
0.0
 40
10.5302632541453
 50
133.438230009291
 51
148.935333248681
  0
LINE
  8
CUIVRE
 10
181.916544550875
 20
-117.012323646962
 30
0.0
 11
181.758285477021
 21
-117.273009715962
 31
0.0
  0
LINE
  8
CUIVRE
 10
187.535473755471
 20
-117.273009715962
 30
0.0
 11
183.065117853811
 21
-117.273009715962
 31
0.0
  0
ARC
  8
CUIVRE
 10
190.922846616559
 20
-122.424657561121
 30
0.0
 40
9.3959234154738
 50
127.067164043338
 51
146.750534833931
  0
ARC
  8
CUIVRE
 10
191.078335649752
 20
-122.651168359175
 30
0.0
 40
9.6703922280617
 50
117.436979404622
 51
126.993338540607
  0
ARC
  8
CUIVRE
 10
191.650282943138
 20
-123.768279887202
 30
0.0
 40
10.9253890369665
 50
108.943062398007
 51
117.399635585982
  0
ARC
  8
CUIVRE
 10
190.9721690802
 20
-121.698437865586
 30
0.0
 40
8.747564568185
 50
92.3132320480809
 51
109.143104625311
  0
ARC
  8
CUIVRE
 10
190.991007714305
 20
-122.182214161365
 30
0.0
 40
9.2317070368718
 50
80.3927584433255
 51
92.308867937585
  0
ARC
  8
CUIVRE
 10
190.821281771326
 20
-123.389685256747
 30
0.0
 40
10.4506252985595
 50
72.7004441548463
 51
80.5801151015526
  0
LINE
  8
CUIVRE
 10
193.928957805508
 20
-113.411813800496
 30
0.0
 11
193.993322951892
 21
-113.431826415083
 31
0.0
  0
LINE
  8
CUIVRE
 10
193.993322951892
 20
-113.431826415083
 30
0.0
 11
194.056544374043
 21
-113.451881354447
 31
0.0
  0
ARC
  8
CUIVRE
 10
190.00083309988
 20
-125.996701241801
 30
0.0
 40
13.1841306101515
 50
63.0131325526646
 51
72.0840997929458
  0
LINE
  8
CUIVRE
 10
195.983610467251
 20
-114.248183253646
 30
0.0
 11
196.041791078899
 21
-114.277677505467
 31
0.0
  0
ARC
  8
CUIVRE
 10
190.063416983515
 20
-126.092784573365
 30
0.0
 40
13.241514711325
 50
60.9743067950676
 51
63.1608602180426
  0
LINE
  8
CUIVRE
 10
196.488223466141
 20
-114.514374772747
 30
0.0
 11
196.653643364652
 21
-114.606715276503
 31
0.0
  0
ARC
  8
CUIVRE
 10
187.734632889154
 20
-130.335307412
 30
0.0
 40
18.081409193613
 50
56.2415206167316
 51
60.4442859794901
  0
LINE
  8
CUIVRE
 10
197.78235044833
 20
-115.302651948713
 30
0.0
 11
197.980831257114
 21
-115.505583394781
 31
0.0
  0
LINE
  8
CUIVRE
 10
197.980831257114
 20
-115.505583394781
 30
0.0
 11
198.07919803851
 21
-115.607968285767
 31
0.0
  0
LINE
  8
CUIVRE
 10
198.07919803851
 20
-115.607968285767
 30
0.0
 11
198.177782814496
 21
-115.710099085384
 31
0.0
  0
ARC
  8
CUIVRE
 10
193.730856596616
 20
-128.304603761881
 30
0.0
 40
13.3565227822803
 50
70.5526558773202
 51
78.5293890099963
  0
ARC
  8
CUIVRE
 10
194.174768213752
 20
-126.063760816759
 30
0.0
 40
11.0721630067417
 50
78.4746372538672
 51
85.6990825938076
  0
ARC
  8
CUIVRE
 10
194.190831865546
 20
-125.581344853017
 30
0.0
 40
10.5899200598087
 50
85.5900075187911
 51
96.9227402879939
  0
ARC
  8
CUIVRE
 10
194.168520759683
 20
-125.206642333811
 30
0.0
 40
10.2152860278384
 50
97.0518262419393
 51
108.801659737707
  0
ARC
  8
CUIVRE
 10
194.63329383131
 20
-126.6953749743
 30
0.0
 40
11.7744403306384
 50
108.607815060559
 51
123.302899970244
  0
LINE
  8
CUIVRE
 10
188.168359327958
 20
-116.854538273738
 30
0.0
 11
187.535473755471
 21
-117.273009715962
 31
0.0
  0
ARC
  8
CUIVRE
 10
194.631062278784
 20
-126.653021546147
 30
0.0
 40
10.6335786929747
 50
108.657183314945
 51
118.101757266239
  0
ARC
  8
CUIVRE
 10
194.183639316012
 20
-125.311155766551
 30
0.0
 40
9.2190971789261
 50
96.0769506960453
 51
108.690488608046
  0
ARC
  8
CUIVRE
 10
194.188092940346
 20
-125.798479954565
 30
0.0
 40
9.7042689822667
 50
86.8250334222051
 51
95.79849937754
  0
ARC
  8
CUIVRE
 10
194.081642003373
 20
-126.838889115365
 30
0.0
 40
10.7490871478863
 50
74.4242844432951
 51
86.5656380925585
  0
ARC
  8
CUIVRE
 10
193.258641077696
 20
-129.793981967507
 30
0.0
 40
13.816643815352
 50
64.9886237680526
 51
74.4271838985612
  0
LINE
  8
CUIVRE
 10
199.100293258059
 20
-117.273009715962
 30
0.0
 11
189.622232686427
 21
-117.273009715962
 31
0.0
  0
ARC
  8
CUIVRE
 10
213.817347147129
 20
-105.915600042757
 30
0.0
 40
0.5014853185581
 50
270.168021320726
 51
359.831978679271
  0
LINE
  8
CUIVRE
 10
213.818817763386
 20
-106.417083205004
 30
0.0
 11
209.067169815355
 21
-106.417083205004
 31
0.0
  0
ARC
  8
CUIVRE
 10
209.068693606967
 20
-104.530755749424
 30
0.0
 40
1.8863280710456
 50
224.878662627956
 51
269.953715984454
  0
ARC
  8
CUIVRE
 10
209.059339907758
 20
-104.526647044337
 30
0.0
 40
1.882623176317
 50
179.999484960001
 51
225.168136427587
  0
LINE
  8
CUIVRE
 10
207.176716731518
 20
-104.526630121167
 30
0.0
 11
207.176716731518
 21
-99.9170708300555
 31
0.0
  0
ARC
  8
CUIVRE
 10
207.67819079295
 20
-99.9185538773445
 30
0.0
 40
0.501476254392
 50
90.1694446618385
 51
179.83055533817
  0
LINE
  8
CUIVRE
 10
207.676707745661
 20
-99.4170798159118
 30
0.0
 11
213.818817763386
 21
-99.4170798159118
 31
0.0
  0
ARC
  8
CUIVRE
 10
213.81740388347
 20
-99.9185063031692
 30
0.0
 40
0.5014284806229
 50
0.1640247144761
 51
89.8384426446244
  0
LINE
  8
CUIVRE
 10
214.318830309376
 20
-99.9170708300555
 30
0.0
 11
214.318830309376
 21
-105.917070659013
 31
0.0
  0
LINE
  8
CUIVRE
 10
230.518379831965
 20
-117.273009715962
 30
0.0
 11
226.875643525095
 21
-117.273009715962
 31
0.0
  0
LINE
  8
CUIVRE
 10
226.875643525095
 20
-117.273009715962
 30
0.0
 11
224.075426850991
 21
-114.468034503718
 31
0.0
  0
LINE
  8
CUIVRE
 10
224.075426850991
 20
-114.468034503718
 30
0.0
 11
224.423510686082
 21
-114.201125730998
 31
0.0
  0
ARC
  8
CUIVRE
 10
211.64199165416
 20
-97.5471761973922
 30
0.0
 40
20.9933623755526
 50
307.505400336968
 51
322.524356126205
  0
ARC
  8
CUIVRE
 10
209.99828670175
 20
-96.2749413236186
 30
0.0
 40
23.0718868140026
 50
322.50053778027
 51
329.329267854762
  0
ARC
  8
CUIVRE
 10
208.46538943095
 20
-95.3889305959608
 30
0.0
 40
24.8423168403271
 50
329.375089007565
 51
335.716783440907
  0
ARC
  8
CUIVRE
 10
208.814275546823
 20
-95.4086538295535
 30
0.0
 40
24.5165089418628
 50
335.423484385032
 51
345.548168130982
  0
ARC
  8
CUIVRE
 10
210.846176557394
 20
-95.949577225456
 30
0.0
 40
22.4139119110024
 50
345.590893394351
 51
362.207949420833
  0
ARC
  8
CUIVRE
 10
198.481880222083
 20
-96.5368158773667
 30
0.0
 40
34.7918282932795
 50
2.3898410590689
 51
3.0585647826785
  0
ARC
  8
CUIVRE
 10
208.28832003899
 20
-96.1573616584251
 30
0.0
 40
24.9795280986773
 50
3.3896070214378
 51
6.8824455243432
  0
ARC
  8
CUIVRE
 10
208.80953528118
 20
-96.1815859091135
 30
0.0
 40
24.4651244828123
 50
7.0850429483531
 51
12.4342886862825
  0
ARC
  8
CUIVRE
 10
207.258936772109
 20
-96.5525844644945
 30
0.0
 40
26.0592503512808
 50
12.4967788107633
 51
17.5187582654546
  0
ARC
  8
CUIVRE
 10
222.799124087951
 20
-91.6907285300767
 30
0.0
 40
9.7764229067515
 50
17.7620970395338
 51
20.4169677106392
  0
LINE
  8
CUIVRE
 10
231.961379607808
 20
-88.2802272999786
 30
0.0
 11
231.958774254348
 21
-88.2728849402256
 31
0.0
  0
LINE
  8
CUIVRE
 10
231.958774254348
 20
-88.2728849402256
 30
0.0
 11
235.466269031574
 21
-88.2728849402256
 31
0.0
  0
LINE
  8
CUIVRE
 10
235.466269031574
 20
-88.2728849402256
 30
0.0
 11
235.624549637274
 21
-88.5329250538216
 31
0.0
  0
LINE
  8
CUIVRE
 10
235.624549637274
 20
-88.5329250538216
 30
0.0
 11
235.797134848025
 21
-88.8211264856915
 31
0.0
  0
ARC
  8
CUIVRE
 10
216.63856504966
 20
-100.073959252682
 30
0.0
 40
22.2188442993937
 50
23.9305234526819
 51
30.427950265412
  0
ARC
  8
CUIVRE
 10
218.31856530371
 20
-99.2983971668718
 30
0.0
 40
20.3686885682071
 50
16.7651328961116
 51
23.8533447088227
  0
ARC
  8
CUIVRE
 10
214.352667942499
 20
-100.411047562363
 30
0.0
 40
24.4870855314652
 50
11.6773843985603
 51
16.5812158488721
  0
ARC
  8
CUIVRE
 10
216.346630081081
 20
-99.9964152481932
 30
0.0
 40
22.450471109026
 50
2.3080472392596
 51
11.6710778685846
  0
ARC
  8
CUIVRE
 10
217.48387534304
 20
-99.9139603796979
 30
0.0
 40
21.310859215225
 50
-12.5860365064651
 51
2.2096758684624
  0
ARC
  8
CUIVRE
 10
216.376013388049
 20
-99.656755353687
 30
0.0
 40
22.4481475548048
 50
340.369243006483
 51
347.389421863089
  0
LINE
  8
CUIVRE
 10
237.519412718198
 20
-107.198372780217
 30
0.0
 11
237.461167083523
 21
-107.360098670241
 31
0.0
  0
ARC
  8
CUIVRE
 10
214.545011170574
 20
-98.9929242082549
 30
0.0
 40
24.395897407226
 50
333.886570435968
 51
339.941789974143
  0
ARC
  8
CUIVRE
 10
215.723658103403
 20
-99.7007213968014
 30
0.0
 40
23.0263209129481
 50
322.87959263113
 51
334.177120782425
  0
ARC
  8
CUIVRE
 10
217.514158501561
 20
-101.04622069455
 30
0.0
 40
20.7866346686557
 50
310.339026662135
 51
322.858387144068
  0
LINE
  8
CUIVRE
 10
230.969536617605
 20
-116.890367266784
 30
0.0
 11
230.518379831965
 21
-117.273009715962
 31
0.0
  0
LINE
  8
CUIVRE
 10
240.955404263763
 20
-117.273009715962
 30
0.0
 11
232.19461257216
 21
-117.273009715962
 31
0.0
  0
ARC
  8
CUIVRE
 10
217.373923714491
 20
-100.901703366585
 30
0.0
 40
22.0833079451642
 50
312.154053164344
 51
323.63488454629
  0
ARC
  8
CUIVRE
 10
215.67522335064
 20
-99.656930664159
 30
0.0
 40
24.1892567912851
 50
323.646369742799
 51
334.124784514036
  0
ARC
  8
CUIVRE
 10
215.071923719082
 20
-99.2162507646217
 30
0.0
 40
24.9247478673662
 50
333.81856031556
 51
343.924593859771
  0
ARC
  8
CUIVRE
 10
217.446876285617
 20
-99.9126225482959
 30
0.0
 40
22.4498365152751
 50
343.953976188936
 51
360.791914528689
  0
LINE
  8
CUIVRE
 10
239.894568490601
 20
-99.6023416547678
 30
0.0
 11
239.890631573148
 21
-99.3962669669732
 31
0.0
  0
ARC
  8
CUIVRE
 10
216.782640140092
 20
-99.9608292917655
 30
0.0
 40
23.114886949513
 50
1.3995420125708
 51
9.3177659144937
  0
ARC
  8
CUIVRE
 10
219.41015776145
 20
-99.4539438285329
 30
0.0
 40
20.4401050011579
 50
9.1081589656893
 51
11.3467313990482
  0
ARC
  8
CUIVRE
 10
215.733549763514
 20
-100.100627579038
 30
0.0
 40
24.1722492826072
 50
11.1350300540543
 51
13.9739645670057
  0
LINE
  8
CUIVRE
 10
239.190434777588
 20
-94.2634895117131
 30
0.0
 11
239.153976552576
 21
-94.11824180426
 31
0.0
  0
LINE
  8
CUIVRE
 10
239.153976552576
 20
-94.11824180426
 30
0.0
 11
239.121385964211
 21
-93.991359506317
 31
0.0
  0
LINE
  8
CUIVRE
 10
239.121385964211
 20
-93.991359506317
 30
0.0
 11
239.092325683798
 21
-93.8804279688318
 31
0.0
  0
LINE
  8
CUIVRE
 10
239.092325683798
 20
-93.8804279688318
 30
0.0
 11
239.066491905365
 21
-93.7834652384881
 31
0.0
  0
ARC
  8
CUIVRE
 10
202.727803353041
 20
-103.702371261095
 30
0.0
 40
37.6680897098334
 50
15.2673788498795
 51
16.3351543291534
  0
ARC
  8
CUIVRE
 10
218.110417011329
 20
-99.3849054879224
 30
0.0
 40
21.6928903677612
 50
16.8191994493436
 51
23.8116111052102
  0
ARC
  8
CUIVRE
 10
216.955071403268
 20
-99.9173582472369
 30
0.0
 40
22.964867337136
 50
23.863208168636
 51
30.4679282339303
  0
LINE
  8
CUIVRE
 10
236.748791953345
 20
-88.2728849402256
 30
0.0
 11
238.892610278276
 21
-88.2728849402256
 31
0.0
  0
LINE
  8
CUIVRE
 10
238.892610278276
 20
-88.2728849402256
 30
0.0
 11
239.213305604259
 21
-88.6149183263706
 31
0.0
  0
ARC
  8
CUIVRE
 10
220.500725697897
 20
-106.2325817509
 30
0.0
 40
25.7010254910578
 50
37.2883421142945
 51
43.2737492429791
  0
ARC
  8
CUIVRE
 10
222.898705699101
 20
-104.470345201571
 30
0.0
 40
22.7256473237975
 50
27.2580771457428
 51
37.4162429692293
  0
ARC
  8
CUIVRE
 10
225.212366193032
 20
-103.277493433407
 30
0.0
 40
20.122587659927
 50
15.7796147550658
 51
27.255987428575
  0
ARC
  8
CUIVRE
 10
221.107310670227
 20
-104.373412277074
 30
0.0
 40
24.3710433292614
 50
10.6313473918173
 51
15.6345565103896
  0
ARC
  8
CUIVRE
 10
223.192136834613
 20
-103.962067948345
 30
0.0
 40
22.2461242621174
 50
0.9870085846365
 51
10.5807233070216
  0
ARC
  8
CUIVRE
 10
224.230046159356
 20
-103.910081037981
 30
0.0
 40
21.2075008405103
 50
-14.1996963929223
 51
0.8948801101978
  0
ARC
  8
CUIVRE
 10
223.03185078891
 20
-103.639429542572
 30
0.0
 40
22.4355009151649
 50
338.750330040695
 51
345.880844948827
  0
LINE
  8
CUIVRE
 10
243.94196103253
 20
-111.770788033871
 30
0.0
 11
243.813644992014
 21
-112.095245696448
 31
0.0
  0
ARC
  8
CUIVRE
 10
221.093450339021
 20
-102.928255361149
 30
0.0
 40
24.4998154457817
 50
332.314343898526
 51
338.027243266268
  0
ARC
  8
CUIVRE
 10
240.811815940266
 20
-113.331210779264
 30
0.0
 40
2.2061560687881
 50
331.078554827967
 51
333.622514822096
  0
LINE
  8
CUIVRE
 10
242.742828118816
 20
-114.398129973085
 30
0.0
 11
242.563224496845
 21
-114.732450889483
 31
0.0
  0
ARC
  8
CUIVRE
 10
221.095093344207
 20
-102.90041825804
 30
0.0
 40
24.5128058650657
 50
324.930413266604
 51
331.138905102178
  0
LINE
  8
CUIVRE
 10
241.157717496134
 20
-116.98476288308
 30
0.0
 11
240.955404263763
 21
-117.273009715962
 31
0.0
  0
LINE
  8
CUIVRE
 10
248.922230637097
 20
-117.273009715962
 30
0.0
 11
242.291347697402
 21
-117.273009715962
 31
0.0
  0
ARC
  8
CUIVRE
 10
221.256225648589
 20
-102.952121643833
 30
0.0
 40
25.4472826600976
 50
325.752636708931
 51
328.974990419292
  0
ARC
  8
CUIVRE
 10
218.975189031069
 20
-101.648826122901
 30
0.0
 40
28.0737956795156
 50
329.095046090567
 51
330.555524418309
  0
ARC
  8
CUIVRE
 10
242.384297639993
 20
-114.817890130862
 30
0.0
 40
1.2153752301666
 50
328.697876954726
 51
332.917525873753
  0
ARC
  8
CUIVRE
 10
229.346840803447
 20
-107.414029935674
 30
0.0
 40
16.2073763953156
 50
330.596245263562
 51
332.810028557492
  0
LINE
  8
CUIVRE
 10
243.763243211629
 20
-114.819864880149
 30
0.0
 11
243.891100404565
 21
-114.572033322899
 31
0.0
  0
ARC
  8
CUIVRE
 10
221.445750929025
 20
-103.076019590691
 30
0.0
 40
25.2180896344317
 50
332.879474692796
 51
342.859318351765
  0
ARC
  8
CUIVRE
 10
223.554060973911
 20
-103.769788690894
 30
0.0
 40
22.9989930500592
 50
342.962943234635
 51
351.174476215232
  0
ARC
  8
CUIVRE
 10
224.222126938605
 20
-103.90836981046
 30
0.0
 40
22.3176015201492
 50
351.262897900353
 51
363.955646067152
  0
ARC
  8
CUIVRE
 10
223.735458334596
 20
-103.915304136497
 30
0.0
 40
22.8036046956263
 50
3.888674241227
 51
10.0982274414593
  0
ARC
  8
CUIVRE
 10
221.615403857342
 20
-104.259630801301
 30
0.0
 40
24.9512109905064
 50
10.023069392788
 51
15.6977224016201
  0
LINE
  8
CUIVRE
 10
245.635997117411
 20
-97.5087768310916
 30
0.0
 11
245.635652607862
 21
-97.5080878119945
 31
0.0
  0
ARC
  8
CUIVRE
 10
225.396416847508
 20
-103.223498677891
 30
0.0
 40
21.0307533276678
 50
15.7692882255317
 51
23.0711568774561
  0
ARC
  8
CUIVRE
 10
224.093287503089
 20
-103.804691974655
 30
0.0
 40
22.4574243641642
 50
23.1325063071941
 51
28.2592119907406
  0
ARC
  8
CUIVRE
 10
223.253274533556
 20
-104.275205040161
 30
0.0
 40
23.4200957666117
 50
28.3001192660709
 51
35.6728225153932
  0
ARC
  8
CUIVRE
 10
220.410282131951
 20
-106.310548188632
 30
0.0
 40
26.9165525581101
 50
35.6632945079252
 51
42.077310941626
  0
LINE
  8
CUIVRE
 10
240.388858311214
 20
-88.2728849402256
 30
0.0
 11
240.906462376026
 21
-88.2728849402256
 31
0.0
  0
LINE
  8
CUIVRE
 10
240.906462376026
 20
-88.2728849402256
 30
0.0
 11
241.467776089807
 21
-88.6781358285249
 31
0.0
  0
ARC
  8
CUIVRE
 10
241.324196231562
 20
-88.9098891884876
 30
0.0
 40
0.2726257426358
 50
50.0689299426507
 51
58.2202394680373
  0
ARC
  8
CUIVRE
 10
241.357035987883
 20
-88.9295665776546
 30
0.0
 40
0.269303779865
 50
50.0197387672182
 51
58.1403695302932
  0
ARC
  8
CUIVRE
 10
223.540977286281
 20
-113.545912229573
 30
0.0
 40
30.6557350091335
 50
51.8284201092414
 51
54.0690365462359
  0
ARC
  8
CUIVRE
 10
237.557133930815
 20
-95.8636510263478
 30
0.0
 40
8.0928535306122
 50
50.3507387547008
 51
52.4728833707076
  0
LINE
  8
CUIVRE
 10
242.721072240728
 20
-89.6324377095569
 30
0.0
 11
242.895310698851
 21
-89.7745869871579
 31
0.0
  0
ARC
  8
CUIVRE
 10
242.285417731104
 20
-90.5780846695712
 30
0.0
 40
1.008750691574
 50
48.0075531840025
 51
52.7997723493494
  0
ARC
  8
CUIVRE
 10
239.584627604824
 20
-93.9804761891028
 30
0.0
 40
5.3512023693308
 50
49.3092823791506
 51
50.888914884029
  0
LINE
  8
CUIVRE
 10
243.073480827172
 20
-89.9229806573186
 30
0.0
 11
243.157952388983
 21
-89.9944979855625
 31
0.0
  0
LINE
  8
CUIVRE
 10
243.157952388983
 20
-89.9944979855625
 30
0.0
 11
243.283829927916
 21
-90.1025705330732
 31
0.0
  0
ARC
  8
CUIVRE
 10
243.195023455159
 20
-90.2208632654575
 30
0.0
 40
0.1479180859074
 50
45.0491358814664
 51
53.1031666454726
  0
ARC
  8
CUIVRE
 10
242.781188056949
 20
-90.7663216083042
 30
0.0
 40
0.8314808184801
 50
46.4319062053188
 51
51.43564558484
  0
ARC
  8
CUIVRE
 10
242.883494231344
 20
-90.7548206828955
 30
0.0
 40
0.7555424608717
 50
45.9573141699658
 51
51.4585531822445
  0
LINE
  8
CUIVRE
 10
243.408742886196
 20
-90.2117200837839
 30
0.0
 11
243.409431905294
 21
-90.2122368481067
 31
0.0
  0
ARC
  8
CUIVRE
 10
224.355412881066
 20
-111.917636331048
 30
0.0
 40
28.8821745664987
 50
45.501931365716
 51
48.7218191031116
  0
ARC
  8
CUIVRE
 10
225.938110914356
 20
-110.315327514277
 30
0.0
 40
26.6300002108757
 50
39.400636657552
 51
45.5145457040431
  0
ARC
  8
CUIVRE
 10
229.124147570928
 20
-107.710788059299
 30
0.0
 40
22.5148642544304
 50
28.571404214833
 51
39.4253347572867
  0
ARC
  8
CUIVRE
 10
231.363773973073
 20
-106.471218562157
 30
0.0
 40
19.9551546754912
 50
16.2700253593559
 51
28.5211361300081
  0
LINE
  8
CUIVRE
 10
250.519764477301
 20
-100.880491782506
 30
0.0
 11
250.591051485603
 21
-101.130495145768
 31
0.0
  0
ARC
  8
CUIVRE
 10
228.86661897068
 20
-107.25057708639
 30
0.0
 40
22.5700325887083
 50
5.3396261762247
 51
15.7332839138757
  0
ARC
  8
CUIVRE
 10
230.291353018906
 20
-107.112872814277
 30
0.0
 40
21.1386668978987
 50
-11.3206722364255
 51
5.3273691970266
  0
ARC
  8
CUIVRE
 10
228.808763791343
 20
-106.81022775413
 30
0.0
 40
22.6518206469374
 50
340.90167743616
 51
348.664847901998
  0
ARC
  8
CUIVRE
 10
226.535297177095
 20
-105.986890374279
 30
0.0
 40
25.0695634575563
 50
333.810178417291
 51
340.823597524512
  0
LINE
  8
CUIVRE
 10
249.031138718124
 20
-117.051253225946
 30
0.0
 11
248.922230637097
 21
-117.273009715962
 31
0.0
  0
ARC
  8
CUIVRE
 10
277.49835409434
 20
-115.771404061529
 30
0.0
 40
1.5016065187003
 50
270.061472902449
 51
359.938527097555
  0
LINE
  8
CUIVRE
 10
277.499965174494
 20
-117.273009715962
 30
0.0
 11
250.141945161803
 21
-117.273009715962
 31
0.0
  0
ARC
  8
CUIVRE
 10
225.93824150473
 20
-105.713502965057
 30
0.0
 40
26.8224060636549
 50
334.471210107606
 51
339.050609544915
  0
ARC
  8
CUIVRE
 10
229.129147270922
 20
-106.937631947394
 30
0.0
 40
23.4047511384095
 50
339.056297143388
 51
341.353112304504
  0
ARC
  8
CUIVRE
 10
229.538322457327
 20
-107.005516430293
 30
0.0
 40
22.995445896928
 50
341.18740348364
 51
345.571104935944
  0
ARC
  8
CUIVRE
 10
230.186021232689
 20
-107.10252111282
 30
0.0
 40
22.344107416314
 50
345.398152531538
 51
361.190570421762
  0
ARC
  8
CUIVRE
 10
230.053932040083
 20
-107.111463123293
 30
0.0
 40
22.4763547429538
 50
1.2063638497697
 51
9.0541769475213
  0
ARC
  8
CUIVRE
 10
227.053711195586
 20
-107.616946610499
 30
0.0
 40
25.5187541942548
 50
9.1149005177953
 51
12.5707118856839
  0
LINE
  8
CUIVRE
 10
251.960733478533
 20
-102.062933950848
 30
0.0
 11
251.873322270895
 21
-101.688245551817
 31
0.0
  0
LINE
  8
CUIVRE
 10
251.873322270895
 20
-101.688245551817
 30
0.0
 11
251.839028091983
 21
-101.548082977363
 31
0.0
  0
ARC
  8
CUIVRE
 10
228.916593275256
 20
-107.198604243738
 30
0.0
 40
23.6086087796139
 50
13.8476819996558
 51
16.2990112431
  0
ARC
  8
CUIVRE
 10
231.23813076318
 20
-106.523359663513
 30
0.0
 40
21.190866357648
 50
16.3082940284404
 51
25.5215801860216
  0
ARC
  8
CUIVRE
 10
230.607048587268
 20
-106.833626775106
 30
0.0
 40
21.8940498688004
 50
25.5427508419089
 51
32.2262212403134
  0
ARC
  8
CUIVRE
 10
229.888973659604
 20
-107.214458602118
 30
0.0
 40
22.7046697867316
 50
32.0728948903235
 51
36.9048435012714
  0
LINE
  8
CUIVRE
 10
248.044397288477
 20
-93.5805808345611
 30
0.0
 11
247.827378472766
 21
-93.2945942292424
 31
0.0
  0
ARC
  8
CUIVRE
 10
228.745557622628
 20
-107.950845208711
 30
0.0
 40
24.0607892582505
 50
37.5269303769341
 51
40.7323841562342
  0
ARC
  8
CUIVRE
 10
226.210333456954
 20
-110.081307146712
 30
0.0
 40
27.3721076450256
 50
40.6488419981349
 51
44.8749858693231
  0
ARC
  8
CUIVRE
 10
223.940410214996
 20
-112.360361441812
 30
0.0
 40
30.5887017324858
 50
44.9002258588688
 51
48.6816901779483
  0
ARC
  8
CUIVRE
 10
229.947457194054
 20
-105.497683329245
 30
0.0
 40
21.4683712982694
 50
48.6298755514327
 51
50.9836904697325
  0
ARC
  8
CUIVRE
 10
222.761699088789
 20
-114.466980050402
 30
0.0
 40
32.9610115977624
 50
51.0939847462916
 51
52.6268694862123
  0
LINE
  8
CUIVRE
 10
242.769139377513
 20
-88.2728849402256
 30
0.0
 11
277.499965174494
 21
-88.2728849402256
 31
0.0
  0
ARC
  8
CUIVRE
 10
277.49835409434
 20
-89.774490594658
 30
0.0
 40
1.5016065187001
 50
0.0614729024395
 51
89.9385270975573
  0
LINE
  8
CUIVRE
 10
278.999959748772
 20
-89.7728795145034
 30
0.0
 11
278.999959748772
 21
-115.773015141684
 31
0.0
  0
ENDSEC
  0
EOF
