  0
SECTION
  2
HEADER
  9
$ACADVER
  1
AC1024
  9
$ACADMAINTVER
 70
     6
  9
$DWGCODEPAGE
  3
ANSI_1252
  9
$INSBASE
 10
0.0
 20
0.0
 30
0.0
  9
$EXTMIN
 10
1.000000000000000E+20
 20
1.000000000000000E+20
 30
1.000000000000000E+20
  9
$EXTMAX
 10
-1.000000000000000E+20
 20
-1.000000000000000E+20
 30
-1.000000000000000E+20
  9
$LIMMIN
 10
0.0
 20
0.0
  9
$LIMMAX
 10
12.0
 20
9.0
  9
$ORTHOMODE
 70
     0
  9
$REGENMODE
 70
     1
  9
$FILLMODE
 70
     1
  9
$QTEXTMODE
 70
     0
  9
$MIRRTEXT
 70
     1
  9
$LTSCALE
 40
1.0
  9
$ATTMODE
 70
     1
  9
$TEXTSIZE
 40
0.2
  9
$TRACEWID
 40
0.05
  9
$TEXTSTYLE
  7
Standard
  9
$CLAYER
  8
0
  9
$CELTYPE
  6
ByLayer
  9
$CECOLOR
 62
   256
  9
$CELTSCALE
 40
1.0
  9
$DISPSILH
 70
     0
  9
$DIMSCALE
 40
1.0
  9
$DIMASZ
 40
0.18
  9
$DIMEXO
 40
0.0625
  9
$DIMDLI
 40
0.38
  9
$DIMRND
 40
0.0
  9
$DIMDLE
 40
0.0
  9
$DIMEXE
 40
0.18
  9
$DIMTP
 40
0.0
  9
$DIMTM
 40
0.0
  9
$DIMTXT
 40
0.18
  9
$DIMCEN
 40
0.09
  9
$DIMTSZ
 40
0.0
  9
$DIMTOL
 70
     0
  9
$DIMLIM
 70
     0
  9
$DIMTIH
 70
     1
  9
$DIMTOH
 70
     1
  9
$DIMSE1
 70
     0
  9
$DIMSE2
 70
     0
  9
$DIMTAD
 70
     0
  9
$DIMZIN
 70
     0
  9
$DIMBLK
  1

  9
$DIMASO
 70
     1
  9
$DIMSHO
 70
     1
  9
$DIMPOST
  1

  9
$DIMAPOST
  1

  9
$DIMALT
 70
     0
  9
$DIMALTD
 70
     2
  9
$DIMALTF
 40
25.4
  9
$DIMLFAC
 40
1.0
  9
$DIMTOFL
 70
     0
  9
$DIMTVP
 40
0.0
  9
$DIMTIX
 70
     0
  9
$DIMSOXD
 70
     0
  9
$DIMSAH
 70
     0
  9
$DIMBLK1
  1

  9
$DIMBLK2
  1

  9
$DIMSTYLE
  2
Standard
  9
$DIMCLRD
 70
     0
  9
$DIMCLRE
 70
     0
  9
$DIMCLRT
 70
     0
  9
$DIMTFAC
 40
1.0
  9
$DIMGAP
 40
0.09
  9
$DIMJUST
 70
     0
  9
$DIMSD1
 70
     0
  9
$DIMSD2
 70
     0
  9
$DIMTOLJ
 70
     1
  9
$DIMTZIN
 70
     0
  9
$DIMALTZ
 70
     0
  9
$DIMALTTZ
 70
     0
  9
$DIMUPT
 70
     0
  9
$DIMDEC
 70
     4
  9
$DIMTDEC
 70
     4
  9
$DIMALTU
 70
     2
  9
$DIMALTTD
 70
     2
  9
$DIMTXSTY
  7
Standard
  9
$DIMAUNIT
 70
     0
  9
$DIMADEC
 70
     0
  9
$DIMALTRND
 40
0.0
  9
$DIMAZIN
 70
     0
  9
$DIMDSEP
 70
    46
  9
$DIMATFIT
 70
     3
  9
$DIMFRAC
 70
     0
  9
$DIMLDRBLK
  1

  9
$DIMLUNIT
 70
     2
  9
$DIMLWD
 70
    -2
  9
$DIMLWE
 70
    -2
  9
$DIMTMOVE
 70
     0
  9
$DIMFXL
 40
1.0
  9
$DIMFXLON
 70
     0
  9
$DIMJOGANG
 40
0.7853981633974483
  9
$DIMTFILL
 70
     0
  9
$DIMTFILLCLR
 70
     0
  9
$DIMARCSYM
 70
     0
  9
$DIMLTYPE
  6

  9
$DIMLTEX1
  6

  9
$DIMLTEX2
  6

  9
$DIMTXTDIRECTION
 70
     0
  9
$LUNITS
 70
     2
  9
$LUPREC
 70
     4
  9
$SKETCHINC
 40
0.1
  9
$FILLETRAD
 40
0.5
  9
$AUNITS
 70
     0
  9
$AUPREC
 70
     0
  9
$MENU
  1
.
  9
$ELEVATION
 40
0.0
  9
$PELEVATION
 40
0.0
  9
$THICKNESS
 40
0.0
  9
$LIMCHECK
 70
     0
  9
$CHAMFERA
 40
0.5
  9
$CHAMFERB
 40
0.5
  9
$CHAMFERC
 40
1.0
  9
$CHAMFERD
 40
0.0
  9
$SKPOLY
 70
     0
  9
$TDCREATE
 40
2459972.956906123
  9
$TDUCREATE
 40
2459972.915239456
  9
$TDUPDATE
 40
2459972.956906158
  9
$TDUUPDATE
 40
2459972.915239491
  9
$TDINDWG
 40
0.0000000116
  9
$TDUSRTIMER
 40
0.0000000116
  9
$USRTIMER
 70
     1
  9
$ANGBASE
 50
0.0
  9
$ANGDIR
 70
     0
  9
$PDMODE
 70
     0
  9
$PDSIZE
 40
0.0
  9
$PLINEWID
 40
0.0
  9
$SPLFRAME
 70
     0
  9
$SPLINETYPE
 70
     6
  9
$SPLINESEGS
 70
     8
  9
$HANDSEED
  5
57
  9
$SURFTAB1
 70
     6
  9
$SURFTAB2
 70
     6
  9
$SURFTYPE
 70
     6
  9
$SURFU
 70
     6
  9
$SURFV
 70
     6
  9
$UCSBASE
  2

  9
$UCSNAME
  2

  9
$UCSORG
 10
0.0
 20
0.0
 30
0.0
  9
$UCSXDIR
 10
1.0
 20
0.0
 30
0.0
  9
$UCSYDIR
 10
0.0
 20
1.0
 30
0.0
  9
$UCSORTHOREF
  2

  9
$UCSORTHOVIEW
 70
     0
  9
$UCSORGTOP
 10
0.0
 20
0.0
 30
0.0
  9
$UCSORGBOTTOM
 10
0.0
 20
0.0
 30
0.0
  9
$UCSORGLEFT
 10
0.0
 20
0.0
 30
0.0
  9
$UCSORGRIGHT
 10
0.0
 20
0.0
 30
0.0
  9
$UCSORGFRONT
 10
0.0
 20
0.0
 30
0.0
  9
$UCSORGBACK
 10
0.0
 20
0.0
 30
0.0
  9
$PUCSBASE
  2

  9
$PUCSNAME
  2

  9
$PUCSORG
 10
0.0
 20
0.0
 30
0.0
  9
$PUCSXDIR
 10
1.0
 20
0.0
 30
0.0
  9
$PUCSYDIR
 10
0.0
 20
1.0
 30
0.0
  9
$PUCSORTHOREF
  2

  9
$PUCSORTHOVIEW
 70
     0
  9
$PUCSORGTOP
 10
0.0
 20
0.0
 30
0.0
  9
$PUCSORGBOTTOM
 10
0.0
 20
0.0
 30
0.0
  9
$PUCSORGLEFT
 10
0.0
 20
0.0
 30
0.0
  9
$PUCSORGRIGHT
 10
0.0
 20
0.0
 30
0.0
  9
$PUCSORGFRONT
 10
0.0
 20
0.0
 30
0.0
  9
$PUCSORGBACK
 10
0.0
 20
0.0
 30
0.0
  9
$USERI1
 70
     0
  9
$USERI2
 70
     0
  9
$USERI3
 70
     0
  9
$USERI4
 70
     0
  9
$USERI5
 70
     0
  9
$USERR1
 40
0.0
  9
$USERR2
 40
0.0
  9
$USERR3
 40
0.0
  9
$USERR4
 40
0.0
  9
$USERR5
 40
0.0
  9
$WORLDVIEW
 70
     1
  9
$SHADEDGE
 70
     3
  9
$SHADEDIF
 70
    70
  9
$TILEMODE
 70
     1
  9
$MAXACTVP
 70
    64
  9
$PINSBASE
 10
0.0
 20
0.0
 30
0.0
  9
$PLIMCHECK
 70
     0
  9
$PEXTMIN
 10
1.000000000000000E+20
 20
1.000000000000000E+20
 30
1.000000000000000E+20
  9
$PEXTMAX
 10
-1.000000000000000E+20
 20
-1.000000000000000E+20
 30
-1.000000000000000E+20
  9
$PLIMMIN
 10
0.0
 20
0.0
  9
$PLIMMAX
 10
12.0
 20
9.0
  9
$UNITMODE
 70
     0
  9
$VISRETAIN
 70
     1
  9
$PLINEGEN
 70
     0
  9
$PSLTSCALE
 70
     1
  9
$TREEDEPTH
 70
  3020
  9
$CMLSTYLE
  2
Standard
  9
$CMLJUST
 70
     0
  9
$CMLSCALE
 40
1.0
  9
$PROXYGRAPHICS
 70
     1
  9
$MEASUREMENT
 70
     0
  9
$CELWEIGHT
370
    -1
  9
$ENDCAPS
280
     0
  9
$JOINSTYLE
280
     0
  9
$LWDISPLAY
290
     1
  9
$INSUNITS
 70
     1
  9
$HYPERLINKBASE
  1

  9
$STYLESHEET
  1

  9
$XEDIT
290
     1
  9
$CEPSNTYPE
380
     0
  9
$PSTYLEMODE
290
     1
  9
$FINGERPRINTGUID
  2
{149EED34-8244-4912-91D9-B1BBB86EDD93}
  9
$VERSIONGUID
  2
{FAEB1C32-E019-11D5-929B-00C0DF256EC4}
  9
$EXTNAMES
290
     1
  9
$PSVPSCALE
 40
0.0
  9
$OLESTARTUP
290
     0
  9
$SORTENTS
280
   127
  9
$INDEXCTL
280
     0
  9
$HIDETEXT
280
     1
  9
$XCLIPFRAME
280
     2
  9
$HALOGAP
280
     0
  9
$OBSCOLOR
 70
   257
  9
$OBSLTYPE
280
     0
  9
$INTERSECTIONDISPLAY
280
     0
  9
$INTERSECTIONCOLOR
 70
   257
  9
$DIMASSOC
280
     2
  9
$PROJECTNAME
  1

  9
$CAMERADISPLAY
290
     0
  9
$LENSLENGTH
 40
50.0
  9
$CAMERAHEIGHT
 40
0.0
  9
$STEPSPERSEC
 40
2.0
  9
$STEPSIZE
 40
6.0
  9
$3DDWFPREC
 40
2.0
  9
$PSOLWIDTH
 40
0.25
  9
$PSOLHEIGHT
 40
4.0
  9
$LOFTANG1
 40
1.570796326794897
  9
$LOFTANG2
 40
1.570796326794897
  9
$LOFTMAG1
 40
0.0
  9
$LOFTMAG2
 40
0.0
  9
$LOFTPARAM
 70
     7
  9
$LOFTNORMALS
280
     1
  9
$LATITUDE
 40
37.795
  9
$LONGITUDE
 40
-122.394
  9
$NORTHDIRECTION
 40
0.0
  9
$TIMEZONE
 70
 -8000
  9
$LIGHTGLYPHDISPLAY
280
     1
  9
$TILEMODELIGHTSYNCH
280
     1
  9
$CMATERIAL
347
3C
  9
$SOLIDHIST
280
     1
  9
$SHOWHIST
280
     1
  9
$DWFFRAME
280
     2
  9
$DGNFRAME
280
     2
  9
$REALWORLDSCALE
290
     1
  9
$INTERFERECOLOR
 62
   256
  9
$CSHADOW
280
     0
  9
$SHADOWPLANELOCATION
 40
0.0
  0
ENDSEC
  0
SECTION
  2
CLASSES
  0
CLASS
  1
ACDBDICTIONARYWDFLT
  2
AcDbDictionaryWithDefault
  3
ObjectDBX Classes
 90
        0
 91
        4
280
     0
281
     0
  0
CLASS
  1
VISUALSTYLE
  2
AcDbVisualStyle
  3
ObjectDBX Classes
 90
     4095
 91
        4
280
     0
281
     0
  0
CLASS
  1
MATERIAL
  2
AcDbMaterial
  3
ObjectDBX Classes
 90
     1153
 91
        4
280
     0
281
     0
  0
CLASS
  1
SUN
  2
AcDbSun
  3
SCENEOE
 90
     1024
 91
        4
280
     0
281
     0
  0
ENDSEC
  0
SECTION
  2
TABLES
  0
TABLE
  2
VPORT
  5
8
330
0
100
AcDbSymbolTable
 70
     1
  0
VPORT
  5
29
330
8
100
AcDbSymbolTableRecord
100
AcDbViewportTableRecord
  2
*Active
 70
     0
 10
0.0
 20
0.0
 11
1.0
 21
1.0
 12
0.0
 22
0.0
 13
0.0
 23
0.0
 14
0.5
 24
0.5
 15
0.5
 25
0.5
 16
0.0
 26
0.0
 36
1.0
 17
148.5000416295416
 27
-105.0007777515277
 37
0.0
 40
210.0015555030554
 41
1.414275634995294
 42
50.0
 43
0.0
 44
0.0
 50
0.0
 51
0.0
 71
     0
 72
   100
 73
     1
 74
     3
 75
     0
 76
     0
 77
     0
 78
     0
281
     0
 65
     1
110
0.0
120
0.0
130
0.0
111
1.0
121
0.0
131
0.0
112
0.0
122
1.0
132
0.0
 79
     0
146
0.0
 60
     3
 61
     5
292
     1
282
     1
141
0.0
142
0.0
 63
   250
361
3F
  0
ENDTAB
  0
TABLE
  2
LTYPE
  5
5
330
0
100
AcDbSymbolTable
 70
     1
  0
LTYPE
  5
14
330
5
100
AcDbSymbolTableRecord
100
AcDbLinetypeTableRecord
  2
ByBlock
 70
     0
  3

 72
    65
 73
     0
 40
0.0
  0
LTYPE
  5
15
330
5
100
AcDbSymbolTableRecord
100
AcDbLinetypeTableRecord
  2
ByLayer
 70
     0
  3

 72
    65
 73
     0
 40
0.0
  0
LTYPE
  5
16
330
5
100
AcDbSymbolTableRecord
100
AcDbLinetypeTableRecord
  2
Continuous
 70
     0
  3
Solid line
 72
    65
 73
     0
 40
0.0
  0
ENDTAB
  0
TABLE
  2
LAYER
  5
2
330
0
100
AcDbSymbolTable
 70
     2
  0
LAYER
  5
10
330
2
100
AcDbSymbolTableRecord
100
AcDbLayerTableRecord
  2
0
 70
     0
 62
     7
  6
Continuous
370
    -3
390
F
347
3E
  0
LAYER
  5
40
330
2
100
AcDbSymbolTableRecord
100
AcDbLayerTableRecord
  2
decoupeINt
 70
     0
 62
     7
  6
Continuous
370
    -3
390
F
347
3E
  0
ENDTAB
  0
TABLE
  2
STYLE
  5
3
330
0
100
AcDbSymbolTable
 70
     1
  0
STYLE
  5
11
330
3
100
AcDbSymbolTableRecord
100
AcDbTextStyleTableRecord
  2
Standard
 70
     0
 40
0.0
 41
1.0
 50
0.0
 71
     0
 42
0.2
  3
txt
  4

  0
ENDTAB
  0
TABLE
  2
VIEW
  5
6
330
0
100
AcDbSymbolTable
 70
     0
  0
ENDTAB
  0
TABLE
  2
UCS
  5
7
330
0
100
AcDbSymbolTable
 70
     0
  0
ENDTAB
  0
TABLE
  2
APPID
  5
9
330
0
100
AcDbSymbolTable
 70
     1
  0
APPID
  5
12
330
9
100
AcDbSymbolTableRecord
100
AcDbRegAppTableRecord
  2
ACAD
 70
     0
  0
ENDTAB
  0
TABLE
  2
DIMSTYLE
  5
A
330
0
100
AcDbSymbolTable
 70
     1
100
AcDbDimStyleTable
  0
DIMSTYLE
105
27
330
A
100
AcDbSymbolTableRecord
100
AcDbDimStyleTableRecord
  2
Standard
 70
     0
178
     0
340
11
  0
ENDTAB
  0
TABLE
  2
BLOCK_RECORD
  5
1
330
0
100
AcDbSymbolTable
 70
     2
  0
BLOCK_RECORD
  5
1F
330
1
100
AcDbSymbolTableRecord
100
AcDbBlockTableRecord
  2
*Model_Space
340
22
 70
     0
280
     1
281
     0
  0
BLOCK_RECORD
  5
1B
330
1
100
AcDbSymbolTableRecord
100
AcDbBlockTableRecord
  2
*Paper_Space
340
1E
 70
     0
280
     1
281
     0
  0
BLOCK_RECORD
  5
23
330
1
100
AcDbSymbolTableRecord
100
AcDbBlockTableRecord
  2
*Paper_Space0
340
26
 70
     0
280
     1
281
     0
  0
BLOCK_RECORD
  5
4A
330
1
100
AcDbSymbolTableRecord
100
AcDbBlockTableRecord
  2
block 2
340
0
102
{BLKREFS
331
4B
102
}
 70
     0
280
     1
281
     0
  0
ENDTAB
  0
ENDSEC
  0
SECTION
  2
BLOCKS
  0
BLOCK
  5
20
330
1F
100
AcDbEntity
  8
0
100
AcDbBlockBegin
  2
*Model_Space
 70
     0
 10
0.0
 20
0.0
 30
0.0
  3
*Model_Space
  1

  0
ENDBLK
  5
21
330
1F
100
AcDbEntity
  8
0
100
AcDbBlockEnd
  0
BLOCK
  5
1C
330
1B
100
AcDbEntity
 67
     1
  8
0
100
AcDbBlockBegin
  2
*Paper_Space
 70
     0
 10
0.0
 20
0.0
 30
0.0
  3
*Paper_Space
  1

  0
ENDBLK
  5
1D
330
1B
100
AcDbEntity
 67
     1
  8
0
100
AcDbBlockEnd
  0
BLOCK
  5
24
330
23
100
AcDbEntity
  8
0
100
AcDbBlockBegin
  2
*Paper_Space0
 70
     0
 10
0.0
 20
0.0
 30
0.0
  3
*Paper_Space0
  1

  0
ENDBLK
  5
25
330
23
100
AcDbEntity
  8
0
100
AcDbBlockEnd
  0
BLOCK
  5
4C
330
4A
100
AcDbEntity
  8
0
100
AcDbBlockBegin
  2
block 2
 70
     0
 10
0.0
 20
0.0
 30
0.0
  3
block 2
  1

  0
SPLINE
  5
4E
330
4A
100
AcDbEntity
  8
decoupeINt
370
     0
100
AcDbSpline
210
0.0
220
0.0
230
1.0
 70
    11
 71
     3
 72
    83
 73
    79
 74
     0
 42
0.0000000001
 43
0.0000000001
 12
1.0
 22
0.0
 32
0.0
 13
1.0
 23
0.0
 33
0.0
 40
0.0
 40
0.0
 40
0.0
 40
0.0
 40
1.0
 40
1.0
 40
1.0
 40
2.0
 40
2.0
 40
2.0
 40
3.0
 40
3.0
 40
3.0
 40
4.0
 40
4.0
 40
4.0
 40
5.0
 40
5.0
 40
5.0
 40
6.0
 40
6.0
 40
6.0
 40
7.0
 40
7.0
 40
7.0
 40
8.0
 40
8.0
 40
8.0
 40
9.0
 40
9.0
 40
9.0
 40
10.0
 40
10.0
 40
10.0
 40
11.0
 40
11.0
 40
11.0
 40
12.0
 40
12.0
 40
12.0
 40
13.0
 40
13.0
 40
13.0
 40
14.0
 40
14.0
 40
14.0
 40
15.0
 40
15.0
 40
15.0
 40
16.0
 40
16.0
 40
16.0
 40
17.0
 40
17.0
 40
17.0
 40
18.0
 40
18.0
 40
18.0
 40
19.0
 40
19.0
 40
19.0
 40
20.0
 40
20.0
 40
20.0
 40
21.0
 40
21.0
 40
21.0
 40
22.0
 40
22.0
 40
22.0
 40
23.0
 40
23.0
 40
23.0
 40
24.0
 40
24.0
 40
24.0
 40
25.0
 40
25.0
 40
25.0
 40
26.0
 40
26.0
 40
26.0
 40
26.0
 10
106.0379719786988
 20
-97.97455374069733
 30
0.0
 10
106.0379719786988
 20
-97.97455374069733
 30
0.0
 10
102.944962651433
 20
-97.97455374069733
 30
0.0
 10
102.944962651433
 20
-97.97455374069733
 30
0.0
 10
102.5773735637654
 20
-97.97455374069733
 30
0.0
 10
102.2318304865948
 20
-97.83158227805947
 30
0.0
 10
101.972070287007
 20
-97.57182207847163
 30
0.0
 10
101.972070287007
 20
-97.57182207847163
 30
0.0
 10
99.06062009242235
 20
-94.66019962911274
 30
0.0
 10
99.06062009242235
 20
-94.66019962911274
 30
0.0
 10
98.96243487109273
 20
-94.56235891733164
 30
0.0
 10
98.80327145967419
 20
-94.56235891733164
 30
0.0
 10
98.70508623834456
 20
-94.66019962911274
 30
0.0
 10
98.6070732717892
 20
-94.75821259566808
 30
0.0
 10
98.6070732717892
 20
-94.91772051663516
 30
0.0
 10
98.70508623834456
 20
-95.01573348319052
 30
0.0
 10
98.70508623834456
 20
-95.01573348319052
 30
0.0
 10
101.6165364329292
 20
-97.92735593254942
 30
0.0
 10
101.6165364329292
 20
-97.92735593254942
 30
0.0
 10
101.9712090131357
 20
-98.28185625798163
 30
0.0
 10
102.4430148398406
 20
-98.47702091722103
 30
0.0
 10
102.944962651433
 20
-98.47702091722103
 30
0.0
 10
102.944962651433
 20
-98.47702091722103
 30
0.0
 10
106.0379719786988
 20
-98.47702091722103
 30
0.0
 10
106.0379719786988
 20
-98.47702091722103
 30
0.0
 10
107.3595106068407
 20
-98.47702091722103
 30
0.0
 10
108.4345526530129
 20
-99.55240747294177
 30
0.0
 10
108.4345526530129
 20
-100.8742906106321
 30
0.0
 10
108.4345526530129
 20
-100.8742906106321
 30
0.0
 10
108.4345526530129
 20
-105.7258463277352
 30
0.0
 10
108.4345526530129
 20
-105.7258463277352
 30
0.0
 10
108.4345526530129
 20
-106.4145209152367
 30
0.0
 10
107.8745523818855
 20
-106.9743489315897
 30
0.0
 10
107.1862223039326
 20
-106.9743489315897
 30
0.0
 10
107.1862223039326
 20
-106.9743489315897
 30
0.0
 10
101.1862440068215
 20
-106.9743489315897
 30
0.0
 10
101.1862440068215
 20
-106.9743489315897
 30
0.0
 10
100.4977416740943
 20
-106.9743489315897
 30
0.0
 10
99.9375691481927
 20
-106.4145209152367
 30
0.0
 10
99.9375691481927
 20
-105.7258463277352
 30
0.0
 10
99.9375691481927
 20
-105.7258463277352
 30
0.0
 10
99.9375691481927
 20
-101.2649644386595
 30
0.0
 10
99.9375691481927
 20
-101.2649644386595
 30
0.0
 10
99.9375691481927
 20
-100.7630140264586
 30
0.0
 10
99.74223223417903
 20
-100.2913804545279
 30
0.0
 10
99.38755965397256
 20
-99.93653561954712
 30
0.0
 10
99.38755965397256
 20
-99.93653561954712
 30
0.0
 10
94.11105140876391
 20
-94.66019962911274
 30
0.0
 10
94.11105140876391
 20
-94.66019962911274
 30
0.0
 10
94.01596677337102
 20
-94.56545950326836
 30
0.0
 10
93.85060219007902
 20
-94.56545950326836
 30
0.0
 10
93.75551755468612
 20
-94.66019962911274
 30
0.0
 10
93.65750458813076
 20
-94.75821259566808
 30
0.0
 10
93.65750458813076
 20
-94.91772051663516
 30
0.0
 10
93.75551755468612
 20
-95.01573348319052
 30
0.0
 10
93.75551755468612
 20
-95.01573348319052
 30
0.0
 10
99.03202579989478
 20
-100.2920694736249
 30
0.0
 10
99.03202579989478
 20
-100.2920694736249
 30
0.0
 10
99.29178599948261
 20
-100.5518296732127
 30
0.0
 10
99.43492971689474
 20
-100.8973727503833
 30
0.0
 10
99.43492971689474
 20
-101.2649644386595
 30
0.0
 10
99.43492971689474
 20
-101.2649644386595
 30
0.0
 10
99.43492971689474
 20
-105.7258463277352
 30
0.0
 10
99.43492971689474
 20
-105.7258463277352
 30
0.0
 10
99.43492971689474
 20
-106.6915065922507
 30
0.0
 10
100.220583742306
 20
-107.4773328724362
 30
0.0
 10
101.1862440068215
 20
-107.4773328724362
 30
0.0
 10
101.1862440068215
 20
-107.4773328724362
 30
0.0
 10
107.1862223039326
 20
-107.4773328724362
 30
0.0
 10
107.1862223039326
 20
-107.4773328724362
 30
0.0
 10
108.1517103136739
 20
-107.4773328724362
 30
0.0
 10
108.9371920843109
 20
-106.6915065922507
 30
0.0
 10
108.9371920843109
 20
-105.7258463277352
 30
0.0
 10
108.9371920843109
 20
-105.7258463277352
 30
0.0
 10
108.9371920843109
 20
-100.8742906106321
 30
0.0
 10
108.9371920843109
 20
-100.8742906106321
 30
0.0
 10
108.9371920843109
 20
-99.27542179592767
 30
0.0
 10
107.636668538629
 20
-97.97455374069733
 30
0.0
 10
106.0379719786988
 20
-97.97455374069733
 30
0.0
  0
HATCH
  5
4F
330
4A
100
AcDbEntity
  8
decoupeINt
 62
    13
420
 13395302
100
AcDbHatch
 10
0.0
 20
0.0
 30
0.0
210
0.0
220
0.0
230
1.0
  2
SOLID
 70
     1
 71
     0
 91
        1
 92
        1
 93
        1
 72
     4
 94
        3
 73
     0
 74
     1
 95
       83
 96
       79
 40
0.0
 40
0.0
 40
0.0
 40
0.0
 40
1.0
 40
1.0
 40
1.0
 40
2.0
 40
2.0
 40
2.0
 40
3.0
 40
3.0
 40
3.0
 40
4.0
 40
4.0
 40
4.0
 40
5.0
 40
5.0
 40
5.0
 40
6.0
 40
6.0
 40
6.0
 40
7.0
 40
7.0
 40
7.0
 40
8.0
 40
8.0
 40
8.0
 40
9.0
 40
9.0
 40
9.0
 40
10.0
 40
10.0
 40
10.0
 40
11.0
 40
11.0
 40
11.0
 40
12.0
 40
12.0
 40
12.0
 40
13.0
 40
13.0
 40
13.0
 40
14.0
 40
14.0
 40
14.0
 40
15.0
 40
15.0
 40
15.0
 40
16.0
 40
16.0
 40
16.0
 40
17.0
 40
17.0
 40
17.0
 40
18.0
 40
18.0
 40
18.0
 40
19.0
 40
19.0
 40
19.0
 40
20.0
 40
20.0
 40
20.0
 40
21.0
 40
21.0
 40
21.0
 40
22.0
 40
22.0
 40
22.0
 40
23.0
 40
23.0
 40
23.0
 40
24.0
 40
24.0
 40
24.0
 40
25.0
 40
25.0
 40
25.0
 40
26.0
 40
26.0
 40
26.0
 40
26.0
 10
106.0379719786988
 20
-97.97455374069733
 10
106.0379719786988
 20
-97.97455374069733
 10
102.944962651433
 20
-97.97455374069733
 10
102.944962651433
 20
-97.97455374069733
 10
102.5773735637654
 20
-97.97455374069733
 10
102.2318304865948
 20
-97.83158227805947
 10
101.972070287007
 20
-97.57182207847163
 10
101.972070287007
 20
-97.57182207847163
 10
99.06062009242235
 20
-94.66019962911274
 10
99.06062009242235
 20
-94.66019962911274
 10
98.96243487109273
 20
-94.56235891733164
 10
98.80327145967419
 20
-94.56235891733164
 10
98.70508623834456
 20
-94.66019962911274
 10
98.6070732717892
 20
-94.75821259566808
 10
98.6070732717892
 20
-94.91772051663516
 10
98.70508623834456
 20
-95.01573348319052
 10
98.70508623834456
 20
-95.01573348319052
 10
101.6165364329292
 20
-97.92735593254942
 10
101.6165364329292
 20
-97.92735593254942
 10
101.9712090131357
 20
-98.28185625798163
 10
102.4430148398406
 20
-98.47702091722103
 10
102.944962651433
 20
-98.47702091722103
 10
102.944962651433
 20
-98.47702091722103
 10
106.0379719786988
 20
-98.47702091722103
 10
106.0379719786988
 20
-98.47702091722103
 10
107.3595106068407
 20
-98.47702091722103
 10
108.4345526530129
 20
-99.55240747294177
 10
108.4345526530129
 20
-100.8742906106321
 10
108.4345526530129
 20
-100.8742906106321
 10
108.4345526530129
 20
-105.7258463277352
 10
108.4345526530129
 20
-105.7258463277352
 10
108.4345526530129
 20
-106.4145209152367
 10
107.8745523818855
 20
-106.9743489315897
 10
107.1862223039326
 20
-106.9743489315897
 10
107.1862223039326
 20
-106.9743489315897
 10
101.1862440068215
 20
-106.9743489315897
 10
101.1862440068215
 20
-106.9743489315897
 10
100.4977416740943
 20
-106.9743489315897
 10
99.9375691481927
 20
-106.4145209152367
 10
99.9375691481927
 20
-105.7258463277352
 10
99.9375691481927
 20
-105.7258463277352
 10
99.9375691481927
 20
-101.2649644386595
 10
99.9375691481927
 20
-101.2649644386595
 10
99.9375691481927
 20
-100.7630140264586
 10
99.74223223417903
 20
-100.2913804545279
 10
99.38755965397256
 20
-99.93653561954712
 10
99.38755965397256
 20
-99.93653561954712
 10
94.11105140876391
 20
-94.66019962911274
 10
94.11105140876391
 20
-94.66019962911274
 10
94.01596677337102
 20
-94.56545950326836
 10
93.85060219007902
 20
-94.56545950326836
 10
93.75551755468612
 20
-94.66019962911274
 10
93.65750458813076
 20
-94.75821259566808
 10
93.65750458813076
 20
-94.91772051663516
 10
93.75551755468612
 20
-95.01573348319052
 10
93.75551755468612
 20
-95.01573348319052
 10
99.03202579989478
 20
-100.2920694736249
 10
99.03202579989478
 20
-100.2920694736249
 10
99.29178599948261
 20
-100.5518296732127
 10
99.43492971689474
 20
-100.8973727503833
 10
99.43492971689474
 20
-101.2649644386595
 10
99.43492971689474
 20
-101.2649644386595
 10
99.43492971689474
 20
-105.7258463277352
 10
99.43492971689474
 20
-105.7258463277352
 10
99.43492971689474
 20
-106.6915065922507
 10
100.220583742306
 20
-107.4773328724362
 10
101.1862440068215
 20
-107.4773328724362
 10
101.1862440068215
 20
-107.4773328724362
 10
107.1862223039326
 20
-107.4773328724362
 10
107.1862223039326
 20
-107.4773328724362
 10
108.1517103136739
 20
-107.4773328724362
 10
108.9371920843109
 20
-106.6915065922507
 10
108.9371920843109
 20
-105.7258463277352
 10
108.9371920843109
 20
-105.7258463277352
 10
108.9371920843109
 20
-100.8742906106321
 10
108.9371920843109
 20
-100.8742906106321
 10
108.9371920843109
 20
-99.27542179592767
 10
107.636668538629
 20
-97.97455374069733
 10
106.0379719786988
 20
-97.97455374069733
 97
        0
 97
        0
 75
     2
 76
     1
 98
        0
  0
SPLINE
  5
50
330
4A
100
AcDbEntity
  8
decoupeINt
370
     0
100
AcDbSpline
210
0.0
220
0.0
230
1.0
 70
    11
 71
     3
 72
    86
 73
    82
 74
     0
 42
0.0000000001
 43
0.0000000001
 12
1.0
 22
0.0
 32
0.0
 13
1.0
 23
0.0
 33
0.0
 40
0.0
 40
0.0
 40
0.0
 40
0.0
 40
1.0
 40
1.0
 40
1.0
 40
2.0
 40
2.0
 40
2.0
 40
3.0
 40
3.0
 40
3.0
 40
4.0
 40
4.0
 40
4.0
 40
5.0
 40
5.0
 40
5.0
 40
6.0
 40
6.0
 40
6.0
 40
7.0
 40
7.0
 40
7.0
 40
8.0
 40
8.0
 40
8.0
 40
9.0
 40
9.0
 40
9.0
 40
10.0
 40
10.0
 40
10.0
 40
11.0
 40
11.0
 40
11.0
 40
12.0
 40
12.0
 40
12.0
 40
13.0
 40
13.0
 40
13.0
 40
14.0
 40
14.0
 40
14.0
 40
15.0
 40
15.0
 40
15.0
 40
16.0
 40
16.0
 40
16.0
 40
17.0
 40
17.0
 40
17.0
 40
18.0
 40
18.0
 40
18.0
 40
19.0
 40
19.0
 40
19.0
 40
20.0
 40
20.0
 40
20.0
 40
21.0
 40
21.0
 40
21.0
 40
22.0
 40
22.0
 40
22.0
 40
23.0
 40
23.0
 40
23.0
 40
24.0
 40
24.0
 40
24.0
 40
25.0
 40
25.0
 40
25.0
 40
26.0
 40
26.0
 40
26.0
 40
27.0
 40
27.0
 40
27.0
 40
27.0
 10
197.9682779452996
 20
-105.2872856724629
 30
0.0
 10
197.7085177457118
 20
-105.0275254728751
 30
0.0
 10
197.5655462830739
 20
-104.6819823957045
 30
0.0
 10
197.5655462830739
 20
-104.3143907074283
 30
0.0
 10
197.5655462830739
 20
-104.3143907074283
 30
0.0
 10
197.5655462830739
 20
-99.85333656357834
 30
0.0
 10
197.5655462830739
 20
-99.85333656357834
 30
0.0
 10
197.5655462830739
 20
-98.8876762990628
 30
0.0
 10
196.7797200028884
 20
-98.10202227365158
 30
0.0
 10
195.8140597383729
 20
-98.10202227365158
 30
0.0
 10
195.8140597383729
 20
-98.10202227365158
 30
0.0
 10
189.8140814412618
 20
-98.10202227365158
 30
0.0
 10
189.8140814412618
 20
-98.10202227365158
 30
0.0
 10
188.8484211767462
 20
-98.10202227365158
 30
0.0
 10
188.0629394061093
 20
-98.8876762990628
 30
0.0
 10
188.0629394061093
 20
-99.85333656357834
 30
0.0
 10
188.0629394061093
 20
-99.85333656357834
 30
0.0
 10
188.0629394061093
 20
-104.7050645354557
 30
0.0
 10
188.0629394061093
 20
-104.7050645354557
 30
0.0
 10
188.0629394061093
 20
-106.3039333501601
 30
0.0
 10
189.3638074613396
 20
-107.6048014053905
 30
0.0
 10
190.9623317664955
 20
-107.6048014053905
 30
0.0
 10
190.9623317664955
 20
-107.6048014053905
 30
0.0
 10
194.0553384931528
 20
-107.6048014053905
 30
0.0
 10
194.0553384931528
 20
-107.6048014053905
 30
0.0
 10
194.422930181429
 20
-107.6048014053905
 30
0.0
 10
194.7684732585996
 20
-107.7477728680283
 30
0.0
 10
195.0282334581874
 20
-108.0075330676162
 30
0.0
 10
195.0282334581874
 20
-108.0075330676162
 30
0.0
 10
197.939683652772
 20
-110.9189832622008
 30
0.0
 10
197.939683652772
 20
-110.9189832622008
 30
0.0
 10
198.0375243645531
 20
-111.0168239739819
 30
0.0
 10
198.1973767950687
 20
-111.0168239739819
 30
0.0
 10
198.2952175068498
 20
-110.9189832622008
 30
0.0
 10
198.3930582186309
 20
-110.8207980408712
 30
0.0
 10
198.3930582186309
 20
-110.6616346294526
 30
0.0
 10
198.2952175068498
 20
-110.563449408123
 30
0.0
 10
198.2952175068498
 20
-110.563449408123
 30
0.0
 10
195.3837673122652
 20
-107.6519992135384
 30
0.0
 10
195.3837673122652
 20
-107.6519992135384
 30
0.0
 10
195.029266986833
 20
-107.2974988881062
 30
0.0
 10
194.5572889053537
 20
-107.1021619740925
 30
0.0
 10
194.0553384931528
 20
-107.1021619740925
 30
0.0
 10
194.0553384931528
 20
-107.1021619740925
 30
0.0
 10
190.9623317664955
 20
-107.1021619740925
 30
0.0
 10
190.9623317664955
 20
-107.1021619740925
 30
0.0
 10
189.6407931383537
 20
-107.1021619740925
 30
0.0
 10
188.5659233469557
 20
-106.026947673146
 30
0.0
 10
188.5659233469557
 20
-104.7050645354557
 30
0.0
 10
188.5659233469557
 20
-104.7050645354557
 30
0.0
 10
188.5659233469557
 20
-99.85333656357834
 30
0.0
 10
188.5659233469557
 20
-99.85333656357834
 30
0.0
 10
188.5659233469557
 20
-99.16483423085116
 30
0.0
 10
189.1257513633088
 20
-98.60466170494954
 30
0.0
 10
189.8140814412618
 20
-98.60466170494954
 30
0.0
 10
189.8140814412618
 20
-98.60466170494954
 30
0.0
 10
195.8140597383729
 20
-98.60466170494954
 30
0.0
 10
195.8140597383729
 20
-98.60466170494954
 30
0.0
 10
196.5027343258743
 20
-98.60466170494954
 30
0.0
 10
197.0625623422274
 20
-99.16483423085116
 30
0.0
 10
197.0625623422274
 20
-99.85333656357834
 30
0.0
 10
197.0625623422274
 20
-99.85333656357834
 30
0.0
 10
197.0625623422274
 20
-104.3143907074283
 30
0.0
 10
197.0625623422274
 20
-104.3143907074283
 30
0.0
 10
197.0625623422274
 20
-104.8163411196293
 30
0.0
 10
197.2578992562411
 20
-105.28797469156
 30
0.0
 10
197.6127440912218
 20
-105.6428195265407
 30
0.0
 10
197.6127440912218
 20
-105.6428195265407
 30
0.0
 10
202.8892523364305
 20
-110.9189832622008
 30
0.0
 10
202.8892523364305
 20
-110.9189832622008
 30
0.0
 10
202.9367946541269
 20
-110.9665255798973
 30
0.0
 10
202.999839901507
 20
-110.9927083055852
 30
0.0
 10
203.0670192634694
 20
-110.9927083055852
 30
0.0
 10
203.1341986254317
 20
-110.9927083055852
 30
0.0
 10
203.1972438728118
 20
-110.9665255798973
 30
0.0
 10
203.2447861905083
 20
-110.9189832622008
 30
0.0
 10
203.3426269022893
 20
-110.8207980408712
 30
0.0
 10
203.3426269022893
 20
-110.6616346294526
 30
0.0
 10
203.2447861905083
 20
-110.563449408123
 30
0.0
 10
203.2447861905083
 20
-110.563449408123
 30
0.0
 10
197.9682779452996
 20
-105.2872856724629
 30
0.0
 10
197.9682779452996
 20
-105.2872856724629
 30
0.0
  0
HATCH
  5
51
330
4A
100
AcDbEntity
  8
decoupeINt
 62
    13
420
 13395302
100
AcDbHatch
 10
0.0
 20
0.0
 30
0.0
210
0.0
220
0.0
230
1.0
  2
SOLID
 70
     1
 71
     0
 91
        1
 92
        1
 93
        1
 72
     4
 94
        3
 73
     0
 74
     1
 95
       86
 96
       82
 40
0.0
 40
0.0
 40
0.0
 40
0.0
 40
1.0
 40
1.0
 40
1.0
 40
2.0
 40
2.0
 40
2.0
 40
3.0
 40
3.0
 40
3.0
 40
4.0
 40
4.0
 40
4.0
 40
5.0
 40
5.0
 40
5.0
 40
6.0
 40
6.0
 40
6.0
 40
7.0
 40
7.0
 40
7.0
 40
8.0
 40
8.0
 40
8.0
 40
9.0
 40
9.0
 40
9.0
 40
10.0
 40
10.0
 40
10.0
 40
11.0
 40
11.0
 40
11.0
 40
12.0
 40
12.0
 40
12.0
 40
13.0
 40
13.0
 40
13.0
 40
14.0
 40
14.0
 40
14.0
 40
15.0
 40
15.0
 40
15.0
 40
16.0
 40
16.0
 40
16.0
 40
17.0
 40
17.0
 40
17.0
 40
18.0
 40
18.0
 40
18.0
 40
19.0
 40
19.0
 40
19.0
 40
20.0
 40
20.0
 40
20.0
 40
21.0
 40
21.0
 40
21.0
 40
22.0
 40
22.0
 40
22.0
 40
23.0
 40
23.0
 40
23.0
 40
24.0
 40
24.0
 40
24.0
 40
25.0
 40
25.0
 40
25.0
 40
26.0
 40
26.0
 40
26.0
 40
27.0
 40
27.0
 40
27.0
 40
27.0
 10
197.9682779452996
 20
-105.2872856724629
 10
197.7085177457118
 20
-105.0275254728751
 10
197.5655462830739
 20
-104.6819823957045
 10
197.5655462830739
 20
-104.3143907074283
 10
197.5655462830739
 20
-104.3143907074283
 10
197.5655462830739
 20
-99.85333656357834
 10
197.5655462830739
 20
-99.85333656357834
 10
197.5655462830739
 20
-98.8876762990628
 10
196.7797200028884
 20
-98.10202227365158
 10
195.8140597383729
 20
-98.10202227365158
 10
195.8140597383729
 20
-98.10202227365158
 10
189.8140814412618
 20
-98.10202227365158
 10
189.8140814412618
 20
-98.10202227365158
 10
188.8484211767462
 20
-98.10202227365158
 10
188.0629394061093
 20
-98.8876762990628
 10
188.0629394061093
 20
-99.85333656357834
 10
188.0629394061093
 20
-99.85333656357834
 10
188.0629394061093
 20
-104.7050645354557
 10
188.0629394061093
 20
-104.7050645354557
 10
188.0629394061093
 20
-106.3039333501601
 10
189.3638074613396
 20
-107.6048014053905
 10
190.9623317664955
 20
-107.6048014053905
 10
190.9623317664955
 20
-107.6048014053905
 10
194.0553384931528
 20
-107.6048014053905
 10
194.0553384931528
 20
-107.6048014053905
 10
194.422930181429
 20
-107.6048014053905
 10
194.7684732585996
 20
-107.7477728680283
 10
195.0282334581874
 20
-108.0075330676162
 10
195.0282334581874
 20
-108.0075330676162
 10
197.939683652772
 20
-110.9189832622008
 10
197.939683652772
 20
-110.9189832622008
 10
198.0375243645531
 20
-111.0168239739819
 10
198.1973767950687
 20
-111.0168239739819
 10
198.2952175068498
 20
-110.9189832622008
 10
198.3930582186309
 20
-110.8207980408712
 10
198.3930582186309
 20
-110.6616346294526
 10
198.2952175068498
 20
-110.563449408123
 10
198.2952175068498
 20
-110.563449408123
 10
195.3837673122652
 20
-107.6519992135384
 10
195.3837673122652
 20
-107.6519992135384
 10
195.029266986833
 20
-107.2974988881062
 10
194.5572889053537
 20
-107.1021619740925
 10
194.0553384931528
 20
-107.1021619740925
 10
194.0553384931528
 20
-107.1021619740925
 10
190.9623317664955
 20
-107.1021619740925
 10
190.9623317664955
 20
-107.1021619740925
 10
189.6407931383537
 20
-107.1021619740925
 10
188.5659233469557
 20
-106.026947673146
 10
188.5659233469557
 20
-104.7050645354557
 10
188.5659233469557
 20
-104.7050645354557
 10
188.5659233469557
 20
-99.85333656357834
 10
188.5659233469557
 20
-99.85333656357834
 10
188.5659233469557
 20
-99.16483423085116
 10
189.1257513633088
 20
-98.60466170494954
 10
189.8140814412618
 20
-98.60466170494954
 10
189.8140814412618
 20
-98.60466170494954
 10
195.8140597383729
 20
-98.60466170494954
 10
195.8140597383729
 20
-98.60466170494954
 10
196.5027343258743
 20
-98.60466170494954
 10
197.0625623422274
 20
-99.16483423085116
 10
197.0625623422274
 20
-99.85333656357834
 10
197.0625623422274
 20
-99.85333656357834
 10
197.0625623422274
 20
-104.3143907074283
 10
197.0625623422274
 20
-104.3143907074283
 10
197.0625623422274
 20
-104.8163411196293
 10
197.2578992562411
 20
-105.28797469156
 10
197.6127440912218
 20
-105.6428195265407
 10
197.6127440912218
 20
-105.6428195265407
 10
202.8892523364305
 20
-110.9189832622008
 10
202.8892523364305
 20
-110.9189832622008
 10
202.9367946541269
 20
-110.9665255798973
 10
202.999839901507
 20
-110.9927083055852
 10
203.0670192634694
 20
-110.9927083055852
 10
203.1341986254317
 20
-110.9927083055852
 10
203.1972438728118
 20
-110.9665255798973
 10
203.2447861905083
 20
-110.9189832622008
 10
203.3426269022893
 20
-110.8207980408712
 10
203.3426269022893
 20
-110.6616346294526
 10
203.2447861905083
 20
-110.563449408123
 10
203.2447861905083
 20
-110.563449408123
 10
197.9682779452996
 20
-105.2872856724629
 10
197.9682779452996
 20
-105.2872856724629
 97
        0
 97
        0
 75
     2
 76
     1
 98
        0
  0
SPLINE
  5
52
330
4A
100
AcDbEntity
  8
decoupeINt
370
     0
100
AcDbSpline
210
0.0
220
0.0
230
1.0
 70
    11
 71
     3
 72
    86
 73
    82
 74
     0
 42
0.0000000001
 43
0.0000000001
 12
1.0
 22
0.0
 32
0.0
 13
1.0
 23
0.0
 33
0.0
 40
0.0
 40
0.0
 40
0.0
 40
0.0
 40
1.0
 40
1.0
 40
1.0
 40
2.0
 40
2.0
 40
2.0
 40
3.0
 40
3.0
 40
3.0
 40
4.0
 40
4.0
 40
4.0
 40
5.0
 40
5.0
 40
5.0
 40
6.0
 40
6.0
 40
6.0
 40
7.0
 40
7.0
 40
7.0
 40
8.0
 40
8.0
 40
8.0
 40
9.0
 40
9.0
 40
9.0
 40
10.0
 40
10.0
 40
10.0
 40
11.0
 40
11.0
 40
11.0
 40
12.0
 40
12.0
 40
12.0
 40
13.0
 40
13.0
 40
13.0
 40
14.0
 40
14.0
 40
14.0
 40
15.0
 40
15.0
 40
15.0
 40
16.0
 40
16.0
 40
16.0
 40
17.0
 40
17.0
 40
17.0
 40
18.0
 40
18.0
 40
18.0
 40
19.0
 40
19.0
 40
19.0
 40
20.0
 40
20.0
 40
20.0
 40
21.0
 40
21.0
 40
21.0
 40
22.0
 40
22.0
 40
22.0
 40
23.0
 40
23.0
 40
23.0
 40
24.0
 40
24.0
 40
24.0
 40
25.0
 40
25.0
 40
25.0
 40
26.0
 40
26.0
 40
26.0
 40
27.0
 40
27.0
 40
27.0
 40
27.0
 10
221.2447210818416
 20
-110.563449408123
 30
0.0
 10
221.2447210818416
 20
-110.563449408123
 30
0.0
 10
215.9682128366329
 20
-105.2872856724629
 30
0.0
 10
215.9682128366329
 20
-105.2872856724629
 30
0.0
 10
215.7084526370451
 20
-105.0275254728751
 30
0.0
 10
215.5654811744072
 20
-104.6819823957045
 30
0.0
 10
215.5654811744072
 20
-104.3143907074283
 30
0.0
 10
215.5654811744072
 20
-104.3143907074283
 30
0.0
 10
215.5654811744072
 20
-99.85333656357834
 30
0.0
 10
215.5654811744072
 20
-99.85333656357834
 30
0.0
 10
215.5654811744072
 20
-98.8876762990628
 30
0.0
 10
214.7796548942217
 20
-98.10202227365158
 30
0.0
 10
213.8139946297062
 20
-98.10202227365158
 30
0.0
 10
213.8139946297062
 20
-98.10202227365158
 30
0.0
 10
207.8140163325951
 20
-98.10202227365158
 30
0.0
 10
207.8140163325951
 20
-98.10202227365158
 30
0.0
 10
206.8483560680796
 20
-98.10202227365158
 30
0.0
 10
206.0628742974426
 20
-98.8876762990628
 30
0.0
 10
206.0628742974426
 20
-99.85333656357834
 30
0.0
 10
206.0628742974426
 20
-99.85333656357834
 30
0.0
 10
206.0628742974426
 20
-104.7050645354557
 30
0.0
 10
206.0628742974426
 20
-104.7050645354557
 30
0.0
 10
206.0628742974426
 20
-106.3039333501601
 30
0.0
 10
207.363742352673
 20
-107.6048014053905
 30
0.0
 10
208.9622666578289
 20
-107.6048014053905
 30
0.0
 10
208.9622666578289
 20
-107.6048014053905
 30
0.0
 10
212.0552733844862
 20
-107.6048014053905
 30
0.0
 10
212.0552733844862
 20
-107.6048014053905
 30
0.0
 10
212.4228650727624
 20
-107.6048014053905
 30
0.0
 10
212.7684081499329
 20
-107.7477728680283
 30
0.0
 10
213.0281683495207
 20
-108.0075330676162
 30
0.0
 10
213.0281683495207
 20
-108.0075330676162
 30
0.0
 10
215.9396185441054
 20
-110.9189832622008
 30
0.0
 10
215.9396185441054
 20
-110.9189832622008
 30
0.0
 10
216.0374592558865
 20
-111.0168239739819
 30
0.0
 10
216.1973116864021
 20
-111.0168239739819
 30
0.0
 10
216.2951523981832
 20
-110.9189832622008
 30
0.0
 10
216.3929931099643
 20
-110.8207980408712
 30
0.0
 10
216.3929931099643
 20
-110.6616346294526
 30
0.0
 10
216.2951523981832
 20
-110.563449408123
 30
0.0
 10
216.2951523981832
 20
-110.563449408123
 30
0.0
 10
213.3837022035985
 20
-107.6519992135384
 30
0.0
 10
213.3837022035985
 20
-107.6519992135384
 30
0.0
 10
213.0292018781663
 20
-107.2974988881062
 30
0.0
 10
212.5572237966871
 20
-107.1021619740925
 30
0.0
 10
212.0552733844862
 20
-107.1021619740925
 30
0.0
 10
212.0552733844862
 20
-107.1021619740925
 30
0.0
 10
208.9622666578289
 20
-107.1021619740925
 30
0.0
 10
208.9622666578289
 20
-107.1021619740925
 30
0.0
 10
207.640728029687
 20
-107.1021619740925
 30
0.0
 10
206.5658582382891
 20
-106.026947673146
 30
0.0
 10
206.5658582382891
 20
-104.7050645354557
 30
0.0
 10
206.5658582382891
 20
-104.7050645354557
 30
0.0
 10
206.5658582382891
 20
-99.85333656357834
 30
0.0
 10
206.5658582382891
 20
-99.85333656357834
 30
0.0
 10
206.5658582382891
 20
-99.16483423085116
 30
0.0
 10
207.1256862546422
 20
-98.60466170494954
 30
0.0
 10
207.8140163325951
 20
-98.60466170494954
 30
0.0
 10
207.8140163325951
 20
-98.60466170494954
 30
0.0
 10
213.8139946297062
 20
-98.60466170494954
 30
0.0
 10
213.8139946297062
 20
-98.60466170494954
 30
0.0
 10
214.5026692172077
 20
-98.60466170494954
 30
0.0
 10
215.0624972335608
 20
-99.16483423085116
 30
0.0
 10
215.0624972335608
 20
-99.85333656357834
 30
0.0
 10
215.0624972335608
 20
-99.85333656357834
 30
0.0
 10
215.0624972335608
 20
-104.3143907074283
 30
0.0
 10
215.0624972335608
 20
-104.3143907074283
 30
0.0
 10
215.0624972335608
 20
-104.8163411196293
 30
0.0
 10
215.2578341475744
 20
-105.28797469156
 30
0.0
 10
215.6126789825552
 20
-105.6428195265407
 30
0.0
 10
215.6126789825552
 20
-105.6428195265407
 30
0.0
 10
220.8891872277638
 20
-110.9189832622008
 30
0.0
 10
220.8891872277638
 20
-110.9189832622008
 30
0.0
 10
220.9367295454603
 20
-110.9665255798973
 30
0.0
 10
220.9997747928404
 20
-110.9927083055852
 30
0.0
 10
221.0669541548027
 20
-110.9927083055852
 30
0.0
 10
221.1341335167651
 20
-110.9927083055852
 30
0.0
 10
221.1971787641451
 20
-110.9665255798973
 30
0.0
 10
221.2447210818416
 20
-110.9189832622008
 30
0.0
 10
221.3425617936227
 20
-110.8207980408712
 30
0.0
 10
221.3425617936227
 20
-110.6616346294526
 30
0.0
 10
221.2447210818416
 20
-110.563449408123
 30
0.0
  0
HATCH
  5
53
330
4A
100
AcDbEntity
  8
decoupeINt
 62
    13
420
 13395302
100
AcDbHatch
 10
0.0
 20
0.0
 30
0.0
210
0.0
220
0.0
230
1.0
  2
SOLID
 70
     1
 71
     0
 91
        1
 92
        1
 93
        1
 72
     4
 94
        3
 73
     0
 74
     1
 95
       86
 96
       82
 40
0.0
 40
0.0
 40
0.0
 40
0.0
 40
1.0
 40
1.0
 40
1.0
 40
2.0
 40
2.0
 40
2.0
 40
3.0
 40
3.0
 40
3.0
 40
4.0
 40
4.0
 40
4.0
 40
5.0
 40
5.0
 40
5.0
 40
6.0
 40
6.0
 40
6.0
 40
7.0
 40
7.0
 40
7.0
 40
8.0
 40
8.0
 40
8.0
 40
9.0
 40
9.0
 40
9.0
 40
10.0
 40
10.0
 40
10.0
 40
11.0
 40
11.0
 40
11.0
 40
12.0
 40
12.0
 40
12.0
 40
13.0
 40
13.0
 40
13.0
 40
14.0
 40
14.0
 40
14.0
 40
15.0
 40
15.0
 40
15.0
 40
16.0
 40
16.0
 40
16.0
 40
17.0
 40
17.0
 40
17.0
 40
18.0
 40
18.0
 40
18.0
 40
19.0
 40
19.0
 40
19.0
 40
20.0
 40
20.0
 40
20.0
 40
21.0
 40
21.0
 40
21.0
 40
22.0
 40
22.0
 40
22.0
 40
23.0
 40
23.0
 40
23.0
 40
24.0
 40
24.0
 40
24.0
 40
25.0
 40
25.0
 40
25.0
 40
26.0
 40
26.0
 40
26.0
 40
27.0
 40
27.0
 40
27.0
 40
27.0
 10
221.2447210818416
 20
-110.563449408123
 10
221.2447210818416
 20
-110.563449408123
 10
215.9682128366329
 20
-105.2872856724629
 10
215.9682128366329
 20
-105.2872856724629
 10
215.7084526370451
 20
-105.0275254728751
 10
215.5654811744072
 20
-104.6819823957045
 10
215.5654811744072
 20
-104.3143907074283
 10
215.5654811744072
 20
-104.3143907074283
 10
215.5654811744072
 20
-99.85333656357834
 10
215.5654811744072
 20
-99.85333656357834
 10
215.5654811744072
 20
-98.8876762990628
 10
214.7796548942217
 20
-98.10202227365158
 10
213.8139946297062
 20
-98.10202227365158
 10
213.8139946297062
 20
-98.10202227365158
 10
207.8140163325951
 20
-98.10202227365158
 10
207.8140163325951
 20
-98.10202227365158
 10
206.8483560680796
 20
-98.10202227365158
 10
206.0628742974426
 20
-98.8876762990628
 10
206.0628742974426
 20
-99.85333656357834
 10
206.0628742974426
 20
-99.85333656357834
 10
206.0628742974426
 20
-104.7050645354557
 10
206.0628742974426
 20
-104.7050645354557
 10
206.0628742974426
 20
-106.3039333501601
 10
207.363742352673
 20
-107.6048014053905
 10
208.9622666578289
 20
-107.6048014053905
 10
208.9622666578289
 20
-107.6048014053905
 10
212.0552733844862
 20
-107.6048014053905
 10
212.0552733844862
 20
-107.6048014053905
 10
212.4228650727624
 20
-107.6048014053905
 10
212.7684081499329
 20
-107.7477728680283
 10
213.0281683495207
 20
-108.0075330676162
 10
213.0281683495207
 20
-108.0075330676162
 10
215.9396185441054
 20
-110.9189832622008
 10
215.9396185441054
 20
-110.9189832622008
 10
216.0374592558865
 20
-111.0168239739819
 10
216.1973116864021
 20
-111.0168239739819
 10
216.2951523981832
 20
-110.9189832622008
 10
216.3929931099643
 20
-110.8207980408712
 10
216.3929931099643
 20
-110.6616346294526
 10
216.2951523981832
 20
-110.563449408123
 10
216.2951523981832
 20
-110.563449408123
 10
213.3837022035985
 20
-107.6519992135384
 10
213.3837022035985
 20
-107.6519992135384
 10
213.0292018781663
 20
-107.2974988881062
 10
212.5572237966871
 20
-107.1021619740925
 10
212.0552733844862
 20
-107.1021619740925
 10
212.0552733844862
 20
-107.1021619740925
 10
208.9622666578289
 20
-107.1021619740925
 10
208.9622666578289
 20
-107.1021619740925
 10
207.640728029687
 20
-107.1021619740925
 10
206.5658582382891
 20
-106.026947673146
 10
206.5658582382891
 20
-104.7050645354557
 10
206.5658582382891
 20
-104.7050645354557
 10
206.5658582382891
 20
-99.85333656357834
 10
206.5658582382891
 20
-99.85333656357834
 10
206.5658582382891
 20
-99.16483423085116
 10
207.1256862546422
 20
-98.60466170494954
 10
207.8140163325951
 20
-98.60466170494954
 10
207.8140163325951
 20
-98.60466170494954
 10
213.8139946297062
 20
-98.60466170494954
 10
213.8139946297062
 20
-98.60466170494954
 10
214.5026692172077
 20
-98.60466170494954
 10
215.0624972335608
 20
-99.16483423085116
 10
215.0624972335608
 20
-99.85333656357834
 10
215.0624972335608
 20
-99.85333656357834
 10
215.0624972335608
 20
-104.3143907074283
 10
215.0624972335608
 20
-104.3143907074283
 10
215.0624972335608
 20
-104.8163411196293
 10
215.2578341475744
 20
-105.28797469156
 10
215.6126789825552
 20
-105.6428195265407
 10
215.6126789825552
 20
-105.6428195265407
 10
220.8891872277638
 20
-110.9189832622008
 10
220.8891872277638
 20
-110.9189832622008
 10
220.9367295454603
 20
-110.9665255798973
 10
220.9997747928404
 20
-110.9927083055852
 10
221.0669541548027
 20
-110.9927083055852
 10
221.1341335167651
 20
-110.9927083055852
 10
221.1971787641451
 20
-110.9665255798973
 10
221.2447210818416
 20
-110.9189832622008
 10
221.3425617936227
 20
-110.8207980408712
 10
221.3425617936227
 20
-110.6616346294526
 10
221.2447210818416
 20
-110.563449408123
 97
        0
 97
        0
 75
     2
 76
     1
 98
        0
  0
ENDBLK
  5
4D
330
4A
100
AcDbEntity
  8
0
100
AcDbBlockEnd
  0
ENDSEC
  0
SECTION
  2
ENTITIES
  0
SPLINE
  5
41
330
1F
100
AcDbEntity
  8
decoupeINt
370
     0
100
AcDbSpline
210
0.0
220
0.0
230
1.0
 70
    11
 71
     3
 72
    29
 73
    25
 74
     0
 42
0.0000000001
 43
0.0000000001
 12
1.0
 22
0.0
 32
0.0
 13
1.0
 23
0.0
 33
0.0
 40
0.0
 40
0.0
 40
0.0
 40
0.0
 40
1.0
 40
1.0
 40
1.0
 40
2.0
 40
2.0
 40
2.0
 40
3.0
 40
3.0
 40
3.0
 40
4.0
 40
4.0
 40
4.0
 40
5.0
 40
5.0
 40
5.0
 40
6.0
 40
6.0
 40
6.0
 40
7.0
 40
7.0
 40
7.0
 40
8.0
 40
8.0
 40
8.0
 40
8.0
 10
253.4529187734423
 20
-91.97922632249131
 30
0.0
 10
253.4529187734423
 20
-91.97922632249131
 30
0.0
 10
244.1583956637868
 20
-91.97922632249131
 30
0.0
 10
244.1583956637868
 20
-91.97922632249131
 30
0.0
 10
244.0202473348283
 20
-91.97922632249131
 30
0.0
 10
243.9082817315577
 20
-92.09101967098766
 30
0.0
 10
243.9082817315577
 20
-92.22916799994618
 30
0.0
 10
243.9082817315577
 20
-92.22916799994618
 30
0.0
 10
243.9082817315577
 20
-101.7238511572947
 30
0.0
 10
243.9082817315577
 20
-101.7238511572947
 30
0.0
 10
243.9082817315577
 20
-101.8619994862533
 30
0.0
 10
244.0202473348283
 20
-101.9737928347496
 30
0.0
 10
244.1583956637868
 20
-101.9737928347496
 30
0.0
 10
244.1583956637868
 20
-101.9737928347496
 30
0.0
 10
253.4529187734423
 20
-101.9737928347496
 30
0.0
 10
253.4529187734423
 20
-101.9737928347496
 30
0.0
 10
253.5910671024008
 20
-101.9737928347496
 30
0.0
 10
253.7030327056715
 20
-101.8619994862533
 30
0.0
 10
253.7030327056715
 20
-101.7238511572947
 30
0.0
 10
253.7030327056715
 20
-101.7238511572947
 30
0.0
 10
253.7030327056715
 20
-92.22916799994618
 30
0.0
 10
253.7030327056715
 20
-92.22916799994618
 30
0.0
 10
253.7030327056715
 20
-92.09101967098766
 30
0.0
 10
253.5910671024008
 20
-91.97922632249131
 30
0.0
 10
253.4529187734423
 20
-91.97922632249131
 30
0.0
  0
POLYLINE
  5
42
330
1F
100
AcDbEntity
  8
decoupeINt
370
     0
100
AcDb2dPolyline
 66
     1
 10
0.0
 20
0.0
 30
0.0
  0
VERTEX
  5
43
330
42
100
AcDbEntity
  8
decoupeINt
370
     0
100
AcDbVertex
100
AcDb2dVertex
 10
253.2028048412132
 20
-101.4739094798399
 30
0.0
  0
VERTEX
  5
44
330
42
100
AcDbEntity
  8
decoupeINt
370
     0
100
AcDbVertex
100
AcDb2dVertex
 10
244.4085095960159
 20
-101.4739094798399
 30
0.0
  0
VERTEX
  5
45
330
42
100
AcDbEntity
  8
decoupeINt
370
     0
100
AcDbVertex
100
AcDb2dVertex
 10
244.4085095960159
 20
-92.47910967740106
 30
0.0
  0
VERTEX
  5
46
330
42
100
AcDbEntity
  8
decoupeINt
370
     0
100
AcDbVertex
100
AcDb2dVertex
 10
253.2028048412132
 20
-92.47910967740106
 30
0.0
  0
VERTEX
  5
47
330
42
100
AcDbEntity
  8
decoupeINt
370
     0
100
AcDbVertex
100
AcDb2dVertex
 10
253.2028048412132
 20
-101.4739094798399
 30
0.0
  0
SEQEND
  5
48
330
42
100
AcDbEntity
  8
decoupeINt
370
     0
  0
HATCH
  5
49
330
1F
100
AcDbEntity
  8
decoupeINt
 62
    13
420
 13395302
100
AcDbHatch
 10
0.0
 20
0.0
 30
0.0
210
0.0
220
0.0
230
1.0
  2
SOLID
 70
     1
 71
     0
 91
        2
 92
        1
 93
        1
 72
     4
 94
        3
 73
     0
 74
     1
 95
       29
 96
       25
 40
0.0
 40
0.0
 40
0.0
 40
0.0
 40
1.0
 40
1.0
 40
1.0
 40
2.0
 40
2.0
 40
2.0
 40
3.0
 40
3.0
 40
3.0
 40
4.0
 40
4.0
 40
4.0
 40
5.0
 40
5.0
 40
5.0
 40
6.0
 40
6.0
 40
6.0
 40
7.0
 40
7.0
 40
7.0
 40
8.0
 40
8.0
 40
8.0
 40
8.0
 10
253.4529187734423
 20
-91.97922632249131
 10
253.4529187734423
 20
-91.97922632249131
 10
244.1583956637868
 20
-91.97922632249131
 10
244.1583956637868
 20
-91.97922632249131
 10
244.0202473348283
 20
-91.97922632249131
 10
243.9082817315577
 20
-92.09101967098766
 10
243.9082817315577
 20
-92.22916799994618
 10
243.9082817315577
 20
-92.22916799994618
 10
243.9082817315577
 20
-101.7238511572947
 10
243.9082817315577
 20
-101.7238511572947
 10
243.9082817315577
 20
-101.8619994862533
 10
244.0202473348283
 20
-101.9737928347496
 10
244.1583956637868
 20
-101.9737928347496
 10
244.1583956637868
 20
-101.9737928347496
 10
253.4529187734423
 20
-101.9737928347496
 10
253.4529187734423
 20
-101.9737928347496
 10
253.5910671024008
 20
-101.9737928347496
 10
253.7030327056715
 20
-101.8619994862533
 10
253.7030327056715
 20
-101.7238511572947
 10
253.7030327056715
 20
-101.7238511572947
 10
253.7030327056715
 20
-92.22916799994618
 10
253.7030327056715
 20
-92.22916799994618
 10
253.7030327056715
 20
-92.09101967098766
 10
253.5910671024008
 20
-91.97922632249131
 10
253.4529187734423
 20
-91.97922632249131
 97
        0
 97
        0
 92
        1
 93
        4
 72
     1
 10
253.2028048412132
 20
-101.4739094798399
 11
244.4085095960159
 21
-101.4739094798399
 72
     1
 10
244.4085095960159
 20
-101.4739094798399
 11
244.4085095960159
 21
-92.47910967740106
 72
     1
 10
244.4085095960159
 20
-92.47910967740106
 11
253.2028048412132
 21
-92.47910967740106
 72
     1
 10
253.2028048412132
 20
-92.47910967740106
 11
253.2028048412132
 21
-101.4739094798399
 97
        0
 75
     2
 76
     1
 98
        0
  0
INSERT
  5
4B
330
1F
100
AcDbEntity
  8
decoupeINt
100
AcDbBlockReference
  2
block 2
 10
0.0
 20
0.0
 30
0.0
  0
SPLINE
  5
54
330
1F
100
AcDbEntity
  8
decoupeINt
 62
    13
420
 13395302
370
    35
100
AcDbSpline
210
0.0
220
0.0
230
1.0
 70
    11
 71
     3
 72
    29
 73
    25
 74
     0
 42
0.0000000001
 43
0.0000000001
 12
1.0
 22
0.0
 32
0.0
 13
1.0
 23
0.0
 33
0.0
 40
0.0
 40
0.0
 40
0.0
 40
0.0
 40
1.0
 40
1.0
 40
1.0
 40
2.0
 40
2.0
 40
2.0
 40
3.0
 40
3.0
 40
3.0
 40
4.0
 40
4.0
 40
4.0
 40
5.0
 40
5.0
 40
5.0
 40
6.0
 40
6.0
 40
6.0
 40
7.0
 40
7.0
 40
7.0
 40
8.0
 40
8.0
 40
8.0
 40
8.0
 10
174.5900416230186
 20
-110.1629473733472
 30
0.0
 10
174.5900416230186
 20
-110.1629473733472
 30
0.0
 10
122.4100416360639
 20
-110.1629473733472
 30
0.0
 10
122.4100416360639
 20
-110.1629473733472
 30
0.0
 10
122.1350416361329
 20
-110.1629473733472
 30
0.0
 10
121.9100416361893
 20
-109.9379473734035
 30
0.0
 10
121.9100416361893
 20
-109.6629473734719
 30
0.0
 10
121.9100416361893
 20
-109.6629473734719
 30
0.0
 10
121.9100416361893
 20
-95.88294737691744
 30
0.0
 10
121.9100416361893
 20
-95.88294737691744
 30
0.0
 10
121.9100416361893
 20
-95.60794737698585
 30
0.0
 10
122.1350416361329
 20
-95.38294737704223
 30
0.0
 10
122.4100416360639
 20
-95.38294737704223
 30
0.0
 10
122.4100416360639
 20
-95.38294737704223
 30
0.0
 10
174.5900416230186
 20
-95.38294737704223
 30
0.0
 10
174.5900416230186
 20
-95.38294737704223
 30
0.0
 10
174.8650416229502
 20
-95.38294737704223
 30
0.0
 10
175.0900416228938
 20
-95.60794737698585
 30
0.0
 10
175.0900416228938
 20
-95.88294737691744
 30
0.0
 10
175.0900416228938
 20
-95.88294737691744
 30
0.0
 10
175.0900416228938
 20
-109.6629473734719
 30
0.0
 10
175.0900416228938
 20
-109.6629473734719
 30
0.0
 10
175.0900416228938
 20
-109.9379473734035
 30
0.0
 10
174.8650416229502
 20
-110.1629473733472
 30
0.0
 10
174.5900416230186
 20
-110.1629473733472
 30
0.0
  0
ENDSEC
  0
SECTION
  2
OBJECTS
  0
DICTIONARY
  5
C
330
0
100
AcDbDictionary
281
     1
  3
ACAD_GROUP
350
D
  3
ACAD_LAYOUT
350
1A
  3
ACAD_MATERIAL
350
3B
  3
ACAD_MLEADERSTYLE
350
56
  3
ACAD_MLINESTYLE
350
17
  3
ACAD_PLOTSETTINGS
350
19
  3
ACAD_PLOTSTYLENAME
350
E
  3
ACAD_TABLESTYLE
350
55
  3
ACAD_VISUALSTYLE
350
2A
  0
SUN
  5
3F
330
29
100
AcDbSun
 90
        1
290
     0
 63
     7
421
 16777215
 40
1.0
291
     1
 91
  2455826
 92
 54000000
292
     0
 70
     2
 71
   256
280
     1
  0
DICTIONARY
  5
D
102
{ACAD_REACTORS
330
C
102
}
330
C
100
AcDbDictionary
281
     1
  0
DICTIONARY
  5
1A
102
{ACAD_REACTORS
330
C
102
}
330
C
100
AcDbDictionary
281
     1
  3
Layout1
350
1E
  3
Layout2
350
26
  3
Model
350
22
  0
DICTIONARY
  5
3B
102
{ACAD_REACTORS
330
C
102
}
330
C
100
AcDbDictionary
281
     1
  3
ByBlock
350
3D
  3
ByLayer
350
3C
  3
Global
350
3E
  0
DICTIONARY
  5
56
102
{ACAD_REACTORS
330
C
102
}
330
C
100
AcDbDictionary
281
     1
  0
DICTIONARY
  5
17
102
{ACAD_REACTORS
330
C
102
}
330
C
100
AcDbDictionary
281
     1
  3
Standard
350
18
  0
DICTIONARY
  5
19
102
{ACAD_REACTORS
330
C
102
}
330
C
100
AcDbDictionary
281
     1
  0
ACDBDICTIONARYWDFLT
  5
E
102
{ACAD_REACTORS
330
C
102
}
330
C
100
AcDbDictionary
281
     1
  3
Normal
350
F
100
AcDbDictionaryWithDefault
340
F
  0
DICTIONARY
  5
55
102
{ACAD_REACTORS
330
C
102
}
330
C
100
AcDbDictionary
281
     1
  0
DICTIONARY
  5
2A
102
{ACAD_REACTORS
330
C
102
}
330
C
100
AcDbDictionary
281
     1
  3
2dWireframe
350
2F
  3
3D Hidden
350
31
  3
3dWireframe
350
30
  3
Basic
350
32
  3
Brighten
350
36
  3
ColorChange
350
3A
  3
Conceptual
350
34
  3
Dim
350
35
  3
Facepattern
350
39
  3
Flat
350
2B
  3
FlatWithEdges
350
2C
  3
Gouraud
350
2D
  3
GouraudWithEdges
350
2E
  3
Linepattern
350
38
  3
Realistic
350
33
  3
Thicken
350
37
  0
LAYOUT
  5
1E
102
{ACAD_REACTORS
330
1A
102
}
330
1A
100
AcDbPlotSettings
  1

  2
none_device
  4

  6

 40
0.0
 41
0.0
 42
0.0
 43
0.0
 44
0.0
 45
0.0
 46
0.0
 47
0.0
 48
0.0
 49
0.0
140
0.0
141
0.0
142
1.0
143
1.0
 70
   688
 72
     0
 73
     0
 74
     5
  7

 75
    16
 76
     0
 77
     2
 78
   300
147
1.0
148
0.0
149
0.0
100
AcDbLayout
  1
Layout1
 70
     1
 71
     1
 10
0.0
 20
0.0
 11
12.0
 21
9.0
 12
0.0
 22
0.0
 32
0.0
 14
1.000000000000000E+20
 24
1.000000000000000E+20
 34
1.000000000000000E+20
 15
-1.000000000000000E+20
 25
-1.000000000000000E+20
 35
-1.000000000000000E+20
146
0.0
 13
0.0
 23
0.0
 33
0.0
 16
1.0
 26
0.0
 36
0.0
 17
0.0
 27
1.0
 37
0.0
 76
     0
330
1B
  0
LAYOUT
  5
26
102
{ACAD_REACTORS
330
1A
102
}
330
1A
100
AcDbPlotSettings
  1

  2
none_device
  4

  6

 40
0.0
 41
0.0
 42
0.0
 43
0.0
 44
0.0
 45
0.0
 46
0.0
 47
0.0
 48
0.0
 49
0.0
140
0.0
141
0.0
142
1.0
143
1.0
 70
   688
 72
     0
 73
     0
 74
     5
  7

 75
    16
 76
     0
 77
     2
 78
   300
147
1.0
148
0.0
149
0.0
100
AcDbLayout
  1
Layout2
 70
     1
 71
     2
 10
0.0
 20
0.0
 11
0.0
 21
0.0
 12
0.0
 22
0.0
 32
0.0
 14
0.0
 24
0.0
 34
0.0
 15
0.0
 25
0.0
 35
0.0
146
0.0
 13
0.0
 23
0.0
 33
0.0
 16
1.0
 26
0.0
 36
0.0
 17
0.0
 27
1.0
 37
0.0
 76
     0
330
23
  0
LAYOUT
  5
22
102
{ACAD_REACTORS
330
1A
102
}
330
1A
100
AcDbPlotSettings
  1

  2
none_device
  4

  6

 40
0.0
 41
0.0
 42
0.0
 43
0.0
 44
0.0
 45
0.0
 46
0.0
 47
0.0
 48
0.0
 49
0.0
140
0.0
141
0.0
142
1.0
143
1.0
 70
  1712
 72
     0
 73
     0
 74
     0
  7

 75
     0
 76
     0
 77
     2
 78
   300
147
1.0
148
0.0
149
0.0
100
AcDbLayout
  1
Model
 70
     1
 71
     0
 10
0.0
 20
0.0
 11
12.0
 21
9.0
 12
0.0
 22
0.0
 32
0.0
 14
1.000000000000000E+20
 24
1.000000000000000E+20
 34
1.000000000000000E+20
 15
-1.000000000000000E+20
 25
-1.000000000000000E+20
 35
-1.000000000000000E+20
146
0.0
 13
0.0
 23
0.0
 33
0.0
 16
1.0
 26
0.0
 36
0.0
 17
0.0
 27
1.0
 37
0.0
 76
     0
330
1F
331
29
  0
MATERIAL
  5
3D
102
{ACAD_REACTORS
330
3B
102
}
330
3B
100
AcDbMaterial
  1
ByBlock
 72
     1
 94
      127
  0
MATERIAL
  5
3C
102
{ACAD_REACTORS
330
3B
102
}
330
3B
100
AcDbMaterial
  1
ByLayer
 72
     1
 94
      127
  0
MATERIAL
  5
3E
102
{ACAD_REACTORS
330
3B
102
}
330
3B
100
AcDbMaterial
  1
Global
 72
     1
 94
      127
  0
MLINESTYLE
  5
18
102
{ACAD_REACTORS
330
17
102
}
330
17
100
AcDbMlineStyle
  2
Standard
 70
     0
  3

 62
   256
 51
90.0
 52
90.0
 71
     2
 49
0.5
 62
   256
  6
BYLAYER
 49
-0.5
 62
   256
  6
BYLAYER
  0
ACDBPLACEHOLDER
  5
F
102
{ACAD_REACTORS
330
E
102
}
330
E
  0
VISUALSTYLE
  5
2F
102
{ACAD_REACTORS
330
2A
102
}
330
2A
100
AcDbVisualStyle
  2
2dWireframe
 70
     4
177
     2
291
     0
 71
     0
176
     1
 72
     2
176
     1
 73
     0
176
     1
 90
        0
176
     1
 40
-0.6
176
     1
 41
-30.0
176
     1
 62
     5
 63
     7
421
 16777215
176
     1
 74
     1
176
     1
 91
        4
176
     1
 64
     7
176
     1
 65
   257
176
     1
 75
     1
176
     1
175
     1
176
     1
 42
1.0
176
     1
 92
        0
176
     1
 66
   257
176
     1
 43
1.0
176
     1
 76
     1
176
     1
 77
     6
176
     1
 78
     2
176
     1
 67
     7
176
     1
 79
     5
176
     1
170
     0
176
     1
171
     0
176
     1
290
     0
176
     1
 93
        1
176
     1
 44
0.0
176
     1
173
     0
176
     1
  0
VISUALSTYLE
  5
31
102
{ACAD_REACTORS
330
2A
102
}
330
2A
100
AcDbVisualStyle
  2
3D Hidden
 70
     6
177
     2
291
     0
 71
     1
176
     1
 72
     2
176
     1
 73
     2
176
     1
 90
        0
176
     1
 40
-0.6
176
     1
 41
-30.0
176
     1
 62
     5
 63
     7
421
 16777215
176
     1
 74
     2
176
     1
 91
        2
176
     1
 64
     7
176
     1
 65
   257
176
     1
 75
     2
176
     1
175
     1
176
     1
 42
40.0
176
     1
 92
        0
176
     1
 66
   257
176
     1
 43
1.0
176
     1
 76
     1
176
     1
 77
     6
176
     1
 78
     2
176
     1
 67
     7
176
     1
 79
     3
176
     1
170
     0
176
     1
171
     0
176
     1
290
     0
176
     1
 93
        1
176
     1
 44
0.0
176
     1
173
     0
176
     1
  0
VISUALSTYLE
  5
30
102
{ACAD_REACTORS
330
2A
102
}
330
2A
100
AcDbVisualStyle
  2
3dWireframe
 70
     5
177
     2
291
     0
 71
     0
176
     1
 72
     2
176
     1
 73
     0
176
     1
 90
        0
176
     1
 40
-0.6
176
     1
 41
-30.0
176
     1
 62
     5
 63
     7
421
 16777215
176
     1
 74
     1
176
     1
 91
        4
176
     1
 64
     7
176
     1
 65
   257
176
     1
 75
     1
176
     1
175
     1
176
     1
 42
1.0
176
     1
 92
        0
176
     1
 66
   257
176
     1
 43
1.0
176
     1
 76
     1
176
     1
 77
     6
176
     1
 78
     2
176
     1
 67
     7
176
     1
 79
     5
176
     1
170
     0
176
     1
171
     0
176
     1
290
     0
176
     1
 93
        1
176
     1
 44
0.0
176
     1
173
     0
176
     1
  0
VISUALSTYLE
  5
32
102
{ACAD_REACTORS
330
2A
102
}
330
2A
100
AcDbVisualStyle
  2
Basic
 70
     7
177
     2
291
     1
 71
     1
176
     1
 72
     0
176
     1
 73
     1
176
     1
 90
        0
176
     1
 40
-0.6
176
     1
 41
-30.0
176
     1
 62
     5
 63
     7
421
 16777215
176
     1
 74
     0
176
     1
 91
        4
176
     1
 64
     7
176
     1
 65
   257
176
     1
 75
     1
176
     1
175
     1
176
     1
 42
1.0
176
     1
 92
        8
176
     1
 66
     7
176
     1
 43
1.0
176
     1
 76
     1
176
     1
 77
     6
176
     1
 78
     2
176
     1
 67
     7
176
     1
 79
     5
176
     1
170
     0
176
     1
171
     0
176
     1
290
     0
176
     1
 93
        1
176
     1
 44
0.0
176
     1
173
     0
176
     1
  0
VISUALSTYLE
  5
36
102
{ACAD_REACTORS
330
2A
102
}
330
2A
100
AcDbVisualStyle
  2
Brighten
 70
    12
177
     2
291
     1
 71
     2
176
     1
 72
     2
176
     1
 73
     0
176
     1
 90
        0
176
     1
 40
-0.6
176
     1
 41
-30.0
176
     1
 62
     5
 63
     7
421
 16777215
176
     1
 74
     1
176
     1
 91
        4
176
     1
 64
     7
176
     1
 65
   257
176
     1
 75
     1
176
     1
175
     1
176
     1
 42
1.0
176
     1
 92
        8
176
     1
 66
     7
176
     1
 43
1.0
176
     1
 76
     1
176
     1
 77
     6
176
     1
 78
     2
176
     1
 67
     7
176
     1
 79
     5
176
     1
170
     0
176
     1
171
     0
176
     1
290
     0
176
     1
 93
        1
176
     1
 44
50.0
176
     1
173
     0
176
     1
  0
VISUALSTYLE
  5
3A
102
{ACAD_REACTORS
330
2A
102
}
330
2A
100
AcDbVisualStyle
  2
ColorChange
 70
    16
177
     2
291
     1
 71
     2
176
     1
 72
     2
176
     1
 73
     3
176
     1
 90
        0
176
     1
 40
-0.6
176
     1
 41
-30.0
176
     1
 62
     5
 63
     8
421
  8421504
176
     1
 74
     1
176
     1
 91
        4
176
     1
 64
     7
176
     1
 65
   257
176
     1
 75
     1
176
     1
175
     1
176
     1
 42
1.0
176
     1
 92
        8
176
     1
 66
     8
424
  8421504
176
     1
 43
1.0
176
     1
 76
     1
176
     1
 77
     6
176
     1
 78
     2
176
     1
 67
     7
176
     1
 79
     5
176
     1
170
     0
176
     1
171
     0
176
     1
290
     0
176
     1
 93
        1
176
     1
 44
0.0
176
     1
173
     0
176
     1
  0
VISUALSTYLE
  5
34
102
{ACAD_REACTORS
330
2A
102
}
330
2A
100
AcDbVisualStyle
  2
Conceptual
 70
     9
177
     2
291
     0
 71
     3
176
     1
 72
     2
176
     1
 73
     0
176
     1
 90
        0
176
     1
 40
-0.6
176
     1
 41
-30.0
176
     1
 62
     5
 63
     7
421
 16777215
176
     1
 74
     2
176
     1
 91
        2
176
     1
 64
     7
176
     1
 65
   257
176
     1
 75
     1
176
     1
175
     1
176
     1
 42
40.0
176
     1
 92
        8
176
     1
 66
     7
176
     1
 43
1.0
176
     1
 76
     1
176
     1
 77
     6
176
     1
 78
     2
176
     1
 67
     7
176
     1
 79
     3
176
     1
170
     0
176
     1
171
     0
176
     1
290
     0
176
     1
 93
        1
176
     1
 44
0.0
176
     1
173
     0
176
     1
  0
VISUALSTYLE
  5
35
102
{ACAD_REACTORS
330
2A
102
}
330
2A
100
AcDbVisualStyle
  2
Dim
 70
    11
177
     2
291
     1
 71
     2
176
     1
 72
     2
176
     1
 73
     0
176
     1
 90
        0
176
     1
 40
-0.6
176
     1
 41
-30.0
176
     1
 62
     5
 63
     7
421
 16777215
176
     1
 74
     1
176
     1
 91
        4
176
     1
 64
     7
176
     1
 65
   257
176
     1
 75
     1
176
     1
175
     1
176
     1
 42
1.0
176
     1
 92
        8
176
     1
 66
     7
176
     1
 43
1.0
176
     1
 76
     1
176
     1
 77
     6
176
     1
 78
     2
176
     1
 67
     7
176
     1
 79
     5
176
     1
170
     0
176
     1
171
     0
176
     1
290
     0
176
     1
 93
        1
176
     1
 44
-50.0
176
     1
173
     0
176
     1
  0
VISUALSTYLE
  5
39
102
{ACAD_REACTORS
330
2A
102
}
330
2A
100
AcDbVisualStyle
  2
Facepattern
 70
    15
177
     2
291
     1
 71
     2
176
     1
 72
     2
176
     1
 73
     0
176
     1
 90
        0
176
     1
 40
-0.6
176
     1
 41
-30.0
176
     1
 62
     5
 63
     7
421
 16777215
176
     1
 74
     1
176
     1
 91
        4
176
     1
 64
     7
176
     1
 65
   257
176
     1
 75
     1
176
     1
175
     1
176
     1
 42
1.0
176
     1
 92
        8
176
     1
 66
     7
176
     1
 43
1.0
176
     1
 76
     1
176
     1
 77
     6
176
     1
 78
     2
176
     1
 67
     7
176
     1
 79
     5
176
     1
170
     0
176
     1
171
     0
176
     1
290
     0
176
     1
 93
        1
176
     1
 44
0.0
176
     1
173
     0
176
     1
  0
VISUALSTYLE
  5
2B
102
{ACAD_REACTORS
330
2A
102
}
330
2A
100
AcDbVisualStyle
  2
Flat
 70
     0
177
     2
291
     1
 71
     2
176
     1
 72
     1
176
     1
 73
     1
176
     1
 90
        2
176
     1
 40
-0.6
176
     1
 41
30.0
176
     1
 62
     5
 63
     7
421
 16777215
176
     1
 74
     0
176
     1
 91
        4
176
     1
 64
     7
176
     1
 65
   257
176
     1
 75
     1
176
     1
175
     1
176
     1
 42
1.0
176
     1
 92
        8
176
     1
 66
     7
176
     1
 43
1.0
176
     1
 76
     1
176
     1
 77
     6
176
     1
 78
     2
176
     1
 67
     7
176
     1
 79
     5
176
     1
170
     0
176
     1
171
     0
176
     1
290
     0
176
     1
 93
       13
176
     1
 44
0.0
176
     1
173
     0
176
     1
  0
VISUALSTYLE
  5
2C
102
{ACAD_REACTORS
330
2A
102
}
330
2A
100
AcDbVisualStyle
  2
FlatWithEdges
 70
     1
177
     2
291
     1
 71
     2
176
     1
 72
     1
176
     1
 73
     1
176
     1
 90
        2
176
     1
 40
-0.6
176
     1
 41
30.0
176
     1
 62
     5
 63
     7
421
 16777215
176
     1
 74
     1
176
     1
 91
        4
176
     1
 64
     7
176
     1
 65
   257
176
     1
 75
     1
176
     1
175
     1
176
     1
 42
1.0
176
     1
 92
        0
176
     1
 66
   257
176
     1
 43
1.0
176
     1
 76
     1
176
     1
 77
     6
176
     1
 78
     2
176
     1
 67
     7
176
     1
 79
     5
176
     1
170
     0
176
     1
171
     0
176
     1
290
     0
176
     1
 93
       13
176
     1
 44
0.0
176
     1
173
     0
176
     1
  0
VISUALSTYLE
  5
2D
102
{ACAD_REACTORS
330
2A
102
}
330
2A
100
AcDbVisualStyle
  2
Gouraud
 70
     2
177
     2
291
     1
 71
     2
176
     1
 72
     2
176
     1
 73
     1
176
     1
 90
        2
176
     1
 40
-0.6
176
     1
 41
30.0
176
     1
 62
     5
 63
     7
421
 16777215
176
     1
 74
     0
176
     1
 91
        4
176
     1
 64
     7
176
     1
 65
   257
176
     1
 75
     1
176
     1
175
     1
176
     1
 42
1.0
176
     1
 92
        0
176
     1
 66
     7
176
     1
 43
1.0
176
     1
 76
     1
176
     1
 77
     6
176
     1
 78
     2
176
     1
 67
     7
176
     1
 79
     5
176
     1
170
     0
176
     1
171
     0
176
     1
290
     0
176
     1
 93
       13
176
     1
 44
0.0
176
     1
173
     0
176
     1
  0
VISUALSTYLE
  5
2E
102
{ACAD_REACTORS
330
2A
102
}
330
2A
100
AcDbVisualStyle
  2
GouraudWithEdges
 70
     3
177
     2
291
     1
 71
     2
176
     1
 72
     2
176
     1
 73
     1
176
     1
 90
        2
176
     1
 40
-0.6
176
     1
 41
30.0
176
     1
 62
     5
 63
     7
421
 16777215
176
     1
 74
     1
176
     1
 91
        4
176
     1
 64
     7
176
     1
 65
   257
176
     1
 75
     1
176
     1
175
     1
176
     1
 42
1.0
176
     1
 92
        0
176
     1
 66
   257
176
     1
 43
1.0
176
     1
 76
     1
176
     1
 77
     6
176
     1
 78
     2
176
     1
 67
     7
176
     1
 79
     5
176
     1
170
     0
176
     1
171
     0
176
     1
290
     0
176
     1
 93
       13
176
     1
 44
0.0
176
     1
173
     0
176
     1
  0
VISUALSTYLE
  5
38
102
{ACAD_REACTORS
330
2A
102
}
330
2A
100
AcDbVisualStyle
  2
Linepattern
 70
    14
177
     2
291
     1
 71
     2
176
     1
 72
     2
176
     1
 73
     0
176
     1
 90
        0
176
     1
 40
-0.6
176
     1
 41
-30.0
176
     1
 62
     5
 63
     7
421
 16777215
176
     1
 74
     1
176
     1
 91
        4
176
     1
 64
     7
176
     1
 65
   257
176
     1
 75
     7
176
     1
175
     7
176
     1
 42
1.0
176
     1
 92
        8
176
     1
 66
     7
176
     1
 43
1.0
176
     1
 76
     1
176
     1
 77
     6
176
     1
 78
     2
176
     1
 67
     7
176
     1
 79
     5
176
     1
170
     0
176
     1
171
     0
176
     1
290
     0
176
     1
 93
        1
176
     1
 44
0.0
176
     1
173
     0
176
     1
  0
VISUALSTYLE
  5
33
102
{ACAD_REACTORS
330
2A
102
}
330
2A
100
AcDbVisualStyle
  2
Realistic
 70
     8
177
     2
291
     0
 71
     2
176
     1
 72
     2
176
     1
 73
     0
176
     1
 90
        0
176
     1
 40
-0.6
176
     1
 41
-30.0
176
     1
 62
     5
 63
     7
421
 16777215
176
     1
 74
     1
176
     1
 91
        0
176
     1
 64
     7
176
     1
 65
   257
176
     1
 75
     1
176
     1
175
     1
176
     1
 42
1.0
176
     1
 92
        8
176
     1
 66
     8
424
  7895160
176
     1
 43
1.0
176
     1
 76
     1
176
     1
 77
     6
176
     1
 78
     2
176
     1
 67
     7
176
     1
 79
     5
176
     1
170
     0
176
     1
171
     0
176
     1
290
     0
176
     1
 93
       13
176
     1
 44
0.0
176
     1
173
     0
176
     1
  0
VISUALSTYLE
  5
37
102
{ACAD_REACTORS
330
2A
102
}
330
2A
100
AcDbVisualStyle
  2
Thicken
 70
    13
177
     2
291
     1
 71
     2
176
     1
 72
     2
176
     1
 73
     0
176
     1
 90
        0
176
     1
 40
-0.6
176
     1
 41
-30.0
176
     1
 62
     5
 63
     7
421
 16777215
176
     1
 74
     1
176
     1
 91
        4
176
     1
 64
     7
176
     1
 65
   257
176
     1
 75
     1
176
     1
175
     1
176
     1
 42
1.0
176
     1
 92
       12
176
     1
 66
     7
176
     1
 43
1.0
176
     1
 76
     1
176
     1
 77
     6
176
     1
 78
     2
176
     1
 67
     7
176
     1
 79
     5
176
     1
170
     0
176
     1
171
     0
176
     1
290
     0
176
     1
 93
        1
176
     1
 44
0.0
176
     1
173
     0
176
     1
  0
ENDSEC
  0
EOF
