999
FreeCAD v0.21 
  0
SECTION
  2
HEADER
  9
$ACADVER
  1
AC1014
  9
$ACADMAINTVER
 70
     9
  9
$DWGCODEPAGE
  3
ANSI_1252
  9
$TEXTSTYLE
  7
STANDARD
  9
$DIMSTYLE
  2
STANDARD
  9
$DIMTXSTY
  7
STANDARD
  9
$CMLSTYLE
  2
STANDARD
  9
$LUNITS
 70
2
  9
$INSUNITS
 70
4
  9
$PEXTMAX
 10
50
 20
50
 30
50
  9
$PEXTMIN
 10
0
 20
0
 30
0
  9
$HANDSEED
  5
FFFF
  0
ENDSEC
  0
SECTION
  2
CLASSES
  0
CLASS
  1
ACDBDICTIONARYWDFLT
  2
AcDbDictionaryWithDefault
  3
ObjectDBX Classes
 90
        0
280
     0
281
     0
  0
CLASS
  1
XRECORD
  2
AcDbXrecord
  3
ObjectDBX Classes
 90
        0
280
     0
281
     0
  0
CLASS
  1
LWPOLYLINE
  2
AcDbPolyline
  3
ObjectDBX Classes
 90
        0
280
     0
281
     1
  0
ENDSEC
  0
SECTION
  2
TABLES
  0
TABLE
  2
VPORT
  5
20
330
0
100
AcDbSymbolTable
 70
     1
  0
VPORT
  5
21
330
20
100
AcDbSymbolTableRecord
100
AcDbViewportTableRecord
  2
*ACTIVE
 70
     0
  0
ENDTAB
  0
TABLE
  2
LTYPE
  5
22
330
0
100
AcDbSymbolTable
 70
     1
  0
LTYPE
  5
23
330
21
100
AcDbSymbolTableRecord
100
AcDbLinetypeTableRecord
  2
BYBLOCK
 70
     0
  3

 72
    65
 73
     0
 40
0.0
  0
LTYPE
  5
24
330
21
100
AcDbSymbolTableRecord
100
AcDbLinetypeTableRecord
  2
BYLAYER
 70
     0
  3

 72
    65
 73
     0
 40
0.0
  0
LTYPE
  5
25
330
21
100
AcDbSymbolTableRecord
100
AcDbLinetypeTableRecord
  2
CONTINUOUS
 70
     0
  3
Solid line
 72
    65
 73
     0
 40
0.0
  0
ENDTAB
  0
TABLE
  2
LAYER
  5
A3A
330
0
100
AcDbSymbolTable
 70
52
  0
LAYER
  5
A3B
330
A3A
100
AcDbSymbolTableRecord
100
AcDbLayerTableRecord
  2
0
 70
   0
 62
   7
  6
CONTINUOUS
  0
LAYER
  5
A3C
330
A3A
100
AcDbSymbolTableRecord
100
AcDbLayerTableRecord
  2
none
 70
    0
 62
    7
  6
CONTINUOUS
  0
LAYER
  5
A3D
330
A3A
100
AcDbSymbolTableRecord
100
AcDbLayerTableRecord
  2
Shape018
 70
    0
 62
    7
  6
CONTINUOUS
  0
LAYER
  5
A3E
330
A3A
100
AcDbSymbolTableRecord
100
AcDbLayerTableRecord
  2
Shape016
 70
    0
 62
    7
  6
CONTINUOUS
  0
LAYER
  5
A3F
330
A3A
100
AcDbSymbolTableRecord
100
AcDbLayerTableRecord
  2
Shape002
 70
    0
 62
    7
  6
CONTINUOUS
  0
LAYER
  5
A40
330
A3A
100
AcDbSymbolTableRecord
100
AcDbLayerTableRecord
  2
Shape024
 70
    0
 62
    7
  6
CONTINUOUS
  0
LAYER
  5
A41
330
A3A
100
AcDbSymbolTableRecord
100
AcDbLayerTableRecord
  2
Shape043
 70
    0
 62
    7
  6
CONTINUOUS
  0
LAYER
  5
A42
330
A3A
100
AcDbSymbolTableRecord
100
AcDbLayerTableRecord
  2
Shape032
 70
    0
 62
    7
  6
CONTINUOUS
  0
LAYER
  5
A43
330
A3A
100
AcDbSymbolTableRecord
100
AcDbLayerTableRecord
  2
Shape021
 70
    0
 62
    7
  6
CONTINUOUS
  0
LAYER
  5
A44
330
A3A
100
AcDbSymbolTableRecord
100
AcDbLayerTableRecord
  2
Shape027
 70
    0
 62
    7
  6
CONTINUOUS
  0
LAYER
  5
A45
330
A3A
100
AcDbSymbolTableRecord
100
AcDbLayerTableRecord
  2
Shape004
 70
    0
 62
    7
  6
CONTINUOUS
  0
LAYER
  5
A46
330
A3A
100
AcDbSymbolTableRecord
100
AcDbLayerTableRecord
  2
Shape003
 70
    0
 62
    7
  6
CONTINUOUS
  0
LAYER
  5
A47
330
A3A
100
AcDbSymbolTableRecord
100
AcDbLayerTableRecord
  2
Shape010
 70
    0
 62
    7
  6
CONTINUOUS
  0
LAYER
  5
A48
330
A3A
100
AcDbSymbolTableRecord
100
AcDbLayerTableRecord
  2
Shape007
 70
    0
 62
    7
  6
CONTINUOUS
  0
LAYER
  5
A49
330
A3A
100
AcDbSymbolTableRecord
100
AcDbLayerTableRecord
  2
Shape005
 70
    0
 62
    7
  6
CONTINUOUS
  0
LAYER
  5
A4A
330
A3A
100
AcDbSymbolTableRecord
100
AcDbLayerTableRecord
  2
Shape033
 70
    0
 62
    7
  6
CONTINUOUS
  0
LAYER
  5
A4B
330
A3A
100
AcDbSymbolTableRecord
100
AcDbLayerTableRecord
  2
Shape031
 70
    0
 62
    7
  6
CONTINUOUS
  0
LAYER
  5
A4C
330
A3A
100
AcDbSymbolTableRecord
100
AcDbLayerTableRecord
  2
Shape025
 70
    0
 62
    7
  6
CONTINUOUS
  0
LAYER
  5
A4D
330
A3A
100
AcDbSymbolTableRecord
100
AcDbLayerTableRecord
  2
Shape012
 70
    0
 62
    7
  6
CONTINUOUS
  0
LAYER
  5
A4E
330
A3A
100
AcDbSymbolTableRecord
100
AcDbLayerTableRecord
  2
Shape030
 70
    0
 62
    7
  6
CONTINUOUS
  0
LAYER
  5
A4F
330
A3A
100
AcDbSymbolTableRecord
100
AcDbLayerTableRecord
  2
Shape029
 70
    0
 62
    7
  6
CONTINUOUS
  0
LAYER
  5
A50
330
A3A
100
AcDbSymbolTableRecord
100
AcDbLayerTableRecord
  2
Shape044
 70
    0
 62
    7
  6
CONTINUOUS
  0
LAYER
  5
A51
330
A3A
100
AcDbSymbolTableRecord
100
AcDbLayerTableRecord
  2
Shape001
 70
    0
 62
    7
  6
CONTINUOUS
  0
LAYER
  5
A52
330
A3A
100
AcDbSymbolTableRecord
100
AcDbLayerTableRecord
  2
Shape008
 70
    0
 62
    7
  6
CONTINUOUS
  0
LAYER
  5
A53
330
A3A
100
AcDbSymbolTableRecord
100
AcDbLayerTableRecord
  2
Shape026
 70
    0
 62
    7
  6
CONTINUOUS
  0
LAYER
  5
A54
330
A3A
100
AcDbSymbolTableRecord
100
AcDbLayerTableRecord
  2
Shape017
 70
    0
 62
    7
  6
CONTINUOUS
  0
LAYER
  5
A55
330
A3A
100
AcDbSymbolTableRecord
100
AcDbLayerTableRecord
  2
Shape040
 70
    0
 62
    7
  6
CONTINUOUS
  0
LAYER
  5
A56
330
A3A
100
AcDbSymbolTableRecord
100
AcDbLayerTableRecord
  2
Shape038
 70
    0
 62
    7
  6
CONTINUOUS
  0
LAYER
  5
A57
330
A3A
100
AcDbSymbolTableRecord
100
AcDbLayerTableRecord
  2
Shape019
 70
    0
 62
    7
  6
CONTINUOUS
  0
LAYER
  5
A58
330
A3A
100
AcDbSymbolTableRecord
100
AcDbLayerTableRecord
  2
Shape048
 70
    0
 62
    7
  6
CONTINUOUS
  0
LAYER
  5
A59
330
A3A
100
AcDbSymbolTableRecord
100
AcDbLayerTableRecord
  2
Shape035
 70
    0
 62
    7
  6
CONTINUOUS
  0
LAYER
  5
A5A
330
A3A
100
AcDbSymbolTableRecord
100
AcDbLayerTableRecord
  2
Shape047
 70
    0
 62
    7
  6
CONTINUOUS
  0
LAYER
  5
A5B
330
A3A
100
AcDbSymbolTableRecord
100
AcDbLayerTableRecord
  2
Shape034
 70
    0
 62
    7
  6
CONTINUOUS
  0
LAYER
  5
A5C
330
A3A
100
AcDbSymbolTableRecord
100
AcDbLayerTableRecord
  2
Shape037
 70
    0
 62
    7
  6
CONTINUOUS
  0
LAYER
  5
A5D
330
A3A
100
AcDbSymbolTableRecord
100
AcDbLayerTableRecord
  2
Shape014
 70
    0
 62
    7
  6
CONTINUOUS
  0
LAYER
  5
A5E
330
A3A
100
AcDbSymbolTableRecord
100
AcDbLayerTableRecord
  2
Shape049
 70
    0
 62
    7
  6
CONTINUOUS
  0
LAYER
  5
A5F
330
A3A
100
AcDbSymbolTableRecord
100
AcDbLayerTableRecord
  2
Shape045
 70
    0
 62
    7
  6
CONTINUOUS
  0
LAYER
  5
A60
330
A3A
100
AcDbSymbolTableRecord
100
AcDbLayerTableRecord
  2
Shape039
 70
    0
 62
    7
  6
CONTINUOUS
  0
LAYER
  5
A61
330
A3A
100
AcDbSymbolTableRecord
100
AcDbLayerTableRecord
  2
Shape041
 70
    0
 62
    7
  6
CONTINUOUS
  0
LAYER
  5
A62
330
A3A
100
AcDbSymbolTableRecord
100
AcDbLayerTableRecord
  2
Shape006
 70
    0
 62
    7
  6
CONTINUOUS
  0
LAYER
  5
A63
330
A3A
100
AcDbSymbolTableRecord
100
AcDbLayerTableRecord
  2
Shape036
 70
    0
 62
    7
  6
CONTINUOUS
  0
LAYER
  5
A64
330
A3A
100
AcDbSymbolTableRecord
100
AcDbLayerTableRecord
  2
Shape022
 70
    0
 62
    7
  6
CONTINUOUS
  0
LAYER
  5
A65
330
A3A
100
AcDbSymbolTableRecord
100
AcDbLayerTableRecord
  2
Shape009
 70
    0
 62
    7
  6
CONTINUOUS
  0
LAYER
  5
A66
330
A3A
100
AcDbSymbolTableRecord
100
AcDbLayerTableRecord
  2
Shape046
 70
    0
 62
    7
  6
CONTINUOUS
  0
LAYER
  5
A67
330
A3A
100
AcDbSymbolTableRecord
100
AcDbLayerTableRecord
  2
Shape
 70
    0
 62
    7
  6
CONTINUOUS
  0
LAYER
  5
A68
330
A3A
100
AcDbSymbolTableRecord
100
AcDbLayerTableRecord
  2
Shape028
 70
    0
 62
    7
  6
CONTINUOUS
  0
LAYER
  5
A69
330
A3A
100
AcDbSymbolTableRecord
100
AcDbLayerTableRecord
  2
Shape042
 70
    0
 62
    7
  6
CONTINUOUS
  0
LAYER
  5
A6A
330
A3A
100
AcDbSymbolTableRecord
100
AcDbLayerTableRecord
  2
Shape013
 70
    0
 62
    7
  6
CONTINUOUS
  0
LAYER
  5
A6B
330
A3A
100
AcDbSymbolTableRecord
100
AcDbLayerTableRecord
  2
Shape015
 70
    0
 62
    7
  6
CONTINUOUS
  0
LAYER
  5
A6C
330
A3A
100
AcDbSymbolTableRecord
100
AcDbLayerTableRecord
  2
Shape020
 70
    0
 62
    7
  6
CONTINUOUS
  0
LAYER
  5
A6D
330
A3A
100
AcDbSymbolTableRecord
100
AcDbLayerTableRecord
  2
Shape011
 70
    0
 62
    7
  6
CONTINUOUS
  0
LAYER
  5
A6E
330
A3A
100
AcDbSymbolTableRecord
100
AcDbLayerTableRecord
  2
Shape023
 70
    0
 62
    7
  6
CONTINUOUS
  0
ENDTAB
  0
TABLE
  2
STYLE
  5
70
330
0
100
AcDbSymbolTable
 70
     2
  0
STYLE
  5
71
330
70
100
AcDbSymbolTableRecord
100
AcDbTextStyleTableRecord
  2
STANDARD
 70
     0
 40
0.0
 41
1.0
 50
0.0
 71
     0
 42
2.5
  3
arial.ttf
  4

  0
STYLE
  5
72
330
70
100
AcDbSymbolTableRecord
100
AcDbTextStyleTableRecord
  2
ANNOTATIVE
 70
     0
 40
0.0
 41
1.0
 50
0.0
 71
     0
 42
2.5
  3
arial.ttf
  4

  0
ENDTAB
  0
TABLE
  2
VIEW
  5
73
330
0
100
AcDbSymbolTable
 70
     0
  0
ENDTAB
  0
TABLE
  2
UCS
  5
74
330
0
100
AcDbSymbolTable
 70
     0
  0
ENDTAB
  0
TABLE
  2
APPID
  5
75
330
0
100
AcDbSymbolTable
 70
     2
  0
APPID
  5
76
330
75
100
AcDbSymbolTableRecord
100
AcDbRegAppTableRecord
  2
ACAD
 70
     0
  0
APPID
  5
77
330
75
100
AcDbSymbolTableRecord
100
AcDbRegAppTableRecord
  2
ACADANNOTATIVE
 70
     0
  0
ENDTAB
  0
TABLE
  2
DIMSTYLE
  5
78
330
0
100
AcDbSymbolTable
 70
     2
  0
DIMSTYLE
105
79
330
78
100
AcDbSymbolTableRecord
100
AcDbDimStyleTableRecord
  2
STANDARD
 70
     0
  3

  4

  5

  6

  7

 40
0.0
 41
2.5
 42
0.625
 43
3.75
 44
1.25
 45
0.0
 46
0.0
 47
0.0
 48
0.0
140
2.5
141
2.5
142
0.0
143
0.03937007874016
144
1.0
145
0.0
146
1.0
147
0.625
 71
     0
 72
     0
 73
     0
 74
     0
 75
     0
 76
     0
 77
     1
 78
     8
170
     0
171
     3
172
     1
173
     0
174
     0
175
     0
176
     0
177
     0
178
     0
270
     2
271
     2
272
     2
273
     2
274
     3
340
71
275
     0
280
     0
281
     0
282
     0
283
     0
284
     8
285
     0
286
     0
287
     3
288
     0
  0
ENDTAB
  0
TABLE
  2
BLOCK_RECORD
  5
A01
330
0
100
AcDbSymbolTable
  70
5
  0
BLOCK_RECORD
  5
A02
330
A01
100
AcDbSymbolTableRecord
100
AcDbBlockTableRecord
  2
*MODEL_SPACE
  0
BLOCK_RECORD
  5
A03
330
A01
100
AcDbSymbolTableRecord
100
AcDbBlockTableRecord
  2
*PAPER_SPACE
  0
ENDTAB
  0
ENDSEC
  0
SECTION
  2
BLOCKS
  0
BLOCK
  5
A04
330
A02
100
AcDbEntity
  8
0
100
AcDbBlockBegin
  2
*MODEL_SPACE
 70
   0
 10
0
 20
0
 30
0
  3
*MODEL_SPACE
  1
 
  0
ENDBLK
  5
A05
330
A02
100
AcDbEntity
  8
0
100
AcDbBlockEnd
  0
BLOCK
  5
A06
330
A03
100
AcDbEntity
 67
1
  8
0
100
AcDbBlockBegin
  2
*PAPER_SPACE
 70
   0
 10
0
 20
0
 30
0
  3
*PAPER_SPACE
  1
 
  0
ENDBLK
  5
A07
330
A03
100
AcDbEntity
 67
    1
  8
0
100
AcDbBlockEnd
  0
ENDSEC
  0
SECTION
  2
ENTITIES
  0
SPLINE
  5
A08
330
A02
100
AcDbEntity
  8
Shape018
100
AcDbSpline
210
0
220
0
230
1
 70
9
 71
3
 72
26
 73
22
 74
0
 40
0
 40
0
 40
0
 40
0
 40
25.4
 40
25.4
 40
25.4
 40
50.8
 40
50.8
 40
50.8
 40
76.2
 40
76.2
 40
76.2
 40
101.6
 40
101.6
 40
101.6
 40
127
 40
127
 40
127
 40
152.4
 40
152.4
 40
152.4
 40
177.8
 40
177.8
 40
177.8
 40
177.8
 10
3469.21
 20
-2242.13
 30
0
 10
3469.21
 20
-2242.13
 30
0
 10
3471.36
 20
-2247.14
 30
0
 10
3471.36
 20
-2247.14
 30
0
 10
3486.05
 20
-2281.34
 30
0
 10
3504.38
 20
-2311.63
 30
0
 10
3518.7
 20
-2334.2
 30
0
 10
3534.53
 20
-2359.14
 30
0
 10
3552.09
 20
-2383.81
 30
0
 10
3571.05
 20
-2408.19
 30
0
 10
3571.05
 20
-2408.19
 30
0
 10
3551.88
 20
-2408.19
 30
0
 10
3551.88
 20
-2408.19
 30
0
 10
3505.33
 20
-2356.9
 30
0
 10
3465.55
 20
-2303.71
 30
0
 10
3431.21
 20
-2246.93
 30
0
 10
3430.26
 20
-2245.36
 30
0
 10
3429.32
 20
-2243.74
 30
0
 10
3428.38
 20
-2242.13
 30
0
 10
3428.38
 20
-2242.13
 30
0
 10
3469.21
 20
-2242.13
 30
0
 10
3469.21
 20
-2242.13
 30
0
  0
SPLINE
  5
A09
330
A02
100
AcDbEntity
  8
Shape016
100
AcDbSpline
210
0
220
0
230
1
 70
9
 71
3
 72
26
 73
22
 74
0
 40
0
 40
0
 40
0
 40
0
 40
25.4
 40
25.4
 40
25.4
 40
50.8
 40
50.8
 40
50.8
 40
76.2
 40
76.2
 40
76.2
 40
101.6
 40
101.6
 40
101.6
 40
127
 40
127
 40
127
 40
152.4
 40
152.4
 40
152.4
 40
177.8
 40
177.8
 40
177.8
 40
177.8
 10
3664.21
 20
-2242.13
 30
0
 10
3661.23
 20
-2276.18
 30
0
 10
3663.89
 20
-2309.82
 30
0
 10
3672.18
 20
-2342.15
 30
0
 10
3677.79
 20
-2364.06
 30
0
 10
3685.86
 20
-2385.47
 30
0
 10
3697.27
 20
-2408.19
 30
0
 10
3697.27
 20
-2408.19
 30
0
 10
3664.65
 20
-2408.19
 30
0
 10
3664.65
 20
-2408.19
 30
0
 10
3660.85
 20
-2402.77
 30
0
 10
3656.97
 20
-2397.36
 30
0
 10
3653.36
 20
-2391.93
 30
0
 10
3629.05
 20
-2355.41
 30
0
 10
3602.49
 20
-2311.39
 30
0
 10
3589.85
 20
-2261.95
 30
0
 10
3588.33
 20
-2256
 30
0
 10
3586.99
 20
-2249.62
 30
0
 10
3585.67
 20
-2242.13
 30
0
 10
3585.67
 20
-2242.13
 30
0
 10
3664.21
 20
-2242.13
 30
0
 10
3664.21
 20
-2242.13
 30
0
  0
SPLINE
  5
A0A
330
A02
100
AcDbEntity
  8
Shape002
100
AcDbSpline
210
0
220
0
230
1
 70
9
 71
3
 72
35
 73
31
 74
0
 40
0
 40
0
 40
0
 40
0
 40
25.4
 40
25.4
 40
25.4
 40
50.8
 40
50.8
 40
50.8
 40
76.2
 40
76.2
 40
76.2
 40
101.6
 40
101.6
 40
101.6
 40
127
 40
127
 40
127
 40
152.4
 40
152.4
 40
152.4
 40
177.8
 40
177.8
 40
177.8
 40
203.2
 40
203.2
 40
203.2
 40
228.6
 40
228.6
 40
228.6
 40
254
 40
254
 40
254
 40
254
 10
1677.68
 20
-2978.73
 30
0
 10
1677.68
 20
-2978.73
 30
0
 10
1548.37
 20
-2978.73
 30
0
 10
1548.37
 20
-2978.73
 30
0
 10
1548.37
 20
-2978.73
 30
0
 10
1548.49
 20
-2978.4
 30
0
 10
1548.49
 20
-2978.4
 30
0
 10
1594.69
 20
-2853.04
 30
0
 10
1633.26
 20
-2722.08
 30
0
 10
1663.13
 20
-2589.14
 30
0
 10
1688.45
 20
-2476.73
 30
0
 10
1707.61
 20
-2360.44
 30
0
 10
1720.08
 20
-2243.48
 30
0
 10
1720.08
 20
-2243.48
 30
0
 10
1720.22
 20
-2242.13
 30
0
 10
1720.22
 20
-2242.13
 30
0
 10
1720.22
 20
-2242.13
 30
0
 10
1841.78
 20
-2242.13
 30
0
 10
1841.78
 20
-2242.13
 30
0
 10
1841.78
 20
-2242.13
 30
0
 10
1840.94
 20
-2253.88
 30
0
 10
1840.94
 20
-2253.88
 30
0
 10
1830.67
 20
-2385.73
 30
0
 10
1810.13
 20
-2517.35
 30
0
 10
1779.88
 20
-2645.1
 30
0
 10
1753.43
 20
-2757.25
 30
0
 10
1719.63
 20
-2867.98
 30
0
 10
1679.4
 20
-2974.2
 30
0
 10
1679.4
 20
-2974.2
 30
0
 10
1677.68
 20
-2978.73
 30
0
 10
1677.68
 20
-2978.73
 30
0
  0
SPLINE
  5
A0B
330
A02
100
AcDbEntity
  8
Shape024
100
AcDbSpline
210
0
220
0
230
1
 70
9
 71
3
 72
26
 73
22
 74
0
 40
0
 40
0
 40
0
 40
0
 40
25.4
 40
25.4
 40
25.4
 40
50.8
 40
50.8
 40
50.8
 40
76.2
 40
76.2
 40
76.2
 40
101.6
 40
101.6
 40
101.6
 40
127
 40
127
 40
127
 40
152.4
 40
152.4
 40
152.4
 40
177.8
 40
177.8
 40
177.8
 40
177.8
 10
3058.61
 20
-2242.13
 30
0
 10
3058.61
 20
-2242.13
 30
0
 10
3062.25
 20
-2248.46
 30
0
 10
3062.25
 20
-2248.46
 30
0
 10
3091.78
 20
-2299.82
 30
0
 10
3117.87
 20
-2352.81
 30
0
 10
3140.89
 20
-2408.19
 30
0
 10
3140.89
 20
-2408.19
 30
0
 10
3106.95
 20
-2408.19
 30
0
 10
3106.95
 20
-2408.19
 30
0
 10
3092.92
 20
-2408.19
 30
0
 10
3081.55
 20
-2419.56
 30
0
 10
3081.55
 20
-2433.59
 30
0
 10
3081.55
 20
-2433.59
 30
0
 10
3081.55
 20
-2469.75
 30
0
 10
3081.55
 20
-2469.75
 30
0
 10
3058.82
 20
-2388.18
 30
0
 10
3031.82
 20
-2313.24
 30
0
 10
2999.46
 20
-2242.13
 30
0
 10
2999.46
 20
-2242.13
 30
0
 10
3058.61
 20
-2242.13
 30
0
 10
3058.61
 20
-2242.13
 30
0
  0
SPLINE
  5
A0C
330
A02
100
AcDbEntity
  8
Shape043
100
AcDbSpline
210
0
220
0
230
1
 70
9
 71
3
 72
26
 73
22
 74
0
 40
0
 40
0
 40
0
 40
0
 40
25.4
 40
25.4
 40
25.4
 40
50.8
 40
50.8
 40
50.8
 40
76.2
 40
76.2
 40
76.2
 40
101.6
 40
101.6
 40
101.6
 40
127
 40
127
 40
127
 40
152.4
 40
152.4
 40
152.4
 40
177.8
 40
177.8
 40
177.8
 40
177.8
 10
4763.4
 20
-2978.73
 30
0
 10
4763.4
 20
-2978.73
 30
0
 10
4649.85
 20
-2978.73
 30
0
 10
4649.85
 20
-2978.73
 30
0
 10
4680
 20
-2933.04
 30
0
 10
4722.91
 20
-2900.15
 30
0
 10
4777.83
 20
-2881.24
 30
0
 10
4854.29
 20
-2854.92
 30
0
 10
4937
 20
-2870.89
 30
0
 10
5023.67
 20
-2928.69
 30
0
 10
5027.01
 20
-2932.02
 30
0
 10
5030.37
 20
-2935.59
 30
0
 10
5033.72
 20
-2939.04
 30
0
 10
4969.01
 20
-2916.3
 30
0
 10
4906.86
 20
-2914.75
 30
0
 10
4848.26
 20
-2934.63
 30
0
 10
4823.54
 20
-2943.01
 30
0
 10
4800.4
 20
-2954.27
 30
0
 10
4779.48
 20
-2968.11
 30
0
 10
4779.48
 20
-2968.11
 30
0
 10
4763.4
 20
-2978.73
 30
0
 10
4763.4
 20
-2978.73
 30
0
  0
SPLINE
  5
A0D
330
A02
100
AcDbEntity
  8
Shape032
100
AcDbSpline
210
0
220
0
230
1
 70
9
 71
3
 72
20
 73
16
 74
0
 40
0
 40
0
 40
0
 40
0
 40
25.4
 40
25.4
 40
25.4
 40
50.8
 40
50.8
 40
50.8
 40
76.2
 40
76.2
 40
76.2
 40
101.6
 40
101.6
 40
101.6
 40
127
 40
127
 40
127
 40
127
 10
3564.94
 20
-2978.73
 30
0
 10
3564.94
 20
-2978.73
 30
0
 10
3564.84
 20
-2977.6
 30
0
 10
3564.84
 20
-2977.6
 30
0
 10
3559.92
 20
-2921.16
 30
0
 10
3547.94
 20
-2866.43
 30
0
 10
3533.12
 20
-2813.53
 30
0
 10
3533.12
 20
-2813.53
 30
0
 10
3621.13
 20
-2813.53
 30
0
 10
3621.13
 20
-2813.53
 30
0
 10
3639.15
 20
-2864.54
 30
0
 10
3657.03
 20
-2920.75
 30
0
 10
3668.29
 20
-2978.73
 30
0
 10
3668.29
 20
-2978.73
 30
0
 10
3564.94
 20
-2978.73
 30
0
 10
3564.94
 20
-2978.73
 30
0
  0
SPLINE
  5
A0E
330
A02
100
AcDbEntity
  8
Shape021
100
AcDbSpline
210
0
220
0
230
1
 70
9
 71
3
 72
26
 73
22
 74
0
 40
0
 40
0
 40
0
 40
0
 40
25.4
 40
25.4
 40
25.4
 40
50.8
 40
50.8
 40
50.8
 40
76.2
 40
76.2
 40
76.2
 40
101.6
 40
101.6
 40
101.6
 40
127
 40
127
 40
127
 40
152.4
 40
152.4
 40
152.4
 40
177.8
 40
177.8
 40
177.8
 40
177.8
 10
3264.54
 20
-2242.13
 30
0
 10
3264.54
 20
-2242.13
 30
0
 10
3270.02
 20
-2249.62
 30
0
 10
3270.02
 20
-2249.62
 30
0
 10
3293
 20
-2281.06
 30
0
 10
3316.65
 20
-2310.29
 30
0
 10
3342.35
 20
-2339.01
 30
0
 10
3362.78
 20
-2361.77
 30
0
 10
3382.18
 20
-2384.83
 30
0
 10
3400.71
 20
-2408.19
 30
0
 10
3400.71
 20
-2408.19
 30
0
 10
3359.1
 20
-2408.19
 30
0
 10
3359.1
 20
-2408.19
 30
0
 10
3325.12
 20
-2354.15
 30
0
 10
3287.1
 20
-2302.07
 30
0
 10
3244.77
 20
-2251.53
 30
0
 10
3242.13
 20
-2248.37
 30
0
 10
3239.65
 20
-2245.26
 30
0
 10
3237.15
 20
-2242.13
 30
0
 10
3237.15
 20
-2242.13
 30
0
 10
3264.54
 20
-2242.13
 30
0
 10
3264.54
 20
-2242.13
 30
0
  0
SPLINE
  5
A0F
330
A02
100
AcDbEntity
  8
Shape027
100
AcDbSpline
210
0
220
0
230
1
 70
9
 71
3
 72
38
 73
34
 74
0
 40
0
 40
0
 40
0
 40
0
 40
25.4
 40
25.4
 40
25.4
 40
50.8
 40
50.8
 40
50.8
 40
76.2
 40
76.2
 40
76.2
 40
101.6
 40
101.6
 40
101.6
 40
127
 40
127
 40
127
 40
152.4
 40
152.4
 40
152.4
 40
177.8
 40
177.8
 40
177.8
 40
203.2
 40
203.2
 40
203.2
 40
228.6
 40
228.6
 40
228.6
 40
254
 40
254
 40
254
 40
279.4
 40
279.4
 40
279.4
 40
279.4
 10
2957.07
 20
-2976.55
 30
0
 10
2957.07
 20
-2976.55
 30
0
 10
2956.69
 20
-2978.73
 30
0
 10
2956.69
 20
-2978.73
 30
0
 10
2956.69
 20
-2978.73
 30
0
 10
2830.32
 20
-2978.73
 30
0
 10
2830.32
 20
-2978.73
 30
0
 10
2851.54
 20
-2882.25
 30
0
 10
2861.91
 20
-2783.86
 30
0
 10
2861.06
 20
-2686.24
 30
0
 10
2860.5
 20
-2588.03
 30
0
 10
2843.35
 20
-2492.61
 30
0
 10
2824.29
 20
-2395.38
 30
0
 10
2824.29
 20
-2395.38
 30
0
 10
2824.29
 20
-2395.38
 30
0
 10
2824.29
 20
-2395.38
 30
0
 10
2813.96
 20
-2342.74
 30
0
 10
2801.76
 20
-2291.23
 30
0
 10
2788.03
 20
-2242.13
 30
0
 10
2788.03
 20
-2242.13
 30
0
 10
2867.77
 20
-2242.13
 30
0
 10
2867.77
 20
-2242.13
 30
0
 10
2867.77
 20
-2242.13
 30
0
 10
2869.36
 20
-2246.47
 30
0
 10
2869.36
 20
-2246.47
 30
0
 10
2894.08
 20
-2314.38
 30
0
 10
2914.55
 20
-2385.24
 30
0
 10
2931.92
 20
-2463.09
 30
0
 10
2953.26
 20
-2558.72
 30
0
 10
2972.55
 20
-2652.49
 30
0
 10
2974.24
 20
-2748.33
 30
0
 10
2975.82
 20
-2824.33
 30
0
 10
2970.04
 20
-2901.11
 30
0
 10
2957.07
 20
-2976.55
 30
0
  0
SPLINE
  5
A10
330
A02
100
AcDbEntity
  8
Shape004
100
AcDbSpline
210
0
220
0
230
1
 70
9
 71
3
 72
38
 73
34
 74
0
 40
0
 40
0
 40
0
 40
0
 40
25.4
 40
25.4
 40
25.4
 40
50.8
 40
50.8
 40
50.8
 40
76.2
 40
76.2
 40
76.2
 40
101.6
 40
101.6
 40
101.6
 40
127
 40
127
 40
127
 40
152.4
 40
152.4
 40
152.4
 40
177.8
 40
177.8
 40
177.8
 40
203.2
 40
203.2
 40
203.2
 40
228.6
 40
228.6
 40
228.6
 40
254
 40
254
 40
254
 40
279.4
 40
279.4
 40
279.4
 40
279.4
 10
1999.52
 20
-2978.73
 30
0
 10
1999.52
 20
-2978.73
 30
0
 10
1868
 20
-2978.73
 30
0
 10
1868
 20
-2978.73
 30
0
 10
1900.36
 20
-2892.49
 30
0
 10
1927.96
 20
-2803.59
 30
0
 10
1949.98
 20
-2714.37
 30
0
 10
1982.14
 20
-2584.86
 30
0
 10
2002.89
 20
-2451.23
 30
0
 10
2011.63
 20
-2317.19
 30
0
 10
2013.08
 20
-2295.39
 30
0
 10
2014.11
 20
-2271.64
 30
0
 10
2014.87
 20
-2242.46
 30
0
 10
2014.87
 20
-2242.46
 30
0
 10
2014.88
 20
-2242.13
 30
0
 10
2014.88
 20
-2242.13
 30
0
 10
2014.88
 20
-2242.13
 30
0
 10
2127.57
 20
-2242.13
 30
0
 10
2127.57
 20
-2242.13
 30
0
 10
2127.57
 20
-2242.13
 30
0
 10
2127.57
 20
-2242.42
 30
0
 10
2127.57
 20
-2242.42
 30
0
 10
2128.7
 20
-2291.54
 30
0
 10
2128.15
 20
-2335.57
 30
0
 10
2125.9
 20
-2377.07
 30
0
 10
2118.9
 20
-2509.97
 30
0
 10
2098.48
 20
-2642.3
 30
0
 10
2065.18
 20
-2770.42
 30
0
 10
2047.78
 20
-2837.91
 30
0
 10
2026.25
 20
-2906.5
 30
0
 10
2001.17
 20
-2974.29
 30
0
 10
2001.17
 20
-2974.29
 30
0
 10
1999.52
 20
-2978.73
 30
0
 10
1999.52
 20
-2978.73
 30
0
  0
SPLINE
  5
A11
330
A02
100
AcDbEntity
  8
Shape003
100
AcDbSpline
210
0
220
0
230
1
 70
9
 71
3
 72
35
 73
31
 74
0
 40
0
 40
0
 40
0
 40
0
 40
25.4
 40
25.4
 40
25.4
 40
50.8
 40
50.8
 40
50.8
 40
76.2
 40
76.2
 40
76.2
 40
101.6
 40
101.6
 40
101.6
 40
127
 40
127
 40
127
 40
152.4
 40
152.4
 40
152.4
 40
177.8
 40
177.8
 40
177.8
 40
203.2
 40
203.2
 40
203.2
 40
228.6
 40
228.6
 40
228.6
 40
254
 40
254
 40
254
 40
254
 10
1838.17
 20
-2978.73
 30
0
 10
1838.17
 20
-2978.73
 30
0
 10
1707.51
 20
-2978.73
 30
0
 10
1707.51
 20
-2978.73
 30
0
 10
1747.29
 20
-2872.98
 30
0
 10
1780.8
 20
-2762.93
 30
0
 10
1807.07
 20
-2651.52
 30
0
 10
1837.65
 20
-2522.38
 30
0
 10
1858.43
 20
-2389.32
 30
0
 10
1868.81
 20
-2256.04
 30
0
 10
1869.05
 20
-2253
 30
0
 10
1869.26
 20
-2249.92
 30
0
 10
1869.47
 20
-2246.83
 30
0
 10
1869.47
 20
-2246.83
 30
0
 10
1869.81
 20
-2242.13
 30
0
 10
1869.81
 20
-2242.13
 30
0
 10
1869.81
 20
-2242.13
 30
0
 10
1986.93
 20
-2242.13
 30
0
 10
1986.93
 20
-2242.13
 30
0
 10
1986.18
 20
-2270.72
 30
0
 10
1985.16
 20
-2294.01
 30
0
 10
1983.74
 20
-2315.37
 30
0
 10
1975.12
 20
-2447.72
 30
0
 10
1954.63
 20
-2579.7
 30
0
 10
1922.86
 20
-2707.65
 30
0
 10
1900.67
 20
-2797.57
 30
0
 10
1872.75
 20
-2887.26
 30
0
 10
1839.88
 20
-2974.21
 30
0
 10
1839.88
 20
-2974.21
 30
0
 10
1838.17
 20
-2978.73
 30
0
 10
1838.17
 20
-2978.73
 30
0
  0
SPLINE
  5
A12
330
A02
100
AcDbEntity
  8
Shape010
100
AcDbSpline
210
0
220
0
230
1
 70
9
 71
3
 72
17
 73
13
 74
0
 40
0
 40
0
 40
0
 40
0
 40
25.4
 40
25.4
 40
25.4
 40
50.8
 40
50.8
 40
50.8
 40
76.2
 40
76.2
 40
76.2
 40
101.6
 40
101.6
 40
101.6
 40
101.6
 10
4462.25
 20
-2566.25
 30
0
 10
4524.38
 20
-2551.18
 30
0
 10
4588.48
 20
-2568.68
 30
0
 10
4656.09
 20
-2619.36
 30
0
 10
4601.04
 20
-2604.05
 30
0
 10
4546.83
 20
-2608.55
 30
0
 10
4494.76
 20
-2632.77
 30
0
 10
4483.25
 20
-2638.12
 30
0
 10
4472.54
 20
-2644.16
 30
0
 10
4462.25
 20
-2650.56
 30
0
 10
4462.25
 20
-2650.56
 30
0
 10
4462.25
 20
-2566.25
 30
0
 10
4462.25
 20
-2566.25
 30
0
  0
SPLINE
  5
A13
330
A02
100
AcDbEntity
  8
Shape007
100
AcDbSpline
210
0
220
0
230
1
 70
9
 71
3
 72
35
 73
31
 74
0
 40
0
 40
0
 40
0
 40
0
 40
25.4
 40
25.4
 40
25.4
 40
50.8
 40
50.8
 40
50.8
 40
76.2
 40
76.2
 40
76.2
 40
101.6
 40
101.6
 40
101.6
 40
127
 40
127
 40
127
 40
152.4
 40
152.4
 40
152.4
 40
177.8
 40
177.8
 40
177.8
 40
203.2
 40
203.2
 40
203.2
 40
228.6
 40
228.6
 40
228.6
 40
254
 40
254
 40
254
 40
254
 10
4750.3
 20
-2251.54
 30
0
 10
4750.3
 20
-2251.54
 30
0
 10
4760.67
 20
-2242.13
 30
0
 10
4760.67
 20
-2242.13
 30
0
 10
4760.67
 20
-2242.13
 30
0
 10
4970.3
 20
-2242.13
 30
0
 10
4970.3
 20
-2242.13
 30
0
 10
4937.01
 20
-2294.43
 30
0
 10
4895.14
 20
-2337.77
 30
0
 10
4845.58
 20
-2370.82
 30
0
 10
4793.43
 20
-2405.6
 30
0
 10
4734.85
 20
-2426
 30
0
 10
4661.21
 20
-2435.03
 30
0
 10
4601.18
 20
-2442.39
 30
0
 10
4493.32
 20
-2417.77
 30
0
 10
4409.55
 20
-2377.72
 30
0
 10
4391.34
 20
-2360.73
 30
0
 10
4373.32
 20
-2346.46
 30
0
 10
4355.46
 20
-2334.86
 30
0
 10
4403.98
 20
-2348.93
 30
0
 10
4453.51
 20
-2356.96
 30
0
 10
4494.17
 20
-2356.96
 30
0
 10
4509.93
 20
-2356.96
 30
0
 10
4524.37
 20
-2355.78
 30
0
 10
4536.88
 20
-2353.31
 30
0
 10
4587.8
 20
-2343.25
 30
0
 10
4654.47
 20
-2325.57
 30
0
 10
4718.6
 20
-2277.79
 30
0
 10
4728.98
 20
-2270.06
 30
0
 10
4739.35
 20
-2261.47
 30
0
 10
4750.3
 20
-2251.54
 30
0
  0
SPLINE
  5
A14
330
A02
100
AcDbEntity
  8
Shape005
100
AcDbSpline
210
0
220
0
230
1
 70
9
 71
3
 72
35
 73
31
 74
0
 40
0
 40
0
 40
0
 40
0
 40
25.4
 40
25.4
 40
25.4
 40
50.8
 40
50.8
 40
50.8
 40
76.2
 40
76.2
 40
76.2
 40
101.6
 40
101.6
 40
101.6
 40
127
 40
127
 40
127
 40
152.4
 40
152.4
 40
152.4
 40
177.8
 40
177.8
 40
177.8
 40
203.2
 40
203.2
 40
203.2
 40
228.6
 40
228.6
 40
228.6
 40
254
 40
254
 40
254
 40
254
 10
2267.67
 20
-2438.9
 30
0
 10
2262.33
 20
-2572.21
 30
0
 10
2241.96
 20
-2704.9
 30
0
 10
2207.14
 20
-2833.3
 30
0
 10
2194.63
 20
-2879.85
 30
0
 10
2179.81
 20
-2927.34
 30
0
 10
2163.09
 20
-2974.46
 30
0
 10
2163.09
 20
-2974.46
 30
0
 10
2161.57
 20
-2978.73
 30
0
 10
2161.57
 20
-2978.73
 30
0
 10
2161.57
 20
-2978.73
 30
0
 10
2029.26
 20
-2978.73
 30
0
 10
2029.26
 20
-2978.73
 30
0
 10
2053.82
 20
-2911.83
 30
0
 10
2075.03
 20
-2844.12
 30
0
 10
2092.23
 20
-2777.42
 30
0
 10
2125.99
 20
-2647.52
 30
0
 10
2146.7
 20
-2513.32
 30
0
 10
2153.81
 20
-2378.55
 30
0
 10
2156.09
 20
-2336.46
 30
0
 10
2156.65
 20
-2291.83
 30
0
 10
2155.51
 20
-2242.13
 30
0
 10
2155.51
 20
-2242.13
 30
0
 10
2240.87
 20
-2242.13
 30
0
 10
2240.87
 20
-2242.13
 30
0
 10
2240.87
 20
-2242.13
 30
0
 10
2266.86
 20
-2302.81
 30
0
 10
2266.86
 20
-2302.81
 30
0
 10
2269.18
 20
-2352.47
 30
0
 10
2269.44
 20
-2396.98
 30
0
 10
2267.67
 20
-2438.9
 30
0
  0
SPLINE
  5
A15
330
A02
100
AcDbEntity
  8
Shape033
100
AcDbSpline
210
0
220
0
230
1
 70
9
 71
3
 72
23
 73
19
 74
0
 40
0
 40
0
 40
0
 40
0
 40
25.4
 40
25.4
 40
25.4
 40
50.8
 40
50.8
 40
50.8
 40
76.2
 40
76.2
 40
76.2
 40
101.6
 40
101.6
 40
101.6
 40
127
 40
127
 40
127
 40
152.4
 40
152.4
 40
152.4
 40
152.4
 10
3696.77
 20
-2978.73
 30
0
 10
3696.77
 20
-2978.73
 30
0
 10
3696.32
 20
-2976.33
 30
0
 10
3696.32
 20
-2976.33
 30
0
 10
3685.44
 20
-2919.14
 30
0
 10
3668.32
 20
-2863.91
 30
0
 10
3650.76
 20
-2813.53
 30
0
 10
3650.76
 20
-2813.53
 30
0
 10
3732.38
 20
-2813.53
 30
0
 10
3732.38
 20
-2813.53
 30
0
 10
3735.41
 20
-2820.73
 30
0
 10
3738.44
 20
-2827.92
 30
0
 10
3741.34
 20
-2835.18
 30
0
 10
3759.22
 20
-2879.94
 30
0
 10
3777.7
 20
-2928.27
 30
0
 10
3792.44
 20
-2978.73
 30
0
 10
3792.44
 20
-2978.73
 30
0
 10
3696.77
 20
-2978.73
 30
0
 10
3696.77
 20
-2978.73
 30
0
  0
SPLINE
  5
A16
330
A02
100
AcDbEntity
  8
Shape031
100
AcDbSpline
210
0
220
0
230
1
 70
9
 71
3
 72
23
 73
19
 74
0
 40
0
 40
0
 40
0
 40
0
 40
25.4
 40
25.4
 40
25.4
 40
50.8
 40
50.8
 40
50.8
 40
76.2
 40
76.2
 40
76.2
 40
101.6
 40
101.6
 40
101.6
 40
127
 40
127
 40
127
 40
152.4
 40
152.4
 40
152.4
 40
152.4
 10
3426.6
 20
-2978.73
 30
0
 10
3426.6
 20
-2978.73
 30
0
 10
3426.6
 20
-2978.58
 30
0
 10
3426.6
 20
-2978.58
 30
0
 10
3426.43
 20
-2961.41
 30
0
 10
3425.95
 20
-2945.87
 30
0
 10
3425.12
 20
-2931.13
 30
0
 10
3423.01
 20
-2891.05
 30
0
 10
3417.39
 20
-2852.04
 30
0
 10
3409.65
 20
-2813.53
 30
0
 10
3409.65
 20
-2813.53
 30
0
 10
3504.12
 20
-2813.53
 30
0
 10
3504.12
 20
-2813.53
 30
0
 10
3519.4
 20
-2866.97
 30
0
 10
3531.82
 20
-2922.19
 30
0
 10
3536.86
 20
-2978.73
 30
0
 10
3536.86
 20
-2978.73
 30
0
 10
3426.6
 20
-2978.73
 30
0
 10
3426.6
 20
-2978.73
 30
0
  0
SPLINE
  5
A17
330
A02
100
AcDbEntity
  8
Shape025
100
AcDbSpline
210
0
220
0
230
1
 70
9
 71
3
 72
38
 73
34
 74
0
 40
0
 40
0
 40
0
 40
0
 40
25.4
 40
25.4
 40
25.4
 40
50.8
 40
50.8
 40
50.8
 40
76.2
 40
76.2
 40
76.2
 40
101.6
 40
101.6
 40
101.6
 40
127
 40
127
 40
127
 40
152.4
 40
152.4
 40
152.4
 40
177.8
 40
177.8
 40
177.8
 40
203.2
 40
203.2
 40
203.2
 40
228.6
 40
228.6
 40
228.6
 40
254
 40
254
 40
254
 40
279.4
 40
279.4
 40
279.4
 40
279.4
 10
2549.67
 20
-2242.13
 30
0
 10
2549.67
 20
-2242.13
 30
0
 10
2643.24
 20
-2242.13
 30
0
 10
2643.24
 20
-2242.13
 30
0
 10
2643.24
 20
-2242.13
 30
0
 10
2643.81
 20
-2244.79
 30
0
 10
2643.81
 20
-2244.79
 30
0
 10
2650.41
 20
-2275.64
 30
0
 10
2656.44
 20
-2307.14
 30
0
 10
2661.74
 20
-2338.41
 30
0
 10
2670.26
 20
-2388.68
 30
0
 10
2678.94
 20
-2442.63
 30
0
 10
2684.75
 20
-2496.51
 30
0
 10
2684.75
 20
-2496.51
 30
0
 10
2685.9
 20
-2497.75
 30
0
 10
2685.9
 20
-2497.75
 30
0
 10
2685.9
 20
-2497.75
 30
0
 10
2691.79
 20
-2498.23
 30
0
 10
2691.79
 20
-2498.23
 30
0
 10
2691.79
 20
-2498.23
 30
0
 10
2614.71
 20
-2498.23
 30
0
 10
2614.71
 20
-2498.23
 30
0
 10
2601.01
 20
-2498.23
 30
0
 10
2587.88
 20
-2492.97
 30
0
 10
2577.89
 20
-2483.66
 30
0
 10
2577.89
 20
-2483.66
 30
0
 10
2575.59
 20
-2459.36
 30
0
 10
2575.59
 20
-2459.36
 30
0
 10
2571.23
 20
-2395.6
 30
0
 10
2562.72
 20
-2331.68
 30
0
 10
2554.18
 20
-2272.1
 30
0
 10
2552.73
 20
-2262.01
 30
0
 10
2551.21
 20
-2252.04
 30
0
 10
2549.67
 20
-2242.13
 30
0
  0
SPLINE
  5
A18
330
A02
100
AcDbEntity
  8
Shape012
100
AcDbSpline
210
0
220
0
230
1
 70
9
 71
3
 72
35
 73
31
 74
0
 40
0
 40
0
 40
0
 40
0
 40
25.4
 40
25.4
 40
25.4
 40
50.8
 40
50.8
 40
50.8
 40
76.2
 40
76.2
 40
76.2
 40
101.6
 40
101.6
 40
101.6
 40
127
 40
127
 40
127
 40
152.4
 40
152.4
 40
152.4
 40
177.8
 40
177.8
 40
177.8
 40
203.2
 40
203.2
 40
203.2
 40
228.6
 40
228.6
 40
228.6
 40
254
 40
254
 40
254
 40
254
 10
4139.47
 20
-2242.13
 30
0
 10
4139.47
 20
-2242.13
 30
0
 10
4164.76
 20
-2242.13
 30
0
 10
4164.76
 20
-2242.13
 30
0
 10
4164.76
 20
-2242.13
 30
0
 10
4198.6
 20
-2254.1
 30
0
 10
4198.6
 20
-2254.1
 30
0
 10
4223.44
 20
-2262.89
 30
0
 10
4248.35
 20
-2278.24
 30
0
 10
4274.49
 20
-2300.74
 30
0
 10
4224.66
 20
-2291.12
 30
0
 10
4175.68
 20
-2303.13
 30
0
 10
4126.77
 20
-2337.09
 30
0
 10
4097.92
 20
-2357.12
 30
0
 10
4074.2
 20
-2380.7
 30
0
 10
4055.01
 20
-2408.19
 30
0
 10
4055.01
 20
-2408.19
 30
0
 10
3962.02
 20
-2408.19
 30
0
 10
3962.02
 20
-2408.19
 30
0
 10
3962.34
 20
-2407.32
 30
0
 10
3962.57
 20
-2406.46
 30
0
 10
3962.89
 20
-2405.6
 30
0
 10
3981.36
 20
-2356.25
 30
0
 10
4010.24
 20
-2316.93
 30
0
 10
4051.2
 20
-2285.38
 30
0
 10
4069.62
 20
-2271.19
 30
0
 10
4088.2
 20
-2260.65
 30
0
 10
4106.42
 20
-2254.07
 30
0
 10
4106.42
 20
-2254.07
 30
0
 10
4139.47
 20
-2242.13
 30
0
 10
4139.47
 20
-2242.13
 30
0
  0
SPLINE
  5
A19
330
A02
100
AcDbEntity
  8
Shape030
100
AcDbSpline
210
0
220
0
230
1
 70
9
 71
3
 72
23
 73
19
 74
0
 40
0
 40
0
 40
0
 40
0
 40
25.4
 40
25.4
 40
25.4
 40
50.8
 40
50.8
 40
50.8
 40
76.2
 40
76.2
 40
76.2
 40
101.6
 40
101.6
 40
101.6
 40
127
 40
127
 40
127
 40
152.4
 40
152.4
 40
152.4
 40
152.4
 10
3283.5
 20
-2978.73
 30
0
 10
3285.57
 20
-2941.95
 30
0
 10
3285.81
 20
-2904.88
 30
0
 10
3284.19
 20
-2868.5
 30
0
 10
3283.43
 20
-2850
 30
0
 10
3281.77
 20
-2831.72
 30
0
 10
3279.72
 20
-2813.53
 30
0
 10
3279.72
 20
-2813.53
 30
0
 10
3381.08
 20
-2813.53
 30
0
 10
3381.08
 20
-2813.53
 30
0
 10
3389.18
 20
-2852.66
 30
0
 10
3395.09
 20
-2892.19
 30
0
 10
3397.22
 20
-2932.64
 30
0
 10
3398.02
 20
-2946.91
 30
0
 10
3398.49
 20
-2962
 30
0
 10
3398.66
 20
-2978.73
 30
0
 10
3398.66
 20
-2978.73
 30
0
 10
3283.5
 20
-2978.73
 30
0
 10
3283.5
 20
-2978.73
 30
0
  0
SPLINE
  5
A1A
330
A02
100
AcDbEntity
  8
Shape029
100
AcDbSpline
210
0
220
0
230
1
 70
9
 71
3
 72
23
 73
19
 74
0
 40
0
 40
0
 40
0
 40
0
 40
25.4
 40
25.4
 40
25.4
 40
50.8
 40
50.8
 40
50.8
 40
76.2
 40
76.2
 40
76.2
 40
101.6
 40
101.6
 40
101.6
 40
127
 40
127
 40
127
 40
152.4
 40
152.4
 40
152.4
 40
152.4
 10
3255.56
 20
-2977.98
 30
0
 10
3255.56
 20
-2977.98
 30
0
 10
3255.52
 20
-2978.73
 30
0
 10
3255.52
 20
-2978.73
 30
0
 10
3255.52
 20
-2978.73
 30
0
 10
3135.99
 20
-2978.73
 30
0
 10
3135.99
 20
-2978.73
 30
0
 10
3142.38
 20
-2923.8
 30
0
 10
3144.78
 20
-2868.28
 30
0
 10
3143.29
 20
-2813.53
 30
0
 10
3143.29
 20
-2813.53
 30
0
 10
3251.6
 20
-2813.53
 30
0
 10
3251.6
 20
-2813.53
 30
0
 10
3253.77
 20
-2832.16
 30
0
 10
3255.5
 20
-2850.86
 30
0
 10
3256.27
 20
-2869.75
 30
0
 10
3257.86
 20
-2905.4
 30
0
 10
3257.62
 20
-2941.82
 30
0
 10
3255.56
 20
-2977.98
 30
0
  0
SPLINE
  5
A1B
330
A02
100
AcDbEntity
  8
Shape044
100
AcDbSpline
210
0
220
0
230
1
 70
9
 71
3
 72
14
 73
10
 74
0
 40
0
 40
0
 40
0
 40
0
 40
25.4
 40
25.4
 40
25.4
 40
50.8
 40
50.8
 40
50.8
 40
76.2
 40
76.2
 40
76.2
 40
76.2
 10
4816.4
 20
-2978.73
 30
0
 10
4829.31
 20
-2971.9
 30
0
 10
4842.92
 20
-2965.94
 30
0
 10
4857.22
 20
-2961.09
 30
0
 10
4919.33
 20
-2940.02
 30
0
 10
4986.5
 20
-2946.04
 30
0
 10
5057.15
 20
-2978.73
 30
0
 10
5057.15
 20
-2978.73
 30
0
 10
4816.4
 20
-2978.73
 30
0
 10
4816.4
 20
-2978.73
 30
0
  0
SPLINE
  5
A1C
330
A02
100
AcDbEntity
  8
Shape001
100
AcDbSpline
210
0
220
0
230
1
 70
9
 71
3
 72
29
 73
25
 74
0
 40
0
 40
0
 40
0
 40
0
 40
25.4
 40
25.4
 40
25.4
 40
50.8
 40
50.8
 40
50.8
 40
76.2
 40
76.2
 40
76.2
 40
101.6
 40
101.6
 40
101.6
 40
127
 40
127
 40
127
 40
152.4
 40
152.4
 40
152.4
 40
177.8
 40
177.8
 40
177.8
 40
203.2
 40
203.2
 40
203.2
 40
203.2
 10
1518.56
 20
-2978.73
 30
0
 10
1518.56
 20
-2978.73
 30
0
 10
495.301
 20
-2978.73
 30
0
 10
495.301
 20
-2978.73
 30
0
 10
474.291
 20
-2978.73
 30
0
 10
457.201
 20
-2961.64
 30
0
 10
457.201
 20
-2940.63
 30
0
 10
457.201
 20
-2940.63
 30
0
 10
457.201
 20
-2280.23
 30
0
 10
457.201
 20
-2280.23
 30
0
 10
457.201
 20
-2259.22
 30
0
 10
474.291
 20
-2242.13
 30
0
 10
495.301
 20
-2242.13
 30
0
 10
495.301
 20
-2242.13
 30
0
 10
1692.11
 20
-2242.13
 30
0
 10
1692.11
 20
-2242.13
 30
0
 10
1679.75
 20
-2357.48
 30
0
 10
1660.84
 20
-2472.16
 30
0
 10
1635.87
 20
-2583
 30
0
 10
1606.28
 20
-2714.75
 30
0
 10
1568.06
 20
-2844.53
 30
0
 10
1522.28
 20
-2968.74
 30
0
 10
1522.28
 20
-2968.74
 30
0
 10
1518.56
 20
-2978.73
 30
0
 10
1518.56
 20
-2978.73
 30
0
  0
SPLINE
  5
A1D
330
A02
100
AcDbEntity
  8
Shape008
100
AcDbSpline
210
0
220
0
230
1
 70
9
 71
3
 72
14
 73
10
 74
0
 40
0
 40
0
 40
0
 40
0
 40
25.4
 40
25.4
 40
25.4
 40
50.8
 40
50.8
 40
50.8
 40
76.2
 40
76.2
 40
76.2
 40
76.2
 10
4462.25
 20
-2489.08
 30
0
 10
4494.29
 20
-2497.24
 30
0
 10
4526.96
 20
-2513.95
 30
0
 10
4560.5
 20
-2539.57
 30
0
 10
4527.34
 20
-2531.03
 30
0
 10
4494.64
 20
-2530.3
 30
0
 10
4462.25
 20
-2537.29
 30
0
 10
4462.25
 20
-2537.29
 30
0
 10
4462.25
 20
-2489.08
 30
0
 10
4462.25
 20
-2489.08
 30
0
  0
SPLINE
  5
A1E
330
A02
100
AcDbEntity
  8
Shape026
100
AcDbSpline
210
0
220
0
230
1
 70
9
 71
3
 72
29
 73
25
 74
0
 40
0
 40
0
 40
0
 40
0
 40
25.4
 40
25.4
 40
25.4
 40
50.8
 40
50.8
 40
50.8
 40
76.2
 40
76.2
 40
76.2
 40
101.6
 40
101.6
 40
101.6
 40
127
 40
127
 40
127
 40
152.4
 40
152.4
 40
152.4
 40
177.8
 40
177.8
 40
177.8
 40
203.2
 40
203.2
 40
203.2
 40
203.2
 10
2736.12
 20
-2687.06
 30
0
 10
2736.12
 20
-2694.04
 30
0
 10
2730.4
 20
-2699.76
 30
0
 10
2723.42
 20
-2699.76
 30
0
 10
2723.42
 20
-2699.76
 30
0
 10
2567.41
 20
-2699.76
 30
0
 10
2567.41
 20
-2699.76
 30
0
 10
2560.43
 20
-2699.76
 30
0
 10
2554.71
 20
-2694.04
 30
0
 10
2554.71
 20
-2687.06
 30
0
 10
2554.71
 20
-2687.06
 30
0
 10
2554.71
 20
-2534.66
 30
0
 10
2554.71
 20
-2534.66
 30
0
 10
2554.71
 20
-2527.67
 30
0
 10
2560.43
 20
-2521.96
 30
0
 10
2567.41
 20
-2521.96
 30
0
 10
2567.41
 20
-2521.96
 30
0
 10
2688.1
 20
-2521.96
 30
0
 10
2688.1
 20
-2521.96
 30
0
 10
2714.51
 20
-2521.96
 30
0
 10
2736.12
 20
-2543.56
 30
0
 10
2736.12
 20
-2569.97
 30
0
 10
2736.12
 20
-2569.97
 30
0
 10
2736.12
 20
-2687.06
 30
0
 10
2736.12
 20
-2687.06
 30
0
  0
SPLINE
  5
A1F
330
A02
100
AcDbEntity
  8
Shape017
100
AcDbSpline
210
0
220
0
230
1
 70
9
 71
3
 72
29
 73
25
 74
0
 40
0
 40
0
 40
0
 40
0
 40
25.4
 40
25.4
 40
25.4
 40
50.8
 40
50.8
 40
50.8
 40
76.2
 40
76.2
 40
76.2
 40
101.6
 40
101.6
 40
101.6
 40
127
 40
127
 40
127
 40
152.4
 40
152.4
 40
152.4
 40
177.8
 40
177.8
 40
177.8
 40
203.2
 40
203.2
 40
203.2
 40
203.2
 10
3557.32
 20
-2242.13
 30
0
 10
3557.32
 20
-2242.13
 30
0
 10
3557.67
 20
-2244.24
 30
0
 10
3557.67
 20
-2244.24
 30
0
 10
3559.22
 20
-2253.44
 30
0
 10
3560.89
 20
-2261.49
 30
0
 10
3562.78
 20
-2268.87
 30
0
 10
3576.45
 20
-2322.37
 30
0
 10
3604.48
 20
-2368.92
 30
0
 10
3630.1
 20
-2407.41
 30
0
 10
3630.27
 20
-2407.67
 30
0
 10
3630.46
 20
-2407.93
 30
0
 10
3630.64
 20
-2408.19
 30
0
 10
3630.64
 20
-2408.19
 30
0
 10
3606.77
 20
-2408.19
 30
0
 10
3606.77
 20
-2408.19
 30
0
 10
3583
 20
-2378.96
 30
0
 10
3561.38
 20
-2349.28
 30
0
 10
3542.3
 20
-2319.22
 30
0
 10
3529.43
 20
-2298.95
 30
0
 10
3513.2
 20
-2272.11
 30
0
 10
3499.73
 20
-2242.13
 30
0
 10
3499.73
 20
-2242.13
 30
0
 10
3557.32
 20
-2242.13
 30
0
 10
3557.32
 20
-2242.13
 30
0
  0
SPLINE
  5
A20
330
A02
100
AcDbEntity
  8
Shape040
100
AcDbSpline
210
0
220
0
230
1
 70
9
 71
3
 72
41
 73
37
 74
0
 40
0
 40
0
 40
0
 40
0
 40
25.4
 40
25.4
 40
25.4
 40
50.8
 40
50.8
 40
50.8
 40
76.2
 40
76.2
 40
76.2
 40
101.6
 40
101.6
 40
101.6
 40
127
 40
127
 40
127
 40
152.4
 40
152.4
 40
152.4
 40
177.8
 40
177.8
 40
177.8
 40
203.2
 40
203.2
 40
203.2
 40
228.6
 40
228.6
 40
228.6
 40
254
 40
254
 40
254
 40
279.4
 40
279.4
 40
279.4
 40
304.8
 40
304.8
 40
304.8
 40
304.8
 10
4393.34
 20
-2978.73
 30
0
 10
4393.34
 20
-2978.73
 30
0
 10
4389.99
 20
-2972.61
 30
0
 10
4389.99
 20
-2972.61
 30
0
 10
4380.76
 20
-2955.71
 30
0
 10
4373.84
 20
-2938.57
 30
0
 10
4369.42
 20
-2921.64
 30
0
 10
4360.18
 20
-2886.24
 30
0
 10
4361.17
 20
-2850.02
 30
0
 10
4372.01
 20
-2813.53
 30
0
 10
4372.01
 20
-2813.53
 30
0
 10
4436.85
 20
-2813.53
 30
0
 10
4436.85
 20
-2813.53
 30
0
 10
4450.88
 20
-2813.53
 30
0
 10
4462.25
 20
-2802.16
 30
0
 10
4462.25
 20
-2788.13
 30
0
 10
4462.25
 20
-2788.13
 30
0
 10
4462.25
 20
-2684.23
 30
0
 10
4462.25
 20
-2684.23
 30
0
 10
4475.75
 20
-2674.4
 30
0
 10
4490.39
 20
-2665.61
 30
0
 10
4506.54
 20
-2658.1
 30
0
 10
4584.03
 20
-2622.05
 30
0
 10
4664.26
 20
-2635.17
 30
0
 10
4750.13
 20
-2698.07
 30
0
 10
4694.13
 20
-2681.69
 30
0
 10
4639.1
 20
-2684.54
 30
0
 10
4586.31
 20
-2706.76
 30
0
 10
4524.72
 20
-2732.7
 30
0
 10
4479.87
 20
-2773.16
 30
0
 10
4449.2
 20
-2830.49
 30
0
 10
4422.73
 20
-2879.9
 30
0
 10
4413.11
 20
-2929.77
 30
0
 10
4420.44
 20
-2978.73
 30
0
 10
4420.44
 20
-2978.73
 30
0
 10
4393.34
 20
-2978.73
 30
0
 10
4393.34
 20
-2978.73
 30
0
  0
SPLINE
  5
A21
330
A02
100
AcDbEntity
  8
Shape038
100
AcDbSpline
210
0
220
0
230
1
 70
9
 71
3
 72
20
 73
16
 74
0
 40
0
 40
0
 40
0
 40
0
 40
25.4
 40
25.4
 40
25.4
 40
50.8
 40
50.8
 40
50.8
 40
76.2
 40
76.2
 40
76.2
 40
101.6
 40
101.6
 40
101.6
 40
127
 40
127
 40
127
 40
127
 10
4274.06
 20
-2896.76
 30
0
 10
4248.57
 20
-2868.28
 30
0
 10
4230.1
 20
-2841.09
 30
0
 10
4217.45
 20
-2813.53
 30
0
 10
4217.45
 20
-2813.53
 30
0
 10
4252.62
 20
-2813.53
 30
0
 10
4252.62
 20
-2813.53
 30
0
 10
4253.62
 20
-2827.56
 30
0
 10
4255.92
 20
-2841.53
 30
0
 10
4259.53
 20
-2855.41
 30
0
 10
4263.21
 20
-2869.55
 30
0
 10
4268.22
 20
-2883.4
 30
0
 10
4274.5
 20
-2897.1
 30
0
 10
4274.5
 20
-2897.1
 30
0
 10
4274.06
 20
-2896.76
 30
0
 10
4274.06
 20
-2896.76
 30
0
  0
SPLINE
  5
A22
330
A02
100
AcDbEntity
  8
Shape019
100
AcDbSpline
210
0
220
0
230
1
 70
9
 71
3
 72
26
 73
22
 74
0
 40
0
 40
0
 40
0
 40
0
 40
25.4
 40
25.4
 40
25.4
 40
50.8
 40
50.8
 40
50.8
 40
76.2
 40
76.2
 40
76.2
 40
101.6
 40
101.6
 40
101.6
 40
127
 40
127
 40
127
 40
152.4
 40
152.4
 40
152.4
 40
177.8
 40
177.8
 40
177.8
 40
177.8
 10
3395.97
 20
-2242.13
 30
0
 10
3395.97
 20
-2242.13
 30
0
 10
3402.12
 20
-2252.6
 30
0
 10
3402.12
 20
-2252.6
 30
0
 10
3403.85
 20
-2255.56
 30
0
 10
3405.57
 20
-2258.52
 30
0
 10
3407.31
 20
-2261.39
 30
0
 10
3438.41
 20
-2312.83
 30
0
 10
3473.95
 20
-2361.34
 30
0
 10
3514.64
 20
-2408.19
 30
0
 10
3514.64
 20
-2408.19
 30
0
 10
3499.33
 20
-2408.19
 30
0
 10
3499.33
 20
-2408.19
 30
0
 10
3493.44
 20
-2401.85
 30
0
 10
3487.56
 20
-2395.51
 30
0
 10
3481.52
 20
-2389.21
 30
0
 10
3437.03
 20
-2342.66
 30
0
 10
3398.18
 20
-2294.44
 30
0
 10
3362.85
 20
-2242.13
 30
0
 10
3362.85
 20
-2242.13
 30
0
 10
3395.97
 20
-2242.13
 30
0
 10
3395.97
 20
-2242.13
 30
0
  0
SPLINE
  5
A23
330
A02
100
AcDbEntity
  8
Shape048
100
AcDbSpline
210
0
220
0
230
1
 70
9
 71
3
 72
41
 73
37
 74
0
 40
0
 40
0
 40
0
 40
0
 40
25.4
 40
25.4
 40
25.4
 40
50.8
 40
50.8
 40
50.8
 40
76.2
 40
76.2
 40
76.2
 40
101.6
 40
101.6
 40
101.6
 40
127
 40
127
 40
127
 40
152.4
 40
152.4
 40
152.4
 40
177.8
 40
177.8
 40
177.8
 40
203.2
 40
203.2
 40
203.2
 40
228.6
 40
228.6
 40
228.6
 40
254
 40
254
 40
254
 40
279.4
 40
279.4
 40
279.4
 40
304.8
 40
304.8
 40
304.8
 40
304.8
 10
6322.62
 20
-2978.73
 30
0
 10
6322.62
 20
-2978.73
 30
0
 10
6154.2
 20
-2978.73
 30
0
 10
6154.2
 20
-2978.73
 30
0
 10
6168.22
 20
-2958.07
 30
0
 10
6180.56
 20
-2937.6
 30
0
 10
6191.59
 20
-2916.42
 30
0
 10
6265.34
 20
-2775.23
 30
0
 10
6281.34
 20
-2627.3
 30
0
 10
6239.15
 20
-2476.72
 30
0
 10
6239.15
 20
-2476.72
 30
0
 10
6239.15
 20
-2476.71
 30
0
 10
6239.15
 20
-2476.71
 30
0
 10
6215.51
 20
-2392.79
 30
0
 10
6170.65
 20
-2313.94
 30
0
 10
6105.88
 20
-2242.13
 30
0
 10
6105.88
 20
-2242.13
 30
0
 10
6119.02
 20
-2242.13
 30
0
 10
6119.02
 20
-2242.13
 30
0
 10
6119.02
 20
-2242.13
 30
0
 10
6133.28
 20
-2252.42
 30
0
 10
6133.28
 20
-2252.42
 30
0
 10
6152.08
 20
-2265.99
 30
0
 10
6168.66
 20
-2279.1
 30
0
 10
6182.58
 20
-2291.38
 30
0
 10
6182.58
 20
-2291.38
 30
0
 10
6182.6
 20
-2291.39
 30
0
 10
6182.6
 20
-2291.39
 30
0
 10
6273.34
 20
-2371.16
 30
0
 10
6334.11
 20
-2462.32
 30
0
 10
6363.2
 20
-2562.36
 30
0
 10
6403.66
 20
-2701.44
 30
0
 10
6390.94
 20
-2839.63
 30
0
 10
6325.39
 20
-2973.1
 30
0
 10
6325.39
 20
-2973.1
 30
0
 10
6322.62
 20
-2978.73
 30
0
 10
6322.62
 20
-2978.73
 30
0
  0
SPLINE
  5
A24
330
A02
100
AcDbEntity
  8
Shape035
100
AcDbSpline
210
0
220
0
230
1
 70
9
 71
3
 72
26
 73
22
 74
0
 40
0
 40
0
 40
0
 40
0
 40
25.4
 40
25.4
 40
25.4
 40
50.8
 40
50.8
 40
50.8
 40
76.2
 40
76.2
 40
76.2
 40
101.6
 40
101.6
 40
101.6
 40
127
 40
127
 40
127
 40
152.4
 40
152.4
 40
152.4
 40
177.8
 40
177.8
 40
177.8
 40
177.8
 10
3939.36
 20
-2978.73
 30
0
 10
3939.36
 20
-2978.73
 30
0
 10
3937.67
 20
-2974.24
 30
0
 10
3937.67
 20
-2974.24
 30
0
 10
3925.06
 20
-2940.62
 30
0
 10
3911.89
 20
-2909.55
 30
0
 10
3901.83
 20
-2886.23
 30
0
 10
3891.27
 20
-2861.77
 30
0
 10
3879.69
 20
-2837.55
 30
0
 10
3867.29
 20
-2813.53
 30
0
 10
3867.29
 20
-2813.53
 30
0
 10
3929.29
 20
-2813.53
 30
0
 10
3929.29
 20
-2813.53
 30
0
 10
3960.78
 20
-2861.19
 30
0
 10
3988.12
 20
-2909.68
 30
0
 10
4010.99
 20
-2958.88
 30
0
 10
4014.1
 20
-2965.6
 30
0
 10
4017.07
 20
-2972.16
 30
0
 10
4020.03
 20
-2978.73
 30
0
 10
4020.03
 20
-2978.73
 30
0
 10
3939.36
 20
-2978.73
 30
0
 10
3939.36
 20
-2978.73
 30
0
  0
SPLINE
  5
A25
330
A02
100
AcDbEntity
  8
Shape047
100
AcDbSpline
210
0
220
0
230
1
 70
9
 71
3
 72
35
 73
31
 74
0
 40
0
 40
0
 40
0
 40
0
 40
25.4
 40
25.4
 40
25.4
 40
50.8
 40
50.8
 40
50.8
 40
76.2
 40
76.2
 40
76.2
 40
101.6
 40
101.6
 40
101.6
 40
127
 40
127
 40
127
 40
152.4
 40
152.4
 40
152.4
 40
177.8
 40
177.8
 40
177.8
 40
203.2
 40
203.2
 40
203.2
 40
228.6
 40
228.6
 40
228.6
 40
254
 40
254
 40
254
 40
254
 10
6120.27
 20
-2978.73
 30
0
 10
6120.27
 20
-2978.73
 30
0
 10
5897.74
 20
-2978.73
 30
0
 10
5897.74
 20
-2978.73
 30
0
 10
5952
 20
-2929.63
 30
0
 10
5996.86
 20
-2869.46
 30
0
 10
6030.96
 20
-2799.42
 30
0
 10
6099.34
 20
-2659.61
 30
0
 10
6111.61
 20
-2513.44
 30
0
 10
6067.43
 20
-2364.94
 30
0
 10
6054.77
 20
-2322.78
 30
0
 10
6036.56
 20
-2281.52
 30
0
 10
6013.42
 20
-2242.13
 30
0
 10
6013.42
 20
-2242.13
 30
0
 10
6067.87
 20
-2242.13
 30
0
 10
6067.87
 20
-2242.13
 30
0
 10
6067.87
 20
-2242.13
 30
0
 10
6076.02
 20
-2250.82
 30
0
 10
6076.02
 20
-2250.82
 30
0
 10
6142.85
 20
-2322.07
 30
0
 10
6188.69
 20
-2400.62
 30
0
 10
6212.25
 20
-2484.26
 30
0
 10
6252.45
 20
-2627.75
 30
0
 10
6237.17
 20
-2768.8
 30
0
 10
6166.82
 20
-2903.51
 30
0
 10
6154.76
 20
-2926.65
 30
0
 10
6141.22
 20
-2948.86
 30
0
 10
6125.41
 20
-2971.41
 30
0
 10
6125.41
 20
-2971.41
 30
0
 10
6120.27
 20
-2978.73
 30
0
 10
6120.27
 20
-2978.73
 30
0
  0
SPLINE
  5
A26
330
A02
100
AcDbEntity
  8
Shape034
100
AcDbSpline
210
0
220
0
230
1
 70
9
 71
3
 72
26
 73
22
 74
0
 40
0
 40
0
 40
0
 40
0
 40
25.4
 40
25.4
 40
25.4
 40
50.8
 40
50.8
 40
50.8
 40
76.2
 40
76.2
 40
76.2
 40
101.6
 40
101.6
 40
101.6
 40
127
 40
127
 40
127
 40
152.4
 40
152.4
 40
152.4
 40
177.8
 40
177.8
 40
177.8
 40
177.8
 10
3821.59
 20
-2978.73
 30
0
 10
3821.59
 20
-2978.73
 30
0
 10
3820.57
 20
-2975.19
 30
0
 10
3820.57
 20
-2975.19
 30
0
 10
3805.3
 20
-2922.02
 30
0
 10
3785.94
 20
-2871.5
 30
0
 10
3767.3
 20
-2824.82
 30
0
 10
3765.78
 20
-2821.04
 30
0
 10
3764.17
 20
-2817.3
 30
0
 10
3762.62
 20
-2813.53
 30
0
 10
3762.62
 20
-2813.53
 30
0
 10
3835.84
 20
-2813.53
 30
0
 10
3835.84
 20
-2813.53
 30
0
 10
3850.54
 20
-2841.15
 30
0
 10
3864
 20
-2869.08
 30
0
 10
3876.18
 20
-2897.3
 30
0
 10
3889.87
 20
-2929.02
 30
0
 10
3900.23
 20
-2954.37
 30
0
 10
3909.49
 20
-2978.73
 30
0
 10
3909.49
 20
-2978.73
 30
0
 10
3821.59
 20
-2978.73
 30
0
 10
3821.59
 20
-2978.73
 30
0
  0
SPLINE
  5
A27
330
A02
100
AcDbEntity
  8
Shape037
100
AcDbSpline
210
0
220
0
230
1
 70
9
 71
3
 72
20
 73
16
 74
0
 40
0
 40
0
 40
0
 40
0
 40
25.4
 40
25.4
 40
25.4
 40
50.8
 40
50.8
 40
50.8
 40
76.2
 40
76.2
 40
76.2
 40
101.6
 40
101.6
 40
101.6
 40
127
 40
127
 40
127
 40
127
 10
4155.28
 20
-2978.73
 30
0
 10
4155.28
 20
-2978.73
 30
0
 10
4151.9
 20
-2972.59
 30
0
 10
4151.9
 20
-2972.59
 30
0
 10
4122.37
 20
-2918.81
 30
0
 10
4087.05
 20
-2865.71
 30
0
 10
4046.19
 20
-2813.53
 30
0
 10
4046.19
 20
-2813.53
 30
0
 10
4077.2
 20
-2813.53
 30
0
 10
4077.2
 20
-2813.53
 30
0
 10
4130.44
 20
-2867.82
 30
0
 10
4176.83
 20
-2923.03
 30
0
 10
4215.94
 20
-2978.73
 30
0
 10
4215.94
 20
-2978.73
 30
0
 10
4155.28
 20
-2978.73
 30
0
 10
4155.28
 20
-2978.73
 30
0
  0
SPLINE
  5
A28
330
A02
100
AcDbEntity
  8
Shape014
100
AcDbSpline
210
0
220
0
230
1
 70
9
 71
3
 72
26
 73
22
 74
0
 40
0
 40
0
 40
0
 40
0
 40
25.4
 40
25.4
 40
25.4
 40
50.8
 40
50.8
 40
50.8
 40
76.2
 40
76.2
 40
76.2
 40
101.6
 40
101.6
 40
101.6
 40
127
 40
127
 40
127
 40
152.4
 40
152.4
 40
152.4
 40
177.8
 40
177.8
 40
177.8
 40
177.8
 10
3790.52
 20
-2259.45
 30
0
 10
3791.44
 20
-2256.56
 30
0
 10
3792.51
 20
-2253.79
 30
0
 10
3793.58
 20
-2251.02
 30
0
 10
3793.58
 20
-2251.02
 30
0
 10
3796.87
 20
-2242.13
 30
0
 10
3796.87
 20
-2242.13
 30
0
 10
3796.87
 20
-2242.13
 30
0
 10
3892.94
 20
-2242.13
 30
0
 10
3892.94
 20
-2242.13
 30
0
 10
3875.02
 20
-2266.64
 30
0
 10
3860.94
 20
-2293.23
 30
0
 10
3850.48
 20
-2323.37
 30
0
 10
3840.63
 20
-2351.8
 30
0
 10
3835.09
 20
-2380.13
 30
0
 10
3833.79
 20
-2408.19
 30
0
 10
3833.79
 20
-2408.19
 30
0
 10
3784.72
 20
-2408.19
 30
0
 10
3784.72
 20
-2408.19
 30
0
 10
3772.42
 20
-2360.06
 30
0
 10
3774.37
 20
-2310.02
 30
0
 10
3790.52
 20
-2259.45
 30
0
  0
SPLINE
  5
A29
330
A02
100
AcDbEntity
  8
Shape049
100
AcDbSpline
210
0
220
0
230
1
 70
9
 71
3
 72
29
 73
25
 74
0
 40
0
 40
0
 40
0
 40
0
 40
25.4
 40
25.4
 40
25.4
 40
50.8
 40
50.8
 40
50.8
 40
76.2
 40
76.2
 40
76.2
 40
101.6
 40
101.6
 40
101.6
 40
127
 40
127
 40
127
 40
152.4
 40
152.4
 40
152.4
 40
177.8
 40
177.8
 40
177.8
 40
203.2
 40
203.2
 40
203.2
 40
203.2
 10
7086.6
 20
-2940.63
 30
0
 10
7086.6
 20
-2961.64
 30
0
 10
7069.51
 20
-2978.73
 30
0
 10
7048.5
 20
-2978.73
 30
0
 10
7048.5
 20
-2978.73
 30
0
 10
6353.61
 20
-2978.73
 30
0
 10
6353.61
 20
-2978.73
 30
0
 10
6419.5
 20
-2840.88
 30
0
 10
6431.82
 20
-2698.21
 30
0
 10
6390.04
 20
-2554.55
 30
0
 10
6359.42
 20
-2449.33
 30
0
 10
6295.84
 20
-2353.73
 30
0
 10
6201.06
 20
-2270.42
 30
0
 10
6190.74
 20
-2261.32
 30
0
 10
6179.09
 20
-2251.83
 30
0
 10
6166.34
 20
-2242.13
 30
0
 10
6166.34
 20
-2242.13
 30
0
 10
7048.5
 20
-2242.13
 30
0
 10
7048.5
 20
-2242.13
 30
0
 10
7069.51
 20
-2242.13
 30
0
 10
7086.6
 20
-2259.22
 30
0
 10
7086.6
 20
-2280.23
 30
0
 10
7086.6
 20
-2280.23
 30
0
 10
7086.6
 20
-2940.63
 30
0
 10
7086.6
 20
-2940.63
 30
0
  0
SPLINE
  5
A2A
330
A02
100
AcDbEntity
  8
Shape045
100
AcDbSpline
210
0
220
0
230
1
 70
9
 71
3
 72
29
 73
25
 74
0
 40
0
 40
0
 40
0
 40
0
 40
25.4
 40
25.4
 40
25.4
 40
50.8
 40
50.8
 40
50.8
 40
76.2
 40
76.2
 40
76.2
 40
101.6
 40
101.6
 40
101.6
 40
127
 40
127
 40
127
 40
152.4
 40
152.4
 40
152.4
 40
177.8
 40
177.8
 40
177.8
 40
203.2
 40
203.2
 40
203.2
 40
203.2
 10
5443.7
 20
-2690.29
 30
0
 10
5443.7
 20
-2697.28
 30
0
 10
5437.98
 20
-2702.99
 30
0
 10
5431
 20
-2702.99
 30
0
 10
5431
 20
-2702.99
 30
0
 10
5310.31
 20
-2702.99
 30
0
 10
5310.31
 20
-2702.99
 30
0
 10
5283.9
 20
-2702.99
 30
0
 10
5262.29
 20
-2681.39
 30
0
 10
5262.29
 20
-2654.98
 30
0
 10
5262.29
 20
-2654.98
 30
0
 10
5262.29
 20
-2537.89
 30
0
 10
5262.29
 20
-2537.89
 30
0
 10
5262.29
 20
-2530.91
 30
0
 10
5268
 20
-2525.19
 30
0
 10
5274.99
 20
-2525.19
 30
0
 10
5274.99
 20
-2525.19
 30
0
 10
5431
 20
-2525.19
 30
0
 10
5431
 20
-2525.19
 30
0
 10
5437.98
 20
-2525.19
 30
0
 10
5443.7
 20
-2530.91
 30
0
 10
5443.7
 20
-2537.89
 30
0
 10
5443.7
 20
-2537.89
 30
0
 10
5443.7
 20
-2690.29
 30
0
 10
5443.7
 20
-2690.29
 30
0
  0
SPLINE
  5
A2B
330
A02
100
AcDbEntity
  8
Shape039
100
AcDbSpline
210
0
220
0
230
1
 70
9
 71
3
 72
23
 73
19
 74
0
 40
0
 40
0
 40
0
 40
0
 40
25.4
 40
25.4
 40
25.4
 40
50.8
 40
50.8
 40
50.8
 40
76.2
 40
76.2
 40
76.2
 40
101.6
 40
101.6
 40
101.6
 40
127
 40
127
 40
127
 40
152.4
 40
152.4
 40
152.4
 40
152.4
 10
4339.66
 20
-2947.89
 30
0
 10
4312.79
 20
-2914.79
 30
0
 10
4295.39
 20
-2882.21
 30
0
 10
4286.57
 20
-2848.36
 30
0
 10
4283.57
 20
-2836.84
 30
0
 10
4281.69
 20
-2825.21
 30
0
 10
4280.76
 20
-2813.53
 30
0
 10
4280.76
 20
-2813.53
 30
0
 10
4342.84
 20
-2813.53
 30
0
 10
4342.84
 20
-2813.53
 30
0
 10
4332.68
 20
-2852.22
 30
0
 10
4332.49
 20
-2890.77
 30
0
 10
4342.39
 20
-2928.69
 30
0
 10
4344.75
 20
-2937.77
 30
0
 10
4347.74
 20
-2946.83
 30
0
 10
4351.26
 20
-2955.82
 30
0
 10
4347.39
 20
-2953.18
 30
0
 10
4343.58
 20
-2950.53
 30
0
 10
4339.66
 20
-2947.89
 30
0
  0
SPLINE
  5
A2C
330
A02
100
AcDbEntity
  8
Shape041
100
AcDbSpline
210
0
220
0
230
1
 70
9
 71
3
 72
44
 73
40
 74
0
 40
0
 40
0
 40
0
 40
0
 40
25.4
 40
25.4
 40
25.4
 40
50.8
 40
50.8
 40
50.8
 40
76.2
 40
76.2
 40
76.2
 40
101.6
 40
101.6
 40
101.6
 40
127
 40
127
 40
127
 40
152.4
 40
152.4
 40
152.4
 40
177.8
 40
177.8
 40
177.8
 40
203.2
 40
203.2
 40
203.2
 40
228.6
 40
228.6
 40
228.6
 40
254
 40
254
 40
254
 40
279.4
 40
279.4
 40
279.4
 40
304.8
 40
304.8
 40
304.8
 40
330.2
 40
330.2
 40
330.2
 40
330.2
 10
4505.06
 20
-2978.73
 30
0
 10
4505.06
 20
-2978.73
 30
0
 10
4448.65
 20
-2978.73
 30
0
 10
4448.65
 20
-2978.73
 30
0
 10
4448.65
 20
-2978.73
 30
0
 10
4448.32
 20
-2976.69
 30
0
 10
4448.32
 20
-2976.69
 30
0
 10
4441.33
 20
-2933.09
 30
0
 10
4449.9
 20
-2888.34
 30
0
 10
4473.82
 20
-2843.67
 30
0
 10
4473.82
 20
-2843.67
 30
0
 10
4473.83
 20
-2843.67
 30
0
 10
4473.83
 20
-2843.67
 30
0
 10
4501.36
 20
-2792.23
 30
0
 10
4541.7
 20
-2755.87
 30
0
 10
4597.15
 20
-2732.52
 30
0
 10
4668.61
 20
-2702.44
 30
0
 10
4745.47
 20
-2713.23
 30
0
 10
4825.63
 20
-2764.55
 30
0
 10
4825.63
 20
-2764.55
 30
0
 10
4828.21
 20
-2767.18
 30
0
 10
4828.21
 20
-2767.18
 30
0
 10
4828.21
 20
-2767.18
 30
0
 10
4830.66
 20
-2769.15
 30
0
 10
4830.66
 20
-2769.15
 30
0
 10
4834.23
 20
-2771.36
 30
0
 10
4837.91
 20
-2773.53
 30
0
 10
4841.56
 20
-2775.7
 30
0
 10
4785.41
 20
-2759
 30
0
 10
4730.37
 20
-2760.67
 30
0
 10
4677.6
 20
-2780.79
 30
0
 10
4613.25
 20
-2805.3
 30
0
 10
4566.26
 20
-2845.27
 30
0
 10
4533.94
 20
-2902.93
 30
0
 10
4520.43
 20
-2926.93
 30
0
 10
4510.9
 20
-2951.53
 30
0
 10
4505.64
 20
-2976.03
 30
0
 10
4505.64
 20
-2976.03
 30
0
 10
4505.06
 20
-2978.73
 30
0
 10
4505.06
 20
-2978.73
 30
0
  0
SPLINE
  5
A2D
330
A02
100
AcDbEntity
  8
Shape006
100
AcDbSpline
210
0
220
0
230
1
 70
9
 71
3
 72
29
 73
25
 74
0
 40
0
 40
0
 40
0
 40
0
 40
25.4
 40
25.4
 40
25.4
 40
50.8
 40
50.8
 40
50.8
 40
76.2
 40
76.2
 40
76.2
 40
101.6
 40
101.6
 40
101.6
 40
127
 40
127
 40
127
 40
152.4
 40
152.4
 40
152.4
 40
177.8
 40
177.8
 40
177.8
 40
203.2
 40
203.2
 40
203.2
 40
203.2
 10
4986.71
 20
-2537.89
 30
0
 10
4986.71
 20
-2537.89
 30
0
 10
4986.71
 20
-2690.29
 30
0
 10
4986.71
 20
-2690.29
 30
0
 10
4986.71
 20
-2697.28
 30
0
 10
4980.99
 20
-2702.99
 30
0
 10
4974.01
 20
-2702.99
 30
0
 10
4974.01
 20
-2702.99
 30
0
 10
4853.32
 20
-2702.99
 30
0
 10
4853.32
 20
-2702.99
 30
0
 10
4826.91
 20
-2702.99
 30
0
 10
4805.3
 20
-2681.39
 30
0
 10
4805.3
 20
-2654.98
 30
0
 10
4805.3
 20
-2654.98
 30
0
 10
4805.3
 20
-2537.89
 30
0
 10
4805.3
 20
-2537.89
 30
0
 10
4805.3
 20
-2530.91
 30
0
 10
4811.02
 20
-2525.19
 30
0
 10
4818
 20
-2525.19
 30
0
 10
4818
 20
-2525.19
 30
0
 10
4974.01
 20
-2525.19
 30
0
 10
4974.01
 20
-2525.19
 30
0
 10
4980.99
 20
-2525.19
 30
0
 10
4986.71
 20
-2530.91
 30
0
 10
4986.71
 20
-2537.89
 30
0
  0
SPLINE
  5
A2E
330
A02
100
AcDbEntity
  8
Shape036
100
AcDbSpline
210
0
220
0
230
1
 70
9
 71
3
 72
23
 73
19
 74
0
 40
0
 40
0
 40
0
 40
0
 40
25.4
 40
25.4
 40
25.4
 40
50.8
 40
50.8
 40
50.8
 40
76.2
 40
76.2
 40
76.2
 40
101.6
 40
101.6
 40
101.6
 40
127
 40
127
 40
127
 40
152.4
 40
152.4
 40
152.4
 40
152.4
 10
4050.71
 20
-2978.73
 30
0
 10
4050.71
 20
-2978.73
 30
0
 10
4048.34
 20
-2973.49
 30
0
 10
4048.34
 20
-2973.49
 30
0
 10
4044.42
 20
-2964.78
 30
0
 10
4040.48
 20
-2956.05
 30
0
 10
4036.33
 20
-2947.12
 30
0
 10
4015.34
 20
-2901.96
 30
0
 10
3990.73
 20
-2857.39
 30
0
 10
3962.68
 20
-2813.53
 30
0
 10
3962.68
 20
-2813.53
 30
0
 10
4010.39
 20
-2813.53
 30
0
 10
4010.39
 20
-2813.53
 30
0
 10
4054.26
 20
-2867.69
 30
0
 10
4091.99
 20
-2922.85
 30
0
 10
4123.28
 20
-2978.73
 30
0
 10
4123.28
 20
-2978.73
 30
0
 10
4050.71
 20
-2978.73
 30
0
 10
4050.71
 20
-2978.73
 30
0
  0
SPLINE
  5
A2F
330
A02
100
AcDbEntity
  8
Shape022
100
AcDbSpline
210
0
220
0
230
1
 70
9
 71
3
 72
23
 73
19
 74
0
 40
0
 40
0
 40
0
 40
0
 40
25.4
 40
25.4
 40
25.4
 40
50.8
 40
50.8
 40
50.8
 40
76.2
 40
76.2
 40
76.2
 40
101.6
 40
101.6
 40
101.6
 40
127
 40
127
 40
127
 40
152.4
 40
152.4
 40
152.4
 40
152.4
 10
3201.22
 20
-2242.13
 30
0
 10
3201.22
 20
-2242.13
 30
0
 10
3207.54
 20
-2250.05
 30
0
 10
3207.54
 20
-2250.05
 30
0
 10
3212.67
 20
-2256.48
 30
0
 10
3217.89
 20
-2262.93
 30
0
 10
3223.34
 20
-2269.45
 30
0
 10
3260.95
 20
-2314.35
 30
0
 10
3295.02
 20
-2360.51
 30
0
 10
3325.88
 20
-2408.19
 30
0
 10
3325.88
 20
-2408.19
 30
0
 10
3269.57
 20
-2408.19
 30
0
 10
3269.57
 20
-2408.19
 30
0
 10
3240.27
 20
-2350.7
 30
0
 10
3207.33
 20
-2295.46
 30
0
 10
3169.99
 20
-2242.13
 30
0
 10
3169.99
 20
-2242.13
 30
0
 10
3201.22
 20
-2242.13
 30
0
 10
3201.22
 20
-2242.13
 30
0
  0
SPLINE
  5
A30
330
A02
100
AcDbEntity
  8
Shape009
100
AcDbSpline
210
0
220
0
230
1
 70
9
 71
3
 72
17
 73
13
 74
0
 40
0
 40
0
 40
0
 40
0
 40
25.4
 40
25.4
 40
25.4
 40
50.8
 40
50.8
 40
50.8
 40
76.2
 40
76.2
 40
76.2
 40
101.6
 40
101.6
 40
101.6
 40
101.6
 10
4223.96
 20
-2408.19
 30
0
 10
4223.96
 20
-2408.19
 30
0
 10
4090.15
 20
-2408.19
 30
0
 10
4090.15
 20
-2408.19
 30
0
 10
4105.08
 20
-2390.12
 30
0
 10
4122.47
 20
-2374.09
 30
0
 10
4142.72
 20
-2360.03
 30
0
 10
4217.47
 20
-2308.12
 30
0
 10
4290.44
 20
-2314.68
 30
0
 10
4370.59
 20
-2380.8
 30
0
 10
4321.01
 20
-2369.97
 30
0
 10
4272.36
 20
-2379.17
 30
0
 10
4223.96
 20
-2408.19
 30
0
  0
SPLINE
  5
A31
330
A02
100
AcDbEntity
  8
Shape046
100
AcDbSpline
210
0
220
0
230
1
 70
9
 71
3
 72
44
 73
40
 74
0
 40
0
 40
0
 40
0
 40
0
 40
25.4
 40
25.4
 40
25.4
 40
50.8
 40
50.8
 40
50.8
 40
76.2
 40
76.2
 40
76.2
 40
101.6
 40
101.6
 40
101.6
 40
127
 40
127
 40
127
 40
152.4
 40
152.4
 40
152.4
 40
177.8
 40
177.8
 40
177.8
 40
203.2
 40
203.2
 40
203.2
 40
228.6
 40
228.6
 40
228.6
 40
254
 40
254
 40
254
 40
279.4
 40
279.4
 40
279.4
 40
304.8
 40
304.8
 40
304.8
 40
330.2
 40
330.2
 40
330.2
 40
330.2
 10
5855.17
 20
-2978.73
 30
0
 10
5855.17
 20
-2978.73
 30
0
 10
5762.64
 20
-2978.73
 30
0
 10
5762.64
 20
-2978.73
 30
0
 10
5762.64
 20
-2978.73
 30
0
 10
5691.52
 20
-2907.49
 30
0
 10
5691.52
 20
-2907.49
 30
0
 10
5691.52
 20
-2907.49
 30
0
 10
5700.36
 20
-2900.71
 30
0
 10
5700.36
 20
-2900.71
 30
0
 10
5772.55
 20
-2845.37
 30
0
 10
5829.69
 20
-2771.9
 30
0
 10
5870.19
 20
-2682.37
 30
0
 10
5933.19
 20
-2543.94
 30
0
 10
5941.74
 20
-2399.57
 30
0
 10
5895.58
 20
-2253.19
 30
0
 10
5894.41
 20
-2249.54
 30
0
 10
5893.11
 20
-2245.93
 30
0
 10
5891.82
 20
-2242.32
 30
0
 10
5891.82
 20
-2242.32
 30
0
 10
5891.75
 20
-2242.13
 30
0
 10
5891.75
 20
-2242.13
 30
0
 10
5891.75
 20
-2242.13
 30
0
 10
5980.84
 20
-2242.13
 30
0
 10
5980.84
 20
-2242.13
 30
0
 10
5980.84
 20
-2242.13
 30
0
 10
5984.86
 20
-2248.74
 30
0
 10
5984.86
 20
-2248.74
 30
0
 10
6009.06
 20
-2288.46
 30
0
 10
6027.84
 20
-2330.26
 30
0
 10
6040.67
 20
-2372.95
 30
0
 10
6082.77
 20
-2514.47
 30
0
 10
6071.06
 20
-2653.82
 30
0
 10
6005.85
 20
-2787.16
 30
0
 10
5970.76
 20
-2859.25
 30
0
 10
5923.92
 20
-2920.43
 30
0
 10
5866.63
 20
-2969.02
 30
0
 10
5866.63
 20
-2969.02
 30
0
 10
5855.17
 20
-2978.73
 30
0
 10
5855.17
 20
-2978.73
 30
0
  0
SPLINE
  5
A32
330
A02
100
AcDbEntity
  8
Shape
100
AcDbSpline
210
0
220
0
230
1
 70
9
 71
3
 72
41
 73
37
 74
0
 40
0
 40
0
 40
0
 40
0
 40
25.4
 40
25.4
 40
25.4
 40
50.8
 40
50.8
 40
50.8
 40
76.2
 40
76.2
 40
76.2
 40
101.6
 40
101.6
 40
101.6
 40
127
 40
127
 40
127
 40
152.4
 40
152.4
 40
152.4
 40
177.8
 40
177.8
 40
177.8
 40
203.2
 40
203.2
 40
203.2
 40
228.6
 40
228.6
 40
228.6
 40
254
 40
254
 40
254
 40
279.4
 40
279.4
 40
279.4
 40
304.8
 40
304.8
 40
304.8
 40
304.8
 10
7048.5
 20
-2204.46
 30
0
 10
7048.5
 20
-2204.46
 30
0
 10
2289.71
 20
-2204.46
 30
0
 10
2289.71
 20
-2204.46
 30
0
 10
2289.71
 20
-2204.46
 30
0
 10
2289.71
 20
-2204.46
 30
0
 10
2289.71
 20
-2204.46
 30
0
 10
2289.71
 20
-2204.46
 30
0
 10
2199.9
 20
-2204.46
 30
0
 10
2199.9
 20
-2204.46
 30
0
 10
2199.9
 20
-2204.46
 30
0
 10
2199.9
 20
-2204.46
 30
0
 10
2199.9
 20
-2204.46
 30
0
 10
2199.9
 20
-2204.46
 30
0
 10
495.301
 20
-2204.46
 30
0
 10
495.301
 20
-2204.46
 30
0
 10
453.391
 20
-2204.46
 30
0
 10
419.101
 20
-2238.75
 30
0
 10
419.101
 20
-2280.66
 30
0
 10
419.101
 20
-2280.66
 30
0
 10
419.101
 20
-2941.06
 30
0
 10
419.101
 20
-2941.06
 30
0
 10
419.101
 20
-2982.97
 30
0
 10
453.391
 20
-3017.26
 30
0
 10
495.301
 20
-3017.26
 30
0
 10
495.301
 20
-3017.26
 30
0
 10
7048.5
 20
-3017.26
 30
0
 10
7048.5
 20
-3017.26
 30
0
 10
7090.41
 20
-3017.26
 30
0
 10
7124.7
 20
-2982.97
 30
0
 10
7124.7
 20
-2941.06
 30
0
 10
7124.7
 20
-2941.06
 30
0
 10
7124.7
 20
-2280.66
 30
0
 10
7124.7
 20
-2280.66
 30
0
 10
7124.7
 20
-2238.75
 30
0
 10
7090.41
 20
-2204.46
 30
0
 10
7048.5
 20
-2204.46
 30
0
  0
SPLINE
  5
A33
330
A02
100
AcDbEntity
  8
Shape028
100
AcDbSpline
210
0
220
0
230
1
 70
9
 71
3
 72
44
 73
40
 74
0
 40
0
 40
0
 40
0
 40
0
 40
25.4
 40
25.4
 40
25.4
 40
50.8
 40
50.8
 40
50.8
 40
76.2
 40
76.2
 40
76.2
 40
101.6
 40
101.6
 40
101.6
 40
127
 40
127
 40
127
 40
152.4
 40
152.4
 40
152.4
 40
177.8
 40
177.8
 40
177.8
 40
203.2
 40
203.2
 40
203.2
 40
228.6
 40
228.6
 40
228.6
 40
254
 40
254
 40
254
 40
279.4
 40
279.4
 40
279.4
 40
304.8
 40
304.8
 40
304.8
 40
330.2
 40
330.2
 40
330.2
 40
330.2
 10
3108.06
 20
-2977.21
 30
0
 10
3108.06
 20
-2977.21
 30
0
 10
3107.88
 20
-2978.73
 30
0
 10
3107.88
 20
-2978.73
 30
0
 10
3107.88
 20
-2978.73
 30
0
 10
2985.02
 20
-2978.73
 30
0
 10
2985.02
 20
-2978.73
 30
0
 10
2997.98
 20
-2902.38
 30
0
 10
3003.77
 20
-2824.69
 30
0
 10
3002.17
 20
-2747.8
 30
0
 10
3000.44
 20
-2649.4
 30
0
 10
2980.85
 20
-2554.1
 30
0
 10
2959.2
 20
-2457
 30
0
 10
2942
 20
-2379.93
 30
0
 10
2921.78
 20
-2309.61
 30
0
 10
2897.48
 20
-2242.13
 30
0
 10
2897.48
 20
-2242.13
 30
0
 10
2968.78
 20
-2242.13
 30
0
 10
2968.78
 20
-2242.13
 30
0
 10
2968.78
 20
-2242.13
 30
0
 10
2971.23
 20
-2247.45
 30
0
 10
2971.23
 20
-2247.45
 30
0
 10
3010.3
 20
-2332.21
 30
0
 10
3041.6
 20
-2422.47
 30
0
 10
3066.92
 20
-2523.37
 30
0
 10
3071.96
 20
-2543.49
 30
0
 10
3076.86
 20
-2563.52
 30
0
 10
3081.55
 20
-2583.52
 30
0
 10
3081.55
 20
-2583.52
 30
0
 10
3081.55
 20
-2788.13
 30
0
 10
3081.55
 20
-2788.13
 30
0
 10
3081.55
 20
-2802.16
 30
0
 10
3092.92
 20
-2813.53
 30
0
 10
3106.95
 20
-2813.53
 30
0
 10
3106.95
 20
-2813.53
 30
0
 10
3115.35
 20
-2813.53
 30
0
 10
3115.35
 20
-2813.53
 30
0
 10
3116.87
 20
-2867.75
 30
0
 10
3114.48
 20
-2922.78
 30
0
 10
3108.06
 20
-2977.21
 30
0
  0
SPLINE
  5
A34
330
A02
100
AcDbEntity
  8
Shape042
100
AcDbSpline
210
0
220
0
230
1
 70
9
 71
3
 72
29
 73
25
 74
0
 40
0
 40
0
 40
0
 40
0
 40
25.4
 40
25.4
 40
25.4
 40
50.8
 40
50.8
 40
50.8
 40
76.2
 40
76.2
 40
76.2
 40
101.6
 40
101.6
 40
101.6
 40
127
 40
127
 40
127
 40
152.4
 40
152.4
 40
152.4
 40
177.8
 40
177.8
 40
177.8
 40
203.2
 40
203.2
 40
203.2
 40
203.2
 10
4616.66
 20
-2978.73
 30
0
 10
4616.66
 20
-2978.73
 30
0
 10
4533.75
 20
-2978.73
 30
0
 10
4533.75
 20
-2978.73
 30
0
 10
4538.54
 20
-2958.04
 30
0
 10
4546.73
 20
-2937.17
 30
0
 10
4558.31
 20
-2916.62
 30
0
 10
4587.31
 20
-2864.87
 30
0
 10
4629.58
 20
-2828.98
 30
0
 10
4687.55
 20
-2806.89
 30
0
 10
4761.55
 20
-2778.71
 30
0
 10
4841.38
 20
-2792.1
 30
0
 10
4924.8
 20
-2846.68
 30
0
 10
4926.82
 20
-2848.72
 30
0
 10
4928.85
 20
-2850.84
 30
0
 10
4930.87
 20
-2852.92
 30
0
 10
4875.05
 20
-2836.34
 30
0
 10
4820.79
 20
-2836.9
 30
0
 10
4768.73
 20
-2854.83
 30
0
 10
4704.25
 20
-2877.03
 30
0
 10
4654.44
 20
-2916.49
 30
0
 10
4620.68
 20
-2972.11
 30
0
 10
4620.68
 20
-2972.11
 30
0
 10
4616.66
 20
-2978.73
 30
0
 10
4616.66
 20
-2978.73
 30
0
  0
SPLINE
  5
A35
330
A02
100
AcDbEntity
  8
Shape013
100
AcDbSpline
210
0
220
0
230
1
 70
9
 71
3
 72
29
 73
25
 74
0
 40
0
 40
0
 40
0
 40
0
 40
25.4
 40
25.4
 40
25.4
 40
50.8
 40
50.8
 40
50.8
 40
76.2
 40
76.2
 40
76.2
 40
101.6
 40
101.6
 40
101.6
 40
127
 40
127
 40
127
 40
152.4
 40
152.4
 40
152.4
 40
177.8
 40
177.8
 40
177.8
 40
203.2
 40
203.2
 40
203.2
 40
203.2
 10
3927.95
 20
-2242.13
 30
0
 10
3927.95
 20
-2242.13
 30
0
 10
4066.47
 20
-2242.13
 30
0
 10
4066.47
 20
-2242.13
 30
0
 10
4055.53
 20
-2248.14
 30
0
 10
4044.72
 20
-2255.11
 30
0
 10
4034.15
 20
-2263.25
 30
0
 10
3988.95
 20
-2298.06
 30
0
 10
3957.08
 20
-2341.42
 30
0
 10
3936.73
 20
-2395.81
 30
0
 10
3935.18
 20
-2399.94
 30
0
 10
3933.93
 20
-2404.06
 30
0
 10
3932.58
 20
-2408.19
 30
0
 10
3932.58
 20
-2408.19
 30
0
 10
3861.74
 20
-2408.19
 30
0
 10
3861.74
 20
-2408.19
 30
0
 10
3863.02
 20
-2383.21
 30
0
 10
3868.07
 20
-2357.93
 30
0
 10
3876.88
 20
-2332.53
 30
0
 10
3887.63
 20
-2301.53
 30
0
 10
3902.3
 20
-2274.54
 30
0
 10
3921.71
 20
-2250.01
 30
0
 10
3921.71
 20
-2250.01
 30
0
 10
3927.95
 20
-2242.13
 30
0
 10
3927.95
 20
-2242.13
 30
0
  0
SPLINE
  5
A36
330
A02
100
AcDbEntity
  8
Shape015
100
AcDbSpline
210
0
220
0
230
1
 70
9
 71
3
 72
26
 73
22
 74
0
 40
0
 40
0
 40
0
 40
0
 40
25.4
 40
25.4
 40
25.4
 40
50.8
 40
50.8
 40
50.8
 40
76.2
 40
76.2
 40
76.2
 40
101.6
 40
101.6
 40
101.6
 40
127
 40
127
 40
127
 40
152.4
 40
152.4
 40
152.4
 40
177.8
 40
177.8
 40
177.8
 40
177.8
 10
3692.13
 20
-2243.29
 30
0
 10
3692.13
 20
-2243.29
 30
0
 10
3692.24
 20
-2242.13
 30
0
 10
3692.24
 20
-2242.13
 30
0
 10
3692.24
 20
-2242.13
 30
0
 10
3767.08
 20
-2242.13
 30
0
 10
3767.08
 20
-2242.13
 30
0
 10
3765.97
 20
-2245.03
 30
0
 10
3764.87
 20
-2247.93
 30
0
 10
3763.91
 20
-2250.95
 30
0
 10
3746.9
 20
-2304.2
 30
0
 10
3744.4
 20
-2357.04
 30
0
 10
3756.14
 20
-2408.19
 30
0
 10
3756.14
 20
-2408.19
 30
0
 10
3728.9
 20
-2408.19
 30
0
 10
3728.9
 20
-2408.19
 30
0
 10
3714.83
 20
-2382.46
 30
0
 10
3705.34
 20
-2359.04
 30
0
 10
3699.24
 20
-2335.22
 30
0
 10
3691.64
 20
-2305.55
 30
0
 10
3689.25
 20
-2274.62
 30
0
 10
3692.13
 20
-2243.29
 30
0
  0
SPLINE
  5
A37
330
A02
100
AcDbEntity
  8
Shape020
100
AcDbSpline
210
0
220
0
230
1
 70
9
 71
3
 72
23
 73
19
 74
0
 40
0
 40
0
 40
0
 40
0
 40
25.4
 40
25.4
 40
25.4
 40
50.8
 40
50.8
 40
50.8
 40
76.2
 40
76.2
 40
76.2
 40
101.6
 40
101.6
 40
101.6
 40
127
 40
127
 40
127
 40
152.4
 40
152.4
 40
152.4
 40
152.4
 10
3329.22
 20
-2242.13
 30
0
 10
3329.22
 20
-2242.13
 30
0
 10
3333.86
 20
-2249.14
 30
0
 10
3333.86
 20
-2249.14
 30
0
 10
3371.53
 20
-2306.01
 30
0
 10
3413.12
 20
-2358.03
 30
0
 10
3461.01
 20
-2408.19
 30
0
 10
3461.01
 20
-2408.19
 30
0
 10
3436.14
 20
-2408.19
 30
0
 10
3436.14
 20
-2408.19
 30
0
 10
3413.26
 20
-2378.43
 30
0
 10
3389.01
 20
-2349.16
 30
0
 10
3363.16
 20
-2320.36
 30
0
 10
3340.61
 20
-2295.16
 30
0
 10
3319.68
 20
-2269.44
 30
0
 10
3299.32
 20
-2242.13
 30
0
 10
3299.32
 20
-2242.13
 30
0
 10
3329.22
 20
-2242.13
 30
0
 10
3329.22
 20
-2242.13
 30
0
  0
SPLINE
  5
A38
330
A02
100
AcDbEntity
  8
Shape011
100
AcDbSpline
210
0
220
0
230
1
 70
9
 71
3
 72
20
 73
16
 74
0
 40
0
 40
0
 40
0
 40
0
 40
25.4
 40
25.4
 40
25.4
 40
50.8
 40
50.8
 40
50.8
 40
76.2
 40
76.2
 40
76.2
 40
101.6
 40
101.6
 40
101.6
 40
127
 40
127
 40
127
 40
127
 10
4718.5
 20
-2242.13
 30
0
 10
4712.83
 20
-2246.9
 30
0
 10
4707.29
 20
-2251.39
 30
0
 10
4701.91
 20
-2255.39
 30
0
 10
4642.29
 20
-2299.81
 30
0
 10
4579.5
 20
-2316.41
 30
0
 10
4531.47
 20
-2325.9
 30
0
 10
4477.31
 20
-2336.59
 30
0
 10
4377.91
 20
-2319.23
 30
0
 10
4299.52
 20
-2285.49
 30
0
 10
4279.39
 20
-2267.41
 30
0
 10
4259.14
 20
-2252.96
 30
0
 10
4239.03
 20
-2242.13
 30
0
 10
4239.03
 20
-2242.13
 30
0
 10
4718.5
 20
-2242.13
 30
0
 10
4718.5
 20
-2242.13
 30
0
  0
SPLINE
  5
A39
330
A02
100
AcDbEntity
  8
Shape023
100
AcDbSpline
210
0
220
0
230
1
 70
9
 71
3
 72
20
 73
16
 74
0
 40
0
 40
0
 40
0
 40
0
 40
25.4
 40
25.4
 40
25.4
 40
50.8
 40
50.8
 40
50.8
 40
76.2
 40
76.2
 40
76.2
 40
101.6
 40
101.6
 40
101.6
 40
127
 40
127
 40
127
 40
127
 10
3135.82
 20
-2242.13
 30
0
 10
3135.82
 20
-2242.13
 30
0
 10
3141.06
 20
-2249.49
 30
0
 10
3141.06
 20
-2249.49
 30
0
 10
3177.38
 20
-2300.54
 30
0
 10
3209.7
 20
-2353.27
 30
0
 10
3238.41
 20
-2408.19
 30
0
 10
3238.41
 20
-2408.19
 30
0
 10
3170.99
 20
-2408.19
 30
0
 10
3170.99
 20
-2408.19
 30
0
 10
3147.55
 20
-2350.59
 30
0
 10
3120.93
 20
-2295.48
 30
0
 10
3090.68
 20
-2242.13
 30
0
 10
3090.68
 20
-2242.13
 30
0
 10
3135.82
 20
-2242.13
 30
0
 10
3135.82
 20
-2242.13
 30
0
  0
ENDSEC
  0
SECTION
  2
OBJECTS
  0
DICTIONARY
  5
F000
330
0
100
AcDbDictionary
  3
ACAD_GROUP
350
F001
  0
DICTIONARY
  5
F001
330
F000
100
AcDbDictionary
  0
ENDSEC
  0
EOF