%TF.GenerationSoftware,KiCad,Pcbnew,7.0.2-0*%
%TF.CreationDate,2023-05-18T01:11:55+02:00*%
%TF.ProjectId,LA,4c412e6b-6963-4616-945f-706362585858,rev?*%
%TF.SameCoordinates,PXfd9f08PY7735940*%
%TF.FileFunction,Drillmap*%
%TF.FilePolarity,Positive*%
%FSLAX45Y45*%
G04 Gerber Fmt 4.5, Leading zero omitted, Abs format (unit mm)*
G04 Created by KiCad (PCBNEW 7.0.2-0) date 2023-05-18 01:11:55*
%MOMM*%
%LPD*%
G01*
G04 APERTURE LIST*
%ADD10C,0.500000*%
%ADD11C,0.200000*%
G04 APERTURE END LIST*
D10*
X600000Y2515000D02*
X23730000Y2515000D01*
X23730000Y685000D01*
X600000Y685000D01*
X600000Y2515000D01*
D11*
X250000Y2950000D02*
X450000Y2750000D01*
X450000Y2950000D02*
X250000Y2750000D01*
X250000Y450000D02*
X450000Y250000D01*
X450000Y450000D02*
X250000Y250000D01*
X8700000Y2950000D02*
X8900000Y2750000D01*
X8900000Y2950000D02*
X8700000Y2750000D01*
X8700000Y450000D02*
X8900000Y250000D01*
X8900000Y450000D02*
X8700000Y250000D01*
X17500000Y2950000D02*
X17700000Y2750000D01*
X17700000Y2950000D02*
X17500000Y2750000D01*
X17500000Y452870D02*
X17700000Y252870D01*
X17700000Y452870D02*
X17500000Y252870D01*
X25950000Y2950000D02*
X26150000Y2750000D01*
X26150000Y2950000D02*
X25950000Y2750000D01*
X25950000Y450000D02*
X26150000Y250000D01*
X26150000Y450000D02*
X25950000Y250000D01*
X222619Y-337524D02*
X222619Y-137524D01*
X222619Y-137524D02*
X270238Y-137524D01*
X270238Y-137524D02*
X298810Y-147048D01*
X298810Y-147048D02*
X317857Y-166095D01*
X317857Y-166095D02*
X327381Y-185143D01*
X327381Y-185143D02*
X336905Y-223238D01*
X336905Y-223238D02*
X336905Y-251809D01*
X336905Y-251809D02*
X327381Y-289905D01*
X327381Y-289905D02*
X317857Y-308952D01*
X317857Y-308952D02*
X298810Y-328000D01*
X298810Y-328000D02*
X270238Y-337524D01*
X270238Y-337524D02*
X222619Y-337524D01*
X422619Y-337524D02*
X422619Y-204190D01*
X422619Y-242286D02*
X432143Y-223238D01*
X432143Y-223238D02*
X441667Y-213714D01*
X441667Y-213714D02*
X460714Y-204190D01*
X460714Y-204190D02*
X479762Y-204190D01*
X546429Y-337524D02*
X546429Y-204190D01*
X546429Y-137524D02*
X536905Y-147048D01*
X536905Y-147048D02*
X546429Y-156571D01*
X546429Y-156571D02*
X555952Y-147048D01*
X555952Y-147048D02*
X546429Y-137524D01*
X546429Y-137524D02*
X546429Y-156571D01*
X670238Y-337524D02*
X651190Y-328000D01*
X651190Y-328000D02*
X641667Y-308952D01*
X641667Y-308952D02*
X641667Y-137524D01*
X775000Y-337524D02*
X755952Y-328000D01*
X755952Y-328000D02*
X746428Y-308952D01*
X746428Y-308952D02*
X746428Y-137524D01*
X1003571Y-337524D02*
X1003571Y-137524D01*
X1003571Y-137524D02*
X1070238Y-280381D01*
X1070238Y-280381D02*
X1136905Y-137524D01*
X1136905Y-137524D02*
X1136905Y-337524D01*
X1317857Y-337524D02*
X1317857Y-232762D01*
X1317857Y-232762D02*
X1308333Y-213714D01*
X1308333Y-213714D02*
X1289286Y-204190D01*
X1289286Y-204190D02*
X1251190Y-204190D01*
X1251190Y-204190D02*
X1232143Y-213714D01*
X1317857Y-328000D02*
X1298810Y-337524D01*
X1298810Y-337524D02*
X1251190Y-337524D01*
X1251190Y-337524D02*
X1232143Y-328000D01*
X1232143Y-328000D02*
X1222619Y-308952D01*
X1222619Y-308952D02*
X1222619Y-289905D01*
X1222619Y-289905D02*
X1232143Y-270857D01*
X1232143Y-270857D02*
X1251190Y-261333D01*
X1251190Y-261333D02*
X1298810Y-261333D01*
X1298810Y-261333D02*
X1317857Y-251809D01*
X1413095Y-204190D02*
X1413095Y-404190D01*
X1413095Y-213714D02*
X1432143Y-204190D01*
X1432143Y-204190D02*
X1470238Y-204190D01*
X1470238Y-204190D02*
X1489286Y-213714D01*
X1489286Y-213714D02*
X1498809Y-223238D01*
X1498809Y-223238D02*
X1508333Y-242286D01*
X1508333Y-242286D02*
X1508333Y-299429D01*
X1508333Y-299429D02*
X1498809Y-318476D01*
X1498809Y-318476D02*
X1489286Y-328000D01*
X1489286Y-328000D02*
X1470238Y-337524D01*
X1470238Y-337524D02*
X1432143Y-337524D01*
X1432143Y-337524D02*
X1413095Y-328000D01*
X1594048Y-318476D02*
X1603571Y-328000D01*
X1603571Y-328000D02*
X1594048Y-337524D01*
X1594048Y-337524D02*
X1584524Y-328000D01*
X1584524Y-328000D02*
X1594048Y-318476D01*
X1594048Y-318476D02*
X1594048Y-337524D01*
X1594048Y-213714D02*
X1603571Y-223238D01*
X1603571Y-223238D02*
X1594048Y-232762D01*
X1594048Y-232762D02*
X1584524Y-223238D01*
X1584524Y-223238D02*
X1594048Y-213714D01*
X1594048Y-213714D02*
X1594048Y-232762D01*
X-225000Y-565000D02*
X-25000Y-765000D01*
X-25000Y-565000D02*
X-225000Y-765000D01*
X213095Y-576571D02*
X222619Y-567048D01*
X222619Y-567048D02*
X241667Y-557524D01*
X241667Y-557524D02*
X289286Y-557524D01*
X289286Y-557524D02*
X308333Y-567048D01*
X308333Y-567048D02*
X317857Y-576571D01*
X317857Y-576571D02*
X327381Y-595619D01*
X327381Y-595619D02*
X327381Y-614667D01*
X327381Y-614667D02*
X317857Y-643238D01*
X317857Y-643238D02*
X203571Y-757524D01*
X203571Y-757524D02*
X327381Y-757524D01*
X413095Y-738476D02*
X422619Y-748000D01*
X422619Y-748000D02*
X413095Y-757524D01*
X413095Y-757524D02*
X403571Y-748000D01*
X403571Y-748000D02*
X413095Y-738476D01*
X413095Y-738476D02*
X413095Y-757524D01*
X546429Y-557524D02*
X565476Y-557524D01*
X565476Y-557524D02*
X584524Y-567048D01*
X584524Y-567048D02*
X594048Y-576571D01*
X594048Y-576571D02*
X603571Y-595619D01*
X603571Y-595619D02*
X613095Y-633714D01*
X613095Y-633714D02*
X613095Y-681333D01*
X613095Y-681333D02*
X603571Y-719428D01*
X603571Y-719428D02*
X594048Y-738476D01*
X594048Y-738476D02*
X584524Y-748000D01*
X584524Y-748000D02*
X565476Y-757524D01*
X565476Y-757524D02*
X546429Y-757524D01*
X546429Y-757524D02*
X527381Y-748000D01*
X527381Y-748000D02*
X517857Y-738476D01*
X517857Y-738476D02*
X508333Y-719428D01*
X508333Y-719428D02*
X498809Y-681333D01*
X498809Y-681333D02*
X498809Y-633714D01*
X498809Y-633714D02*
X508333Y-595619D01*
X508333Y-595619D02*
X517857Y-576571D01*
X517857Y-576571D02*
X527381Y-567048D01*
X527381Y-567048D02*
X546429Y-557524D01*
X736905Y-557524D02*
X755952Y-557524D01*
X755952Y-557524D02*
X775000Y-567048D01*
X775000Y-567048D02*
X784524Y-576571D01*
X784524Y-576571D02*
X794048Y-595619D01*
X794048Y-595619D02*
X803571Y-633714D01*
X803571Y-633714D02*
X803571Y-681333D01*
X803571Y-681333D02*
X794048Y-719428D01*
X794048Y-719428D02*
X784524Y-738476D01*
X784524Y-738476D02*
X775000Y-748000D01*
X775000Y-748000D02*
X755952Y-757524D01*
X755952Y-757524D02*
X736905Y-757524D01*
X736905Y-757524D02*
X717857Y-748000D01*
X717857Y-748000D02*
X708333Y-738476D01*
X708333Y-738476D02*
X698810Y-719428D01*
X698810Y-719428D02*
X689286Y-681333D01*
X689286Y-681333D02*
X689286Y-633714D01*
X689286Y-633714D02*
X698810Y-595619D01*
X698810Y-595619D02*
X708333Y-576571D01*
X708333Y-576571D02*
X717857Y-567048D01*
X717857Y-567048D02*
X736905Y-557524D01*
X927381Y-557524D02*
X946429Y-557524D01*
X946429Y-557524D02*
X965476Y-567048D01*
X965476Y-567048D02*
X975000Y-576571D01*
X975000Y-576571D02*
X984524Y-595619D01*
X984524Y-595619D02*
X994048Y-633714D01*
X994048Y-633714D02*
X994048Y-681333D01*
X994048Y-681333D02*
X984524Y-719428D01*
X984524Y-719428D02*
X975000Y-738476D01*
X975000Y-738476D02*
X965476Y-748000D01*
X965476Y-748000D02*
X946429Y-757524D01*
X946429Y-757524D02*
X927381Y-757524D01*
X927381Y-757524D02*
X908333Y-748000D01*
X908333Y-748000D02*
X898809Y-738476D01*
X898809Y-738476D02*
X889286Y-719428D01*
X889286Y-719428D02*
X879762Y-681333D01*
X879762Y-681333D02*
X879762Y-633714D01*
X879762Y-633714D02*
X889286Y-595619D01*
X889286Y-595619D02*
X898809Y-576571D01*
X898809Y-576571D02*
X908333Y-567048D01*
X908333Y-567048D02*
X927381Y-557524D01*
X1079762Y-757524D02*
X1079762Y-624190D01*
X1079762Y-643238D02*
X1089286Y-633714D01*
X1089286Y-633714D02*
X1108333Y-624190D01*
X1108333Y-624190D02*
X1136905Y-624190D01*
X1136905Y-624190D02*
X1155952Y-633714D01*
X1155952Y-633714D02*
X1165476Y-652762D01*
X1165476Y-652762D02*
X1165476Y-757524D01*
X1165476Y-652762D02*
X1175000Y-633714D01*
X1175000Y-633714D02*
X1194048Y-624190D01*
X1194048Y-624190D02*
X1222619Y-624190D01*
X1222619Y-624190D02*
X1241667Y-633714D01*
X1241667Y-633714D02*
X1251191Y-652762D01*
X1251191Y-652762D02*
X1251191Y-757524D01*
X1346429Y-757524D02*
X1346429Y-624190D01*
X1346429Y-643238D02*
X1355952Y-633714D01*
X1355952Y-633714D02*
X1375000Y-624190D01*
X1375000Y-624190D02*
X1403571Y-624190D01*
X1403571Y-624190D02*
X1422619Y-633714D01*
X1422619Y-633714D02*
X1432143Y-652762D01*
X1432143Y-652762D02*
X1432143Y-757524D01*
X1432143Y-652762D02*
X1441667Y-633714D01*
X1441667Y-633714D02*
X1460714Y-624190D01*
X1460714Y-624190D02*
X1489286Y-624190D01*
X1489286Y-624190D02*
X1508333Y-633714D01*
X1508333Y-633714D02*
X1517857Y-652762D01*
X1517857Y-652762D02*
X1517857Y-757524D01*
X1908333Y-548000D02*
X1736905Y-805143D01*
X2165476Y-557524D02*
X2184524Y-557524D01*
X2184524Y-557524D02*
X2203572Y-567048D01*
X2203572Y-567048D02*
X2213095Y-576571D01*
X2213095Y-576571D02*
X2222619Y-595619D01*
X2222619Y-595619D02*
X2232143Y-633714D01*
X2232143Y-633714D02*
X2232143Y-681333D01*
X2232143Y-681333D02*
X2222619Y-719428D01*
X2222619Y-719428D02*
X2213095Y-738476D01*
X2213095Y-738476D02*
X2203572Y-748000D01*
X2203572Y-748000D02*
X2184524Y-757524D01*
X2184524Y-757524D02*
X2165476Y-757524D01*
X2165476Y-757524D02*
X2146429Y-748000D01*
X2146429Y-748000D02*
X2136905Y-738476D01*
X2136905Y-738476D02*
X2127381Y-719428D01*
X2127381Y-719428D02*
X2117857Y-681333D01*
X2117857Y-681333D02*
X2117857Y-633714D01*
X2117857Y-633714D02*
X2127381Y-595619D01*
X2127381Y-595619D02*
X2136905Y-576571D01*
X2136905Y-576571D02*
X2146429Y-567048D01*
X2146429Y-567048D02*
X2165476Y-557524D01*
X2317857Y-738476D02*
X2327381Y-748000D01*
X2327381Y-748000D02*
X2317857Y-757524D01*
X2317857Y-757524D02*
X2308334Y-748000D01*
X2308334Y-748000D02*
X2317857Y-738476D01*
X2317857Y-738476D02*
X2317857Y-757524D01*
X2451191Y-557524D02*
X2470238Y-557524D01*
X2470238Y-557524D02*
X2489286Y-567048D01*
X2489286Y-567048D02*
X2498810Y-576571D01*
X2498810Y-576571D02*
X2508334Y-595619D01*
X2508334Y-595619D02*
X2517857Y-633714D01*
X2517857Y-633714D02*
X2517857Y-681333D01*
X2517857Y-681333D02*
X2508334Y-719428D01*
X2508334Y-719428D02*
X2498810Y-738476D01*
X2498810Y-738476D02*
X2489286Y-748000D01*
X2489286Y-748000D02*
X2470238Y-757524D01*
X2470238Y-757524D02*
X2451191Y-757524D01*
X2451191Y-757524D02*
X2432143Y-748000D01*
X2432143Y-748000D02*
X2422619Y-738476D01*
X2422619Y-738476D02*
X2413095Y-719428D01*
X2413095Y-719428D02*
X2403572Y-681333D01*
X2403572Y-681333D02*
X2403572Y-633714D01*
X2403572Y-633714D02*
X2413095Y-595619D01*
X2413095Y-595619D02*
X2422619Y-576571D01*
X2422619Y-576571D02*
X2432143Y-567048D01*
X2432143Y-567048D02*
X2451191Y-557524D01*
X2584524Y-557524D02*
X2717857Y-557524D01*
X2717857Y-557524D02*
X2632143Y-757524D01*
X2822619Y-643238D02*
X2803572Y-633714D01*
X2803572Y-633714D02*
X2794048Y-624190D01*
X2794048Y-624190D02*
X2784524Y-605143D01*
X2784524Y-605143D02*
X2784524Y-595619D01*
X2784524Y-595619D02*
X2794048Y-576571D01*
X2794048Y-576571D02*
X2803572Y-567048D01*
X2803572Y-567048D02*
X2822619Y-557524D01*
X2822619Y-557524D02*
X2860714Y-557524D01*
X2860714Y-557524D02*
X2879762Y-567048D01*
X2879762Y-567048D02*
X2889286Y-576571D01*
X2889286Y-576571D02*
X2898810Y-595619D01*
X2898810Y-595619D02*
X2898810Y-605143D01*
X2898810Y-605143D02*
X2889286Y-624190D01*
X2889286Y-624190D02*
X2879762Y-633714D01*
X2879762Y-633714D02*
X2860714Y-643238D01*
X2860714Y-643238D02*
X2822619Y-643238D01*
X2822619Y-643238D02*
X2803572Y-652762D01*
X2803572Y-652762D02*
X2794048Y-662286D01*
X2794048Y-662286D02*
X2784524Y-681333D01*
X2784524Y-681333D02*
X2784524Y-719428D01*
X2784524Y-719428D02*
X2794048Y-738476D01*
X2794048Y-738476D02*
X2803572Y-748000D01*
X2803572Y-748000D02*
X2822619Y-757524D01*
X2822619Y-757524D02*
X2860714Y-757524D01*
X2860714Y-757524D02*
X2879762Y-748000D01*
X2879762Y-748000D02*
X2889286Y-738476D01*
X2889286Y-738476D02*
X2898810Y-719428D01*
X2898810Y-719428D02*
X2898810Y-681333D01*
X2898810Y-681333D02*
X2889286Y-662286D01*
X2889286Y-662286D02*
X2879762Y-652762D01*
X2879762Y-652762D02*
X2860714Y-643238D01*
X2965476Y-557524D02*
X3098810Y-557524D01*
X3098810Y-557524D02*
X3013095Y-757524D01*
X3165476Y-557524D02*
X3165476Y-595619D01*
X3241667Y-557524D02*
X3241667Y-595619D01*
X3536905Y-833714D02*
X3527381Y-824190D01*
X3527381Y-824190D02*
X3508334Y-795619D01*
X3508334Y-795619D02*
X3498810Y-776571D01*
X3498810Y-776571D02*
X3489286Y-748000D01*
X3489286Y-748000D02*
X3479762Y-700381D01*
X3479762Y-700381D02*
X3479762Y-662286D01*
X3479762Y-662286D02*
X3489286Y-614667D01*
X3489286Y-614667D02*
X3498810Y-586095D01*
X3498810Y-586095D02*
X3508334Y-567048D01*
X3508334Y-567048D02*
X3527381Y-538476D01*
X3527381Y-538476D02*
X3536905Y-528952D01*
X3641667Y-643238D02*
X3622619Y-633714D01*
X3622619Y-633714D02*
X3613095Y-624190D01*
X3613095Y-624190D02*
X3603572Y-605143D01*
X3603572Y-605143D02*
X3603572Y-595619D01*
X3603572Y-595619D02*
X3613095Y-576571D01*
X3613095Y-576571D02*
X3622619Y-567048D01*
X3622619Y-567048D02*
X3641667Y-557524D01*
X3641667Y-557524D02*
X3679762Y-557524D01*
X3679762Y-557524D02*
X3698810Y-567048D01*
X3698810Y-567048D02*
X3708334Y-576571D01*
X3708334Y-576571D02*
X3717857Y-595619D01*
X3717857Y-595619D02*
X3717857Y-605143D01*
X3717857Y-605143D02*
X3708334Y-624190D01*
X3708334Y-624190D02*
X3698810Y-633714D01*
X3698810Y-633714D02*
X3679762Y-643238D01*
X3679762Y-643238D02*
X3641667Y-643238D01*
X3641667Y-643238D02*
X3622619Y-652762D01*
X3622619Y-652762D02*
X3613095Y-662286D01*
X3613095Y-662286D02*
X3603572Y-681333D01*
X3603572Y-681333D02*
X3603572Y-719428D01*
X3603572Y-719428D02*
X3613095Y-738476D01*
X3613095Y-738476D02*
X3622619Y-748000D01*
X3622619Y-748000D02*
X3641667Y-757524D01*
X3641667Y-757524D02*
X3679762Y-757524D01*
X3679762Y-757524D02*
X3698810Y-748000D01*
X3698810Y-748000D02*
X3708334Y-738476D01*
X3708334Y-738476D02*
X3717857Y-719428D01*
X3717857Y-719428D02*
X3717857Y-681333D01*
X3717857Y-681333D02*
X3708334Y-662286D01*
X3708334Y-662286D02*
X3698810Y-652762D01*
X3698810Y-652762D02*
X3679762Y-643238D01*
X3955953Y-757524D02*
X3955953Y-557524D01*
X4041667Y-757524D02*
X4041667Y-652762D01*
X4041667Y-652762D02*
X4032143Y-633714D01*
X4032143Y-633714D02*
X4013096Y-624190D01*
X4013096Y-624190D02*
X3984524Y-624190D01*
X3984524Y-624190D02*
X3965476Y-633714D01*
X3965476Y-633714D02*
X3955953Y-643238D01*
X4165476Y-757524D02*
X4146429Y-748000D01*
X4146429Y-748000D02*
X4136905Y-738476D01*
X4136905Y-738476D02*
X4127381Y-719428D01*
X4127381Y-719428D02*
X4127381Y-662286D01*
X4127381Y-662286D02*
X4136905Y-643238D01*
X4136905Y-643238D02*
X4146429Y-633714D01*
X4146429Y-633714D02*
X4165476Y-624190D01*
X4165476Y-624190D02*
X4194048Y-624190D01*
X4194048Y-624190D02*
X4213096Y-633714D01*
X4213096Y-633714D02*
X4222619Y-643238D01*
X4222619Y-643238D02*
X4232143Y-662286D01*
X4232143Y-662286D02*
X4232143Y-719428D01*
X4232143Y-719428D02*
X4222619Y-738476D01*
X4222619Y-738476D02*
X4213096Y-748000D01*
X4213096Y-748000D02*
X4194048Y-757524D01*
X4194048Y-757524D02*
X4165476Y-757524D01*
X4346429Y-757524D02*
X4327381Y-748000D01*
X4327381Y-748000D02*
X4317858Y-728952D01*
X4317858Y-728952D02*
X4317858Y-557524D01*
X4498810Y-748000D02*
X4479762Y-757524D01*
X4479762Y-757524D02*
X4441667Y-757524D01*
X4441667Y-757524D02*
X4422619Y-748000D01*
X4422619Y-748000D02*
X4413096Y-728952D01*
X4413096Y-728952D02*
X4413096Y-652762D01*
X4413096Y-652762D02*
X4422619Y-633714D01*
X4422619Y-633714D02*
X4441667Y-624190D01*
X4441667Y-624190D02*
X4479762Y-624190D01*
X4479762Y-624190D02*
X4498810Y-633714D01*
X4498810Y-633714D02*
X4508334Y-652762D01*
X4508334Y-652762D02*
X4508334Y-671810D01*
X4508334Y-671810D02*
X4413096Y-690857D01*
X4584524Y-748000D02*
X4603572Y-757524D01*
X4603572Y-757524D02*
X4641667Y-757524D01*
X4641667Y-757524D02*
X4660715Y-748000D01*
X4660715Y-748000D02*
X4670239Y-728952D01*
X4670239Y-728952D02*
X4670239Y-719428D01*
X4670239Y-719428D02*
X4660715Y-700381D01*
X4660715Y-700381D02*
X4641667Y-690857D01*
X4641667Y-690857D02*
X4613096Y-690857D01*
X4613096Y-690857D02*
X4594048Y-681333D01*
X4594048Y-681333D02*
X4584524Y-662286D01*
X4584524Y-662286D02*
X4584524Y-652762D01*
X4584524Y-652762D02*
X4594048Y-633714D01*
X4594048Y-633714D02*
X4613096Y-624190D01*
X4613096Y-624190D02*
X4641667Y-624190D01*
X4641667Y-624190D02*
X4660715Y-633714D01*
X4736905Y-833714D02*
X4746429Y-824190D01*
X4746429Y-824190D02*
X4765477Y-795619D01*
X4765477Y-795619D02*
X4775000Y-776571D01*
X4775000Y-776571D02*
X4784524Y-748000D01*
X4784524Y-748000D02*
X4794048Y-700381D01*
X4794048Y-700381D02*
X4794048Y-662286D01*
X4794048Y-662286D02*
X4784524Y-614667D01*
X4784524Y-614667D02*
X4775000Y-586095D01*
X4775000Y-586095D02*
X4765477Y-567048D01*
X4765477Y-567048D02*
X4746429Y-538476D01*
X4746429Y-538476D02*
X4736905Y-528952D01*
M02*
