%TF.GenerationSoftware,KiCad,Pcbnew,7.0.2-0*%
%TF.CreationDate,2023-05-18T01:15:54+02:00*%
%TF.ProjectId,LD,4c442e6b-6963-4616-945f-706362585858,rev?*%
%TF.SameCoordinates,PXfd9f08PY7735940*%
%TF.FileFunction,Profile,NP*%
%FSLAX46Y46*%
G04 Gerber Fmt 4.6, Leading zero omitted, Abs format (unit mm)*
G04 Created by KiCad (PCBNEW 7.0.2-0) date 2023-05-18 01:15:54*
%MOMM*%
%LPD*%
G01*
G04 APERTURE LIST*
%TA.AperFunction,Profile*%
%ADD10C,0.500000*%
%TD*%
G04 APERTURE END LIST*
D10*
X172500000Y4000000D02*
X91500000Y4000000D01*
X6000000Y4000000D02*
X6000000Y28000000D01*
X91500000Y28000000D02*
X172500000Y28000000D01*
X84500000Y4000000D02*
X6000000Y4000000D01*
X237300000Y28000000D02*
X237300000Y4000000D01*
X6000000Y28000000D02*
X84500000Y28000000D01*
X179500000Y28000000D02*
X237300000Y28000000D01*
X91499999Y4000000D02*
G75*
G03*
X84500001Y4000000I-3499999J-500000D01*
G01*
X172500001Y28000000D02*
G75*
G03*
X179499999Y28000000I3499999J500000D01*
G01*
X179499999Y4000000D02*
G75*
G03*
X172500001Y4000000I-3499999J-500000D01*
G01*
X237300000Y4000000D02*
X179500000Y4000000D01*
X84500001Y28000000D02*
G75*
G03*
X91499999Y28000000I3499999J500000D01*
G01*
%TO.C,REF\u002A\u002A*%
X0Y29000000D02*
X0Y3000000D01*
X3000000Y0D02*
X261000000Y0D01*
X241900000Y24450000D02*
X264000000Y24450000D01*
X241900000Y7550000D02*
X241900000Y24450000D01*
X261000000Y32000000D02*
X3000000Y32000000D01*
X264000000Y24450000D02*
X264000000Y29000000D01*
X264000000Y7550000D02*
X241900000Y7550000D01*
X264000000Y3000000D02*
X264000000Y7550000D01*
X3000000Y32000000D02*
G75*
G03*
X0Y29000000I0J-3000000D01*
G01*
X0Y3000000D02*
G75*
G03*
X3000000Y0I3000000J0D01*
G01*
X264000000Y29000000D02*
G75*
G03*
X261000000Y32000000I-3000000J0D01*
G01*
X261000000Y0D02*
G75*
G03*
X264000000Y3000000I0J3000000D01*
G01*
%TD*%
M02*
