%TF.GenerationSoftware,KiCad,Pcbnew,7.0.2-0*%
%TF.CreationDate,2023-05-18T01:15:51+02:00*%
%TF.ProjectId,LD,4c442e6b-6963-4616-945f-706362585858,rev?*%
%TF.SameCoordinates,PXfd9f08PY7735940*%
%TF.FileFunction,Drillmap*%
%TF.FilePolarity,Positive*%
%FSLAX45Y45*%
G04 Gerber Fmt 4.5, Leading zero omitted, Abs format (unit mm)*
G04 Created by KiCad (PCBNEW 7.0.2-0) date 2023-05-18 01:15:51*
%MOMM*%
%LPD*%
G01*
G04 APERTURE LIST*
%ADD10C,0.500000*%
%ADD11C,0.200000*%
G04 APERTURE END LIST*
D10*
X17250000Y400000D02*
X9150000Y400000D01*
X600000Y400000D02*
X600000Y2800000D01*
X9150000Y2800000D02*
X17250000Y2800000D01*
X8450000Y400000D02*
X600000Y400000D01*
X23730000Y2800000D02*
X23730000Y400000D01*
X600000Y2800000D02*
X8450000Y2800000D01*
X17950000Y2800000D02*
X23730000Y2800000D01*
X9150000Y400000D02*
G75*
G03*
X8450000Y400000I-350000J-50000D01*
G01*
X17250000Y2800000D02*
G75*
G03*
X17950000Y2800000I350000J50000D01*
G01*
X17950000Y400000D02*
G75*
G03*
X17250000Y400000I-350000J-50000D01*
G01*
X23730000Y400000D02*
X17950000Y400000D01*
X8450000Y2800000D02*
G75*
G03*
X9150000Y2800000I350000J50000D01*
G01*
D11*
X222619Y-337524D02*
X222619Y-137524D01*
X222619Y-137524D02*
X270238Y-137524D01*
X270238Y-137524D02*
X298810Y-147048D01*
X298810Y-147048D02*
X317857Y-166095D01*
X317857Y-166095D02*
X327381Y-185143D01*
X327381Y-185143D02*
X336905Y-223238D01*
X336905Y-223238D02*
X336905Y-251809D01*
X336905Y-251809D02*
X327381Y-289905D01*
X327381Y-289905D02*
X317857Y-308952D01*
X317857Y-308952D02*
X298810Y-328000D01*
X298810Y-328000D02*
X270238Y-337524D01*
X270238Y-337524D02*
X222619Y-337524D01*
X422619Y-337524D02*
X422619Y-204190D01*
X422619Y-242286D02*
X432143Y-223238D01*
X432143Y-223238D02*
X441667Y-213714D01*
X441667Y-213714D02*
X460714Y-204190D01*
X460714Y-204190D02*
X479762Y-204190D01*
X546429Y-337524D02*
X546429Y-204190D01*
X546429Y-137524D02*
X536905Y-147048D01*
X536905Y-147048D02*
X546429Y-156571D01*
X546429Y-156571D02*
X555952Y-147048D01*
X555952Y-147048D02*
X546429Y-137524D01*
X546429Y-137524D02*
X546429Y-156571D01*
X670238Y-337524D02*
X651190Y-328000D01*
X651190Y-328000D02*
X641667Y-308952D01*
X641667Y-308952D02*
X641667Y-137524D01*
X775000Y-337524D02*
X755952Y-328000D01*
X755952Y-328000D02*
X746428Y-308952D01*
X746428Y-308952D02*
X746428Y-137524D01*
X1003571Y-337524D02*
X1003571Y-137524D01*
X1003571Y-137524D02*
X1070238Y-280381D01*
X1070238Y-280381D02*
X1136905Y-137524D01*
X1136905Y-137524D02*
X1136905Y-337524D01*
X1317857Y-337524D02*
X1317857Y-232762D01*
X1317857Y-232762D02*
X1308333Y-213714D01*
X1308333Y-213714D02*
X1289286Y-204190D01*
X1289286Y-204190D02*
X1251190Y-204190D01*
X1251190Y-204190D02*
X1232143Y-213714D01*
X1317857Y-328000D02*
X1298810Y-337524D01*
X1298810Y-337524D02*
X1251190Y-337524D01*
X1251190Y-337524D02*
X1232143Y-328000D01*
X1232143Y-328000D02*
X1222619Y-308952D01*
X1222619Y-308952D02*
X1222619Y-289905D01*
X1222619Y-289905D02*
X1232143Y-270857D01*
X1232143Y-270857D02*
X1251190Y-261333D01*
X1251190Y-261333D02*
X1298810Y-261333D01*
X1298810Y-261333D02*
X1317857Y-251809D01*
X1413095Y-204190D02*
X1413095Y-404190D01*
X1413095Y-213714D02*
X1432143Y-204190D01*
X1432143Y-204190D02*
X1470238Y-204190D01*
X1470238Y-204190D02*
X1489286Y-213714D01*
X1489286Y-213714D02*
X1498809Y-223238D01*
X1498809Y-223238D02*
X1508333Y-242286D01*
X1508333Y-242286D02*
X1508333Y-299429D01*
X1508333Y-299429D02*
X1498809Y-318476D01*
X1498809Y-318476D02*
X1489286Y-328000D01*
X1489286Y-328000D02*
X1470238Y-337524D01*
X1470238Y-337524D02*
X1432143Y-337524D01*
X1432143Y-337524D02*
X1413095Y-328000D01*
X1594048Y-318476D02*
X1603571Y-328000D01*
X1603571Y-328000D02*
X1594048Y-337524D01*
X1594048Y-337524D02*
X1584524Y-328000D01*
X1584524Y-328000D02*
X1594048Y-318476D01*
X1594048Y-318476D02*
X1594048Y-337524D01*
X1594048Y-213714D02*
X1603571Y-223238D01*
X1603571Y-223238D02*
X1594048Y-232762D01*
X1594048Y-232762D02*
X1584524Y-223238D01*
X1584524Y-223238D02*
X1594048Y-213714D01*
X1594048Y-213714D02*
X1594048Y-232762D01*
M02*
