%TF.GenerationSoftware,KiCad,Pcbnew,7.0.2-0*%
%TF.CreationDate,2023-05-18T01:15:51+02:00*%
%TF.ProjectId,LD,4c442e6b-6963-4616-945f-706362585858,rev?*%
%TF.SameCoordinates,PXfd9f08PY7735940*%
%TF.FileFunction,Drillmap*%
%TF.FilePolarity,Positive*%
%FSLAX45Y45*%
G04 Gerber Fmt 4.5, Leading zero omitted, Abs format (unit mm)*
G04 Created by KiCad (PCBNEW 7.0.2-0) date 2023-05-18 01:15:51*
%MOMM*%
%LPD*%
G01*
G04 APERTURE LIST*
%ADD10C,0.500000*%
%ADD11C,0.200000*%
%ADD12C,0.320000*%
G04 APERTURE END LIST*
D10*
X17250000Y400000D02*
X9150000Y400000D01*
X600000Y400000D02*
X600000Y2800000D01*
X9150000Y2800000D02*
X17250000Y2800000D01*
X8450000Y400000D02*
X600000Y400000D01*
X23730000Y2800000D02*
X23730000Y400000D01*
X600000Y2800000D02*
X8450000Y2800000D01*
X17950000Y2800000D02*
X23730000Y2800000D01*
X9150000Y400000D02*
G75*
G03*
X8450000Y400000I-350000J-50000D01*
G01*
X17250000Y2800000D02*
G75*
G03*
X17950000Y2800000I350000J50000D01*
G01*
X17950000Y400000D02*
G75*
G03*
X17250000Y400000I-350000J-50000D01*
G01*
X23730000Y400000D02*
X17950000Y400000D01*
X8450000Y2800000D02*
G75*
G03*
X9150000Y2800000I350000J50000D01*
G01*
D11*
D12*
X190000Y3010000D02*
X510000Y2690000D01*
X510000Y3010000D02*
X190000Y2690000D01*
X190000Y510000D02*
X510000Y190000D01*
X510000Y510000D02*
X190000Y190000D01*
X8640000Y3010000D02*
X8960000Y2690000D01*
X8960000Y3010000D02*
X8640000Y2690000D01*
X8640000Y510000D02*
X8960000Y190000D01*
X8960000Y510000D02*
X8640000Y190000D01*
X17440000Y3010000D02*
X17760000Y2690000D01*
X17760000Y3010000D02*
X17440000Y2690000D01*
X17440000Y512870D02*
X17760000Y192870D01*
X17760000Y512870D02*
X17440000Y192870D01*
X25890000Y3010000D02*
X26210000Y2690000D01*
X26210000Y3010000D02*
X25890000Y2690000D01*
X25890000Y510000D02*
X26210000Y190000D01*
X26210000Y510000D02*
X25890000Y190000D01*
D11*
X222619Y-337524D02*
X222619Y-137524D01*
X222619Y-137524D02*
X270238Y-137524D01*
X270238Y-137524D02*
X298810Y-147048D01*
X298810Y-147048D02*
X317857Y-166095D01*
X317857Y-166095D02*
X327381Y-185143D01*
X327381Y-185143D02*
X336905Y-223238D01*
X336905Y-223238D02*
X336905Y-251809D01*
X336905Y-251809D02*
X327381Y-289905D01*
X327381Y-289905D02*
X317857Y-308952D01*
X317857Y-308952D02*
X298810Y-328000D01*
X298810Y-328000D02*
X270238Y-337524D01*
X270238Y-337524D02*
X222619Y-337524D01*
X422619Y-337524D02*
X422619Y-204190D01*
X422619Y-242286D02*
X432143Y-223238D01*
X432143Y-223238D02*
X441667Y-213714D01*
X441667Y-213714D02*
X460714Y-204190D01*
X460714Y-204190D02*
X479762Y-204190D01*
X546429Y-337524D02*
X546429Y-204190D01*
X546429Y-137524D02*
X536905Y-147048D01*
X536905Y-147048D02*
X546429Y-156571D01*
X546429Y-156571D02*
X555952Y-147048D01*
X555952Y-147048D02*
X546429Y-137524D01*
X546429Y-137524D02*
X546429Y-156571D01*
X670238Y-337524D02*
X651190Y-328000D01*
X651190Y-328000D02*
X641667Y-308952D01*
X641667Y-308952D02*
X641667Y-137524D01*
X775000Y-337524D02*
X755952Y-328000D01*
X755952Y-328000D02*
X746428Y-308952D01*
X746428Y-308952D02*
X746428Y-137524D01*
X1003571Y-337524D02*
X1003571Y-137524D01*
X1003571Y-137524D02*
X1070238Y-280381D01*
X1070238Y-280381D02*
X1136905Y-137524D01*
X1136905Y-137524D02*
X1136905Y-337524D01*
X1317857Y-337524D02*
X1317857Y-232762D01*
X1317857Y-232762D02*
X1308333Y-213714D01*
X1308333Y-213714D02*
X1289286Y-204190D01*
X1289286Y-204190D02*
X1251190Y-204190D01*
X1251190Y-204190D02*
X1232143Y-213714D01*
X1317857Y-328000D02*
X1298810Y-337524D01*
X1298810Y-337524D02*
X1251190Y-337524D01*
X1251190Y-337524D02*
X1232143Y-328000D01*
X1232143Y-328000D02*
X1222619Y-308952D01*
X1222619Y-308952D02*
X1222619Y-289905D01*
X1222619Y-289905D02*
X1232143Y-270857D01*
X1232143Y-270857D02*
X1251190Y-261333D01*
X1251190Y-261333D02*
X1298810Y-261333D01*
X1298810Y-261333D02*
X1317857Y-251809D01*
X1413095Y-204190D02*
X1413095Y-404190D01*
X1413095Y-213714D02*
X1432143Y-204190D01*
X1432143Y-204190D02*
X1470238Y-204190D01*
X1470238Y-204190D02*
X1489286Y-213714D01*
X1489286Y-213714D02*
X1498809Y-223238D01*
X1498809Y-223238D02*
X1508333Y-242286D01*
X1508333Y-242286D02*
X1508333Y-299429D01*
X1508333Y-299429D02*
X1498809Y-318476D01*
X1498809Y-318476D02*
X1489286Y-328000D01*
X1489286Y-328000D02*
X1470238Y-337524D01*
X1470238Y-337524D02*
X1432143Y-337524D01*
X1432143Y-337524D02*
X1413095Y-328000D01*
X1594048Y-318476D02*
X1603571Y-328000D01*
X1603571Y-328000D02*
X1594048Y-337524D01*
X1594048Y-337524D02*
X1584524Y-328000D01*
X1584524Y-328000D02*
X1594048Y-318476D01*
X1594048Y-318476D02*
X1594048Y-337524D01*
X1594048Y-213714D02*
X1603571Y-223238D01*
X1603571Y-223238D02*
X1594048Y-232762D01*
X1594048Y-232762D02*
X1584524Y-223238D01*
X1584524Y-223238D02*
X1594048Y-213714D01*
X1594048Y-213714D02*
X1594048Y-232762D01*
X-225000Y-565000D02*
X-25000Y-765000D01*
X-25000Y-565000D02*
X-225000Y-765000D01*
X203571Y-557524D02*
X327381Y-557524D01*
X327381Y-557524D02*
X260714Y-633714D01*
X260714Y-633714D02*
X289286Y-633714D01*
X289286Y-633714D02*
X308333Y-643238D01*
X308333Y-643238D02*
X317857Y-652762D01*
X317857Y-652762D02*
X327381Y-671810D01*
X327381Y-671810D02*
X327381Y-719428D01*
X327381Y-719428D02*
X317857Y-738476D01*
X317857Y-738476D02*
X308333Y-748000D01*
X308333Y-748000D02*
X289286Y-757524D01*
X289286Y-757524D02*
X232143Y-757524D01*
X232143Y-757524D02*
X213095Y-748000D01*
X213095Y-748000D02*
X203571Y-738476D01*
X413095Y-738476D02*
X422619Y-748000D01*
X422619Y-748000D02*
X413095Y-757524D01*
X413095Y-757524D02*
X403571Y-748000D01*
X403571Y-748000D02*
X413095Y-738476D01*
X413095Y-738476D02*
X413095Y-757524D01*
X498809Y-576571D02*
X508333Y-567048D01*
X508333Y-567048D02*
X527381Y-557524D01*
X527381Y-557524D02*
X575000Y-557524D01*
X575000Y-557524D02*
X594048Y-567048D01*
X594048Y-567048D02*
X603571Y-576571D01*
X603571Y-576571D02*
X613095Y-595619D01*
X613095Y-595619D02*
X613095Y-614667D01*
X613095Y-614667D02*
X603571Y-643238D01*
X603571Y-643238D02*
X489286Y-757524D01*
X489286Y-757524D02*
X613095Y-757524D01*
X736905Y-557524D02*
X755952Y-557524D01*
X755952Y-557524D02*
X775000Y-567048D01*
X775000Y-567048D02*
X784524Y-576571D01*
X784524Y-576571D02*
X794048Y-595619D01*
X794048Y-595619D02*
X803571Y-633714D01*
X803571Y-633714D02*
X803571Y-681333D01*
X803571Y-681333D02*
X794048Y-719428D01*
X794048Y-719428D02*
X784524Y-738476D01*
X784524Y-738476D02*
X775000Y-748000D01*
X775000Y-748000D02*
X755952Y-757524D01*
X755952Y-757524D02*
X736905Y-757524D01*
X736905Y-757524D02*
X717857Y-748000D01*
X717857Y-748000D02*
X708333Y-738476D01*
X708333Y-738476D02*
X698810Y-719428D01*
X698810Y-719428D02*
X689286Y-681333D01*
X689286Y-681333D02*
X689286Y-633714D01*
X689286Y-633714D02*
X698810Y-595619D01*
X698810Y-595619D02*
X708333Y-576571D01*
X708333Y-576571D02*
X717857Y-567048D01*
X717857Y-567048D02*
X736905Y-557524D01*
X927381Y-557524D02*
X946429Y-557524D01*
X946429Y-557524D02*
X965476Y-567048D01*
X965476Y-567048D02*
X975000Y-576571D01*
X975000Y-576571D02*
X984524Y-595619D01*
X984524Y-595619D02*
X994048Y-633714D01*
X994048Y-633714D02*
X994048Y-681333D01*
X994048Y-681333D02*
X984524Y-719428D01*
X984524Y-719428D02*
X975000Y-738476D01*
X975000Y-738476D02*
X965476Y-748000D01*
X965476Y-748000D02*
X946429Y-757524D01*
X946429Y-757524D02*
X927381Y-757524D01*
X927381Y-757524D02*
X908333Y-748000D01*
X908333Y-748000D02*
X898809Y-738476D01*
X898809Y-738476D02*
X889286Y-719428D01*
X889286Y-719428D02*
X879762Y-681333D01*
X879762Y-681333D02*
X879762Y-633714D01*
X879762Y-633714D02*
X889286Y-595619D01*
X889286Y-595619D02*
X898809Y-576571D01*
X898809Y-576571D02*
X908333Y-567048D01*
X908333Y-567048D02*
X927381Y-557524D01*
X1079762Y-757524D02*
X1079762Y-624190D01*
X1079762Y-643238D02*
X1089286Y-633714D01*
X1089286Y-633714D02*
X1108333Y-624190D01*
X1108333Y-624190D02*
X1136905Y-624190D01*
X1136905Y-624190D02*
X1155952Y-633714D01*
X1155952Y-633714D02*
X1165476Y-652762D01*
X1165476Y-652762D02*
X1165476Y-757524D01*
X1165476Y-652762D02*
X1175000Y-633714D01*
X1175000Y-633714D02*
X1194048Y-624190D01*
X1194048Y-624190D02*
X1222619Y-624190D01*
X1222619Y-624190D02*
X1241667Y-633714D01*
X1241667Y-633714D02*
X1251191Y-652762D01*
X1251191Y-652762D02*
X1251191Y-757524D01*
X1346429Y-757524D02*
X1346429Y-624190D01*
X1346429Y-643238D02*
X1355952Y-633714D01*
X1355952Y-633714D02*
X1375000Y-624190D01*
X1375000Y-624190D02*
X1403571Y-624190D01*
X1403571Y-624190D02*
X1422619Y-633714D01*
X1422619Y-633714D02*
X1432143Y-652762D01*
X1432143Y-652762D02*
X1432143Y-757524D01*
X1432143Y-652762D02*
X1441667Y-633714D01*
X1441667Y-633714D02*
X1460714Y-624190D01*
X1460714Y-624190D02*
X1489286Y-624190D01*
X1489286Y-624190D02*
X1508333Y-633714D01*
X1508333Y-633714D02*
X1517857Y-652762D01*
X1517857Y-652762D02*
X1517857Y-757524D01*
X1908333Y-548000D02*
X1736905Y-805143D01*
X2165476Y-557524D02*
X2184524Y-557524D01*
X2184524Y-557524D02*
X2203572Y-567048D01*
X2203572Y-567048D02*
X2213095Y-576571D01*
X2213095Y-576571D02*
X2222619Y-595619D01*
X2222619Y-595619D02*
X2232143Y-633714D01*
X2232143Y-633714D02*
X2232143Y-681333D01*
X2232143Y-681333D02*
X2222619Y-719428D01*
X2222619Y-719428D02*
X2213095Y-738476D01*
X2213095Y-738476D02*
X2203572Y-748000D01*
X2203572Y-748000D02*
X2184524Y-757524D01*
X2184524Y-757524D02*
X2165476Y-757524D01*
X2165476Y-757524D02*
X2146429Y-748000D01*
X2146429Y-748000D02*
X2136905Y-738476D01*
X2136905Y-738476D02*
X2127381Y-719428D01*
X2127381Y-719428D02*
X2117857Y-681333D01*
X2117857Y-681333D02*
X2117857Y-633714D01*
X2117857Y-633714D02*
X2127381Y-595619D01*
X2127381Y-595619D02*
X2136905Y-576571D01*
X2136905Y-576571D02*
X2146429Y-567048D01*
X2146429Y-567048D02*
X2165476Y-557524D01*
X2317857Y-738476D02*
X2327381Y-748000D01*
X2327381Y-748000D02*
X2317857Y-757524D01*
X2317857Y-757524D02*
X2308334Y-748000D01*
X2308334Y-748000D02*
X2317857Y-738476D01*
X2317857Y-738476D02*
X2317857Y-757524D01*
X2517857Y-757524D02*
X2403572Y-757524D01*
X2460714Y-757524D02*
X2460714Y-557524D01*
X2460714Y-557524D02*
X2441667Y-586095D01*
X2441667Y-586095D02*
X2422619Y-605143D01*
X2422619Y-605143D02*
X2403572Y-614667D01*
X2594048Y-576571D02*
X2603572Y-567048D01*
X2603572Y-567048D02*
X2622619Y-557524D01*
X2622619Y-557524D02*
X2670238Y-557524D01*
X2670238Y-557524D02*
X2689286Y-567048D01*
X2689286Y-567048D02*
X2698810Y-576571D01*
X2698810Y-576571D02*
X2708334Y-595619D01*
X2708334Y-595619D02*
X2708334Y-614667D01*
X2708334Y-614667D02*
X2698810Y-643238D01*
X2698810Y-643238D02*
X2584524Y-757524D01*
X2584524Y-757524D02*
X2708334Y-757524D01*
X2879762Y-557524D02*
X2841667Y-557524D01*
X2841667Y-557524D02*
X2822619Y-567048D01*
X2822619Y-567048D02*
X2813095Y-576571D01*
X2813095Y-576571D02*
X2794048Y-605143D01*
X2794048Y-605143D02*
X2784524Y-643238D01*
X2784524Y-643238D02*
X2784524Y-719428D01*
X2784524Y-719428D02*
X2794048Y-738476D01*
X2794048Y-738476D02*
X2803572Y-748000D01*
X2803572Y-748000D02*
X2822619Y-757524D01*
X2822619Y-757524D02*
X2860714Y-757524D01*
X2860714Y-757524D02*
X2879762Y-748000D01*
X2879762Y-748000D02*
X2889286Y-738476D01*
X2889286Y-738476D02*
X2898810Y-719428D01*
X2898810Y-719428D02*
X2898810Y-671810D01*
X2898810Y-671810D02*
X2889286Y-652762D01*
X2889286Y-652762D02*
X2879762Y-643238D01*
X2879762Y-643238D02*
X2860714Y-633714D01*
X2860714Y-633714D02*
X2822619Y-633714D01*
X2822619Y-633714D02*
X2803572Y-643238D01*
X2803572Y-643238D02*
X2794048Y-652762D01*
X2794048Y-652762D02*
X2784524Y-671810D01*
X3022619Y-557524D02*
X3041667Y-557524D01*
X3041667Y-557524D02*
X3060714Y-567048D01*
X3060714Y-567048D02*
X3070238Y-576571D01*
X3070238Y-576571D02*
X3079762Y-595619D01*
X3079762Y-595619D02*
X3089286Y-633714D01*
X3089286Y-633714D02*
X3089286Y-681333D01*
X3089286Y-681333D02*
X3079762Y-719428D01*
X3079762Y-719428D02*
X3070238Y-738476D01*
X3070238Y-738476D02*
X3060714Y-748000D01*
X3060714Y-748000D02*
X3041667Y-757524D01*
X3041667Y-757524D02*
X3022619Y-757524D01*
X3022619Y-757524D02*
X3003572Y-748000D01*
X3003572Y-748000D02*
X2994048Y-738476D01*
X2994048Y-738476D02*
X2984524Y-719428D01*
X2984524Y-719428D02*
X2975000Y-681333D01*
X2975000Y-681333D02*
X2975000Y-633714D01*
X2975000Y-633714D02*
X2984524Y-595619D01*
X2984524Y-595619D02*
X2994048Y-576571D01*
X2994048Y-576571D02*
X3003572Y-567048D01*
X3003572Y-567048D02*
X3022619Y-557524D01*
X3165476Y-557524D02*
X3165476Y-595619D01*
X3241667Y-557524D02*
X3241667Y-595619D01*
X3536905Y-833714D02*
X3527381Y-824190D01*
X3527381Y-824190D02*
X3508334Y-795619D01*
X3508334Y-795619D02*
X3498810Y-776571D01*
X3498810Y-776571D02*
X3489286Y-748000D01*
X3489286Y-748000D02*
X3479762Y-700381D01*
X3479762Y-700381D02*
X3479762Y-662286D01*
X3479762Y-662286D02*
X3489286Y-614667D01*
X3489286Y-614667D02*
X3498810Y-586095D01*
X3498810Y-586095D02*
X3508334Y-567048D01*
X3508334Y-567048D02*
X3527381Y-538476D01*
X3527381Y-538476D02*
X3536905Y-528952D01*
X3641667Y-643238D02*
X3622619Y-633714D01*
X3622619Y-633714D02*
X3613095Y-624190D01*
X3613095Y-624190D02*
X3603572Y-605143D01*
X3603572Y-605143D02*
X3603572Y-595619D01*
X3603572Y-595619D02*
X3613095Y-576571D01*
X3613095Y-576571D02*
X3622619Y-567048D01*
X3622619Y-567048D02*
X3641667Y-557524D01*
X3641667Y-557524D02*
X3679762Y-557524D01*
X3679762Y-557524D02*
X3698810Y-567048D01*
X3698810Y-567048D02*
X3708334Y-576571D01*
X3708334Y-576571D02*
X3717857Y-595619D01*
X3717857Y-595619D02*
X3717857Y-605143D01*
X3717857Y-605143D02*
X3708334Y-624190D01*
X3708334Y-624190D02*
X3698810Y-633714D01*
X3698810Y-633714D02*
X3679762Y-643238D01*
X3679762Y-643238D02*
X3641667Y-643238D01*
X3641667Y-643238D02*
X3622619Y-652762D01*
X3622619Y-652762D02*
X3613095Y-662286D01*
X3613095Y-662286D02*
X3603572Y-681333D01*
X3603572Y-681333D02*
X3603572Y-719428D01*
X3603572Y-719428D02*
X3613095Y-738476D01*
X3613095Y-738476D02*
X3622619Y-748000D01*
X3622619Y-748000D02*
X3641667Y-757524D01*
X3641667Y-757524D02*
X3679762Y-757524D01*
X3679762Y-757524D02*
X3698810Y-748000D01*
X3698810Y-748000D02*
X3708334Y-738476D01*
X3708334Y-738476D02*
X3717857Y-719428D01*
X3717857Y-719428D02*
X3717857Y-681333D01*
X3717857Y-681333D02*
X3708334Y-662286D01*
X3708334Y-662286D02*
X3698810Y-652762D01*
X3698810Y-652762D02*
X3679762Y-643238D01*
X3955953Y-757524D02*
X3955953Y-557524D01*
X4041667Y-757524D02*
X4041667Y-652762D01*
X4041667Y-652762D02*
X4032143Y-633714D01*
X4032143Y-633714D02*
X4013096Y-624190D01*
X4013096Y-624190D02*
X3984524Y-624190D01*
X3984524Y-624190D02*
X3965476Y-633714D01*
X3965476Y-633714D02*
X3955953Y-643238D01*
X4165476Y-757524D02*
X4146429Y-748000D01*
X4146429Y-748000D02*
X4136905Y-738476D01*
X4136905Y-738476D02*
X4127381Y-719428D01*
X4127381Y-719428D02*
X4127381Y-662286D01*
X4127381Y-662286D02*
X4136905Y-643238D01*
X4136905Y-643238D02*
X4146429Y-633714D01*
X4146429Y-633714D02*
X4165476Y-624190D01*
X4165476Y-624190D02*
X4194048Y-624190D01*
X4194048Y-624190D02*
X4213096Y-633714D01*
X4213096Y-633714D02*
X4222619Y-643238D01*
X4222619Y-643238D02*
X4232143Y-662286D01*
X4232143Y-662286D02*
X4232143Y-719428D01*
X4232143Y-719428D02*
X4222619Y-738476D01*
X4222619Y-738476D02*
X4213096Y-748000D01*
X4213096Y-748000D02*
X4194048Y-757524D01*
X4194048Y-757524D02*
X4165476Y-757524D01*
X4346429Y-757524D02*
X4327381Y-748000D01*
X4327381Y-748000D02*
X4317858Y-728952D01*
X4317858Y-728952D02*
X4317858Y-557524D01*
X4498810Y-748000D02*
X4479762Y-757524D01*
X4479762Y-757524D02*
X4441667Y-757524D01*
X4441667Y-757524D02*
X4422619Y-748000D01*
X4422619Y-748000D02*
X4413096Y-728952D01*
X4413096Y-728952D02*
X4413096Y-652762D01*
X4413096Y-652762D02*
X4422619Y-633714D01*
X4422619Y-633714D02*
X4441667Y-624190D01*
X4441667Y-624190D02*
X4479762Y-624190D01*
X4479762Y-624190D02*
X4498810Y-633714D01*
X4498810Y-633714D02*
X4508334Y-652762D01*
X4508334Y-652762D02*
X4508334Y-671810D01*
X4508334Y-671810D02*
X4413096Y-690857D01*
X4584524Y-748000D02*
X4603572Y-757524D01*
X4603572Y-757524D02*
X4641667Y-757524D01*
X4641667Y-757524D02*
X4660715Y-748000D01*
X4660715Y-748000D02*
X4670239Y-728952D01*
X4670239Y-728952D02*
X4670239Y-719428D01*
X4670239Y-719428D02*
X4660715Y-700381D01*
X4660715Y-700381D02*
X4641667Y-690857D01*
X4641667Y-690857D02*
X4613096Y-690857D01*
X4613096Y-690857D02*
X4594048Y-681333D01*
X4594048Y-681333D02*
X4584524Y-662286D01*
X4584524Y-662286D02*
X4584524Y-652762D01*
X4584524Y-652762D02*
X4594048Y-633714D01*
X4594048Y-633714D02*
X4613096Y-624190D01*
X4613096Y-624190D02*
X4641667Y-624190D01*
X4641667Y-624190D02*
X4660715Y-633714D01*
X4736905Y-833714D02*
X4746429Y-824190D01*
X4746429Y-824190D02*
X4765477Y-795619D01*
X4765477Y-795619D02*
X4775000Y-776571D01*
X4775000Y-776571D02*
X4784524Y-748000D01*
X4784524Y-748000D02*
X4794048Y-700381D01*
X4794048Y-700381D02*
X4794048Y-662286D01*
X4794048Y-662286D02*
X4784524Y-614667D01*
X4784524Y-614667D02*
X4775000Y-586095D01*
X4775000Y-586095D02*
X4765477Y-567048D01*
X4765477Y-567048D02*
X4746429Y-538476D01*
X4746429Y-538476D02*
X4736905Y-528952D01*
M02*
