%TF.GenerationSoftware,KiCad,Pcbnew,7.0.2-0*%
%TF.CreationDate,2023-05-18T01:17:22+02:00*%
%TF.ProjectId,LF,4c462e6b-6963-4616-945f-706362585858,rev?*%
%TF.SameCoordinates,PXfd9f08PY7735940*%
%TF.FileFunction,Copper,L2,Bot*%
%TF.FilePolarity,Positive*%
%FSLAX46Y46*%
G04 Gerber Fmt 4.6, Leading zero omitted, Abs format (unit mm)*
G04 Created by KiCad (PCBNEW 7.0.2-0) date 2023-05-18 01:17:22*
%MOMM*%
%LPD*%
G01*
G04 APERTURE LIST*
%TA.AperFunction,ComponentPad*%
%ADD10C,4.000000*%
%TD*%
G04 APERTURE END LIST*
D10*
%TO.P,REF\u002A\u002A,*%
%TO.N,*%
X3500000Y28500000D03*
X3500000Y3500000D03*
X88000000Y28500000D03*
X88000000Y3500000D03*
X176000000Y28500000D03*
X176000000Y3528700D03*
X260500000Y28500000D03*
X260500000Y3500000D03*
%TD*%
%TA.AperFunction,NonConductor*%
G36*
X260999208Y31996835D02*
G01*
X261068780Y31993355D01*
X261304797Y31979891D01*
X261311492Y31979202D01*
X261439020Y31960147D01*
X261440353Y31959933D01*
X261617584Y31929622D01*
X261623093Y31928458D01*
X261757926Y31894510D01*
X261760360Y31893852D01*
X261923722Y31846562D01*
X261928133Y31845132D01*
X262061903Y31797059D01*
X262065271Y31795755D01*
X262220231Y31731302D01*
X262223534Y31729832D01*
X262351954Y31668850D01*
X262356094Y31666721D01*
X262504739Y31584246D01*
X262506934Y31582978D01*
X262625114Y31511868D01*
X262626055Y31511302D01*
X262630836Y31508168D01*
X262777213Y31403902D01*
X262778467Y31402988D01*
X262881780Y31326065D01*
X262886974Y31321816D01*
X263062501Y31164314D01*
X263113283Y31118099D01*
X263118166Y31113220D01*
X263162776Y31064276D01*
X263163883Y31063045D01*
X263322269Y30886752D01*
X263326553Y30881522D01*
X263401872Y30780477D01*
X263402792Y30779215D01*
X263508806Y30630540D01*
X263511949Y30625751D01*
X263582640Y30508355D01*
X263583924Y30506135D01*
X263667469Y30355651D01*
X263669613Y30351483D01*
X263729850Y30224671D01*
X263731333Y30221340D01*
X263796535Y30064584D01*
X263797852Y30061184D01*
X263845320Y29929057D01*
X263846764Y29924598D01*
X263894580Y29759278D01*
X263895260Y29756763D01*
X263928675Y29623880D01*
X263929856Y29618275D01*
X263960553Y29438285D01*
X263960799Y29436741D01*
X263979355Y29312105D01*
X263980045Y29305371D01*
X263993722Y29062650D01*
X263996808Y29000056D01*
X263996898Y28996414D01*
X263996898Y2999298D01*
X263996806Y2995601D01*
X263993335Y2926210D01*
X263979862Y2690016D01*
X263979170Y2683297D01*
X263960157Y2556030D01*
X263959910Y2554490D01*
X263929599Y2377255D01*
X263928418Y2371661D01*
X263894508Y2236982D01*
X263893830Y2234474D01*
X263846541Y2071109D01*
X263845099Y2066659D01*
X263797054Y1932965D01*
X263795740Y1929572D01*
X263731267Y1774563D01*
X263729787Y1771240D01*
X263668854Y1642921D01*
X263666715Y1638760D01*
X263584199Y1490043D01*
X263582898Y1487793D01*
X263511285Y1368779D01*
X263508151Y1363999D01*
X263403852Y1217577D01*
X263402934Y1216317D01*
X263326068Y1113081D01*
X263321791Y1107852D01*
X263164084Y932101D01*
X263124179Y888255D01*
X263118218Y881703D01*
X263118091Y881564D01*
X263113210Y876679D01*
X263063401Y831286D01*
X263025747Y797452D01*
X262887028Y672809D01*
X262881793Y668521D01*
X262778973Y591886D01*
X262777710Y590966D01*
X262630928Y486311D01*
X262626139Y483169D01*
X262507392Y411669D01*
X262505138Y410365D01*
X262356170Y327667D01*
X262352002Y325523D01*
X262223900Y264677D01*
X262220569Y263194D01*
X262065287Y198608D01*
X262061888Y197292D01*
X261928433Y149348D01*
X261923974Y147904D01*
X261760328Y100573D01*
X261757815Y99893D01*
X261623347Y66078D01*
X261617741Y64897D01*
X261440098Y34600D01*
X261438556Y34354D01*
X261311647Y15456D01*
X261304913Y14766D01*
X261068120Y1417D01*
X260999243Y-1980D01*
X260995599Y-2070D01*
X2999289Y-2070D01*
X2995591Y-1978D01*
X2925988Y1505D01*
X2690120Y14956D01*
X2683398Y15648D01*
X2649469Y20718D01*
X2555522Y34756D01*
X2554010Y34998D01*
X2377400Y65205D01*
X2371808Y66386D01*
X2236661Y100414D01*
X2234152Y101093D01*
X2071279Y148243D01*
X2066829Y149684D01*
X1932748Y197869D01*
X1929356Y199184D01*
X1774783Y263477D01*
X1771459Y264956D01*
X1642767Y326067D01*
X1638608Y328206D01*
X1490334Y410475D01*
X1488084Y411775D01*
X1368667Y483629D01*
X1363898Y486756D01*
X1217949Y590717D01*
X1216740Y591598D01*
X1112983Y668852D01*
X1107755Y673129D01*
X933243Y829720D01*
X931522Y831286D01*
X881468Y876839D01*
X876602Y881703D01*
X831279Y931433D01*
X672801Y1107803D01*
X668513Y1113038D01*
X614565Y1185416D01*
X591913Y1215807D01*
X591006Y1217052D01*
X486287Y1363920D01*
X483153Y1368696D01*
X411665Y1487421D01*
X410400Y1489610D01*
X327638Y1638691D01*
X325498Y1642850D01*
X264673Y1770906D01*
X263216Y1774180D01*
X198565Y1929617D01*
X197269Y1932965D01*
X149350Y2066354D01*
X147906Y2070812D01*
X100538Y2234586D01*
X99868Y2237062D01*
X66072Y2371461D01*
X64899Y2377031D01*
X34562Y2554907D01*
X34334Y2556338D01*
X15449Y2683179D01*
X14764Y2689859D01*
X1398Y2927022D01*
X1288Y2929247D01*
X-1980Y2995546D01*
X-2070Y2999188D01*
X-2070Y3500000D01*
X1294778Y3500000D01*
X1313644Y3212161D01*
X1314114Y3209796D01*
X1314115Y3209792D01*
X1356376Y2997331D01*
X1369919Y2929247D01*
X1370693Y2926965D01*
X1370695Y2926960D01*
X1453408Y2683297D01*
X1462641Y2656098D01*
X1463710Y2653930D01*
X1463711Y2653928D01*
X1589150Y2399561D01*
X1589156Y2399551D01*
X1590222Y2397389D01*
X1591566Y2395377D01*
X1591567Y2395376D01*
X1749137Y2159555D01*
X1749141Y2159549D01*
X1750480Y2157546D01*
X1752067Y2155736D01*
X1752072Y2155730D01*
X1776989Y2127318D01*
X1940673Y1940673D01*
X1942493Y1939077D01*
X2155729Y1752073D01*
X2155733Y1752070D01*
X2157546Y1750480D01*
X2159551Y1749141D01*
X2159554Y1749138D01*
X2279293Y1669132D01*
X2397389Y1590222D01*
X2399555Y1589154D01*
X2399560Y1589151D01*
X2409022Y1584485D01*
X2656098Y1462641D01*
X2929247Y1369919D01*
X3212161Y1313644D01*
X3500000Y1294778D01*
X3787839Y1313644D01*
X4070753Y1369919D01*
X4343902Y1462641D01*
X4602611Y1590222D01*
X4842454Y1750480D01*
X5059327Y1940673D01*
X5249520Y2157546D01*
X5409778Y2397389D01*
X5537359Y2656098D01*
X5630081Y2929247D01*
X5686356Y3212161D01*
X5705222Y3500000D01*
X85794778Y3500000D01*
X85813644Y3212161D01*
X85814114Y3209796D01*
X85814115Y3209792D01*
X85856376Y2997331D01*
X85869919Y2929247D01*
X85870693Y2926965D01*
X85870695Y2926960D01*
X85953408Y2683297D01*
X85962641Y2656098D01*
X85963710Y2653930D01*
X85963711Y2653928D01*
X86089150Y2399561D01*
X86089156Y2399551D01*
X86090222Y2397389D01*
X86091566Y2395377D01*
X86091567Y2395376D01*
X86249137Y2159555D01*
X86249141Y2159549D01*
X86250480Y2157546D01*
X86252067Y2155736D01*
X86252072Y2155730D01*
X86276989Y2127318D01*
X86440673Y1940673D01*
X86442493Y1939077D01*
X86655729Y1752073D01*
X86655733Y1752070D01*
X86657546Y1750480D01*
X86659551Y1749141D01*
X86659554Y1749138D01*
X86779293Y1669132D01*
X86897389Y1590222D01*
X86899555Y1589154D01*
X86899560Y1589151D01*
X86909022Y1584485D01*
X87156098Y1462641D01*
X87429247Y1369919D01*
X87712161Y1313644D01*
X88000000Y1294778D01*
X88287839Y1313644D01*
X88570753Y1369919D01*
X88843902Y1462641D01*
X89102611Y1590222D01*
X89342454Y1750480D01*
X89559327Y1940673D01*
X89749520Y2157546D01*
X89909778Y2397389D01*
X90037359Y2656098D01*
X90130081Y2929247D01*
X90186356Y3212161D01*
X90205222Y3500000D01*
X90203341Y3528700D01*
X173794778Y3528700D01*
X173813644Y3240861D01*
X173869919Y2957947D01*
X173870693Y2955665D01*
X173870695Y2955660D01*
X173960923Y2689859D01*
X173962641Y2684798D01*
X173963710Y2682630D01*
X173963711Y2682628D01*
X174089150Y2428261D01*
X174089156Y2428251D01*
X174090222Y2426089D01*
X174091566Y2424077D01*
X174091567Y2424076D01*
X174249137Y2188255D01*
X174249141Y2188249D01*
X174250480Y2186246D01*
X174252067Y2184436D01*
X174252072Y2184430D01*
X174426004Y1986100D01*
X174440673Y1969373D01*
X174442493Y1967777D01*
X174655729Y1780773D01*
X174655733Y1780770D01*
X174657546Y1779180D01*
X174659551Y1777841D01*
X174659554Y1777838D01*
X174702507Y1749138D01*
X174897389Y1618922D01*
X174899555Y1617854D01*
X174899560Y1617851D01*
X174967220Y1584485D01*
X175156098Y1491341D01*
X175429247Y1398619D01*
X175712161Y1342344D01*
X176000000Y1323478D01*
X176287839Y1342344D01*
X176570753Y1398619D01*
X176843902Y1491341D01*
X177102611Y1618922D01*
X177342454Y1779180D01*
X177559327Y1969373D01*
X177749520Y2186246D01*
X177909778Y2426089D01*
X178037359Y2684798D01*
X178130081Y2957947D01*
X178186356Y3240861D01*
X178203341Y3500000D01*
X258294778Y3500000D01*
X258313644Y3212161D01*
X258314114Y3209796D01*
X258314115Y3209792D01*
X258356376Y2997331D01*
X258369919Y2929247D01*
X258370693Y2926965D01*
X258370695Y2926960D01*
X258453408Y2683297D01*
X258462641Y2656098D01*
X258463710Y2653930D01*
X258463711Y2653928D01*
X258589150Y2399561D01*
X258589156Y2399551D01*
X258590222Y2397389D01*
X258591566Y2395377D01*
X258591567Y2395376D01*
X258749137Y2159555D01*
X258749141Y2159549D01*
X258750480Y2157546D01*
X258752067Y2155736D01*
X258752072Y2155730D01*
X258776989Y2127318D01*
X258940673Y1940673D01*
X258942493Y1939077D01*
X259155729Y1752073D01*
X259155733Y1752070D01*
X259157546Y1750480D01*
X259159551Y1749141D01*
X259159554Y1749138D01*
X259279293Y1669132D01*
X259397389Y1590222D01*
X259399555Y1589154D01*
X259399560Y1589151D01*
X259409022Y1584485D01*
X259656098Y1462641D01*
X259929247Y1369919D01*
X260212161Y1313644D01*
X260500000Y1294778D01*
X260787839Y1313644D01*
X261070753Y1369919D01*
X261343902Y1462641D01*
X261602611Y1590222D01*
X261842454Y1750480D01*
X262059327Y1940673D01*
X262249520Y2157546D01*
X262409778Y2397389D01*
X262537359Y2656098D01*
X262630081Y2929247D01*
X262686356Y3212161D01*
X262705222Y3500000D01*
X262686356Y3787839D01*
X262630081Y4070753D01*
X262537359Y4343902D01*
X262409778Y4602611D01*
X262249520Y4842454D01*
X262222757Y4872971D01*
X262060923Y5057507D01*
X262059327Y5059327D01*
X262024780Y5089624D01*
X261844270Y5247928D01*
X261844264Y5247933D01*
X261842454Y5249520D01*
X261840451Y5250859D01*
X261840445Y5250863D01*
X261604624Y5408433D01*
X261604623Y5408434D01*
X261602611Y5409778D01*
X261600449Y5410844D01*
X261600439Y5410850D01*
X261346072Y5536289D01*
X261346070Y5536290D01*
X261343902Y5537359D01*
X261341615Y5538136D01*
X261341611Y5538137D01*
X261073040Y5629305D01*
X261073035Y5629307D01*
X261070753Y5630081D01*
X261047288Y5634749D01*
X260790208Y5685885D01*
X260790204Y5685886D01*
X260787839Y5686356D01*
X260785435Y5686514D01*
X260785432Y5686514D01*
X260502411Y5705064D01*
X260500000Y5705222D01*
X260497589Y5705064D01*
X260214567Y5686514D01*
X260214562Y5686514D01*
X260212161Y5686356D01*
X260209797Y5685886D01*
X260209791Y5685885D01*
X259931619Y5630553D01*
X259931616Y5630553D01*
X259929247Y5630081D01*
X259926968Y5629308D01*
X259926959Y5629305D01*
X259658388Y5538137D01*
X259658379Y5538134D01*
X259656098Y5537359D01*
X259653934Y5536293D01*
X259653927Y5536289D01*
X259399560Y5410850D01*
X259399543Y5410841D01*
X259397389Y5409778D01*
X259395382Y5408438D01*
X259395375Y5408433D01*
X259159554Y5250863D01*
X259159540Y5250853D01*
X259157546Y5249520D01*
X259155742Y5247939D01*
X259155729Y5247928D01*
X258942493Y5060924D01*
X258942485Y5060917D01*
X258940673Y5059327D01*
X258939083Y5057515D01*
X258939076Y5057507D01*
X258752072Y4844271D01*
X258752061Y4844258D01*
X258750480Y4842454D01*
X258749147Y4840460D01*
X258749137Y4840446D01*
X258591567Y4604625D01*
X258591562Y4604618D01*
X258590222Y4602611D01*
X258589159Y4600457D01*
X258589150Y4600440D01*
X258463711Y4346073D01*
X258463707Y4346066D01*
X258462641Y4343902D01*
X258461866Y4341621D01*
X258461863Y4341612D01*
X258370695Y4073041D01*
X258370692Y4073032D01*
X258369919Y4070753D01*
X258369447Y4068384D01*
X258369447Y4068381D01*
X258319353Y3816539D01*
X258313644Y3787839D01*
X258294778Y3500000D01*
X178203341Y3500000D01*
X178205222Y3528700D01*
X178186356Y3816539D01*
X178130081Y4099453D01*
X178037359Y4372602D01*
X177925002Y4600440D01*
X177910849Y4629140D01*
X177910846Y4629145D01*
X177909778Y4631311D01*
X177830868Y4749407D01*
X177750862Y4869146D01*
X177750859Y4869149D01*
X177749520Y4871154D01*
X177634631Y5002159D01*
X177560923Y5086207D01*
X177559327Y5088027D01*
X177557506Y5089624D01*
X177355542Y5266743D01*
X227852004Y5266743D01*
X227852061Y5252702D01*
X227852179Y5252419D01*
X227852221Y5252316D01*
X227862727Y5241864D01*
X227862702Y5241840D01*
X227862864Y5241735D01*
X228091891Y5012792D01*
X228092106Y5012471D01*
X228102310Y5002317D01*
X228102411Y5002276D01*
X228102594Y5002200D01*
X228102695Y5002158D01*
X228102697Y5002159D01*
X228117323Y5002152D01*
X228117569Y5002200D01*
X237382423Y5002200D01*
X237382668Y5002152D01*
X237397294Y5002159D01*
X237397297Y5002158D01*
X237397300Y5002160D01*
X237397303Y5002160D01*
X237410618Y5007569D01*
X237411185Y5007949D01*
X237412219Y5008381D01*
X237412996Y5013467D01*
X237425598Y5030284D01*
X237637089Y5241685D01*
X237637250Y5241789D01*
X237637227Y5241813D01*
X237647782Y5252316D01*
X237647786Y5252317D01*
X237647903Y5252601D01*
X237647903Y5252602D01*
X237647944Y5252700D01*
X237647942Y5252703D01*
X237647906Y5267650D01*
X237647939Y5267651D01*
X237647902Y5267846D01*
X237647902Y6414344D01*
X239599433Y6414344D01*
X239599459Y6400000D01*
X239599500Y6399901D01*
X239599616Y6399618D01*
X239599617Y6399617D01*
X239600000Y6399459D01*
X239614660Y6399469D01*
X239614817Y6399500D01*
X258985183Y6399500D01*
X258985339Y6399469D01*
X258999999Y6399459D01*
X258999999Y6399460D01*
X259000000Y6399459D01*
X259000383Y6399617D01*
X259000500Y6399901D01*
X259000541Y6400000D01*
X259000540Y6400002D01*
X259000541Y6400002D01*
X259000566Y6414344D01*
X259000500Y6414682D01*
X259000500Y25685184D01*
X259000531Y25685339D01*
X259000541Y25700000D01*
X259000383Y25700383D01*
X259000381Y25700384D01*
X259000099Y25700500D01*
X259000000Y25700541D01*
X258999999Y25700541D01*
X258985390Y25700541D01*
X258985184Y25700500D01*
X239614816Y25700500D01*
X239614610Y25700541D01*
X239600000Y25700541D01*
X239599901Y25700500D01*
X239599617Y25700384D01*
X239599458Y25700000D01*
X239599468Y25685339D01*
X239599500Y25685184D01*
X239599500Y6414682D01*
X239599433Y6414344D01*
X237647902Y6414344D01*
X237647902Y14740229D01*
X237647944Y14747300D01*
X237647903Y14747400D01*
X237647786Y14747684D01*
X237637613Y14757890D01*
X237637318Y14758088D01*
X237408234Y14987074D01*
X237408135Y14987227D01*
X237408117Y14987208D01*
X237397680Y14997684D01*
X237397543Y14997740D01*
X237397297Y14997843D01*
X237382628Y14997842D01*
X237382422Y14997800D01*
X228117569Y14997800D01*
X228117418Y14997831D01*
X228102694Y14997843D01*
X228102450Y14997741D01*
X228102312Y14997684D01*
X228092145Y14987540D01*
X228091988Y14987307D01*
X227862627Y14758030D01*
X227862446Y14757909D01*
X227852219Y14747682D01*
X227852062Y14747306D01*
X227852028Y14732995D01*
X227852103Y14732620D01*
X227852103Y5267249D01*
X227852004Y5266743D01*
X177355542Y5266743D01*
X177344270Y5276628D01*
X177344264Y5276633D01*
X177342454Y5278220D01*
X177340451Y5279559D01*
X177340445Y5279563D01*
X177104624Y5437133D01*
X177104623Y5437134D01*
X177102611Y5438478D01*
X177100449Y5439544D01*
X177100439Y5439550D01*
X176846072Y5564989D01*
X176846070Y5564990D01*
X176843902Y5566059D01*
X176841615Y5566836D01*
X176841611Y5566837D01*
X176573040Y5658005D01*
X176573035Y5658007D01*
X176570753Y5658781D01*
X176431330Y5686514D01*
X176290208Y5714585D01*
X176290204Y5714586D01*
X176287839Y5715056D01*
X176285435Y5715214D01*
X176285432Y5715214D01*
X176002411Y5733764D01*
X176000000Y5733922D01*
X175997589Y5733764D01*
X175714567Y5715214D01*
X175714562Y5715214D01*
X175712161Y5715056D01*
X175709797Y5714586D01*
X175709791Y5714585D01*
X175431619Y5659253D01*
X175431616Y5659253D01*
X175429247Y5658781D01*
X175426968Y5658008D01*
X175426959Y5658005D01*
X175158388Y5566837D01*
X175158379Y5566834D01*
X175156098Y5566059D01*
X175153934Y5564993D01*
X175153927Y5564989D01*
X174899560Y5439550D01*
X174899543Y5439541D01*
X174897389Y5438478D01*
X174895382Y5437138D01*
X174895375Y5437133D01*
X174659554Y5279563D01*
X174659540Y5279553D01*
X174657546Y5278220D01*
X174655742Y5276639D01*
X174655729Y5276628D01*
X174442493Y5089624D01*
X174442485Y5089617D01*
X174440673Y5088027D01*
X174439083Y5086215D01*
X174439076Y5086207D01*
X174252072Y4872971D01*
X174252061Y4872958D01*
X174250480Y4871154D01*
X174249147Y4869160D01*
X174249137Y4869146D01*
X174091567Y4633325D01*
X174091562Y4633318D01*
X174090222Y4631311D01*
X174089159Y4629157D01*
X174089150Y4629140D01*
X173963711Y4374773D01*
X173963707Y4374766D01*
X173962641Y4372602D01*
X173961866Y4370321D01*
X173961863Y4370312D01*
X173870695Y4101741D01*
X173870692Y4101732D01*
X173869919Y4099453D01*
X173813644Y3816539D01*
X173794778Y3528700D01*
X90203341Y3528700D01*
X90186356Y3787839D01*
X90130081Y4070753D01*
X90037359Y4343902D01*
X89909778Y4602611D01*
X89749520Y4842454D01*
X89722757Y4872971D01*
X89560923Y5057507D01*
X89559327Y5059327D01*
X89524780Y5089624D01*
X89344270Y5247928D01*
X89344264Y5247933D01*
X89342454Y5249520D01*
X89340451Y5250859D01*
X89340445Y5250863D01*
X89104624Y5408433D01*
X89104623Y5408434D01*
X89102611Y5409778D01*
X89100449Y5410844D01*
X89100439Y5410850D01*
X88846072Y5536289D01*
X88846070Y5536290D01*
X88843902Y5537359D01*
X88841615Y5538136D01*
X88841611Y5538137D01*
X88573040Y5629305D01*
X88573035Y5629307D01*
X88570753Y5630081D01*
X88547288Y5634749D01*
X88290208Y5685885D01*
X88290204Y5685886D01*
X88287839Y5686356D01*
X88285435Y5686514D01*
X88285432Y5686514D01*
X88002411Y5705064D01*
X88000000Y5705222D01*
X87997589Y5705064D01*
X87714567Y5686514D01*
X87714562Y5686514D01*
X87712161Y5686356D01*
X87709797Y5685886D01*
X87709791Y5685885D01*
X87431619Y5630553D01*
X87431616Y5630553D01*
X87429247Y5630081D01*
X87426968Y5629308D01*
X87426959Y5629305D01*
X87158388Y5538137D01*
X87158379Y5538134D01*
X87156098Y5537359D01*
X87153934Y5536293D01*
X87153927Y5536289D01*
X86899560Y5410850D01*
X86899543Y5410841D01*
X86897389Y5409778D01*
X86895382Y5408438D01*
X86895375Y5408433D01*
X86659554Y5250863D01*
X86659540Y5250853D01*
X86657546Y5249520D01*
X86655742Y5247939D01*
X86655729Y5247928D01*
X86442493Y5060924D01*
X86442485Y5060917D01*
X86440673Y5059327D01*
X86439083Y5057515D01*
X86439076Y5057507D01*
X86252072Y4844271D01*
X86252061Y4844258D01*
X86250480Y4842454D01*
X86249147Y4840460D01*
X86249137Y4840446D01*
X86091567Y4604625D01*
X86091562Y4604618D01*
X86090222Y4602611D01*
X86089159Y4600457D01*
X86089150Y4600440D01*
X85963711Y4346073D01*
X85963707Y4346066D01*
X85962641Y4343902D01*
X85961866Y4341621D01*
X85961863Y4341612D01*
X85870695Y4073041D01*
X85870692Y4073032D01*
X85869919Y4070753D01*
X85869447Y4068384D01*
X85869447Y4068381D01*
X85819353Y3816539D01*
X85813644Y3787839D01*
X85794778Y3500000D01*
X5705222Y3500000D01*
X5686356Y3787839D01*
X5630081Y4070753D01*
X5537359Y4343902D01*
X5409778Y4602611D01*
X5249520Y4842454D01*
X5222757Y4872971D01*
X5060923Y5057507D01*
X5059327Y5059327D01*
X5024780Y5089624D01*
X4844270Y5247928D01*
X4844264Y5247933D01*
X4842454Y5249520D01*
X4840451Y5250859D01*
X4840445Y5250863D01*
X4604624Y5408433D01*
X4604623Y5408434D01*
X4602611Y5409778D01*
X4600449Y5410844D01*
X4600439Y5410850D01*
X4346072Y5536289D01*
X4346070Y5536290D01*
X4343902Y5537359D01*
X4341615Y5538136D01*
X4341611Y5538137D01*
X4073040Y5629305D01*
X4073035Y5629307D01*
X4070753Y5630081D01*
X4047288Y5634749D01*
X3790208Y5685885D01*
X3790204Y5685886D01*
X3787839Y5686356D01*
X3785435Y5686514D01*
X3785432Y5686514D01*
X3502411Y5705064D01*
X3500000Y5705222D01*
X3497589Y5705064D01*
X3214567Y5686514D01*
X3214562Y5686514D01*
X3212161Y5686356D01*
X3209797Y5685886D01*
X3209791Y5685885D01*
X2931619Y5630553D01*
X2931616Y5630553D01*
X2929247Y5630081D01*
X2926968Y5629308D01*
X2926959Y5629305D01*
X2658388Y5538137D01*
X2658379Y5538134D01*
X2656098Y5537359D01*
X2653934Y5536293D01*
X2653927Y5536289D01*
X2399560Y5410850D01*
X2399543Y5410841D01*
X2397389Y5409778D01*
X2395382Y5408438D01*
X2395375Y5408433D01*
X2159554Y5250863D01*
X2159540Y5250853D01*
X2157546Y5249520D01*
X2155742Y5247939D01*
X2155729Y5247928D01*
X1942493Y5060924D01*
X1942485Y5060917D01*
X1940673Y5059327D01*
X1939083Y5057515D01*
X1939076Y5057507D01*
X1752072Y4844271D01*
X1752061Y4844258D01*
X1750480Y4842454D01*
X1749147Y4840460D01*
X1749137Y4840446D01*
X1591567Y4604625D01*
X1591562Y4604618D01*
X1590222Y4602611D01*
X1589159Y4600457D01*
X1589150Y4600440D01*
X1463711Y4346073D01*
X1463707Y4346066D01*
X1462641Y4343902D01*
X1461866Y4341621D01*
X1461863Y4341612D01*
X1370695Y4073041D01*
X1370692Y4073032D01*
X1369919Y4070753D01*
X1369447Y4068384D01*
X1369447Y4068381D01*
X1319353Y3816539D01*
X1313644Y3787839D01*
X1294778Y3500000D01*
X-2070Y3500000D01*
X-2070Y23949176D01*
X77617100Y23949176D01*
X77629569Y23870380D01*
X77636145Y23857453D01*
X77642769Y23838322D01*
X77644130Y23831471D01*
X77654488Y23821394D01*
X77665738Y23799278D01*
X77665740Y23799276D01*
X77683681Y23781303D01*
X77683814Y23781106D01*
X77690542Y23774379D01*
X77699790Y23763100D01*
X77712522Y23744004D01*
X77728311Y23736612D01*
X82948558Y18516707D01*
X82948775Y18516241D01*
X82968706Y18496422D01*
X82972024Y18492900D01*
X82995162Y18466668D01*
X83095585Y18349707D01*
X83100887Y18342734D01*
X83142027Y18281389D01*
X83143611Y18278923D01*
X83203944Y18180767D01*
X83207252Y18174782D01*
X83242773Y18102849D01*
X83244790Y18098400D01*
X83287026Y17996423D01*
X83288744Y17991855D01*
X83314494Y17915841D01*
X83316383Y17909279D01*
X83343115Y17797219D01*
X83343739Y17794354D01*
X83357990Y17722031D01*
X83359177Y17713277D01*
X83371533Y17549055D01*
X83372906Y17527098D01*
X83373049Y17522527D01*
X83373049Y13091911D01*
X83372938Y13091607D01*
X83372965Y13068020D01*
X83372881Y13067791D01*
X83372968Y13065655D01*
X83373116Y12935948D01*
X83395849Y12778997D01*
X83396380Y12774260D01*
X83398835Y12743406D01*
X83400042Y12741885D01*
X83403077Y12729086D01*
X83409027Y12688011D01*
X83409028Y12688007D01*
X83464954Y12498113D01*
X83465908Y12494549D01*
X83468926Y12482027D01*
X83471863Y12474657D01*
X83472692Y12471841D01*
X83479804Y12447695D01*
X83584013Y12219876D01*
X83719538Y12009176D01*
X83883629Y11819874D01*
X84072955Y11655810D01*
X84283673Y11520314D01*
X84511507Y11416138D01*
X84511508Y11416138D01*
X84511512Y11416136D01*
X84538469Y11408201D01*
X84540806Y11406478D01*
X84558376Y11402246D01*
X84561934Y11401294D01*
X84637802Y11378961D01*
X84751835Y11345393D01*
X84792951Y11339444D01*
X84799655Y11335845D01*
X84837985Y11332776D01*
X84842678Y11332249D01*
X84999771Y11309519D01*
X85000722Y11309519D01*
X85110029Y11309409D01*
X85110580Y11309299D01*
X85124901Y11309299D01*
X89986738Y11309299D01*
X90012278Y11304752D01*
X98951041Y8017473D01*
X98989708Y7984808D01*
X98999499Y7948022D01*
X98999500Y6414682D01*
X98999433Y6414344D01*
X98999459Y6400000D01*
X98999500Y6399901D01*
X98999616Y6399618D01*
X98999617Y6399617D01*
X99000000Y6399459D01*
X99014660Y6399469D01*
X99014817Y6399500D01*
X159785183Y6399500D01*
X159785339Y6399469D01*
X159799999Y6399459D01*
X159799999Y6399460D01*
X159800000Y6399459D01*
X159800383Y6399617D01*
X159800500Y6399901D01*
X159800541Y6400000D01*
X159800540Y6400002D01*
X159800541Y6400002D01*
X159800566Y6414344D01*
X159800500Y6414682D01*
X159800500Y13939610D01*
X171546437Y13939610D01*
X171546612Y13937826D01*
X171546613Y13937811D01*
X171565955Y13740887D01*
X171566194Y13737771D01*
X171567314Y13717661D01*
X171569228Y13707561D01*
X171574109Y13657866D01*
X171574110Y13657854D01*
X171574287Y13656060D01*
X171574641Y13654280D01*
X171574642Y13654274D01*
X171612272Y13465094D01*
X171629871Y13376621D01*
X171712652Y13103997D01*
X171713347Y13102322D01*
X171713348Y13102319D01*
X171821131Y12842506D01*
X171821136Y12842494D01*
X171821827Y12840830D01*
X171822683Y12839232D01*
X171888835Y12715712D01*
X171956340Y12589668D01*
X171957351Y12588158D01*
X171957355Y12588152D01*
X172035255Y12471841D01*
X172114888Y12352943D01*
X172116033Y12351551D01*
X172116041Y12351541D01*
X172147784Y12312970D01*
X172148959Y12309644D01*
X172167006Y12289508D01*
X172169040Y12287141D01*
X172204904Y12243561D01*
X172295935Y12132947D01*
X172297212Y12131674D01*
X172297220Y12131665D01*
X172313861Y12115074D01*
X172396023Y12033157D01*
X172396459Y12032720D01*
X172396459Y12032719D01*
X172396812Y12032365D01*
X172399471Y12029699D01*
X172425507Y12003569D01*
X172496081Y11932742D01*
X172496087Y11932737D01*
X172497367Y11931452D01*
X172651483Y11804555D01*
X172653836Y11802532D01*
X172668857Y11789061D01*
X172677354Y11783253D01*
X172717321Y11750345D01*
X172718831Y11749334D01*
X172718838Y11749328D01*
X172952478Y11592775D01*
X172954017Y11591744D01*
X173205163Y11457189D01*
X173468323Y11347983D01*
X173740947Y11265184D01*
X174020392Y11209596D01*
X174071906Y11204539D01*
X174075095Y11203010D01*
X174102147Y11201504D01*
X174105233Y11201267D01*
X174303948Y11181757D01*
X174444313Y11181824D01*
X174477407Y11181824D01*
X174477567Y11181831D01*
X177508302Y11181831D01*
X177508473Y11181769D01*
X177536987Y11181826D01*
X177541822Y11181677D01*
X177577312Y11179425D01*
X177630703Y11175334D01*
X177730092Y11167717D01*
X177738745Y11166535D01*
X177812492Y11151969D01*
X177815322Y11151352D01*
X177926011Y11124908D01*
X177932561Y11123020D01*
X178009534Y11096942D01*
X178014091Y11095229D01*
X178114965Y11053471D01*
X178119370Y11051475D01*
X178192170Y11015560D01*
X178192251Y11015520D01*
X178198219Y11012226D01*
X178295248Y10952676D01*
X178297656Y10951131D01*
X178360049Y10909359D01*
X178360112Y10909317D01*
X178367091Y10904021D01*
X178482890Y10804805D01*
X178486326Y10801782D01*
X178510280Y10780705D01*
X178513710Y10777482D01*
X178536627Y10754500D01*
X178537052Y10754149D01*
X181384929Y7906274D01*
X181393237Y7888456D01*
X181415572Y7873597D01*
X181426760Y7864460D01*
X181446899Y7844435D01*
X181446903Y7844433D01*
X181446906Y7844430D01*
X181504354Y7811375D01*
X181568385Y7794261D01*
X181596764Y7794268D01*
X181611179Y7792852D01*
X181637887Y7787551D01*
X181655690Y7794259D01*
X181656393Y7794264D01*
X186496178Y7793927D01*
X186514729Y7787174D01*
X186541410Y7792494D01*
X186555902Y7793923D01*
X186559722Y7793923D01*
X186559818Y7793934D01*
X186584265Y7793944D01*
X186648335Y7811141D01*
X186705772Y7844333D01*
X186705773Y7844335D01*
X186708050Y7845650D01*
X186714657Y7846818D01*
X186720680Y7855862D01*
X186741136Y7876358D01*
X186752343Y7883854D01*
X186753756Y7888899D01*
X186768590Y7918115D01*
X186778827Y7927690D01*
X186780288Y7935054D01*
X186786891Y7954162D01*
X186793480Y7967138D01*
X186805916Y8045912D01*
X186793473Y8124684D01*
X186789815Y8131887D01*
X186786886Y8137655D01*
X186780279Y8156763D01*
X186778916Y8163632D01*
X186768580Y8173700D01*
X186768576Y8173707D01*
X186757362Y8195789D01*
X186732569Y8220671D01*
X186723393Y8231892D01*
X186710538Y8251199D01*
X186694558Y8258688D01*
X181477806Y13475101D01*
X181477741Y13475239D01*
X181454396Y13498519D01*
X181451129Y13501993D01*
X181438317Y13516532D01*
X181427505Y13528801D01*
X181327868Y13644900D01*
X181322560Y13651886D01*
X181286211Y13706129D01*
X181280482Y13714678D01*
X181278928Y13717098D01*
X181219588Y13813711D01*
X181216297Y13819672D01*
X181180190Y13892834D01*
X181178180Y13897271D01*
X181178046Y13897595D01*
X181160655Y13939610D01*
X189757042Y13939610D01*
X189757219Y13937811D01*
X189757219Y13937805D01*
X189776547Y13740899D01*
X189776786Y13737790D01*
X189777906Y13717698D01*
X189779817Y13707594D01*
X189784876Y13656058D01*
X189785231Y13654274D01*
X189785232Y13654268D01*
X189822889Y13464911D01*
X189840449Y13376615D01*
X189840973Y13374889D01*
X189840977Y13374875D01*
X189922692Y13105736D01*
X189922695Y13105726D01*
X189923223Y13103989D01*
X189923916Y13102319D01*
X189923921Y13102305D01*
X190031697Y12842504D01*
X190032396Y12840820D01*
X190166909Y12589657D01*
X190325461Y12352934D01*
X190340874Y12334207D01*
X190358364Y12312955D01*
X190359539Y12309627D01*
X190377607Y12289471D01*
X190379638Y12287107D01*
X190506516Y12132944D01*
X190507799Y12131665D01*
X190507812Y12131651D01*
X190598735Y12041007D01*
X190607328Y12032439D01*
X190636117Y12003569D01*
X190706670Y11932763D01*
X190706676Y11932757D01*
X190707966Y11931463D01*
X190862108Y11804543D01*
X190864461Y11802520D01*
X190879455Y11789074D01*
X190887939Y11783274D01*
X190927917Y11750356D01*
X191164612Y11591756D01*
X191415756Y11457200D01*
X191678915Y11347993D01*
X191680661Y11347463D01*
X191680663Y11347462D01*
X191707063Y11339444D01*
X191951537Y11265194D01*
X192230980Y11209605D01*
X192282498Y11204547D01*
X192285688Y11203018D01*
X192312741Y11201511D01*
X192315842Y11201274D01*
X192514535Y11181765D01*
X192654767Y11181831D01*
X192656895Y11181831D01*
X192656994Y11181831D01*
X192657494Y11181831D01*
X195718892Y11181831D01*
X195719060Y11181770D01*
X195747577Y11181827D01*
X195752412Y11181678D01*
X195787792Y11179433D01*
X195825367Y11176553D01*
X195940755Y11167706D01*
X195949377Y11166529D01*
X196022959Y11151996D01*
X196025648Y11151409D01*
X196136709Y11124878D01*
X196143233Y11122997D01*
X196220016Y11096984D01*
X196224517Y11095293D01*
X196325695Y11053410D01*
X196330061Y11051431D01*
X196402772Y11015560D01*
X196408740Y11012266D01*
X196505960Y10952599D01*
X196508419Y10951022D01*
X196570656Y10909356D01*
X196577629Y10904064D01*
X196630363Y10858882D01*
X196694118Y10804255D01*
X196720764Y10780810D01*
X196724197Y10777589D01*
X199594886Y7906902D01*
X199603323Y7888807D01*
X199626026Y7873692D01*
X199637223Y7864539D01*
X199657460Y7844390D01*
X199714925Y7811347D01*
X199778969Y7794251D01*
X199807346Y7794267D01*
X199821766Y7792856D01*
X199848508Y7787557D01*
X199866281Y7794260D01*
X199867004Y7794265D01*
X204706664Y7793929D01*
X204725237Y7787168D01*
X204752009Y7792499D01*
X204766449Y7793924D01*
X204794852Y7793928D01*
X204858929Y7811118D01*
X204916363Y7844323D01*
X204916364Y7844325D01*
X204918647Y7845644D01*
X204925234Y7846810D01*
X204931269Y7855871D01*
X204951707Y7876353D01*
X204962941Y7883871D01*
X204964356Y7888928D01*
X204979185Y7918132D01*
X204989419Y7927704D01*
X204990879Y7935062D01*
X204997483Y7954169D01*
X205004068Y7967137D01*
X205016505Y8045912D01*
X205004061Y8124685D01*
X204997473Y8137657D01*
X204990868Y8156762D01*
X204989506Y8163627D01*
X204979170Y8173694D01*
X204967948Y8195790D01*
X204967946Y8195792D01*
X204967945Y8195794D01*
X204950213Y8213589D01*
X204950141Y8213697D01*
X204943234Y8220604D01*
X204933964Y8231919D01*
X204921159Y8251151D01*
X204905208Y8258627D01*
X199698584Y13464912D01*
X199698499Y13465094D01*
X199664981Y13498518D01*
X199661709Y13501999D01*
X199637910Y13529011D01*
X199538556Y13644779D01*
X199533250Y13651762D01*
X199490795Y13715126D01*
X199489217Y13717585D01*
X199430314Y13813497D01*
X199427015Y13819471D01*
X199405852Y13862358D01*
X199390655Y13893157D01*
X199388644Y13897595D01*
X199371998Y13937811D01*
X199347295Y13997495D01*
X199345579Y14002062D01*
X199336418Y14029118D01*
X199319221Y14079905D01*
X199317347Y14086417D01*
X199291220Y14195963D01*
X199290619Y14198723D01*
X199275852Y14273663D01*
X199274674Y14282326D01*
X199263326Y14431688D01*
X199260861Y14470997D01*
X199260720Y14475829D01*
X199260793Y14493884D01*
X199260708Y14494185D01*
X199260708Y14997843D01*
X199260708Y18902690D01*
X199260769Y18902859D01*
X199260769Y18902967D01*
X199260824Y18903123D01*
X199260797Y18926583D01*
X199260891Y18926845D01*
X199260794Y18929274D01*
X199260788Y18934023D01*
X199260640Y19059055D01*
X199237894Y19216044D01*
X199237363Y19220783D01*
X199234909Y19251608D01*
X199233699Y19253134D01*
X199230670Y19265908D01*
X199224719Y19306985D01*
X199224718Y19306990D01*
X199224718Y19306991D01*
X199168780Y19496890D01*
X199167825Y19500459D01*
X199164814Y19512948D01*
X199161875Y19520333D01*
X199153945Y19547253D01*
X199153933Y19547295D01*
X199049719Y19775109D01*
X198914192Y19985803D01*
X198750103Y20175102D01*
X198750100Y20175104D01*
X198750099Y20175106D01*
X198560782Y20339164D01*
X198500503Y20377925D01*
X198350066Y20474661D01*
X198122237Y20578842D01*
X198095270Y20586781D01*
X198092936Y20588503D01*
X198075405Y20592726D01*
X198071851Y20593676D01*
X197882029Y20649560D01*
X197881914Y20649594D01*
X197840822Y20655541D01*
X197834074Y20659165D01*
X197795710Y20662224D01*
X197790993Y20662753D01*
X197740803Y20670018D01*
X197633982Y20685478D01*
X197508821Y20685610D01*
X197508723Y20685610D01*
X197478966Y20685670D01*
X197477614Y20685610D01*
X191539851Y20685610D01*
X191539682Y20685672D01*
X191508741Y20685610D01*
X191494333Y20685610D01*
X191494097Y20685564D01*
X191383799Y20685447D01*
X191383496Y20685446D01*
X191350570Y20680680D01*
X191226495Y20662720D01*
X191221787Y20662192D01*
X191190984Y20659732D01*
X191189494Y20658548D01*
X191176685Y20655511D01*
X191135591Y20649562D01*
X190945712Y20593653D01*
X190942147Y20592700D01*
X190929644Y20589687D01*
X190922244Y20586743D01*
X190895295Y20578808D01*
X190667491Y20474622D01*
X190456812Y20339124D01*
X190267522Y20175056D01*
X190103471Y19985754D01*
X189967987Y19775062D01*
X189863824Y19547259D01*
X189855889Y19520301D01*
X189854165Y19517964D01*
X189849932Y19500389D01*
X189848978Y19496822D01*
X189793089Y19306955D01*
X189787145Y19265871D01*
X189783520Y19259121D01*
X189780462Y19220739D01*
X189779934Y19216022D01*
X189757222Y19059040D01*
X189757101Y18933895D01*
X189757101Y14068768D01*
X189757042Y13941424D01*
X189757042Y13941407D01*
X189757042Y13939610D01*
X181160655Y13939610D01*
X181136557Y13997826D01*
X181134857Y14002350D01*
X181108683Y14079653D01*
X181106801Y14086191D01*
X181080491Y14196510D01*
X181079894Y14199255D01*
X181065274Y14273460D01*
X181064092Y14282145D01*
X181052629Y14433090D01*
X181050274Y14470677D01*
X181050134Y14475498D01*
X181050232Y14499982D01*
X181050119Y14500293D01*
X181050119Y18902686D01*
X181050180Y18902855D01*
X181050180Y18902980D01*
X181050229Y18903117D01*
X181050224Y18903116D01*
X181050195Y18927785D01*
X181050252Y18927945D01*
X181050193Y18929421D01*
X181050188Y18933795D01*
X181050189Y18933795D01*
X181050045Y19059055D01*
X181027304Y19216064D01*
X181026778Y19220761D01*
X181024323Y19251604D01*
X181023115Y19253127D01*
X181020085Y19265908D01*
X181014135Y19306990D01*
X180958205Y19496894D01*
X180957250Y19500461D01*
X180954239Y19512950D01*
X180951299Y19520340D01*
X180943358Y19547305D01*
X180839149Y19775124D01*
X180703625Y19985823D01*
X180539600Y20175051D01*
X180539538Y20175123D01*
X180539535Y20175126D01*
X180350210Y20339190D01*
X180139492Y20474685D01*
X180139490Y20474686D01*
X180139487Y20474688D01*
X179911660Y20578862D01*
X179884693Y20586800D01*
X179882353Y20588526D01*
X179864775Y20592760D01*
X179861209Y20593714D01*
X179671331Y20649608D01*
X179630239Y20655554D01*
X179623490Y20659178D01*
X179585118Y20662236D01*
X179580400Y20662765D01*
X179423396Y20685483D01*
X179298232Y20685609D01*
X173329267Y20685609D01*
X173329095Y20685672D01*
X173298657Y20685611D01*
X173298157Y20685610D01*
X173297696Y20685609D01*
X173283726Y20685609D01*
X173283583Y20685581D01*
X173268066Y20685551D01*
X173267463Y20685533D01*
X173172911Y20685433D01*
X173166908Y20684564D01*
X173015893Y20662705D01*
X173011188Y20662177D01*
X172980386Y20659716D01*
X172978894Y20658531D01*
X172966096Y20655497D01*
X172925000Y20649548D01*
X172735153Y20593650D01*
X172731586Y20592696D01*
X172719057Y20589678D01*
X172711665Y20586735D01*
X172684746Y20578808D01*
X172684705Y20578796D01*
X172456909Y20474616D01*
X172246224Y20339114D01*
X172056940Y20175053D01*
X171892886Y19985750D01*
X171757403Y19775059D01*
X171653239Y19547256D01*
X171645304Y19520299D01*
X171643582Y19517965D01*
X171639351Y19500400D01*
X171638397Y19496836D01*
X171582504Y19306954D01*
X171576560Y19265870D01*
X171572935Y19259120D01*
X171569877Y19220738D01*
X171569349Y19216020D01*
X171546637Y19059039D01*
X171546516Y18933895D01*
X171546516Y14112750D01*
X171546501Y14112712D01*
X171546506Y14112711D01*
X171546437Y13941422D01*
X171546437Y13941408D01*
X171546437Y13939610D01*
X159800500Y13939610D01*
X159800500Y25585184D01*
X159800531Y25585339D01*
X159800541Y25600000D01*
X159800383Y25600383D01*
X159800381Y25600384D01*
X159800099Y25600500D01*
X159800000Y25600541D01*
X159799999Y25600541D01*
X159785390Y25600541D01*
X159785184Y25600500D01*
X99014816Y25600500D01*
X99014610Y25600541D01*
X99000000Y25600541D01*
X98999901Y25600500D01*
X98999617Y25600384D01*
X98999458Y25600000D01*
X98999468Y25585339D01*
X98999500Y25585184D01*
X98999500Y24052696D01*
X98982187Y24005130D01*
X98950147Y23982921D01*
X91579784Y21379446D01*
X90039128Y20835231D01*
X89988640Y20817397D01*
X89963993Y20813172D01*
X86914865Y20813172D01*
X86914696Y20813234D01*
X86886179Y20813177D01*
X86881347Y20813325D01*
X86845926Y20815572D01*
X86693040Y20827293D01*
X86684359Y20828479D01*
X86610818Y20843005D01*
X86607964Y20843627D01*
X86497102Y20870111D01*
X86490550Y20871999D01*
X86413697Y20898037D01*
X86409140Y20899751D01*
X86308159Y20941552D01*
X86303723Y20943561D01*
X86230956Y20979459D01*
X86224987Y20982754D01*
X86127857Y21042367D01*
X86125398Y21043944D01*
X86063082Y21085663D01*
X86056101Y21090961D01*
X85939811Y21190600D01*
X85912937Y21214246D01*
X85909515Y21217462D01*
X85891538Y21235491D01*
X85889195Y21237649D01*
X83038204Y24088810D01*
X83029933Y24106547D01*
X83007795Y24121274D01*
X82996456Y24130560D01*
X82989577Y24137439D01*
X82989158Y24137719D01*
X82976259Y24150569D01*
X82918815Y24183624D01*
X82886798Y24192182D01*
X82854783Y24200740D01*
X82854781Y24200740D01*
X82826408Y24200736D01*
X82811988Y24202153D01*
X82785284Y24207455D01*
X82767469Y24200744D01*
X82766638Y24200739D01*
X77927292Y24201076D01*
X77908641Y24207866D01*
X77881802Y24202519D01*
X77867377Y24201093D01*
X77838906Y24201081D01*
X77774832Y24183878D01*
X77715821Y24149765D01*
X77708665Y24148500D01*
X77702460Y24139202D01*
X77682005Y24118742D01*
X77671058Y24111433D01*
X77669918Y24107363D01*
X77654462Y24076964D01*
X77644206Y24067384D01*
X77642747Y24060031D01*
X77636127Y24040902D01*
X77629554Y24027976D01*
X77617100Y23949176D01*
X-2070Y23949176D01*
X-2070Y28500000D01*
X1294778Y28500000D01*
X1313644Y28212161D01*
X1369919Y27929247D01*
X1462641Y27656098D01*
X1463710Y27653930D01*
X1463711Y27653928D01*
X1589150Y27399561D01*
X1589156Y27399551D01*
X1590222Y27397389D01*
X1591566Y27395377D01*
X1591567Y27395376D01*
X1749137Y27159555D01*
X1749141Y27159549D01*
X1750480Y27157546D01*
X1752067Y27155736D01*
X1752072Y27155730D01*
X1939076Y26942494D01*
X1940673Y26940673D01*
X1942493Y26939077D01*
X2155729Y26752073D01*
X2155733Y26752070D01*
X2157546Y26750480D01*
X2397389Y26590222D01*
X2399555Y26589154D01*
X2399560Y26589151D01*
X2526743Y26526432D01*
X2656098Y26462641D01*
X2929247Y26369919D01*
X3212161Y26313644D01*
X3500000Y26294778D01*
X3787839Y26313644D01*
X4070753Y26369919D01*
X4343902Y26462641D01*
X4602611Y26590222D01*
X4842454Y26750480D01*
X5059327Y26940673D01*
X5249520Y27157546D01*
X5409778Y27397389D01*
X5537359Y27656098D01*
X5630081Y27929247D01*
X5686356Y28212161D01*
X5705222Y28500000D01*
X85794778Y28500000D01*
X85813644Y28212161D01*
X85869919Y27929247D01*
X85962641Y27656098D01*
X85963710Y27653930D01*
X85963711Y27653928D01*
X86089150Y27399561D01*
X86089156Y27399551D01*
X86090222Y27397389D01*
X86091566Y27395377D01*
X86091567Y27395376D01*
X86249137Y27159555D01*
X86249141Y27159549D01*
X86250480Y27157546D01*
X86252067Y27155736D01*
X86252072Y27155730D01*
X86439076Y26942494D01*
X86440673Y26940673D01*
X86442493Y26939077D01*
X86655729Y26752073D01*
X86655733Y26752070D01*
X86657546Y26750480D01*
X86897389Y26590222D01*
X86899555Y26589154D01*
X86899560Y26589151D01*
X87026743Y26526432D01*
X87156098Y26462641D01*
X87429247Y26369919D01*
X87712161Y26313644D01*
X88000000Y26294778D01*
X88287839Y26313644D01*
X88570753Y26369919D01*
X88843902Y26462641D01*
X89102611Y26590222D01*
X89342454Y26750480D01*
X89559327Y26940673D01*
X89749520Y27157546D01*
X89909778Y27397389D01*
X90037359Y27656098D01*
X90130081Y27929247D01*
X90186356Y28212161D01*
X90205222Y28500000D01*
X173794778Y28500000D01*
X173813644Y28212161D01*
X173869919Y27929247D01*
X173962641Y27656098D01*
X173963710Y27653930D01*
X173963711Y27653928D01*
X174089150Y27399561D01*
X174089156Y27399551D01*
X174090222Y27397389D01*
X174091566Y27395377D01*
X174091567Y27395376D01*
X174249137Y27159555D01*
X174249141Y27159549D01*
X174250480Y27157546D01*
X174252067Y27155736D01*
X174252072Y27155730D01*
X174439076Y26942494D01*
X174440673Y26940673D01*
X174442493Y26939077D01*
X174655729Y26752073D01*
X174655733Y26752070D01*
X174657546Y26750480D01*
X174897389Y26590222D01*
X174899555Y26589154D01*
X174899560Y26589151D01*
X175026743Y26526432D01*
X175156098Y26462641D01*
X175429247Y26369919D01*
X175712161Y26313644D01*
X176000000Y26294778D01*
X176287839Y26313644D01*
X176570753Y26369919D01*
X176843902Y26462641D01*
X177102611Y26590222D01*
X177342454Y26750480D01*
X177559327Y26940673D01*
X177749520Y27157546D01*
X177909778Y27397389D01*
X178037359Y27656098D01*
X178130081Y27929247D01*
X178186356Y28212161D01*
X178205222Y28500000D01*
X258294778Y28500000D01*
X258313644Y28212161D01*
X258369919Y27929247D01*
X258462641Y27656098D01*
X258463710Y27653930D01*
X258463711Y27653928D01*
X258589150Y27399561D01*
X258589156Y27399551D01*
X258590222Y27397389D01*
X258591566Y27395377D01*
X258591567Y27395376D01*
X258749137Y27159555D01*
X258749141Y27159549D01*
X258750480Y27157546D01*
X258752067Y27155736D01*
X258752072Y27155730D01*
X258939076Y26942494D01*
X258940673Y26940673D01*
X258942493Y26939077D01*
X259155729Y26752073D01*
X259155733Y26752070D01*
X259157546Y26750480D01*
X259397389Y26590222D01*
X259399555Y26589154D01*
X259399560Y26589151D01*
X259526743Y26526432D01*
X259656098Y26462641D01*
X259929247Y26369919D01*
X260212161Y26313644D01*
X260500000Y26294778D01*
X260787839Y26313644D01*
X261070753Y26369919D01*
X261343902Y26462641D01*
X261602611Y26590222D01*
X261842454Y26750480D01*
X262059327Y26940673D01*
X262249520Y27157546D01*
X262409778Y27397389D01*
X262537359Y27656098D01*
X262630081Y27929247D01*
X262686356Y28212161D01*
X262705222Y28500000D01*
X262686356Y28787839D01*
X262630081Y29070753D01*
X262537359Y29343902D01*
X262473568Y29473257D01*
X262410849Y29600440D01*
X262410846Y29600445D01*
X262409778Y29602611D01*
X262306091Y29757790D01*
X262250862Y29840446D01*
X262250859Y29840449D01*
X262249520Y29842454D01*
X262227525Y29867534D01*
X262060923Y30057507D01*
X262059327Y30059327D01*
X262057210Y30061184D01*
X261844270Y30247928D01*
X261844264Y30247933D01*
X261842454Y30249520D01*
X261840451Y30250859D01*
X261840445Y30250863D01*
X261604624Y30408433D01*
X261604623Y30408434D01*
X261602611Y30409778D01*
X261600449Y30410844D01*
X261600439Y30410850D01*
X261346072Y30536289D01*
X261346070Y30536290D01*
X261343902Y30537359D01*
X261341615Y30538136D01*
X261341611Y30538137D01*
X261073040Y30629305D01*
X261073035Y30629307D01*
X261070753Y30630081D01*
X261047288Y30634749D01*
X260790208Y30685885D01*
X260790204Y30685886D01*
X260787839Y30686356D01*
X260785435Y30686514D01*
X260785432Y30686514D01*
X260502411Y30705064D01*
X260500000Y30705222D01*
X260497589Y30705064D01*
X260214567Y30686514D01*
X260214562Y30686514D01*
X260212161Y30686356D01*
X260209797Y30685886D01*
X260209791Y30685885D01*
X259931619Y30630553D01*
X259931616Y30630553D01*
X259929247Y30630081D01*
X259926968Y30629308D01*
X259926959Y30629305D01*
X259658388Y30538137D01*
X259658379Y30538134D01*
X259656098Y30537359D01*
X259653934Y30536293D01*
X259653927Y30536289D01*
X259399560Y30410850D01*
X259399543Y30410841D01*
X259397389Y30409778D01*
X259395382Y30408438D01*
X259395375Y30408433D01*
X259159554Y30250863D01*
X259159540Y30250853D01*
X259157546Y30249520D01*
X259155742Y30247939D01*
X259155729Y30247928D01*
X258942493Y30060924D01*
X258942485Y30060917D01*
X258940673Y30059327D01*
X258939083Y30057515D01*
X258939076Y30057507D01*
X258752072Y29844271D01*
X258752061Y29844258D01*
X258750480Y29842454D01*
X258749147Y29840460D01*
X258749137Y29840446D01*
X258591567Y29604625D01*
X258591562Y29604618D01*
X258590222Y29602611D01*
X258589159Y29600457D01*
X258589150Y29600440D01*
X258463711Y29346073D01*
X258463707Y29346066D01*
X258462641Y29343902D01*
X258461866Y29341621D01*
X258461863Y29341612D01*
X258370695Y29073041D01*
X258370692Y29073032D01*
X258369919Y29070753D01*
X258369447Y29068384D01*
X258369447Y29068381D01*
X258355354Y28997528D01*
X258313644Y28787839D01*
X258294778Y28500000D01*
X178205222Y28500000D01*
X178186356Y28787839D01*
X178130081Y29070753D01*
X178037359Y29343902D01*
X177973568Y29473257D01*
X177910849Y29600440D01*
X177910846Y29600445D01*
X177909778Y29602611D01*
X177806091Y29757790D01*
X177750862Y29840446D01*
X177750859Y29840449D01*
X177749520Y29842454D01*
X177727525Y29867534D01*
X177560923Y30057507D01*
X177559327Y30059327D01*
X177557210Y30061184D01*
X177344270Y30247928D01*
X177344264Y30247933D01*
X177342454Y30249520D01*
X177340451Y30250859D01*
X177340445Y30250863D01*
X177104624Y30408433D01*
X177104623Y30408434D01*
X177102611Y30409778D01*
X177100449Y30410844D01*
X177100439Y30410850D01*
X176846072Y30536289D01*
X176846070Y30536290D01*
X176843902Y30537359D01*
X176841615Y30538136D01*
X176841611Y30538137D01*
X176573040Y30629305D01*
X176573035Y30629307D01*
X176570753Y30630081D01*
X176547288Y30634749D01*
X176290208Y30685885D01*
X176290204Y30685886D01*
X176287839Y30686356D01*
X176285435Y30686514D01*
X176285432Y30686514D01*
X176002411Y30705064D01*
X176000000Y30705222D01*
X175997589Y30705064D01*
X175714567Y30686514D01*
X175714562Y30686514D01*
X175712161Y30686356D01*
X175709797Y30685886D01*
X175709791Y30685885D01*
X175431619Y30630553D01*
X175431616Y30630553D01*
X175429247Y30630081D01*
X175426968Y30629308D01*
X175426959Y30629305D01*
X175158388Y30538137D01*
X175158379Y30538134D01*
X175156098Y30537359D01*
X175153934Y30536293D01*
X175153927Y30536289D01*
X174899560Y30410850D01*
X174899543Y30410841D01*
X174897389Y30409778D01*
X174895382Y30408438D01*
X174895375Y30408433D01*
X174659554Y30250863D01*
X174659540Y30250853D01*
X174657546Y30249520D01*
X174655742Y30247939D01*
X174655729Y30247928D01*
X174442493Y30060924D01*
X174442485Y30060917D01*
X174440673Y30059327D01*
X174439083Y30057515D01*
X174439076Y30057507D01*
X174252072Y29844271D01*
X174252061Y29844258D01*
X174250480Y29842454D01*
X174249147Y29840460D01*
X174249137Y29840446D01*
X174091567Y29604625D01*
X174091562Y29604618D01*
X174090222Y29602611D01*
X174089159Y29600457D01*
X174089150Y29600440D01*
X173963711Y29346073D01*
X173963707Y29346066D01*
X173962641Y29343902D01*
X173961866Y29341621D01*
X173961863Y29341612D01*
X173870695Y29073041D01*
X173870692Y29073032D01*
X173869919Y29070753D01*
X173869447Y29068384D01*
X173869447Y29068381D01*
X173855354Y28997528D01*
X173813644Y28787839D01*
X173794778Y28500000D01*
X90205222Y28500000D01*
X90186356Y28787839D01*
X90130081Y29070753D01*
X90037359Y29343902D01*
X89973568Y29473257D01*
X89910849Y29600440D01*
X89910846Y29600445D01*
X89909778Y29602611D01*
X89806091Y29757790D01*
X89750862Y29840446D01*
X89750859Y29840449D01*
X89749520Y29842454D01*
X89727525Y29867534D01*
X89560923Y30057507D01*
X89559327Y30059327D01*
X89557210Y30061184D01*
X89344270Y30247928D01*
X89344264Y30247933D01*
X89342454Y30249520D01*
X89340451Y30250859D01*
X89340445Y30250863D01*
X89104624Y30408433D01*
X89104623Y30408434D01*
X89102611Y30409778D01*
X89100449Y30410844D01*
X89100439Y30410850D01*
X88846072Y30536289D01*
X88846070Y30536290D01*
X88843902Y30537359D01*
X88841615Y30538136D01*
X88841611Y30538137D01*
X88573040Y30629305D01*
X88573035Y30629307D01*
X88570753Y30630081D01*
X88547288Y30634749D01*
X88290208Y30685885D01*
X88290204Y30685886D01*
X88287839Y30686356D01*
X88285435Y30686514D01*
X88285432Y30686514D01*
X88002411Y30705064D01*
X88000000Y30705222D01*
X87997589Y30705064D01*
X87714567Y30686514D01*
X87714562Y30686514D01*
X87712161Y30686356D01*
X87709797Y30685886D01*
X87709791Y30685885D01*
X87431619Y30630553D01*
X87431616Y30630553D01*
X87429247Y30630081D01*
X87426968Y30629308D01*
X87426959Y30629305D01*
X87158388Y30538137D01*
X87158379Y30538134D01*
X87156098Y30537359D01*
X87153934Y30536293D01*
X87153927Y30536289D01*
X86899560Y30410850D01*
X86899543Y30410841D01*
X86897389Y30409778D01*
X86895382Y30408438D01*
X86895375Y30408433D01*
X86659554Y30250863D01*
X86659540Y30250853D01*
X86657546Y30249520D01*
X86655742Y30247939D01*
X86655729Y30247928D01*
X86442493Y30060924D01*
X86442485Y30060917D01*
X86440673Y30059327D01*
X86439083Y30057515D01*
X86439076Y30057507D01*
X86252072Y29844271D01*
X86252061Y29844258D01*
X86250480Y29842454D01*
X86249147Y29840460D01*
X86249137Y29840446D01*
X86091567Y29604625D01*
X86091562Y29604618D01*
X86090222Y29602611D01*
X86089159Y29600457D01*
X86089150Y29600440D01*
X85963711Y29346073D01*
X85963707Y29346066D01*
X85962641Y29343902D01*
X85961866Y29341621D01*
X85961863Y29341612D01*
X85870695Y29073041D01*
X85870692Y29073032D01*
X85869919Y29070753D01*
X85869447Y29068384D01*
X85869447Y29068381D01*
X85855354Y28997528D01*
X85813644Y28787839D01*
X85794778Y28500000D01*
X5705222Y28500000D01*
X5686356Y28787839D01*
X5630081Y29070753D01*
X5537359Y29343902D01*
X5473568Y29473257D01*
X5410849Y29600440D01*
X5410846Y29600445D01*
X5409778Y29602611D01*
X5306091Y29757790D01*
X5250862Y29840446D01*
X5250859Y29840449D01*
X5249520Y29842454D01*
X5227525Y29867534D01*
X5060923Y30057507D01*
X5059327Y30059327D01*
X5057210Y30061184D01*
X4844270Y30247928D01*
X4844264Y30247933D01*
X4842454Y30249520D01*
X4840451Y30250859D01*
X4840445Y30250863D01*
X4604624Y30408433D01*
X4604623Y30408434D01*
X4602611Y30409778D01*
X4600449Y30410844D01*
X4600439Y30410850D01*
X4346072Y30536289D01*
X4346070Y30536290D01*
X4343902Y30537359D01*
X4341615Y30538136D01*
X4341611Y30538137D01*
X4073040Y30629305D01*
X4073035Y30629307D01*
X4070753Y30630081D01*
X4047288Y30634749D01*
X3790208Y30685885D01*
X3790204Y30685886D01*
X3787839Y30686356D01*
X3785435Y30686514D01*
X3785432Y30686514D01*
X3502411Y30705064D01*
X3500000Y30705222D01*
X3497589Y30705064D01*
X3214567Y30686514D01*
X3214562Y30686514D01*
X3212161Y30686356D01*
X3209797Y30685886D01*
X3209791Y30685885D01*
X2931619Y30630553D01*
X2931616Y30630553D01*
X2929247Y30630081D01*
X2926968Y30629308D01*
X2926959Y30629305D01*
X2658388Y30538137D01*
X2658379Y30538134D01*
X2656098Y30537359D01*
X2653934Y30536293D01*
X2653927Y30536289D01*
X2399560Y30410850D01*
X2399543Y30410841D01*
X2397389Y30409778D01*
X2395382Y30408438D01*
X2395375Y30408433D01*
X2159554Y30250863D01*
X2159540Y30250853D01*
X2157546Y30249520D01*
X2155742Y30247939D01*
X2155729Y30247928D01*
X1942493Y30060924D01*
X1942485Y30060917D01*
X1940673Y30059327D01*
X1939083Y30057515D01*
X1939076Y30057507D01*
X1752072Y29844271D01*
X1752061Y29844258D01*
X1750480Y29842454D01*
X1749147Y29840460D01*
X1749137Y29840446D01*
X1591567Y29604625D01*
X1591562Y29604618D01*
X1590222Y29602611D01*
X1589159Y29600457D01*
X1589150Y29600440D01*
X1463711Y29346073D01*
X1463707Y29346066D01*
X1462641Y29343902D01*
X1461866Y29341621D01*
X1461863Y29341612D01*
X1370695Y29073041D01*
X1370692Y29073032D01*
X1369919Y29070753D01*
X1369447Y29068384D01*
X1369447Y29068381D01*
X1355354Y28997528D01*
X1313644Y28787839D01*
X1294778Y28500000D01*
X-2070Y28500000D01*
X-2070Y28995558D01*
X-1979Y28999236D01*
X1495Y29068683D01*
X14976Y29304881D01*
X15664Y29311563D01*
X34686Y29438869D01*
X34884Y29440105D01*
X65252Y29617664D01*
X66419Y29623190D01*
X100325Y29757851D01*
X100974Y29760253D01*
X148331Y29923845D01*
X149737Y29928184D01*
X197781Y30061877D01*
X199067Y30065194D01*
X263619Y30220393D01*
X265044Y30223597D01*
X325982Y30351925D01*
X328099Y30356042D01*
X410709Y30504931D01*
X411928Y30507042D01*
X483546Y30626068D01*
X486637Y30630782D01*
X591192Y30777568D01*
X591873Y30778504D01*
X668773Y30881787D01*
X672994Y30886946D01*
X830909Y31062939D01*
X876737Y31113297D01*
X881575Y31118139D01*
X931030Y31163213D01*
X1107990Y31322207D01*
X1113183Y31326461D01*
X1215113Y31402439D01*
X1216095Y31403154D01*
X1364182Y31508746D01*
X1368911Y31511849D01*
X1486940Y31582919D01*
X1489020Y31584122D01*
X1639011Y31667392D01*
X1643109Y31669501D01*
X1770539Y31730030D01*
X1773789Y31731476D01*
X1930018Y31796457D01*
X1933312Y31797734D01*
X2066079Y31845431D01*
X2070455Y31846848D01*
X2235218Y31894503D01*
X2237599Y31895147D01*
X2371211Y31928745D01*
X2376739Y31929910D01*
X2555970Y31960477D01*
X2557298Y31960689D01*
X2682936Y31979395D01*
X2689617Y31980080D01*
X2930059Y31993630D01*
X2995096Y31996837D01*
X2998737Y31996926D01*
X260995529Y31996926D01*
X260999208Y31996835D01*
G37*
%TD.AperFunction*%
M02*
