%TF.GenerationSoftware,KiCad,Pcbnew,7.0.2-0*%
%TF.CreationDate,2023-05-18T01:17:26+02:00*%
%TF.ProjectId,LF,4c462e6b-6963-4616-945f-706362585858,rev?*%
%TF.SameCoordinates,PXfd9f08PY7735940*%
%TF.FileFunction,Drillmap*%
%TF.FilePolarity,Positive*%
%FSLAX45Y45*%
G04 Gerber Fmt 4.5, Leading zero omitted, Abs format (unit mm)*
G04 Created by KiCad (PCBNEW 7.0.2-0) date 2023-05-18 01:17:26*
%MOMM*%
%LPD*%
G01*
G04 APERTURE LIST*
%ADD10C,0.500000*%
%ADD11C,0.200000*%
G04 APERTURE END LIST*
D10*
X87868Y3111617D02*
G75*
G03*
X-257Y2899743I211226J-212120D01*
G01*
X23739730Y1499730D02*
X22810269Y1499730D01*
X22810269Y500270D02*
X22785260Y525270D01*
X9900000Y2560000D02*
X15980000Y2560000D01*
X8591086Y2121541D02*
G75*
G03*
X8688376Y2081267I96952J96559D01*
G01*
X-257Y299743D02*
X-257Y2899743D01*
X17444641Y1118233D02*
X17753942Y1118233D01*
X19265699Y1118233D02*
X19575000Y1118233D01*
X8997676Y2081267D02*
X8688376Y2081267D01*
X18104965Y1447274D02*
G75*
G03*
X18145236Y1349985I136534J-464D01*
G01*
X17154702Y1893379D02*
X17154702Y1408207D01*
X23764740Y525270D02*
X23764740Y1474730D01*
X26099740Y-257D02*
X299743Y-257D01*
X19926025Y1447274D02*
G75*
G03*
X19966294Y1349985I136563J-454D01*
G01*
X8337347Y1306121D02*
G75*
G03*
X8512504Y1130989I175351J219D01*
G01*
X17239717Y1203272D02*
G75*
G03*
X17444641Y1118233I204741J203948D01*
G01*
X18655110Y779443D02*
G75*
G03*
X18672886Y786815I-12J25147D01*
G01*
X17851230Y1077959D02*
G75*
G03*
X17753941Y1118233I-96952J-96559D01*
G01*
X26311614Y87868D02*
G75*
G03*
X26399740Y299743I-211207J212112D01*
G01*
X22810269Y500270D02*
X23739730Y500270D01*
X18672886Y822368D02*
X18145235Y1349985D01*
X23960000Y2570000D02*
X25900000Y2570000D01*
X17154699Y1408207D02*
G75*
G03*
X17239717Y1203272I289129J-157D01*
G01*
X23960000Y2570000D02*
X23960000Y640000D01*
X18104969Y1893379D02*
G75*
G03*
X17929813Y2068511I-175351J-219D01*
G01*
X18104962Y1447274D02*
X18104962Y1893379D01*
X8512500Y1130980D02*
X9000000Y1130980D01*
X299743Y3199743D02*
X26099740Y3199743D01*
X26399744Y2899743D02*
G75*
G03*
X26311615Y3111618I-298736J7D01*
G01*
X7769424Y2412697D02*
G75*
G03*
X7769427Y2377140I17824J-17777D01*
G01*
X26399740Y2899743D02*
X26399740Y299743D01*
X87869Y87869D02*
G75*
G03*
X299743Y-257I212119J211221D01*
G01*
X18142378Y786817D02*
G75*
G03*
X18160152Y779477I17780J17863D01*
G01*
X22785260Y1474730D02*
X22785260Y525270D01*
X9900000Y2400000D02*
X9900000Y2560000D01*
X18672888Y786813D02*
G75*
G03*
X18672886Y822368I-17860J17777D01*
G01*
X18975761Y1408207D02*
G75*
G03*
X19060776Y1203272I289087J-177D01*
G01*
X7787208Y2420059D02*
G75*
G03*
X7769431Y2412685I10J-25139D01*
G01*
X17929813Y2068511D02*
X17329815Y2068511D01*
X8299938Y2412683D02*
G75*
G03*
X8282164Y2420023I-17780J-17863D01*
G01*
X8997676Y2081267D02*
X9900000Y2400000D01*
X9900000Y640000D02*
X9900000Y800000D01*
X18975760Y1893379D02*
X18975760Y1408207D01*
X18655109Y779442D02*
X18160152Y779477D01*
X19750872Y2068511D02*
X19150874Y2068511D01*
X26311614Y3111617D02*
G75*
G03*
X26099740Y3199742I-212116J-211217D01*
G01*
X8591083Y2121531D02*
X8299938Y2412693D01*
X19926021Y1447274D02*
X19926021Y1893379D01*
X8337355Y1752226D02*
X8337355Y1306121D01*
X19672290Y1077960D02*
X19963435Y786815D01*
X20493946Y786813D02*
G75*
G03*
X20493945Y822368I-17858J17777D01*
G01*
X-257Y299743D02*
G75*
G03*
X87868Y87868I298755J-3D01*
G01*
X15980000Y2560000D02*
X15980000Y640000D01*
X17851231Y1077960D02*
X18142376Y786815D01*
X23739730Y500270D02*
X23764740Y525270D01*
X20493945Y822368D02*
X19966294Y1349985D01*
X8337372Y1752217D02*
G75*
G03*
X8297078Y1849506I-136434J483D01*
G01*
X15980000Y640000D02*
X9900000Y640000D01*
X19672290Y1077960D02*
G75*
G03*
X19575000Y1118233I-96952J-96560D01*
G01*
X25900000Y640000D02*
X23960000Y640000D01*
X22785260Y1474730D02*
X22810269Y1499730D01*
X19926029Y1893379D02*
G75*
G03*
X19750872Y2068511I-175361J-230D01*
G01*
X7769431Y2377132D02*
X8297082Y1849516D01*
X299743Y3199745D02*
G75*
G03*
X87868Y3111618I-5J-298745D01*
G01*
X20476168Y779442D02*
X19981211Y779477D01*
X23764740Y1474730D02*
X23739730Y1499730D01*
X25900000Y2570000D02*
X25900000Y640000D01*
X20476168Y779442D02*
G75*
G03*
X20493945Y786815I0J25118D01*
G01*
X7787208Y2420058D02*
X8282164Y2420024D01*
X19150874Y2068508D02*
G75*
G03*
X18975760Y1893379I204J-175318D01*
G01*
X26099740Y-257D02*
G75*
G03*
X26311615Y87868I-2J298767D01*
G01*
X19963433Y786813D02*
G75*
G03*
X19981211Y779477I17775J17867D01*
G01*
X17329816Y2068506D02*
G75*
G03*
X17154702Y1893379I202J-175316D01*
G01*
X19060777Y1203273D02*
G75*
G03*
X19265699Y1118233I204741J203947D01*
G01*
X9900000Y800000D02*
X9000000Y1130980D01*
D11*
X222362Y-337781D02*
X222362Y-137781D01*
X222362Y-137781D02*
X269981Y-137781D01*
X269981Y-137781D02*
X298552Y-147305D01*
X298552Y-147305D02*
X317600Y-166352D01*
X317600Y-166352D02*
X327124Y-185400D01*
X327124Y-185400D02*
X336647Y-223495D01*
X336647Y-223495D02*
X336647Y-252066D01*
X336647Y-252066D02*
X327124Y-290162D01*
X327124Y-290162D02*
X317600Y-309209D01*
X317600Y-309209D02*
X298552Y-328257D01*
X298552Y-328257D02*
X269981Y-337781D01*
X269981Y-337781D02*
X222362Y-337781D01*
X422362Y-337781D02*
X422362Y-204447D01*
X422362Y-242543D02*
X431885Y-223495D01*
X431885Y-223495D02*
X441409Y-213971D01*
X441409Y-213971D02*
X460457Y-204447D01*
X460457Y-204447D02*
X479505Y-204447D01*
X546171Y-337781D02*
X546171Y-204447D01*
X546171Y-137781D02*
X536647Y-147305D01*
X536647Y-147305D02*
X546171Y-156828D01*
X546171Y-156828D02*
X555695Y-147305D01*
X555695Y-147305D02*
X546171Y-137781D01*
X546171Y-137781D02*
X546171Y-156828D01*
X669981Y-337781D02*
X650933Y-328257D01*
X650933Y-328257D02*
X641409Y-309209D01*
X641409Y-309209D02*
X641409Y-137781D01*
X774743Y-337781D02*
X755695Y-328257D01*
X755695Y-328257D02*
X746171Y-309209D01*
X746171Y-309209D02*
X746171Y-137781D01*
X1003314Y-337781D02*
X1003314Y-137781D01*
X1003314Y-137781D02*
X1069981Y-280638D01*
X1069981Y-280638D02*
X1136647Y-137781D01*
X1136647Y-137781D02*
X1136647Y-337781D01*
X1317600Y-337781D02*
X1317600Y-233019D01*
X1317600Y-233019D02*
X1308076Y-213971D01*
X1308076Y-213971D02*
X1289028Y-204447D01*
X1289028Y-204447D02*
X1250933Y-204447D01*
X1250933Y-204447D02*
X1231886Y-213971D01*
X1317600Y-328257D02*
X1298552Y-337781D01*
X1298552Y-337781D02*
X1250933Y-337781D01*
X1250933Y-337781D02*
X1231886Y-328257D01*
X1231886Y-328257D02*
X1222362Y-309209D01*
X1222362Y-309209D02*
X1222362Y-290162D01*
X1222362Y-290162D02*
X1231886Y-271114D01*
X1231886Y-271114D02*
X1250933Y-261590D01*
X1250933Y-261590D02*
X1298552Y-261590D01*
X1298552Y-261590D02*
X1317600Y-252066D01*
X1412838Y-204447D02*
X1412838Y-404447D01*
X1412838Y-213971D02*
X1431885Y-204447D01*
X1431885Y-204447D02*
X1469981Y-204447D01*
X1469981Y-204447D02*
X1489028Y-213971D01*
X1489028Y-213971D02*
X1498552Y-223495D01*
X1498552Y-223495D02*
X1508076Y-242543D01*
X1508076Y-242543D02*
X1508076Y-299686D01*
X1508076Y-299686D02*
X1498552Y-318733D01*
X1498552Y-318733D02*
X1489028Y-328257D01*
X1489028Y-328257D02*
X1469981Y-337781D01*
X1469981Y-337781D02*
X1431885Y-337781D01*
X1431885Y-337781D02*
X1412838Y-328257D01*
X1593790Y-318733D02*
X1603314Y-328257D01*
X1603314Y-328257D02*
X1593790Y-337781D01*
X1593790Y-337781D02*
X1584266Y-328257D01*
X1584266Y-328257D02*
X1593790Y-318733D01*
X1593790Y-318733D02*
X1593790Y-337781D01*
X1593790Y-213971D02*
X1603314Y-223495D01*
X1603314Y-223495D02*
X1593790Y-233019D01*
X1593790Y-233019D02*
X1584266Y-223495D01*
X1584266Y-223495D02*
X1593790Y-213971D01*
X1593790Y-213971D02*
X1593790Y-233019D01*
M02*
