<?xml version="1.0" standalone="no"?>
 <!DOCTYPE svg PUBLIC "-//W3C//DTD SVG 1.1//EN" 
 "http://www.w3.org/Graphics/SVG/1.1/DTD/svg11.dtd"> 
<svg
  xmlns:svg="http://www.w3.org/2000/svg"
  xmlns="http://www.w3.org/2000/svg"
  xmlns:xlink="http://www.w3.org/1999/xlink"
  version="1.1"
  width="270.0782mm" height="41.9608mm" viewBox="0.0000 0.0000 270.0782 41.9608">
<title>SVG Image created as LF-B_Cu.svg date 2023/04/24 16:07:26 </title>
  <desc>Image generated by PCBNEW </desc>
<g style="fill:#000000; fill-opacity:1.0000;stroke:#000000; stroke-opacity:1.0000;
stroke-linecap:round; stroke-linejoin:round;"
 transform="translate(0 0) scale(1 1)">
</g>
<g style="fill:#000000; fill-opacity:0.0; 
stroke:#000000; stroke-width:0.0000; stroke-opacity:1; 
stroke-linecap:round; stroke-linejoin:round;">
<g >
</g>
<g style="fill:#4D7FC4; fill-opacity:0.0; 
stroke:#4D7FC4; stroke-width:0.0000; stroke-opacity:1; 
stroke-linecap:round; stroke-linejoin:round;">
</g>
<g style="fill:#4D7FC4; fill-opacity:1.0000; 
stroke:#4D7FC4; stroke-width:0.0000; stroke-opacity:1; 
stroke-linecap:round; stroke-linejoin:round;">
<circle cx="5.0613" cy="7.8375" r="1.5000" /> 
</g>
<g style="fill:#4D7FC4; fill-opacity:1.0000; 
stroke:#4D7FC4; stroke-width:0.0212; stroke-opacity:1; 
stroke-linecap:round; stroke-linejoin:round;">
</g>
<g style="fill:#4D7FC4; fill-opacity:1.0000; 
stroke:#4D7FC4; stroke-width:0.0000; stroke-opacity:1; 
stroke-linecap:round; stroke-linejoin:round;">
<circle cx="5.0613" cy="32.8375" r="1.5000" /> 
</g>
<g style="fill:#4D7FC4; fill-opacity:1.0000; 
stroke:#4D7FC4; stroke-width:0.0212; stroke-opacity:1; 
stroke-linecap:round; stroke-linejoin:round;">
</g>
<g style="fill:#4D7FC4; fill-opacity:1.0000; 
stroke:#4D7FC4; stroke-width:0.0000; stroke-opacity:1; 
stroke-linecap:round; stroke-linejoin:round;">
<circle cx="89.5613" cy="7.8375" r="1.5000" /> 
</g>
<g style="fill:#4D7FC4; fill-opacity:1.0000; 
stroke:#4D7FC4; stroke-width:0.0212; stroke-opacity:1; 
stroke-linecap:round; stroke-linejoin:round;">
</g>
<g style="fill:#4D7FC4; fill-opacity:1.0000; 
stroke:#4D7FC4; stroke-width:0.0000; stroke-opacity:1; 
stroke-linecap:round; stroke-linejoin:round;">
<circle cx="89.5613" cy="32.8375" r="1.5000" /> 
</g>
<g style="fill:#4D7FC4; fill-opacity:1.0000; 
stroke:#4D7FC4; stroke-width:0.0212; stroke-opacity:1; 
stroke-linecap:round; stroke-linejoin:round;">
</g>
<g style="fill:#4D7FC4; fill-opacity:1.0000; 
stroke:#4D7FC4; stroke-width:0.0000; stroke-opacity:1; 
stroke-linecap:round; stroke-linejoin:round;">
<circle cx="177.5613" cy="7.8375" r="1.5000" /> 
</g>
<g style="fill:#4D7FC4; fill-opacity:1.0000; 
stroke:#4D7FC4; stroke-width:0.0212; stroke-opacity:1; 
stroke-linecap:round; stroke-linejoin:round;">
</g>
<g style="fill:#4D7FC4; fill-opacity:1.0000; 
stroke:#4D7FC4; stroke-width:0.0000; stroke-opacity:1; 
stroke-linecap:round; stroke-linejoin:round;">
<circle cx="177.5613" cy="32.8088" r="1.5000" /> 
</g>
<g style="fill:#4D7FC4; fill-opacity:1.0000; 
stroke:#4D7FC4; stroke-width:0.0212; stroke-opacity:1; 
stroke-linecap:round; stroke-linejoin:round;">
</g>
<g style="fill:#4D7FC4; fill-opacity:1.0000; 
stroke:#4D7FC4; stroke-width:0.0000; stroke-opacity:1; 
stroke-linecap:round; stroke-linejoin:round;">
<circle cx="262.0613" cy="7.8375" r="1.5000" /> 
</g>
<g style="fill:#4D7FC4; fill-opacity:1.0000; 
stroke:#4D7FC4; stroke-width:0.0212; stroke-opacity:1; 
stroke-linecap:round; stroke-linejoin:round;">
</g>
<g style="fill:#4D7FC4; fill-opacity:1.0000; 
stroke:#4D7FC4; stroke-width:0.0000; stroke-opacity:1; 
stroke-linecap:round; stroke-linejoin:round;">
<circle cx="262.0613" cy="32.8375" r="1.5000" /> 
</g>
<g style="fill:#4D7FC4; fill-opacity:1.0000; 
stroke:#4D7FC4; stroke-width:0.0212; stroke-opacity:1; 
stroke-linecap:round; stroke-linejoin:round;">
</g>
<g >
</g>
<g >
</g>
<g >
</g>
<g style="fill:#4D7FC4; fill-opacity:1.0000; 
stroke:#4D7FC4; stroke-width:0.0212; stroke-opacity:1; 
stroke-linecap:round; stroke-linejoin:round;">
<g >
</g>
<g style="fill:#4D7FC4; fill-opacity:1.0000; 
stroke:#4D7FC4; stroke-width:0.0000; stroke-opacity:1; 
stroke-linecap:round; stroke-linejoin:round;">
<path style="fill:#4D7FC4; fill-opacity:1.0000; 
stroke:#4D7FC4; stroke-width:0.0000; stroke-opacity:1; 
stroke-linecap:round; stroke-linejoin:round;fill-rule:evenodd;"
d="M 262.5605,4.3407
262.5716,4.3412
262.6300,4.3441
262.6302,4.3441
262.8661,4.3576
262.8728,4.3583
263.0003,4.3774
263.0017,4.3776
263.1789,4.4079
263.1844,4.4090
263.3192,4.4430
263.3217,4.4436
263.4850,4.4909
263.4894,4.4924
263.6232,4.5404
263.6266,4.5417
263.7815,4.6062
263.7848,4.6077
263.9133,4.6686
263.9174,4.6708
264.0660,4.7533
264.0682,4.7545
264.1864,4.8256
264.1874,4.8262
264.1921,4.8293
264.3385,4.9336
264.3398,4.9345
264.4431,5.0114
264.4483,5.0157
264.6236,5.1730
264.6240,5.1734
264.6746,5.2194
264.6795,5.2243
264.7239,5.2730
264.7242,5.2734
264.8836,5.4507
264.8879,5.4560
264.9632,5.5570
264.9641,5.5583
265.0701,5.7070
265.0733,5.7117
265.1439,5.8291
265.1452,5.8314
265.2288,5.9818
265.2309,5.9860
265.2912,6.1128
265.2926,6.1162
265.3578,6.2729
265.3592,6.2763
265.4066,6.4084
265.4081,6.4129
265.4559,6.5782
265.4566,6.5807
265.4900,6.7136
265.4912,6.7192
265.5219,6.8992
265.5221,6.9008
265.5407,7.0254
265.5414,7.0321
265.5550,7.2746
265.5550,7.2752
265.5581,7.3374
265.5582,7.3411
265.5582,33.3382
265.5581,33.3419
265.5547,33.4111
265.5546,33.4116
265.5412,33.6475
265.5405,33.6542
265.5215,33.7815
265.5212,33.7830
265.4909,33.9602
265.4897,33.9658
265.4558,34.1005
265.4551,34.1030
265.4078,34.2664
265.4064,34.2708
265.3584,34.4045
265.3570,34.4079
265.2926,34.5629
265.2911,34.5663
265.2302,34.6946
265.2280,34.6987
265.1455,34.8475
265.1442,34.8497
265.0726,34.9687
265.0695,34.9735
264.9652,35.1199
264.9642,35.1212
264.8874,35.2244
264.8831,35.2296
264.7256,35.4052
264.7252,35.4056
264.6794,35.4559
264.6745,35.4608
264.6249,35.5060
264.6245,35.5064
264.4483,35.6647
264.4431,35.6690
264.3403,35.7456
264.3390,35.7465
264.1922,35.8512
264.1874,35.8543
264.0687,35.9258
264.0664,35.9271
263.9175,36.0098
263.9133,36.0120
263.7852,36.0728
263.7819,36.0743
263.6266,36.1389
263.6232,36.1402
263.4897,36.1882
263.4853,36.1896
263.3216,36.2369
263.3191,36.2376
263.1847,36.2714
263.1790,36.2726
263.0014,36.3029
262.9999,36.3031
262.8730,36.3220
262.8662,36.3227
262.6296,36.3361
262.6291,36.3361
262.5606,36.3395
262.5569,36.3396
4.5606,36.3396
4.5569,36.3395
4.4875,36.3360
4.4870,36.3360
4.2514,36.3225
4.2447,36.3219
4.2108,36.3168
4.1168,36.3027
4.1153,36.3025
3.9387,36.2723
3.9331,36.2711
3.7980,36.2371
3.7955,36.2364
3.6326,36.1893
3.6281,36.1878
3.4941,36.1396
3.4907,36.1383
3.3361,36.0740
3.3328,36.0725
3.2041,36.0114
3.1999,36.0093
3.0516,35.9270
3.0494,35.9257
2.9300,35.8539
2.9252,35.8507
2.7793,35.7468
2.7780,35.7459
2.6743,35.6686
2.6691,35.6644
2.4948,35.5080
2.4945,35.5077
2.4428,35.4607
2.4379,35.4558
2.3928,35.4063
2.3925,35.4059
2.2341,35.2297
2.2298,35.2245
2.1532,35.1217
2.1523,35.1204
2.0476,34.9736
2.0445,34.9688
1.9730,34.8501
1.9717,34.8479
1.8889,34.6988
1.8868,34.6946
1.8260,34.5666
1.8245,34.5633
1.7599,34.4079
1.7586,34.4045
1.7107,34.2711
1.7092,34.2667
1.6618,34.1029
1.6612,34.1004
1.6274,33.9660
1.6262,33.9605
1.5959,33.7826
1.5956,33.7812
1.5768,33.6543
1.5761,33.6476
1.5627,33.4106
1.5593,33.3420
1.5592,33.3383
1.5592,32.8375
3.3560,32.8375
3.3751,33.0917
3.3757,33.0943
3.3757,33.0944
3.4252,33.3114
3.4318,33.3401
3.4328,33.3427
3.4328,33.3427
3.4896,33.4874
3.5249,33.5774
3.5263,33.5798
3.5263,33.5798
3.5693,33.6543
3.6523,33.7981
3.6541,33.8003
3.6541,33.8003
3.7884,33.9687
3.8113,33.9974
3.8133,33.9993
3.8133,33.9993
3.9223,34.1004
3.9981,34.1707
4.0004,34.1723
4.0004,34.1723
4.1683,34.2868
4.2087,34.3143
4.4383,34.4249
4.6819,34.5000
4.6846,34.5004
4.6846,34.5004
4.7435,34.5093
4.9339,34.5380
5.1860,34.5380
5.1887,34.5380
5.4408,34.5000
5.6843,34.4249
5.9139,34.3143
6.1245,34.1707
6.3114,33.9974
6.4703,33.7981
6.5977,33.5774
6.6908,33.3401
6.7475,33.0917
6.7666,32.8375
6.7475,32.5833
6.6908,32.3349
6.5977,32.0976
6.4703,31.8769
6.4474,31.8482
6.3131,31.6798
6.3131,31.6798
6.3114,31.6776
6.3093,31.6757
6.3093,31.6757
6.1266,31.5061
6.1245,31.5043
6.1222,31.5027
6.1222,31.5027
5.9162,31.3623
5.9162,31.3622
5.9139,31.3607
5.9115,31.3595
5.9114,31.3595
5.6868,31.2513
5.6868,31.2513
5.6843,31.2501
5.6817,31.2493
5.6817,31.2493
5.4434,31.1758
5.4434,31.1758
5.4408,31.1750
5.4380,31.1746
5.4380,31.1746
5.1915,31.1374
5.1915,31.1374
5.1887,31.1370
4.9339,31.1370
4.9311,31.1374
4.9311,31.1374
4.6846,31.1746
4.6846,31.1746
4.6819,31.1750
4.6792,31.1758
4.6792,31.1758
4.4410,31.2493
4.4409,31.2493
4.4383,31.2501
4.4358,31.2513
4.4358,31.2513
4.2112,31.3595
4.2112,31.3595
4.2087,31.3607
4.2064,31.3622
4.2064,31.3623
4.0004,31.5027
4.0004,31.5027
3.9981,31.5043
3.9961,31.5061
3.9961,31.5061
3.8133,31.6757
3.8133,31.6757
3.8113,31.6776
3.8095,31.6798
3.8095,31.6798
3.6541,31.8747
3.6541,31.8747
3.6523,31.8769
3.6510,31.8793
3.6510,31.8793
3.5263,32.0952
3.5263,32.0952
3.5249,32.0976
3.5239,32.1002
3.5239,32.1002
3.4328,32.3323
3.4328,32.3323
3.4318,32.3349
3.4312,32.3376
3.4312,32.3376
3.3757,32.5806
3.3757,32.5807
3.3751,32.5833
3.3560,32.8375
1.5592,32.8375
1.5592,29.9333
4.2608,29.9333
4.2609,29.9336
4.2613,29.9337
4.2617,29.9336
4.2618,29.9333
4.2618,29.9331
4.2679,29.9318
4.2734,29.9312
4.2744,29.9312
4.2691,29.9327
4.2686,29.9328
4.2689,29.9338
4.2694,29.9337
4.2694,29.9337
4.5312,29.8770
4.5837,29.8661
4.5909,29.8650
4.7545,29.8476
4.7549,29.8475
4.9130,29.8322
4.9201,29.8318
5.0847,29.8319
5.0854,29.8319
5.2435,29.8344
5.2501,29.8349
5.4139,29.8525
5.4155,29.8527
5.5717,29.8729
5.5778,29.8740
5.7389,29.9090
5.7408,29.9094
5.8936,29.9471
5.8992,29.9487
6.0557,30.0007
6.0580,30.0015
6.2055,30.0562
6.2104,30.0582
6.3605,30.1265
6.3632,30.1278
6.4542,30.1738
6.5035,30.1987
6.5077,30.2011
6.6497,30.2850
6.6527,30.2868
6.7840,30.3730
6.7876,30.3755
6.9199,30.4741
6.9230,30.4766
7.0438,30.5771
7.0467,30.5796
7.0963,30.6255
7.1677,30.6917
7.1709,30.6948
7.2796,30.8083
7.2819,30.8109
7.3903,30.9352
7.3934,30.9390
7.4886,31.0640
7.4904,31.0664
7.5849,31.2015
7.5878,31.2060
7.6684,31.3410
7.6696,31.3432
7.7492,31.4876
7.7518,31.4928
7.8167,31.6362
7.8175,31.6381
7.8812,31.7900
7.8834,31.7959
7.9318,31.9458
7.9323,31.9473
7.9794,32.1051
7.9810,32.1116
8.0122,32.2663
8.0125,32.2675
8.0424,32.4290
8.0434,32.4361
8.0571,32.5943
8.0571,32.5950
8.0697,32.7579
8.0699,32.7656
8.0655,32.9285
8.0655,32.9287
8.0610,33.0814
8.0610,33.0814
8.0608,33.0874
8.0608,33.0875
8.0608,33.0876
8.0608,33.0880
8.0612,33.0880
8.0612,33.0880
8.0613,33.0880
8.0618,33.0880
8.0618,33.0880
77.3112,33.0880
77.3113,33.0880
77.3117,33.0879
77.3118,33.0876
77.3118,33.0875
77.3118,33.0874
77.3118,32.8375
87.8560,32.8375
87.8751,33.0917
87.8757,33.0943
87.8757,33.0944
87.9252,33.3114
87.9318,33.3401
87.9328,33.3427
87.9328,33.3427
87.9896,33.4874
88.0249,33.5774
88.0263,33.5798
88.0263,33.5798
88.0693,33.6543
88.1523,33.7981
88.1541,33.8003
88.1541,33.8003
88.2884,33.9687
88.3113,33.9974
88.3133,33.9993
88.3133,33.9993
88.4223,34.1004
88.4981,34.1707
88.5004,34.1723
88.5004,34.1723
88.6683,34.2868
88.7087,34.3143
88.9383,34.4249
89.1819,34.5000
89.1846,34.5004
89.1846,34.5004
89.2435,34.5093
89.4339,34.5380
89.6860,34.5380
89.6887,34.5380
89.9408,34.5000
90.1843,34.4249
90.4139,34.3143
90.6245,34.1707
90.8114,33.9974
90.9703,33.7981
91.0977,33.5774
91.1908,33.3401
91.2475,33.0917
91.2666,32.8375
91.2475,32.5833
91.1908,32.3349
91.0977,32.0976
90.9703,31.8769
90.9474,31.8482
90.8131,31.6798
90.8131,31.6798
90.8114,31.6776
90.8093,31.6757
90.8093,31.6757
90.6266,31.5061
90.6245,31.5043
90.6222,31.5027
90.6222,31.5027
90.4162,31.3623
90.4162,31.3622
90.4139,31.3607
90.4115,31.3595
90.4115,31.3595
90.1868,31.2513
90.1868,31.2513
90.1843,31.2501
90.1817,31.2493
90.1817,31.2493
89.9434,31.1758
89.9434,31.1758
89.9408,31.1750
89.9380,31.1746
89.9380,31.1746
89.6915,31.1374
89.6915,31.1374
89.6887,31.1370
89.4339,31.1370
89.4311,31.1374
89.4311,31.1374
89.1846,31.1746
89.1846,31.1746
89.1819,31.1750
89.1792,31.1758
89.1792,31.1758
88.9410,31.2493
88.9409,31.2493
88.9383,31.2501
88.9358,31.2513
88.9358,31.2513
88.7112,31.3595
88.7112,31.3595
88.7087,31.3607
88.7064,31.3622
88.7064,31.3623
88.5004,31.5027
88.5004,31.5027
88.4981,31.5043
88.4961,31.5061
88.4961,31.5061
88.3133,31.6757
88.3133,31.6757
88.3113,31.6776
88.3095,31.6798
88.3095,31.6798
88.1541,31.8747
88.1541,31.8747
88.1523,31.8769
88.1510,31.8793
88.1510,31.8793
88.0263,32.0952
88.0263,32.0952
88.0249,32.0976
88.0239,32.1002
88.0239,32.1002
87.9328,32.3323
87.9328,32.3323
87.9318,32.3349
87.9312,32.3376
87.9312,32.3376
87.8757,32.5806
87.8757,32.5807
87.8751,32.5833
87.8560,32.8375
77.3118,32.8375
77.3118,12.3883
79.1784,12.3883
79.1909,12.4671
79.1935,12.4723
79.1935,12.4723
79.2171,12.5186
79.2270,12.5382
79.2312,12.5423
79.2312,12.5423
79.2551,12.5664
79.2552,12.5664
79.2552,12.5665
82.7701,16.0812
84.5291,17.8401
84.5323,17.8434
84.5599,17.8748
84.5606,17.8755
84.6567,17.9875
84.6620,17.9945
84.7038,18.0568
84.7054,18.0592
84.7414,18.1179
84.7651,18.1564
84.7684,18.1624
84.8043,18.2351
84.8063,18.2395
84.8482,18.3406
84.8499,18.3452
84.8759,18.4220
84.8778,18.4285
84.9043,18.5395
84.9049,18.5424
84.9194,18.6158
84.9206,18.6245
84.9322,18.7790
84.9323,18.7799
84.9342,18.8105
84.9340,18.8151
84.9344,18.8151
84.9344,23.2758
84.9311,23.2758
84.9311,23.2759
84.9344,23.2759
84.9344,23.2761
84.9343,23.2763
84.9343,23.2763
84.9343,23.2767
84.9343,23.2767
84.9344,23.3989
84.9344,23.3989
84.9344,23.4016
84.9348,23.4042
84.9348,23.4042
84.9663,23.6218
84.9703,23.6495
84.9711,23.6520
84.9711,23.6520
85.0404,23.8873
85.0404,23.8873
85.0411,23.8898
85.0422,23.8922
85.0422,23.8922
85.1345,24.0939
85.1453,24.1176
85.1467,24.1198
85.1467,24.1198
85.2662,24.3055
85.2808,24.3283
85.4449,24.5176
85.4469,24.5193
85.6323,24.6800
85.6323,24.6800
85.6343,24.6817
85.8450,24.8172
86.0728,24.9214
86.3131,24.9921
86.5611,25.0280
86.6858,25.0281
86.6860,25.0281
86.6862,25.0282
91.5187,25.0282
91.5555,25.0379
91.5825,25.0646
93.6272,28.5340
96.3066,33.0804
96.3109,33.0877
96.3109,33.0879
96.3111,33.0879
96.3112,33.0880
96.3113,33.0880
171.0612,33.0880
171.0613,33.0880
171.0617,33.0879
171.0618,33.0876
171.0618,33.0875
171.0618,33.0874
171.0618,32.8088
175.8560,32.8088
175.8751,33.0630
175.8757,33.0656
175.8757,33.0657
175.8823,33.0944
175.9318,33.3114
175.9328,33.3140
175.9328,33.3140
176.0009,33.4874
176.0249,33.5487
176.0263,33.5511
176.0263,33.5511
176.0858,33.6542
176.1523,33.7694
176.1541,33.7716
176.1541,33.7716
176.3092,33.9661
176.3113,33.9687
176.3133,33.9706
176.3133,33.9706
176.3398,33.9952
176.4981,34.1420
176.5004,34.1436
176.5004,34.1436
176.7064,34.2840
176.7087,34.2856
176.9383,34.3962
177.1819,34.4713
177.1846,34.4717
177.1846,34.4717
177.2549,34.4823
177.4339,34.5093
177.6860,34.5093
177.6887,34.5093
177.9408,34.4713
178.1843,34.3962
178.4139,34.2856
178.6245,34.1420
178.8114,33.9687
178.9703,33.7694
179.0977,33.5487
179.1908,33.3114
179.2419,33.0875
208.8108,33.0875
208.8108,33.0876
208.8109,33.0879
208.8113,33.0880
208.8114,33.0880
239.8612,33.0880
239.8613,33.0880
239.8617,33.0879
239.8618,33.0876
239.8618,33.0875
239.8618,33.0874
239.8618,32.8375
260.3560,32.8375
260.3751,33.0917
260.3757,33.0943
260.3757,33.0944
260.4253,33.3114
260.4318,33.3401
260.4328,33.3427
260.4328,33.3427
260.4896,33.4874
260.5249,33.5774
260.5263,33.5798
260.5263,33.5798
260.5693,33.6543
260.6524,33.7981
260.6541,33.8003
260.6541,33.8003
260.7884,33.9687
260.8113,33.9974
260.8133,33.9993
260.8133,33.9993
260.9223,34.1004
260.9981,34.1707
261.0004,34.1723
261.0004,34.1723
261.1683,34.2868
261.2087,34.3143
261.4383,34.4249
261.6819,34.5000
261.6846,34.5004
261.6846,34.5004
261.7435,34.5093
261.9339,34.5380
262.1860,34.5380
262.1887,34.5380
262.4408,34.5000
262.6843,34.4249
262.9139,34.3143
263.1245,34.1707
263.3114,33.9974
263.4703,33.7981
263.5977,33.5774
263.6908,33.3401
263.7475,33.0917
263.7666,32.8375
263.7475,32.5833
263.6908,32.3349
263.5977,32.0976
263.4703,31.8769
263.4474,31.8482
263.3131,31.6798
263.3131,31.6798
263.3114,31.6776
263.3093,31.6757
263.3093,31.6757
263.1266,31.5061
263.1245,31.5043
263.1222,31.5027
263.1222,31.5027
262.9162,31.3623
262.9162,31.3622
262.9139,31.3607
262.9115,31.3595
262.9115,31.3595
262.6868,31.2513
262.6868,31.2513
262.6843,31.2501
262.6817,31.2493
262.6817,31.2493
262.4434,31.1758
262.4434,31.1758
262.4408,31.1750
262.4380,31.1746
262.4380,31.1746
262.1915,31.1374
262.1915,31.1374
262.1887,31.1370
261.9339,31.1370
261.9311,31.1374
261.9311,31.1374
261.6846,31.1746
261.6846,31.1746
261.6819,31.1750
261.6792,31.1758
261.6792,31.1758
261.4410,31.2493
261.4409,31.2493
261.4383,31.2501
261.4358,31.2513
261.4358,31.2513
261.2112,31.3595
261.2112,31.3595
261.2087,31.3607
261.2064,31.3622
261.2064,31.3623
261.0004,31.5027
261.0004,31.5027
260.9981,31.5043
260.9961,31.5061
260.9961,31.5061
260.8133,31.6757
260.8133,31.6757
260.8113,31.6776
260.8095,31.6798
260.8095,31.6798
260.6541,31.8747
260.6541,31.8747
260.6524,31.8769
260.6510,31.8793
260.6510,31.8793
260.5263,32.0952
260.5263,32.0952
260.5249,32.0976
260.5239,32.1002
260.5239,32.1002
260.4328,32.3323
260.4328,32.3323
260.4318,32.3349
260.4312,32.3376
260.4312,32.3376
260.3757,32.5806
260.3757,32.5807
260.3751,32.5833
260.3560,32.8375
239.8618,32.8375
239.8618,30.0120
239.8717,29.9750
239.8988,29.9479
239.9358,29.9380
260.5612,29.9380
260.5613,29.9380
260.5617,29.9379
260.5618,29.9376
260.5618,29.9375
260.5618,29.9374
260.5618,10.6376
260.5618,10.6375
260.5617,10.6371
260.5614,10.6370
260.5613,10.6370
260.5612,10.6370
239.9358,10.6370
239.8988,10.6271
239.8717,10.6000
239.8618,10.5630
239.8618,7.8375
260.3560,7.8375
260.3751,8.0917
260.3757,8.0943
260.3757,8.0944
260.4103,8.2460
260.4318,8.3401
260.4328,8.3427
260.4328,8.3427
260.4583,8.4076
260.5249,8.5774
260.6524,8.7981
260.6541,8.8003
260.6541,8.8003
260.7216,8.8850
260.8113,8.9974
260.8133,8.9993
260.8133,8.9993
260.8174,9.0031
260.9981,9.1707
261.0004,9.1723
261.0004,9.1723
261.0225,9.1874
261.2087,9.3143
261.4383,9.4249
261.6819,9.5000
261.6846,9.5004
261.6846,9.5004
261.7549,9.5110
261.9339,9.5380
262.1860,9.5380
262.1887,9.5380
262.4408,9.5000
262.6843,9.4249
262.9139,9.3143
263.1245,9.1707
263.3114,8.9974
263.4703,8.7981
263.5977,8.5774
263.6908,8.3401
263.7475,8.0917
263.7666,7.8375
263.7475,7.5833
263.6908,7.3349
263.5977,7.0976
263.4703,6.8769
263.3732,6.7552
263.3131,6.6798
263.3131,6.6798
263.3114,6.6776
263.3093,6.6757
263.3093,6.6757
263.1266,6.5061
263.1245,6.5043
263.1222,6.5027
263.1222,6.5027
262.9162,6.3623
262.9162,6.3622
262.9139,6.3607
262.9115,6.3595
262.9115,6.3595
262.6868,6.2513
262.6868,6.2513
262.6843,6.2501
262.6817,6.2493
262.6817,6.2493
262.4434,6.1758
262.4434,6.1758
262.4408,6.1750
262.4380,6.1746
262.4380,6.1746
262.1915,6.1374
262.1915,6.1374
262.1887,6.1370
261.9339,6.1370
261.9311,6.1374
261.9311,6.1374
261.6846,6.1746
261.6846,6.1746
261.6819,6.1750
261.6792,6.1758
261.6792,6.1758
261.4410,6.2493
261.4409,6.2493
261.4383,6.2501
261.4358,6.2513
261.4358,6.2513
261.2112,6.3595
261.2112,6.3595
261.2087,6.3607
261.2064,6.3622
261.2064,6.3623
261.0004,6.5027
261.0004,6.5027
260.9981,6.5043
260.9961,6.5061
260.9961,6.5061
260.8133,6.6757
260.8133,6.6757
260.8113,6.6776
260.8095,6.6798
260.8095,6.6798
260.6541,6.8747
260.6541,6.8747
260.6524,6.8769
260.6510,6.8793
260.6510,6.8793
260.5263,7.0952
260.5263,7.0952
260.5249,7.0976
260.5239,7.1002
260.5239,7.1002
260.4328,7.3323
260.4328,7.3323
260.4318,7.3349
260.4312,7.3376
260.4312,7.3376
260.3757,7.5806
260.3757,7.5807
260.3751,7.5833
260.3749,7.5861
260.3749,7.5861
260.3747,7.5880
260.3560,7.8375
239.8618,7.8375
239.8618,7.5946
239.8618,7.5876
239.8618,7.5875
239.8617,7.5871
239.8617,7.5871
239.8613,7.5870
239.8612,7.5870
208.8114,7.5870
208.8113,7.5870
208.8109,7.5871
208.8109,7.5871
208.8108,7.5875
208.8108,7.5876
208.8108,33.0874
208.8108,33.0875
179.2419,33.0875
179.2475,33.0630
179.2666,32.8088
179.2475,32.5546
179.1908,32.3062
179.1756,32.2675
179.1663,32.2436
179.0977,32.0689
178.9703,31.8482
178.9507,31.8236
178.8131,31.6511
178.8131,31.6511
178.8114,31.6489
178.8093,31.6470
178.8093,31.6470
178.6266,31.4774
178.6245,31.4756
178.6222,31.4740
178.6222,31.4740
178.4162,31.3336
178.4162,31.3335
178.4139,31.3320
178.4115,31.3308
178.4115,31.3308
178.1868,31.2226
178.1868,31.2226
178.1843,31.2214
178.1817,31.2206
178.1817,31.2206
177.9434,31.1471
177.9434,31.1471
177.9408,31.1463
177.9380,31.1459
177.9380,31.1459
177.6915,31.1087
177.6915,31.1087
177.6887,31.1083
177.4339,31.1083
177.4311,31.1087
177.4311,31.1087
177.1846,31.1459
177.1846,31.1459
177.1819,31.1463
177.1792,31.1471
177.1792,31.1471
176.9410,31.2206
176.9409,31.2206
176.9383,31.2214
176.9358,31.2226
176.9358,31.2226
176.7112,31.3308
176.7112,31.3308
176.7087,31.3320
176.7064,31.3335
176.7064,31.3336
176.5004,31.4740
176.5004,31.4740
176.4981,31.4756
176.4961,31.4774
176.4961,31.4774
176.3133,31.6470
176.3133,31.6470
176.3113,31.6489
176.3095,31.6511
176.3095,31.6511
176.1541,31.8460
176.1541,31.8460
176.1523,31.8482
176.1510,31.8506
176.1510,31.8506
176.0263,32.0665
176.0263,32.0665
176.0249,32.0689
176.0239,32.0715
176.0239,32.0715
175.9328,32.3036
175.9328,32.3036
175.9318,32.3062
175.9312,32.3089
175.9312,32.3089
175.8757,32.5519
175.8757,32.5520
175.8751,32.5546
175.8749,32.5574
175.8749,32.5574
175.8712,32.6059
175.8560,32.8088
171.0618,32.8088
171.0618,22.3979
173.1077,22.3979
173.1079,22.3997
173.1079,22.3997
173.1230,22.5528
173.1356,22.6814
173.1359,22.6832
173.1360,22.6832
173.1669,22.8390
173.1912,22.9609
173.2740,23.2335
173.2747,23.2352
173.2747,23.2352
173.3824,23.4950
173.3824,23.4950
173.3831,23.4967
173.3840,23.4983
173.4501,23.6218
173.5176,23.7478
173.5187,23.7493
173.5187,23.7493
173.5966,23.8657
173.6762,23.9846
173.6773,23.9859
173.6773,23.9860
173.7837,24.1152
173.8572,24.2046
173.8585,24.2058
173.8585,24.2058
173.8752,24.2224
173.9574,24.3045
173.9576,24.3046
173.9577,24.3048
173.9578,24.3048
173.9581,24.3051
173.9581,24.3051
173.9581,24.3052
174.0587,24.4060
174.2786,24.5872
174.2801,24.5882
174.2801,24.5882
174.4218,24.6831
174.5153,24.7458
174.7665,24.8803
175.0296,24.9895
175.3023,25.0723
175.5817,25.1279
175.8653,25.1557
176.0077,25.1557
176.0077,25.1557
176.0077,25.1557
176.0082,25.1557
176.0082,25.1557
176.0082,25.1557
176.0082,25.1557
179.0984,25.1557
179.1030,25.1558
179.1068,25.1561
179.1383,25.1581
179.1389,25.1581
179.2914,25.1698
179.3000,25.1710
179.3738,25.1855
179.3766,25.1861
179.4873,25.2126
179.4939,25.2145
179.5708,25.2406
179.5754,25.2423
179.6763,25.2840
179.6807,25.2860
179.7535,25.3219
179.7536,25.3220
179.7595,25.3253
179.8566,25.3848
179.8590,25.3864
179.9214,25.4281
179.9214,25.4282
179.9284,25.4335
180.0438,25.5324
180.0446,25.5330
180.0716,25.5568
180.0751,25.5600
182.9844,28.4693
182.9843,28.4694
182.9843,28.4694
182.9844,28.4694
182.9847,28.4697
182.9847,28.4697
182.9848,28.4698
182.9849,28.4698
182.9849,28.4698
182.9850,28.4699
182.9852,28.4701
183.0082,28.4931
183.0124,28.4955
183.0124,28.4955
183.0126,28.4956
183.0657,28.5261
183.1297,28.5432
183.1627,28.5432
183.1627,28.5432
188.1125,28.5436
188.1125,28.5462
188.1125,28.5462
188.1125,28.5436
188.1125,28.5436
188.1456,28.5436
188.2096,28.5264
188.2671,28.4932
188.2902,28.4701
188.2902,28.4701
188.2904,28.4699
188.2905,28.4697
188.2905,28.4697
188.3187,28.4415
188.3548,28.3704
188.3672,28.2916
188.3548,28.2128
188.3187,28.1417
188.2905,28.1135
188.2905,28.1135
188.2902,28.1131
188.2902,28.1131
188.2902,28.1131
183.0157,22.8390
183.0125,22.8356
182.9891,22.8090
182.9886,22.8084
182.8892,22.6926
182.8839,22.6856
182.8418,22.6228
182.8402,22.6204
182.7809,22.5238
182.7776,22.5178
182.7415,22.4447
182.7395,22.4402
182.7394,22.4399
182.7220,22.3979
191.3184,22.3979
191.3185,22.3997
191.3185,22.3997
191.3323,22.5396
191.3462,22.6814
191.3465,22.6832
191.3465,22.6832
191.3773,22.8377
191.4018,22.9609
191.4023,22.9626
191.4023,22.9626
191.4840,23.2318
191.4840,23.2318
191.4845,23.2335
191.4852,23.2352
191.4852,23.2352
191.5930,23.4950
191.5937,23.4967
191.7282,23.7478
191.8868,23.9846
192.0678,24.2046
192.0691,24.2058
192.0691,24.2058
192.1684,24.3048
192.1686,24.3051
192.1686,24.3051
192.1686,24.3052
192.1687,24.3051
192.1691,24.3055
192.1690,24.3055
192.1693,24.3057
192.2104,24.3469
192.2693,24.4060
192.4892,24.5871
192.7259,24.7457
192.9771,24.8803
193.2402,24.9895
193.2420,24.9900
193.2420,24.9900
193.2488,24.9921
193.5128,25.0723
193.7923,25.1279
194.0758,25.1557
194.2182,25.1557
194.2182,25.1557
194.2182,25.1557
194.2183,25.1557
197.3090,25.1557
197.3136,25.1558
197.3488,25.1580
197.3496,25.1581
197.5021,25.1698
197.5107,25.1710
197.5842,25.1855
197.5870,25.1861
197.6980,25.2126
197.7045,25.2145
197.7813,25.2405
197.7858,25.2422
197.8870,25.2841
197.8914,25.2861
197.9641,25.3219
197.9700,25.3252
198.0673,25.3849
198.0697,25.3865
198.1320,25.4281
198.1389,25.4334
198.2035,25.4887
198.2550,25.5329
198.2558,25.5336
198.2821,25.5567
198.2855,25.5599
201.1953,28.4697
201.1929,28.4721
201.1929,28.4721
201.1953,28.4697
201.1977,28.4721
201.2188,28.4931
201.2459,28.5087
201.2720,28.5237
201.2720,28.5237
201.2762,28.5262
201.3403,28.5432
201.3733,28.5432
201.3733,28.5432
201.3733,28.5432
206.3225,28.5436
206.3230,28.5436
206.3230,28.5436
206.3562,28.5436
206.4202,28.5264
206.4777,28.4932
206.5008,28.4701
206.5008,28.4701
206.5009,28.4699
206.5011,28.4697
206.5011,28.4697
206.5293,28.4415
206.5654,28.3704
206.5778,28.2916
206.5654,28.2128
206.5293,28.1417
206.5012,28.1135
206.5012,28.1135
206.5011,28.1135
206.5008,28.1131
206.5008,28.1131
206.5016,28.1131
206.5028,28.1119
206.5028,28.1119
206.5016,28.1131
206.5008,28.1131
206.5023,28.1116
206.5023,28.1115
206.5008,28.1131
201.2263,22.8389
201.2231,22.8355
201.1995,22.8088
201.1989,22.8081
201.0999,22.6927
201.0946,22.6857
201.0929,22.6832
201.0521,22.6224
201.0505,22.6199
201.0260,22.5801
200.9916,22.5240
200.9883,22.5180
200.9672,22.4751
200.9520,22.4443
200.9500,22.4399
200.9333,22.3997
200.9086,22.3400
200.9069,22.3354
200.8977,22.3084
200.8805,22.2576
200.8787,22.2511
200.8525,22.1415
200.8519,22.1388
200.8372,22.0638
200.8360,22.0552
200.8247,21.9062
200.8246,21.9053
200.8246,21.9047
200.8222,21.8664
200.8220,21.8617
200.8220,17.4042
200.8220,17.4042
200.8221,17.4037
200.8221,17.4037
200.8219,17.2784
200.7860,17.0305
200.7152,16.7902
200.6110,16.5624
200.4755,16.3517
200.3114,16.1624
200.1221,15.9983
200.0180,15.9314
199.9136,15.8643
199.9136,15.8643
199.9114,15.8628
199.6835,15.7587
199.6810,15.7579
199.6810,15.7579
199.4457,15.6886
199.4457,15.6886
199.4432,15.6879
199.4406,15.6875
199.4406,15.6875
199.1979,15.6524
199.1979,15.6524
199.1953,15.6520
199.1927,15.6520
199.1927,15.6520
199.0701,15.6519
199.0700,15.6519
199.0695,15.6519
199.0695,15.6486
199.0695,15.6486
199.0695,15.6519
193.0706,15.6519
193.0706,15.6519
193.0706,15.6519
193.0705,15.6519
193.0706,15.6519
193.0702,15.6519
193.0702,15.6519
193.0701,15.6519
193.0700,15.6519
193.0699,15.6519
193.0699,15.6519
192.9474,15.6521
192.9474,15.6521
192.9448,15.6521
192.9422,15.6524
192.9422,15.6524
192.6995,15.6876
192.6995,15.6876
192.6969,15.6879
192.6944,15.6887
192.6944,15.6887
192.4591,15.7579
192.4591,15.7580
192.4566,15.7587
192.4542,15.7598
192.4542,15.7598
192.2312,15.8618
192.2312,15.8618
192.2288,15.8629
192.2266,15.8643
192.2266,15.8643
192.0203,15.9970
192.0203,15.9970
192.0181,15.9984
192.0161,16.0001
192.0161,16.0001
191.9226,16.0811
191.8288,16.1624
191.8271,16.1644
191.8271,16.1644
191.6665,16.3497
191.6665,16.3498
191.6648,16.3517
191.6634,16.3540
191.6634,16.3540
191.5307,16.5602
191.5307,16.5602
191.5293,16.5624
191.5282,16.5648
191.5282,16.5648
191.4263,16.7878
191.4251,16.7902
191.4244,16.7928
191.4244,16.7928
191.3551,17.0280
191.3551,17.0280
191.3544,17.0305
191.3540,17.0332
191.3540,17.0332
191.3364,17.1546
191.3185,17.2785
191.3185,17.2811
191.3185,17.2811
191.3184,17.4036
191.3184,22.2555
191.3184,22.2556
191.3184,22.3961
191.3184,22.3961
191.3184,22.3979
182.7220,22.3979
182.6979,22.3397
182.6962,22.3351
182.6700,22.2578
182.6681,22.2513
182.6418,22.1410
182.6412,22.1382
182.6266,22.0640
182.6254,22.0554
182.6140,21.9047
182.6139,21.9040
182.6116,21.8667
182.6114,21.8620
182.6114,17.4042
182.6114,17.4042
182.6115,17.4037
182.6115,17.4037
182.6114,17.2784
182.5754,17.0305
182.5047,16.7902
182.4005,16.5624
182.3990,16.5602
182.3990,16.5602
182.2664,16.3539
182.2664,16.3539
182.2649,16.3517
182.1835,16.2578
182.1026,16.1644
182.1008,16.1624
182.0071,16.0812
181.9135,16.0000
181.9135,16.0000
181.9115,15.9983
181.8075,15.9314
181.7030,15.8642
181.7030,15.8642
181.7008,15.8628
181.6984,15.8617
181.6984,15.8617
181.4754,15.7597
181.4754,15.7597
181.4730,15.7586
181.2354,15.6887
181.2352,15.6886
181.2352,15.6886
181.2326,15.6879
181.2300,15.6875
181.2300,15.6875
180.9873,15.6524
180.9873,15.6524
180.9847,15.6520
180.9821,15.6520
180.9821,15.6520
180.8595,15.6519
174.8600,15.6519
174.8600,15.6519
174.8600,15.6519
174.8600,15.6519
174.8600,15.6519
174.8597,15.6519
174.8597,15.6519
174.8595,15.6519
174.8595,15.6519
174.8594,15.6519
174.8593,15.6519
174.8592,15.6519
174.7369,15.6521
174.7369,15.6521
174.7342,15.6521
174.7316,15.6524
174.7316,15.6524
174.4889,15.6876
174.4889,15.6876
174.4863,15.6880
174.4838,15.6887
174.4838,15.6887
174.2485,15.7580
174.2485,15.7580
174.2460,15.7587
174.2436,15.7598
174.2436,15.7598
174.0206,15.8618
174.0206,15.8618
174.0182,15.8629
174.0160,15.8643
174.0160,15.8643
173.8098,15.9970
173.8097,15.9970
173.8075,15.9984
173.8055,16.0001
173.8055,16.0001
173.6202,16.1607
173.6202,16.1607
173.6182,16.1624
173.6165,16.1644
173.6165,16.1644
173.4559,16.3498
173.4559,16.3498
173.4542,16.3517
173.4528,16.3540
173.4528,16.3540
173.3201,16.5602
173.3201,16.5602
173.3187,16.5624
173.3176,16.5648
173.3176,16.5648
173.2664,16.6768
173.2145,16.7902
173.2138,16.7928
173.2138,16.7928
173.1446,17.0280
173.1446,17.0280
173.1438,17.0305
173.1434,17.0332
173.1434,17.0332
173.1083,17.2758
173.1079,17.2785
173.1079,17.2811
173.1079,17.2811
173.1078,17.4036
173.1078,22.2553
173.1078,22.2554
173.1078,22.2554
173.1078,22.2555
173.1078,22.2555
173.1077,22.3961
173.1077,22.3961
173.1077,22.3979
171.0618,22.3979
171.0618,7.8375
175.8560,7.8375
175.8751,8.0917
175.8757,8.0943
175.8757,8.0944
175.9103,8.2460
175.9318,8.3401
175.9328,8.3427
175.9328,8.3427
175.9583,8.4076
176.0249,8.5774
176.1523,8.7981
176.1541,8.8003
176.1541,8.8003
176.2216,8.8850
176.3113,8.9974
176.3133,8.9993
176.3133,8.9993
176.3174,9.0031
176.4981,9.1707
176.5004,9.1723
176.5004,9.1723
176.5225,9.1874
176.7087,9.3143
176.9383,9.4249
177.1819,9.5000
177.1846,9.5004
177.1846,9.5004
177.2549,9.5110
177.4339,9.5380
177.6860,9.5380
177.6887,9.5380
177.9408,9.5000
178.1843,9.4249
178.4139,9.3143
178.6245,9.1707
178.8114,8.9974
178.9703,8.7981
179.0977,8.5774
179.1908,8.3401
179.2475,8.0917
179.2666,7.8375
179.2475,7.5833
179.1908,7.3349
179.0977,7.0976
178.9703,6.8769
178.8732,6.7552
178.8131,6.6798
178.8131,6.6798
178.8114,6.6776
178.8093,6.6757
178.8093,6.6757
178.6266,6.5061
178.6245,6.5043
178.6222,6.5027
178.6222,6.5027
178.4162,6.3623
178.4162,6.3622
178.4139,6.3607
178.4115,6.3595
178.4115,6.3595
178.1868,6.2513
178.1868,6.2513
178.1843,6.2501
178.1817,6.2493
178.1817,6.2493
177.9434,6.1758
177.9434,6.1758
177.9408,6.1750
177.9380,6.1746
177.9380,6.1746
177.6915,6.1374
177.6915,6.1374
177.6887,6.1370
177.4339,6.1370
177.4311,6.1374
177.4311,6.1374
177.1846,6.1746
177.1846,6.1746
177.1819,6.1750
177.1792,6.1758
177.1792,6.1758
176.9410,6.2493
176.9409,6.2493
176.9383,6.2501
176.9358,6.2513
176.9358,6.2513
176.7112,6.3595
176.7112,6.3595
176.7087,6.3607
176.7064,6.3622
176.7064,6.3623
176.5004,6.5027
176.5004,6.5027
176.4981,6.5043
176.4961,6.5061
176.4961,6.5061
176.3133,6.6757
176.3133,6.6757
176.3113,6.6776
176.3095,6.6798
176.3095,6.6798
176.1541,6.8747
176.1541,6.8747
176.1523,6.8769
176.1510,6.8793
176.1510,6.8793
176.0263,7.0952
176.0263,7.0952
176.0249,7.0976
176.0239,7.1002
176.0239,7.1002
175.9328,7.3323
175.9328,7.3323
175.9318,7.3349
175.9312,7.3376
175.9312,7.3376
175.8757,7.5806
175.8757,7.5807
175.8751,7.5833
175.8749,7.5861
175.8749,7.5861
175.8747,7.5880
175.8560,7.8375
171.0618,7.8375
171.0618,7.5876
171.0618,7.5875
171.0617,7.5871
171.0617,7.5871
171.0613,7.5870
171.0612,7.5870
96.3113,7.5870
96.3112,7.5870
96.3111,7.5871
96.3109,7.5871
96.3109,7.5873
96.3070,7.5936
96.3070,7.5936
91.5594,15.4885
91.5324,15.5147
91.4959,15.5243
88.4474,15.5243
88.4427,15.5242
88.4405,15.5240
88.4078,15.5220
88.4068,15.5219
88.2543,15.5102
88.2457,15.5090
88.1722,15.4945
88.1694,15.4939
88.0584,15.4674
88.0518,15.4655
87.9750,15.4395
87.9705,15.4378
87.8694,15.3959
87.8650,15.3939
87.7923,15.3581
87.7863,15.3548
87.6891,15.2951
87.6867,15.2935
87.6244,15.2518
87.6174,15.2466
87.5015,15.1472
87.5007,15.1465
87.4732,15.1223
87.4697,15.1191
84.5613,12.2105
84.5613,12.2105
84.5610,12.2101
84.5608,12.2101
84.5608,12.2100
84.5410,12.1904
84.5410,12.1903
84.5376,12.1869
84.5100,12.1711
84.4843,12.1563
84.4843,12.1563
84.4801,12.1539
84.4755,12.1526
84.4755,12.1526
84.4208,12.1380
84.4208,12.1380
84.4161,12.1368
84.4113,12.1368
84.4112,12.1368
84.3831,12.1368
84.3830,12.1368
79.4339,12.1364
79.4334,12.1364
79.4334,12.1364
79.4334,12.1364
79.4333,12.1364
79.4051,12.1364
79.4051,12.1364
79.4002,12.1364
79.3955,12.1377
79.3955,12.1377
79.3408,12.1524
79.3408,12.1524
79.3361,12.1536
79.3319,12.1560
79.3319,12.1560
79.2829,12.1844
79.2829,12.1844
79.2787,12.1868
79.2753,12.1902
79.2753,12.1903
79.2558,12.2098
79.2556,12.2099
79.2556,12.2099
79.2553,12.2101
79.2553,12.2101
79.2553,12.2101
79.2552,12.2102
79.2552,12.2102
79.2550,12.2104
79.2550,12.2104
79.2311,12.2343
79.2311,12.2343
79.2270,12.2384
79.2244,12.2436
79.2244,12.2436
79.1935,12.3043
79.1935,12.3043
79.1909,12.3095
79.1900,12.3153
79.1900,12.3153
79.1793,12.3826
79.1793,12.3826
79.1784,12.3883
77.3118,12.3883
77.3118,7.8375
87.8560,7.8375
87.8751,8.0917
87.8757,8.0943
87.8757,8.0944
87.9103,8.2460
87.9318,8.3401
87.9328,8.3427
87.9328,8.3427
87.9583,8.4076
88.0249,8.5774
88.1523,8.7981
88.1541,8.8003
88.1541,8.8003
88.2216,8.8850
88.3113,8.9974
88.3133,8.9993
88.3133,8.9993
88.3174,9.0031
88.4981,9.1707
88.5004,9.1723
88.5004,9.1723
88.5225,9.1874
88.7087,9.3143
88.9383,9.4249
89.1819,9.5000
89.1846,9.5004
89.1846,9.5004
89.2549,9.5110
89.4339,9.5380
89.6860,9.5380
89.6887,9.5380
89.9408,9.5000
90.1843,9.4249
90.4139,9.3143
90.6245,9.1707
90.8114,8.9974
90.9703,8.7981
91.0977,8.5774
91.1908,8.3401
91.2475,8.0917
91.2666,7.8375
91.2475,7.5833
91.1908,7.3349
91.0977,7.0976
90.9703,6.8769
90.8732,6.7552
90.8131,6.6798
90.8131,6.6798
90.8114,6.6776
90.8093,6.6757
90.8093,6.6757
90.6266,6.5061
90.6245,6.5043
90.6222,6.5027
90.6222,6.5027
90.4162,6.3623
90.4162,6.3622
90.4139,6.3607
90.4115,6.3595
90.4115,6.3595
90.1868,6.2513
90.1868,6.2513
90.1843,6.2501
90.1817,6.2493
90.1817,6.2493
89.9434,6.1758
89.9434,6.1758
89.9408,6.1750
89.9380,6.1746
89.9380,6.1746
89.6915,6.1374
89.6915,6.1374
89.6887,6.1370
89.4339,6.1370
89.4311,6.1374
89.4311,6.1374
89.1846,6.1746
89.1846,6.1746
89.1819,6.1750
89.1792,6.1758
89.1792,6.1758
88.9410,6.2493
88.9409,6.2493
88.9383,6.2501
88.9358,6.2513
88.9358,6.2513
88.7112,6.3595
88.7112,6.3595
88.7087,6.3607
88.7064,6.3622
88.7064,6.3623
88.5004,6.5027
88.5004,6.5027
88.4981,6.5043
88.4961,6.5061
88.4961,6.5061
88.3133,6.6757
88.3133,6.6757
88.3113,6.6776
88.3095,6.6798
88.3095,6.6798
88.1541,6.8747
88.1541,6.8747
88.1523,6.8769
88.1510,6.8793
88.1510,6.8793
88.0263,7.0952
88.0263,7.0952
88.0249,7.0976
88.0239,7.1002
88.0239,7.1002
87.9328,7.3323
87.9328,7.3323
87.9318,7.3349
87.9312,7.3376
87.9312,7.3376
87.8757,7.5806
87.8757,7.5807
87.8751,7.5833
87.8749,7.5861
87.8749,7.5861
87.8747,7.5880
87.8560,7.8375
77.3118,7.8375
77.3118,7.5876
77.3118,7.5875
77.3117,7.5871
77.3117,7.5871
77.3113,7.5870
77.3112,7.5870
8.0618,7.5870
8.0618,7.5870
8.0613,7.5870
8.0612,7.5870
8.0612,7.5870
8.0608,7.5870
8.0608,7.5874
8.0608,7.5875
8.0608,7.5876
8.0610,7.5935
8.0610,7.5935
8.0656,7.7468
8.0656,7.7470
8.0656,7.7470
8.0699,7.9094
8.0697,7.9171
8.0571,8.0801
8.0571,8.0808
8.0434,8.2389
8.0424,8.2460
8.0124,8.4076
8.0122,8.4087
7.9810,8.5634
7.9794,8.5699
7.9323,8.7277
7.9318,8.7292
7.8834,8.8791
7.8812,8.8850
7.8175,9.0369
7.8167,9.0389
7.7518,9.1822
7.7492,9.1874
7.6697,9.3317
7.6684,9.3340
7.5878,9.4690
7.5849,9.4735
7.4904,9.6086
7.4886,9.6110
7.3934,9.7360
7.3903,9.7398
7.2819,9.8642
7.2796,9.8667
7.1709,9.9801
7.1678,9.9832
7.0467,10.0953
7.0438,10.0980
6.9230,10.1984
6.9199,10.2009
6.7876,10.2994
6.7840,10.3020
6.6527,10.3882
6.6497,10.3900
6.5077,10.4739
6.5035,10.4763
6.3632,10.5472
6.3605,10.5485
6.2104,10.6168
6.2054,10.6188
6.0580,10.6735
6.0556,10.6743
5.8992,10.7263
5.8936,10.7279
5.7409,10.7656
5.7388,10.7660
5.5778,10.8010
5.5716,10.8021
5.4155,10.8223
5.4139,10.8225
5.2501,10.8401
5.2434,10.8406
5.0857,10.8431
5.0845,10.8431
4.9201,10.8432
4.9129,10.8428
4.7552,10.8275
4.7545,10.8274
4.5917,10.8101
4.5842,10.8089
4.4252,10.7750
4.4249,10.7750
4.2798,10.7436
4.2694,10.7413
4.2694,10.7413
4.2689,10.7412
4.2686,10.7422
4.2691,10.7423
4.2691,10.7423
4.2692,10.7423
4.2692,10.7433
4.2621,10.7426
4.2618,10.7439
4.2618,10.7417
4.2617,10.7414
4.2613,10.7413
4.2609,10.7414
4.2608,10.7417
4.2608,29.9333
1.5592,29.9333
1.5592,7.8375
3.3560,7.8375
3.3751,8.0917
3.3757,8.0943
3.3757,8.0944
3.4103,8.2460
3.4318,8.3401
3.4328,8.3427
3.4328,8.3427
3.4583,8.4076
3.5249,8.5774
3.6523,8.7981
3.6541,8.8003
3.6541,8.8003
3.7216,8.8850
3.8113,8.9974
3.8133,8.9993
3.8133,8.9993
3.8174,9.0031
3.9981,9.1707
4.0004,9.1723
4.0004,9.1723
4.0225,9.1874
4.2087,9.3143
4.4383,9.4249
4.6819,9.5000
4.6846,9.5004
4.6846,9.5004
4.7549,9.5110
4.9339,9.5380
5.1860,9.5380
5.1887,9.5380
5.4408,9.5000
5.6843,9.4249
5.9139,9.3143
6.1245,9.1707
6.3114,8.9974
6.4703,8.7981
6.5977,8.5774
6.6908,8.3401
6.7475,8.0917
6.7666,7.8375
6.7475,7.5833
6.6908,7.3349
6.5977,7.0976
6.4703,6.8769
6.3732,6.7552
6.3131,6.6798
6.3131,6.6798
6.3114,6.6776
6.3093,6.6757
6.3093,6.6757
6.1266,6.5061
6.1245,6.5043
6.1222,6.5027
6.1222,6.5027
5.9162,6.3623
5.9162,6.3622
5.9139,6.3607
5.9115,6.3595
5.9114,6.3595
5.6868,6.2513
5.6868,6.2513
5.6843,6.2501
5.6817,6.2493
5.6817,6.2493
5.4434,6.1758
5.4434,6.1758
5.4408,6.1750
5.4380,6.1746
5.4380,6.1746
5.1915,6.1374
5.1915,6.1374
5.1887,6.1370
4.9339,6.1370
4.9311,6.1374
4.9311,6.1374
4.6846,6.1746
4.6846,6.1746
4.6819,6.1750
4.6792,6.1758
4.6792,6.1758
4.4410,6.2493
4.4409,6.2493
4.4383,6.2501
4.4358,6.2513
4.4358,6.2513
4.2112,6.3595
4.2112,6.3595
4.2087,6.3607
4.2064,6.3622
4.2064,6.3623
4.0004,6.5027
4.0004,6.5027
3.9981,6.5043
3.9961,6.5061
3.9961,6.5061
3.8133,6.6757
3.8133,6.6757
3.8113,6.6776
3.8095,6.6798
3.8095,6.6798
3.6541,6.8747
3.6541,6.8747
3.6523,6.8769
3.6510,6.8793
3.6510,6.8793
3.5263,7.0952
3.5263,7.0952
3.5249,7.0976
3.5239,7.1002
3.5239,7.1002
3.4328,7.3323
3.4328,7.3323
3.4318,7.3349
3.4312,7.3376
3.4312,7.3376
3.3757,7.5806
3.3757,7.5807
3.3751,7.5833
3.3749,7.5861
3.3749,7.5861
3.3747,7.5880
3.3560,7.8375
1.5592,7.8375
1.5592,7.3420
1.5593,7.3383
1.5596,7.3323
1.5628,7.2688
1.5763,7.0326
1.5770,7.0259
1.5960,6.8986
1.5962,6.8974
1.6266,6.7198
1.6277,6.7143
1.6616,6.5796
1.6623,6.5772
1.7096,6.4137
1.7110,6.4093
1.7591,6.2756
1.7604,6.2723
1.8249,6.1171
1.8264,6.1139
1.8873,5.9856
1.8894,5.9815
1.9720,5.8326
1.9732,5.8305
2.0449,5.7114
2.0479,5.7067
2.1525,5.5599
2.1532,5.5590
2.2301,5.4557
2.2343,5.4506
2.3922,5.2745
2.4380,5.2242
2.4429,5.2193
2.4921,5.1745
2.4924,5.1742
2.6693,5.0153
2.6745,5.0110
2.7764,4.9351
2.7774,4.9343
2.9255,4.8288
2.9302,4.8257
3.0482,4.7546
3.0503,4.7534
3.2003,4.6701
3.2044,4.6680
3.3318,4.6075
3.3351,4.6060
3.4913,4.5410
3.4946,4.5398
3.6274,4.4921
3.6318,4.4907
3.7965,4.4430
3.7989,4.4424
3.9325,4.4088
3.9380,4.4076
4.1173,4.3770
4.1186,4.3768
4.2442,4.3581
4.2509,4.3574
4.4914,4.3439
4.5564,4.3407
4.5600,4.3406
262.5568,4.3406
Z" /> 
</g>
</g>
</g>
<g style="fill:#FFFFFF; fill-opacity:1.0000; 
stroke:#FFFFFF; stroke-width:0.0000; stroke-opacity:1; 
stroke-linecap:round; stroke-linejoin:round;">
<circle cx="5.0613" cy="7.8375" r="1.1000" /> 
</g>
<g style="fill:#FFFFFF; fill-opacity:1.0000; 
stroke:#FFFFFF; stroke-width:0.0212; stroke-opacity:1; 
stroke-linecap:round; stroke-linejoin:round;">
</g>
<g style="fill:#FFFFFF; fill-opacity:1.0000; 
stroke:#FFFFFF; stroke-width:0.0000; stroke-opacity:1; 
stroke-linecap:round; stroke-linejoin:round;">
<circle cx="5.0613" cy="32.8375" r="1.1000" /> 
</g>
<g style="fill:#FFFFFF; fill-opacity:1.0000; 
stroke:#FFFFFF; stroke-width:0.0212; stroke-opacity:1; 
stroke-linecap:round; stroke-linejoin:round;">
</g>
<g style="fill:#FFFFFF; fill-opacity:1.0000; 
stroke:#FFFFFF; stroke-width:0.0000; stroke-opacity:1; 
stroke-linecap:round; stroke-linejoin:round;">
<circle cx="89.5613" cy="7.8375" r="1.1000" /> 
</g>
<g style="fill:#FFFFFF; fill-opacity:1.0000; 
stroke:#FFFFFF; stroke-width:0.0212; stroke-opacity:1; 
stroke-linecap:round; stroke-linejoin:round;">
</g>
<g style="fill:#FFFFFF; fill-opacity:1.0000; 
stroke:#FFFFFF; stroke-width:0.0000; stroke-opacity:1; 
stroke-linecap:round; stroke-linejoin:round;">
<circle cx="89.5613" cy="32.8375" r="1.1000" /> 
</g>
<g style="fill:#FFFFFF; fill-opacity:1.0000; 
stroke:#FFFFFF; stroke-width:0.0212; stroke-opacity:1; 
stroke-linecap:round; stroke-linejoin:round;">
</g>
<g style="fill:#FFFFFF; fill-opacity:1.0000; 
stroke:#FFFFFF; stroke-width:0.0000; stroke-opacity:1; 
stroke-linecap:round; stroke-linejoin:round;">
<circle cx="177.5613" cy="7.8375" r="1.1000" /> 
</g>
<g style="fill:#FFFFFF; fill-opacity:1.0000; 
stroke:#FFFFFF; stroke-width:0.0212; stroke-opacity:1; 
stroke-linecap:round; stroke-linejoin:round;">
</g>
<g style="fill:#FFFFFF; fill-opacity:1.0000; 
stroke:#FFFFFF; stroke-width:0.0000; stroke-opacity:1; 
stroke-linecap:round; stroke-linejoin:round;">
<circle cx="177.5613" cy="32.8088" r="1.1000" /> 
</g>
<g style="fill:#FFFFFF; fill-opacity:1.0000; 
stroke:#FFFFFF; stroke-width:0.0212; stroke-opacity:1; 
stroke-linecap:round; stroke-linejoin:round;">
</g>
<g style="fill:#FFFFFF; fill-opacity:1.0000; 
stroke:#FFFFFF; stroke-width:0.0000; stroke-opacity:1; 
stroke-linecap:round; stroke-linejoin:round;">
<circle cx="262.0613" cy="7.8375" r="1.1000" /> 
</g>
<g style="fill:#FFFFFF; fill-opacity:1.0000; 
stroke:#FFFFFF; stroke-width:0.0212; stroke-opacity:1; 
stroke-linecap:round; stroke-linejoin:round;">
</g>
<g style="fill:#FFFFFF; fill-opacity:1.0000; 
stroke:#FFFFFF; stroke-width:0.0000; stroke-opacity:1; 
stroke-linecap:round; stroke-linejoin:round;">
<circle cx="262.0613" cy="32.8375" r="1.1000" /> 
</g>
<g style="fill:#FFFFFF; fill-opacity:1.0000; 
stroke:#FFFFFF; stroke-width:0.0212; stroke-opacity:1; 
stroke-linecap:round; stroke-linejoin:round;">
</g>
<g style="fill:#000000; fill-opacity:1.0000; 
stroke:#000000; stroke-width:0.0212; stroke-opacity:1; 
stroke-linecap:round; stroke-linejoin:round;">
</g>
<g style="fill:#D0D2CD; fill-opacity:1.0000; 
stroke:#D0D2CD; stroke-width:0.0212; stroke-opacity:1; 
stroke-linecap:round; stroke-linejoin:round;">
</g>
<g style="fill:#D0D2CD; fill-opacity:1.0000; 
stroke:#D0D2CD; stroke-width:0.5000; stroke-opacity:1; 
stroke-linecap:round; stroke-linejoin:round;">
</g>
<g style="fill:#D0D2CD; fill-opacity:0.0; 
stroke:#D0D2CD; stroke-width:0.5000; stroke-opacity:1; 
stroke-linecap:round; stroke-linejoin:round;">
<path d="M96.3113 33.0875
L91.5613 25.0277
" />
<path d="M91.5381 15.5248
L96.3113 7.5875
" />
<path d="M2.4400 5.2213 A2.9935 2.9935 0.0 0 0 1.5587 7.3401" />
<path d="M208.8113 7.5875
L208.8113 33.0875
" />
<path d="M87.4722 15.1221 A1.3683 1.3683 0.0 0 0 88.4451 15.5248" />
<path d="M77.3113 33.0875
L8.0613 33.0875
" />
<path d="M77.3113 7.5875
L77.3113 33.0875
" />
<path d="M1.5587 33.3401
L1.5587 7.3401
" />
<path d="M176.0077 25.1552
L179.1007 25.1552
" />
<path d="M194.2183 25.1552
L197.3113 25.1552
" />
<path d="M91.5381 15.5248
L88.4451 15.5248
" />
<path d="M182.6110 21.8648 A1.3653 1.3653 0.0 0 0 183.0137 22.8377" />
<path d="M239.8613 7.5875
L239.8613 10.6375
" />
<path d="M173.1083 17.4037
L173.1083 22.2554
" />
<path d="M262.5587 36.3401
L4.5587 36.3401
" />
<path d="M200.8216 21.8648 A1.3656 1.3656 0.0 0 0 201.2242 22.8377" />
<path d="M84.9348 23.2763 A1.7535 1.7535 0.0 0 0 86.6863 25.0276" />
<path d="M173.9585 24.3048 A2.8899 2.8899 0.0 0 0 176.0077 25.1552" />
<path d="M188.1124 28.5431 A0.2515 0.2515 0.0 0 0 188.2902 28.4694" />
<path d="M180.0736 25.5579 A1.3683 1.3683 0.0 0 0 179.1007 25.1552" />
<path d="M264.6775 35.4588 A2.9933 2.9933 0.0 0 0 265.5587 33.3401" />
<path d="M188.2902 28.1138
L183.0137 22.8377
" />
<path d="M239.8613 10.6375
L260.5613 10.6375
" />
<path d="M173.1083 22.2554 A2.8913 2.8913 0.0 0 0 173.9585 24.3048" />
<path d="M182.6110 17.4037 A1.7535 1.7535 0.0 0 0 180.8594 15.6524" />
<path d="M182.6109 21.8648
L182.6109 17.4037
" />
<path d="M86.6863 25.0277
L91.5613 25.0277
" />
<path d="M4.5587 4.3401
L262.5587 4.3401
" />
<path d="M171.0613 7.5875
L171.0613 33.0875
" />
<path d="M265.5587 7.3401 A2.9874 2.9874 0.0 0 0 264.6775 5.2213" />
<path d="M79.2555 12.2105 A0.2517 0.2517 0.0 0 0 79.2556 12.5661" />
<path d="M265.5587 7.3401
L265.5587 33.3401
" />
<path d="M2.4400 35.4588 A2.9935 2.9935 0.0 0 0 4.5587 36.3401" />
<path d="M182.9851 28.4693 A0.2520 0.2520 0.0 0 0 183.1628 28.5427" />
<path d="M188.2902 28.4694 A0.2520 0.2520 0.0 0 0 188.2902 28.1138" />
<path d="M191.3189 22.2554 A2.8909 2.8909 0.0 0 0 192.1691 24.3048" />
<path d="M79.4334 12.1369 A0.2514 0.2514 0.0 0 0 79.2556 12.2106" />
<path d="M180.8594 15.6524
L174.8595 15.6524
" />
<path d="M239.8613 29.9375
L239.8613 33.0875
" />
<path d="M84.5607 12.2107 A0.2520 0.2520 0.0 0 0 84.3830 12.1373" />
<path d="M191.3189 17.4037
L191.3189 22.2554
" />
<path d="M188.1124 28.5431
L183.1628 28.5427
" />
<path d="M199.0700 15.6524
L193.0701 15.6524
" />
<path d="M264.6775 5.2213 A2.9934 2.9934 0.0 0 0 262.5587 4.3401" />
<path d="M87.4721 15.1222
L84.5607 12.2106
" />
<path d="M200.8215 21.8648
L200.8215 17.4037
" />
<path d="M84.9349 18.8152
L84.9349 23.2763
" />
<path d="M198.2842 25.5579
L201.1957 28.4694
" />
<path d="M206.5008 28.4694 A0.2520 0.2520 0.0 0 0 206.5008 28.1138" />
<path d="M1.5587 33.3401 A2.9876 2.9876 0.0 0 0 2.4400 35.4588" />
<path d="M180.0736 25.5579
L182.9851 28.4694
" />
<path d="M206.5008 28.1138
L201.2242 22.8377
" />
<path d="M239.8613 33.0875
L208.8113 33.0875
" />
<path d="M84.9350 18.8153 A1.3643 1.3643 0.0 0 0 84.5321 17.8424" />
<path d="M198.2842 25.5579 A1.3683 1.3683 0.0 0 0 197.3113 25.1552" />
<path d="M260.5613 29.9375
L239.8613 29.9375
" />
<path d="M4.2692 10.7418 A3.0104 3.0104 0.0 0 0 8.0613 7.5875" />
<path d="M200.8216 17.4037 A1.7536 1.7536 0.0 0 0 199.0700 15.6524" />
<path d="M79.2556 12.5662
L84.5321 17.8423
" />
<path d="M96.3113 7.5875
L171.0613 7.5875
" />
<path d="M171.0613 33.0875
L96.3113 33.0875
" />
<path d="M208.8113 7.5875
L239.8613 7.5875
" />
<path d="M4.5587 4.3400 A2.9875 2.9875 0.0 0 0 2.4400 5.2213" />
<path d="M206.3230 28.5431
L201.3734 28.5427
" />
<path d="M8.0613 7.5875
L77.3113 7.5875
" />
<path d="M260.5613 10.6375
L260.5613 29.9375
" />
<path d="M4.2613 29.9332
L4.2613 10.7418
" />
<path d="M206.3230 28.5431 A0.2512 0.2512 0.0 0 0 206.5008 28.4694" />
<path d="M79.4334 12.1369
L84.3830 12.1373
" />
<path d="M193.0701 15.6524 A1.7532 1.7532 0.0 0 0 191.3189 17.4037" />
<path d="M8.0613 33.0875 A3.0104 3.0104 0.0 0 0 4.2692 29.9332" />
<path d="M262.5587 36.3401 A2.9877 2.9877 0.0 0 0 264.6775 35.4588" />
<path d="M201.1956 28.4694 A0.2520 0.2520 0.0 0 0 201.3734 28.5427" />
<path d="M174.8595 15.6524 A1.7532 1.7532 0.0 0 0 173.1083 17.4037" />
<path d="M192.1691 24.3048 A2.8899 2.8899 0.0 0 0 194.2183 25.1552" />
<g >
</g>
<g >
</g>
<g >
</g>
<g >
</g>
</g> 
</svg>
