%TF.GenerationSoftware,KiCad,Pcbnew,7.0.2-0*%
%TF.CreationDate,2023-05-18T01:16:27+02:00*%
%TF.ProjectId,LE,4c452e6b-6963-4616-945f-706362585858,rev?*%
%TF.SameCoordinates,PXfd9f08PY7735940*%
%TF.FileFunction,Profile,NP*%
%FSLAX46Y46*%
G04 Gerber Fmt 4.6, Leading zero omitted, Abs format (unit mm)*
G04 Created by KiCad (PCBNEW 7.0.2-0) date 2023-05-18 01:16:27*
%MOMM*%
%LPD*%
G01*
G04 APERTURE LIST*
%TA.AperFunction,Profile*%
%ADD10C,0.500000*%
%TD*%
%ADD11C,0.150000*%
%TA.AperFunction,Profile*%
%ADD12C,0.100000*%
%TD*%
G04 APERTURE END LIST*
D10*
X90999999Y28750000D02*
X173000002Y28750000D01*
X2700000Y6404323D02*
X2700000Y25595677D01*
X261300000Y25595677D02*
X261300000Y6404323D01*
X261292081Y6404298D02*
G75*
G03*
X257500002Y3250000I-792101J-2904298D01*
G01*
X173000001Y3250000D02*
X90999998Y3250000D01*
X85000002Y28750000D02*
G75*
G03*
X90999998Y28750000I2999998J-250000D01*
G01*
X257499976Y28750002D02*
G75*
G03*
X261292089Y25595677I3000004J-250002D01*
G01*
X6499999Y3250000D02*
G75*
G03*
X2707911Y6404323I-2999999J250000D01*
G01*
X173000003Y28750000D02*
G75*
G03*
X178999999Y28750000I2999998J-250000D01*
G01*
X85000000Y3250000D02*
X6499998Y3250000D01*
X178999998Y3250000D02*
G75*
G03*
X173000002Y3250000I-2999998J250000D01*
G01*
X90999997Y3250000D02*
G75*
G03*
X85000001Y3250000I-2999998J250000D01*
G01*
X2707912Y25595678D02*
G75*
G03*
X6499998Y28750000I792088J2904322D01*
G01*
X257500001Y3250000D02*
X178999999Y3250000D01*
X179000000Y28750000D02*
X257500002Y28750000D01*
X6499999Y28750000D02*
X85000001Y28750000D01*
D11*
X258507143Y35792143D02*
X258554762Y35839762D01*
X258554762Y35839762D02*
X258650000Y35887381D01*
X258650000Y35887381D02*
X258888095Y35887381D01*
X258888095Y35887381D02*
X258983333Y35839762D01*
X258983333Y35839762D02*
X259030952Y35792143D01*
X259030952Y35792143D02*
X259078571Y35696905D01*
X259078571Y35696905D02*
X259078571Y35601667D01*
X259078571Y35601667D02*
X259030952Y35458810D01*
X259030952Y35458810D02*
X258459524Y34887381D01*
X258459524Y34887381D02*
X259078571Y34887381D01*
X259507143Y34982620D02*
X259554762Y34935000D01*
X259554762Y34935000D02*
X259507143Y34887381D01*
X259507143Y34887381D02*
X259459524Y34935000D01*
X259459524Y34935000D02*
X259507143Y34982620D01*
X259507143Y34982620D02*
X259507143Y34887381D01*
X259888095Y35887381D02*
X260554761Y35887381D01*
X260554761Y35887381D02*
X260126190Y34887381D01*
X261126190Y35887381D02*
X261221428Y35887381D01*
X261221428Y35887381D02*
X261316666Y35839762D01*
X261316666Y35839762D02*
X261364285Y35792143D01*
X261364285Y35792143D02*
X261411904Y35696905D01*
X261411904Y35696905D02*
X261459523Y35506429D01*
X261459523Y35506429D02*
X261459523Y35268334D01*
X261459523Y35268334D02*
X261411904Y35077858D01*
X261411904Y35077858D02*
X261364285Y34982620D01*
X261364285Y34982620D02*
X261316666Y34935000D01*
X261316666Y34935000D02*
X261221428Y34887381D01*
X261221428Y34887381D02*
X261126190Y34887381D01*
X261126190Y34887381D02*
X261030952Y34935000D01*
X261030952Y34935000D02*
X260983333Y34982620D01*
X260983333Y34982620D02*
X260935714Y35077858D01*
X260935714Y35077858D02*
X260888095Y35268334D01*
X260888095Y35268334D02*
X260888095Y35506429D01*
X260888095Y35506429D02*
X260935714Y35696905D01*
X260935714Y35696905D02*
X260983333Y35792143D01*
X260983333Y35792143D02*
X261030952Y35839762D01*
X261030952Y35839762D02*
X261126190Y35887381D01*
X262078571Y35887381D02*
X262173809Y35887381D01*
X262173809Y35887381D02*
X262269047Y35839762D01*
X262269047Y35839762D02*
X262316666Y35792143D01*
X262316666Y35792143D02*
X262364285Y35696905D01*
X262364285Y35696905D02*
X262411904Y35506429D01*
X262411904Y35506429D02*
X262411904Y35268334D01*
X262411904Y35268334D02*
X262364285Y35077858D01*
X262364285Y35077858D02*
X262316666Y34982620D01*
X262316666Y34982620D02*
X262269047Y34935000D01*
X262269047Y34935000D02*
X262173809Y34887381D01*
X262173809Y34887381D02*
X262078571Y34887381D01*
X262078571Y34887381D02*
X261983333Y34935000D01*
X261983333Y34935000D02*
X261935714Y34982620D01*
X261935714Y34982620D02*
X261888095Y35077858D01*
X261888095Y35077858D02*
X261840476Y35268334D01*
X261840476Y35268334D02*
X261840476Y35506429D01*
X261840476Y35506429D02*
X261888095Y35696905D01*
X261888095Y35696905D02*
X261935714Y35792143D01*
X261935714Y35792143D02*
X261983333Y35839762D01*
X261983333Y35839762D02*
X262078571Y35887381D01*
X263030952Y35887381D02*
X263126190Y35887381D01*
X263126190Y35887381D02*
X263221428Y35839762D01*
X263221428Y35839762D02*
X263269047Y35792143D01*
X263269047Y35792143D02*
X263316666Y35696905D01*
X263316666Y35696905D02*
X263364285Y35506429D01*
X263364285Y35506429D02*
X263364285Y35268334D01*
X263364285Y35268334D02*
X263316666Y35077858D01*
X263316666Y35077858D02*
X263269047Y34982620D01*
X263269047Y34982620D02*
X263221428Y34935000D01*
X263221428Y34935000D02*
X263126190Y34887381D01*
X263126190Y34887381D02*
X263030952Y34887381D01*
X263030952Y34887381D02*
X262935714Y34935000D01*
X262935714Y34935000D02*
X262888095Y34982620D01*
X262888095Y34982620D02*
X262840476Y35077858D01*
X262840476Y35077858D02*
X262792857Y35268334D01*
X262792857Y35268334D02*
X262792857Y35506429D01*
X262792857Y35506429D02*
X262840476Y35696905D01*
X262840476Y35696905D02*
X262888095Y35792143D01*
X262888095Y35792143D02*
X262935714Y35839762D01*
X262935714Y35839762D02*
X263030952Y35887381D01*
X264554762Y34887381D02*
X264554762Y35554048D01*
X264554762Y35458810D02*
X264602381Y35506429D01*
X264602381Y35506429D02*
X264697619Y35554048D01*
X264697619Y35554048D02*
X264840476Y35554048D01*
X264840476Y35554048D02*
X264935714Y35506429D01*
X264935714Y35506429D02*
X264983333Y35411191D01*
X264983333Y35411191D02*
X264983333Y34887381D01*
X264983333Y35411191D02*
X265030952Y35506429D01*
X265030952Y35506429D02*
X265126190Y35554048D01*
X265126190Y35554048D02*
X265269047Y35554048D01*
X265269047Y35554048D02*
X265364286Y35506429D01*
X265364286Y35506429D02*
X265411905Y35411191D01*
X265411905Y35411191D02*
X265411905Y34887381D01*
X265888095Y34887381D02*
X265888095Y35554048D01*
X265888095Y35458810D02*
X265935714Y35506429D01*
X265935714Y35506429D02*
X266030952Y35554048D01*
X266030952Y35554048D02*
X266173809Y35554048D01*
X266173809Y35554048D02*
X266269047Y35506429D01*
X266269047Y35506429D02*
X266316666Y35411191D01*
X266316666Y35411191D02*
X266316666Y34887381D01*
X266316666Y35411191D02*
X266364285Y35506429D01*
X266364285Y35506429D02*
X266459523Y35554048D01*
X266459523Y35554048D02*
X266602380Y35554048D01*
X266602380Y35554048D02*
X266697619Y35506429D01*
X266697619Y35506429D02*
X266745238Y35411191D01*
X266745238Y35411191D02*
X266745238Y34887381D01*
D12*
X264000000Y29500000D02*
X264000000Y34786420D01*
X261300000Y29500000D02*
X261300000Y34786420D01*
X264000000Y34200000D02*
X261300000Y34200000D01*
X264000000Y34200000D02*
X261300000Y34200000D01*
X264000000Y34200000D02*
X262873496Y33613579D01*
X264000000Y34200000D02*
X262873496Y34786421D01*
X261300000Y34200000D02*
X262426504Y34786421D01*
X261300000Y34200000D02*
X262426504Y33613579D01*
D10*
%TO.C,REF\u002A\u002A*%
X0Y29000000D02*
X0Y3000000D01*
X3000000Y0D02*
X261000000Y0D01*
X261000000Y32000000D02*
X3000000Y32000000D01*
X264000000Y3000000D02*
X264000000Y29000000D01*
X3000000Y32000000D02*
G75*
G03*
X0Y29000000I0J-3000000D01*
G01*
X0Y3000000D02*
G75*
G03*
X3000000Y0I3000000J0D01*
G01*
X264000000Y29000000D02*
G75*
G03*
X261000000Y32000000I-3000000J0D01*
G01*
X261000000Y0D02*
G75*
G03*
X264000000Y3000000I0J3000000D01*
G01*
%TD*%
M02*
