%TF.GenerationSoftware,KiCad,Pcbnew,7.0.2-0*%
%TF.CreationDate,2023-05-18T01:18:18+02:00*%
%TF.ProjectId,LG,4c472e6b-6963-4616-945f-706362585858,rev?*%
%TF.SameCoordinates,PXfd9f08PY7735940*%
%TF.FileFunction,Profile,NP*%
%FSLAX46Y46*%
G04 Gerber Fmt 4.6, Leading zero omitted, Abs format (unit mm)*
G04 Created by KiCad (PCBNEW 7.0.2-0) date 2023-05-18 01:18:18*
%MOMM*%
%LPD*%
G01*
G04 APERTURE LIST*
%TA.AperFunction,Profile*%
%ADD10C,0.500000*%
%TD*%
G04 APERTURE END LIST*
D10*
X158587465Y22904185D02*
G75*
G03*
X158087424Y23404185I-501485J-1485D01*
G01*
X186728863Y8223683D02*
X181452355Y13499846D01*
X878681Y31116175D02*
G75*
G03*
X-2569Y28997426I2112259J-2121195D01*
G01*
X92025946Y19962190D02*
G75*
G03*
X89976728Y20812577I-2046866J-2038190D01*
G01*
X177539415Y11684970D02*
X174446409Y11684970D01*
X92373291Y17912841D02*
G75*
G03*
X89976728Y20310110I-2399411J-2141D01*
G01*
X172050050Y14082067D02*
G75*
G03*
X174446409Y11684970I2399030J1933D01*
G01*
X191508743Y20182470D02*
X197508722Y20182470D01*
X83876325Y13061286D02*
X83876325Y17522168D01*
X91124978Y11309833D02*
G75*
G03*
X92875947Y13061286I-2098J1753067D01*
G01*
X191508743Y20182494D02*
G75*
G03*
X190260585Y18933795I1637J-1249794D01*
G01*
X227852604Y14747300D02*
X227852604Y5252700D01*
X77694274Y23771399D02*
X82970782Y18495063D01*
X-2570Y2997430D02*
X-2570Y28997426D01*
X174446409Y11182331D02*
X177539415Y11182331D01*
X181423762Y7868150D02*
G75*
G03*
X181779294Y7868150I177766J178631D01*
G01*
X192656994Y11182331D02*
X195750000Y11182331D01*
X198757150Y18933795D02*
G75*
G03*
X197508722Y20182469I-1249670J-995D01*
G01*
X181049645Y14472741D02*
G75*
G03*
X181452355Y13499846I1365335J-4641D01*
G01*
X105907424Y23404185D02*
X158087424Y23404185D01*
X237397297Y5002700D02*
X237647403Y5252700D01*
X83326316Y18850596D02*
X78049807Y24126932D01*
X171547016Y18933795D02*
X171547016Y14082067D01*
X92875948Y13061286D02*
X92875948Y17912841D01*
X260997398Y-2570D02*
X2997430Y-2570D01*
X199260252Y14472741D02*
G75*
G03*
X199662940Y13499846I1365628J-4541D01*
G01*
X228102695Y5002700D02*
X227852604Y5252700D01*
X204583928Y7868163D02*
G75*
G03*
X204761681Y7794424I176452J174237D01*
G01*
X172397173Y12032722D02*
G75*
G03*
X174446409Y11182332I2047407J2039478D01*
G01*
X186551096Y7794429D02*
G75*
G03*
X186728863Y7868149I-116J251471D01*
G01*
X181049623Y14472741D02*
X181049623Y18933795D01*
X263116145Y878683D02*
G75*
G03*
X263997397Y2997430I-2112065J2121117D01*
G01*
X179298137Y20685110D02*
X173298158Y20685110D01*
X171546994Y14082067D02*
G75*
G03*
X172397170Y12032719I2891286J-1567D01*
G01*
X85125000Y11309799D02*
X91124978Y11309799D01*
X85910847Y21215331D02*
G75*
G03*
X86883719Y20812578I969533J965569D01*
G01*
X2997430Y31997426D02*
X260997398Y31997426D01*
X199307406Y13144312D02*
X204583914Y7868149D01*
X263997438Y28997426D02*
G75*
G03*
X263116148Y31116176I-2987358J74D01*
G01*
X77694240Y24126966D02*
G75*
G03*
X77694274Y23771399I178240J-177766D01*
G01*
X82999375Y24126931D02*
G75*
G03*
X82643843Y24126931I-177766J-178631D01*
G01*
X83876364Y13061286D02*
G75*
G03*
X85125000Y11812784I1249916J1414D01*
G01*
X263997398Y28997426D02*
X263997398Y2997430D01*
X82643808Y24126966D02*
G75*
G03*
X82643843Y23771400I178272J-177766D01*
G01*
X228102695Y5002700D02*
X237397297Y5002700D01*
X172050000Y14082067D02*
X172050000Y18933795D01*
X878691Y878691D02*
G75*
G03*
X2997430Y-2570I2121189J2112209D01*
G01*
X89976728Y20812578D02*
X86883719Y20812578D01*
X178867855Y11135144D02*
G75*
G03*
X177539415Y11684970I-1322575J-1315744D01*
G01*
X180546621Y14472741D02*
G75*
G03*
X181096821Y13144312I1863259J-6441D01*
G01*
X195750000Y11684970D02*
X192656994Y11684970D01*
X198757224Y18933795D02*
X198757224Y14472741D01*
X199989894Y7868134D02*
G75*
G03*
X199989878Y8223682I-178614J177766D01*
G01*
X237397297Y14997300D02*
X228102695Y14997300D01*
X186728879Y7868133D02*
G75*
G03*
X186728863Y8223683I-178599J177767D01*
G01*
X189757609Y14082067D02*
G75*
G03*
X190607756Y12032720I2890871J-1767D01*
G01*
X92373309Y17912841D02*
X92373309Y13061286D01*
X78049807Y24126932D02*
G75*
G03*
X77694274Y24126932I-177766J-186842D01*
G01*
X190260585Y14082067D02*
X190260585Y18933795D01*
X85555316Y20859800D02*
G75*
G03*
X86883719Y20310111I1323564J1318600D01*
G01*
X83876308Y17522168D02*
G75*
G03*
X83326315Y18850595I-1866428J5332D01*
G01*
X83373679Y13061286D02*
G75*
G03*
X85125000Y11309799I1753301J1814D01*
G01*
X178512302Y10779591D02*
G75*
G03*
X177539415Y11182331I-969522J-965591D01*
G01*
X189757601Y18933795D02*
X189757601Y14082067D01*
X237647403Y5252700D02*
X237647403Y14747300D01*
X105407424Y9124185D02*
X105407424Y22904185D01*
X173298158Y20182479D02*
G75*
G03*
X172050000Y18933795I1522J-1249679D01*
G01*
X105907424Y23404156D02*
G75*
G03*
X105407424Y22904185I1456J-501456D01*
G01*
X197508722Y20685110D02*
X191508743Y20685110D01*
X237647403Y14747300D02*
X237397297Y14997300D01*
X82643842Y23771399D02*
X85555292Y20859776D01*
X263116143Y31116171D02*
G75*
G03*
X260997398Y31997425I-2121163J-2112171D01*
G01*
X181096821Y13144312D02*
X186373329Y7868149D01*
X181779295Y8223683D02*
X178867844Y11135133D01*
X173298158Y20182470D02*
X179298137Y20182470D01*
X85910826Y21215310D02*
X82999376Y24126932D01*
X83373686Y17522168D02*
X83373686Y13061286D01*
X199260208Y14472741D02*
X199260208Y18933795D01*
X196722895Y10779599D02*
X199634346Y7868149D01*
X204939463Y7868134D02*
G75*
G03*
X204939447Y8223682I-178583J177766D01*
G01*
X-2573Y2997430D02*
G75*
G03*
X878680Y878680I2987553J-30D01*
G01*
X178512310Y10779599D02*
X181423761Y7868149D01*
X180546639Y18933795D02*
X180546639Y14472741D01*
X198757235Y14472741D02*
G75*
G03*
X199307406Y13144312I1862845J-6641D01*
G01*
X204939448Y8223683D02*
X199662940Y13499846D01*
X83373716Y17522168D02*
G75*
G03*
X82970781Y18495062I-1364336J4832D01*
G01*
X91124978Y11812783D02*
X85125000Y11812783D01*
X196722895Y10779599D02*
G75*
G03*
X195750000Y11182331I-969515J-965599D01*
G01*
X181779311Y7868133D02*
G75*
G03*
X181779295Y8223683I-178631J177767D01*
G01*
X180546650Y18933795D02*
G75*
G03*
X179298137Y20182469I-1249770J-1095D01*
G01*
X91124978Y11812772D02*
G75*
G03*
X92373309Y13061286I-1298J1249628D01*
G01*
X227852604Y14747300D02*
X228102695Y14997300D01*
X158087424Y8624185D02*
X105907424Y8624185D01*
X199989879Y8223683D02*
X197078429Y11135133D01*
X199260289Y18933795D02*
G75*
G03*
X197508722Y20685110I-1753609J-2295D01*
G01*
X181049589Y18933795D02*
G75*
G03*
X179298137Y20685110I-1753609J-2295D01*
G01*
X158587424Y22904185D02*
X158587424Y9124185D01*
X105407365Y9124185D02*
G75*
G03*
X105907424Y8624185I501515J1515D01*
G01*
X158087424Y8624157D02*
G75*
G03*
X158587423Y9124185I-1444J501443D01*
G01*
X190260650Y14082067D02*
G75*
G03*
X192656994Y11684971I2399230J2133D01*
G01*
X2997430Y31997451D02*
G75*
G03*
X878680Y31116176I-50J-2987451D01*
G01*
X86883719Y20310111D02*
X89976728Y20310111D01*
X92875913Y17912841D02*
G75*
G03*
X92025945Y19962189I-2889633J2459D01*
G01*
X204761681Y7794423D02*
G75*
G03*
X204939447Y7868150I-1J251177D01*
G01*
X191508743Y20685079D02*
G75*
G03*
X189757601Y18933795I2037J-1753179D01*
G01*
X260997398Y-2571D02*
G75*
G03*
X263116147Y878681I-18J2987671D01*
G01*
X197078447Y11135151D02*
G75*
G03*
X195750000Y11684970I-1322567J-1315751D01*
G01*
X199634347Y7868150D02*
G75*
G03*
X199989878Y7868150I177766J178629D01*
G01*
X173298158Y20685064D02*
G75*
G03*
X171547016Y18933795I2022J-1753164D01*
G01*
X186373336Y7868156D02*
G75*
G03*
X186551096Y7794424I176444J174244D01*
G01*
X190607766Y12032730D02*
G75*
G03*
X192656994Y11182332I2047414J2039470D01*
G01*
M02*
