%TF.GenerationSoftware,KiCad,Pcbnew,7.0.2-0*%
%TF.CreationDate,2023-05-18T01:18:18+02:00*%
%TF.ProjectId,LG,4c472e6b-6963-4616-945f-706362585858,rev?*%
%TF.SameCoordinates,PXfd9f08PY7735940*%
%TF.FileFunction,Legend,Top*%
%TF.FilePolarity,Positive*%
%FSLAX46Y46*%
G04 Gerber Fmt 4.6, Leading zero omitted, Abs format (unit mm)*
G04 Created by KiCad (PCBNEW 7.0.2-0) date 2023-05-18 01:18:18*
%MOMM*%
%LPD*%
G01*
G04 APERTURE LIST*
G04 APERTURE END LIST*
%TO.C,G\u002A\u002A\u002A*%
G36*
X187086Y2009661D02*
G01*
X176494Y1999068D01*
X165901Y2009661D01*
X176494Y2020253D01*
X187086Y2009661D01*
G37*
G36*
X293007Y30290728D02*
G01*
X282415Y30280136D01*
X271823Y30290728D01*
X282415Y30301320D01*
X293007Y30290728D01*
G37*
G36*
X293007Y1755449D02*
G01*
X282415Y1744857D01*
X271823Y1755449D01*
X282415Y1766041D01*
X293007Y1755449D01*
G37*
G36*
X314192Y30333097D02*
G01*
X303599Y30322505D01*
X293007Y30333097D01*
X303599Y30343689D01*
X314192Y30333097D01*
G37*
G36*
X314192Y1713080D02*
G01*
X303599Y1702488D01*
X293007Y1713080D01*
X303599Y1723672D01*
X314192Y1713080D01*
G37*
G36*
X335376Y30375465D02*
G01*
X324784Y30364873D01*
X314192Y30375465D01*
X324784Y30386058D01*
X335376Y30375465D01*
G37*
G36*
X335376Y1670711D02*
G01*
X324784Y1660119D01*
X314192Y1670711D01*
X324784Y1681304D01*
X335376Y1670711D01*
G37*
G36*
X356560Y30417834D02*
G01*
X345968Y30407242D01*
X335376Y30417834D01*
X345968Y30428426D01*
X356560Y30417834D01*
G37*
G36*
X356560Y1628343D02*
G01*
X345968Y1617751D01*
X335376Y1628343D01*
X345968Y1638935D01*
X356560Y1628343D01*
G37*
G36*
X377745Y30460203D02*
G01*
X367152Y30449610D01*
X356560Y30460203D01*
X367152Y30470795D01*
X377745Y30460203D01*
G37*
G36*
X210856Y1949815D02*
G01*
X224891Y1914711D01*
X223421Y1901236D01*
X208971Y1908789D01*
X200295Y1925742D01*
X188293Y1965967D01*
X193221Y1973993D01*
X210856Y1949815D01*
G37*
G36*
X253225Y1843893D02*
G01*
X267259Y1808790D01*
X265790Y1795315D01*
X251340Y1802867D01*
X242664Y1819821D01*
X230661Y1860046D01*
X235589Y1868071D01*
X253225Y1843893D01*
G37*
G36*
X271174Y30248359D02*
G01*
X260626Y30213546D01*
X250639Y30195399D01*
X233853Y30178442D01*
X230103Y30184806D01*
X240651Y30219620D01*
X250639Y30237767D01*
X267425Y30254724D01*
X271174Y30248359D01*
G37*
G36*
X132228954Y30142438D02*
G01*
X132228954Y29962371D01*
X132101848Y29962371D01*
X131974742Y29962371D01*
X131974742Y30142438D01*
X131974742Y30322505D01*
X132101848Y30322505D01*
X132228954Y30322505D01*
X132228954Y30142438D01*
G37*
G36*
X132228954Y29602238D02*
G01*
X132228954Y29432763D01*
X132101848Y29432763D01*
X131974742Y29432763D01*
X131974742Y29602238D01*
X131974742Y29771712D01*
X132101848Y29771712D01*
X132228954Y29771712D01*
X132228954Y29602238D01*
G37*
G36*
X132228954Y29062038D02*
G01*
X132228954Y28881971D01*
X132101848Y28881971D01*
X131974742Y28881971D01*
X131974742Y29062038D01*
X131974742Y29242104D01*
X132101848Y29242104D01*
X132228954Y29242104D01*
X132228954Y29062038D01*
G37*
G36*
X132228954Y28299402D02*
G01*
X132228954Y28119335D01*
X132101848Y28119335D01*
X131974742Y28119335D01*
X131974742Y28299402D01*
X131974742Y28479469D01*
X132101848Y28479469D01*
X132228954Y28479469D01*
X132228954Y28299402D01*
G37*
G36*
X132228954Y27769794D02*
G01*
X132228954Y27589727D01*
X132101848Y27589727D01*
X131974742Y27589727D01*
X131974742Y27769794D01*
X131974742Y27949861D01*
X132101848Y27949861D01*
X132228954Y27949861D01*
X132228954Y27769794D01*
G37*
G36*
X132228954Y27240186D02*
G01*
X132228954Y27060119D01*
X132101848Y27060119D01*
X131974742Y27060119D01*
X131974742Y27240186D01*
X131974742Y27420253D01*
X132101848Y27420253D01*
X132228954Y27420253D01*
X132228954Y27240186D01*
G37*
G36*
X132228954Y26435182D02*
G01*
X132228954Y26255115D01*
X132101848Y26255115D01*
X131974742Y26255115D01*
X131974742Y26435182D01*
X131974742Y26615249D01*
X132101848Y26615249D01*
X132228954Y26615249D01*
X132228954Y26435182D01*
G37*
G36*
X132228954Y25894982D02*
G01*
X132228954Y25725507D01*
X132101848Y25725507D01*
X131974742Y25725507D01*
X131974742Y25894982D01*
X131974742Y26064456D01*
X132101848Y26064456D01*
X132228954Y26064456D01*
X132228954Y25894982D01*
G37*
G36*
X132228954Y25354781D02*
G01*
X132228954Y25174715D01*
X132101848Y25174715D01*
X131974742Y25174715D01*
X131974742Y25354781D01*
X131974742Y25534848D01*
X132101848Y25534848D01*
X132228954Y25534848D01*
X132228954Y25354781D01*
G37*
G36*
X10362Y25051527D02*
G01*
X12191Y25020160D01*
X14883Y24911953D01*
X14713Y24793905D01*
X12137Y24702395D01*
X9720Y24669842D01*
X7649Y24676387D01*
X6065Y24718764D01*
X5113Y24793702D01*
X4899Y24867542D01*
X5326Y24963271D01*
X6474Y25027836D01*
X8200Y25058249D01*
X10362Y25051527D01*
G37*
G36*
X10362Y19225839D02*
G01*
X12191Y19194472D01*
X14883Y19086265D01*
X14713Y18968217D01*
X12137Y18876707D01*
X9720Y18844154D01*
X7649Y18850699D01*
X6065Y18893076D01*
X5113Y18968014D01*
X4899Y19041854D01*
X5326Y19137583D01*
X6474Y19202147D01*
X8200Y19232561D01*
X10362Y19225839D01*
G37*
G36*
X10362Y16302403D02*
G01*
X12191Y16271036D01*
X14883Y16162829D01*
X14713Y16044781D01*
X12137Y15953271D01*
X9720Y15920717D01*
X7649Y15927263D01*
X6065Y15969640D01*
X5113Y16044578D01*
X4899Y16118418D01*
X5326Y16214147D01*
X6474Y16278711D01*
X8200Y16309125D01*
X10362Y16302403D01*
G37*
G36*
X10362Y13400151D02*
G01*
X12191Y13368784D01*
X14883Y13260577D01*
X14713Y13142529D01*
X12137Y13051019D01*
X9720Y13018466D01*
X7649Y13025011D01*
X6065Y13067388D01*
X5113Y13142326D01*
X4899Y13216166D01*
X5326Y13311895D01*
X6474Y13376459D01*
X8200Y13406873D01*
X10362Y13400151D01*
G37*
G36*
X10362Y10476715D02*
G01*
X12191Y10445348D01*
X14883Y10337141D01*
X14713Y10219093D01*
X12137Y10127583D01*
X9720Y10095029D01*
X7649Y10101575D01*
X6065Y10143952D01*
X5113Y10218890D01*
X4899Y10292730D01*
X5326Y10388459D01*
X6474Y10453023D01*
X8200Y10483437D01*
X10362Y10476715D01*
G37*
G36*
X10362Y7574463D02*
G01*
X12191Y7543096D01*
X14883Y7434889D01*
X14713Y7316841D01*
X12137Y7225331D01*
X9720Y7192777D01*
X7649Y7199323D01*
X6065Y7241700D01*
X5113Y7316638D01*
X4899Y7390478D01*
X5326Y7486207D01*
X6474Y7550771D01*
X8200Y7581185D01*
X10362Y7574463D01*
G37*
G36*
X10362Y4651027D02*
G01*
X12191Y4619660D01*
X14883Y4511453D01*
X14713Y4393405D01*
X12137Y4301895D01*
X9720Y4269341D01*
X7649Y4275887D01*
X6065Y4318263D01*
X5113Y4393202D01*
X4899Y4467042D01*
X5326Y4562771D01*
X6474Y4627335D01*
X8200Y4657749D01*
X10362Y4651027D01*
G37*
G36*
X10491Y27960860D02*
G01*
X12156Y27933972D01*
X14942Y27826224D01*
X14568Y27706809D01*
X12156Y27626800D01*
X9696Y27593116D01*
X7588Y27598620D01*
X5985Y27640134D01*
X5038Y27714477D01*
X4845Y27780386D01*
X5274Y27874763D01*
X6459Y27938420D01*
X8248Y27968180D01*
X10491Y27960860D01*
G37*
G36*
X10491Y22135172D02*
G01*
X12156Y22108284D01*
X14942Y22000536D01*
X14568Y21881121D01*
X12156Y21801112D01*
X9696Y21767428D01*
X7588Y21772932D01*
X5985Y21814446D01*
X5038Y21888789D01*
X4845Y21954698D01*
X5274Y22049075D01*
X6459Y22112732D01*
X8248Y22142491D01*
X10491Y22135172D01*
G37*
G36*
X132228954Y6754948D02*
G01*
X132228592Y6586351D01*
X132227562Y6432069D01*
X132225954Y6297003D01*
X132223853Y6186052D01*
X132221347Y6104116D01*
X132218523Y6056097D01*
X132216326Y6045274D01*
X132190583Y6050749D01*
X132137404Y6064875D01*
X132088906Y6078645D01*
X132020477Y6096768D01*
X131974650Y6101049D01*
X131933820Y6091008D01*
X131894987Y6073348D01*
X131842269Y6041642D01*
X131819627Y6006964D01*
X131815860Y5971414D01*
X131821047Y5933533D01*
X131840263Y5904535D01*
X131878988Y5882445D01*
X131942703Y5865288D01*
X132036890Y5851087D01*
X132167029Y5837869D01*
X132192638Y5835619D01*
X132356312Y5817552D01*
X132483946Y5793209D01*
X132581734Y5759682D01*
X132655870Y5714059D01*
X132712550Y5653430D01*
X132757968Y5574884D01*
X132760891Y5568626D01*
X132795156Y5448187D01*
X132790773Y5328023D01*
X132751037Y5214387D01*
X132679247Y5113534D01*
X132578697Y5031718D01*
X132452685Y4975192D01*
X132447229Y4973565D01*
X132352174Y4954462D01*
X132258738Y4956823D01*
X132153291Y4981988D01*
X132074583Y5010142D01*
X131968103Y5040036D01*
X131875570Y5044019D01*
X131803005Y5023668D01*
X131756432Y4980561D01*
X131741715Y4922993D01*
X131751450Y4885622D01*
X131783757Y4856229D01*
X131843282Y4833173D01*
X131934675Y4814813D01*
X132062584Y4799509D01*
X132101848Y4795876D01*
X132210958Y4784922D01*
X132311410Y4772493D01*
X132391944Y4760129D01*
X132440797Y4749526D01*
X132555704Y4694121D01*
X132645227Y4611053D01*
X132705724Y4507821D01*
X132733552Y4391922D01*
X132725067Y4270853D01*
X132704477Y4206853D01*
X132634523Y4091835D01*
X132529924Y4000000D01*
X132451389Y3956146D01*
X132342557Y3917353D01*
X132236018Y3909029D01*
X132118263Y3930889D01*
X132064980Y3948026D01*
X131929728Y3983996D01*
X131819969Y3988136D01*
X131736751Y3960472D01*
X131708975Y3938397D01*
X131665124Y3884017D01*
X131654369Y3839650D01*
X131678492Y3804040D01*
X131739275Y3775930D01*
X131838501Y3754067D01*
X131977952Y3737193D01*
X131997003Y3735485D01*
X132156391Y3719460D01*
X132280205Y3701260D01*
X132375237Y3678840D01*
X132448280Y3650156D01*
X132506128Y3613167D01*
X132553553Y3568078D01*
X132629453Y3458077D01*
X132663329Y3342887D01*
X132655151Y3222952D01*
X132604888Y3098719D01*
X132588172Y3070846D01*
X132518177Y2980275D01*
X132441196Y2924706D01*
X132346555Y2896934D01*
X132326678Y2894315D01*
X132234354Y2883908D01*
X132221829Y2732773D01*
X132217947Y2678371D01*
X132212176Y2587165D01*
X132204834Y2464659D01*
X132196238Y2316359D01*
X132186707Y2147770D01*
X132176558Y1964400D01*
X132166109Y1771753D01*
X132162969Y1713080D01*
X132152659Y1525293D01*
X132142513Y1350722D01*
X132132836Y1193894D01*
X132123931Y1059333D01*
X132116105Y951567D01*
X132109661Y875119D01*
X132104905Y834515D01*
X132103455Y829204D01*
X132099734Y846624D01*
X132094052Y902415D01*
X132086680Y992642D01*
X132077892Y1113366D01*
X132067961Y1260650D01*
X132057160Y1430556D01*
X132045761Y1619147D01*
X132034037Y1822486D01*
X132031567Y1866568D01*
X132016409Y2130273D01*
X132002334Y2358655D01*
X131989429Y2550591D01*
X131977781Y2704957D01*
X131967474Y2820630D01*
X131958597Y2896485D01*
X131951234Y2931399D01*
X131949684Y2933572D01*
X131940484Y2959312D01*
X131951863Y3015413D01*
X131965612Y3056631D01*
X131992458Y3121279D01*
X132015432Y3150613D01*
X132037393Y3151629D01*
X132077465Y3141166D01*
X132140410Y3130804D01*
X132169725Y3127263D01*
X132234956Y3123764D01*
X132278670Y3135276D01*
X132320868Y3168366D01*
X132333903Y3181159D01*
X132375922Y3235140D01*
X132397478Y3286959D01*
X132398428Y3296991D01*
X132388078Y3348879D01*
X132353651Y3387458D01*
X132290085Y3415386D01*
X132192315Y3435325D01*
X132118064Y3444264D01*
X131945908Y3463077D01*
X131810169Y3481828D01*
X131704940Y3502405D01*
X131624315Y3526695D01*
X131562386Y3556585D01*
X131513248Y3593963D01*
X131470992Y3640716D01*
X131460641Y3654321D01*
X131425096Y3730211D01*
X131407833Y3826893D01*
X131411033Y3925970D01*
X131422559Y3975589D01*
X131471258Y4064407D01*
X131550365Y4145359D01*
X131647971Y4208559D01*
X131744297Y4242615D01*
X131872735Y4253595D01*
X132013562Y4240713D01*
X132145619Y4205979D01*
X132150892Y4203982D01*
X132246743Y4182916D01*
X132332514Y4192539D01*
X132401277Y4228376D01*
X132446103Y4285952D01*
X132460063Y4360792D01*
X132454194Y4399857D01*
X132437137Y4435697D01*
X132402510Y4463338D01*
X132344586Y4484660D01*
X132257637Y4501545D01*
X132135934Y4515873D01*
X132087257Y4520353D01*
X131960615Y4532041D01*
X131867338Y4542703D01*
X131798518Y4554205D01*
X131745249Y4568418D01*
X131698627Y4587209D01*
X131650635Y4611959D01*
X131558941Y4683590D01*
X131500275Y4775165D01*
X131475249Y4879345D01*
X131484473Y4988791D01*
X131528560Y5096166D01*
X131602554Y5188862D01*
X131690834Y5258384D01*
X131785695Y5299764D01*
X131893581Y5313629D01*
X132020936Y5300609D01*
X132174204Y5261333D01*
X132214084Y5248557D01*
X132316410Y5229606D01*
X132405176Y5241164D01*
X132473789Y5279974D01*
X132515653Y5342780D01*
X132525534Y5402356D01*
X132518624Y5451823D01*
X132494186Y5488907D01*
X132446660Y5516240D01*
X132370487Y5536456D01*
X132260106Y5552187D01*
X132195270Y5558738D01*
X132059602Y5571989D01*
X131958135Y5583884D01*
X131882802Y5595932D01*
X131825530Y5609642D01*
X131778252Y5626524D01*
X131741715Y5643574D01*
X131639641Y5715479D01*
X131572344Y5806676D01*
X131540842Y5910851D01*
X131546154Y6021694D01*
X131589298Y6132892D01*
X131649449Y6215350D01*
X131723363Y6280426D01*
X131798353Y6310101D01*
X131801895Y6310699D01*
X131868107Y6321888D01*
X131924034Y6332268D01*
X131927077Y6332886D01*
X131974742Y6342661D01*
X131974742Y6903642D01*
X131974742Y7464623D01*
X132101848Y7464623D01*
X132228954Y7464623D01*
X132228954Y6754948D01*
G37*
%TD*%
M02*
