%TF.GenerationSoftware,KiCad,Pcbnew,7.0.2-0*%
%TF.CreationDate,2023-05-18T01:18:26+02:00*%
%TF.ProjectId,LG,4c472e6b-6963-4616-945f-706362585858,rev?*%
%TF.SameCoordinates,PXfd9f08PY7735940*%
%TF.FileFunction,Drillmap*%
%TF.FilePolarity,Positive*%
%FSLAX45Y45*%
G04 Gerber Fmt 4.5, Leading zero omitted, Abs format (unit mm)*
G04 Created by KiCad (PCBNEW 7.0.2-0) date 2023-05-18 01:18:26*
%MOMM*%
%LPD*%
G01*
G04 APERTURE LIST*
%ADD10C,0.500000*%
%ADD11C,0.200000*%
G04 APERTURE END LIST*
D10*
X15858746Y2290419D02*
G75*
G03*
X15808742Y2340419I-50149J-149D01*
G01*
X18672886Y822368D02*
X18145236Y1349985D01*
X87868Y3111617D02*
G75*
G03*
X-257Y2899743I211226J-212120D01*
G01*
X9202595Y1996219D02*
G75*
G03*
X8997673Y2081258I-204687J-203819D01*
G01*
X17753942Y1168497D02*
X17444641Y1168497D01*
X9237329Y1791284D02*
G75*
G03*
X8997673Y2031011I-239941J-214D01*
G01*
X17205005Y1408207D02*
G75*
G03*
X17444641Y1168497I239903J193D01*
G01*
X19150874Y2018247D02*
X19750872Y2018247D01*
X8387632Y1306129D02*
X8387632Y1752217D01*
X9112498Y1130983D02*
G75*
G03*
X9287595Y1306129I-210J175307D01*
G01*
X19150874Y2018249D02*
G75*
G03*
X19026059Y1893379I164J-124979D01*
G01*
X22785260Y1474730D02*
X22785260Y525270D01*
X7769427Y2377140D02*
X8297078Y1849506D01*
X-257Y299743D02*
X-257Y2899743D01*
X17444641Y1118233D02*
X17753942Y1118233D01*
X18142376Y786815D02*
G75*
G03*
X18177929Y786815I17777J17863D01*
G01*
X19265699Y1118233D02*
X19575000Y1118233D01*
X19875715Y1893379D02*
G75*
G03*
X19750872Y2018247I-124967J-100D01*
G01*
X18104965Y1447274D02*
G75*
G03*
X18145236Y1349985I136534J-464D01*
G01*
X10590742Y2340419D02*
X15808742Y2340419D01*
X23739730Y500270D02*
X23764740Y525270D01*
X8332632Y1885060D02*
X7804981Y2412693D01*
X17154702Y1893379D02*
X17154702Y1408207D01*
X9287595Y1306129D02*
X9287595Y1791284D01*
X26099740Y-257D02*
X299743Y-257D01*
X19926025Y1447274D02*
G75*
G03*
X19966294Y1349985I136563J-454D01*
G01*
X22810269Y500270D02*
X22785260Y525270D01*
X20458393Y786816D02*
G75*
G03*
X20476168Y779442I17645J17424D01*
G01*
X17239717Y1203272D02*
G75*
G03*
X17444641Y1118233I204741J203948D01*
G01*
X18655110Y779443D02*
G75*
G03*
X18672886Y786815I-12J25147D01*
G01*
X18104962Y1447274D02*
X18104962Y1893379D01*
X26311614Y87868D02*
G75*
G03*
X26399740Y299743I-211207J212112D01*
G01*
X17929814Y2068511D02*
X17329816Y2068511D01*
X17154699Y1408207D02*
G75*
G03*
X17239717Y1203272I289129J-157D01*
G01*
X8512500Y1130980D02*
X9112498Y1130980D01*
X8591085Y2121533D02*
G75*
G03*
X8688372Y2081258I96953J96557D01*
G01*
X299743Y3199743D02*
X26099740Y3199743D01*
X19930741Y1314431D02*
X20458391Y786815D01*
X26399744Y2899743D02*
G75*
G03*
X26311615Y3111618I-298736J7D01*
G01*
X7769424Y2412697D02*
G75*
G03*
X7769427Y2377140I17824J-17777D01*
G01*
X8299937Y2412693D02*
G75*
G03*
X8264384Y2412693I-17777J-17863D01*
G01*
X8387636Y1306129D02*
G75*
G03*
X8512500Y1181278I124992J141D01*
G01*
X26399740Y2899743D02*
X26399740Y299743D01*
X8264381Y2412697D02*
G75*
G03*
X8264384Y2377140I17827J-17777D01*
G01*
X22810269Y500270D02*
X23739730Y500270D01*
X17205000Y1408207D02*
X17205000Y1893379D01*
X87869Y87869D02*
G75*
G03*
X299743Y-257I212119J211221D01*
G01*
X8997673Y2081258D02*
X8688372Y2081258D01*
X17886786Y1113514D02*
G75*
G03*
X17753942Y1168497I-132258J-131574D01*
G01*
X18054662Y1447274D02*
G75*
G03*
X18109682Y1314431I186326J-644D01*
G01*
X19575000Y1168497D02*
X19265699Y1168497D01*
X19875722Y1893379D02*
X19875722Y1447274D01*
X19998989Y786813D02*
G75*
G03*
X19998988Y822368I-17861J17777D01*
G01*
X23739730Y1499730D02*
X22810269Y1499730D01*
X18672888Y786813D02*
G75*
G03*
X18672886Y822368I-17860J17777D01*
G01*
X18975761Y1408207D02*
G75*
G03*
X19060776Y1203272I289087J-177D01*
G01*
X9237331Y1791284D02*
X9237331Y1306129D01*
X7804981Y2412693D02*
G75*
G03*
X7769427Y2412693I-17777J-18684D01*
G01*
X19026059Y1408207D02*
X19026059Y1893379D01*
X8555532Y2085980D02*
G75*
G03*
X8688372Y2031011I132356J131860D01*
G01*
X8387631Y1752217D02*
G75*
G03*
X8332631Y1885059I-186643J533D01*
G01*
X8337368Y1306129D02*
G75*
G03*
X8512500Y1130980I175330J181D01*
G01*
X17851230Y1077959D02*
G75*
G03*
X17753942Y1118233I-96952J-96559D01*
G01*
X18975760Y1893379D02*
X18975760Y1408207D01*
X23764740Y525270D02*
X23764740Y1474730D01*
X10540742Y912418D02*
X10540742Y2290419D01*
X17329816Y2018248D02*
G75*
G03*
X17205000Y1893379I152J-124968D01*
G01*
X10590742Y2340416D02*
G75*
G03*
X10540742Y2290419I146J-50146D01*
G01*
X19750872Y2068511D02*
X19150874Y2068511D01*
X23764740Y1474730D02*
X23739730Y1499730D01*
X8264384Y2377140D02*
X8555529Y2085978D01*
X26311614Y3111617D02*
G75*
G03*
X26099740Y3199742I-212116J-211217D01*
G01*
X18109682Y1314431D02*
X18637333Y786815D01*
X18177930Y822368D02*
X17886784Y1113513D01*
X17329816Y2018247D02*
X17929814Y2018247D01*
X8591083Y2121531D02*
X8299938Y2412693D01*
X8337369Y1752217D02*
X8337369Y1306129D01*
X19926021Y1447274D02*
X19926021Y1893379D01*
X19672290Y1077960D02*
X19963435Y786815D01*
X20493946Y786813D02*
G75*
G03*
X20493945Y822368I-17858J17777D01*
G01*
X-257Y299743D02*
G75*
G03*
X87868Y87868I298755J-3D01*
G01*
X17851231Y1077960D02*
X18142376Y786815D01*
X18054664Y1893379D02*
X18054664Y1447274D01*
X19875724Y1447274D02*
G75*
G03*
X19930741Y1314431I186285J-664D01*
G01*
X20493945Y822368D02*
X19966294Y1349985D01*
X8337372Y1752217D02*
G75*
G03*
X8297078Y1849506I-136434J483D01*
G01*
X9112498Y1181278D02*
X8512500Y1181278D01*
X19672290Y1077960D02*
G75*
G03*
X19575000Y1118233I-96952J-96560D01*
G01*
X18177931Y786813D02*
G75*
G03*
X18177930Y822368I-17863J17777D01*
G01*
X18054665Y1893379D02*
G75*
G03*
X17929814Y2018247I-124977J-110D01*
G01*
X9112498Y1181277D02*
G75*
G03*
X9237331Y1306129I-130J124963D01*
G01*
X22785260Y1474730D02*
X22810269Y1499730D01*
X15808742Y862418D02*
X10590742Y862418D01*
X19998988Y822368D02*
X19707843Y1113513D01*
X19926029Y1893379D02*
G75*
G03*
X19750872Y2068511I-175361J-230D01*
G01*
X18104959Y1893379D02*
G75*
G03*
X17929814Y2068511I-175361J-230D01*
G01*
X15858742Y2290419D02*
X15858742Y912418D01*
X10540737Y912418D02*
G75*
G03*
X10590742Y862418I50152J152D01*
G01*
X15808742Y862416D02*
G75*
G03*
X15858742Y912418I-144J50144D01*
G01*
X19026065Y1408207D02*
G75*
G03*
X19265699Y1168497I239923J213D01*
G01*
X299743Y3199745D02*
G75*
G03*
X87868Y3111618I-5J-298745D01*
G01*
X8688372Y2031011D02*
X8997673Y2031011D01*
X9287591Y1791284D02*
G75*
G03*
X9202595Y1996219I-288963J246D01*
G01*
X20476168Y779442D02*
G75*
G03*
X20493945Y786815I0J25118D01*
G01*
X19150874Y2068508D02*
G75*
G03*
X18975760Y1893379I204J-175318D01*
G01*
X26099740Y-257D02*
G75*
G03*
X26311615Y87868I-2J298767D01*
G01*
X19707845Y1113515D02*
G75*
G03*
X19575000Y1168497I-132257J-131575D01*
G01*
X19963435Y786815D02*
G75*
G03*
X19998988Y786815I17777J17863D01*
G01*
X17329816Y2068506D02*
G75*
G03*
X17154702Y1893379I202J-175316D01*
G01*
X18637334Y786816D02*
G75*
G03*
X18655110Y779442I17644J17424D01*
G01*
X19060777Y1203273D02*
G75*
G03*
X19265699Y1118233I204741J203947D01*
G01*
D11*
X250000Y2950000D02*
X450000Y2750000D01*
X450000Y2950000D02*
X250000Y2750000D01*
X250000Y450000D02*
X450000Y250000D01*
X450000Y450000D02*
X250000Y250000D01*
X8700000Y2950000D02*
X8900000Y2750000D01*
X8900000Y2950000D02*
X8700000Y2750000D01*
X8700000Y450000D02*
X8900000Y250000D01*
X8900000Y450000D02*
X8700000Y250000D01*
X17500000Y2950000D02*
X17700000Y2750000D01*
X17700000Y2950000D02*
X17500000Y2750000D01*
X17500000Y452870D02*
X17700000Y252870D01*
X17700000Y452870D02*
X17500000Y252870D01*
X25950000Y2950000D02*
X26150000Y2750000D01*
X26150000Y2950000D02*
X25950000Y2750000D01*
X25950000Y450000D02*
X26150000Y250000D01*
X26150000Y450000D02*
X25950000Y250000D01*
X222362Y-337781D02*
X222362Y-137781D01*
X222362Y-137781D02*
X269981Y-137781D01*
X269981Y-137781D02*
X298552Y-147305D01*
X298552Y-147305D02*
X317600Y-166352D01*
X317600Y-166352D02*
X327124Y-185400D01*
X327124Y-185400D02*
X336647Y-223495D01*
X336647Y-223495D02*
X336647Y-252066D01*
X336647Y-252066D02*
X327124Y-290162D01*
X327124Y-290162D02*
X317600Y-309209D01*
X317600Y-309209D02*
X298552Y-328257D01*
X298552Y-328257D02*
X269981Y-337781D01*
X269981Y-337781D02*
X222362Y-337781D01*
X422362Y-337781D02*
X422362Y-204447D01*
X422362Y-242543D02*
X431885Y-223495D01*
X431885Y-223495D02*
X441409Y-213971D01*
X441409Y-213971D02*
X460457Y-204447D01*
X460457Y-204447D02*
X479505Y-204447D01*
X546171Y-337781D02*
X546171Y-204447D01*
X546171Y-137781D02*
X536647Y-147305D01*
X536647Y-147305D02*
X546171Y-156828D01*
X546171Y-156828D02*
X555695Y-147305D01*
X555695Y-147305D02*
X546171Y-137781D01*
X546171Y-137781D02*
X546171Y-156828D01*
X669981Y-337781D02*
X650933Y-328257D01*
X650933Y-328257D02*
X641409Y-309209D01*
X641409Y-309209D02*
X641409Y-137781D01*
X774743Y-337781D02*
X755695Y-328257D01*
X755695Y-328257D02*
X746171Y-309209D01*
X746171Y-309209D02*
X746171Y-137781D01*
X1003314Y-337781D02*
X1003314Y-137781D01*
X1003314Y-137781D02*
X1069981Y-280638D01*
X1069981Y-280638D02*
X1136647Y-137781D01*
X1136647Y-137781D02*
X1136647Y-337781D01*
X1317600Y-337781D02*
X1317600Y-233019D01*
X1317600Y-233019D02*
X1308076Y-213971D01*
X1308076Y-213971D02*
X1289028Y-204447D01*
X1289028Y-204447D02*
X1250933Y-204447D01*
X1250933Y-204447D02*
X1231886Y-213971D01*
X1317600Y-328257D02*
X1298552Y-337781D01*
X1298552Y-337781D02*
X1250933Y-337781D01*
X1250933Y-337781D02*
X1231886Y-328257D01*
X1231886Y-328257D02*
X1222362Y-309209D01*
X1222362Y-309209D02*
X1222362Y-290162D01*
X1222362Y-290162D02*
X1231886Y-271114D01*
X1231886Y-271114D02*
X1250933Y-261590D01*
X1250933Y-261590D02*
X1298552Y-261590D01*
X1298552Y-261590D02*
X1317600Y-252066D01*
X1412838Y-204447D02*
X1412838Y-404447D01*
X1412838Y-213971D02*
X1431885Y-204447D01*
X1431885Y-204447D02*
X1469981Y-204447D01*
X1469981Y-204447D02*
X1489028Y-213971D01*
X1489028Y-213971D02*
X1498552Y-223495D01*
X1498552Y-223495D02*
X1508076Y-242543D01*
X1508076Y-242543D02*
X1508076Y-299686D01*
X1508076Y-299686D02*
X1498552Y-318733D01*
X1498552Y-318733D02*
X1489028Y-328257D01*
X1489028Y-328257D02*
X1469981Y-337781D01*
X1469981Y-337781D02*
X1431885Y-337781D01*
X1431885Y-337781D02*
X1412838Y-328257D01*
X1593790Y-318733D02*
X1603314Y-328257D01*
X1603314Y-328257D02*
X1593790Y-337781D01*
X1593790Y-337781D02*
X1584266Y-328257D01*
X1584266Y-328257D02*
X1593790Y-318733D01*
X1593790Y-318733D02*
X1593790Y-337781D01*
X1593790Y-213971D02*
X1603314Y-223495D01*
X1603314Y-223495D02*
X1593790Y-233019D01*
X1593790Y-233019D02*
X1584266Y-223495D01*
X1584266Y-223495D02*
X1593790Y-213971D01*
X1593790Y-213971D02*
X1593790Y-233019D01*
X-225257Y-565257D02*
X-25257Y-765257D01*
X-25257Y-565257D02*
X-225257Y-765257D01*
X212838Y-576828D02*
X222362Y-567305D01*
X222362Y-567305D02*
X241409Y-557781D01*
X241409Y-557781D02*
X289028Y-557781D01*
X289028Y-557781D02*
X308076Y-567305D01*
X308076Y-567305D02*
X317600Y-576828D01*
X317600Y-576828D02*
X327124Y-595876D01*
X327124Y-595876D02*
X327124Y-614924D01*
X327124Y-614924D02*
X317600Y-643495D01*
X317600Y-643495D02*
X203314Y-757781D01*
X203314Y-757781D02*
X327124Y-757781D01*
X412838Y-738733D02*
X422362Y-748257D01*
X422362Y-748257D02*
X412838Y-757781D01*
X412838Y-757781D02*
X403314Y-748257D01*
X403314Y-748257D02*
X412838Y-738733D01*
X412838Y-738733D02*
X412838Y-757781D01*
X546171Y-557781D02*
X565219Y-557781D01*
X565219Y-557781D02*
X584267Y-567305D01*
X584267Y-567305D02*
X593790Y-576828D01*
X593790Y-576828D02*
X603314Y-595876D01*
X603314Y-595876D02*
X612838Y-633971D01*
X612838Y-633971D02*
X612838Y-681590D01*
X612838Y-681590D02*
X603314Y-719685D01*
X603314Y-719685D02*
X593790Y-738733D01*
X593790Y-738733D02*
X584267Y-748257D01*
X584267Y-748257D02*
X565219Y-757781D01*
X565219Y-757781D02*
X546171Y-757781D01*
X546171Y-757781D02*
X527124Y-748257D01*
X527124Y-748257D02*
X517600Y-738733D01*
X517600Y-738733D02*
X508076Y-719685D01*
X508076Y-719685D02*
X498552Y-681590D01*
X498552Y-681590D02*
X498552Y-633971D01*
X498552Y-633971D02*
X508076Y-595876D01*
X508076Y-595876D02*
X517600Y-576828D01*
X517600Y-576828D02*
X527124Y-567305D01*
X527124Y-567305D02*
X546171Y-557781D01*
X736647Y-557781D02*
X755695Y-557781D01*
X755695Y-557781D02*
X774743Y-567305D01*
X774743Y-567305D02*
X784266Y-576828D01*
X784266Y-576828D02*
X793790Y-595876D01*
X793790Y-595876D02*
X803314Y-633971D01*
X803314Y-633971D02*
X803314Y-681590D01*
X803314Y-681590D02*
X793790Y-719685D01*
X793790Y-719685D02*
X784266Y-738733D01*
X784266Y-738733D02*
X774743Y-748257D01*
X774743Y-748257D02*
X755695Y-757781D01*
X755695Y-757781D02*
X736647Y-757781D01*
X736647Y-757781D02*
X717600Y-748257D01*
X717600Y-748257D02*
X708076Y-738733D01*
X708076Y-738733D02*
X698552Y-719685D01*
X698552Y-719685D02*
X689028Y-681590D01*
X689028Y-681590D02*
X689028Y-633971D01*
X689028Y-633971D02*
X698552Y-595876D01*
X698552Y-595876D02*
X708076Y-576828D01*
X708076Y-576828D02*
X717600Y-567305D01*
X717600Y-567305D02*
X736647Y-557781D01*
X927124Y-557781D02*
X946171Y-557781D01*
X946171Y-557781D02*
X965219Y-567305D01*
X965219Y-567305D02*
X974743Y-576828D01*
X974743Y-576828D02*
X984266Y-595876D01*
X984266Y-595876D02*
X993790Y-633971D01*
X993790Y-633971D02*
X993790Y-681590D01*
X993790Y-681590D02*
X984266Y-719685D01*
X984266Y-719685D02*
X974743Y-738733D01*
X974743Y-738733D02*
X965219Y-748257D01*
X965219Y-748257D02*
X946171Y-757781D01*
X946171Y-757781D02*
X927124Y-757781D01*
X927124Y-757781D02*
X908076Y-748257D01*
X908076Y-748257D02*
X898552Y-738733D01*
X898552Y-738733D02*
X889028Y-719685D01*
X889028Y-719685D02*
X879505Y-681590D01*
X879505Y-681590D02*
X879505Y-633971D01*
X879505Y-633971D02*
X889028Y-595876D01*
X889028Y-595876D02*
X898552Y-576828D01*
X898552Y-576828D02*
X908076Y-567305D01*
X908076Y-567305D02*
X927124Y-557781D01*
X1079505Y-757781D02*
X1079505Y-624447D01*
X1079505Y-643495D02*
X1089028Y-633971D01*
X1089028Y-633971D02*
X1108076Y-624447D01*
X1108076Y-624447D02*
X1136648Y-624447D01*
X1136648Y-624447D02*
X1155695Y-633971D01*
X1155695Y-633971D02*
X1165219Y-653019D01*
X1165219Y-653019D02*
X1165219Y-757781D01*
X1165219Y-653019D02*
X1174743Y-633971D01*
X1174743Y-633971D02*
X1193790Y-624447D01*
X1193790Y-624447D02*
X1222362Y-624447D01*
X1222362Y-624447D02*
X1241409Y-633971D01*
X1241409Y-633971D02*
X1250933Y-653019D01*
X1250933Y-653019D02*
X1250933Y-757781D01*
X1346171Y-757781D02*
X1346171Y-624447D01*
X1346171Y-643495D02*
X1355695Y-633971D01*
X1355695Y-633971D02*
X1374743Y-624447D01*
X1374743Y-624447D02*
X1403314Y-624447D01*
X1403314Y-624447D02*
X1422362Y-633971D01*
X1422362Y-633971D02*
X1431886Y-653019D01*
X1431886Y-653019D02*
X1431886Y-757781D01*
X1431886Y-653019D02*
X1441409Y-633971D01*
X1441409Y-633971D02*
X1460457Y-624447D01*
X1460457Y-624447D02*
X1489028Y-624447D01*
X1489028Y-624447D02*
X1508076Y-633971D01*
X1508076Y-633971D02*
X1517600Y-653019D01*
X1517600Y-653019D02*
X1517600Y-757781D01*
X1908076Y-548257D02*
X1736648Y-805400D01*
X2165219Y-557781D02*
X2184267Y-557781D01*
X2184267Y-557781D02*
X2203314Y-567305D01*
X2203314Y-567305D02*
X2212838Y-576828D01*
X2212838Y-576828D02*
X2222362Y-595876D01*
X2222362Y-595876D02*
X2231886Y-633971D01*
X2231886Y-633971D02*
X2231886Y-681590D01*
X2231886Y-681590D02*
X2222362Y-719685D01*
X2222362Y-719685D02*
X2212838Y-738733D01*
X2212838Y-738733D02*
X2203314Y-748257D01*
X2203314Y-748257D02*
X2184267Y-757781D01*
X2184267Y-757781D02*
X2165219Y-757781D01*
X2165219Y-757781D02*
X2146171Y-748257D01*
X2146171Y-748257D02*
X2136648Y-738733D01*
X2136648Y-738733D02*
X2127124Y-719685D01*
X2127124Y-719685D02*
X2117600Y-681590D01*
X2117600Y-681590D02*
X2117600Y-633971D01*
X2117600Y-633971D02*
X2127124Y-595876D01*
X2127124Y-595876D02*
X2136648Y-576828D01*
X2136648Y-576828D02*
X2146171Y-567305D01*
X2146171Y-567305D02*
X2165219Y-557781D01*
X2317600Y-738733D02*
X2327124Y-748257D01*
X2327124Y-748257D02*
X2317600Y-757781D01*
X2317600Y-757781D02*
X2308076Y-748257D01*
X2308076Y-748257D02*
X2317600Y-738733D01*
X2317600Y-738733D02*
X2317600Y-757781D01*
X2450933Y-557781D02*
X2469981Y-557781D01*
X2469981Y-557781D02*
X2489029Y-567305D01*
X2489029Y-567305D02*
X2498552Y-576828D01*
X2498552Y-576828D02*
X2508076Y-595876D01*
X2508076Y-595876D02*
X2517600Y-633971D01*
X2517600Y-633971D02*
X2517600Y-681590D01*
X2517600Y-681590D02*
X2508076Y-719685D01*
X2508076Y-719685D02*
X2498552Y-738733D01*
X2498552Y-738733D02*
X2489029Y-748257D01*
X2489029Y-748257D02*
X2469981Y-757781D01*
X2469981Y-757781D02*
X2450933Y-757781D01*
X2450933Y-757781D02*
X2431886Y-748257D01*
X2431886Y-748257D02*
X2422362Y-738733D01*
X2422362Y-738733D02*
X2412838Y-719685D01*
X2412838Y-719685D02*
X2403314Y-681590D01*
X2403314Y-681590D02*
X2403314Y-633971D01*
X2403314Y-633971D02*
X2412838Y-595876D01*
X2412838Y-595876D02*
X2422362Y-576828D01*
X2422362Y-576828D02*
X2431886Y-567305D01*
X2431886Y-567305D02*
X2450933Y-557781D01*
X2584267Y-557781D02*
X2717600Y-557781D01*
X2717600Y-557781D02*
X2631886Y-757781D01*
X2822362Y-643495D02*
X2803314Y-633971D01*
X2803314Y-633971D02*
X2793791Y-624447D01*
X2793791Y-624447D02*
X2784267Y-605400D01*
X2784267Y-605400D02*
X2784267Y-595876D01*
X2784267Y-595876D02*
X2793791Y-576828D01*
X2793791Y-576828D02*
X2803314Y-567305D01*
X2803314Y-567305D02*
X2822362Y-557781D01*
X2822362Y-557781D02*
X2860457Y-557781D01*
X2860457Y-557781D02*
X2879505Y-567305D01*
X2879505Y-567305D02*
X2889029Y-576828D01*
X2889029Y-576828D02*
X2898552Y-595876D01*
X2898552Y-595876D02*
X2898552Y-605400D01*
X2898552Y-605400D02*
X2889029Y-624447D01*
X2889029Y-624447D02*
X2879505Y-633971D01*
X2879505Y-633971D02*
X2860457Y-643495D01*
X2860457Y-643495D02*
X2822362Y-643495D01*
X2822362Y-643495D02*
X2803314Y-653019D01*
X2803314Y-653019D02*
X2793791Y-662543D01*
X2793791Y-662543D02*
X2784267Y-681590D01*
X2784267Y-681590D02*
X2784267Y-719685D01*
X2784267Y-719685D02*
X2793791Y-738733D01*
X2793791Y-738733D02*
X2803314Y-748257D01*
X2803314Y-748257D02*
X2822362Y-757781D01*
X2822362Y-757781D02*
X2860457Y-757781D01*
X2860457Y-757781D02*
X2879505Y-748257D01*
X2879505Y-748257D02*
X2889029Y-738733D01*
X2889029Y-738733D02*
X2898552Y-719685D01*
X2898552Y-719685D02*
X2898552Y-681590D01*
X2898552Y-681590D02*
X2889029Y-662543D01*
X2889029Y-662543D02*
X2879505Y-653019D01*
X2879505Y-653019D02*
X2860457Y-643495D01*
X2965219Y-557781D02*
X3098552Y-557781D01*
X3098552Y-557781D02*
X3012838Y-757781D01*
X3165219Y-557781D02*
X3165219Y-595876D01*
X3241410Y-557781D02*
X3241410Y-595876D01*
X3536648Y-833971D02*
X3527124Y-824447D01*
X3527124Y-824447D02*
X3508076Y-795876D01*
X3508076Y-795876D02*
X3498552Y-776828D01*
X3498552Y-776828D02*
X3489029Y-748257D01*
X3489029Y-748257D02*
X3479505Y-700638D01*
X3479505Y-700638D02*
X3479505Y-662543D01*
X3479505Y-662543D02*
X3489029Y-614924D01*
X3489029Y-614924D02*
X3498552Y-586352D01*
X3498552Y-586352D02*
X3508076Y-567305D01*
X3508076Y-567305D02*
X3527124Y-538733D01*
X3527124Y-538733D02*
X3536648Y-529209D01*
X3641410Y-643495D02*
X3622362Y-633971D01*
X3622362Y-633971D02*
X3612838Y-624447D01*
X3612838Y-624447D02*
X3603314Y-605400D01*
X3603314Y-605400D02*
X3603314Y-595876D01*
X3603314Y-595876D02*
X3612838Y-576828D01*
X3612838Y-576828D02*
X3622362Y-567305D01*
X3622362Y-567305D02*
X3641410Y-557781D01*
X3641410Y-557781D02*
X3679505Y-557781D01*
X3679505Y-557781D02*
X3698552Y-567305D01*
X3698552Y-567305D02*
X3708076Y-576828D01*
X3708076Y-576828D02*
X3717600Y-595876D01*
X3717600Y-595876D02*
X3717600Y-605400D01*
X3717600Y-605400D02*
X3708076Y-624447D01*
X3708076Y-624447D02*
X3698552Y-633971D01*
X3698552Y-633971D02*
X3679505Y-643495D01*
X3679505Y-643495D02*
X3641410Y-643495D01*
X3641410Y-643495D02*
X3622362Y-653019D01*
X3622362Y-653019D02*
X3612838Y-662543D01*
X3612838Y-662543D02*
X3603314Y-681590D01*
X3603314Y-681590D02*
X3603314Y-719685D01*
X3603314Y-719685D02*
X3612838Y-738733D01*
X3612838Y-738733D02*
X3622362Y-748257D01*
X3622362Y-748257D02*
X3641410Y-757781D01*
X3641410Y-757781D02*
X3679505Y-757781D01*
X3679505Y-757781D02*
X3698552Y-748257D01*
X3698552Y-748257D02*
X3708076Y-738733D01*
X3708076Y-738733D02*
X3717600Y-719685D01*
X3717600Y-719685D02*
X3717600Y-681590D01*
X3717600Y-681590D02*
X3708076Y-662543D01*
X3708076Y-662543D02*
X3698552Y-653019D01*
X3698552Y-653019D02*
X3679505Y-643495D01*
X3955695Y-757781D02*
X3955695Y-557781D01*
X4041410Y-757781D02*
X4041410Y-653019D01*
X4041410Y-653019D02*
X4031886Y-633971D01*
X4031886Y-633971D02*
X4012838Y-624447D01*
X4012838Y-624447D02*
X3984267Y-624447D01*
X3984267Y-624447D02*
X3965219Y-633971D01*
X3965219Y-633971D02*
X3955695Y-643495D01*
X4165219Y-757781D02*
X4146172Y-748257D01*
X4146172Y-748257D02*
X4136648Y-738733D01*
X4136648Y-738733D02*
X4127124Y-719685D01*
X4127124Y-719685D02*
X4127124Y-662543D01*
X4127124Y-662543D02*
X4136648Y-643495D01*
X4136648Y-643495D02*
X4146172Y-633971D01*
X4146172Y-633971D02*
X4165219Y-624447D01*
X4165219Y-624447D02*
X4193791Y-624447D01*
X4193791Y-624447D02*
X4212838Y-633971D01*
X4212838Y-633971D02*
X4222362Y-643495D01*
X4222362Y-643495D02*
X4231886Y-662543D01*
X4231886Y-662543D02*
X4231886Y-719685D01*
X4231886Y-719685D02*
X4222362Y-738733D01*
X4222362Y-738733D02*
X4212838Y-748257D01*
X4212838Y-748257D02*
X4193791Y-757781D01*
X4193791Y-757781D02*
X4165219Y-757781D01*
X4346172Y-757781D02*
X4327124Y-748257D01*
X4327124Y-748257D02*
X4317600Y-729209D01*
X4317600Y-729209D02*
X4317600Y-557781D01*
X4498553Y-748257D02*
X4479505Y-757781D01*
X4479505Y-757781D02*
X4441410Y-757781D01*
X4441410Y-757781D02*
X4422362Y-748257D01*
X4422362Y-748257D02*
X4412838Y-729209D01*
X4412838Y-729209D02*
X4412838Y-653019D01*
X4412838Y-653019D02*
X4422362Y-633971D01*
X4422362Y-633971D02*
X4441410Y-624447D01*
X4441410Y-624447D02*
X4479505Y-624447D01*
X4479505Y-624447D02*
X4498553Y-633971D01*
X4498553Y-633971D02*
X4508076Y-653019D01*
X4508076Y-653019D02*
X4508076Y-672067D01*
X4508076Y-672067D02*
X4412838Y-691114D01*
X4584267Y-748257D02*
X4603315Y-757781D01*
X4603315Y-757781D02*
X4641410Y-757781D01*
X4641410Y-757781D02*
X4660457Y-748257D01*
X4660457Y-748257D02*
X4669981Y-729209D01*
X4669981Y-729209D02*
X4669981Y-719685D01*
X4669981Y-719685D02*
X4660457Y-700638D01*
X4660457Y-700638D02*
X4641410Y-691114D01*
X4641410Y-691114D02*
X4612838Y-691114D01*
X4612838Y-691114D02*
X4593791Y-681590D01*
X4593791Y-681590D02*
X4584267Y-662543D01*
X4584267Y-662543D02*
X4584267Y-653019D01*
X4584267Y-653019D02*
X4593791Y-633971D01*
X4593791Y-633971D02*
X4612838Y-624447D01*
X4612838Y-624447D02*
X4641410Y-624447D01*
X4641410Y-624447D02*
X4660457Y-633971D01*
X4736648Y-833971D02*
X4746172Y-824447D01*
X4746172Y-824447D02*
X4765219Y-795876D01*
X4765219Y-795876D02*
X4774743Y-776828D01*
X4774743Y-776828D02*
X4784267Y-748257D01*
X4784267Y-748257D02*
X4793791Y-700638D01*
X4793791Y-700638D02*
X4793791Y-662543D01*
X4793791Y-662543D02*
X4784267Y-614924D01*
X4784267Y-614924D02*
X4774743Y-586352D01*
X4774743Y-586352D02*
X4765219Y-567305D01*
X4765219Y-567305D02*
X4746172Y-538733D01*
X4746172Y-538733D02*
X4736648Y-529209D01*
M02*
