<?xml version="1.0" standalone="no"?>
 <!DOCTYPE svg PUBLIC "-//W3C//DTD SVG 1.1//EN" 
 "http://www.w3.org/Graphics/SVG/1.1/DTD/svg11.dtd"> 
<svg
  xmlns:svg="http://www.w3.org/2000/svg"
  xmlns="http://www.w3.org/2000/svg"
  xmlns:xlink="http://www.w3.org/1999/xlink"
  version="1.1"
  width="26.449020cm" height="3.248660cm" viewBox="0 0 264490200 32486600">
<title>SVG Picture created as L5-brd.svg date 2023/02/09 21:32:50 </title>
  <desc>Picture generated by PCBNEW </desc>
<g style="fill:#000000; fill-opacity:1.000000;stroke:#000000; stroke-opacity:1.000000;
stroke-linecap:round; stroke-linejoin:round;"
 transform="translate(0 0) scale(1 1)">
</g>
<g style="fill:#000000; fill-opacity:0.0; 
stroke:#000000; stroke-width:0.000000; stroke-opacity:1; 
stroke-linecap:round; stroke-linejoin:round;">
<g >
</g>
<g style="fill:#000000; fill-opacity:1.0; 
stroke:#000000; stroke-width:1.000000; stroke-opacity:1; 
stroke-linecap:round; stroke-linejoin:round;">
<circle cx="88252570.000000" cy="3747426.000000" r="1500000.000000" /> 
</g>
<g style="fill:#000000; fill-opacity:1.0; 
stroke:#000000; stroke-width:21200.000000; stroke-opacity:1; 
stroke-linecap:round; stroke-linejoin:round;">
</g>
<g style="fill:#000000; fill-opacity:1.0; 
stroke:#000000; stroke-width:1.000000; stroke-opacity:1; 
stroke-linecap:round; stroke-linejoin:round;">
<circle cx="260752570.000000" cy="28747426.000000" r="1500000.000000" /> 
</g>
<g style="fill:#000000; fill-opacity:1.0; 
stroke:#000000; stroke-width:21200.000000; stroke-opacity:1; 
stroke-linecap:round; stroke-linejoin:round;">
</g>
<g style="fill:#000000; fill-opacity:1.0; 
stroke:#000000; stroke-width:1.000000; stroke-opacity:1; 
stroke-linecap:round; stroke-linejoin:round;">
<circle cx="88252570.000000" cy="28747426.000000" r="1500000.000000" /> 
</g>
<g style="fill:#000000; fill-opacity:1.0; 
stroke:#000000; stroke-width:21200.000000; stroke-opacity:1; 
stroke-linecap:round; stroke-linejoin:round;">
</g>
<g style="fill:#000000; fill-opacity:1.0; 
stroke:#000000; stroke-width:1.000000; stroke-opacity:1; 
stroke-linecap:round; stroke-linejoin:round;">
<circle cx="176252570.000000" cy="3747426.000000" r="1500000.000000" /> 
</g>
<g style="fill:#000000; fill-opacity:1.0; 
stroke:#000000; stroke-width:21200.000000; stroke-opacity:1; 
stroke-linecap:round; stroke-linejoin:round;">
</g>
<g style="fill:#000000; fill-opacity:1.0; 
stroke:#000000; stroke-width:1.000000; stroke-opacity:1; 
stroke-linecap:round; stroke-linejoin:round;">
<circle cx="260752570.000000" cy="3747426.000000" r="1500000.000000" /> 
</g>
<g style="fill:#000000; fill-opacity:1.0; 
stroke:#000000; stroke-width:21200.000000; stroke-opacity:1; 
stroke-linecap:round; stroke-linejoin:round;">
</g>
<g style="fill:#000000; fill-opacity:1.0; 
stroke:#000000; stroke-width:1.000000; stroke-opacity:1; 
stroke-linecap:round; stroke-linejoin:round;">
<circle cx="176252570.000000" cy="28718726.000000" r="1500000.000000" /> 
</g>
<g style="fill:#000000; fill-opacity:1.0; 
stroke:#000000; stroke-width:21200.000000; stroke-opacity:1; 
stroke-linecap:round; stroke-linejoin:round;">
</g>
<g style="fill:#000000; fill-opacity:1.0; 
stroke:#000000; stroke-width:1.000000; stroke-opacity:1; 
stroke-linecap:round; stroke-linejoin:round;">
<circle cx="3752570.000000" cy="3747426.000000" r="1500000.000000" /> 
</g>
<g style="fill:#000000; fill-opacity:1.0; 
stroke:#000000; stroke-width:21200.000000; stroke-opacity:1; 
stroke-linecap:round; stroke-linejoin:round;">
</g>
<g style="fill:#000000; fill-opacity:1.0; 
stroke:#000000; stroke-width:1.000000; stroke-opacity:1; 
stroke-linecap:round; stroke-linejoin:round;">
<circle cx="3752570.000000" cy="28747426.000000" r="1500000.000000" /> 
</g>
<g style="fill:#000000; fill-opacity:1.0; 
stroke:#000000; stroke-width:21200.000000; stroke-opacity:1; 
stroke-linecap:round; stroke-linejoin:round;">
</g>
<g >
</g>
<g >
</g>
<g >
</g>
</g>
<g style="fill:#FFFFFF; fill-opacity:1.0; 
stroke:#FFFFFF; stroke-width:21200.000000; stroke-opacity:1; 
stroke-linecap:round; stroke-linejoin:round;">
</g>
<g style="fill:#FFFFFF; fill-opacity:1.0; 
stroke:#FFFFFF; stroke-width:1.000000; stroke-opacity:1; 
stroke-linecap:round; stroke-linejoin:round;">
<circle cx="88252570.000000" cy="3747426.000000" r="1100000.000000" /> 
</g>
<g style="fill:#FFFFFF; fill-opacity:1.0; 
stroke:#FFFFFF; stroke-width:21200.000000; stroke-opacity:1; 
stroke-linecap:round; stroke-linejoin:round;">
</g>
<g style="fill:#FFFFFF; fill-opacity:1.0; 
stroke:#FFFFFF; stroke-width:1.000000; stroke-opacity:1; 
stroke-linecap:round; stroke-linejoin:round;">
<circle cx="260752570.000000" cy="28747426.000000" r="1100000.000000" /> 
</g>
<g style="fill:#FFFFFF; fill-opacity:1.0; 
stroke:#FFFFFF; stroke-width:21200.000000; stroke-opacity:1; 
stroke-linecap:round; stroke-linejoin:round;">
</g>
<g style="fill:#FFFFFF; fill-opacity:1.0; 
stroke:#FFFFFF; stroke-width:1.000000; stroke-opacity:1; 
stroke-linecap:round; stroke-linejoin:round;">
<circle cx="88252570.000000" cy="28747426.000000" r="1100000.000000" /> 
</g>
<g style="fill:#FFFFFF; fill-opacity:1.0; 
stroke:#FFFFFF; stroke-width:21200.000000; stroke-opacity:1; 
stroke-linecap:round; stroke-linejoin:round;">
</g>
<g style="fill:#FFFFFF; fill-opacity:1.0; 
stroke:#FFFFFF; stroke-width:1.000000; stroke-opacity:1; 
stroke-linecap:round; stroke-linejoin:round;">
<circle cx="176252570.000000" cy="3747426.000000" r="1100000.000000" /> 
</g>
<g style="fill:#FFFFFF; fill-opacity:1.0; 
stroke:#FFFFFF; stroke-width:21200.000000; stroke-opacity:1; 
stroke-linecap:round; stroke-linejoin:round;">
</g>
<g style="fill:#FFFFFF; fill-opacity:1.0; 
stroke:#FFFFFF; stroke-width:1.000000; stroke-opacity:1; 
stroke-linecap:round; stroke-linejoin:round;">
<circle cx="260752570.000000" cy="3747426.000000" r="1100000.000000" /> 
</g>
<g style="fill:#FFFFFF; fill-opacity:1.0; 
stroke:#FFFFFF; stroke-width:21200.000000; stroke-opacity:1; 
stroke-linecap:round; stroke-linejoin:round;">
</g>
<g style="fill:#FFFFFF; fill-opacity:1.0; 
stroke:#FFFFFF; stroke-width:1.000000; stroke-opacity:1; 
stroke-linecap:round; stroke-linejoin:round;">
<circle cx="176252570.000000" cy="28718726.000000" r="1100000.000000" /> 
</g>
<g style="fill:#FFFFFF; fill-opacity:1.0; 
stroke:#FFFFFF; stroke-width:21200.000000; stroke-opacity:1; 
stroke-linecap:round; stroke-linejoin:round;">
</g>
<g style="fill:#FFFFFF; fill-opacity:1.0; 
stroke:#FFFFFF; stroke-width:1.000000; stroke-opacity:1; 
stroke-linecap:round; stroke-linejoin:round;">
<circle cx="3752570.000000" cy="3747426.000000" r="1100000.000000" /> 
</g>
<g style="fill:#FFFFFF; fill-opacity:1.0; 
stroke:#FFFFFF; stroke-width:21200.000000; stroke-opacity:1; 
stroke-linecap:round; stroke-linejoin:round;">
</g>
<g style="fill:#FFFFFF; fill-opacity:1.0; 
stroke:#FFFFFF; stroke-width:1.000000; stroke-opacity:1; 
stroke-linecap:round; stroke-linejoin:round;">
<circle cx="3752570.000000" cy="28747426.000000" r="1100000.000000" /> 
</g>
<g style="fill:#FFFFFF; fill-opacity:1.0; 
stroke:#FFFFFF; stroke-width:21200.000000; stroke-opacity:1; 
stroke-linecap:round; stroke-linejoin:round;">
</g>
<g style="fill:#000000; fill-opacity:1.0; 
stroke:#000000; stroke-width:21200.000000; stroke-opacity:1; 
stroke-linecap:round; stroke-linejoin:round;">
<g >
</g>
<g style="fill:#000000; fill-opacity:1.0; 
stroke:#000000; stroke-width:1.000000; stroke-opacity:1; 
stroke-linecap:round; stroke-linejoin:round;">
<circle cx="88252570.000000" cy="3747426.000000" r="1500000.000000" /> 
</g>
<g style="fill:#000000; fill-opacity:1.0; 
stroke:#000000; stroke-width:21200.000000; stroke-opacity:1; 
stroke-linecap:round; stroke-linejoin:round;">
</g>
<g style="fill:#000000; fill-opacity:1.0; 
stroke:#000000; stroke-width:1.000000; stroke-opacity:1; 
stroke-linecap:round; stroke-linejoin:round;">
<circle cx="260752570.000000" cy="28747426.000000" r="1500000.000000" /> 
</g>
<g style="fill:#000000; fill-opacity:1.0; 
stroke:#000000; stroke-width:21200.000000; stroke-opacity:1; 
stroke-linecap:round; stroke-linejoin:round;">
</g>
<g style="fill:#000000; fill-opacity:1.0; 
stroke:#000000; stroke-width:1.000000; stroke-opacity:1; 
stroke-linecap:round; stroke-linejoin:round;">
<circle cx="88252570.000000" cy="28747426.000000" r="1500000.000000" /> 
</g>
<g style="fill:#000000; fill-opacity:1.0; 
stroke:#000000; stroke-width:21200.000000; stroke-opacity:1; 
stroke-linecap:round; stroke-linejoin:round;">
</g>
<g style="fill:#000000; fill-opacity:1.0; 
stroke:#000000; stroke-width:1.000000; stroke-opacity:1; 
stroke-linecap:round; stroke-linejoin:round;">
<circle cx="176252570.000000" cy="3747426.000000" r="1500000.000000" /> 
</g>
<g style="fill:#000000; fill-opacity:1.0; 
stroke:#000000; stroke-width:21200.000000; stroke-opacity:1; 
stroke-linecap:round; stroke-linejoin:round;">
</g>
<g style="fill:#000000; fill-opacity:1.0; 
stroke:#000000; stroke-width:1.000000; stroke-opacity:1; 
stroke-linecap:round; stroke-linejoin:round;">
<circle cx="260752570.000000" cy="3747426.000000" r="1500000.000000" /> 
</g>
<g style="fill:#000000; fill-opacity:1.0; 
stroke:#000000; stroke-width:21200.000000; stroke-opacity:1; 
stroke-linecap:round; stroke-linejoin:round;">
</g>
<g style="fill:#000000; fill-opacity:1.0; 
stroke:#000000; stroke-width:1.000000; stroke-opacity:1; 
stroke-linecap:round; stroke-linejoin:round;">
<circle cx="176252570.000000" cy="28718726.000000" r="1500000.000000" /> 
</g>
<g style="fill:#000000; fill-opacity:1.0; 
stroke:#000000; stroke-width:21200.000000; stroke-opacity:1; 
stroke-linecap:round; stroke-linejoin:round;">
</g>
<g style="fill:#000000; fill-opacity:1.0; 
stroke:#000000; stroke-width:1.000000; stroke-opacity:1; 
stroke-linecap:round; stroke-linejoin:round;">
<circle cx="3752570.000000" cy="3747426.000000" r="1500000.000000" /> 
</g>
<g style="fill:#000000; fill-opacity:1.0; 
stroke:#000000; stroke-width:21200.000000; stroke-opacity:1; 
stroke-linecap:round; stroke-linejoin:round;">
</g>
<g style="fill:#000000; fill-opacity:1.0; 
stroke:#000000; stroke-width:1.000000; stroke-opacity:1; 
stroke-linecap:round; stroke-linejoin:round;">
<circle cx="3752570.000000" cy="28747426.000000" r="1500000.000000" /> 
</g>
<g style="fill:#000000; fill-opacity:1.0; 
stroke:#000000; stroke-width:21200.000000; stroke-opacity:1; 
stroke-linecap:round; stroke-linejoin:round;">
</g>
<g >
</g>
<g >
</g>
<g >
</g>
</g>
<g style="fill:#FFFFFF; fill-opacity:1.0; 
stroke:#FFFFFF; stroke-width:21200.000000; stroke-opacity:1; 
stroke-linecap:round; stroke-linejoin:round;">
</g>
<g style="fill:#FFFFFF; fill-opacity:1.0; 
stroke:#FFFFFF; stroke-width:1.000000; stroke-opacity:1; 
stroke-linecap:round; stroke-linejoin:round;">
<circle cx="88252570.000000" cy="3747426.000000" r="1100000.000000" /> 
</g>
<g style="fill:#FFFFFF; fill-opacity:1.0; 
stroke:#FFFFFF; stroke-width:21200.000000; stroke-opacity:1; 
stroke-linecap:round; stroke-linejoin:round;">
</g>
<g style="fill:#FFFFFF; fill-opacity:1.0; 
stroke:#FFFFFF; stroke-width:1.000000; stroke-opacity:1; 
stroke-linecap:round; stroke-linejoin:round;">
<circle cx="260752570.000000" cy="28747426.000000" r="1100000.000000" /> 
</g>
<g style="fill:#FFFFFF; fill-opacity:1.0; 
stroke:#FFFFFF; stroke-width:21200.000000; stroke-opacity:1; 
stroke-linecap:round; stroke-linejoin:round;">
</g>
<g style="fill:#FFFFFF; fill-opacity:1.0; 
stroke:#FFFFFF; stroke-width:1.000000; stroke-opacity:1; 
stroke-linecap:round; stroke-linejoin:round;">
<circle cx="88252570.000000" cy="28747426.000000" r="1100000.000000" /> 
</g>
<g style="fill:#FFFFFF; fill-opacity:1.0; 
stroke:#FFFFFF; stroke-width:21200.000000; stroke-opacity:1; 
stroke-linecap:round; stroke-linejoin:round;">
</g>
<g style="fill:#FFFFFF; fill-opacity:1.0; 
stroke:#FFFFFF; stroke-width:1.000000; stroke-opacity:1; 
stroke-linecap:round; stroke-linejoin:round;">
<circle cx="176252570.000000" cy="3747426.000000" r="1100000.000000" /> 
</g>
<g style="fill:#FFFFFF; fill-opacity:1.0; 
stroke:#FFFFFF; stroke-width:21200.000000; stroke-opacity:1; 
stroke-linecap:round; stroke-linejoin:round;">
</g>
<g style="fill:#FFFFFF; fill-opacity:1.0; 
stroke:#FFFFFF; stroke-width:1.000000; stroke-opacity:1; 
stroke-linecap:round; stroke-linejoin:round;">
<circle cx="260752570.000000" cy="3747426.000000" r="1100000.000000" /> 
</g>
<g style="fill:#FFFFFF; fill-opacity:1.0; 
stroke:#FFFFFF; stroke-width:21200.000000; stroke-opacity:1; 
stroke-linecap:round; stroke-linejoin:round;">
</g>
<g style="fill:#FFFFFF; fill-opacity:1.0; 
stroke:#FFFFFF; stroke-width:1.000000; stroke-opacity:1; 
stroke-linecap:round; stroke-linejoin:round;">
<circle cx="176252570.000000" cy="28718726.000000" r="1100000.000000" /> 
</g>
<g style="fill:#FFFFFF; fill-opacity:1.0; 
stroke:#FFFFFF; stroke-width:21200.000000; stroke-opacity:1; 
stroke-linecap:round; stroke-linejoin:round;">
</g>
<g style="fill:#FFFFFF; fill-opacity:1.0; 
stroke:#FFFFFF; stroke-width:1.000000; stroke-opacity:1; 
stroke-linecap:round; stroke-linejoin:round;">
<circle cx="3752570.000000" cy="3747426.000000" r="1100000.000000" /> 
</g>
<g style="fill:#FFFFFF; fill-opacity:1.0; 
stroke:#FFFFFF; stroke-width:21200.000000; stroke-opacity:1; 
stroke-linecap:round; stroke-linejoin:round;">
</g>
<g style="fill:#FFFFFF; fill-opacity:1.0; 
stroke:#FFFFFF; stroke-width:1.000000; stroke-opacity:1; 
stroke-linecap:round; stroke-linejoin:round;">
<circle cx="3752570.000000" cy="28747426.000000" r="1100000.000000" /> 
</g>
<g style="fill:#FFFFFF; fill-opacity:1.0; 
stroke:#FFFFFF; stroke-width:21200.000000; stroke-opacity:1; 
stroke-linecap:round; stroke-linejoin:round;">
</g>
<g style="fill:#000000; fill-opacity:1.0; 
stroke:#000000; stroke-width:21200.000000; stroke-opacity:1; 
stroke-linecap:round; stroke-linejoin:round;">
</g>
<g style="fill:#000000; fill-opacity:0.0; 
stroke:#000000; stroke-width:500000.000000; stroke-opacity:1; 
stroke-linecap:round; stroke-linejoin:round;">
<path d="M158840034.800951 9343240.879170 A501487.000000 501487.000000 0.0 0 0 158339993.999773 8843241.078957" />
<path d="M186994738 24023743
L181718230 18747580
" />
<path d="M1131250.786212 1131250.789538 A2993511.000000 2993511.000000 0.0 0 0 249999.999314 3249999.999999" />
<path d="M91837151.002350 12285227.039685 A2888679.000000 2888679.000000 0.0 0 0 89787923.999949 11434847.936462" />
<path d="M177805290 20562456
L174712284 20562456
" />
<path d="M92184462.131932 14334585.036466 A2399313.000000 2399313.000000 0.0 0 0 89787924.000458 11937314.603601" />
<path d="M172315819.861412 18165359.046725 A2399131.000000 2399131.000000 0.0 0 0 174712284.000535 20562455.518723" />
<path d="M191563968 12064956
L197563947 12064956
" />
<path d="M83687521 19186140
L83687521 14725258
" />
<path d="M90936173.991172 20937619.713321 A1753095.000000 1753095.000000 0.0 0 0 92687144.257029 19186140.000237" />
<path d="M191563968.039242 12064987.001249 A1249740.000000 1249740.000000 0.0 0 0 190315810.479710 13313631.000420" />
<path d="M77505470 8476027
L82781978 13752363
" />
<path d="M250000 29249996
L250000 3250000
" />
<path d="M174712284 21065095
L177805290 21065095
" />
<path d="M181689635.923788 24379277.076582 A252013.000000 252013.000000 0.0 0 0 182045170.076212 24379277.076582" />
<path d="M192712219 21065095
L195805225 21065095
" />
<path d="M198812420.603904 13313631.022609 A1249671.000000 1249671.000000 0.0 0 0 197563947.000409 12064955.573275" />
<path d="M181315476.550960 17774684.928668 A1365481.000000 1365481.000000 0.0 0 0 181718230.233990 18747579.764641" />
<path d="M106159994 8843241
L158339994 8843241
" />
<path d="M83137512 13396830
L77861003 8120494
" />
<path d="M171812891 13313631
L171812891 18165359
" />
<path d="M92687144 19186140
L92687144 14334585
" />
<path d="M261249968 32249996
L3250000 32249996
" />
<path d="M199315471.887043 17774685.132176 A1365386.000000 1365386.000000 0.0 0 0 199718164.816359 18747580.184703" />
<path d="M204639146.058546 24379270.031881 A247880.000000 247880.000000 0.0 0 0 204816906.001592 24453002.291040" />
<path d="M172663045.167503 20214706.833145 A2889870.000000 2889870.000000 0.0 0 0 174712284.000265 21065095.418043" />
<path d="M186816970.999505 24453000.970890 A251475.000000 251475.000000 0.0 0 0 186994738.164668 24379277.164542" />
<path d="M181315498 17774685
L181315498 13313631
" />
<path d="M263368715.329822 31368743.318378 A2993319.000000 2993319.000000 0.0 0 0 264249968.061760 29249996.000049" />
<path d="M179564012 11562316
L173564033 11562316
" />
<path d="M171812909.480581 18165359.010656 A2891141.000000 2891141.000000 0.0 0 0 172663045.318152 20214706.680808" />
<path d="M84936196 20937627
L90936174 20937627
" />
<path d="M85722009.574194 11032128.376617 A1368426.000000 1368426.000000 0.0 0 0 86694914.999662 11434847.862677" />
<path d="M3250000 250000
L261249968 250000
" />
<path d="M199362631 19103114
L204639139 24379277
" />
<path d="M264250007.999083 3250000.000991 A2987358.000000 2987358.000000 0.0 0 0 263368717.693985 1131250.307847" />
<path d="M77505435.155147 8120459.262254 A251788.000000 251788.000000 0.0 0 0 77505469.658408 8476027.340675" />
<path d="M82810572.076212 8120493.923418 A252013.000000 252013.000000 0.0 0 0 82455037.923788 8120493.923418" />
<path d="M83687532.799796 19186139.986651 A1249918.000000 1249918.000000 0.0 0 0 84936195.999628 20434643.370952" />
<path d="M264249968 3250000
L264249968 29249996
" />
<path d="M82455003.621770 8120459.733593 A251810.000000 251810.000000 0.0 0 0 82455038.124921 8476026.875437" />
<path d="M172315875 18165359
L172315875 13313631
" />
<path d="M1131261.142300 31368734.904870 A2993471.000000 2993471.000000 0.0 0 0 3250000.000002 32249995.997401" />
<path d="M89787924 11434848
L86694915 11434848
" />
<path d="M179133706.258908 21112305.674274 A1865479.000000 1865479.000000 0.0 0 0 177805290.000641 20562456.203984" />
<path d="M180812536.481726 17774685.078928 A1863125.000000 1863125.000000 0.0 0 0 181362696.250589 19103113.747705" />
<path d="M195805225 20562456
L192712219 20562456
" />
<path d="M198812449 13313631
L198812449 17774685
" />
<path d="M200045120.161956 24379293.080266 A252040.000000 252040.000000 0.0 0 0 200045104.161424 24023742.839363" />
<path d="M186994754.005070 24379292.930058 A251993.000000 251993.000000 0.0 0 0 186994738.004522 24023742.995498" />
<path d="M189812804.480610 18165358.987592 A2891046.000000 2891046.000000 0.0 0 0 190662980.105063 20214706.894587" />
<path d="M92184505 14334585
L92184505 19186140
" />
<path d="M77861003.239062 8120493.748732 A257897.000000 257897.000000 0.0 0 0 77505470.236062 8120494.248113" />
<path d="M190315810 18165359
L190315810 13313631
" />
<path d="M85366478.422658 11387659.542334 A1868395.000000 1868395.000000 0.0 0 0 86694914.999131 11937314.666153" />
<path d="M83687539.667291 14725258.052324 A1866597.000000 1866597.000000 0.0 0 0 83137512.227883 13396829.770969" />
<path d="M83184948.837774 19186139.934659 A1753202.000000 1753202.000000 0.0 0 0 84936196.000099 20937626.911102" />
<path d="M178778195.788517 21467816.254168 A1368435.000000 1368435.000000 0.0 0 0 177805290.000307 21065095.125010" />
<path d="M189812826 13313631
L189812826 18165359
" />
<path d="M105659994 23123241
L105659994 9343241
" />
<path d="M173564032.995048 12064951.920761 A1249675.000000 1249675.000000 0.0 0 0 172315875.396113 13313631.000315" />
<path d="M106159994.084528 8843270.113531 A501458.000000 501458.000000 0.0 0 0 105659994.198816 9343241.000589" />
<path d="M197563947 11562316
L191563968 11562316
" />
<path d="M82455038 8476027
L85366488 11387650
" />
<path d="M263368713.746734 1131254.235235 A2993427.000000 2993427.000000 0.0 0 0 261249968.000019 249999.976594" />
<path d="M181362696 19103114
L186639204 24379277
" />
<path d="M182045170 24023743
L179133719 21112293
" />
<path d="M173564033 12064956
L179564012 12064956
" />
<path d="M85722022 11032116
L82810572 8120494
" />
<path d="M83184882 14725258
L83184882 19186140
" />
<path d="M199315433 17774685
L199315433 13313631
" />
<path d="M196778120 21467827
L199689571 24379277
" />
<path d="M204994689.142719 24379293.063914 A252018.000000 252018.000000 0.0 0 0 204994673.142175 24023742.858494" />
<path d="M249997.000151 29249995.999970 A2987553.000000 2987553.000000 0.0 0 0 1131250.141662 31368745.857502" />
<path d="M178778185 21467827
L181689636 24379277
" />
<path d="M180812514 13313631
L180812514 17774685
" />
<path d="M198812431.482804 17774684.938497 A1863030.000000 1863030.000000 0.0 0 0 199362631.157045 19103113.841870" />
<path d="M204994673 24023743
L199718165 18747580
" />
<path d="M83184917.794863 14725258.124131 A1364576.000000 1364576.000000 0.0 0 0 82781977.910870 13752363.089736" />
<path d="M90936174 20434643
L84936196 20434643
" />
<path d="M196778100.854561 21467846.065044 A1368135.000000 1368135.000000 0.0 0 0 195805225.000719 21065095.287091" />
<path d="M182045186.232248 24379293.153277 A252016.000000 252016.000000 0.0 0 0 182045170.231694 24023742.769392" />
<path d="M180812520.520297 13313630.994287 A1249771.000000 1249771.000000 0.0 0 0 179564012.000366 12064955.637175" />
<path d="M90936174.039519 20434680.298574 A1249655.000000 1249655.000000 0.0 0 0 92184504.503465 19186139.999557" />
<path d="M158339994 23623241
L106159994 23623241
" />
<path d="M200045104 24023743
L197133654 21112293
" />
<path d="M199315459.498188 13313630.965321 A1753611.000000 1753611.000000 0.0 0 0 197563946.999696 11562316.253815" />
<path d="M181315559.364488 13313630.916193 A1753711.000000 1753711.000000 0.0 0 0 179564011.999590 11562316.332672" />
<path d="M158839994 9343241
L158839994 23123241
" />
<path d="M105659935.288823 23123241.177378 A501517.000000 501517.000000 0.0 0 0 106159994.000330 23623240.886473" />
<path d="M158339994.083287 23623269.920633 A501446.000000 501446.000000 0.0 0 0 158839994.003545 23123241.000010" />
<path d="M190315818.948148 18165358.992045 A2399232.000000 2399232.000000 0.0 0 0 192712218.999611 20562456.329764" />
<path d="M3250000.000435 249974.000418 A2987452.000000 2987452.000000 0.0 0 0 1131249.712834 1131249.714532" />
<path d="M86694915 11937315
L89787924 11937315
" />
<path d="M92687185.117069 14334585.032141 A2889936.000000 2889936.000000 0.0 0 0 91837141.173208 12285236.826181" />
<path d="M204816906.002450 24453012.993760 A251287.000000 251287.000000 0.0 0 0 204994672.689440 24379276.689915" />
<path d="M191563967.983655 11562302.236234 A1753225.000000 1753225.000000 0.0 0 0 189812826.024120 13313631.000026" />
<path d="M261249968.000012 32249997.999946 A2987672.000000 2987672.000000 0.0 0 0 263368718.109824 31368746.109184" />
<path d="M197133665.457624 21112281.601032 A1865679.000000 1865679.000000 0.0 0 0 195805225.000292 20562456.093393" />
<path d="M199689571.334582 24379276.663794 A252011.000000 252011.000000 0.0 0 0 200045104.162996 24379277.163788" />
<path d="M173564032.941168 11562267.278173 A1753260.000000 1753260.000000 0.0 0 0 171812891.024100 13313631.000026" />
<path d="M186639207.617404 24379273.427596 A247980.000000 247980.000000 0.0 0 0 186816971.002565 24453002.481450" />
<path d="M190663004.298341 20214682.797659 A2889670.000000 2889670.000000 0.0 0 0 192712219.000256 21065095.395578" />
<g >
</g>
<g >
</g>
<g >
</g>
<g >
</g>
</g> 
</svg>
