%TF.GenerationSoftware,KiCad,Pcbnew,6.0.10-86aedd382b~118~ubuntu22.04.1*%
%TF.CreationDate,2023-01-27T19:30:40+01:00*%
%TF.ProjectId,L1,4c312e6b-6963-4616-945f-706362585858,rev?*%
%TF.SameCoordinates,Original*%
%TF.FileFunction,Copper,L1,Top*%
%TF.FilePolarity,Positive*%
%FSLAX46Y46*%
G04 Gerber Fmt 4.6, Leading zero omitted, Abs format (unit mm)*
G04 Created by KiCad (PCBNEW 6.0.10-86aedd382b~118~ubuntu22.04.1) date 2023-01-27 19:30:40*
%MOMM*%
%LPD*%
G01*
G04 APERTURE LIST*
%TA.AperFunction,ComponentPad*%
%ADD10O,35.000000X0.700000*%
%TD*%
%TA.AperFunction,ComponentPad*%
%ADD11C,3.000000*%
%TD*%
G04 APERTURE END LIST*
D10*
%TO.P,REF\u002A\u002A,1*%
%TO.N,N/C*%
X211100000Y-97600000D03*
%TD*%
D11*
%TO.P,REF\u002A\u002A,*%
%TO.N,*%
X105300000Y-109300000D03*
X193300000Y-109271300D03*
X193300000Y-84300000D03*
X277800000Y-109300000D03*
X20800000Y-109300000D03*
X277800000Y-84300000D03*
X105300000Y-84300000D03*
X20800000Y-84300000D03*
%TD*%
%TA.AperFunction,NonConductor*%
G36*
X278270018Y-81310000D02*
G01*
X278284851Y-81312310D01*
X278284855Y-81312310D01*
X278293724Y-81313691D01*
X278310923Y-81311442D01*
X278334863Y-81310609D01*
X278592710Y-81326206D01*
X278607814Y-81328040D01*
X278679786Y-81341229D01*
X278888760Y-81379525D01*
X278903526Y-81383164D01*
X279176231Y-81468142D01*
X279190445Y-81473534D01*
X279408223Y-81571547D01*
X279450906Y-81590757D01*
X279464379Y-81597828D01*
X279708813Y-81745595D01*
X279721334Y-81754238D01*
X279946171Y-81930385D01*
X279957560Y-81940475D01*
X280159525Y-82142440D01*
X280169615Y-82153829D01*
X280345762Y-82378666D01*
X280354405Y-82391187D01*
X280502172Y-82635621D01*
X280509242Y-82649092D01*
X280626466Y-82909555D01*
X280631858Y-82923769D01*
X280691354Y-83114700D01*
X280716836Y-83196473D01*
X280720475Y-83211240D01*
X280758771Y-83420214D01*
X280771960Y-83492186D01*
X280773794Y-83507290D01*
X280788953Y-83757904D01*
X280787692Y-83784716D01*
X280787690Y-83784852D01*
X280786309Y-83793724D01*
X280787473Y-83802626D01*
X280787473Y-83802628D01*
X280790436Y-83825283D01*
X280791500Y-83841621D01*
X280791500Y-109750633D01*
X280790000Y-109770018D01*
X280787690Y-109784851D01*
X280787690Y-109784855D01*
X280786309Y-109793724D01*
X280788558Y-109810919D01*
X280789391Y-109834863D01*
X280773794Y-110092710D01*
X280771960Y-110107814D01*
X280765272Y-110144308D01*
X280723006Y-110374955D01*
X280720477Y-110388754D01*
X280716836Y-110403526D01*
X280654831Y-110602509D01*
X280631859Y-110676227D01*
X280626466Y-110690445D01*
X280533391Y-110897251D01*
X280509243Y-110950906D01*
X280502172Y-110964379D01*
X280354405Y-111208813D01*
X280345762Y-111221334D01*
X280169615Y-111446171D01*
X280159525Y-111457560D01*
X279957560Y-111659525D01*
X279946171Y-111669615D01*
X279721334Y-111845762D01*
X279708813Y-111854405D01*
X279464379Y-112002172D01*
X279450908Y-112009242D01*
X279190445Y-112126466D01*
X279176231Y-112131858D01*
X278903527Y-112216836D01*
X278888760Y-112220475D01*
X278679786Y-112258771D01*
X278607814Y-112271960D01*
X278592710Y-112273794D01*
X278342096Y-112288953D01*
X278315284Y-112287692D01*
X278315148Y-112287690D01*
X278306276Y-112286309D01*
X278297374Y-112287473D01*
X278297372Y-112287473D01*
X278282707Y-112289391D01*
X278274714Y-112290436D01*
X278258379Y-112291500D01*
X20349367Y-112291500D01*
X20329982Y-112290000D01*
X20315149Y-112287690D01*
X20315145Y-112287690D01*
X20306276Y-112286309D01*
X20289077Y-112288558D01*
X20265137Y-112289391D01*
X20007290Y-112273794D01*
X19992186Y-112271960D01*
X19920214Y-112258771D01*
X19711240Y-112220475D01*
X19696473Y-112216836D01*
X19423769Y-112131858D01*
X19409555Y-112126466D01*
X19149092Y-112009242D01*
X19135621Y-112002172D01*
X18891187Y-111854405D01*
X18878666Y-111845762D01*
X18653829Y-111669615D01*
X18642440Y-111659525D01*
X18440475Y-111457560D01*
X18430385Y-111446171D01*
X18254238Y-111221334D01*
X18245595Y-111208813D01*
X18097828Y-110964379D01*
X18090757Y-110950906D01*
X18066609Y-110897251D01*
X17973534Y-110690445D01*
X17968141Y-110676227D01*
X17945170Y-110602509D01*
X17883164Y-110403526D01*
X17879523Y-110388754D01*
X17876995Y-110374955D01*
X17834728Y-110144308D01*
X17828040Y-110107814D01*
X17826206Y-110092710D01*
X17811269Y-109845768D01*
X17812520Y-109822216D01*
X17812334Y-109822199D01*
X17812769Y-109817350D01*
X17813576Y-109812552D01*
X17813729Y-109800000D01*
X17809773Y-109772376D01*
X17808500Y-109754514D01*
X17808500Y-109278918D01*
X18786917Y-109278918D01*
X18802682Y-109552320D01*
X18803507Y-109556525D01*
X18803508Y-109556533D01*
X18809335Y-109586233D01*
X18855405Y-109821053D01*
X18856792Y-109825103D01*
X18856793Y-109825108D01*
X18935597Y-110055275D01*
X18944112Y-110080144D01*
X19067160Y-110324799D01*
X19069586Y-110328328D01*
X19069589Y-110328334D01*
X19177470Y-110485300D01*
X19222274Y-110550490D01*
X19225161Y-110553663D01*
X19225162Y-110553664D01*
X19263665Y-110595978D01*
X19406582Y-110753043D01*
X19616675Y-110928707D01*
X19620316Y-110930991D01*
X19845024Y-111071951D01*
X19845028Y-111071953D01*
X19848664Y-111074234D01*
X19916544Y-111104883D01*
X20094345Y-111185164D01*
X20094349Y-111185166D01*
X20098257Y-111186930D01*
X20102377Y-111188150D01*
X20102376Y-111188150D01*
X20356723Y-111263491D01*
X20356727Y-111263492D01*
X20360836Y-111264709D01*
X20365070Y-111265357D01*
X20365075Y-111265358D01*
X20627298Y-111305483D01*
X20627300Y-111305483D01*
X20631540Y-111306132D01*
X20770912Y-111308322D01*
X20901071Y-111310367D01*
X20901077Y-111310367D01*
X20905362Y-111310434D01*
X21177235Y-111277534D01*
X21442127Y-111208041D01*
X21446087Y-111206401D01*
X21446092Y-111206399D01*
X21596098Y-111144264D01*
X21695136Y-111103241D01*
X21931582Y-110965073D01*
X22147089Y-110796094D01*
X22172333Y-110770045D01*
X22334686Y-110602509D01*
X22337669Y-110599431D01*
X22340202Y-110595983D01*
X22340206Y-110595978D01*
X22486916Y-110396255D01*
X22499795Y-110378723D01*
X22527154Y-110328334D01*
X22628418Y-110141830D01*
X22628419Y-110141828D01*
X22630468Y-110138054D01*
X22727269Y-109881877D01*
X22788407Y-109614933D01*
X22790969Y-109586233D01*
X22812531Y-109344627D01*
X22812531Y-109344625D01*
X22812751Y-109342161D01*
X22813193Y-109300000D01*
X22811756Y-109278918D01*
X103286917Y-109278918D01*
X103302682Y-109552320D01*
X103303507Y-109556525D01*
X103303508Y-109556533D01*
X103309335Y-109586233D01*
X103355405Y-109821053D01*
X103356792Y-109825103D01*
X103356793Y-109825108D01*
X103435597Y-110055275D01*
X103444112Y-110080144D01*
X103567160Y-110324799D01*
X103569586Y-110328328D01*
X103569589Y-110328334D01*
X103677470Y-110485300D01*
X103722274Y-110550490D01*
X103725161Y-110553663D01*
X103725162Y-110553664D01*
X103763665Y-110595978D01*
X103906582Y-110753043D01*
X104116675Y-110928707D01*
X104120316Y-110930991D01*
X104345024Y-111071951D01*
X104345028Y-111071953D01*
X104348664Y-111074234D01*
X104416544Y-111104883D01*
X104594345Y-111185164D01*
X104594349Y-111185166D01*
X104598257Y-111186930D01*
X104602377Y-111188150D01*
X104602376Y-111188150D01*
X104856723Y-111263491D01*
X104856727Y-111263492D01*
X104860836Y-111264709D01*
X104865070Y-111265357D01*
X104865075Y-111265358D01*
X105127298Y-111305483D01*
X105127300Y-111305483D01*
X105131540Y-111306132D01*
X105270912Y-111308322D01*
X105401071Y-111310367D01*
X105401077Y-111310367D01*
X105405362Y-111310434D01*
X105677235Y-111277534D01*
X105942127Y-111208041D01*
X105946087Y-111206401D01*
X105946092Y-111206399D01*
X106096098Y-111144264D01*
X106195136Y-111103241D01*
X106431582Y-110965073D01*
X106647089Y-110796094D01*
X106672333Y-110770045D01*
X106834686Y-110602509D01*
X106837669Y-110599431D01*
X106840202Y-110595983D01*
X106840206Y-110595978D01*
X106986916Y-110396255D01*
X106999795Y-110378723D01*
X107027154Y-110328334D01*
X107128418Y-110141830D01*
X107128419Y-110141828D01*
X107130468Y-110138054D01*
X107227269Y-109881877D01*
X107288407Y-109614933D01*
X107290969Y-109586233D01*
X107312531Y-109344627D01*
X107312531Y-109344625D01*
X107312751Y-109342161D01*
X107313193Y-109300000D01*
X107311406Y-109273784D01*
X107309799Y-109250218D01*
X191286917Y-109250218D01*
X191302682Y-109523620D01*
X191303507Y-109527825D01*
X191303508Y-109527833D01*
X191333917Y-109682826D01*
X191355405Y-109792353D01*
X191356792Y-109796403D01*
X191356793Y-109796408D01*
X191442723Y-110047388D01*
X191444112Y-110051444D01*
X191567160Y-110296099D01*
X191569586Y-110299628D01*
X191569589Y-110299634D01*
X191697195Y-110485300D01*
X191722274Y-110521790D01*
X191725161Y-110524963D01*
X191725162Y-110524964D01*
X191903692Y-110721167D01*
X191906582Y-110724343D01*
X191909877Y-110727098D01*
X191909878Y-110727099D01*
X191940907Y-110753043D01*
X192116675Y-110900007D01*
X192120316Y-110902291D01*
X192345024Y-111043251D01*
X192345028Y-111043253D01*
X192348664Y-111045534D01*
X192416544Y-111076183D01*
X192594345Y-111156464D01*
X192594349Y-111156466D01*
X192598257Y-111158230D01*
X192602377Y-111159450D01*
X192602376Y-111159450D01*
X192856723Y-111234791D01*
X192856727Y-111234792D01*
X192860836Y-111236009D01*
X192865070Y-111236657D01*
X192865075Y-111236658D01*
X193127298Y-111276783D01*
X193127300Y-111276783D01*
X193131540Y-111277432D01*
X193270912Y-111279622D01*
X193401071Y-111281667D01*
X193401077Y-111281667D01*
X193405362Y-111281734D01*
X193677235Y-111248834D01*
X193942127Y-111179341D01*
X193946087Y-111177701D01*
X193946092Y-111177699D01*
X194125848Y-111103241D01*
X194195136Y-111074541D01*
X194431582Y-110936373D01*
X194647089Y-110767394D01*
X194658326Y-110755799D01*
X194834686Y-110573809D01*
X194837669Y-110570731D01*
X194840202Y-110567283D01*
X194840206Y-110567278D01*
X194997257Y-110353478D01*
X194999795Y-110350023D01*
X195027154Y-110299634D01*
X195128418Y-110113130D01*
X195128419Y-110113128D01*
X195130468Y-110109354D01*
X195227269Y-109853177D01*
X195288407Y-109586233D01*
X195291817Y-109548032D01*
X195312531Y-109315927D01*
X195312531Y-109315925D01*
X195312751Y-109313461D01*
X195313113Y-109278918D01*
X275786917Y-109278918D01*
X275802682Y-109552320D01*
X275803507Y-109556525D01*
X275803508Y-109556533D01*
X275809335Y-109586233D01*
X275855405Y-109821053D01*
X275856792Y-109825103D01*
X275856793Y-109825108D01*
X275935597Y-110055275D01*
X275944112Y-110080144D01*
X276067160Y-110324799D01*
X276069586Y-110328328D01*
X276069589Y-110328334D01*
X276177470Y-110485300D01*
X276222274Y-110550490D01*
X276225161Y-110553663D01*
X276225162Y-110553664D01*
X276263665Y-110595978D01*
X276406582Y-110753043D01*
X276616675Y-110928707D01*
X276620316Y-110930991D01*
X276845024Y-111071951D01*
X276845028Y-111071953D01*
X276848664Y-111074234D01*
X276916544Y-111104883D01*
X277094345Y-111185164D01*
X277094349Y-111185166D01*
X277098257Y-111186930D01*
X277102377Y-111188150D01*
X277102376Y-111188150D01*
X277356723Y-111263491D01*
X277356727Y-111263492D01*
X277360836Y-111264709D01*
X277365070Y-111265357D01*
X277365075Y-111265358D01*
X277627298Y-111305483D01*
X277627300Y-111305483D01*
X277631540Y-111306132D01*
X277770912Y-111308322D01*
X277901071Y-111310367D01*
X277901077Y-111310367D01*
X277905362Y-111310434D01*
X278177235Y-111277534D01*
X278442127Y-111208041D01*
X278446087Y-111206401D01*
X278446092Y-111206399D01*
X278596098Y-111144264D01*
X278695136Y-111103241D01*
X278931582Y-110965073D01*
X279147089Y-110796094D01*
X279172333Y-110770045D01*
X279334686Y-110602509D01*
X279337669Y-110599431D01*
X279340202Y-110595983D01*
X279340206Y-110595978D01*
X279486916Y-110396255D01*
X279499795Y-110378723D01*
X279527154Y-110328334D01*
X279628418Y-110141830D01*
X279628419Y-110141828D01*
X279630468Y-110138054D01*
X279727269Y-109881877D01*
X279788407Y-109614933D01*
X279790969Y-109586233D01*
X279812531Y-109344627D01*
X279812531Y-109344625D01*
X279812751Y-109342161D01*
X279813193Y-109300000D01*
X279811406Y-109273784D01*
X279794859Y-109031055D01*
X279794858Y-109031049D01*
X279794567Y-109026778D01*
X279788624Y-108998078D01*
X279739901Y-108762809D01*
X279739032Y-108758612D01*
X279647617Y-108500465D01*
X279541234Y-108294352D01*
X279523978Y-108260919D01*
X279523978Y-108260918D01*
X279522013Y-108257112D01*
X279517200Y-108250263D01*
X279413931Y-108103326D01*
X279364545Y-108033057D01*
X279252513Y-107912496D01*
X279181046Y-107835588D01*
X279181043Y-107835585D01*
X279178125Y-107832445D01*
X279174810Y-107829731D01*
X279174806Y-107829728D01*
X278969523Y-107661706D01*
X278966205Y-107658990D01*
X278732704Y-107515901D01*
X278728768Y-107514173D01*
X278485873Y-107407549D01*
X278485869Y-107407548D01*
X278481945Y-107405825D01*
X278218566Y-107330800D01*
X278214324Y-107330196D01*
X278214318Y-107330195D01*
X277986874Y-107297825D01*
X277947443Y-107292213D01*
X277803589Y-107291460D01*
X277677877Y-107290802D01*
X277677871Y-107290802D01*
X277673591Y-107290780D01*
X277669347Y-107291339D01*
X277669343Y-107291339D01*
X277550302Y-107307011D01*
X277402078Y-107326525D01*
X277397938Y-107327658D01*
X277397936Y-107327658D01*
X277325008Y-107347609D01*
X277137928Y-107398788D01*
X277133980Y-107400472D01*
X276889982Y-107504546D01*
X276889978Y-107504548D01*
X276886030Y-107506232D01*
X276866125Y-107518145D01*
X276654725Y-107644664D01*
X276654721Y-107644667D01*
X276651043Y-107646868D01*
X276437318Y-107818094D01*
X276374269Y-107884534D01*
X276263542Y-108001216D01*
X276248808Y-108016742D01*
X276089002Y-108239136D01*
X275960857Y-108481161D01*
X275959385Y-108485184D01*
X275959383Y-108485188D01*
X275952314Y-108504506D01*
X275866743Y-108738337D01*
X275808404Y-109005907D01*
X275786917Y-109278918D01*
X195313113Y-109278918D01*
X195313193Y-109271300D01*
X195296524Y-109026778D01*
X195294859Y-109002355D01*
X195294858Y-109002349D01*
X195294567Y-108998078D01*
X195239032Y-108729912D01*
X195147617Y-108471765D01*
X195022013Y-108228412D01*
X195018513Y-108223431D01*
X194887179Y-108036562D01*
X194864545Y-108004357D01*
X194708676Y-107836622D01*
X194681046Y-107806888D01*
X194681043Y-107806885D01*
X194678125Y-107803745D01*
X194674810Y-107801031D01*
X194674806Y-107801028D01*
X194486459Y-107646868D01*
X194466205Y-107630290D01*
X194279538Y-107515901D01*
X194236366Y-107489445D01*
X194236365Y-107489445D01*
X194232704Y-107487201D01*
X194228768Y-107485473D01*
X193985873Y-107378849D01*
X193985869Y-107378848D01*
X193981945Y-107377125D01*
X193718566Y-107302100D01*
X193714324Y-107301496D01*
X193714318Y-107301495D01*
X193513834Y-107272962D01*
X193447443Y-107263513D01*
X193303589Y-107262760D01*
X193177877Y-107262102D01*
X193177871Y-107262102D01*
X193173591Y-107262080D01*
X193169347Y-107262639D01*
X193169343Y-107262639D01*
X193050302Y-107278311D01*
X192902078Y-107297825D01*
X192897938Y-107298958D01*
X192897936Y-107298958D01*
X192825008Y-107318909D01*
X192637928Y-107370088D01*
X192633980Y-107371772D01*
X192389982Y-107475846D01*
X192389978Y-107475848D01*
X192386030Y-107477532D01*
X192267414Y-107548522D01*
X192154725Y-107615964D01*
X192154721Y-107615967D01*
X192151043Y-107618168D01*
X191937318Y-107789394D01*
X191834110Y-107898153D01*
X191760155Y-107976085D01*
X191748808Y-107988042D01*
X191589002Y-108210436D01*
X191460857Y-108452461D01*
X191459385Y-108456484D01*
X191459383Y-108456488D01*
X191443290Y-108500465D01*
X191366743Y-108709637D01*
X191308404Y-108977207D01*
X191286917Y-109250218D01*
X107309799Y-109250218D01*
X107294859Y-109031055D01*
X107294858Y-109031049D01*
X107294567Y-109026778D01*
X107288624Y-108998078D01*
X107239901Y-108762809D01*
X107239032Y-108758612D01*
X107147617Y-108500465D01*
X107041234Y-108294352D01*
X107023978Y-108260919D01*
X107023978Y-108260918D01*
X107022013Y-108257112D01*
X107017200Y-108250263D01*
X106913931Y-108103326D01*
X106864545Y-108033057D01*
X106752513Y-107912496D01*
X106681046Y-107835588D01*
X106681043Y-107835585D01*
X106678125Y-107832445D01*
X106674810Y-107829731D01*
X106674806Y-107829728D01*
X106469523Y-107661706D01*
X106466205Y-107658990D01*
X106232704Y-107515901D01*
X106228768Y-107514173D01*
X105985873Y-107407549D01*
X105985869Y-107407548D01*
X105981945Y-107405825D01*
X105718566Y-107330800D01*
X105714324Y-107330196D01*
X105714318Y-107330195D01*
X105486874Y-107297825D01*
X105447443Y-107292213D01*
X105303589Y-107291460D01*
X105177877Y-107290802D01*
X105177871Y-107290802D01*
X105173591Y-107290780D01*
X105169347Y-107291339D01*
X105169343Y-107291339D01*
X105050302Y-107307011D01*
X104902078Y-107326525D01*
X104897938Y-107327658D01*
X104897936Y-107327658D01*
X104825008Y-107347609D01*
X104637928Y-107398788D01*
X104633980Y-107400472D01*
X104389982Y-107504546D01*
X104389978Y-107504548D01*
X104386030Y-107506232D01*
X104366125Y-107518145D01*
X104154725Y-107644664D01*
X104154721Y-107644667D01*
X104151043Y-107646868D01*
X103937318Y-107818094D01*
X103874269Y-107884534D01*
X103763542Y-108001216D01*
X103748808Y-108016742D01*
X103589002Y-108239136D01*
X103460857Y-108481161D01*
X103459385Y-108485184D01*
X103459383Y-108485188D01*
X103452314Y-108504506D01*
X103366743Y-108738337D01*
X103308404Y-109005907D01*
X103286917Y-109278918D01*
X22811756Y-109278918D01*
X22811406Y-109273784D01*
X22794859Y-109031055D01*
X22794858Y-109031049D01*
X22794567Y-109026778D01*
X22788624Y-108998078D01*
X22739901Y-108762809D01*
X22739032Y-108758612D01*
X22647617Y-108500465D01*
X22541234Y-108294352D01*
X22523978Y-108260919D01*
X22523978Y-108260918D01*
X22522013Y-108257112D01*
X22517200Y-108250263D01*
X22413931Y-108103326D01*
X22364545Y-108033057D01*
X22252513Y-107912496D01*
X22212764Y-107869721D01*
X43391024Y-107869721D01*
X43393491Y-107878352D01*
X43399150Y-107898153D01*
X43402728Y-107914915D01*
X43406920Y-107944187D01*
X43410634Y-107952355D01*
X43410634Y-107952356D01*
X43417548Y-107967562D01*
X43423996Y-107985086D01*
X43431051Y-108009771D01*
X43435843Y-108017365D01*
X43435844Y-108017368D01*
X43446830Y-108034780D01*
X43454969Y-108049863D01*
X43467208Y-108076782D01*
X43473069Y-108083584D01*
X43483970Y-108096235D01*
X43495073Y-108111239D01*
X43508776Y-108132958D01*
X43515501Y-108138897D01*
X43515504Y-108138901D01*
X43530938Y-108152532D01*
X43542982Y-108164724D01*
X43556427Y-108180327D01*
X43556430Y-108180329D01*
X43562287Y-108187127D01*
X43569816Y-108192007D01*
X43569817Y-108192008D01*
X43583835Y-108201094D01*
X43598709Y-108212385D01*
X43611217Y-108223431D01*
X43617951Y-108229378D01*
X43644711Y-108241942D01*
X43659691Y-108250263D01*
X43676983Y-108261471D01*
X43676988Y-108261473D01*
X43684515Y-108266352D01*
X43693108Y-108268922D01*
X43693113Y-108268924D01*
X43709120Y-108273711D01*
X43726564Y-108280372D01*
X43741676Y-108287467D01*
X43741678Y-108287468D01*
X43749800Y-108291281D01*
X43758667Y-108292662D01*
X43758668Y-108292662D01*
X43761353Y-108293080D01*
X43779017Y-108295830D01*
X43795732Y-108299613D01*
X43815466Y-108305515D01*
X43815472Y-108305516D01*
X43824066Y-108308086D01*
X43833037Y-108308141D01*
X43833038Y-108308141D01*
X43843097Y-108308202D01*
X43858506Y-108308296D01*
X43859289Y-108308329D01*
X43860386Y-108308500D01*
X43891377Y-108308500D01*
X43892147Y-108308502D01*
X43965785Y-108308952D01*
X43965786Y-108308952D01*
X43969721Y-108308976D01*
X43971065Y-108308592D01*
X43972410Y-108308500D01*
X53891377Y-108308500D01*
X53892148Y-108308502D01*
X53969721Y-108308976D01*
X53998152Y-108300850D01*
X54014915Y-108297272D01*
X54015753Y-108297152D01*
X54044187Y-108293080D01*
X54067564Y-108282451D01*
X54085087Y-108276004D01*
X54109771Y-108268949D01*
X54117365Y-108264157D01*
X54117368Y-108264156D01*
X54134780Y-108253170D01*
X54149865Y-108245030D01*
X54176782Y-108232792D01*
X54196235Y-108216030D01*
X54211239Y-108204927D01*
X54232958Y-108191224D01*
X54238897Y-108184499D01*
X54238901Y-108184496D01*
X54252532Y-108169062D01*
X54264724Y-108157018D01*
X54280327Y-108143573D01*
X54280329Y-108143570D01*
X54287127Y-108137713D01*
X54301094Y-108116165D01*
X54312385Y-108101291D01*
X54323431Y-108088783D01*
X54323432Y-108088782D01*
X54329378Y-108082049D01*
X54341943Y-108055287D01*
X54350263Y-108040309D01*
X54361471Y-108023017D01*
X54361473Y-108023012D01*
X54366352Y-108015485D01*
X54368922Y-108006892D01*
X54368924Y-108006887D01*
X54373711Y-107990880D01*
X54380372Y-107973436D01*
X54387467Y-107958324D01*
X54387468Y-107958322D01*
X54391281Y-107950200D01*
X54395830Y-107920983D01*
X54399613Y-107904268D01*
X54405515Y-107884534D01*
X54405516Y-107884528D01*
X54408086Y-107875934D01*
X54408296Y-107841494D01*
X54408329Y-107840711D01*
X54408500Y-107839614D01*
X54408500Y-107808623D01*
X54408502Y-107807853D01*
X54408952Y-107734215D01*
X54408952Y-107734214D01*
X54408976Y-107730279D01*
X54408592Y-107728935D01*
X54408500Y-107727590D01*
X54408500Y-103869721D01*
X122141024Y-103869721D01*
X122143491Y-103878352D01*
X122149150Y-103898153D01*
X122152728Y-103914915D01*
X122156920Y-103944187D01*
X122160634Y-103952355D01*
X122160634Y-103952356D01*
X122167548Y-103967562D01*
X122173996Y-103985086D01*
X122181051Y-104009771D01*
X122185843Y-104017365D01*
X122185844Y-104017368D01*
X122196830Y-104034780D01*
X122204969Y-104049863D01*
X122217208Y-104076782D01*
X122223069Y-104083584D01*
X122233970Y-104096235D01*
X122245073Y-104111239D01*
X122258776Y-104132958D01*
X122265501Y-104138897D01*
X122265504Y-104138901D01*
X122280938Y-104152532D01*
X122292982Y-104164724D01*
X122306427Y-104180327D01*
X122306430Y-104180329D01*
X122312287Y-104187127D01*
X122319816Y-104192007D01*
X122319817Y-104192008D01*
X122333835Y-104201094D01*
X122348709Y-104212385D01*
X122361217Y-104223431D01*
X122367951Y-104229378D01*
X122394711Y-104241942D01*
X122409691Y-104250263D01*
X122426983Y-104261471D01*
X122426988Y-104261473D01*
X122434515Y-104266352D01*
X122443108Y-104268922D01*
X122443113Y-104268924D01*
X122459120Y-104273711D01*
X122476564Y-104280372D01*
X122491676Y-104287467D01*
X122491678Y-104287468D01*
X122499800Y-104291281D01*
X122508667Y-104292662D01*
X122508668Y-104292662D01*
X122511353Y-104293080D01*
X122529017Y-104295830D01*
X122545732Y-104299613D01*
X122565466Y-104305515D01*
X122565472Y-104305516D01*
X122574066Y-104308086D01*
X122583037Y-104308141D01*
X122583038Y-104308141D01*
X122593097Y-104308202D01*
X122608506Y-104308296D01*
X122609289Y-104308329D01*
X122610386Y-104308500D01*
X122641377Y-104308500D01*
X122642147Y-104308502D01*
X122715785Y-104308952D01*
X122715786Y-104308952D01*
X122719721Y-104308976D01*
X122721065Y-104308592D01*
X122722410Y-104308500D01*
X175941377Y-104308500D01*
X175942148Y-104308502D01*
X176019721Y-104308976D01*
X176048152Y-104300850D01*
X176064915Y-104297272D01*
X176065753Y-104297152D01*
X176094187Y-104293080D01*
X176117564Y-104282451D01*
X176135087Y-104276004D01*
X176159771Y-104268949D01*
X176167365Y-104264157D01*
X176167368Y-104264156D01*
X176184780Y-104253170D01*
X176199865Y-104245030D01*
X176226782Y-104232792D01*
X176246235Y-104216030D01*
X176261239Y-104204927D01*
X176282958Y-104191224D01*
X176288897Y-104184499D01*
X176288901Y-104184496D01*
X176302532Y-104169062D01*
X176314724Y-104157018D01*
X176330327Y-104143573D01*
X176330329Y-104143570D01*
X176337127Y-104137713D01*
X176351094Y-104116165D01*
X176362385Y-104101291D01*
X176373431Y-104088783D01*
X176373432Y-104088782D01*
X176379378Y-104082049D01*
X176391943Y-104055287D01*
X176400263Y-104040309D01*
X176411471Y-104023017D01*
X176411473Y-104023012D01*
X176416352Y-104015485D01*
X176418922Y-104006892D01*
X176418924Y-104006887D01*
X176423711Y-103990880D01*
X176430372Y-103973436D01*
X176437467Y-103958324D01*
X176437468Y-103958322D01*
X176441281Y-103950200D01*
X176445830Y-103920983D01*
X176449613Y-103904268D01*
X176455515Y-103884534D01*
X176455516Y-103884528D01*
X176458086Y-103875934D01*
X176458296Y-103841494D01*
X176458329Y-103840711D01*
X176458500Y-103839614D01*
X176458500Y-103808623D01*
X176458502Y-103807853D01*
X176458952Y-103734215D01*
X176458952Y-103734214D01*
X176458976Y-103730279D01*
X176458592Y-103728935D01*
X176458500Y-103727590D01*
X176458500Y-97551795D01*
X193087784Y-97551795D01*
X193088141Y-97558611D01*
X193088141Y-97558615D01*
X193093965Y-97669721D01*
X193097547Y-97738067D01*
X193147080Y-97917898D01*
X193234075Y-98082898D01*
X193238480Y-98088111D01*
X193238483Y-98088115D01*
X193350064Y-98220153D01*
X193350068Y-98220157D01*
X193354471Y-98225367D01*
X193359895Y-98229514D01*
X193359896Y-98229515D01*
X193497231Y-98334516D01*
X193497235Y-98334519D01*
X193502652Y-98338660D01*
X193671704Y-98417490D01*
X193853740Y-98458180D01*
X193859463Y-98458500D01*
X228296596Y-98458500D01*
X228435437Y-98443417D01*
X228612223Y-98383922D01*
X228772109Y-98287853D01*
X228907636Y-98159692D01*
X228942426Y-98108500D01*
X229008646Y-98011060D01*
X229008647Y-98011058D01*
X229012480Y-98005418D01*
X229045071Y-97923937D01*
X229079215Y-97838570D01*
X229079216Y-97838568D01*
X229081751Y-97832229D01*
X229108209Y-97672410D01*
X229111101Y-97654942D01*
X229111101Y-97654939D01*
X229112216Y-97648205D01*
X229110142Y-97608623D01*
X229102810Y-97468746D01*
X229102453Y-97461933D01*
X229052920Y-97282102D01*
X228965925Y-97117102D01*
X228961520Y-97111889D01*
X228961517Y-97111885D01*
X228849936Y-96979847D01*
X228849932Y-96979843D01*
X228845529Y-96974633D01*
X228840104Y-96970485D01*
X228702769Y-96865484D01*
X228702765Y-96865481D01*
X228697348Y-96861340D01*
X228528296Y-96782510D01*
X228346260Y-96741820D01*
X228340537Y-96741500D01*
X193903404Y-96741500D01*
X193764563Y-96756583D01*
X193587777Y-96816078D01*
X193427891Y-96912147D01*
X193292364Y-97040308D01*
X193288529Y-97045951D01*
X193192255Y-97187615D01*
X193187520Y-97194582D01*
X193184988Y-97200911D01*
X193184987Y-97200914D01*
X193136069Y-97323218D01*
X193118249Y-97367771D01*
X193106014Y-97441676D01*
X193092375Y-97524066D01*
X193087784Y-97551795D01*
X176458500Y-97551795D01*
X176458500Y-88908623D01*
X176458502Y-88907853D01*
X176458800Y-88859102D01*
X176458976Y-88830279D01*
X176450850Y-88801847D01*
X176447272Y-88785085D01*
X176444352Y-88764698D01*
X176443080Y-88755813D01*
X176432451Y-88732436D01*
X176426004Y-88714913D01*
X176421416Y-88698862D01*
X176418949Y-88690229D01*
X176414156Y-88682632D01*
X176403170Y-88665220D01*
X176395030Y-88650135D01*
X176392564Y-88644711D01*
X176382792Y-88623218D01*
X176366030Y-88603765D01*
X176354927Y-88588761D01*
X176341224Y-88567042D01*
X176334499Y-88561103D01*
X176334496Y-88561099D01*
X176319062Y-88547468D01*
X176307018Y-88535276D01*
X176293573Y-88519673D01*
X176293570Y-88519671D01*
X176287713Y-88512873D01*
X176274009Y-88503990D01*
X176266165Y-88498906D01*
X176251291Y-88487615D01*
X176238783Y-88476569D01*
X176238782Y-88476568D01*
X176232049Y-88470622D01*
X176205287Y-88458057D01*
X176190309Y-88449737D01*
X176173017Y-88438529D01*
X176173012Y-88438527D01*
X176165485Y-88433648D01*
X176156892Y-88431078D01*
X176156887Y-88431076D01*
X176140880Y-88426289D01*
X176123436Y-88419628D01*
X176108324Y-88412533D01*
X176108322Y-88412532D01*
X176100200Y-88408719D01*
X176091333Y-88407338D01*
X176091332Y-88407338D01*
X176080478Y-88405648D01*
X176070983Y-88404170D01*
X176054268Y-88400387D01*
X176034534Y-88394485D01*
X176034528Y-88394484D01*
X176025934Y-88391914D01*
X176016963Y-88391859D01*
X176016962Y-88391859D01*
X176006903Y-88391798D01*
X175991494Y-88391704D01*
X175990711Y-88391671D01*
X175989614Y-88391500D01*
X175958623Y-88391500D01*
X175957853Y-88391498D01*
X175884215Y-88391048D01*
X175884214Y-88391048D01*
X175880279Y-88391024D01*
X175878935Y-88391408D01*
X175877590Y-88391500D01*
X122658623Y-88391500D01*
X122657853Y-88391498D01*
X122657037Y-88391493D01*
X122580279Y-88391024D01*
X122557918Y-88397415D01*
X122551847Y-88399150D01*
X122535085Y-88402728D01*
X122505813Y-88406920D01*
X122497645Y-88410634D01*
X122497644Y-88410634D01*
X122482438Y-88417548D01*
X122464914Y-88423996D01*
X122440229Y-88431051D01*
X122432635Y-88435843D01*
X122432632Y-88435844D01*
X122415220Y-88446830D01*
X122400137Y-88454969D01*
X122373218Y-88467208D01*
X122366416Y-88473069D01*
X122353765Y-88483970D01*
X122338761Y-88495073D01*
X122317042Y-88508776D01*
X122311103Y-88515501D01*
X122311099Y-88515504D01*
X122297468Y-88530938D01*
X122285276Y-88542982D01*
X122269673Y-88556427D01*
X122269671Y-88556430D01*
X122262873Y-88562287D01*
X122257993Y-88569816D01*
X122257992Y-88569817D01*
X122248906Y-88583835D01*
X122237615Y-88598709D01*
X122226569Y-88611217D01*
X122220622Y-88617951D01*
X122214312Y-88631391D01*
X122208058Y-88644711D01*
X122199737Y-88659691D01*
X122188529Y-88676983D01*
X122188527Y-88676988D01*
X122183648Y-88684515D01*
X122181078Y-88693108D01*
X122181076Y-88693113D01*
X122176289Y-88709120D01*
X122169628Y-88726564D01*
X122162533Y-88741676D01*
X122158719Y-88749800D01*
X122157338Y-88758667D01*
X122157338Y-88758668D01*
X122154170Y-88779015D01*
X122150387Y-88795732D01*
X122144485Y-88815466D01*
X122144484Y-88815472D01*
X122141914Y-88824066D01*
X122141859Y-88833037D01*
X122141859Y-88833038D01*
X122141704Y-88858497D01*
X122141671Y-88859289D01*
X122141500Y-88860386D01*
X122141500Y-88891377D01*
X122141498Y-88892147D01*
X122141024Y-88969721D01*
X122141408Y-88971065D01*
X122141500Y-88972410D01*
X122141500Y-103791377D01*
X122141498Y-103792147D01*
X122141024Y-103869721D01*
X54408500Y-103869721D01*
X54408500Y-98771327D01*
X64914971Y-98771327D01*
X64915660Y-98776141D01*
X64915661Y-98776149D01*
X64916142Y-98779509D01*
X64917144Y-98789121D01*
X64917645Y-98796758D01*
X64932773Y-99027511D01*
X64933576Y-99031545D01*
X64933576Y-99031549D01*
X64957818Y-99153412D01*
X64982862Y-99279312D01*
X64984183Y-99283203D01*
X64984185Y-99283211D01*
X65015855Y-99376503D01*
X65065389Y-99522420D01*
X65067215Y-99526122D01*
X65067218Y-99526130D01*
X65097080Y-99586682D01*
X65178942Y-99752677D01*
X65321578Y-99966142D01*
X65324298Y-99969244D01*
X65324303Y-99969250D01*
X65480724Y-100147611D01*
X65490856Y-100159164D01*
X65683879Y-100328439D01*
X65897347Y-100471072D01*
X66127605Y-100584621D01*
X66131510Y-100585946D01*
X66131511Y-100585947D01*
X66366808Y-100665819D01*
X66366811Y-100665820D01*
X66370715Y-100667145D01*
X66374754Y-100667948D01*
X66374760Y-100667950D01*
X66617540Y-100716241D01*
X66622516Y-100717231D01*
X66626624Y-100717500D01*
X66626630Y-100717501D01*
X66743972Y-100725191D01*
X66843260Y-100731699D01*
X66855910Y-100733173D01*
X66866148Y-100734896D01*
X66872641Y-100734975D01*
X66873840Y-100734990D01*
X66873843Y-100734990D01*
X66878700Y-100735049D01*
X66906324Y-100731093D01*
X66924186Y-100729820D01*
X71068050Y-100729820D01*
X71088955Y-100731566D01*
X71103956Y-100734090D01*
X71103959Y-100734090D01*
X71108748Y-100734896D01*
X71115063Y-100734973D01*
X71116442Y-100734990D01*
X71116445Y-100734990D01*
X71121300Y-100735049D01*
X71129997Y-100733803D01*
X71139616Y-100732801D01*
X71185100Y-100729820D01*
X71373366Y-100717481D01*
X71373369Y-100717481D01*
X71377482Y-100717211D01*
X71381522Y-100716407D01*
X71381525Y-100716407D01*
X71461639Y-100700471D01*
X71629280Y-100667126D01*
X71633184Y-100665801D01*
X71633187Y-100665800D01*
X71868481Y-100585929D01*
X71868482Y-100585928D01*
X71872387Y-100584603D01*
X72102643Y-100471054D01*
X72316108Y-100328423D01*
X72509130Y-100159149D01*
X72678407Y-99966130D01*
X72821041Y-99752667D01*
X72902897Y-99586682D01*
X72932773Y-99526101D01*
X72932774Y-99526098D01*
X72934592Y-99522412D01*
X72984128Y-99376490D01*
X73015796Y-99283204D01*
X73015797Y-99283200D01*
X73017119Y-99279306D01*
X73067208Y-99027509D01*
X73067477Y-99023406D01*
X73067478Y-99023398D01*
X73081679Y-98806769D01*
X73083155Y-98794110D01*
X73084067Y-98788688D01*
X73084067Y-98788686D01*
X73084876Y-98783879D01*
X73085029Y-98771327D01*
X82914971Y-98771327D01*
X82915660Y-98776141D01*
X82915661Y-98776149D01*
X82916142Y-98779509D01*
X82917144Y-98789121D01*
X82917645Y-98796758D01*
X82932773Y-99027511D01*
X82933576Y-99031545D01*
X82933576Y-99031549D01*
X82957818Y-99153412D01*
X82982862Y-99279312D01*
X82984183Y-99283203D01*
X82984185Y-99283211D01*
X83015855Y-99376503D01*
X83065389Y-99522420D01*
X83067215Y-99526122D01*
X83067218Y-99526130D01*
X83097080Y-99586682D01*
X83178942Y-99752677D01*
X83321578Y-99966142D01*
X83324298Y-99969244D01*
X83324303Y-99969250D01*
X83480724Y-100147611D01*
X83490856Y-100159164D01*
X83683879Y-100328439D01*
X83897347Y-100471072D01*
X84127605Y-100584621D01*
X84131510Y-100585946D01*
X84131511Y-100585947D01*
X84366808Y-100665819D01*
X84366811Y-100665820D01*
X84370715Y-100667145D01*
X84374754Y-100667948D01*
X84374760Y-100667950D01*
X84617540Y-100716241D01*
X84622516Y-100717231D01*
X84626624Y-100717500D01*
X84626630Y-100717501D01*
X84743972Y-100725191D01*
X84843260Y-100731699D01*
X84855910Y-100733173D01*
X84866148Y-100734896D01*
X84872641Y-100734975D01*
X84873840Y-100734990D01*
X84873843Y-100734990D01*
X84878700Y-100735049D01*
X84906324Y-100731093D01*
X84924186Y-100729820D01*
X89068050Y-100729820D01*
X89088955Y-100731566D01*
X89103956Y-100734090D01*
X89103959Y-100734090D01*
X89108748Y-100734896D01*
X89115063Y-100734973D01*
X89116442Y-100734990D01*
X89116445Y-100734990D01*
X89121300Y-100735049D01*
X89129997Y-100733803D01*
X89139616Y-100732801D01*
X89185100Y-100729820D01*
X89373366Y-100717481D01*
X89373369Y-100717481D01*
X89377482Y-100717211D01*
X89381522Y-100716407D01*
X89381525Y-100716407D01*
X89461639Y-100700471D01*
X89629280Y-100667126D01*
X89633184Y-100665801D01*
X89633187Y-100665800D01*
X89868481Y-100585929D01*
X89868482Y-100585928D01*
X89872387Y-100584603D01*
X90102643Y-100471054D01*
X90316108Y-100328423D01*
X90509130Y-100159149D01*
X90678407Y-99966130D01*
X90821041Y-99752667D01*
X90902897Y-99586682D01*
X90932773Y-99526101D01*
X90932774Y-99526098D01*
X90934592Y-99522412D01*
X90984128Y-99376490D01*
X91015796Y-99283204D01*
X91015797Y-99283200D01*
X91017119Y-99279306D01*
X91067208Y-99027509D01*
X91067477Y-99023406D01*
X91067478Y-99023398D01*
X91081679Y-98806769D01*
X91083155Y-98794110D01*
X91084067Y-98788688D01*
X91084067Y-98788686D01*
X91084876Y-98783879D01*
X91085029Y-98771327D01*
X100914971Y-98771327D01*
X100915660Y-98776141D01*
X100915661Y-98776149D01*
X100916142Y-98779509D01*
X100917144Y-98789121D01*
X100917645Y-98796758D01*
X100932773Y-99027511D01*
X100933576Y-99031545D01*
X100933576Y-99031549D01*
X100957818Y-99153412D01*
X100982862Y-99279312D01*
X100984183Y-99283203D01*
X100984185Y-99283211D01*
X101015855Y-99376503D01*
X101065389Y-99522420D01*
X101067215Y-99526122D01*
X101067218Y-99526130D01*
X101097080Y-99586682D01*
X101178942Y-99752677D01*
X101321578Y-99966142D01*
X101324298Y-99969244D01*
X101324303Y-99969250D01*
X101480724Y-100147611D01*
X101490856Y-100159164D01*
X101683879Y-100328439D01*
X101897347Y-100471072D01*
X102127605Y-100584621D01*
X102131510Y-100585946D01*
X102131511Y-100585947D01*
X102366808Y-100665819D01*
X102366811Y-100665820D01*
X102370715Y-100667145D01*
X102374754Y-100667948D01*
X102374760Y-100667950D01*
X102617540Y-100716241D01*
X102622516Y-100717231D01*
X102626624Y-100717500D01*
X102626630Y-100717501D01*
X102743972Y-100725191D01*
X102843260Y-100731699D01*
X102855910Y-100733173D01*
X102866148Y-100734896D01*
X102872641Y-100734975D01*
X102873840Y-100734990D01*
X102873843Y-100734990D01*
X102878700Y-100735049D01*
X102906324Y-100731093D01*
X102924186Y-100729820D01*
X107068050Y-100729820D01*
X107088955Y-100731566D01*
X107103956Y-100734090D01*
X107103959Y-100734090D01*
X107108748Y-100734896D01*
X107115063Y-100734973D01*
X107116442Y-100734990D01*
X107116445Y-100734990D01*
X107121300Y-100735049D01*
X107129997Y-100733803D01*
X107139616Y-100732801D01*
X107185100Y-100729820D01*
X107373366Y-100717481D01*
X107373369Y-100717481D01*
X107377482Y-100717211D01*
X107381522Y-100716407D01*
X107381525Y-100716407D01*
X107461639Y-100700471D01*
X107629280Y-100667126D01*
X107633184Y-100665801D01*
X107633187Y-100665800D01*
X107868481Y-100585929D01*
X107868482Y-100585928D01*
X107872387Y-100584603D01*
X108102643Y-100471054D01*
X108316108Y-100328423D01*
X108509130Y-100159149D01*
X108678407Y-99966130D01*
X108821041Y-99752667D01*
X108902897Y-99586682D01*
X108932773Y-99526101D01*
X108932774Y-99526098D01*
X108934592Y-99522412D01*
X108984128Y-99376490D01*
X109015796Y-99283204D01*
X109015797Y-99283200D01*
X109017119Y-99279306D01*
X109067208Y-99027509D01*
X109067477Y-99023406D01*
X109067478Y-99023398D01*
X109081679Y-98806769D01*
X109083155Y-98794110D01*
X109084067Y-98788688D01*
X109084067Y-98788686D01*
X109084876Y-98783879D01*
X109085029Y-98771327D01*
X109081072Y-98743694D01*
X109079800Y-98725833D01*
X109079800Y-94581950D01*
X109081546Y-94561045D01*
X109084070Y-94546044D01*
X109084070Y-94546041D01*
X109084876Y-94541252D01*
X109085029Y-94528700D01*
X109083819Y-94520251D01*
X109082818Y-94510643D01*
X109067481Y-94276632D01*
X109067481Y-94276628D01*
X109067211Y-94272516D01*
X109054117Y-94206688D01*
X109017931Y-94024765D01*
X109017929Y-94024759D01*
X109017125Y-94020715D01*
X108934600Y-93777606D01*
X108868703Y-93643979D01*
X108822877Y-93551053D01*
X108822874Y-93551048D01*
X108821050Y-93547349D01*
X108678416Y-93333883D01*
X108509140Y-93140860D01*
X108316117Y-92971584D01*
X108102651Y-92828950D01*
X108098952Y-92827126D01*
X108098947Y-92827123D01*
X107876089Y-92717222D01*
X107876087Y-92717221D01*
X107872394Y-92715400D01*
X107868494Y-92714076D01*
X107633195Y-92634202D01*
X107633191Y-92634201D01*
X107629285Y-92632875D01*
X107625241Y-92632071D01*
X107625235Y-92632069D01*
X107381526Y-92583593D01*
X107377484Y-92582789D01*
X107373376Y-92582520D01*
X107373370Y-92582519D01*
X107256028Y-92574829D01*
X107156740Y-92568321D01*
X107144090Y-92566847D01*
X107133852Y-92565124D01*
X107127359Y-92565045D01*
X107126160Y-92565030D01*
X107126157Y-92565030D01*
X107121300Y-92564971D01*
X107097901Y-92568322D01*
X107093676Y-92568927D01*
X107075814Y-92570200D01*
X102931950Y-92570200D01*
X102911045Y-92568454D01*
X102896044Y-92565930D01*
X102896041Y-92565930D01*
X102891252Y-92565124D01*
X102884976Y-92565047D01*
X102883559Y-92565030D01*
X102883556Y-92565030D01*
X102878700Y-92564971D01*
X102870251Y-92566181D01*
X102860647Y-92567182D01*
X102760616Y-92573738D01*
X102626632Y-92582519D01*
X102626628Y-92582519D01*
X102622516Y-92582789D01*
X102618476Y-92583593D01*
X102618473Y-92583593D01*
X102374765Y-92632069D01*
X102374759Y-92632071D01*
X102370715Y-92632875D01*
X102366809Y-92634201D01*
X102366805Y-92634202D01*
X102131506Y-92714076D01*
X102127606Y-92715400D01*
X102123913Y-92717221D01*
X102123911Y-92717222D01*
X101901053Y-92827123D01*
X101901048Y-92827126D01*
X101897349Y-92828950D01*
X101683883Y-92971584D01*
X101490860Y-93140860D01*
X101321584Y-93333883D01*
X101178950Y-93547349D01*
X101177126Y-93551048D01*
X101177123Y-93551053D01*
X101131297Y-93643979D01*
X101065400Y-93777606D01*
X100982875Y-94020715D01*
X100982071Y-94024759D01*
X100982069Y-94024765D01*
X100945883Y-94206688D01*
X100932789Y-94272516D01*
X100932520Y-94276627D01*
X100932519Y-94276631D01*
X100917794Y-94501294D01*
X100916564Y-94512436D01*
X100916390Y-94513550D01*
X100916390Y-94513554D01*
X100915009Y-94522424D01*
X100916173Y-94531326D01*
X100916173Y-94531328D01*
X100919136Y-94553983D01*
X100920200Y-94570321D01*
X100920200Y-98718078D01*
X100918454Y-98738979D01*
X100915124Y-98758775D01*
X100914971Y-98771327D01*
X91085029Y-98771327D01*
X91081072Y-98743694D01*
X91079800Y-98725833D01*
X91079800Y-94581950D01*
X91081546Y-94561045D01*
X91084070Y-94546044D01*
X91084070Y-94546041D01*
X91084876Y-94541252D01*
X91085029Y-94528700D01*
X91083819Y-94520251D01*
X91082818Y-94510643D01*
X91067481Y-94276632D01*
X91067481Y-94276628D01*
X91067211Y-94272516D01*
X91054117Y-94206688D01*
X91017931Y-94024765D01*
X91017929Y-94024759D01*
X91017125Y-94020715D01*
X90934600Y-93777606D01*
X90868703Y-93643979D01*
X90822877Y-93551053D01*
X90822874Y-93551048D01*
X90821050Y-93547349D01*
X90678416Y-93333883D01*
X90509140Y-93140860D01*
X90316117Y-92971584D01*
X90102651Y-92828950D01*
X90098952Y-92827126D01*
X90098947Y-92827123D01*
X89876089Y-92717222D01*
X89876087Y-92717221D01*
X89872394Y-92715400D01*
X89868494Y-92714076D01*
X89633195Y-92634202D01*
X89633191Y-92634201D01*
X89629285Y-92632875D01*
X89625241Y-92632071D01*
X89625235Y-92632069D01*
X89381526Y-92583593D01*
X89377484Y-92582789D01*
X89373376Y-92582520D01*
X89373370Y-92582519D01*
X89256028Y-92574829D01*
X89156740Y-92568321D01*
X89144090Y-92566847D01*
X89133852Y-92565124D01*
X89127359Y-92565045D01*
X89126160Y-92565030D01*
X89126157Y-92565030D01*
X89121300Y-92564971D01*
X89097901Y-92568322D01*
X89093676Y-92568927D01*
X89075814Y-92570200D01*
X84931950Y-92570200D01*
X84911045Y-92568454D01*
X84896044Y-92565930D01*
X84896041Y-92565930D01*
X84891252Y-92565124D01*
X84884976Y-92565047D01*
X84883559Y-92565030D01*
X84883556Y-92565030D01*
X84878700Y-92564971D01*
X84870251Y-92566181D01*
X84860647Y-92567182D01*
X84760616Y-92573738D01*
X84626632Y-92582519D01*
X84626628Y-92582519D01*
X84622516Y-92582789D01*
X84618476Y-92583593D01*
X84618473Y-92583593D01*
X84374765Y-92632069D01*
X84374759Y-92632071D01*
X84370715Y-92632875D01*
X84366809Y-92634201D01*
X84366805Y-92634202D01*
X84131506Y-92714076D01*
X84127606Y-92715400D01*
X84123913Y-92717221D01*
X84123911Y-92717222D01*
X83901053Y-92827123D01*
X83901048Y-92827126D01*
X83897349Y-92828950D01*
X83683883Y-92971584D01*
X83490860Y-93140860D01*
X83321584Y-93333883D01*
X83178950Y-93547349D01*
X83177126Y-93551048D01*
X83177123Y-93551053D01*
X83131297Y-93643979D01*
X83065400Y-93777606D01*
X82982875Y-94020715D01*
X82982071Y-94024759D01*
X82982069Y-94024765D01*
X82945883Y-94206688D01*
X82932789Y-94272516D01*
X82932520Y-94276627D01*
X82932519Y-94276631D01*
X82917794Y-94501294D01*
X82916564Y-94512436D01*
X82916390Y-94513550D01*
X82916390Y-94513554D01*
X82915009Y-94522424D01*
X82916173Y-94531326D01*
X82916173Y-94531328D01*
X82919136Y-94553983D01*
X82920200Y-94570321D01*
X82920200Y-98718078D01*
X82918454Y-98738979D01*
X82915124Y-98758775D01*
X82914971Y-98771327D01*
X73085029Y-98771327D01*
X73081072Y-98743694D01*
X73079800Y-98725833D01*
X73079800Y-94581950D01*
X73081546Y-94561045D01*
X73084070Y-94546044D01*
X73084070Y-94546041D01*
X73084876Y-94541252D01*
X73085029Y-94528700D01*
X73083819Y-94520251D01*
X73082818Y-94510643D01*
X73067481Y-94276632D01*
X73067481Y-94276628D01*
X73067211Y-94272516D01*
X73054117Y-94206688D01*
X73017931Y-94024765D01*
X73017929Y-94024759D01*
X73017125Y-94020715D01*
X72934600Y-93777606D01*
X72868703Y-93643979D01*
X72822877Y-93551053D01*
X72822874Y-93551048D01*
X72821050Y-93547349D01*
X72678416Y-93333883D01*
X72509140Y-93140860D01*
X72316117Y-92971584D01*
X72102651Y-92828950D01*
X72098952Y-92827126D01*
X72098947Y-92827123D01*
X71876089Y-92717222D01*
X71876087Y-92717221D01*
X71872394Y-92715400D01*
X71868494Y-92714076D01*
X71633195Y-92634202D01*
X71633191Y-92634201D01*
X71629285Y-92632875D01*
X71625241Y-92632071D01*
X71625235Y-92632069D01*
X71381526Y-92583593D01*
X71377484Y-92582789D01*
X71373376Y-92582520D01*
X71373370Y-92582519D01*
X71256028Y-92574829D01*
X71156740Y-92568321D01*
X71144090Y-92566847D01*
X71133852Y-92565124D01*
X71127359Y-92565045D01*
X71126160Y-92565030D01*
X71126157Y-92565030D01*
X71121300Y-92564971D01*
X71097901Y-92568322D01*
X71093676Y-92568927D01*
X71075814Y-92570200D01*
X66931950Y-92570200D01*
X66911045Y-92568454D01*
X66896044Y-92565930D01*
X66896041Y-92565930D01*
X66891252Y-92565124D01*
X66884976Y-92565047D01*
X66883559Y-92565030D01*
X66883556Y-92565030D01*
X66878700Y-92564971D01*
X66870251Y-92566181D01*
X66860647Y-92567182D01*
X66760616Y-92573738D01*
X66626632Y-92582519D01*
X66626628Y-92582519D01*
X66622516Y-92582789D01*
X66618476Y-92583593D01*
X66618473Y-92583593D01*
X66374765Y-92632069D01*
X66374759Y-92632071D01*
X66370715Y-92632875D01*
X66366809Y-92634201D01*
X66366805Y-92634202D01*
X66131506Y-92714076D01*
X66127606Y-92715400D01*
X66123913Y-92717221D01*
X66123911Y-92717222D01*
X65901053Y-92827123D01*
X65901048Y-92827126D01*
X65897349Y-92828950D01*
X65683883Y-92971584D01*
X65490860Y-93140860D01*
X65321584Y-93333883D01*
X65178950Y-93547349D01*
X65177126Y-93551048D01*
X65177123Y-93551053D01*
X65131297Y-93643979D01*
X65065400Y-93777606D01*
X64982875Y-94020715D01*
X64982071Y-94024759D01*
X64982069Y-94024765D01*
X64945883Y-94206688D01*
X64932789Y-94272516D01*
X64932520Y-94276627D01*
X64932519Y-94276631D01*
X64917794Y-94501294D01*
X64916564Y-94512436D01*
X64916390Y-94513550D01*
X64916390Y-94513554D01*
X64915009Y-94522424D01*
X64916173Y-94531326D01*
X64916173Y-94531328D01*
X64919136Y-94553983D01*
X64920200Y-94570321D01*
X64920200Y-98718078D01*
X64918454Y-98738979D01*
X64915124Y-98758775D01*
X64914971Y-98771327D01*
X54408500Y-98771327D01*
X54408500Y-97608623D01*
X54408502Y-97607853D01*
X54408803Y-97558615D01*
X54408976Y-97530279D01*
X54400850Y-97501847D01*
X54397272Y-97485085D01*
X54394352Y-97464698D01*
X54393080Y-97455813D01*
X54382451Y-97432436D01*
X54376004Y-97414913D01*
X54371416Y-97398862D01*
X54368949Y-97390229D01*
X54364156Y-97382632D01*
X54353170Y-97365220D01*
X54345030Y-97350135D01*
X54342564Y-97344711D01*
X54332792Y-97323218D01*
X54316030Y-97303765D01*
X54304927Y-97288761D01*
X54291224Y-97267042D01*
X54284499Y-97261103D01*
X54284496Y-97261099D01*
X54269062Y-97247468D01*
X54257018Y-97235276D01*
X54243573Y-97219673D01*
X54243570Y-97219671D01*
X54237713Y-97212873D01*
X54224009Y-97203990D01*
X54216165Y-97198906D01*
X54201291Y-97187615D01*
X54188783Y-97176569D01*
X54188782Y-97176568D01*
X54182049Y-97170622D01*
X54155287Y-97158057D01*
X54140309Y-97149737D01*
X54123017Y-97138529D01*
X54123012Y-97138527D01*
X54115485Y-97133648D01*
X54106892Y-97131078D01*
X54106887Y-97131076D01*
X54090880Y-97126289D01*
X54073436Y-97119628D01*
X54058324Y-97112533D01*
X54058322Y-97112532D01*
X54050200Y-97108719D01*
X54041333Y-97107338D01*
X54041332Y-97107338D01*
X54030478Y-97105648D01*
X54020983Y-97104170D01*
X54004268Y-97100387D01*
X53984534Y-97094485D01*
X53984528Y-97094484D01*
X53975934Y-97091914D01*
X53966963Y-97091859D01*
X53966962Y-97091859D01*
X53956903Y-97091798D01*
X53941494Y-97091704D01*
X53940711Y-97091671D01*
X53939614Y-97091500D01*
X53908623Y-97091500D01*
X53907853Y-97091498D01*
X53834215Y-97091048D01*
X53834214Y-97091048D01*
X53830279Y-97091024D01*
X53828935Y-97091408D01*
X53827590Y-97091500D01*
X43908623Y-97091500D01*
X43907853Y-97091498D01*
X43907037Y-97091493D01*
X43830279Y-97091024D01*
X43807918Y-97097415D01*
X43801847Y-97099150D01*
X43785085Y-97102728D01*
X43755813Y-97106920D01*
X43747645Y-97110634D01*
X43747644Y-97110634D01*
X43732438Y-97117548D01*
X43714914Y-97123996D01*
X43690229Y-97131051D01*
X43682635Y-97135843D01*
X43682632Y-97135844D01*
X43665220Y-97146830D01*
X43650137Y-97154969D01*
X43623218Y-97167208D01*
X43616416Y-97173069D01*
X43603765Y-97183970D01*
X43588761Y-97195073D01*
X43567042Y-97208776D01*
X43561103Y-97215501D01*
X43561099Y-97215504D01*
X43547468Y-97230938D01*
X43535276Y-97242982D01*
X43519673Y-97256427D01*
X43519671Y-97256430D01*
X43512873Y-97262287D01*
X43507993Y-97269816D01*
X43507992Y-97269817D01*
X43498906Y-97283835D01*
X43487615Y-97298709D01*
X43476569Y-97311217D01*
X43470622Y-97317951D01*
X43464312Y-97331391D01*
X43458058Y-97344711D01*
X43449737Y-97359691D01*
X43438529Y-97376983D01*
X43438527Y-97376988D01*
X43433648Y-97384515D01*
X43431078Y-97393108D01*
X43431076Y-97393113D01*
X43426289Y-97409120D01*
X43419628Y-97426564D01*
X43412533Y-97441676D01*
X43408719Y-97449800D01*
X43407338Y-97458667D01*
X43407338Y-97458668D01*
X43404170Y-97479015D01*
X43400387Y-97495732D01*
X43394485Y-97515466D01*
X43394484Y-97515472D01*
X43391914Y-97524066D01*
X43391859Y-97533037D01*
X43391859Y-97533038D01*
X43391704Y-97558497D01*
X43391671Y-97559289D01*
X43391500Y-97560386D01*
X43391500Y-97591377D01*
X43391498Y-97592147D01*
X43391024Y-97669721D01*
X43391408Y-97671065D01*
X43391500Y-97672410D01*
X43391500Y-107791377D01*
X43391498Y-107792147D01*
X43391024Y-107869721D01*
X22212764Y-107869721D01*
X22181046Y-107835588D01*
X22181043Y-107835585D01*
X22178125Y-107832445D01*
X22174810Y-107829731D01*
X22174806Y-107829728D01*
X21969523Y-107661706D01*
X21966205Y-107658990D01*
X21732704Y-107515901D01*
X21728768Y-107514173D01*
X21485873Y-107407549D01*
X21485869Y-107407548D01*
X21481945Y-107405825D01*
X21218566Y-107330800D01*
X21214324Y-107330196D01*
X21214318Y-107330195D01*
X20986874Y-107297825D01*
X20947443Y-107292213D01*
X20803589Y-107291460D01*
X20677877Y-107290802D01*
X20677871Y-107290802D01*
X20673591Y-107290780D01*
X20669347Y-107291339D01*
X20669343Y-107291339D01*
X20550302Y-107307011D01*
X20402078Y-107326525D01*
X20397938Y-107327658D01*
X20397936Y-107327658D01*
X20325008Y-107347609D01*
X20137928Y-107398788D01*
X20133980Y-107400472D01*
X19889982Y-107504546D01*
X19889978Y-107504548D01*
X19886030Y-107506232D01*
X19866125Y-107518145D01*
X19654725Y-107644664D01*
X19654721Y-107644667D01*
X19651043Y-107646868D01*
X19437318Y-107818094D01*
X19374269Y-107884534D01*
X19263542Y-108001216D01*
X19248808Y-108016742D01*
X19089002Y-108239136D01*
X18960857Y-108481161D01*
X18959385Y-108485184D01*
X18959383Y-108485188D01*
X18952314Y-108504506D01*
X18866743Y-108738337D01*
X18808404Y-109005907D01*
X18786917Y-109278918D01*
X17808500Y-109278918D01*
X17808500Y-84278918D01*
X18786917Y-84278918D01*
X18802682Y-84552320D01*
X18803507Y-84556525D01*
X18803508Y-84556533D01*
X18814127Y-84610657D01*
X18855405Y-84821053D01*
X18856792Y-84825103D01*
X18856793Y-84825108D01*
X18877605Y-84885895D01*
X18944112Y-85080144D01*
X19067160Y-85324799D01*
X19069586Y-85328328D01*
X19069589Y-85328334D01*
X19219843Y-85546953D01*
X19222274Y-85550490D01*
X19406582Y-85753043D01*
X19616675Y-85928707D01*
X19620316Y-85930991D01*
X19845024Y-86071951D01*
X19845028Y-86071953D01*
X19848664Y-86074234D01*
X19916544Y-86104883D01*
X20094345Y-86185164D01*
X20094349Y-86185166D01*
X20098257Y-86186930D01*
X20102377Y-86188150D01*
X20102376Y-86188150D01*
X20356723Y-86263491D01*
X20356727Y-86263492D01*
X20360836Y-86264709D01*
X20365070Y-86265357D01*
X20365075Y-86265358D01*
X20627298Y-86305483D01*
X20627300Y-86305483D01*
X20631540Y-86306132D01*
X20770912Y-86308322D01*
X20901071Y-86310367D01*
X20901077Y-86310367D01*
X20905362Y-86310434D01*
X21177235Y-86277534D01*
X21442127Y-86208041D01*
X21446087Y-86206401D01*
X21446092Y-86206399D01*
X21568632Y-86155641D01*
X21695136Y-86103241D01*
X21931582Y-85965073D01*
X22147089Y-85796094D01*
X22188809Y-85753043D01*
X22334686Y-85602509D01*
X22337669Y-85599431D01*
X22340202Y-85595983D01*
X22340206Y-85595978D01*
X22497257Y-85382178D01*
X22499795Y-85378723D01*
X22527154Y-85328334D01*
X22628418Y-85141830D01*
X22628419Y-85141828D01*
X22630468Y-85138054D01*
X22727269Y-84881877D01*
X22788407Y-84614933D01*
X22812751Y-84342161D01*
X22813193Y-84300000D01*
X22811756Y-84278918D01*
X103286917Y-84278918D01*
X103302682Y-84552320D01*
X103303507Y-84556525D01*
X103303508Y-84556533D01*
X103314127Y-84610657D01*
X103355405Y-84821053D01*
X103356792Y-84825103D01*
X103356793Y-84825108D01*
X103377605Y-84885895D01*
X103444112Y-85080144D01*
X103567160Y-85324799D01*
X103569586Y-85328328D01*
X103569589Y-85328334D01*
X103719843Y-85546953D01*
X103722274Y-85550490D01*
X103906582Y-85753043D01*
X104116675Y-85928707D01*
X104120316Y-85930991D01*
X104345024Y-86071951D01*
X104345028Y-86071953D01*
X104348664Y-86074234D01*
X104416544Y-86104883D01*
X104594345Y-86185164D01*
X104594349Y-86185166D01*
X104598257Y-86186930D01*
X104602377Y-86188150D01*
X104602376Y-86188150D01*
X104856723Y-86263491D01*
X104856727Y-86263492D01*
X104860836Y-86264709D01*
X104865070Y-86265357D01*
X104865075Y-86265358D01*
X105127298Y-86305483D01*
X105127300Y-86305483D01*
X105131540Y-86306132D01*
X105270912Y-86308322D01*
X105401071Y-86310367D01*
X105401077Y-86310367D01*
X105405362Y-86310434D01*
X105677235Y-86277534D01*
X105942127Y-86208041D01*
X105946087Y-86206401D01*
X105946092Y-86206399D01*
X106068631Y-86155641D01*
X106195136Y-86103241D01*
X106431582Y-85965073D01*
X106647089Y-85796094D01*
X106688809Y-85753043D01*
X106834686Y-85602509D01*
X106837669Y-85599431D01*
X106840202Y-85595983D01*
X106840206Y-85595978D01*
X106997257Y-85382178D01*
X106999795Y-85378723D01*
X107027154Y-85328334D01*
X107128418Y-85141830D01*
X107128419Y-85141828D01*
X107130468Y-85138054D01*
X107227269Y-84881877D01*
X107288407Y-84614933D01*
X107312751Y-84342161D01*
X107313193Y-84300000D01*
X107311756Y-84278918D01*
X191286917Y-84278918D01*
X191302682Y-84552320D01*
X191303507Y-84556525D01*
X191303508Y-84556533D01*
X191314127Y-84610657D01*
X191355405Y-84821053D01*
X191356792Y-84825103D01*
X191356793Y-84825108D01*
X191377605Y-84885895D01*
X191444112Y-85080144D01*
X191567160Y-85324799D01*
X191569586Y-85328328D01*
X191569589Y-85328334D01*
X191719843Y-85546953D01*
X191722274Y-85550490D01*
X191906582Y-85753043D01*
X192116675Y-85928707D01*
X192120316Y-85930991D01*
X192345024Y-86071951D01*
X192345028Y-86071953D01*
X192348664Y-86074234D01*
X192416544Y-86104883D01*
X192594345Y-86185164D01*
X192594349Y-86185166D01*
X192598257Y-86186930D01*
X192602377Y-86188150D01*
X192602376Y-86188150D01*
X192856723Y-86263491D01*
X192856727Y-86263492D01*
X192860836Y-86264709D01*
X192865070Y-86265357D01*
X192865075Y-86265358D01*
X193127298Y-86305483D01*
X193127300Y-86305483D01*
X193131540Y-86306132D01*
X193270912Y-86308322D01*
X193401071Y-86310367D01*
X193401077Y-86310367D01*
X193405362Y-86310434D01*
X193677235Y-86277534D01*
X193942127Y-86208041D01*
X193946087Y-86206401D01*
X193946092Y-86206399D01*
X194068631Y-86155641D01*
X194195136Y-86103241D01*
X194431582Y-85965073D01*
X194647089Y-85796094D01*
X194688809Y-85753043D01*
X194834686Y-85602509D01*
X194837669Y-85599431D01*
X194840202Y-85595983D01*
X194840206Y-85595978D01*
X194997257Y-85382178D01*
X194999795Y-85378723D01*
X195027154Y-85328334D01*
X195128418Y-85141830D01*
X195128419Y-85141828D01*
X195130468Y-85138054D01*
X195227269Y-84881877D01*
X195288407Y-84614933D01*
X195312751Y-84342161D01*
X195313193Y-84300000D01*
X195311756Y-84278918D01*
X275786917Y-84278918D01*
X275802682Y-84552320D01*
X275803507Y-84556525D01*
X275803508Y-84556533D01*
X275814127Y-84610657D01*
X275855405Y-84821053D01*
X275856792Y-84825103D01*
X275856793Y-84825108D01*
X275877605Y-84885895D01*
X275944112Y-85080144D01*
X276067160Y-85324799D01*
X276069586Y-85328328D01*
X276069589Y-85328334D01*
X276219843Y-85546953D01*
X276222274Y-85550490D01*
X276406582Y-85753043D01*
X276616675Y-85928707D01*
X276620316Y-85930991D01*
X276845024Y-86071951D01*
X276845028Y-86071953D01*
X276848664Y-86074234D01*
X276916544Y-86104883D01*
X277094345Y-86185164D01*
X277094349Y-86185166D01*
X277098257Y-86186930D01*
X277102377Y-86188150D01*
X277102376Y-86188150D01*
X277356723Y-86263491D01*
X277356727Y-86263492D01*
X277360836Y-86264709D01*
X277365070Y-86265357D01*
X277365075Y-86265358D01*
X277627298Y-86305483D01*
X277627300Y-86305483D01*
X277631540Y-86306132D01*
X277770912Y-86308322D01*
X277901071Y-86310367D01*
X277901077Y-86310367D01*
X277905362Y-86310434D01*
X278177235Y-86277534D01*
X278442127Y-86208041D01*
X278446087Y-86206401D01*
X278446092Y-86206399D01*
X278568631Y-86155641D01*
X278695136Y-86103241D01*
X278931582Y-85965073D01*
X279147089Y-85796094D01*
X279188809Y-85753043D01*
X279334686Y-85602509D01*
X279337669Y-85599431D01*
X279340202Y-85595983D01*
X279340206Y-85595978D01*
X279497257Y-85382178D01*
X279499795Y-85378723D01*
X279527154Y-85328334D01*
X279628418Y-85141830D01*
X279628419Y-85141828D01*
X279630468Y-85138054D01*
X279727269Y-84881877D01*
X279788407Y-84614933D01*
X279812751Y-84342161D01*
X279813193Y-84300000D01*
X279794567Y-84026778D01*
X279739032Y-83758612D01*
X279647617Y-83500465D01*
X279522013Y-83257112D01*
X279512040Y-83242921D01*
X279367008Y-83036562D01*
X279364545Y-83033057D01*
X279178125Y-82832445D01*
X279174810Y-82829731D01*
X279174806Y-82829728D01*
X278969523Y-82661706D01*
X278966205Y-82658990D01*
X278732704Y-82515901D01*
X278728768Y-82514173D01*
X278485873Y-82407549D01*
X278485869Y-82407548D01*
X278481945Y-82405825D01*
X278218566Y-82330800D01*
X278214324Y-82330196D01*
X278214318Y-82330195D01*
X278013834Y-82301662D01*
X277947443Y-82292213D01*
X277803589Y-82291460D01*
X277677877Y-82290802D01*
X277677871Y-82290802D01*
X277673591Y-82290780D01*
X277669347Y-82291339D01*
X277669343Y-82291339D01*
X277550302Y-82307011D01*
X277402078Y-82326525D01*
X277397938Y-82327658D01*
X277397936Y-82327658D01*
X277325008Y-82347609D01*
X277137928Y-82398788D01*
X277133980Y-82400472D01*
X276889982Y-82504546D01*
X276889978Y-82504548D01*
X276886030Y-82506232D01*
X276866125Y-82518145D01*
X276654725Y-82644664D01*
X276654721Y-82644667D01*
X276651043Y-82646868D01*
X276437318Y-82818094D01*
X276248808Y-83016742D01*
X276089002Y-83239136D01*
X275960857Y-83481161D01*
X275959385Y-83485184D01*
X275959383Y-83485188D01*
X275952314Y-83504506D01*
X275866743Y-83738337D01*
X275808404Y-84005907D01*
X275786917Y-84278918D01*
X195311756Y-84278918D01*
X195294567Y-84026778D01*
X195239032Y-83758612D01*
X195147617Y-83500465D01*
X195022013Y-83257112D01*
X195012040Y-83242921D01*
X194867008Y-83036562D01*
X194864545Y-83033057D01*
X194678125Y-82832445D01*
X194674810Y-82829731D01*
X194674806Y-82829728D01*
X194469523Y-82661706D01*
X194466205Y-82658990D01*
X194232704Y-82515901D01*
X194228768Y-82514173D01*
X193985873Y-82407549D01*
X193985869Y-82407548D01*
X193981945Y-82405825D01*
X193718566Y-82330800D01*
X193714324Y-82330196D01*
X193714318Y-82330195D01*
X193513834Y-82301662D01*
X193447443Y-82292213D01*
X193303589Y-82291460D01*
X193177877Y-82290802D01*
X193177871Y-82290802D01*
X193173591Y-82290780D01*
X193169347Y-82291339D01*
X193169343Y-82291339D01*
X193050302Y-82307011D01*
X192902078Y-82326525D01*
X192897938Y-82327658D01*
X192897936Y-82327658D01*
X192825008Y-82347609D01*
X192637928Y-82398788D01*
X192633980Y-82400472D01*
X192389982Y-82504546D01*
X192389978Y-82504548D01*
X192386030Y-82506232D01*
X192366125Y-82518145D01*
X192154725Y-82644664D01*
X192154721Y-82644667D01*
X192151043Y-82646868D01*
X191937318Y-82818094D01*
X191748808Y-83016742D01*
X191589002Y-83239136D01*
X191460857Y-83481161D01*
X191459385Y-83485184D01*
X191459383Y-83485188D01*
X191452314Y-83504506D01*
X191366743Y-83738337D01*
X191308404Y-84005907D01*
X191286917Y-84278918D01*
X107311756Y-84278918D01*
X107294567Y-84026778D01*
X107239032Y-83758612D01*
X107147617Y-83500465D01*
X107022013Y-83257112D01*
X107012040Y-83242921D01*
X106867008Y-83036562D01*
X106864545Y-83033057D01*
X106678125Y-82832445D01*
X106674810Y-82829731D01*
X106674806Y-82829728D01*
X106469523Y-82661706D01*
X106466205Y-82658990D01*
X106232704Y-82515901D01*
X106228768Y-82514173D01*
X105985873Y-82407549D01*
X105985869Y-82407548D01*
X105981945Y-82405825D01*
X105718566Y-82330800D01*
X105714324Y-82330196D01*
X105714318Y-82330195D01*
X105513834Y-82301662D01*
X105447443Y-82292213D01*
X105303589Y-82291460D01*
X105177877Y-82290802D01*
X105177871Y-82290802D01*
X105173591Y-82290780D01*
X105169347Y-82291339D01*
X105169343Y-82291339D01*
X105050302Y-82307011D01*
X104902078Y-82326525D01*
X104897938Y-82327658D01*
X104897936Y-82327658D01*
X104825008Y-82347609D01*
X104637928Y-82398788D01*
X104633980Y-82400472D01*
X104389982Y-82504546D01*
X104389978Y-82504548D01*
X104386030Y-82506232D01*
X104366125Y-82518145D01*
X104154725Y-82644664D01*
X104154721Y-82644667D01*
X104151043Y-82646868D01*
X103937318Y-82818094D01*
X103748808Y-83016742D01*
X103589002Y-83239136D01*
X103460857Y-83481161D01*
X103459385Y-83485184D01*
X103459383Y-83485188D01*
X103452314Y-83504506D01*
X103366743Y-83738337D01*
X103308404Y-84005907D01*
X103286917Y-84278918D01*
X22811756Y-84278918D01*
X22794567Y-84026778D01*
X22739032Y-83758612D01*
X22647617Y-83500465D01*
X22522013Y-83257112D01*
X22512040Y-83242921D01*
X22367008Y-83036562D01*
X22364545Y-83033057D01*
X22178125Y-82832445D01*
X22174810Y-82829731D01*
X22174806Y-82829728D01*
X21969523Y-82661706D01*
X21966205Y-82658990D01*
X21732704Y-82515901D01*
X21728768Y-82514173D01*
X21485873Y-82407549D01*
X21485869Y-82407548D01*
X21481945Y-82405825D01*
X21218566Y-82330800D01*
X21214324Y-82330196D01*
X21214318Y-82330195D01*
X21013834Y-82301662D01*
X20947443Y-82292213D01*
X20803589Y-82291460D01*
X20677877Y-82290802D01*
X20677871Y-82290802D01*
X20673591Y-82290780D01*
X20669347Y-82291339D01*
X20669343Y-82291339D01*
X20550302Y-82307011D01*
X20402078Y-82326525D01*
X20397938Y-82327658D01*
X20397936Y-82327658D01*
X20325008Y-82347609D01*
X20137928Y-82398788D01*
X20133980Y-82400472D01*
X19889982Y-82504546D01*
X19889978Y-82504548D01*
X19886030Y-82506232D01*
X19866125Y-82518145D01*
X19654725Y-82644664D01*
X19654721Y-82644667D01*
X19651043Y-82646868D01*
X19437318Y-82818094D01*
X19248808Y-83016742D01*
X19089002Y-83239136D01*
X18960857Y-83481161D01*
X18959385Y-83485184D01*
X18959383Y-83485188D01*
X18952314Y-83504506D01*
X18866743Y-83738337D01*
X18808404Y-84005907D01*
X18786917Y-84278918D01*
X17808500Y-84278918D01*
X17808500Y-83853250D01*
X17810246Y-83832345D01*
X17812770Y-83817344D01*
X17812770Y-83817341D01*
X17813576Y-83812552D01*
X17813729Y-83800000D01*
X17813040Y-83795186D01*
X17813039Y-83795177D01*
X17811869Y-83787006D01*
X17810827Y-83761540D01*
X17826206Y-83507290D01*
X17828040Y-83492186D01*
X17841229Y-83420214D01*
X17879525Y-83211240D01*
X17883164Y-83196473D01*
X17908646Y-83114700D01*
X17968142Y-82923769D01*
X17973534Y-82909555D01*
X18090758Y-82649092D01*
X18097828Y-82635621D01*
X18245595Y-82391187D01*
X18254238Y-82378666D01*
X18430385Y-82153829D01*
X18440475Y-82142440D01*
X18642440Y-81940475D01*
X18653829Y-81930385D01*
X18878666Y-81754238D01*
X18891187Y-81745595D01*
X19135621Y-81597828D01*
X19149094Y-81590757D01*
X19191777Y-81571547D01*
X19409555Y-81473534D01*
X19423769Y-81468142D01*
X19696474Y-81383164D01*
X19711240Y-81379525D01*
X19920214Y-81341229D01*
X19992186Y-81328040D01*
X20007290Y-81326206D01*
X20257904Y-81311047D01*
X20284716Y-81312308D01*
X20284852Y-81312310D01*
X20293724Y-81313691D01*
X20302626Y-81312527D01*
X20302628Y-81312527D01*
X20317677Y-81310559D01*
X20325286Y-81309564D01*
X20341621Y-81308500D01*
X278250633Y-81308500D01*
X278270018Y-81310000D01*
G37*
%TD.AperFunction*%
M02*
