  0
SECTION
  2
HEADER
  9
$ANGBASE
  50
0.0
  9
$ANGDIR
  70
1
  9
$MEASUREMENT
  70
1
  0
ENDSEC
  0
SECTION
  2
TABLES
  0
TABLE
  2
LTYPE
  70
4
  0
LTYPE
  5
40F
  2
CONTINUOUS
  70
0
  3
Solid line
  72
65
  73
0
  40
0.0
  0
LTYPE
  5
410
  2
DASHDOT
 70
0
  3
Dash Dot ____ _ ____ _
 72
65
 73
4
 40
2.0
 49
1.25
 49
-0.25
 49
0.25
 49
-0.25
  0
LTYPE
  5
411
  2
DASHED
 70
0
  3
Dashed __ __ __ __ __
 72
65
 73
2
 40
0.75
 49
0.5
 49
-0.25
  0
LTYPE
  5
43B
  2
DOTTED
 70
0
  3
Dotted .  .  .  .
 72
65
 73
2
 40
0.2
 49
0.0
 49
-0.2
  0
ENDTAB
  0
TABLE
  2
STYLE
  70
4
  0
STYLE
  2
KICAD
  70
0
  40
0
  41
1
  42
1
  50
0
  71
0
  3
isocp.shx
  0
STYLE
  2
KICADB
  70
0
  40
0
  41
1
  42
1
  50
0
  71
0
  3
isocp.shx
  0
STYLE
  2
KICADI
  70
0
  40
0
  41
1
  42
1
  50
15
  71
0
  3
isocp.shx
  0
STYLE
  2
KICADBI
  70
0
  40
0
  41
1
  42
1
  50
15
  71
0
  3
isocp.shx
  0
ENDTAB
  0
TABLE
  2
LAYER
  70
1
  0
LAYER
  2
BLACK
  70
0
  62
7
  6
CONTINUOUS
  0
ENDTAB
  0
ENDSEC
  0
SECTION
  2
ENTITIES
0
ARC
8
BLACK
10
84.8787
20
-98.7713
40
1.45002
50
-179.999
51
-90
0
LINE
8
BLACK
6
CONTINUOUS
10
83.4287
20
-98.7713
11
83.4287
21
-94.5287
0
ARC
8
BLACK
10
66.8787
20
-94.5287
40
1.45
50
90
51
180
0
LINE
8
BLACK
6
CONTINUOUS
10
72.5713
20
-94.5287
11
72.5713
21
-98.7713
0
LINE
8
BLACK
6
CONTINUOUS
10
108.571
20
-94.5287
11
108.571
21
-98.7713
0
ARC
8
BLACK
10
71.1213
20
-94.5287
40
1.45
50
-0
51
90
0
ARC
8
BLACK
10
66.8787
20
-98.7713
40
1.45002
50
-179.999
51
-90
0
ARC
8
BLACK
10
89.1213
20
-98.7713
40
1.45
50
-90
51
-0.000790287
0
ARC
8
BLACK
10
107.121
20
-98.7713
40
1.45
50
-90
51
-0.000790287
0
LINE
8
BLACK
6
CONTINUOUS
10
122.65
20
-88.9
11
175.95
21
-88.9
0
LINE
8
BLACK
6
CONTINUOUS
10
175.95
20
-88.9
11
175.95
21
-103.8
0
LINE
8
BLACK
6
CONTINUOUS
10
175.95
20
-103.8
11
122.65
21
-103.8
0
LINE
8
BLACK
6
CONTINUOUS
10
122.65
20
-103.8
11
122.65
21
-88.9
0
ARC
8
BLACK
10
102.879
20
-94.5287
40
1.45
50
90
51
180
0
LINE
8
BLACK
6
CONTINUOUS
10
66.8787
20
-100.221
11
71.1213
21
-100.221
0
ARC
8
BLACK
10
107.121
20
-94.5287
40
1.45
50
-0
51
90
0
LINE
8
BLACK
6
CONTINUOUS
10
90.5713
20
-94.5287
11
90.5713
21
-98.7713
0
LINE
8
BLACK
6
CONTINUOUS
10
102.879
20
-100.221
11
107.121
21
-100.221
0
LINE
8
BLACK
6
CONTINUOUS
10
66.8787
20
-93.0787
11
71.1213
21
-93.0787
0
LINE
8
BLACK
6
CONTINUOUS
10
84.8787
20
-93.0787
11
89.1213
21
-93.0787
0
LINE
8
BLACK
6
CONTINUOUS
10
102.879
20
-93.0787
11
107.121
21
-93.0787
0
LINE
8
BLACK
6
CONTINUOUS
10
65.4287
20
-98.7713
11
65.4287
21
-94.5287
0
ARC
8
BLACK
10
84.8787
20
-94.5287
40
1.45
50
90
51
180
0
ARC
8
BLACK
10
71.1213
20
-98.7713
40
1.45
50
-90
51
-0.000790287
0
LINE
8
BLACK
6
CONTINUOUS
10
84.8787
20
-100.221
11
89.1213
21
-100.221
0
LINE
8
BLACK
6
CONTINUOUS
10
43.9
20
-97.6
11
53.9
21
-97.6
0
LINE
8
BLACK
6
CONTINUOUS
10
53.9
20
-97.6
11
53.9
21
-107.8
0
LINE
8
BLACK
6
CONTINUOUS
10
53.9
20
-107.8
11
43.9
21
-107.8
0
LINE
8
BLACK
6
CONTINUOUS
10
43.9
20
-107.8
11
43.9
21
-97.6
0
ARC
8
BLACK
10
89.1213
20
-94.5287
40
1.45
50
-0
51
90
0
LINE
8
BLACK
6
CONTINUOUS
10
101.429
20
-98.7713
11
101.429
21
-94.5287
0
ARC
8
BLACK
10
102.879
20
-98.7713
40
1.45002
50
-179.999
51
-90
0
LINE
8
BLACK
6
CONTINUOUS
10
210.85
20
-97.35
11
211.35
21
-97.85
0
LINE
8
BLACK
6
CONTINUOUS
10
211.35
20
-97.35
11
210.85
21
-97.85
0
LINE
8
BLACK
6
CONTINUOUS
10
200.35
20
-97.85
11
221.85
21
-97.85
0
LINE
8
BLACK
6
CONTINUOUS
10
200.35
20
-97.35
11
221.85
21
-97.35
0
ARC
8
BLACK
10
221.85
20
-97.6
40
0.25
50
270
51
450
0
ARC
8
BLACK
10
200.35
20
-97.6
40
0.25
50
90
51
270
0
CIRCLE
8
BLACK
10
20.8
20
-84.3
40
1.1
0
CIRCLE
8
BLACK
10
20.8
20
-109.3
40
1.1
0
CIRCLE
8
BLACK
10
105.3
20
-84.3
40
1.1
0
CIRCLE
8
BLACK
10
105.3
20
-109.3
40
1.1
0
CIRCLE
8
BLACK
10
193.3
20
-84.3
40
1.1
0
CIRCLE
8
BLACK
10
193.3
20
-109.271
40
1.1
0
CIRCLE
8
BLACK
10
277.8
20
-84.3
40
1.1
0
CIRCLE
8
BLACK
10
277.8
20
-109.3
40
1.1
0
LINE
8
BLACK
6
CONTINUOUS
10
19.3762
20
-116.405
11
19.3762
21
-114.405
0
LINE
8
BLACK
6
CONTINUOUS
10
19.3762
20
-114.405
11
19.8524
21
-114.405
0
LINE
8
BLACK
6
CONTINUOUS
10
19.8524
20
-114.405
11
20.1381
21
-114.5
0
LINE
8
BLACK
6
CONTINUOUS
10
20.1381
20
-114.5
11
20.3286
21
-114.69
0
LINE
8
BLACK
6
CONTINUOUS
10
20.3286
20
-114.69
11
20.4238
21
-114.881
0
LINE
8
BLACK
6
CONTINUOUS
10
20.4238
20
-114.881
11
20.519
21
-115.262
0
LINE
8
BLACK
6
CONTINUOUS
10
20.519
20
-115.262
11
20.519
21
-115.548
0
LINE
8
BLACK
6
CONTINUOUS
10
20.519
20
-115.548
11
20.4238
21
-115.929
0
LINE
8
BLACK
6
CONTINUOUS
10
20.4238
20
-115.929
11
20.3286
21
-116.119
0
LINE
8
BLACK
6
CONTINUOUS
10
20.3286
20
-116.119
11
20.1381
21
-116.31
0
LINE
8
BLACK
6
CONTINUOUS
10
20.1381
20
-116.31
11
19.8524
21
-116.405
0
LINE
8
BLACK
6
CONTINUOUS
10
19.8524
20
-116.405
11
19.3762
21
-116.405
0
LINE
8
BLACK
6
CONTINUOUS
10
21.3762
20
-116.405
11
21.3762
21
-115.071
0
LINE
8
BLACK
6
CONTINUOUS
10
21.3762
20
-115.452
11
21.4714
21
-115.262
0
LINE
8
BLACK
6
CONTINUOUS
10
21.4714
20
-115.262
11
21.5667
21
-115.167
0
LINE
8
BLACK
6
CONTINUOUS
10
21.5667
20
-115.167
11
21.7571
21
-115.071
0
LINE
8
BLACK
6
CONTINUOUS
10
21.7571
20
-115.071
11
21.9476
21
-115.071
0
LINE
8
BLACK
6
CONTINUOUS
10
22.6143
20
-116.405
11
22.6143
21
-115.071
0
LINE
8
BLACK
6
CONTINUOUS
10
22.6143
20
-114.405
11
22.519
21
-114.5
0
LINE
8
BLACK
6
CONTINUOUS
10
22.519
20
-114.5
11
22.6143
21
-114.595
0
LINE
8
BLACK
6
CONTINUOUS
10
22.6143
20
-114.595
11
22.7095
21
-114.5
0
LINE
8
BLACK
6
CONTINUOUS
10
22.7095
20
-114.5
11
22.6143
21
-114.405
0
LINE
8
BLACK
6
CONTINUOUS
10
22.6143
20
-114.405
11
22.6143
21
-114.595
0
LINE
8
BLACK
6
CONTINUOUS
10
23.8524
20
-116.405
11
23.6619
21
-116.31
0
LINE
8
BLACK
6
CONTINUOUS
10
23.6619
20
-116.31
11
23.5667
21
-116.119
0
LINE
8
BLACK
6
CONTINUOUS
10
23.5667
20
-116.119
11
23.5667
21
-114.405
0
LINE
8
BLACK
6
CONTINUOUS
10
24.9
20
-116.405
11
24.7095
21
-116.31
0
LINE
8
BLACK
6
CONTINUOUS
10
24.7095
20
-116.31
11
24.6143
21
-116.119
0
LINE
8
BLACK
6
CONTINUOUS
10
24.6143
20
-116.119
11
24.6143
21
-114.405
0
LINE
8
BLACK
6
CONTINUOUS
10
27.1857
20
-116.405
11
27.1857
21
-114.405
0
LINE
8
BLACK
6
CONTINUOUS
10
27.1857
20
-114.405
11
27.8524
21
-115.833
0
LINE
8
BLACK
6
CONTINUOUS
10
27.8524
20
-115.833
11
28.519
21
-114.405
0
LINE
8
BLACK
6
CONTINUOUS
10
28.519
20
-114.405
11
28.519
21
-116.405
0
LINE
8
BLACK
6
CONTINUOUS
10
30.3286
20
-116.405
11
30.3286
21
-115.357
0
LINE
8
BLACK
6
CONTINUOUS
10
30.3286
20
-115.357
11
30.2333
21
-115.167
0
LINE
8
BLACK
6
CONTINUOUS
10
30.2333
20
-115.167
11
30.0429
21
-115.071
0
LINE
8
BLACK
6
CONTINUOUS
10
30.0429
20
-115.071
11
29.6619
21
-115.071
0
LINE
8
BLACK
6
CONTINUOUS
10
29.6619
20
-115.071
11
29.4714
21
-115.167
0
LINE
8
BLACK
6
CONTINUOUS
10
30.3286
20
-116.31
11
30.1381
21
-116.405
0
LINE
8
BLACK
6
CONTINUOUS
10
30.1381
20
-116.405
11
29.6619
21
-116.405
0
LINE
8
BLACK
6
CONTINUOUS
10
29.6619
20
-116.405
11
29.4714
21
-116.31
0
LINE
8
BLACK
6
CONTINUOUS
10
29.4714
20
-116.31
11
29.3762
21
-116.119
0
LINE
8
BLACK
6
CONTINUOUS
10
29.3762
20
-116.119
11
29.3762
21
-115.929
0
LINE
8
BLACK
6
CONTINUOUS
10
29.3762
20
-115.929
11
29.4714
21
-115.738
0
LINE
8
BLACK
6
CONTINUOUS
10
29.4714
20
-115.738
11
29.6619
21
-115.643
0
LINE
8
BLACK
6
CONTINUOUS
10
29.6619
20
-115.643
11
30.1381
21
-115.643
0
LINE
8
BLACK
6
CONTINUOUS
10
30.1381
20
-115.643
11
30.3286
21
-115.548
0
LINE
8
BLACK
6
CONTINUOUS
10
31.281
20
-115.071
11
31.281
21
-117.071
0
LINE
8
BLACK
6
CONTINUOUS
10
31.281
20
-115.167
11
31.4714
21
-115.071
0
LINE
8
BLACK
6
CONTINUOUS
10
31.4714
20
-115.071
11
31.8524
21
-115.071
0
LINE
8
BLACK
6
CONTINUOUS
10
31.8524
20
-115.071
11
32.0429
21
-115.167
0
LINE
8
BLACK
6
CONTINUOUS
10
32.0429
20
-115.167
11
32.1381
21
-115.262
0
LINE
8
BLACK
6
CONTINUOUS
10
32.1381
20
-115.262
11
32.2333
21
-115.452
0
LINE
8
BLACK
6
CONTINUOUS
10
32.2333
20
-115.452
11
32.2333
21
-116.024
0
LINE
8
BLACK
6
CONTINUOUS
10
32.2333
20
-116.024
11
32.1381
21
-116.214
0
LINE
8
BLACK
6
CONTINUOUS
10
32.1381
20
-116.214
11
32.0429
21
-116.31
0
LINE
8
BLACK
6
CONTINUOUS
10
32.0429
20
-116.31
11
31.8524
21
-116.405
0
LINE
8
BLACK
6
CONTINUOUS
10
31.8524
20
-116.405
11
31.4714
21
-116.405
0
LINE
8
BLACK
6
CONTINUOUS
10
31.4714
20
-116.405
11
31.281
21
-116.31
0
LINE
8
BLACK
6
CONTINUOUS
10
33.0905
20
-116.214
11
33.1857
21
-116.31
0
LINE
8
BLACK
6
CONTINUOUS
10
33.1857
20
-116.31
11
33.0905
21
-116.405
0
LINE
8
BLACK
6
CONTINUOUS
10
33.0905
20
-116.405
11
32.9952
21
-116.31
0
LINE
8
BLACK
6
CONTINUOUS
10
32.9952
20
-116.31
11
33.0905
21
-116.214
0
LINE
8
BLACK
6
CONTINUOUS
10
33.0905
20
-116.214
11
33.0905
21
-116.405
0
LINE
8
BLACK
6
CONTINUOUS
10
33.0905
20
-115.167
11
33.1857
21
-115.262
0
LINE
8
BLACK
6
CONTINUOUS
10
33.1857
20
-115.262
11
33.0905
21
-115.357
0
LINE
8
BLACK
6
CONTINUOUS
10
33.0905
20
-115.357
11
32.9952
21
-115.262
0
LINE
8
BLACK
6
CONTINUOUS
10
32.9952
20
-115.262
11
33.0905
21
-115.167
0
LINE
8
BLACK
6
CONTINUOUS
10
33.0905
20
-115.167
11
33.0905
21
-115.357
0
LINE
8
BLACK
6
CONTINUOUS
10
16.3
20
-119.45
11
16.8
21
-119.95
0
LINE
8
BLACK
6
CONTINUOUS
10
16.8
20
-119.45
11
16.3
21
-119.95
0
LINE
8
BLACK
6
CONTINUOUS
10
19.7571
20
-118.605
11
19.9476
21
-118.605
0
LINE
8
BLACK
6
CONTINUOUS
10
19.9476
20
-118.605
11
20.1381
21
-118.7
0
LINE
8
BLACK
6
CONTINUOUS
10
20.1381
20
-118.7
11
20.2333
21
-118.795
0
LINE
8
BLACK
6
CONTINUOUS
10
20.2333
20
-118.795
11
20.3286
21
-118.986
0
LINE
8
BLACK
6
CONTINUOUS
10
20.3286
20
-118.986
11
20.4238
21
-119.367
0
LINE
8
BLACK
6
CONTINUOUS
10
20.4238
20
-119.367
11
20.4238
21
-119.843
0
LINE
8
BLACK
6
CONTINUOUS
10
20.4238
20
-119.843
11
20.3286
21
-120.224
0
LINE
8
BLACK
6
CONTINUOUS
10
20.3286
20
-120.224
11
20.2333
21
-120.414
0
LINE
8
BLACK
6
CONTINUOUS
10
20.2333
20
-120.414
11
20.1381
21
-120.51
0
LINE
8
BLACK
6
CONTINUOUS
10
20.1381
20
-120.51
11
19.9476
21
-120.605
0
LINE
8
BLACK
6
CONTINUOUS
10
19.9476
20
-120.605
11
19.7571
21
-120.605
0
LINE
8
BLACK
6
CONTINUOUS
10
19.7571
20
-120.605
11
19.5667
21
-120.51
0
LINE
8
BLACK
6
CONTINUOUS
10
19.5667
20
-120.51
11
19.4714
21
-120.414
0
LINE
8
BLACK
6
CONTINUOUS
10
19.4714
20
-120.414
11
19.3762
21
-120.224
0
LINE
8
BLACK
6
CONTINUOUS
10
19.3762
20
-120.224
11
19.281
21
-119.843
0
LINE
8
BLACK
6
CONTINUOUS
10
19.281
20
-119.843
11
19.281
21
-119.367
0
LINE
8
BLACK
6
CONTINUOUS
10
19.281
20
-119.367
11
19.3762
21
-118.986
0
LINE
8
BLACK
6
CONTINUOUS
10
19.3762
20
-118.986
11
19.4714
21
-118.795
0
LINE
8
BLACK
6
CONTINUOUS
10
19.4714
20
-118.795
11
19.5667
21
-118.7
0
LINE
8
BLACK
6
CONTINUOUS
10
19.5667
20
-118.7
11
19.7571
21
-118.605
0
LINE
8
BLACK
6
CONTINUOUS
10
21.281
20
-120.414
11
21.3762
21
-120.51
0
LINE
8
BLACK
6
CONTINUOUS
10
21.3762
20
-120.51
11
21.281
21
-120.605
0
LINE
8
BLACK
6
CONTINUOUS
10
21.281
20
-120.605
11
21.1857
21
-120.51
0
LINE
8
BLACK
6
CONTINUOUS
10
21.1857
20
-120.51
11
21.281
21
-120.414
0
LINE
8
BLACK
6
CONTINUOUS
10
21.281
20
-120.414
11
21.281
21
-120.605
0
LINE
8
BLACK
6
CONTINUOUS
10
23.1857
20
-118.605
11
22.2333
21
-118.605
0
LINE
8
BLACK
6
CONTINUOUS
10
22.2333
20
-118.605
11
22.1381
21
-119.557
0
LINE
8
BLACK
6
CONTINUOUS
10
22.1381
20
-119.557
11
22.2333
21
-119.462
0
LINE
8
BLACK
6
CONTINUOUS
10
22.2333
20
-119.462
11
22.4238
21
-119.367
0
LINE
8
BLACK
6
CONTINUOUS
10
22.4238
20
-119.367
11
22.9
21
-119.367
0
LINE
8
BLACK
6
CONTINUOUS
10
22.9
20
-119.367
11
23.0905
21
-119.462
0
LINE
8
BLACK
6
CONTINUOUS
10
23.0905
20
-119.462
11
23.1857
21
-119.557
0
LINE
8
BLACK
6
CONTINUOUS
10
23.1857
20
-119.557
11
23.281
21
-119.748
0
LINE
8
BLACK
6
CONTINUOUS
10
23.281
20
-119.748
11
23.281
21
-120.224
0
LINE
8
BLACK
6
CONTINUOUS
10
23.281
20
-120.224
11
23.1857
21
-120.414
0
LINE
8
BLACK
6
CONTINUOUS
10
23.1857
20
-120.414
11
23.0905
21
-120.51
0
LINE
8
BLACK
6
CONTINUOUS
10
23.0905
20
-120.51
11
22.9
21
-120.605
0
LINE
8
BLACK
6
CONTINUOUS
10
22.9
20
-120.605
11
22.4238
21
-120.605
0
LINE
8
BLACK
6
CONTINUOUS
10
22.4238
20
-120.605
11
22.2333
21
-120.51
0
LINE
8
BLACK
6
CONTINUOUS
10
22.2333
20
-120.51
11
22.1381
21
-120.414
0
LINE
8
BLACK
6
CONTINUOUS
10
24.519
20
-118.605
11
24.7095
21
-118.605
0
LINE
8
BLACK
6
CONTINUOUS
10
24.7095
20
-118.605
11
24.9
21
-118.7
0
LINE
8
BLACK
6
CONTINUOUS
10
24.9
20
-118.7
11
24.9952
21
-118.795
0
LINE
8
BLACK
6
CONTINUOUS
10
24.9952
20
-118.795
11
25.0905
21
-118.986
0
LINE
8
BLACK
6
CONTINUOUS
10
25.0905
20
-118.986
11
25.1857
21
-119.367
0
LINE
8
BLACK
6
CONTINUOUS
10
25.1857
20
-119.367
11
25.1857
21
-119.843
0
LINE
8
BLACK
6
CONTINUOUS
10
25.1857
20
-119.843
11
25.0905
21
-120.224
0
LINE
8
BLACK
6
CONTINUOUS
10
25.0905
20
-120.224
11
24.9952
21
-120.414
0
LINE
8
BLACK
6
CONTINUOUS
10
24.9952
20
-120.414
11
24.9
21
-120.51
0
LINE
8
BLACK
6
CONTINUOUS
10
24.9
20
-120.51
11
24.7095
21
-120.605
0
LINE
8
BLACK
6
CONTINUOUS
10
24.7095
20
-120.605
11
24.519
21
-120.605
0
LINE
8
BLACK
6
CONTINUOUS
10
24.519
20
-120.605
11
24.3286
21
-120.51
0
LINE
8
BLACK
6
CONTINUOUS
10
24.3286
20
-120.51
11
24.2333
21
-120.414
0
LINE
8
BLACK
6
CONTINUOUS
10
24.2333
20
-120.414
11
24.1381
21
-120.224
0
LINE
8
BLACK
6
CONTINUOUS
10
24.1381
20
-120.224
11
24.0429
21
-119.843
0
LINE
8
BLACK
6
CONTINUOUS
10
24.0429
20
-119.843
11
24.0429
21
-119.367
0
LINE
8
BLACK
6
CONTINUOUS
10
24.0429
20
-119.367
11
24.1381
21
-118.986
0
LINE
8
BLACK
6
CONTINUOUS
10
24.1381
20
-118.986
11
24.2333
21
-118.795
0
LINE
8
BLACK
6
CONTINUOUS
10
24.2333
20
-118.795
11
24.3286
21
-118.7
0
LINE
8
BLACK
6
CONTINUOUS
10
24.3286
20
-118.7
11
24.519
21
-118.605
0
LINE
8
BLACK
6
CONTINUOUS
10
26.4238
20
-118.605
11
26.6143
21
-118.605
0
LINE
8
BLACK
6
CONTINUOUS
10
26.6143
20
-118.605
11
26.8048
21
-118.7
0
LINE
8
BLACK
6
CONTINUOUS
10
26.8048
20
-118.7
11
26.9
21
-118.795
0
LINE
8
BLACK
6
CONTINUOUS
10
26.9
20
-118.795
11
26.9952
21
-118.986
0
LINE
8
BLACK
6
CONTINUOUS
10
26.9952
20
-118.986
11
27.0905
21
-119.367
0
LINE
8
BLACK
6
CONTINUOUS
10
27.0905
20
-119.367
11
27.0905
21
-119.843
0
LINE
8
BLACK
6
CONTINUOUS
10
27.0905
20
-119.843
11
26.9952
21
-120.224
0
LINE
8
BLACK
6
CONTINUOUS
10
26.9952
20
-120.224
11
26.9
21
-120.414
0
LINE
8
BLACK
6
CONTINUOUS
10
26.9
20
-120.414
11
26.8048
21
-120.51
0
LINE
8
BLACK
6
CONTINUOUS
10
26.8048
20
-120.51
11
26.6143
21
-120.605
0
LINE
8
BLACK
6
CONTINUOUS
10
26.6143
20
-120.605
11
26.4238
21
-120.605
0
LINE
8
BLACK
6
CONTINUOUS
10
26.4238
20
-120.605
11
26.2333
21
-120.51
0
LINE
8
BLACK
6
CONTINUOUS
10
26.2333
20
-120.51
11
26.1381
21
-120.414
0
LINE
8
BLACK
6
CONTINUOUS
10
26.1381
20
-120.414
11
26.0429
21
-120.224
0
LINE
8
BLACK
6
CONTINUOUS
10
26.0429
20
-120.224
11
25.9476
21
-119.843
0
LINE
8
BLACK
6
CONTINUOUS
10
25.9476
20
-119.843
11
25.9476
21
-119.367
0
LINE
8
BLACK
6
CONTINUOUS
10
25.9476
20
-119.367
11
26.0429
21
-118.986
0
LINE
8
BLACK
6
CONTINUOUS
10
26.0429
20
-118.986
11
26.1381
21
-118.795
0
LINE
8
BLACK
6
CONTINUOUS
10
26.1381
20
-118.795
11
26.2333
21
-118.7
0
LINE
8
BLACK
6
CONTINUOUS
10
26.2333
20
-118.7
11
26.4238
21
-118.605
0
LINE
8
BLACK
6
CONTINUOUS
10
27.9476
20
-120.605
11
27.9476
21
-119.271
0
LINE
8
BLACK
6
CONTINUOUS
10
27.9476
20
-119.462
11
28.0429
21
-119.367
0
LINE
8
BLACK
6
CONTINUOUS
10
28.0429
20
-119.367
11
28.2333
21
-119.271
0
LINE
8
BLACK
6
CONTINUOUS
10
28.2333
20
-119.271
11
28.519
21
-119.271
0
LINE
8
BLACK
6
CONTINUOUS
10
28.519
20
-119.271
11
28.7095
21
-119.367
0
LINE
8
BLACK
6
CONTINUOUS
10
28.7095
20
-119.367
11
28.8048
21
-119.557
0
LINE
8
BLACK
6
CONTINUOUS
10
28.8048
20
-119.557
11
28.8048
21
-120.605
0
LINE
8
BLACK
6
CONTINUOUS
10
28.8048
20
-119.557
11
28.9
21
-119.367
0
LINE
8
BLACK
6
CONTINUOUS
10
28.9
20
-119.367
11
29.0905
21
-119.271
0
LINE
8
BLACK
6
CONTINUOUS
10
29.0905
20
-119.271
11
29.3762
21
-119.271
0
LINE
8
BLACK
6
CONTINUOUS
10
29.3762
20
-119.271
11
29.5667
21
-119.367
0
LINE
8
BLACK
6
CONTINUOUS
10
29.5667
20
-119.367
11
29.6619
21
-119.557
0
LINE
8
BLACK
6
CONTINUOUS
10
29.6619
20
-119.557
11
29.6619
21
-120.605
0
LINE
8
BLACK
6
CONTINUOUS
10
30.6143
20
-120.605
11
30.6143
21
-119.271
0
LINE
8
BLACK
6
CONTINUOUS
10
30.6143
20
-119.462
11
30.7095
21
-119.367
0
LINE
8
BLACK
6
CONTINUOUS
10
30.7095
20
-119.367
11
30.9
21
-119.271
0
LINE
8
BLACK
6
CONTINUOUS
10
30.9
20
-119.271
11
31.1857
21
-119.271
0
LINE
8
BLACK
6
CONTINUOUS
10
31.1857
20
-119.271
11
31.3762
21
-119.367
0
LINE
8
BLACK
6
CONTINUOUS
10
31.3762
20
-119.367
11
31.4714
21
-119.557
0
LINE
8
BLACK
6
CONTINUOUS
10
31.4714
20
-119.557
11
31.4714
21
-120.605
0
LINE
8
BLACK
6
CONTINUOUS
10
31.4714
20
-119.557
11
31.5667
21
-119.367
0
LINE
8
BLACK
6
CONTINUOUS
10
31.5667
20
-119.367
11
31.7571
21
-119.271
0
LINE
8
BLACK
6
CONTINUOUS
10
31.7571
20
-119.271
11
32.0429
21
-119.271
0
LINE
8
BLACK
6
CONTINUOUS
10
32.0429
20
-119.271
11
32.2333
21
-119.367
0
LINE
8
BLACK
6
CONTINUOUS
10
32.2333
20
-119.367
11
32.3286
21
-119.557
0
LINE
8
BLACK
6
CONTINUOUS
10
32.3286
20
-119.557
11
32.3286
21
-120.605
0
LINE
8
BLACK
6
CONTINUOUS
10
36.2333
20
-118.51
11
34.519
21
-121.081
0
LINE
8
BLACK
6
CONTINUOUS
10
38.8048
20
-118.605
11
38.9952
21
-118.605
0
LINE
8
BLACK
6
CONTINUOUS
10
38.9952
20
-118.605
11
39.1857
21
-118.7
0
LINE
8
BLACK
6
CONTINUOUS
10
39.1857
20
-118.7
11
39.281
21
-118.795
0
LINE
8
BLACK
6
CONTINUOUS
10
39.281
20
-118.795
11
39.3762
21
-118.986
0
LINE
8
BLACK
6
CONTINUOUS
10
39.3762
20
-118.986
11
39.4714
21
-119.367
0
LINE
8
BLACK
6
CONTINUOUS
10
39.4714
20
-119.367
11
39.4714
21
-119.843
0
LINE
8
BLACK
6
CONTINUOUS
10
39.4714
20
-119.843
11
39.3762
21
-120.224
0
LINE
8
BLACK
6
CONTINUOUS
10
39.3762
20
-120.224
11
39.281
21
-120.414
0
LINE
8
BLACK
6
CONTINUOUS
10
39.281
20
-120.414
11
39.1857
21
-120.51
0
LINE
8
BLACK
6
CONTINUOUS
10
39.1857
20
-120.51
11
38.9952
21
-120.605
0
LINE
8
BLACK
6
CONTINUOUS
10
38.9952
20
-120.605
11
38.8048
21
-120.605
0
LINE
8
BLACK
6
CONTINUOUS
10
38.8048
20
-120.605
11
38.6143
21
-120.51
0
LINE
8
BLACK
6
CONTINUOUS
10
38.6143
20
-120.51
11
38.519
21
-120.414
0
LINE
8
BLACK
6
CONTINUOUS
10
38.519
20
-120.414
11
38.4238
21
-120.224
0
LINE
8
BLACK
6
CONTINUOUS
10
38.4238
20
-120.224
11
38.3286
21
-119.843
0
LINE
8
BLACK
6
CONTINUOUS
10
38.3286
20
-119.843
11
38.3286
21
-119.367
0
LINE
8
BLACK
6
CONTINUOUS
10
38.3286
20
-119.367
11
38.4238
21
-118.986
0
LINE
8
BLACK
6
CONTINUOUS
10
38.4238
20
-118.986
11
38.519
21
-118.795
0
LINE
8
BLACK
6
CONTINUOUS
10
38.519
20
-118.795
11
38.6143
21
-118.7
0
LINE
8
BLACK
6
CONTINUOUS
10
38.6143
20
-118.7
11
38.8048
21
-118.605
0
LINE
8
BLACK
6
CONTINUOUS
10
40.3286
20
-120.414
11
40.4238
21
-120.51
0
LINE
8
BLACK
6
CONTINUOUS
10
40.4238
20
-120.51
11
40.3286
21
-120.605
0
LINE
8
BLACK
6
CONTINUOUS
10
40.3286
20
-120.605
11
40.2333
21
-120.51
0
LINE
8
BLACK
6
CONTINUOUS
10
40.2333
20
-120.51
11
40.3286
21
-120.414
0
LINE
8
BLACK
6
CONTINUOUS
10
40.3286
20
-120.414
11
40.3286
21
-120.605
0
LINE
8
BLACK
6
CONTINUOUS
10
41.6619
20
-118.605
11
41.8524
21
-118.605
0
LINE
8
BLACK
6
CONTINUOUS
10
41.8524
20
-118.605
11
42.0429
21
-118.7
0
LINE
8
BLACK
6
CONTINUOUS
10
42.0429
20
-118.7
11
42.1381
21
-118.795
0
LINE
8
BLACK
6
CONTINUOUS
10
42.1381
20
-118.795
11
42.2333
21
-118.986
0
LINE
8
BLACK
6
CONTINUOUS
10
42.2333
20
-118.986
11
42.3286
21
-119.367
0
LINE
8
BLACK
6
CONTINUOUS
10
42.3286
20
-119.367
11
42.3286
21
-119.843
0
LINE
8
BLACK
6
CONTINUOUS
10
42.3286
20
-119.843
11
42.2333
21
-120.224
0
LINE
8
BLACK
6
CONTINUOUS
10
42.2333
20
-120.224
11
42.1381
21
-120.414
0
LINE
8
BLACK
6
CONTINUOUS
10
42.1381
20
-120.414
11
42.0429
21
-120.51
0
LINE
8
BLACK
6
CONTINUOUS
10
42.0429
20
-120.51
11
41.8524
21
-120.605
0
LINE
8
BLACK
6
CONTINUOUS
10
41.8524
20
-120.605
11
41.6619
21
-120.605
0
LINE
8
BLACK
6
CONTINUOUS
10
41.6619
20
-120.605
11
41.4714
21
-120.51
0
LINE
8
BLACK
6
CONTINUOUS
10
41.4714
20
-120.51
11
41.3762
21
-120.414
0
LINE
8
BLACK
6
CONTINUOUS
10
41.3762
20
-120.414
11
41.281
21
-120.224
0
LINE
8
BLACK
6
CONTINUOUS
10
41.281
20
-120.224
11
41.1857
21
-119.843
0
LINE
8
BLACK
6
CONTINUOUS
10
41.1857
20
-119.843
11
41.1857
21
-119.367
0
LINE
8
BLACK
6
CONTINUOUS
10
41.1857
20
-119.367
11
41.281
21
-118.986
0
LINE
8
BLACK
6
CONTINUOUS
10
41.281
20
-118.986
11
41.3762
21
-118.795
0
LINE
8
BLACK
6
CONTINUOUS
10
41.3762
20
-118.795
11
41.4714
21
-118.7
0
LINE
8
BLACK
6
CONTINUOUS
10
41.4714
20
-118.7
11
41.6619
21
-118.605
0
LINE
8
BLACK
6
CONTINUOUS
10
44.2333
20
-120.605
11
43.0905
21
-120.605
0
LINE
8
BLACK
6
CONTINUOUS
10
43.6619
20
-120.605
11
43.6619
21
-118.605
0
LINE
8
BLACK
6
CONTINUOUS
10
43.6619
20
-118.605
11
43.4714
21
-118.89
0
LINE
8
BLACK
6
CONTINUOUS
10
43.4714
20
-118.89
11
43.281
21
-119.081
0
LINE
8
BLACK
6
CONTINUOUS
10
43.281
20
-119.081
11
43.0905
21
-119.176
0
LINE
8
BLACK
6
CONTINUOUS
10
45.1857
20
-120.605
11
45.5667
21
-120.605
0
LINE
8
BLACK
6
CONTINUOUS
10
45.5667
20
-120.605
11
45.7571
21
-120.51
0
LINE
8
BLACK
6
CONTINUOUS
10
45.7571
20
-120.51
11
45.8524
21
-120.414
0
LINE
8
BLACK
6
CONTINUOUS
10
45.8524
20
-120.414
11
46.0429
21
-120.129
0
LINE
8
BLACK
6
CONTINUOUS
10
46.0429
20
-120.129
11
46.1381
21
-119.748
0
LINE
8
BLACK
6
CONTINUOUS
10
46.1381
20
-119.748
11
46.1381
21
-118.986
0
LINE
8
BLACK
6
CONTINUOUS
10
46.1381
20
-118.986
11
46.0429
21
-118.795
0
LINE
8
BLACK
6
CONTINUOUS
10
46.0429
20
-118.795
11
45.9476
21
-118.7
0
LINE
8
BLACK
6
CONTINUOUS
10
45.9476
20
-118.7
11
45.7571
21
-118.605
0
LINE
8
BLACK
6
CONTINUOUS
10
45.7571
20
-118.605
11
45.3762
21
-118.605
0
LINE
8
BLACK
6
CONTINUOUS
10
45.3762
20
-118.605
11
45.1857
21
-118.7
0
LINE
8
BLACK
6
CONTINUOUS
10
45.1857
20
-118.7
11
45.0905
21
-118.795
0
LINE
8
BLACK
6
CONTINUOUS
10
45.0905
20
-118.795
11
44.9952
21
-118.986
0
LINE
8
BLACK
6
CONTINUOUS
10
44.9952
20
-118.986
11
44.9952
21
-119.462
0
LINE
8
BLACK
6
CONTINUOUS
10
44.9952
20
-119.462
11
45.0905
21
-119.652
0
LINE
8
BLACK
6
CONTINUOUS
10
45.0905
20
-119.652
11
45.1857
21
-119.748
0
LINE
8
BLACK
6
CONTINUOUS
10
45.1857
20
-119.748
11
45.3762
21
-119.843
0
LINE
8
BLACK
6
CONTINUOUS
10
45.3762
20
-119.843
11
45.7571
21
-119.843
0
LINE
8
BLACK
6
CONTINUOUS
10
45.7571
20
-119.843
11
45.9476
21
-119.748
0
LINE
8
BLACK
6
CONTINUOUS
10
45.9476
20
-119.748
11
46.0429
21
-119.652
0
LINE
8
BLACK
6
CONTINUOUS
10
46.0429
20
-119.652
11
46.1381
21
-119.462
0
LINE
8
BLACK
6
CONTINUOUS
10
46.8048
20
-118.605
11
48.1381
21
-118.605
0
LINE
8
BLACK
6
CONTINUOUS
10
48.1381
20
-118.605
11
47.281
21
-120.605
0
LINE
8
BLACK
6
CONTINUOUS
10
48.8048
20
-118.605
11
48.8048
21
-118.986
0
LINE
8
BLACK
6
CONTINUOUS
10
49.5667
20
-118.605
11
49.5667
21
-118.986
0
LINE
8
BLACK
6
CONTINUOUS
10
52.519
20
-121.367
11
52.4238
21
-121.271
0
LINE
8
BLACK
6
CONTINUOUS
10
52.4238
20
-121.271
11
52.2333
21
-120.986
0
LINE
8
BLACK
6
CONTINUOUS
10
52.2333
20
-120.986
11
52.1381
21
-120.795
0
LINE
8
BLACK
6
CONTINUOUS
10
52.1381
20
-120.795
11
52.0429
21
-120.51
0
LINE
8
BLACK
6
CONTINUOUS
10
52.0429
20
-120.51
11
51.9476
21
-120.033
0
LINE
8
BLACK
6
CONTINUOUS
10
51.9476
20
-120.033
11
51.9476
21
-119.652
0
LINE
8
BLACK
6
CONTINUOUS
10
51.9476
20
-119.652
11
52.0429
21
-119.176
0
LINE
8
BLACK
6
CONTINUOUS
10
52.0429
20
-119.176
11
52.1381
21
-118.89
0
LINE
8
BLACK
6
CONTINUOUS
10
52.1381
20
-118.89
11
52.2333
21
-118.7
0
LINE
8
BLACK
6
CONTINUOUS
10
52.2333
20
-118.7
11
52.4238
21
-118.414
0
LINE
8
BLACK
6
CONTINUOUS
10
52.4238
20
-118.414
11
52.519
21
-118.319
0
LINE
8
BLACK
6
CONTINUOUS
10
54.3286
20
-120.605
11
53.1857
21
-120.605
0
LINE
8
BLACK
6
CONTINUOUS
10
53.7571
20
-120.605
11
53.7571
21
-118.605
0
LINE
8
BLACK
6
CONTINUOUS
10
53.7571
20
-118.605
11
53.5667
21
-118.89
0
LINE
8
BLACK
6
CONTINUOUS
10
53.5667
20
-118.89
11
53.3762
21
-119.081
0
LINE
8
BLACK
6
CONTINUOUS
10
53.3762
20
-119.081
11
53.1857
21
-119.176
0
LINE
8
BLACK
6
CONTINUOUS
10
56.6143
20
-120.51
11
56.8048
21
-120.605
0
LINE
8
BLACK
6
CONTINUOUS
10
56.8048
20
-120.605
11
57.1857
21
-120.605
0
LINE
8
BLACK
6
CONTINUOUS
10
57.1857
20
-120.605
11
57.3762
21
-120.51
0
LINE
8
BLACK
6
CONTINUOUS
10
57.3762
20
-120.51
11
57.4714
21
-120.319
0
LINE
8
BLACK
6
CONTINUOUS
10
57.4714
20
-120.319
11
57.4714
21
-120.224
0
LINE
8
BLACK
6
CONTINUOUS
10
57.4714
20
-120.224
11
57.3762
21
-120.033
0
LINE
8
BLACK
6
CONTINUOUS
10
57.3762
20
-120.033
11
57.1857
21
-119.938
0
LINE
8
BLACK
6
CONTINUOUS
10
57.1857
20
-119.938
11
56.9
21
-119.938
0
LINE
8
BLACK
6
CONTINUOUS
10
56.9
20
-119.938
11
56.7095
21
-119.843
0
LINE
8
BLACK
6
CONTINUOUS
10
56.7095
20
-119.843
11
56.6143
21
-119.652
0
LINE
8
BLACK
6
CONTINUOUS
10
56.6143
20
-119.652
11
56.6143
21
-119.557
0
LINE
8
BLACK
6
CONTINUOUS
10
56.6143
20
-119.557
11
56.7095
21
-119.367
0
LINE
8
BLACK
6
CONTINUOUS
10
56.7095
20
-119.367
11
56.9
21
-119.271
0
LINE
8
BLACK
6
CONTINUOUS
10
56.9
20
-119.271
11
57.1857
21
-119.271
0
LINE
8
BLACK
6
CONTINUOUS
10
57.1857
20
-119.271
11
57.3762
21
-119.367
0
LINE
8
BLACK
6
CONTINUOUS
10
58.6143
20
-120.605
11
58.4238
21
-120.51
0
LINE
8
BLACK
6
CONTINUOUS
10
58.4238
20
-120.51
11
58.3286
21
-120.319
0
LINE
8
BLACK
6
CONTINUOUS
10
58.3286
20
-120.319
11
58.3286
21
-118.605
0
LINE
8
BLACK
6
CONTINUOUS
10
59.6619
20
-120.605
11
59.4714
21
-120.51
0
LINE
8
BLACK
6
CONTINUOUS
10
59.4714
20
-120.51
11
59.3762
21
-120.414
0
LINE
8
BLACK
6
CONTINUOUS
10
59.3762
20
-120.414
11
59.281
21
-120.224
0
LINE
8
BLACK
6
CONTINUOUS
10
59.281
20
-120.224
11
59.281
21
-119.652
0
LINE
8
BLACK
6
CONTINUOUS
10
59.281
20
-119.652
11
59.3762
21
-119.462
0
LINE
8
BLACK
6
CONTINUOUS
10
59.3762
20
-119.462
11
59.4714
21
-119.367
0
LINE
8
BLACK
6
CONTINUOUS
10
59.4714
20
-119.367
11
59.6619
21
-119.271
0
LINE
8
BLACK
6
CONTINUOUS
10
59.6619
20
-119.271
11
59.9476
21
-119.271
0
LINE
8
BLACK
6
CONTINUOUS
10
59.9476
20
-119.271
11
60.1381
21
-119.367
0
LINE
8
BLACK
6
CONTINUOUS
10
60.1381
20
-119.367
11
60.2333
21
-119.462
0
LINE
8
BLACK
6
CONTINUOUS
10
60.2333
20
-119.462
11
60.3286
21
-119.652
0
LINE
8
BLACK
6
CONTINUOUS
10
60.3286
20
-119.652
11
60.3286
21
-120.224
0
LINE
8
BLACK
6
CONTINUOUS
10
60.3286
20
-120.224
11
60.2333
21
-120.414
0
LINE
8
BLACK
6
CONTINUOUS
10
60.2333
20
-120.414
11
60.1381
21
-120.51
0
LINE
8
BLACK
6
CONTINUOUS
10
60.1381
20
-120.51
11
59.9476
21
-120.605
0
LINE
8
BLACK
6
CONTINUOUS
10
59.9476
20
-120.605
11
59.6619
21
-120.605
0
LINE
8
BLACK
6
CONTINUOUS
10
60.9
20
-119.271
11
61.6619
21
-119.271
0
LINE
8
BLACK
6
CONTINUOUS
10
61.1857
20
-118.605
11
61.1857
21
-120.319
0
LINE
8
BLACK
6
CONTINUOUS
10
61.1857
20
-120.319
11
61.281
21
-120.51
0
LINE
8
BLACK
6
CONTINUOUS
10
61.281
20
-120.51
11
61.4714
21
-120.605
0
LINE
8
BLACK
6
CONTINUOUS
10
61.4714
20
-120.605
11
61.6619
21
-120.605
0
LINE
8
BLACK
6
CONTINUOUS
10
62.1381
20
-121.367
11
62.2333
21
-121.271
0
LINE
8
BLACK
6
CONTINUOUS
10
62.2333
20
-121.271
11
62.4238
21
-120.986
0
LINE
8
BLACK
6
CONTINUOUS
10
62.4238
20
-120.986
11
62.519
21
-120.795
0
LINE
8
BLACK
6
CONTINUOUS
10
62.519
20
-120.795
11
62.6143
21
-120.51
0
LINE
8
BLACK
6
CONTINUOUS
10
62.6143
20
-120.51
11
62.7095
21
-120.033
0
LINE
8
BLACK
6
CONTINUOUS
10
62.7095
20
-120.033
11
62.7095
21
-119.652
0
LINE
8
BLACK
6
CONTINUOUS
10
62.7095
20
-119.652
11
62.6143
21
-119.176
0
LINE
8
BLACK
6
CONTINUOUS
10
62.6143
20
-119.176
11
62.519
21
-118.89
0
LINE
8
BLACK
6
CONTINUOUS
10
62.519
20
-118.89
11
62.4238
21
-118.7
0
LINE
8
BLACK
6
CONTINUOUS
10
62.4238
20
-118.7
11
62.2333
21
-118.414
0
LINE
8
BLACK
6
CONTINUOUS
10
62.2333
20
-118.414
11
62.1381
21
-118.319
0
CIRCLE
8
BLACK
10
15.8
20
-122.34
40
1
0
LINE
8
BLACK
6
CONTINUOUS
10
19.281
20
-121.435
11
19.3762
21
-121.34
0
LINE
8
BLACK
6
CONTINUOUS
10
19.3762
20
-121.34
11
19.5667
21
-121.245
0
LINE
8
BLACK
6
CONTINUOUS
10
19.5667
20
-121.245
11
20.0429
21
-121.245
0
LINE
8
BLACK
6
CONTINUOUS
10
20.0429
20
-121.245
11
20.2333
21
-121.34
0
LINE
8
BLACK
6
CONTINUOUS
10
20.2333
20
-121.34
11
20.3286
21
-121.435
0
LINE
8
BLACK
6
CONTINUOUS
10
20.3286
20
-121.435
11
20.4238
21
-121.626
0
LINE
8
BLACK
6
CONTINUOUS
10
20.4238
20
-121.626
11
20.4238
21
-121.816
0
LINE
8
BLACK
6
CONTINUOUS
10
20.4238
20
-121.816
11
20.3286
21
-122.102
0
LINE
8
BLACK
6
CONTINUOUS
10
20.3286
20
-122.102
11
19.1857
21
-123.245
0
LINE
8
BLACK
6
CONTINUOUS
10
19.1857
20
-123.245
11
20.4238
21
-123.245
0
LINE
8
BLACK
6
CONTINUOUS
10
21.281
20
-123.054
11
21.3762
21
-123.15
0
LINE
8
BLACK
6
CONTINUOUS
10
21.3762
20
-123.15
11
21.281
21
-123.245
0
LINE
8
BLACK
6
CONTINUOUS
10
21.281
20
-123.245
11
21.1857
21
-123.15
0
LINE
8
BLACK
6
CONTINUOUS
10
21.1857
20
-123.15
11
21.281
21
-123.054
0
LINE
8
BLACK
6
CONTINUOUS
10
21.281
20
-123.054
11
21.281
21
-123.245
0
LINE
8
BLACK
6
CONTINUOUS
10
22.1381
20
-121.435
11
22.2333
21
-121.34
0
LINE
8
BLACK
6
CONTINUOUS
10
22.2333
20
-121.34
11
22.4238
21
-121.245
0
LINE
8
BLACK
6
CONTINUOUS
10
22.4238
20
-121.245
11
22.9
21
-121.245
0
LINE
8
BLACK
6
CONTINUOUS
10
22.9
20
-121.245
11
23.0905
21
-121.34
0
LINE
8
BLACK
6
CONTINUOUS
10
23.0905
20
-121.34
11
23.1857
21
-121.435
0
LINE
8
BLACK
6
CONTINUOUS
10
23.1857
20
-121.435
11
23.281
21
-121.626
0
LINE
8
BLACK
6
CONTINUOUS
10
23.281
20
-121.626
11
23.281
21
-121.816
0
LINE
8
BLACK
6
CONTINUOUS
10
23.281
20
-121.816
11
23.1857
21
-122.102
0
LINE
8
BLACK
6
CONTINUOUS
10
23.1857
20
-122.102
11
22.0429
21
-123.245
0
LINE
8
BLACK
6
CONTINUOUS
10
22.0429
20
-123.245
11
23.281
21
-123.245
0
LINE
8
BLACK
6
CONTINUOUS
10
24.519
20
-121.245
11
24.7095
21
-121.245
0
LINE
8
BLACK
6
CONTINUOUS
10
24.7095
20
-121.245
11
24.9
21
-121.34
0
LINE
8
BLACK
6
CONTINUOUS
10
24.9
20
-121.34
11
24.9952
21
-121.435
0
LINE
8
BLACK
6
CONTINUOUS
10
24.9952
20
-121.435
11
25.0905
21
-121.626
0
LINE
8
BLACK
6
CONTINUOUS
10
25.0905
20
-121.626
11
25.1857
21
-122.007
0
LINE
8
BLACK
6
CONTINUOUS
10
25.1857
20
-122.007
11
25.1857
21
-122.483
0
LINE
8
BLACK
6
CONTINUOUS
10
25.1857
20
-122.483
11
25.0905
21
-122.864
0
LINE
8
BLACK
6
CONTINUOUS
10
25.0905
20
-122.864
11
24.9952
21
-123.054
0
LINE
8
BLACK
6
CONTINUOUS
10
24.9952
20
-123.054
11
24.9
21
-123.15
0
LINE
8
BLACK
6
CONTINUOUS
10
24.9
20
-123.15
11
24.7095
21
-123.245
0
LINE
8
BLACK
6
CONTINUOUS
10
24.7095
20
-123.245
11
24.519
21
-123.245
0
LINE
8
BLACK
6
CONTINUOUS
10
24.519
20
-123.245
11
24.3286
21
-123.15
0
LINE
8
BLACK
6
CONTINUOUS
10
24.3286
20
-123.15
11
24.2333
21
-123.054
0
LINE
8
BLACK
6
CONTINUOUS
10
24.2333
20
-123.054
11
24.1381
21
-122.864
0
LINE
8
BLACK
6
CONTINUOUS
10
24.1381
20
-122.864
11
24.0429
21
-122.483
0
LINE
8
BLACK
6
CONTINUOUS
10
24.0429
20
-122.483
11
24.0429
21
-122.007
0
LINE
8
BLACK
6
CONTINUOUS
10
24.0429
20
-122.007
11
24.1381
21
-121.626
0
LINE
8
BLACK
6
CONTINUOUS
10
24.1381
20
-121.626
11
24.2333
21
-121.435
0
LINE
8
BLACK
6
CONTINUOUS
10
24.2333
20
-121.435
11
24.3286
21
-121.34
0
LINE
8
BLACK
6
CONTINUOUS
10
24.3286
20
-121.34
11
24.519
21
-121.245
0
LINE
8
BLACK
6
CONTINUOUS
10
26.4238
20
-121.245
11
26.6143
21
-121.245
0
LINE
8
BLACK
6
CONTINUOUS
10
26.6143
20
-121.245
11
26.8048
21
-121.34
0
LINE
8
BLACK
6
CONTINUOUS
10
26.8048
20
-121.34
11
26.9
21
-121.435
0
LINE
8
BLACK
6
CONTINUOUS
10
26.9
20
-121.435
11
26.9952
21
-121.626
0
LINE
8
BLACK
6
CONTINUOUS
10
26.9952
20
-121.626
11
27.0905
21
-122.007
0
LINE
8
BLACK
6
CONTINUOUS
10
27.0905
20
-122.007
11
27.0905
21
-122.483
0
LINE
8
BLACK
6
CONTINUOUS
10
27.0905
20
-122.483
11
26.9952
21
-122.864
0
LINE
8
BLACK
6
CONTINUOUS
10
26.9952
20
-122.864
11
26.9
21
-123.054
0
LINE
8
BLACK
6
CONTINUOUS
10
26.9
20
-123.054
11
26.8048
21
-123.15
0
LINE
8
BLACK
6
CONTINUOUS
10
26.8048
20
-123.15
11
26.6143
21
-123.245
0
LINE
8
BLACK
6
CONTINUOUS
10
26.6143
20
-123.245
11
26.4238
21
-123.245
0
LINE
8
BLACK
6
CONTINUOUS
10
26.4238
20
-123.245
11
26.2333
21
-123.15
0
LINE
8
BLACK
6
CONTINUOUS
10
26.2333
20
-123.15
11
26.1381
21
-123.054
0
LINE
8
BLACK
6
CONTINUOUS
10
26.1381
20
-123.054
11
26.0429
21
-122.864
0
LINE
8
BLACK
6
CONTINUOUS
10
26.0429
20
-122.864
11
25.9476
21
-122.483
0
LINE
8
BLACK
6
CONTINUOUS
10
25.9476
20
-122.483
11
25.9476
21
-122.007
0
LINE
8
BLACK
6
CONTINUOUS
10
25.9476
20
-122.007
11
26.0429
21
-121.626
0
LINE
8
BLACK
6
CONTINUOUS
10
26.0429
20
-121.626
11
26.1381
21
-121.435
0
LINE
8
BLACK
6
CONTINUOUS
10
26.1381
20
-121.435
11
26.2333
21
-121.34
0
LINE
8
BLACK
6
CONTINUOUS
10
26.2333
20
-121.34
11
26.4238
21
-121.245
0
LINE
8
BLACK
6
CONTINUOUS
10
27.9476
20
-123.245
11
27.9476
21
-121.911
0
LINE
8
BLACK
6
CONTINUOUS
10
27.9476
20
-122.102
11
28.0429
21
-122.007
0
LINE
8
BLACK
6
CONTINUOUS
10
28.0429
20
-122.007
11
28.2333
21
-121.911
0
LINE
8
BLACK
6
CONTINUOUS
10
28.2333
20
-121.911
11
28.519
21
-121.911
0
LINE
8
BLACK
6
CONTINUOUS
10
28.519
20
-121.911
11
28.7095
21
-122.007
0
LINE
8
BLACK
6
CONTINUOUS
10
28.7095
20
-122.007
11
28.8048
21
-122.197
0
LINE
8
BLACK
6
CONTINUOUS
10
28.8048
20
-122.197
11
28.8048
21
-123.245
0
LINE
8
BLACK
6
CONTINUOUS
10
28.8048
20
-122.197
11
28.9
21
-122.007
0
LINE
8
BLACK
6
CONTINUOUS
10
28.9
20
-122.007
11
29.0905
21
-121.911
0
LINE
8
BLACK
6
CONTINUOUS
10
29.0905
20
-121.911
11
29.3762
21
-121.911
0
LINE
8
BLACK
6
CONTINUOUS
10
29.3762
20
-121.911
11
29.5667
21
-122.007
0
LINE
8
BLACK
6
CONTINUOUS
10
29.5667
20
-122.007
11
29.6619
21
-122.197
0
LINE
8
BLACK
6
CONTINUOUS
10
29.6619
20
-122.197
11
29.6619
21
-123.245
0
LINE
8
BLACK
6
CONTINUOUS
10
30.6143
20
-123.245
11
30.6143
21
-121.911
0
LINE
8
BLACK
6
CONTINUOUS
10
30.6143
20
-122.102
11
30.7095
21
-122.007
0
LINE
8
BLACK
6
CONTINUOUS
10
30.7095
20
-122.007
11
30.9
21
-121.911
0
LINE
8
BLACK
6
CONTINUOUS
10
30.9
20
-121.911
11
31.1857
21
-121.911
0
LINE
8
BLACK
6
CONTINUOUS
10
31.1857
20
-121.911
11
31.3762
21
-122.007
0
LINE
8
BLACK
6
CONTINUOUS
10
31.3762
20
-122.007
11
31.4714
21
-122.197
0
LINE
8
BLACK
6
CONTINUOUS
10
31.4714
20
-122.197
11
31.4714
21
-123.245
0
LINE
8
BLACK
6
CONTINUOUS
10
31.4714
20
-122.197
11
31.5667
21
-122.007
0
LINE
8
BLACK
6
CONTINUOUS
10
31.5667
20
-122.007
11
31.7571
21
-121.911
0
LINE
8
BLACK
6
CONTINUOUS
10
31.7571
20
-121.911
11
32.0429
21
-121.911
0
LINE
8
BLACK
6
CONTINUOUS
10
32.0429
20
-121.911
11
32.2333
21
-122.007
0
LINE
8
BLACK
6
CONTINUOUS
10
32.2333
20
-122.007
11
32.3286
21
-122.197
0
LINE
8
BLACK
6
CONTINUOUS
10
32.3286
20
-122.197
11
32.3286
21
-123.245
0
LINE
8
BLACK
6
CONTINUOUS
10
36.2333
20
-121.15
11
34.519
21
-123.721
0
LINE
8
BLACK
6
CONTINUOUS
10
38.8048
20
-121.245
11
38.9952
21
-121.245
0
LINE
8
BLACK
6
CONTINUOUS
10
38.9952
20
-121.245
11
39.1857
21
-121.34
0
LINE
8
BLACK
6
CONTINUOUS
10
39.1857
20
-121.34
11
39.281
21
-121.435
0
LINE
8
BLACK
6
CONTINUOUS
10
39.281
20
-121.435
11
39.3762
21
-121.626
0
LINE
8
BLACK
6
CONTINUOUS
10
39.3762
20
-121.626
11
39.4714
21
-122.007
0
LINE
8
BLACK
6
CONTINUOUS
10
39.4714
20
-122.007
11
39.4714
21
-122.483
0
LINE
8
BLACK
6
CONTINUOUS
10
39.4714
20
-122.483
11
39.3762
21
-122.864
0
LINE
8
BLACK
6
CONTINUOUS
10
39.3762
20
-122.864
11
39.281
21
-123.054
0
LINE
8
BLACK
6
CONTINUOUS
10
39.281
20
-123.054
11
39.1857
21
-123.15
0
LINE
8
BLACK
6
CONTINUOUS
10
39.1857
20
-123.15
11
38.9952
21
-123.245
0
LINE
8
BLACK
6
CONTINUOUS
10
38.9952
20
-123.245
11
38.8048
21
-123.245
0
LINE
8
BLACK
6
CONTINUOUS
10
38.8048
20
-123.245
11
38.6143
21
-123.15
0
LINE
8
BLACK
6
CONTINUOUS
10
38.6143
20
-123.15
11
38.519
21
-123.054
0
LINE
8
BLACK
6
CONTINUOUS
10
38.519
20
-123.054
11
38.4238
21
-122.864
0
LINE
8
BLACK
6
CONTINUOUS
10
38.4238
20
-122.864
11
38.3286
21
-122.483
0
LINE
8
BLACK
6
CONTINUOUS
10
38.3286
20
-122.483
11
38.3286
21
-122.007
0
LINE
8
BLACK
6
CONTINUOUS
10
38.3286
20
-122.007
11
38.4238
21
-121.626
0
LINE
8
BLACK
6
CONTINUOUS
10
38.4238
20
-121.626
11
38.519
21
-121.435
0
LINE
8
BLACK
6
CONTINUOUS
10
38.519
20
-121.435
11
38.6143
21
-121.34
0
LINE
8
BLACK
6
CONTINUOUS
10
38.6143
20
-121.34
11
38.8048
21
-121.245
0
LINE
8
BLACK
6
CONTINUOUS
10
40.3286
20
-123.054
11
40.4238
21
-123.15
0
LINE
8
BLACK
6
CONTINUOUS
10
40.4238
20
-123.15
11
40.3286
21
-123.245
0
LINE
8
BLACK
6
CONTINUOUS
10
40.3286
20
-123.245
11
40.2333
21
-123.15
0
LINE
8
BLACK
6
CONTINUOUS
10
40.2333
20
-123.15
11
40.3286
21
-123.054
0
LINE
8
BLACK
6
CONTINUOUS
10
40.3286
20
-123.054
11
40.3286
21
-123.245
0
LINE
8
BLACK
6
CONTINUOUS
10
41.6619
20
-121.245
11
41.8524
21
-121.245
0
LINE
8
BLACK
6
CONTINUOUS
10
41.8524
20
-121.245
11
42.0429
21
-121.34
0
LINE
8
BLACK
6
CONTINUOUS
10
42.0429
20
-121.34
11
42.1381
21
-121.435
0
LINE
8
BLACK
6
CONTINUOUS
10
42.1381
20
-121.435
11
42.2333
21
-121.626
0
LINE
8
BLACK
6
CONTINUOUS
10
42.2333
20
-121.626
11
42.3286
21
-122.007
0
LINE
8
BLACK
6
CONTINUOUS
10
42.3286
20
-122.007
11
42.3286
21
-122.483
0
LINE
8
BLACK
6
CONTINUOUS
10
42.3286
20
-122.483
11
42.2333
21
-122.864
0
LINE
8
BLACK
6
CONTINUOUS
10
42.2333
20
-122.864
11
42.1381
21
-123.054
0
LINE
8
BLACK
6
CONTINUOUS
10
42.1381
20
-123.054
11
42.0429
21
-123.15
0
LINE
8
BLACK
6
CONTINUOUS
10
42.0429
20
-123.15
11
41.8524
21
-123.245
0
LINE
8
BLACK
6
CONTINUOUS
10
41.8524
20
-123.245
11
41.6619
21
-123.245
0
LINE
8
BLACK
6
CONTINUOUS
10
41.6619
20
-123.245
11
41.4714
21
-123.15
0
LINE
8
BLACK
6
CONTINUOUS
10
41.4714
20
-123.15
11
41.3762
21
-123.054
0
LINE
8
BLACK
6
CONTINUOUS
10
41.3762
20
-123.054
11
41.281
21
-122.864
0
LINE
8
BLACK
6
CONTINUOUS
10
41.281
20
-122.864
11
41.1857
21
-122.483
0
LINE
8
BLACK
6
CONTINUOUS
10
41.1857
20
-122.483
11
41.1857
21
-122.007
0
LINE
8
BLACK
6
CONTINUOUS
10
41.1857
20
-122.007
11
41.281
21
-121.626
0
LINE
8
BLACK
6
CONTINUOUS
10
41.281
20
-121.626
11
41.3762
21
-121.435
0
LINE
8
BLACK
6
CONTINUOUS
10
41.3762
20
-121.435
11
41.4714
21
-121.34
0
LINE
8
BLACK
6
CONTINUOUS
10
41.4714
20
-121.34
11
41.6619
21
-121.245
0
LINE
8
BLACK
6
CONTINUOUS
10
43.4714
20
-122.102
11
43.281
21
-122.007
0
LINE
8
BLACK
6
CONTINUOUS
10
43.281
20
-122.007
11
43.1857
21
-121.911
0
LINE
8
BLACK
6
CONTINUOUS
10
43.1857
20
-121.911
11
43.0905
21
-121.721
0
LINE
8
BLACK
6
CONTINUOUS
10
43.0905
20
-121.721
11
43.0905
21
-121.626
0
LINE
8
BLACK
6
CONTINUOUS
10
43.0905
20
-121.626
11
43.1857
21
-121.435
0
LINE
8
BLACK
6
CONTINUOUS
10
43.1857
20
-121.435
11
43.281
21
-121.34
0
LINE
8
BLACK
6
CONTINUOUS
10
43.281
20
-121.34
11
43.4714
21
-121.245
0
LINE
8
BLACK
6
CONTINUOUS
10
43.4714
20
-121.245
11
43.8524
21
-121.245
0
LINE
8
BLACK
6
CONTINUOUS
10
43.8524
20
-121.245
11
44.0429
21
-121.34
0
LINE
8
BLACK
6
CONTINUOUS
10
44.0429
20
-121.34
11
44.1381
21
-121.435
0
LINE
8
BLACK
6
CONTINUOUS
10
44.1381
20
-121.435
11
44.2333
21
-121.626
0
LINE
8
BLACK
6
CONTINUOUS
10
44.2333
20
-121.626
11
44.2333
21
-121.721
0
LINE
8
BLACK
6
CONTINUOUS
10
44.2333
20
-121.721
11
44.1381
21
-121.911
0
LINE
8
BLACK
6
CONTINUOUS
10
44.1381
20
-121.911
11
44.0429
21
-122.007
0
LINE
8
BLACK
6
CONTINUOUS
10
44.0429
20
-122.007
11
43.8524
21
-122.102
0
LINE
8
BLACK
6
CONTINUOUS
10
43.8524
20
-122.102
11
43.4714
21
-122.102
0
LINE
8
BLACK
6
CONTINUOUS
10
43.4714
20
-122.102
11
43.281
21
-122.197
0
LINE
8
BLACK
6
CONTINUOUS
10
43.281
20
-122.197
11
43.1857
21
-122.292
0
LINE
8
BLACK
6
CONTINUOUS
10
43.1857
20
-122.292
11
43.0905
21
-122.483
0
LINE
8
BLACK
6
CONTINUOUS
10
43.0905
20
-122.483
11
43.0905
21
-122.864
0
LINE
8
BLACK
6
CONTINUOUS
10
43.0905
20
-122.864
11
43.1857
21
-123.054
0
LINE
8
BLACK
6
CONTINUOUS
10
43.1857
20
-123.054
11
43.281
21
-123.15
0
LINE
8
BLACK
6
CONTINUOUS
10
43.281
20
-123.15
11
43.4714
21
-123.245
0
LINE
8
BLACK
6
CONTINUOUS
10
43.4714
20
-123.245
11
43.8524
21
-123.245
0
LINE
8
BLACK
6
CONTINUOUS
10
43.8524
20
-123.245
11
44.0429
21
-123.15
0
LINE
8
BLACK
6
CONTINUOUS
10
44.0429
20
-123.15
11
44.1381
21
-123.054
0
LINE
8
BLACK
6
CONTINUOUS
10
44.1381
20
-123.054
11
44.2333
21
-122.864
0
LINE
8
BLACK
6
CONTINUOUS
10
44.2333
20
-122.864
11
44.2333
21
-122.483
0
LINE
8
BLACK
6
CONTINUOUS
10
44.2333
20
-122.483
11
44.1381
21
-122.292
0
LINE
8
BLACK
6
CONTINUOUS
10
44.1381
20
-122.292
11
44.0429
21
-122.197
0
LINE
8
BLACK
6
CONTINUOUS
10
44.0429
20
-122.197
11
43.8524
21
-122.102
0
LINE
8
BLACK
6
CONTINUOUS
10
45.9476
20
-121.245
11
45.5667
21
-121.245
0
LINE
8
BLACK
6
CONTINUOUS
10
45.5667
20
-121.245
11
45.3762
21
-121.34
0
LINE
8
BLACK
6
CONTINUOUS
10
45.3762
20
-121.34
11
45.281
21
-121.435
0
LINE
8
BLACK
6
CONTINUOUS
10
45.281
20
-121.435
11
45.0905
21
-121.721
0
LINE
8
BLACK
6
CONTINUOUS
10
45.0905
20
-121.721
11
44.9952
21
-122.102
0
LINE
8
BLACK
6
CONTINUOUS
10
44.9952
20
-122.102
11
44.9952
21
-122.864
0
LINE
8
BLACK
6
CONTINUOUS
10
44.9952
20
-122.864
11
45.0905
21
-123.054
0
LINE
8
BLACK
6
CONTINUOUS
10
45.0905
20
-123.054
11
45.1857
21
-123.15
0
LINE
8
BLACK
6
CONTINUOUS
10
45.1857
20
-123.15
11
45.3762
21
-123.245
0
LINE
8
BLACK
6
CONTINUOUS
10
45.3762
20
-123.245
11
45.7571
21
-123.245
0
LINE
8
BLACK
6
CONTINUOUS
10
45.7571
20
-123.245
11
45.9476
21
-123.15
0
LINE
8
BLACK
6
CONTINUOUS
10
45.9476
20
-123.15
11
46.0429
21
-123.054
0
LINE
8
BLACK
6
CONTINUOUS
10
46.0429
20
-123.054
11
46.1381
21
-122.864
0
LINE
8
BLACK
6
CONTINUOUS
10
46.1381
20
-122.864
11
46.1381
21
-122.388
0
LINE
8
BLACK
6
CONTINUOUS
10
46.1381
20
-122.388
11
46.0429
21
-122.197
0
LINE
8
BLACK
6
CONTINUOUS
10
46.0429
20
-122.197
11
45.9476
21
-122.102
0
LINE
8
BLACK
6
CONTINUOUS
10
45.9476
20
-122.102
11
45.7571
21
-122.007
0
LINE
8
BLACK
6
CONTINUOUS
10
45.7571
20
-122.007
11
45.3762
21
-122.007
0
LINE
8
BLACK
6
CONTINUOUS
10
45.3762
20
-122.007
11
45.1857
21
-122.102
0
LINE
8
BLACK
6
CONTINUOUS
10
45.1857
20
-122.102
11
45.0905
21
-122.197
0
LINE
8
BLACK
6
CONTINUOUS
10
45.0905
20
-122.197
11
44.9952
21
-122.388
0
LINE
8
BLACK
6
CONTINUOUS
10
47.8524
20
-121.245
11
47.4714
21
-121.245
0
LINE
8
BLACK
6
CONTINUOUS
10
47.4714
20
-121.245
11
47.281
21
-121.34
0
LINE
8
BLACK
6
CONTINUOUS
10
47.281
20
-121.34
11
47.1857
21
-121.435
0
LINE
8
BLACK
6
CONTINUOUS
10
47.1857
20
-121.435
11
46.9952
21
-121.721
0
LINE
8
BLACK
6
CONTINUOUS
10
46.9952
20
-121.721
11
46.9
21
-122.102
0
LINE
8
BLACK
6
CONTINUOUS
10
46.9
20
-122.102
11
46.9
21
-122.864
0
LINE
8
BLACK
6
CONTINUOUS
10
46.9
20
-122.864
11
46.9952
21
-123.054
0
LINE
8
BLACK
6
CONTINUOUS
10
46.9952
20
-123.054
11
47.0905
21
-123.15
0
LINE
8
BLACK
6
CONTINUOUS
10
47.0905
20
-123.15
11
47.281
21
-123.245
0
LINE
8
BLACK
6
CONTINUOUS
10
47.281
20
-123.245
11
47.6619
21
-123.245
0
LINE
8
BLACK
6
CONTINUOUS
10
47.6619
20
-123.245
11
47.8524
21
-123.15
0
LINE
8
BLACK
6
CONTINUOUS
10
47.8524
20
-123.15
11
47.9476
21
-123.054
0
LINE
8
BLACK
6
CONTINUOUS
10
47.9476
20
-123.054
11
48.0429
21
-122.864
0
LINE
8
BLACK
6
CONTINUOUS
10
48.0429
20
-122.864
11
48.0429
21
-122.388
0
LINE
8
BLACK
6
CONTINUOUS
10
48.0429
20
-122.388
11
47.9476
21
-122.197
0
LINE
8
BLACK
6
CONTINUOUS
10
47.9476
20
-122.197
11
47.8524
21
-122.102
0
LINE
8
BLACK
6
CONTINUOUS
10
47.8524
20
-122.102
11
47.6619
21
-122.007
0
LINE
8
BLACK
6
CONTINUOUS
10
47.6619
20
-122.007
11
47.281
21
-122.007
0
LINE
8
BLACK
6
CONTINUOUS
10
47.281
20
-122.007
11
47.0905
21
-122.102
0
LINE
8
BLACK
6
CONTINUOUS
10
47.0905
20
-122.102
11
46.9952
21
-122.197
0
LINE
8
BLACK
6
CONTINUOUS
10
46.9952
20
-122.197
11
46.9
21
-122.388
0
LINE
8
BLACK
6
CONTINUOUS
10
48.8048
20
-121.245
11
48.8048
21
-121.626
0
LINE
8
BLACK
6
CONTINUOUS
10
49.5667
20
-121.245
11
49.5667
21
-121.626
0
LINE
8
BLACK
6
CONTINUOUS
10
52.519
20
-124.007
11
52.4238
21
-123.911
0
LINE
8
BLACK
6
CONTINUOUS
10
52.4238
20
-123.911
11
52.2333
21
-123.626
0
LINE
8
BLACK
6
CONTINUOUS
10
52.2333
20
-123.626
11
52.1381
21
-123.435
0
LINE
8
BLACK
6
CONTINUOUS
10
52.1381
20
-123.435
11
52.0429
21
-123.15
0
LINE
8
BLACK
6
CONTINUOUS
10
52.0429
20
-123.15
11
51.9476
21
-122.673
0
LINE
8
BLACK
6
CONTINUOUS
10
51.9476
20
-122.673
11
51.9476
21
-122.292
0
LINE
8
BLACK
6
CONTINUOUS
10
51.9476
20
-122.292
11
52.0429
21
-121.816
0
LINE
8
BLACK
6
CONTINUOUS
10
52.0429
20
-121.816
11
52.1381
21
-121.53
0
LINE
8
BLACK
6
CONTINUOUS
10
52.1381
20
-121.53
11
52.2333
21
-121.34
0
LINE
8
BLACK
6
CONTINUOUS
10
52.2333
20
-121.34
11
52.4238
21
-121.054
0
LINE
8
BLACK
6
CONTINUOUS
10
52.4238
20
-121.054
11
52.519
21
-120.959
0
LINE
8
BLACK
6
CONTINUOUS
10
53.5667
20
-122.102
11
53.3762
21
-122.007
0
LINE
8
BLACK
6
CONTINUOUS
10
53.3762
20
-122.007
11
53.281
21
-121.911
0
LINE
8
BLACK
6
CONTINUOUS
10
53.281
20
-121.911
11
53.1857
21
-121.721
0
LINE
8
BLACK
6
CONTINUOUS
10
53.1857
20
-121.721
11
53.1857
21
-121.626
0
LINE
8
BLACK
6
CONTINUOUS
10
53.1857
20
-121.626
11
53.281
21
-121.435
0
LINE
8
BLACK
6
CONTINUOUS
10
53.281
20
-121.435
11
53.3762
21
-121.34
0
LINE
8
BLACK
6
CONTINUOUS
10
53.3762
20
-121.34
11
53.5667
21
-121.245
0
LINE
8
BLACK
6
CONTINUOUS
10
53.5667
20
-121.245
11
53.9476
21
-121.245
0
LINE
8
BLACK
6
CONTINUOUS
10
53.9476
20
-121.245
11
54.1381
21
-121.34
0
LINE
8
BLACK
6
CONTINUOUS
10
54.1381
20
-121.34
11
54.2333
21
-121.435
0
LINE
8
BLACK
6
CONTINUOUS
10
54.2333
20
-121.435
11
54.3286
21
-121.626
0
LINE
8
BLACK
6
CONTINUOUS
10
54.3286
20
-121.626
11
54.3286
21
-121.721
0
LINE
8
BLACK
6
CONTINUOUS
10
54.3286
20
-121.721
11
54.2333
21
-121.911
0
LINE
8
BLACK
6
CONTINUOUS
10
54.2333
20
-121.911
11
54.1381
21
-122.007
0
LINE
8
BLACK
6
CONTINUOUS
10
54.1381
20
-122.007
11
53.9476
21
-122.102
0
LINE
8
BLACK
6
CONTINUOUS
10
53.9476
20
-122.102
11
53.5667
21
-122.102
0
LINE
8
BLACK
6
CONTINUOUS
10
53.5667
20
-122.102
11
53.3762
21
-122.197
0
LINE
8
BLACK
6
CONTINUOUS
10
53.3762
20
-122.197
11
53.281
21
-122.292
0
LINE
8
BLACK
6
CONTINUOUS
10
53.281
20
-122.292
11
53.1857
21
-122.483
0
LINE
8
BLACK
6
CONTINUOUS
10
53.1857
20
-122.483
11
53.1857
21
-122.864
0
LINE
8
BLACK
6
CONTINUOUS
10
53.1857
20
-122.864
11
53.281
21
-123.054
0
LINE
8
BLACK
6
CONTINUOUS
10
53.281
20
-123.054
11
53.3762
21
-123.15
0
LINE
8
BLACK
6
CONTINUOUS
10
53.3762
20
-123.15
11
53.5667
21
-123.245
0
LINE
8
BLACK
6
CONTINUOUS
10
53.5667
20
-123.245
11
53.9476
21
-123.245
0
LINE
8
BLACK
6
CONTINUOUS
10
53.9476
20
-123.245
11
54.1381
21
-123.15
0
LINE
8
BLACK
6
CONTINUOUS
10
54.1381
20
-123.15
11
54.2333
21
-123.054
0
LINE
8
BLACK
6
CONTINUOUS
10
54.2333
20
-123.054
11
54.3286
21
-122.864
0
LINE
8
BLACK
6
CONTINUOUS
10
54.3286
20
-122.864
11
54.3286
21
-122.483
0
LINE
8
BLACK
6
CONTINUOUS
10
54.3286
20
-122.483
11
54.2333
21
-122.292
0
LINE
8
BLACK
6
CONTINUOUS
10
54.2333
20
-122.292
11
54.1381
21
-122.197
0
LINE
8
BLACK
6
CONTINUOUS
10
54.1381
20
-122.197
11
53.9476
21
-122.102
0
LINE
8
BLACK
6
CONTINUOUS
10
56.7095
20
-123.245
11
56.7095
21
-121.245
0
LINE
8
BLACK
6
CONTINUOUS
10
57.5667
20
-123.245
11
57.5667
21
-122.197
0
LINE
8
BLACK
6
CONTINUOUS
10
57.5667
20
-122.197
11
57.4714
21
-122.007
0
LINE
8
BLACK
6
CONTINUOUS
10
57.4714
20
-122.007
11
57.281
21
-121.911
0
LINE
8
BLACK
6
CONTINUOUS
10
57.281
20
-121.911
11
56.9952
21
-121.911
0
LINE
8
BLACK
6
CONTINUOUS
10
56.9952
20
-121.911
11
56.8048
21
-122.007
0
LINE
8
BLACK
6
CONTINUOUS
10
56.8048
20
-122.007
11
56.7095
21
-122.102
0
LINE
8
BLACK
6
CONTINUOUS
10
58.8048
20
-123.245
11
58.6143
21
-123.15
0
LINE
8
BLACK
6
CONTINUOUS
10
58.6143
20
-123.15
11
58.519
21
-123.054
0
LINE
8
BLACK
6
CONTINUOUS
10
58.519
20
-123.054
11
58.4238
21
-122.864
0
LINE
8
BLACK
6
CONTINUOUS
10
58.4238
20
-122.864
11
58.4238
21
-122.292
0
LINE
8
BLACK
6
CONTINUOUS
10
58.4238
20
-122.292
11
58.519
21
-122.102
0
LINE
8
BLACK
6
CONTINUOUS
10
58.519
20
-122.102
11
58.6143
21
-122.007
0
LINE
8
BLACK
6
CONTINUOUS
10
58.6143
20
-122.007
11
58.8048
21
-121.911
0
LINE
8
BLACK
6
CONTINUOUS
10
58.8048
20
-121.911
11
59.0905
21
-121.911
0
LINE
8
BLACK
6
CONTINUOUS
10
59.0905
20
-121.911
11
59.281
21
-122.007
0
LINE
8
BLACK
6
CONTINUOUS
10
59.281
20
-122.007
11
59.3762
21
-122.102
0
LINE
8
BLACK
6
CONTINUOUS
10
59.3762
20
-122.102
11
59.4714
21
-122.292
0
LINE
8
BLACK
6
CONTINUOUS
10
59.4714
20
-122.292
11
59.4714
21
-122.864
0
LINE
8
BLACK
6
CONTINUOUS
10
59.4714
20
-122.864
11
59.3762
21
-123.054
0
LINE
8
BLACK
6
CONTINUOUS
10
59.3762
20
-123.054
11
59.281
21
-123.15
0
LINE
8
BLACK
6
CONTINUOUS
10
59.281
20
-123.15
11
59.0905
21
-123.245
0
LINE
8
BLACK
6
CONTINUOUS
10
59.0905
20
-123.245
11
58.8048
21
-123.245
0
LINE
8
BLACK
6
CONTINUOUS
10
60.6143
20
-123.245
11
60.4238
21
-123.15
0
LINE
8
BLACK
6
CONTINUOUS
10
60.4238
20
-123.15
11
60.3286
21
-122.959
0
LINE
8
BLACK
6
CONTINUOUS
10
60.3286
20
-122.959
11
60.3286
21
-121.245
0
LINE
8
BLACK
6
CONTINUOUS
10
62.1381
20
-123.15
11
61.9476
21
-123.245
0
LINE
8
BLACK
6
CONTINUOUS
10
61.9476
20
-123.245
11
61.5667
21
-123.245
0
LINE
8
BLACK
6
CONTINUOUS
10
61.5667
20
-123.245
11
61.3762
21
-123.15
0
LINE
8
BLACK
6
CONTINUOUS
10
61.3762
20
-123.15
11
61.281
21
-122.959
0
LINE
8
BLACK
6
CONTINUOUS
10
61.281
20
-122.959
11
61.281
21
-122.197
0
LINE
8
BLACK
6
CONTINUOUS
10
61.281
20
-122.197
11
61.3762
21
-122.007
0
LINE
8
BLACK
6
CONTINUOUS
10
61.3762
20
-122.007
11
61.5667
21
-121.911
0
LINE
8
BLACK
6
CONTINUOUS
10
61.5667
20
-121.911
11
61.9476
21
-121.911
0
LINE
8
BLACK
6
CONTINUOUS
10
61.9476
20
-121.911
11
62.1381
21
-122.007
0
LINE
8
BLACK
6
CONTINUOUS
10
62.1381
20
-122.007
11
62.2333
21
-122.197
0
LINE
8
BLACK
6
CONTINUOUS
10
62.2333
20
-122.197
11
62.2333
21
-122.388
0
LINE
8
BLACK
6
CONTINUOUS
10
62.2333
20
-122.388
11
61.281
21
-122.578
0
LINE
8
BLACK
6
CONTINUOUS
10
62.9952
20
-123.15
11
63.1857
21
-123.245
0
LINE
8
BLACK
6
CONTINUOUS
10
63.1857
20
-123.245
11
63.5667
21
-123.245
0
LINE
8
BLACK
6
CONTINUOUS
10
63.5667
20
-123.245
11
63.7571
21
-123.15
0
LINE
8
BLACK
6
CONTINUOUS
10
63.7571
20
-123.15
11
63.8524
21
-122.959
0
LINE
8
BLACK
6
CONTINUOUS
10
63.8524
20
-122.959
11
63.8524
21
-122.864
0
LINE
8
BLACK
6
CONTINUOUS
10
63.8524
20
-122.864
11
63.7571
21
-122.673
0
LINE
8
BLACK
6
CONTINUOUS
10
63.7571
20
-122.673
11
63.5667
21
-122.578
0
LINE
8
BLACK
6
CONTINUOUS
10
63.5667
20
-122.578
11
63.281
21
-122.578
0
LINE
8
BLACK
6
CONTINUOUS
10
63.281
20
-122.578
11
63.0905
21
-122.483
0
LINE
8
BLACK
6
CONTINUOUS
10
63.0905
20
-122.483
11
62.9952
21
-122.292
0
LINE
8
BLACK
6
CONTINUOUS
10
62.9952
20
-122.292
11
62.9952
21
-122.197
0
LINE
8
BLACK
6
CONTINUOUS
10
62.9952
20
-122.197
11
63.0905
21
-122.007
0
LINE
8
BLACK
6
CONTINUOUS
10
63.0905
20
-122.007
11
63.281
21
-121.911
0
LINE
8
BLACK
6
CONTINUOUS
10
63.281
20
-121.911
11
63.5667
21
-121.911
0
LINE
8
BLACK
6
CONTINUOUS
10
63.5667
20
-121.911
11
63.7571
21
-122.007
0
LINE
8
BLACK
6
CONTINUOUS
10
64.519
20
-124.007
11
64.6143
21
-123.911
0
LINE
8
BLACK
6
CONTINUOUS
10
64.6143
20
-123.911
11
64.8048
21
-123.626
0
LINE
8
BLACK
6
CONTINUOUS
10
64.8048
20
-123.626
11
64.9
21
-123.435
0
LINE
8
BLACK
6
CONTINUOUS
10
64.9
20
-123.435
11
64.9952
21
-123.15
0
LINE
8
BLACK
6
CONTINUOUS
10
64.9952
20
-123.15
11
65.0905
21
-122.673
0
LINE
8
BLACK
6
CONTINUOUS
10
65.0905
20
-122.673
11
65.0905
21
-122.292
0
LINE
8
BLACK
6
CONTINUOUS
10
65.0905
20
-122.292
11
64.9952
21
-121.816
0
LINE
8
BLACK
6
CONTINUOUS
10
64.9952
20
-121.816
11
64.9
21
-121.53
0
LINE
8
BLACK
6
CONTINUOUS
10
64.9
20
-121.53
11
64.8048
21
-121.34
0
LINE
8
BLACK
6
CONTINUOUS
10
64.8048
20
-121.34
11
64.6143
21
-121.054
0
LINE
8
BLACK
6
CONTINUOUS
10
64.6143
20
-121.054
11
64.519
21
-120.959
  0
ENDSEC
  0
EOF
