  0
SECTION
  2
HEADER
  9
$ANGBASE
  50
0.0
  9
$ANGDIR
  70
1
  9
$MEASUREMENT
  70
1
  0
ENDSEC
  0
SECTION
  2
TABLES
  0
TABLE
  2
LTYPE
  70
4
  0
LTYPE
  5
40F
  2
CONTINUOUS
  70
0
  3
Solid line
  72
65
  73
0
  40
0.0
  0
LTYPE
  5
410
  2
DASHDOT
 70
0
  3
Dash Dot ____ _ ____ _
 72
65
 73
4
 40
2.0
 49
1.25
 49
-0.25
 49
0.25
 49
-0.25
  0
LTYPE
  5
411
  2
DASHED
 70
0
  3
Dashed __ __ __ __ __
 72
65
 73
2
 40
0.75
 49
0.5
 49
-0.25
  0
LTYPE
  5
43B
  2
DOTTED
 70
0
  3
Dotted .  .  .  .
 72
65
 73
2
 40
0.2
 49
0.0
 49
-0.2
  0
ENDTAB
  0
TABLE
  2
STYLE
  70
4
  0
STYLE
  2
KICAD
  70
0
  40
0
  41
1
  42
1
  50
0
  71
0
  3
isocp.shx
  0
STYLE
  2
KICADB
  70
0
  40
0
  41
1
  42
1
  50
0
  71
0
  3
isocp.shx
  0
STYLE
  2
KICADI
  70
0
  40
0
  41
1
  42
1
  50
15
  71
0
  3
isocp.shx
  0
STYLE
  2
KICADBI
  70
0
  40
0
  41
1
  42
1
  50
15
  71
0
  3
isocp.shx
  0
ENDTAB
  0
TABLE
  2
LAYER
  70
1
  0
LAYER
  2
BLACK
  70
0
  62
7
  6
CONTINUOUS
  0
ENDTAB
  0
ENDSEC
  0
SECTION
  2
ENTITIES
0
ARC
8
BLACK
10
84.8787
20
-98.7713
40
1.45002
50
-179.999
51
-90
0
LINE
8
BLACK
6
CONTINUOUS
10
83.4287
20
-98.7713
11
83.4287
21
-94.5287
0
ARC
8
BLACK
10
66.8787
20
-94.5287
40
1.45
50
90
51
180
0
LINE
8
BLACK
6
CONTINUOUS
10
72.5713
20
-94.5287
11
72.5713
21
-98.7713
0
LINE
8
BLACK
6
CONTINUOUS
10
108.571
20
-94.5287
11
108.571
21
-98.7713
0
ARC
8
BLACK
10
71.1213
20
-94.5287
40
1.45
50
-0
51
90
0
ARC
8
BLACK
10
66.8787
20
-98.7713
40
1.45002
50
-179.999
51
-90
0
ARC
8
BLACK
10
89.1213
20
-98.7713
40
1.45
50
-90
51
-0.000790287
0
ARC
8
BLACK
10
107.121
20
-98.7713
40
1.45
50
-90
51
-0.000790287
0
LINE
8
BLACK
6
CONTINUOUS
10
122.65
20
-88.9
11
175.95
21
-88.9
0
LINE
8
BLACK
6
CONTINUOUS
10
175.95
20
-88.9
11
175.95
21
-103.8
0
LINE
8
BLACK
6
CONTINUOUS
10
175.95
20
-103.8
11
122.65
21
-103.8
0
LINE
8
BLACK
6
CONTINUOUS
10
122.65
20
-103.8
11
122.65
21
-88.9
0
ARC
8
BLACK
10
102.879
20
-94.5287
40
1.45
50
90
51
180
0
LINE
8
BLACK
6
CONTINUOUS
10
66.8787
20
-100.221
11
71.1213
21
-100.221
0
ARC
8
BLACK
10
107.121
20
-94.5287
40
1.45
50
-0
51
90
0
LINE
8
BLACK
6
CONTINUOUS
10
90.5713
20
-94.5287
11
90.5713
21
-98.7713
0
LINE
8
BLACK
6
CONTINUOUS
10
102.879
20
-100.221
11
107.121
21
-100.221
0
LINE
8
BLACK
6
CONTINUOUS
10
66.8787
20
-93.0787
11
71.1213
21
-93.0787
0
LINE
8
BLACK
6
CONTINUOUS
10
84.8787
20
-93.0787
11
89.1213
21
-93.0787
0
LINE
8
BLACK
6
CONTINUOUS
10
102.879
20
-93.0787
11
107.121
21
-93.0787
0
LINE
8
BLACK
6
CONTINUOUS
10
65.4287
20
-98.7713
11
65.4287
21
-94.5287
0
ARC
8
BLACK
10
84.8787
20
-94.5287
40
1.45
50
90
51
180
0
ARC
8
BLACK
10
71.1213
20
-98.7713
40
1.45
50
-90
51
-0.000790287
0
LINE
8
BLACK
6
CONTINUOUS
10
84.8787
20
-100.221
11
89.1213
21
-100.221
0
LINE
8
BLACK
6
CONTINUOUS
10
43.9
20
-97.6
11
53.9
21
-97.6
0
LINE
8
BLACK
6
CONTINUOUS
10
53.9
20
-97.6
11
53.9
21
-107.8
0
LINE
8
BLACK
6
CONTINUOUS
10
53.9
20
-107.8
11
43.9
21
-107.8
0
LINE
8
BLACK
6
CONTINUOUS
10
43.9
20
-107.8
11
43.9
21
-97.6
0
ARC
8
BLACK
10
89.1213
20
-94.5287
40
1.45
50
-0
51
90
0
LINE
8
BLACK
6
CONTINUOUS
10
101.429
20
-98.7713
11
101.429
21
-94.5287
0
ARC
8
BLACK
10
102.879
20
-98.7713
40
1.45002
50
-179.999
51
-90
0
LINE
8
BLACK
6
CONTINUOUS
10
19.3762
20
-116.405
11
19.3762
21
-114.405
0
LINE
8
BLACK
6
CONTINUOUS
10
19.3762
20
-114.405
11
19.8524
21
-114.405
0
LINE
8
BLACK
6
CONTINUOUS
10
19.8524
20
-114.405
11
20.1381
21
-114.5
0
LINE
8
BLACK
6
CONTINUOUS
10
20.1381
20
-114.5
11
20.3286
21
-114.69
0
LINE
8
BLACK
6
CONTINUOUS
10
20.3286
20
-114.69
11
20.4238
21
-114.881
0
LINE
8
BLACK
6
CONTINUOUS
10
20.4238
20
-114.881
11
20.519
21
-115.262
0
LINE
8
BLACK
6
CONTINUOUS
10
20.519
20
-115.262
11
20.519
21
-115.548
0
LINE
8
BLACK
6
CONTINUOUS
10
20.519
20
-115.548
11
20.4238
21
-115.929
0
LINE
8
BLACK
6
CONTINUOUS
10
20.4238
20
-115.929
11
20.3286
21
-116.119
0
LINE
8
BLACK
6
CONTINUOUS
10
20.3286
20
-116.119
11
20.1381
21
-116.31
0
LINE
8
BLACK
6
CONTINUOUS
10
20.1381
20
-116.31
11
19.8524
21
-116.405
0
LINE
8
BLACK
6
CONTINUOUS
10
19.8524
20
-116.405
11
19.3762
21
-116.405
0
LINE
8
BLACK
6
CONTINUOUS
10
21.3762
20
-116.405
11
21.3762
21
-115.071
0
LINE
8
BLACK
6
CONTINUOUS
10
21.3762
20
-115.452
11
21.4714
21
-115.262
0
LINE
8
BLACK
6
CONTINUOUS
10
21.4714
20
-115.262
11
21.5667
21
-115.167
0
LINE
8
BLACK
6
CONTINUOUS
10
21.5667
20
-115.167
11
21.7571
21
-115.071
0
LINE
8
BLACK
6
CONTINUOUS
10
21.7571
20
-115.071
11
21.9476
21
-115.071
0
LINE
8
BLACK
6
CONTINUOUS
10
22.6143
20
-116.405
11
22.6143
21
-115.071
0
LINE
8
BLACK
6
CONTINUOUS
10
22.6143
20
-114.405
11
22.519
21
-114.5
0
LINE
8
BLACK
6
CONTINUOUS
10
22.519
20
-114.5
11
22.6143
21
-114.595
0
LINE
8
BLACK
6
CONTINUOUS
10
22.6143
20
-114.595
11
22.7095
21
-114.5
0
LINE
8
BLACK
6
CONTINUOUS
10
22.7095
20
-114.5
11
22.6143
21
-114.405
0
LINE
8
BLACK
6
CONTINUOUS
10
22.6143
20
-114.405
11
22.6143
21
-114.595
0
LINE
8
BLACK
6
CONTINUOUS
10
23.8524
20
-116.405
11
23.6619
21
-116.31
0
LINE
8
BLACK
6
CONTINUOUS
10
23.6619
20
-116.31
11
23.5667
21
-116.119
0
LINE
8
BLACK
6
CONTINUOUS
10
23.5667
20
-116.119
11
23.5667
21
-114.405
0
LINE
8
BLACK
6
CONTINUOUS
10
24.9
20
-116.405
11
24.7095
21
-116.31
0
LINE
8
BLACK
6
CONTINUOUS
10
24.7095
20
-116.31
11
24.6143
21
-116.119
0
LINE
8
BLACK
6
CONTINUOUS
10
24.6143
20
-116.119
11
24.6143
21
-114.405
0
LINE
8
BLACK
6
CONTINUOUS
10
27.1857
20
-116.405
11
27.1857
21
-114.405
0
LINE
8
BLACK
6
CONTINUOUS
10
27.1857
20
-114.405
11
27.8524
21
-115.833
0
LINE
8
BLACK
6
CONTINUOUS
10
27.8524
20
-115.833
11
28.519
21
-114.405
0
LINE
8
BLACK
6
CONTINUOUS
10
28.519
20
-114.405
11
28.519
21
-116.405
0
LINE
8
BLACK
6
CONTINUOUS
10
30.3286
20
-116.405
11
30.3286
21
-115.357
0
LINE
8
BLACK
6
CONTINUOUS
10
30.3286
20
-115.357
11
30.2333
21
-115.167
0
LINE
8
BLACK
6
CONTINUOUS
10
30.2333
20
-115.167
11
30.0429
21
-115.071
0
LINE
8
BLACK
6
CONTINUOUS
10
30.0429
20
-115.071
11
29.6619
21
-115.071
0
LINE
8
BLACK
6
CONTINUOUS
10
29.6619
20
-115.071
11
29.4714
21
-115.167
0
LINE
8
BLACK
6
CONTINUOUS
10
30.3286
20
-116.31
11
30.1381
21
-116.405
0
LINE
8
BLACK
6
CONTINUOUS
10
30.1381
20
-116.405
11
29.6619
21
-116.405
0
LINE
8
BLACK
6
CONTINUOUS
10
29.6619
20
-116.405
11
29.4714
21
-116.31
0
LINE
8
BLACK
6
CONTINUOUS
10
29.4714
20
-116.31
11
29.3762
21
-116.119
0
LINE
8
BLACK
6
CONTINUOUS
10
29.3762
20
-116.119
11
29.3762
21
-115.929
0
LINE
8
BLACK
6
CONTINUOUS
10
29.3762
20
-115.929
11
29.4714
21
-115.738
0
LINE
8
BLACK
6
CONTINUOUS
10
29.4714
20
-115.738
11
29.6619
21
-115.643
0
LINE
8
BLACK
6
CONTINUOUS
10
29.6619
20
-115.643
11
30.1381
21
-115.643
0
LINE
8
BLACK
6
CONTINUOUS
10
30.1381
20
-115.643
11
30.3286
21
-115.548
0
LINE
8
BLACK
6
CONTINUOUS
10
31.281
20
-115.071
11
31.281
21
-117.071
0
LINE
8
BLACK
6
CONTINUOUS
10
31.281
20
-115.167
11
31.4714
21
-115.071
0
LINE
8
BLACK
6
CONTINUOUS
10
31.4714
20
-115.071
11
31.8524
21
-115.071
0
LINE
8
BLACK
6
CONTINUOUS
10
31.8524
20
-115.071
11
32.0429
21
-115.167
0
LINE
8
BLACK
6
CONTINUOUS
10
32.0429
20
-115.167
11
32.1381
21
-115.262
0
LINE
8
BLACK
6
CONTINUOUS
10
32.1381
20
-115.262
11
32.2333
21
-115.452
0
LINE
8
BLACK
6
CONTINUOUS
10
32.2333
20
-115.452
11
32.2333
21
-116.024
0
LINE
8
BLACK
6
CONTINUOUS
10
32.2333
20
-116.024
11
32.1381
21
-116.214
0
LINE
8
BLACK
6
CONTINUOUS
10
32.1381
20
-116.214
11
32.0429
21
-116.31
0
LINE
8
BLACK
6
CONTINUOUS
10
32.0429
20
-116.31
11
31.8524
21
-116.405
0
LINE
8
BLACK
6
CONTINUOUS
10
31.8524
20
-116.405
11
31.4714
21
-116.405
0
LINE
8
BLACK
6
CONTINUOUS
10
31.4714
20
-116.405
11
31.281
21
-116.31
0
LINE
8
BLACK
6
CONTINUOUS
10
33.0905
20
-116.214
11
33.1857
21
-116.31
0
LINE
8
BLACK
6
CONTINUOUS
10
33.1857
20
-116.31
11
33.0905
21
-116.405
0
LINE
8
BLACK
6
CONTINUOUS
10
33.0905
20
-116.405
11
32.9952
21
-116.31
0
LINE
8
BLACK
6
CONTINUOUS
10
32.9952
20
-116.31
11
33.0905
21
-116.214
0
LINE
8
BLACK
6
CONTINUOUS
10
33.0905
20
-116.214
11
33.0905
21
-116.405
0
LINE
8
BLACK
6
CONTINUOUS
10
33.0905
20
-115.167
11
33.1857
21
-115.262
0
LINE
8
BLACK
6
CONTINUOUS
10
33.1857
20
-115.262
11
33.0905
21
-115.357
0
LINE
8
BLACK
6
CONTINUOUS
10
33.0905
20
-115.357
11
32.9952
21
-115.262
0
LINE
8
BLACK
6
CONTINUOUS
10
32.9952
20
-115.262
11
33.0905
21
-115.167
0
LINE
8
BLACK
6
CONTINUOUS
10
33.0905
20
-115.167
11
33.0905
21
-115.357
  0
ENDSEC
  0
EOF
