0
SECTION
2
ENTITIES
0
LINE
8
Edge
62
2
10
20.3
20
-112.8
11
278.3
21
-112.8
0
LINE
8
Edge
62
2
10
17.3
20
-83.8
11
17.3
21
-109.8
0
LINE
8
Edge
62
2
10
281.3
20
-109.8
11
281.3
21
-83.8
0
LINE
8
Edge
62
2
10
278.3
20
-80.8
11
20.3
21
-80.8
0
ARC
8
Edge
62
2
10
17.3
20
-83.8
30
0
40
2.2961
50
64.499989
51
67.499989
0
ARC
8
Edge
62
2
10
281.3
20
-109.8
30
0
40
2.2961
50
-373.500011
51
-112.500011
0
ARC
8
Edge
62
2
10
278.3
20
-80.8
30
0
40
2.2961
50
-286.500011
51
-22.500011
0
ARC
8
Edge
62
2
10
20.3
20
-112.8
30
0
40
2.2961
50
157.499989
51
157.499989
0
ARC
8
Edge
62
2
10
84.8787
20
-100.22132
30
0
40
1.109788
50
74.071497
51
157.500197
0
LINE
8
Edge
62
2
10
83.4287
20
-98.77132
11
83.4287
21
-94.5287
0
ARC
8
Edge
62
2
10
65.4287
20
-94.5287
30
0
40
1.109782
50
0.621311
51
67.500011
0
LINE
8
Edge
62
2
10
72.5713
20
-94.5287
11
72.5713
21
-98.77132
0
LINE
8
Edge
62
2
10
108.5713
20
-94.5287
11
108.5713
21
-98.77132
0
ARC
8
Edge
62
2
10
71.1213
20
-93.0787
30
0
40
1.109782
50
-95.071289
51
-22.499989
0
ARC
8
Edge
62
2
10
66.8787
20
-100.22132
30
0
40
1.109788
50
92.071497
51
157.500197
0
ARC
8
Edge
62
2
10
90.5713
20
-98.77132
30
0
40
1.109773
50
-201.621879
51
-112.500579
0
ARC
8
Edge
62
2
10
108.5713
20
-98.77132
30
0
40
1.109773
50
-219.621879
51
-112.500579
0
ARC
8
Edge
62
2
10
101.4287
20
-94.5287
30
0
40
1.109782
50
-35.378689
51
67.500011
0
LINE
8
Edge
62
2
10
66.8787
20
-100.22132
11
71.1213
21
-100.22132
0
ARC
8
Edge
62
2
10
107.1213
20
-93.0787
30
0
40
1.109782
50
-131.071289
51
-22.499989
0
LINE
8
Edge
62
2
10
90.5713
20
-94.5287
11
90.5713
21
-98.77132
0
LINE
8
Edge
62
2
10
102.8787
20
-100.22132
11
107.1213
21
-100.22132
0
LINE
8
Edge
62
2
10
66.8787
20
-93.0787
11
71.1213
21
-93.0787
0
LINE
8
Edge
62
2
10
84.8787
20
-93.0787
11
89.1213
21
-93.0787
0
LINE
8
Edge
62
2
10
102.8787
20
-93.0787
11
107.1213
21
-93.0787
0
LINE
8
Edge
62
2
10
65.4287
20
-98.77132
11
65.4287
21
-94.5287
0
ARC
8
Edge
62
2
10
83.4287
20
-94.5287
30
0
40
1.109782
50
-17.378689
51
67.500011
0
ARC
8
Edge
62
2
10
72.5713
20
-98.77132
30
0
40
1.109773
50
-183.621879
51
-112.500579
0
LINE
8
Edge
62
2
10
84.8787
20
-100.22132
11
89.1213
21
-100.22132
0
ARC
8
Edge
62
2
10
89.1213
20
-93.0787
30
0
40
1.109782
50
-113.071289
51
-22.499989
0
LINE
8
Edge
62
2
10
101.4287
20
-98.77132
11
101.4287
21
-94.5287
0
ARC
8
Edge
62
2
10
102.8787
20
-100.22132
30
0
40
1.109788
50
56.071497
51
157.500197
0
ENDSEC
0
EOF
