<?xml version="1.0" encoding="UTF-8" standalone="no"?>
<!-- Created with Inkscape (http://www.inkscape.org/) -->

<svg
   version="1.1"
   id="svg9"
   width="264.34979mm"
   height="32.350075mm"
   viewBox="0 0 999.11733 122.268"
   sodipodi:docname="Cis-decoupe.ai"
   xmlns:inkscape="http://www.inkscape.org/namespaces/inkscape"
   xmlns:sodipodi="http://sodipodi.sourceforge.net/DTD/sodipodi-0.dtd"
   xmlns="http://www.w3.org/2000/svg"
   xmlns:svg="http://www.w3.org/2000/svg">
  <defs
     id="defs13">
    <clipPath
       clipPathUnits="userSpaceOnUse"
       id="clipPath25">
      <path
         d="M 0,112 H 763 V 0 H 0 Z"
         id="path23" />
    </clipPath>
  </defs>
  <sodipodi:namedview
     id="namedview11"
     pagecolor="#ffffff"
     bordercolor="#666666"
     borderopacity="1.0"
     inkscape:showpageshadow="2"
     inkscape:pageopacity="0.0"
     inkscape:pagecheckerboard="0"
     inkscape:deskcolor="#d1d1d1"
     showgrid="false"
     showguides="false"
     inkscape:document-units="mm" />
  <g
     id="g17"
     inkscape:groupmode="layer"
     inkscape:label="Page 1"
     transform="matrix(1.3333333,0,0,-1.3333333,-6.0052,128.6608)">
    <g
       id="g19">
      <g
         id="g21"
         clip-path="url(#clipPath25)"
         inkscape:export-filename="CIS-decoupe.svg"
         inkscape:export-xdpi="300"
         inkscape:export-ydpi="300">
        <g
           id="g27"
           transform="translate(676.6774,81.2892)">
          <path
             d="m 0,0 h -26.347 c -0.391,0 -0.709,-0.317 -0.709,-0.708 v -26.915 c 0,-0.391 0.318,-0.708 0.709,-0.708 H 0 c 0.392,0 0.709,0.317 0.709,0.708 V -0.708 C 0.709,-0.317 0.392,0 0,0"
             style="fill:#cc6566;fill-opacity:1;fill-rule:nonzero;stroke:none"
             id="path29" />
        </g>
        <g
           id="g31"
           transform="translate(258.8083,64.2946)">
          <path
             d="m 0,0 h -8.768 c -1.042,0 -2.021,0.405 -2.757,1.142 l -8.253,8.253 c -0.279,0.277 -0.73,0.277 -1.008,0 -0.278,-0.278 -0.278,-0.73 0,-1.008 l 8.253,-8.253 c 1.005,-1.005 2.343,-1.558 3.765,-1.558 H 0 c 3.746,0 6.793,-3.049 6.793,-6.796 v -13.752 c 0,-1.952 -1.587,-3.539 -3.538,-3.539 h -17.008 c -1.952,0 -3.539,1.587 -3.539,3.539 v 12.645 c 0,1.423 -0.554,2.76 -1.56,3.765 L -33.809,9.395 c -0.269,0.268 -0.738,0.268 -1.007,0 -0.278,-0.278 -0.278,-0.73 0,-1.008 l 14.957,-14.956 c 0.736,-0.737 1.142,-1.716 1.142,-2.758 v -12.645 c 0,-2.738 2.227,-4.965 4.964,-4.965 H 3.255 c 2.737,0 4.963,2.227 4.963,4.965 V -8.22 C 8.218,-3.688 4.532,0 0,0"
             style="fill:#cc6566;fill-opacity:1;fill-rule:nonzero;stroke:none"
             id="path33" />
        </g>
        <g
           id="g35"
           transform="translate(519.3981,43.5656)">
          <path
             d="m 0,0 c -0.736,0.736 -1.142,1.716 -1.142,2.758 v 12.645 c 0,2.738 -2.227,4.965 -4.964,4.965 h -17.008 c -2.737,0 -4.964,-2.227 -4.964,-4.965 V 1.65 c 0,-4.532 3.687,-8.219 8.219,-8.219 h 8.767 c 1.042,0 2.022,-0.406 2.758,-1.142 l 8.253,-8.253 c 0.277,-0.277 0.73,-0.277 1.008,0 0.277,0.278 0.277,0.73 0,1.008 l -8.253,8.253 c -1.005,1.005 -2.343,1.558 -3.766,1.558 h -8.767 c -3.746,0 -6.793,3.048 -6.793,6.795 v 13.753 c 0,1.952 1.587,3.54 3.538,3.54 h 17.008 c 1.952,0 3.539,-1.588 3.539,-3.54 V 2.758 c 0,-1.423 0.553,-2.76 1.559,-3.766 l 14.957,-14.956 c 0.135,-0.135 0.314,-0.209 0.504,-0.209 0.191,0 0.369,0.074 0.504,0.209 0.277,0.278 0.277,0.73 0,1.008 z"
             style="fill:#cc6566;fill-opacity:1;fill-rule:nonzero;stroke:none"
             id="path37" />
        </g>
        <g
           id="g39"
           transform="translate(585.3786,28.6095)">
          <path
             d="m 0,0 -14.957,14.956 c -0.736,0.736 -1.142,1.716 -1.142,2.758 v 12.645 c 0,2.738 -2.227,4.965 -4.965,4.965 h -17.007 c -2.738,0 -4.964,-2.227 -4.964,-4.965 V 16.606 c 0,-4.532 3.687,-8.219 8.219,-8.219 h 8.767 c 1.042,0 2.022,-0.406 2.758,-1.142 l 8.253,-8.253 c 0.277,-0.277 0.73,-0.277 1.008,0 0.277,0.279 0.277,0.73 0,1.008 l -8.253,8.253 c -1.005,1.005 -2.343,1.559 -3.766,1.559 h -8.767 c -3.747,0 -6.793,3.047 -6.793,6.794 v 13.753 c 0,1.952 1.586,3.54 3.538,3.54 h 17.007 c 1.953,0 3.54,-1.588 3.54,-3.54 V 17.714 c 0,-1.423 0.553,-2.76 1.559,-3.766 L -1.008,-1.008 c 0.135,-0.135 0.314,-0.209 0.504,-0.209 0.19,0 0.369,0.074 0.504,0.209 0.277,0.279 0.277,0.73 0,1.008"
             style="fill:#cc6566;fill-opacity:1;fill-rule:nonzero;stroke:none"
             id="path41" />
        </g>
        <g
           id="g43"
           transform="translate(453.1291,29.7448)">
          <path
             d="m 0,0 h -147.912 c -0.779,0 -1.417,0.638 -1.417,1.417 v 39.062 c 0,0.779 0.638,1.417 1.417,1.417 H 0 c 0.78,0 1.417,-0.638 1.417,-1.417 V 1.417 C 1.417,0.638 0.78,0 0,0 Z"
             style="fill:none;stroke:#cc6566;stroke-width:0.992;stroke-linecap:round;stroke-linejoin:round;stroke-miterlimit:10;stroke-dasharray:none;stroke-opacity:1"
             id="path45" />
        </g>
        <g
           id="g47"
           transform="translate(13.5039,95.9996)">
          <path
             d="m 0,0 h 731.339 c 4.677,0 8.503,-3.827 8.503,-8.504 v -73.701 c 0,-4.677 -3.826,-8.504 -8.503,-8.504 H 0 c -4.677,0 -8.504,3.827 -8.504,8.504 V -8.504 C -8.504,-3.827 -4.677,0 0,0 Z"
             style="fill:none;stroke:#39a9e0;stroke-width:0.992;stroke-linecap:round;stroke-linejoin:round;stroke-miterlimit:10;stroke-dasharray:none;stroke-opacity:1"
             id="path49" />
        </g>
      </g>
    </g>
  </g>
</svg>
