  0
SECTION
  2
HEADER
  9
$ACADVER
  1
AC1024
  9
$ACADMAINTVER
 70
     6
  9
$DWGCODEPAGE
  3
ANSI_1252
  9
$INSBASE
 10
0.0
 20
0.0
 30
0.0
  9
$EXTMIN
 10
1.000000000000000E+20
 20
1.000000000000000E+20
 30
1.000000000000000E+20
  9
$EXTMAX
 10
-1.000000000000000E+20
 20
-1.000000000000000E+20
 30
-1.000000000000000E+20
  9
$LIMMIN
 10
0.0
 20
0.0
  9
$LIMMAX
 10
12.0
 20
9.0
  9
$ORTHOMODE
 70
     0
  9
$REGENMODE
 70
     1
  9
$FILLMODE
 70
     1
  9
$QTEXTMODE
 70
     0
  9
$MIRRTEXT
 70
     1
  9
$LTSCALE
 40
1.0
  9
$ATTMODE
 70
     1
  9
$TEXTSIZE
 40
0.2
  9
$TRACEWID
 40
0.05
  9
$TEXTSTYLE
  7
Standard
  9
$CLAYER
  8
0
  9
$CELTYPE
  6
ByLayer
  9
$CECOLOR
 62
   256
  9
$CELTSCALE
 40
1.0
  9
$DISPSILH
 70
     0
  9
$DIMSCALE
 40
1.0
  9
$DIMASZ
 40
0.18
  9
$DIMEXO
 40
0.0625
  9
$DIMDLI
 40
0.38
  9
$DIMRND
 40
0.0
  9
$DIMDLE
 40
0.0
  9
$DIMEXE
 40
0.18
  9
$DIMTP
 40
0.0
  9
$DIMTM
 40
0.0
  9
$DIMTXT
 40
0.18
  9
$DIMCEN
 40
0.09
  9
$DIMTSZ
 40
0.0
  9
$DIMTOL
 70
     0
  9
$DIMLIM
 70
     0
  9
$DIMTIH
 70
     1
  9
$DIMTOH
 70
     1
  9
$DIMSE1
 70
     0
  9
$DIMSE2
 70
     0
  9
$DIMTAD
 70
     0
  9
$DIMZIN
 70
     0
  9
$DIMBLK
  1

  9
$DIMASO
 70
     1
  9
$DIMSHO
 70
     1
  9
$DIMPOST
  1

  9
$DIMAPOST
  1

  9
$DIMALT
 70
     0
  9
$DIMALTD
 70
     2
  9
$DIMALTF
 40
25.4
  9
$DIMLFAC
 40
1.0
  9
$DIMTOFL
 70
     0
  9
$DIMTVP
 40
0.0
  9
$DIMTIX
 70
     0
  9
$DIMSOXD
 70
     0
  9
$DIMSAH
 70
     0
  9
$DIMBLK1
  1

  9
$DIMBLK2
  1

  9
$DIMSTYLE
  2
Standard
  9
$DIMCLRD
 70
     0
  9
$DIMCLRE
 70
     0
  9
$DIMCLRT
 70
     0
  9
$DIMTFAC
 40
1.0
  9
$DIMGAP
 40
0.09
  9
$DIMJUST
 70
     0
  9
$DIMSD1
 70
     0
  9
$DIMSD2
 70
     0
  9
$DIMTOLJ
 70
     1
  9
$DIMTZIN
 70
     0
  9
$DIMALTZ
 70
     0
  9
$DIMALTTZ
 70
     0
  9
$DIMUPT
 70
     0
  9
$DIMDEC
 70
     4
  9
$DIMTDEC
 70
     4
  9
$DIMALTU
 70
     2
  9
$DIMALTTD
 70
     2
  9
$DIMTXSTY
  7
Standard
  9
$DIMAUNIT
 70
     0
  9
$DIMADEC
 70
     0
  9
$DIMALTRND
 40
0.0
  9
$DIMAZIN
 70
     0
  9
$DIMDSEP
 70
    46
  9
$DIMATFIT
 70
     3
  9
$DIMFRAC
 70
     0
  9
$DIMLDRBLK
  1

  9
$DIMLUNIT
 70
     2
  9
$DIMLWD
 70
    -2
  9
$DIMLWE
 70
    -2
  9
$DIMTMOVE
 70
     0
  9
$DIMFXL
 40
1.0
  9
$DIMFXLON
 70
     0
  9
$DIMJOGANG
 40
0.7853981633974483
  9
$DIMTFILL
 70
     0
  9
$DIMTFILLCLR
 70
     0
  9
$DIMARCSYM
 70
     0
  9
$DIMLTYPE
  6

  9
$DIMLTEX1
  6

  9
$DIMLTEX2
  6

  9
$DIMTXTDIRECTION
 70
     0
  9
$LUNITS
 70
     2
  9
$LUPREC
 70
     4
  9
$SKETCHINC
 40
0.1
  9
$FILLETRAD
 40
0.5
  9
$AUNITS
 70
     0
  9
$AUPREC
 70
     0
  9
$MENU
  1
.
  9
$ELEVATION
 40
0.0
  9
$PELEVATION
 40
0.0
  9
$THICKNESS
 40
0.0
  9
$LIMCHECK
 70
     0
  9
$CHAMFERA
 40
0.5
  9
$CHAMFERB
 40
0.5
  9
$CHAMFERC
 40
1.0
  9
$CHAMFERD
 40
0.0
  9
$SKPOLY
 70
     0
  9
$TDCREATE
 40
2459984.437605174
  9
$TDUCREATE
 40
2459984.395938507
  9
$TDUPDATE
 40
2459984.437605463
  9
$TDUUPDATE
 40
2459984.395938796
  9
$TDINDWG
 40
0.0000000116
  9
$TDUSRTIMER
 40
0.0000000116
  9
$USRTIMER
 70
     1
  9
$ANGBASE
 50
0.0
  9
$ANGDIR
 70
     0
  9
$PDMODE
 70
     0
  9
$PDSIZE
 40
0.0
  9
$PLINEWID
 40
0.0
  9
$SPLFRAME
 70
     0
  9
$SPLINETYPE
 70
     6
  9
$SPLINESEGS
 70
     8
  9
$HANDSEED
  5
65
  9
$SURFTAB1
 70
     6
  9
$SURFTAB2
 70
     6
  9
$SURFTYPE
 70
     6
  9
$SURFU
 70
     6
  9
$SURFV
 70
     6
  9
$UCSBASE
  2

  9
$UCSNAME
  2

  9
$UCSORG
 10
0.0
 20
0.0
 30
0.0
  9
$UCSXDIR
 10
1.0
 20
0.0
 30
0.0
  9
$UCSYDIR
 10
0.0
 20
1.0
 30
0.0
  9
$UCSORTHOREF
  2

  9
$UCSORTHOVIEW
 70
     0
  9
$UCSORGTOP
 10
0.0
 20
0.0
 30
0.0
  9
$UCSORGBOTTOM
 10
0.0
 20
0.0
 30
0.0
  9
$UCSORGLEFT
 10
0.0
 20
0.0
 30
0.0
  9
$UCSORGRIGHT
 10
0.0
 20
0.0
 30
0.0
  9
$UCSORGFRONT
 10
0.0
 20
0.0
 30
0.0
  9
$UCSORGBACK
 10
0.0
 20
0.0
 30
0.0
  9
$PUCSBASE
  2

  9
$PUCSNAME
  2

  9
$PUCSORG
 10
0.0
 20
0.0
 30
0.0
  9
$PUCSXDIR
 10
1.0
 20
0.0
 30
0.0
  9
$PUCSYDIR
 10
0.0
 20
1.0
 30
0.0
  9
$PUCSORTHOREF
  2

  9
$PUCSORTHOVIEW
 70
     0
  9
$PUCSORGTOP
 10
0.0
 20
0.0
 30
0.0
  9
$PUCSORGBOTTOM
 10
0.0
 20
0.0
 30
0.0
  9
$PUCSORGLEFT
 10
0.0
 20
0.0
 30
0.0
  9
$PUCSORGRIGHT
 10
0.0
 20
0.0
 30
0.0
  9
$PUCSORGFRONT
 10
0.0
 20
0.0
 30
0.0
  9
$PUCSORGBACK
 10
0.0
 20
0.0
 30
0.0
  9
$USERI1
 70
     0
  9
$USERI2
 70
     0
  9
$USERI3
 70
     0
  9
$USERI4
 70
     0
  9
$USERI5
 70
     0
  9
$USERR1
 40
0.0
  9
$USERR2
 40
0.0
  9
$USERR3
 40
0.0
  9
$USERR4
 40
0.0
  9
$USERR5
 40
0.0
  9
$WORLDVIEW
 70
     1
  9
$SHADEDGE
 70
     3
  9
$SHADEDIF
 70
    70
  9
$TILEMODE
 70
     1
  9
$MAXACTVP
 70
    64
  9
$PINSBASE
 10
0.0
 20
0.0
 30
0.0
  9
$PLIMCHECK
 70
     0
  9
$PEXTMIN
 10
1.000000000000000E+20
 20
1.000000000000000E+20
 30
1.000000000000000E+20
  9
$PEXTMAX
 10
-1.000000000000000E+20
 20
-1.000000000000000E+20
 30
-1.000000000000000E+20
  9
$PLIMMIN
 10
0.0
 20
0.0
  9
$PLIMMAX
 10
12.0
 20
9.0
  9
$UNITMODE
 70
     0
  9
$VISRETAIN
 70
     1
  9
$PLINEGEN
 70
     0
  9
$PSLTSCALE
 70
     1
  9
$TREEDEPTH
 70
  3020
  9
$CMLSTYLE
  2
Standard
  9
$CMLJUST
 70
     0
  9
$CMLSCALE
 40
1.0
  9
$PROXYGRAPHICS
 70
     1
  9
$MEASUREMENT
 70
     0
  9
$CELWEIGHT
370
    -1
  9
$ENDCAPS
280
     0
  9
$JOINSTYLE
280
     0
  9
$LWDISPLAY
290
     1
  9
$INSUNITS
 70
     1
  9
$HYPERLINKBASE
  1

  9
$STYLESHEET
  1

  9
$XEDIT
290
     1
  9
$CEPSNTYPE
380
     0
  9
$PSTYLEMODE
290
     1
  9
$FINGERPRINTGUID
  2
{0244FD49-35F5-4D82-B037-532385DE96A0}
  9
$VERSIONGUID
  2
{FAEB1C32-E019-11D5-929B-00C0DF256EC4}
  9
$EXTNAMES
290
     1
  9
$PSVPSCALE
 40
0.0
  9
$OLESTARTUP
290
     0
  9
$SORTENTS
280
   127
  9
$INDEXCTL
280
     0
  9
$HIDETEXT
280
     1
  9
$XCLIPFRAME
280
     2
  9
$HALOGAP
280
     0
  9
$OBSCOLOR
 70
   257
  9
$OBSLTYPE
280
     0
  9
$INTERSECTIONDISPLAY
280
     0
  9
$INTERSECTIONCOLOR
 70
   257
  9
$DIMASSOC
280
     2
  9
$PROJECTNAME
  1

  9
$CAMERADISPLAY
290
     0
  9
$LENSLENGTH
 40
50.0
  9
$CAMERAHEIGHT
 40
0.0
  9
$STEPSPERSEC
 40
2.0
  9
$STEPSIZE
 40
6.0
  9
$3DDWFPREC
 40
2.0
  9
$PSOLWIDTH
 40
0.25
  9
$PSOLHEIGHT
 40
4.0
  9
$LOFTANG1
 40
1.570796326794897
  9
$LOFTANG2
 40
1.570796326794897
  9
$LOFTMAG1
 40
0.0
  9
$LOFTMAG2
 40
0.0
  9
$LOFTPARAM
 70
     7
  9
$LOFTNORMALS
280
     1
  9
$LATITUDE
 40
37.795
  9
$LONGITUDE
 40
-122.394
  9
$NORTHDIRECTION
 40
0.0
  9
$TIMEZONE
 70
 -8000
  9
$LIGHTGLYPHDISPLAY
280
     1
  9
$TILEMODELIGHTSYNCH
280
     1
  9
$CMATERIAL
347
3C
  9
$SOLIDHIST
280
     1
  9
$SHOWHIST
280
     1
  9
$DWFFRAME
280
     2
  9
$DGNFRAME
280
     2
  9
$REALWORLDSCALE
290
     1
  9
$INTERFERECOLOR
 62
   256
  9
$CSHADOW
280
     0
  9
$SHADOWPLANELOCATION
 40
0.0
  0
ENDSEC
  0
SECTION
  2
CLASSES
  0
CLASS
  1
ACDBDICTIONARYWDFLT
  2
AcDbDictionaryWithDefault
  3
ObjectDBX Classes
 90
        0
 91
        4
280
     0
281
     0
  0
CLASS
  1
VISUALSTYLE
  2
AcDbVisualStyle
  3
ObjectDBX Classes
 90
     4095
 91
        4
280
     0
281
     0
  0
CLASS
  1
MATERIAL
  2
AcDbMaterial
  3
ObjectDBX Classes
 90
     1153
 91
        4
280
     0
281
     0
  0
CLASS
  1
SUN
  2
AcDbSun
  3
SCENEOE
 90
     1024
 91
        4
280
     0
281
     0
  0
ENDSEC
  0
SECTION
  2
TABLES
  0
TABLE
  2
VPORT
  5
8
330
0
100
AcDbSymbolTable
 70
     1
  0
VPORT
  5
29
330
8
100
AcDbSymbolTableRecord
100
AcDbViewportTableRecord
  2
*Active
 70
     0
 10
0.0
 20
0.0
 11
1.0
 21
1.0
 12
0.0
 22
0.0
 13
0.0
 23
0.0
 14
0.5
 24
0.5
 15
0.5
 25
0.5
 16
0.0
 26
0.0
 36
1.0
 17
106.0097221957198
 27
-146.7555555188667
 37
0.0
 40
39.51111110123334
 41
6.812499999999999
 42
50.0
 43
0.0
 44
0.0
 50
0.0
 51
0.0
 71
     0
 72
   100
 73
     1
 74
     3
 75
     0
 76
     0
 77
     0
 78
     0
281
     0
 65
     1
110
0.0
120
0.0
130
0.0
111
1.0
121
0.0
131
0.0
112
0.0
122
1.0
132
0.0
 79
     0
146
0.0
 60
     3
 61
     5
292
     1
282
     1
141
0.0
142
0.0
 63
   250
361
3F
  0
ENDTAB
  0
TABLE
  2
LTYPE
  5
5
330
0
100
AcDbSymbolTable
 70
     1
  0
LTYPE
  5
14
330
5
100
AcDbSymbolTableRecord
100
AcDbLinetypeTableRecord
  2
ByBlock
 70
     0
  3

 72
    65
 73
     0
 40
0.0
  0
LTYPE
  5
15
330
5
100
AcDbSymbolTableRecord
100
AcDbLinetypeTableRecord
  2
ByLayer
 70
     0
  3

 72
    65
 73
     0
 40
0.0
  0
LTYPE
  5
16
330
5
100
AcDbSymbolTableRecord
100
AcDbLinetypeTableRecord
  2
Continuous
 70
     0
  3
Solid line
 72
    65
 73
     0
 40
0.0
  0
ENDTAB
  0
TABLE
  2
LAYER
  5
2
330
0
100
AcDbSymbolTable
 70
     2
  0
LAYER
  5
10
330
2
100
AcDbSymbolTableRecord
100
AcDbLayerTableRecord
  2
0
 70
     0
 62
     7
  6
Continuous
370
    -3
390
F
347
3E
  0
LAYER
  5
40
330
2
100
AcDbSymbolTableRecord
100
AcDbLayerTableRecord
  2
Calque 1
 70
     0
 62
     7
  6
Continuous
370
    -3
390
F
347
3E
  0
ENDTAB
  0
TABLE
  2
STYLE
  5
3
330
0
100
AcDbSymbolTable
 70
     1
  0
STYLE
  5
11
330
3
100
AcDbSymbolTableRecord
100
AcDbTextStyleTableRecord
  2
Standard
 70
     0
 40
0.0
 41
1.0
 50
0.0
 71
     0
 42
0.2
  3
txt
  4

  0
ENDTAB
  0
TABLE
  2
VIEW
  5
6
330
0
100
AcDbSymbolTable
 70
     0
  0
ENDTAB
  0
TABLE
  2
UCS
  5
7
330
0
100
AcDbSymbolTable
 70
     0
  0
ENDTAB
  0
TABLE
  2
APPID
  5
9
330
0
100
AcDbSymbolTable
 70
     1
  0
APPID
  5
12
330
9
100
AcDbSymbolTableRecord
100
AcDbRegAppTableRecord
  2
ACAD
 70
     0
  0
ENDTAB
  0
TABLE
  2
DIMSTYLE
  5
A
330
0
100
AcDbSymbolTable
 70
     1
100
AcDbDimStyleTable
  0
DIMSTYLE
105
27
330
A
100
AcDbSymbolTableRecord
100
AcDbDimStyleTableRecord
  2
Standard
 70
     0
178
     0
340
11
  0
ENDTAB
  0
TABLE
  2
BLOCK_RECORD
  5
1
330
0
100
AcDbSymbolTable
 70
     7
  0
BLOCK_RECORD
  5
1F
330
1
100
AcDbSymbolTableRecord
100
AcDbBlockTableRecord
  2
*Model_Space
340
22
 70
     0
280
     1
281
     0
  0
BLOCK_RECORD
  5
1B
330
1
100
AcDbSymbolTableRecord
100
AcDbBlockTableRecord
  2
*Paper_Space
340
1E
 70
     0
280
     1
281
     0
  0
BLOCK_RECORD
  5
23
330
1
100
AcDbSymbolTableRecord
100
AcDbBlockTableRecord
  2
*Paper_Space0
340
26
 70
     0
280
     1
281
     0
  0
BLOCK_RECORD
  5
41
330
1
100
AcDbSymbolTableRecord
100
AcDbBlockTableRecord
  2
block 2
340
0
102
{BLKREFS
331
42
102
}
 70
     0
280
     1
281
     0
  0
BLOCK_RECORD
  5
47
330
1
100
AcDbSymbolTableRecord
100
AcDbBlockTableRecord
  2
block 3
340
0
102
{BLKREFS
331
48
102
}
 70
     0
280
     1
281
     0
  0
BLOCK_RECORD
  5
4D
330
1
100
AcDbSymbolTableRecord
100
AcDbBlockTableRecord
  2
block 4
340
0
102
{BLKREFS
331
4E
102
}
 70
     0
280
     1
281
     0
  0
BLOCK_RECORD
  5
53
330
1
100
AcDbSymbolTableRecord
100
AcDbBlockTableRecord
  2
block 5
340
0
102
{BLKREFS
331
54
102
}
 70
     0
280
     1
281
     0
  0
BLOCK_RECORD
  5
59
330
1
100
AcDbSymbolTableRecord
100
AcDbBlockTableRecord
  2
block 6
340
0
102
{BLKREFS
331
5A
102
}
 70
     0
280
     1
281
     0
  0
BLOCK_RECORD
  5
5E
330
1
100
AcDbSymbolTableRecord
100
AcDbBlockTableRecord
  2
block 7
340
0
102
{BLKREFS
331
5F
102
}
 70
     0
280
     1
281
     0
  0
ENDTAB
  0
ENDSEC
  0
SECTION
  2
BLOCKS
  0
BLOCK
  5
20
330
1F
100
AcDbEntity
  8
0
100
AcDbBlockBegin
  2
*Model_Space
 70
     0
 10
0.0
 20
0.0
 30
0.0
  3
*Model_Space
  1

  0
ENDBLK
  5
21
330
1F
100
AcDbEntity
  8
0
100
AcDbBlockEnd
  0
BLOCK
  5
1C
330
1B
100
AcDbEntity
 67
     1
  8
0
100
AcDbBlockBegin
  2
*Paper_Space
 70
     0
 10
0.0
 20
0.0
 30
0.0
  3
*Paper_Space
  1

  0
ENDBLK
  5
1D
330
1B
100
AcDbEntity
 67
     1
  8
0
100
AcDbBlockEnd
  0
BLOCK
  5
24
330
23
100
AcDbEntity
  8
0
100
AcDbBlockBegin
  2
*Paper_Space0
 70
     0
 10
0.0
 20
0.0
 30
0.0
  3
*Paper_Space0
  1

  0
ENDBLK
  5
25
330
23
100
AcDbEntity
  8
0
100
AcDbBlockEnd
  0
BLOCK
  5
43
330
41
100
AcDbEntity
  8
0
100
AcDbBlockBegin
  2
block 2
 70
     0
 10
0.0
 20
0.0
 30
0.0
  3
block 2
  1

  0
SPLINE
  5
45
330
41
100
AcDbEntity
  8
Calque 1
370
     0
100
AcDbSpline
210
0.0
220
0.0
230
1.0
 70
    11
 71
     3
 72
    29
 73
    25
 74
     0
 42
0.0000000001
 43
0.0000000001
 12
1.0
 22
0.0
 32
0.0
 13
1.0
 23
0.0
 33
0.0
 40
0.0
 40
0.0
 40
0.0
 40
0.0
 40
1.0
 40
1.0
 40
1.0
 40
2.0
 40
2.0
 40
2.0
 40
3.0
 40
3.0
 40
3.0
 40
4.0
 40
4.0
 40
4.0
 40
5.0
 40
5.0
 40
5.0
 40
6.0
 40
6.0
 40
6.0
 40
7.0
 40
7.0
 40
7.0
 40
8.0
 40
8.0
 40
8.0
 40
8.0
 10
210.1417434059763
 20
-137.8340929173029
 30
0.0
 10
210.1417434059763
 20
-137.8340929173029
 30
0.0
 10
200.8472133653217
 20
-137.8340929173029
 30
0.0
 10
200.8472133653217
 20
-137.8340929173029
 30
0.0
 10
200.7090655910684
 20
-137.8340929173029
 30
0.0
 10
200.5971292050352
 20
-137.9458881922286
 30
0.0
 10
200.5971292050352
 20
-138.0840359664819
 30
0.0
 10
200.5971292050352
 20
-138.0840359664819
 30
0.0
 10
200.5971292050352
 20
-147.5787321131409
 30
0.0
 10
200.5971292050352
 20
-147.5787321131409
 30
0.0
 10
200.5971292050352
 20
-147.7168749630703
 30
0.0
 10
200.7090655910684
 20
-147.8286751623199
 30
0.0
 10
200.8472133653217
 20
-147.8286751623199
 30
0.0
 10
200.8472133653217
 20
-147.8286751623199
 30
0.0
 10
210.1417434059763
 20
-147.8286751623199
 30
0.0
 10
210.1417434059763
 20
-147.8286751623199
 30
0.0
 10
210.2798971696521
 20
-147.8286751623199
 30
0.0
 10
210.3918628440397
 20
-147.7168749630703
 30
0.0
 10
210.3918628440397
 20
-147.5787321131409
 30
0.0
 10
210.3918628440397
 20
-147.5787321131409
 30
0.0
 10
210.3918628440397
 20
-138.0840359664819
 30
0.0
 10
210.3918628440397
 20
-138.0840359664819
 30
0.0
 10
210.3918628440397
 20
-137.9458881922286
 30
0.0
 10
210.2798971696521
 20
-137.8340929173029
 30
0.0
 10
210.1417434059763
 20
-137.8340929173029
 30
0.0
  0
HATCH
  5
46
330
41
100
AcDbEntity
  8
Calque 1
 62
    13
420
 13395046
100
AcDbHatch
 10
0.0
 20
0.0
 30
0.0
210
0.0
220
0.0
230
1.0
  2
SOLID
 70
     1
 71
     0
 91
        1
 92
        1
 93
        1
 72
     4
 94
        3
 73
     0
 74
     1
 95
       29
 96
       25
 40
0.0
 40
0.0
 40
0.0
 40
0.0
 40
1.0
 40
1.0
 40
1.0
 40
2.0
 40
2.0
 40
2.0
 40
3.0
 40
3.0
 40
3.0
 40
4.0
 40
4.0
 40
4.0
 40
5.0
 40
5.0
 40
5.0
 40
6.0
 40
6.0
 40
6.0
 40
7.0
 40
7.0
 40
7.0
 40
8.0
 40
8.0
 40
8.0
 40
8.0
 10
210.1417434059763
 20
-137.8340929173029
 10
210.1417434059763
 20
-137.8340929173029
 10
200.8472133653217
 20
-137.8340929173029
 10
200.8472133653217
 20
-137.8340929173029
 10
200.7090655910684
 20
-137.8340929173029
 10
200.5971292050352
 20
-137.9458881922286
 10
200.5971292050352
 20
-138.0840359664819
 10
200.5971292050352
 20
-138.0840359664819
 10
200.5971292050352
 20
-147.5787321131409
 10
200.5971292050352
 20
-147.5787321131409
 10
200.5971292050352
 20
-147.7168749630703
 10
200.7090655910684
 20
-147.8286751623199
 10
200.8472133653217
 20
-147.8286751623199
 10
200.8472133653217
 20
-147.8286751623199
 10
210.1417434059763
 20
-147.8286751623199
 10
210.1417434059763
 20
-147.8286751623199
 10
210.2798971696521
 20
-147.8286751623199
 10
210.3918628440397
 20
-147.7168749630703
 10
210.3918628440397
 20
-147.5787321131409
 10
210.3918628440397
 20
-147.5787321131409
 10
210.3918628440397
 20
-138.0840359664819
 10
210.3918628440397
 20
-138.0840359664819
 10
210.3918628440397
 20
-137.9458881922286
 10
210.2798971696521
 20
-137.8340929173029
 10
210.1417434059763
 20
-137.8340929173029
 97
        0
 97
        0
 75
     2
 76
     1
 98
        0
  0
ENDBLK
  5
44
330
41
100
AcDbEntity
  8
0
100
AcDbBlockEnd
  0
BLOCK
  5
49
330
47
100
AcDbEntity
  8
0
100
AcDbBlockBegin
  2
block 3
 70
     0
 10
0.0
 20
0.0
 30
0.0
  3
block 3
  1

  0
SPLINE
  5
4B
330
47
100
AcDbEntity
  8
Calque 1
370
     0
100
AcDbSpline
210
0.0
220
0.0
230
1.0
 70
    11
 71
     3
 72
    83
 73
    79
 74
     0
 42
0.0000000001
 43
0.0000000001
 12
1.0
 22
0.0
 32
0.0
 13
1.0
 23
0.0
 33
0.0
 40
0.0
 40
0.0
 40
0.0
 40
0.0
 40
1.0
 40
1.0
 40
1.0
 40
2.0
 40
2.0
 40
2.0
 40
3.0
 40
3.0
 40
3.0
 40
4.0
 40
4.0
 40
4.0
 40
5.0
 40
5.0
 40
5.0
 40
6.0
 40
6.0
 40
6.0
 40
7.0
 40
7.0
 40
7.0
 40
8.0
 40
8.0
 40
8.0
 40
9.0
 40
9.0
 40
9.0
 40
10.0
 40
10.0
 40
10.0
 40
11.0
 40
11.0
 40
11.0
 40
12.0
 40
12.0
 40
12.0
 40
13.0
 40
13.0
 40
13.0
 40
14.0
 40
14.0
 40
14.0
 40
15.0
 40
15.0
 40
15.0
 40
16.0
 40
16.0
 40
16.0
 40
17.0
 40
17.0
 40
17.0
 40
18.0
 40
18.0
 40
18.0
 40
19.0
 40
19.0
 40
19.0
 40
20.0
 40
20.0
 40
20.0
 40
21.0
 40
21.0
 40
21.0
 40
22.0
 40
22.0
 40
22.0
 40
23.0
 40
23.0
 40
23.0
 40
24.0
 40
24.0
 40
24.0
 40
25.0
 40
25.0
 40
25.0
 40
26.0
 40
26.0
 40
26.0
 40
26.0
 10
62.72681466684443
 20
-143.8294099865719
 30
0.0
 10
62.72681466684443
 20
-143.8294099865719
 30
0.0
 10
59.63380030130936
 20
-143.8294099865719
 30
0.0
 10
59.63380030130936
 20
-143.8294099865719
 30
0.0
 10
59.26620586624303
 20
-143.8294099865719
 30
0.0
 10
58.9206600417253
 20
-143.6864644346632
 30
0.0
 10
58.66090977057431
 20
-143.4266788857353
 30
0.0
 10
58.66090977057431
 20
-143.4266788857353
 30
0.0
 10
55.74947220828476
 20
-140.5150628489057
 30
0.0
 10
55.74947220828476
 20
-140.5150628489057
 30
0.0
 10
55.65125679180139
 20
-140.4172375736237
 30
0.0
 10
55.49211874030578
 20
-140.4172375736237
 30
0.0
 10
55.39394068725496
 20
-140.5150628489057
 30
0.0
 10
55.29590374531165
 20
-140.613099790849
 30
0.0
 10
55.29590374531165
 20
-140.7725906201134
 30
0.0
 10
55.39394068725496
 20
-140.8705922842798
 30
0.0
 10
55.39394068725496
 20
-140.8705922842798
 30
0.0
 10
58.30538033520017
 20
-143.7822435988863
 30
0.0
 10
58.30538033520017
 20
-143.7822435988863
 30
0.0
 10
58.66006310392924
 20
-144.1367147009541
 30
0.0
 10
59.13186809189249
 20
-144.3319066404188
 30
0.0
 10
59.63380030130936
 20
-144.3319066404188
 30
0.0
 10
59.63380030130936
 20
-144.3319066404188
 30
0.0
 10
62.72681466684443
 20
-144.3319066404188
 30
0.0
 10
62.72681466684443
 20
-144.3319066404188
 30
0.0
 10
64.04835546646244
 20
-144.3319066404188
 30
0.0
 10
65.12337516125864
 20
-145.4072791129838
 30
0.0
 10
65.12337516125864
 20
-146.7291726903705
 30
0.0
 10
65.12337516125864
 20
-146.7291726903705
 30
0.0
 10
65.12337516125864
 20
-151.5807136777085
 30
0.0
 10
65.12337516125864
 20
-151.5807136777085
 30
0.0
 10
65.12337516125864
 20
-152.2694064379163
 30
0.0
 10
64.56337573110096
 20
-152.8292294791896
 30
0.0
 10
63.87507102643885
 20
-152.8292294791896
 30
0.0
 10
63.87507102643885
 20
-152.8292294791896
 30
0.0
 10
57.87509729062205
 20
-152.8292294791896
 30
0.0
 10
57.87509729062205
 20
-152.8292294791896
 30
0.0
 10
57.18658091929868
 20
-152.8292294791896
 30
0.0
 10
56.62640510025662
 20
-152.2694064379163
 30
0.0
 10
56.62640510025662
 20
-151.5807136777085
 30
0.0
 10
56.62640510025662
 20
-151.5807136777085
 30
0.0
 10
56.62640510025662
 20
-147.119838791515
 30
0.0
 10
56.62640510025662
 20
-147.119838791515
 30
0.0
 10
56.62640510025662
 20
-146.6178713043212
 30
0.0
 10
56.43107204968442
 20
-146.1462427052423
 30
0.0
 10
56.07638928095536
 20
-145.7914138524407
 30
0.0
 10
56.07638928095536
 20
-145.7914138524407
 30
0.0
 10
50.79989219334779
 20
-140.5150628489057
 30
0.0
 10
50.79989219334779
 20
-140.5150628489057
 30
0.0
 10
50.70481858466221
 20
-140.4203420179889
 30
0.0
 10
50.53943636665924
 20
-140.4203420179889
 30
0.0
 10
50.44436275797366
 20
-140.5150628489057
 30
0.0
 10
50.34636109380723
 20
-140.613099790849
 30
0.0
 10
50.34636109380723
 20
-140.7725906201134
 30
0.0
 10
50.44436275797366
 20
-140.8705922842798
 30
0.0
 10
50.44436275797366
 20
-140.8705922842798
 30
0.0
 10
55.72085984558122
 20
-146.1469482607799
 30
0.0
 10
55.72085984558122
 20
-146.1469482607799
 30
0.0
 10
55.98061011673222
 20
-146.4066985319309
 30
0.0
 10
56.12376943041363
 20
-146.7522443564486
 30
0.0
 10
56.12376943041363
 20
-147.119838791515
 30
0.0
 10
56.12376943041363
 20
-147.119838791515
 30
0.0
 10
56.12376943041363
 20
-151.5807136777085
 30
0.0
 10
56.12376943041363
 20
-151.5807136777085
 30
0.0
 10
56.12376943041363
 20
-152.5463722641836
 30
0.0
 10
56.90943870414694
 20
-153.3322200219128
 30
0.0
 10
57.87509729062205
 20
-153.3322200219128
 30
0.0
 10
57.87509729062205
 20
-153.3322200219128
 30
0.0
 10
63.87507102643885
 20
-153.3322200219128
 30
0.0
 10
63.87507102643885
 20
-153.3322200219128
 30
0.0
 10
64.84055553934549
 20
-153.3322200219128
 30
0.0
 10
65.62604820398992
 20
-152.5463722641836
 30
0.0
 10
65.62604820398992
 20
-151.5807136777085
 30
0.0
 10
65.62604820398992
 20
-151.5807136777085
 30
0.0
 10
65.62604820398992
 20
-146.7291726903705
 30
0.0
 10
65.62604820398992
 20
-146.7291726903705
 30
0.0
 10
65.62604820398992
 20
-145.1302780089395
 30
0.0
 10
64.32549998391868
 20
-143.8294099865719
 30
0.0
 10
62.72681466684443
 20
-143.8294099865719
 30
0.0
  0
HATCH
  5
4C
330
47
100
AcDbEntity
  8
Calque 1
 62
    13
420
 13395046
100
AcDbHatch
 10
0.0
 20
0.0
 30
0.0
210
0.0
220
0.0
230
1.0
  2
SOLID
 70
     1
 71
     0
 91
        1
 92
        1
 93
        1
 72
     4
 94
        3
 73
     0
 74
     1
 95
       83
 96
       79
 40
0.0
 40
0.0
 40
0.0
 40
0.0
 40
1.0
 40
1.0
 40
1.0
 40
2.0
 40
2.0
 40
2.0
 40
3.0
 40
3.0
 40
3.0
 40
4.0
 40
4.0
 40
4.0
 40
5.0
 40
5.0
 40
5.0
 40
6.0
 40
6.0
 40
6.0
 40
7.0
 40
7.0
 40
7.0
 40
8.0
 40
8.0
 40
8.0
 40
9.0
 40
9.0
 40
9.0
 40
10.0
 40
10.0
 40
10.0
 40
11.0
 40
11.0
 40
11.0
 40
12.0
 40
12.0
 40
12.0
 40
13.0
 40
13.0
 40
13.0
 40
14.0
 40
14.0
 40
14.0
 40
15.0
 40
15.0
 40
15.0
 40
16.0
 40
16.0
 40
16.0
 40
17.0
 40
17.0
 40
17.0
 40
18.0
 40
18.0
 40
18.0
 40
19.0
 40
19.0
 40
19.0
 40
20.0
 40
20.0
 40
20.0
 40
21.0
 40
21.0
 40
21.0
 40
22.0
 40
22.0
 40
22.0
 40
23.0
 40
23.0
 40
23.0
 40
24.0
 40
24.0
 40
24.0
 40
25.0
 40
25.0
 40
25.0
 40
26.0
 40
26.0
 40
26.0
 40
26.0
 10
62.72681466684443
 20
-143.8294099865719
 10
62.72681466684443
 20
-143.8294099865719
 10
59.63380030130936
 20
-143.8294099865719
 10
59.63380030130936
 20
-143.8294099865719
 10
59.26620586624303
 20
-143.8294099865719
 10
58.9206600417253
 20
-143.6864644346632
 10
58.66090977057431
 20
-143.4266788857353
 10
58.66090977057431
 20
-143.4266788857353
 10
55.74947220828476
 20
-140.5150628489057
 10
55.74947220828476
 20
-140.5150628489057
 10
55.65125679180139
 20
-140.4172375736237
 10
55.49211874030578
 20
-140.4172375736237
 10
55.39394068725496
 20
-140.5150628489057
 10
55.29590374531165
 20
-140.613099790849
 10
55.29590374531165
 20
-140.7725906201134
 10
55.39394068725496
 20
-140.8705922842798
 10
55.39394068725496
 20
-140.8705922842798
 10
58.30538033520017
 20
-143.7822435988863
 10
58.30538033520017
 20
-143.7822435988863
 10
58.66006310392924
 20
-144.1367147009541
 10
59.13186809189249
 20
-144.3319066404188
 10
59.63380030130936
 20
-144.3319066404188
 10
59.63380030130936
 20
-144.3319066404188
 10
62.72681466684443
 20
-144.3319066404188
 10
62.72681466684443
 20
-144.3319066404188
 10
64.04835546646244
 20
-144.3319066404188
 10
65.12337516125864
 20
-145.4072791129838
 10
65.12337516125864
 20
-146.7291726903705
 10
65.12337516125864
 20
-146.7291726903705
 10
65.12337516125864
 20
-151.5807136777085
 10
65.12337516125864
 20
-151.5807136777085
 10
65.12337516125864
 20
-152.2694064379163
 10
64.56337573110096
 20
-152.8292294791896
 10
63.87507102643885
 20
-152.8292294791896
 10
63.87507102643885
 20
-152.8292294791896
 10
57.87509729062205
 20
-152.8292294791896
 10
57.87509729062205
 20
-152.8292294791896
 10
57.18658091929868
 20
-152.8292294791896
 10
56.62640510025662
 20
-152.2694064379163
 10
56.62640510025662
 20
-151.5807136777085
 10
56.62640510025662
 20
-151.5807136777085
 10
56.62640510025662
 20
-147.119838791515
 10
56.62640510025662
 20
-147.119838791515
 10
56.62640510025662
 20
-146.6178713043212
 10
56.43107204968442
 20
-146.1462427052423
 10
56.07638928095536
 20
-145.7914138524407
 10
56.07638928095536
 20
-145.7914138524407
 10
50.79989219334779
 20
-140.5150628489057
 10
50.79989219334779
 20
-140.5150628489057
 10
50.70481858466221
 20
-140.4203420179889
 10
50.53943636665924
 20
-140.4203420179889
 10
50.44436275797366
 20
-140.5150628489057
 10
50.34636109380723
 20
-140.613099790849
 10
50.34636109380723
 20
-140.7725906201134
 10
50.44436275797366
 20
-140.8705922842798
 10
50.44436275797366
 20
-140.8705922842798
 10
55.72085984558122
 20
-146.1469482607799
 10
55.72085984558122
 20
-146.1469482607799
 10
55.98061011673222
 20
-146.4066985319309
 10
56.12376943041363
 20
-146.7522443564486
 10
56.12376943041363
 20
-147.119838791515
 10
56.12376943041363
 20
-147.119838791515
 10
56.12376943041363
 20
-151.5807136777085
 10
56.12376943041363
 20
-151.5807136777085
 10
56.12376943041363
 20
-152.5463722641836
 10
56.90943870414694
 20
-153.3322200219128
 10
57.87509729062205
 20
-153.3322200219128
 10
57.87509729062205
 20
-153.3322200219128
 10
63.87507102643885
 20
-153.3322200219128
 10
63.87507102643885
 20
-153.3322200219128
 10
64.84055553934549
 20
-153.3322200219128
 10
65.62604820398992
 20
-152.5463722641836
 10
65.62604820398992
 20
-151.5807136777085
 10
65.62604820398992
 20
-151.5807136777085
 10
65.62604820398992
 20
-146.7291726903705
 10
65.62604820398992
 20
-146.7291726903705
 10
65.62604820398992
 20
-145.1302780089395
 10
64.32549998391868
 20
-143.8294099865719
 10
62.72681466684443
 20
-143.8294099865719
 97
        0
 97
        0
 75
     2
 76
     1
 98
        0
  0
ENDBLK
  5
4A
330
47
100
AcDbEntity
  8
0
100
AcDbBlockEnd
  0
BLOCK
  5
4F
330
4D
100
AcDbEntity
  8
0
100
AcDbBlockBegin
  2
block 4
 70
     0
 10
0.0
 20
0.0
 30
0.0
  3
block 4
  1

  0
SPLINE
  5
51
330
4D
100
AcDbEntity
  8
Calque 1
370
     0
100
AcDbSpline
210
0.0
220
0.0
230
1.0
 70
    11
 71
     3
 72
    86
 73
    82
 74
     0
 42
0.0000000001
 43
0.0000000001
 12
1.0
 22
0.0
 32
0.0
 13
1.0
 23
0.0
 33
0.0
 40
0.0
 40
0.0
 40
0.0
 40
0.0
 40
1.0
 40
1.0
 40
1.0
 40
2.0
 40
2.0
 40
2.0
 40
3.0
 40
3.0
 40
3.0
 40
4.0
 40
4.0
 40
4.0
 40
5.0
 40
5.0
 40
5.0
 40
6.0
 40
6.0
 40
6.0
 40
7.0
 40
7.0
 40
7.0
 40
8.0
 40
8.0
 40
8.0
 40
9.0
 40
9.0
 40
9.0
 40
10.0
 40
10.0
 40
10.0
 40
11.0
 40
11.0
 40
11.0
 40
12.0
 40
12.0
 40
12.0
 40
13.0
 40
13.0
 40
13.0
 40
14.0
 40
14.0
 40
14.0
 40
15.0
 40
15.0
 40
15.0
 40
16.0
 40
16.0
 40
16.0
 40
17.0
 40
17.0
 40
17.0
 40
18.0
 40
18.0
 40
18.0
 40
19.0
 40
19.0
 40
19.0
 40
20.0
 40
20.0
 40
20.0
 40
21.0
 40
21.0
 40
21.0
 40
22.0
 40
22.0
 40
22.0
 40
23.0
 40
23.0
 40
23.0
 40
24.0
 40
24.0
 40
24.0
 40
25.0
 40
25.0
 40
25.0
 40
26.0
 40
26.0
 40
26.0
 40
27.0
 40
27.0
 40
27.0
 40
27.0
 10
154.6571028770629
 20
-151.1421403555642
 30
0.0
 10
154.3973526059119
 20
-150.8823900844131
 30
0.0
 10
154.2543717762263
 20
-150.5368442598954
 30
0.0
 10
154.2543717762263
 20
-150.1692498248291
 30
0.0
 10
154.2543717762263
 20
-150.1692498248291
 30
0.0
 10
154.2543717762263
 20
-145.7081985497511
 30
0.0
 10
154.2543717762263
 20
-145.7081985497511
 30
0.0
 10
154.2543717762263
 20
-144.742539963276
 30
0.0
 10
153.4685638505219
 20
-143.9569038722081
 30
0.0
 10
152.502900709799
 20
-143.9569038722081
 30
0.0
 10
152.502900709799
 20
-143.9569038722081
 30
0.0
 10
146.5029269739822
 20
-143.9569038722081
 30
0.0
 10
146.5029269739822
 20
-143.9569038722081
 30
0.0
 10
145.5372683875071
 20
-143.9569038722081
 30
0.0
 10
144.7517777415897
 20
-144.742539963276
 30
0.0
 10
144.7517777415897
 20
-145.7081985497511
 30
0.0
 10
144.7517777415897
 20
-145.7081985497511
 30
0.0
 10
144.7517777415897
 20
-150.5599512037504
 30
0.0
 10
144.7517777415897
 20
-150.5599512037504
 30
0.0
 10
144.7517777415897
 20
-152.1588106074045
 30
0.0
 10
146.0526414299144
 20
-153.4596786297722
 30
0.0
 10
147.6511833335766
 20
-153.4596786297722
 30
0.0
 10
147.6511833335766
 20
-153.4596786297722
 30
0.0
 10
150.7441624213348
 20
-153.4596786297722
 30
0.0
 10
150.7441624213348
 20
-153.4596786297722
 30
0.0
 10
151.1117568564011
 20
-153.4596786297722
 30
0.0
 10
151.4573026809189
 20
-153.6026594594578
 30
0.0
 10
151.7170529520698
 20
-153.8624097306087
 30
0.0
 10
151.7170529520698
 20
-153.8624097306087
 30
0.0
 10
154.628527877792
 20
-156.7738493785539
 30
0.0
 10
154.628527877792
 20
-156.7738493785539
 30
0.0
 10
154.726353153074
 20
-156.8717099316129
 30
0.0
 10
154.8861967601072
 20
-156.8717099316129
 30
0.0
 10
154.9840573131661
 20
-156.7738493785539
 30
0.0
 10
155.0818825884481
 20
-156.6756666274974
 30
0.0
 10
155.0818825884481
 20
-156.5164979962306
 30
0.0
 10
154.9840573131661
 20
-156.4183199431798
 30
0.0
 10
154.9840573131661
 20
-156.4183199431798
 30
0.0
 10
152.0726221842041
 20
-153.5068802952346
 30
0.0
 10
152.0726221842041
 20
-153.5068802952346
 30
0.0
 10
151.7181112853762
 20
-153.1523739153899
 30
0.0
 10
151.2461299085286
 20
-152.9570360728711
 30
0.0
 10
150.7441624213348
 20
-152.9570360728711
 30
0.0
 10
150.7441624213348
 20
-152.9570360728711
 30
0.0
 10
147.6511833335766
 20
-152.9570360728711
 30
0.0
 10
147.6511833335766
 20
-152.9570360728711
 30
0.0
 10
146.3296425339586
 20
-152.9570360728711
 30
0.0
 10
145.2547639502699
 20
-151.8818095033603
 30
0.0
 10
145.2547639502699
 20
-150.5599512037504
 30
0.0
 10
145.2547639502699
 20
-150.5599512037504
 30
0.0
 10
145.2547639502699
 20
-145.7081985497511
 30
0.0
 10
145.2547639502699
 20
-145.7081985497511
 30
0.0
 10
145.2547639502699
 20
-145.0197174562046
 30
0.0
 10
145.8145869915432
 20
-144.4595416371625
 30
0.0
 10
146.5029269739822
 20
-144.4595416371625
 30
0.0
 10
146.5029269739822
 20
-144.4595416371625
 30
0.0
 10
152.502900709799
 20
-144.4595416371625
 30
0.0
 10
152.502900709799
 20
-144.4595416371625
 30
0.0
 10
153.1915581922299
 20
-144.4595416371625
 30
0.0
 10
153.7513812335032
 20
-145.0197174562046
 30
0.0
 10
153.7513812335032
 20
-145.7081985497511
 30
0.0
 10
153.7513812335032
 20
-145.7081985497511
 30
0.0
 10
153.7513812335032
 20
-150.1692498248291
 30
0.0
 10
153.7513812335032
 20
-150.1692498248291
 30
0.0
 10
153.7513812335032
 20
-150.6712173120228
 30
0.0
 10
153.9467495618522
 20
-151.1428459111017
 30
0.0
 10
154.3015734416888
 20
-151.4977050687152
 30
0.0
 10
154.3015734416888
 20
-151.4977050687152
 30
0.0
 10
159.5781058070733
 20
-156.7738493785539
 30
0.0
 10
159.5781058070733
 20
-156.7738493785539
 30
0.0
 10
159.6256249725276
 20
-156.8214038217852
 30
0.0
 10
159.6886663598082
 20
-156.8475799322285
 30
0.0
 10
159.7558705247603
 20
-156.8475799322285
 30
0.0
 10
159.8230394119356
 20
-156.8475799322285
 30
0.0
 10
159.8860807992162
 20
-156.8214038217852
 30
0.0
 10
159.9336352424474
 20
-156.7738493785539
 30
0.0
 10
160.0314605177294
 20
-156.6756666274974
 30
0.0
 10
160.0314605177294
 20
-156.5164979962306
 30
0.0
 10
159.9336352424474
 20
-156.4183199431798
 30
0.0
 10
159.9336352424474
 20
-156.4183199431798
 30
0.0
 10
154.6571028770629
 20
-151.1421403555642
 30
0.0
 10
154.6571028770629
 20
-151.1421403555642
 30
0.0
  0
HATCH
  5
52
330
4D
100
AcDbEntity
  8
Calque 1
 62
    13
420
 13395046
100
AcDbHatch
 10
0.0
 20
0.0
 30
0.0
210
0.0
220
0.0
230
1.0
  2
SOLID
 70
     1
 71
     0
 91
        1
 92
        1
 93
        1
 72
     4
 94
        3
 73
     0
 74
     1
 95
       86
 96
       82
 40
0.0
 40
0.0
 40
0.0
 40
0.0
 40
1.0
 40
1.0
 40
1.0
 40
2.0
 40
2.0
 40
2.0
 40
3.0
 40
3.0
 40
3.0
 40
4.0
 40
4.0
 40
4.0
 40
5.0
 40
5.0
 40
5.0
 40
6.0
 40
6.0
 40
6.0
 40
7.0
 40
7.0
 40
7.0
 40
8.0
 40
8.0
 40
8.0
 40
9.0
 40
9.0
 40
9.0
 40
10.0
 40
10.0
 40
10.0
 40
11.0
 40
11.0
 40
11.0
 40
12.0
 40
12.0
 40
12.0
 40
13.0
 40
13.0
 40
13.0
 40
14.0
 40
14.0
 40
14.0
 40
15.0
 40
15.0
 40
15.0
 40
16.0
 40
16.0
 40
16.0
 40
17.0
 40
17.0
 40
17.0
 40
18.0
 40
18.0
 40
18.0
 40
19.0
 40
19.0
 40
19.0
 40
20.0
 40
20.0
 40
20.0
 40
21.0
 40
21.0
 40
21.0
 40
22.0
 40
22.0
 40
22.0
 40
23.0
 40
23.0
 40
23.0
 40
24.0
 40
24.0
 40
24.0
 40
25.0
 40
25.0
 40
25.0
 40
26.0
 40
26.0
 40
26.0
 40
27.0
 40
27.0
 40
27.0
 40
27.0
 10
154.6571028770629
 20
-151.1421403555642
 10
154.3973526059119
 20
-150.8823900844131
 10
154.2543717762263
 20
-150.5368442598954
 10
154.2543717762263
 20
-150.1692498248291
 10
154.2543717762263
 20
-150.1692498248291
 10
154.2543717762263
 20
-145.7081985497511
 10
154.2543717762263
 20
-145.7081985497511
 10
154.2543717762263
 20
-144.742539963276
 10
153.4685638505219
 20
-143.9569038722081
 10
152.502900709799
 20
-143.9569038722081
 10
152.502900709799
 20
-143.9569038722081
 10
146.5029269739822
 20
-143.9569038722081
 10
146.5029269739822
 20
-143.9569038722081
 10
145.5372683875071
 20
-143.9569038722081
 10
144.7517777415897
 20
-144.742539963276
 10
144.7517777415897
 20
-145.7081985497511
 10
144.7517777415897
 20
-145.7081985497511
 10
144.7517777415897
 20
-150.5599512037504
 10
144.7517777415897
 20
-150.5599512037504
 10
144.7517777415897
 20
-152.1588106074045
 10
146.0526414299144
 20
-153.4596786297722
 10
147.6511833335766
 20
-153.4596786297722
 10
147.6511833335766
 20
-153.4596786297722
 10
150.7441624213348
 20
-153.4596786297722
 10
150.7441624213348
 20
-153.4596786297722
 10
151.1117568564011
 20
-153.4596786297722
 10
151.4573026809189
 20
-153.6026594594578
 10
151.7170529520698
 20
-153.8624097306087
 10
151.7170529520698
 20
-153.8624097306087
 10
154.628527877792
 20
-156.7738493785539
 10
154.628527877792
 20
-156.7738493785539
 10
154.726353153074
 20
-156.8717099316129
 10
154.8861967601072
 20
-156.8717099316129
 10
154.9840573131661
 20
-156.7738493785539
 10
155.0818825884481
 20
-156.6756666274974
 10
155.0818825884481
 20
-156.5164979962306
 10
154.9840573131661
 20
-156.4183199431798
 10
154.9840573131661
 20
-156.4183199431798
 10
152.0726221842041
 20
-153.5068802952346
 10
152.0726221842041
 20
-153.5068802952346
 10
151.7181112853762
 20
-153.1523739153899
 10
151.2461299085286
 20
-152.9570360728711
 10
150.7441624213348
 20
-152.9570360728711
 10
150.7441624213348
 20
-152.9570360728711
 10
147.6511833335766
 20
-152.9570360728711
 10
147.6511833335766
 20
-152.9570360728711
 10
146.3296425339586
 20
-152.9570360728711
 10
145.2547639502699
 20
-151.8818095033603
 10
145.2547639502699
 20
-150.5599512037504
 10
145.2547639502699
 20
-150.5599512037504
 10
145.2547639502699
 20
-145.7081985497511
 10
145.2547639502699
 20
-145.7081985497511
 10
145.2547639502699
 20
-145.0197174562046
 10
145.8145869915432
 20
-144.4595416371625
 10
146.5029269739822
 20
-144.4595416371625
 10
146.5029269739822
 20
-144.4595416371625
 10
152.502900709799
 20
-144.4595416371625
 10
152.502900709799
 20
-144.4595416371625
 10
153.1915581922299
 20
-144.4595416371625
 10
153.7513812335032
 20
-145.0197174562046
 10
153.7513812335032
 20
-145.7081985497511
 10
153.7513812335032
 20
-145.7081985497511
 10
153.7513812335032
 20
-150.1692498248291
 10
153.7513812335032
 20
-150.1692498248291
 10
153.7513812335032
 20
-150.6712173120228
 10
153.9467495618522
 20
-151.1428459111017
 10
154.3015734416888
 20
-151.4977050687152
 10
154.3015734416888
 20
-151.4977050687152
 10
159.5781058070733
 20
-156.7738493785539
 10
159.5781058070733
 20
-156.7738493785539
 10
159.6256249725276
 20
-156.8214038217852
 10
159.6886663598082
 20
-156.8475799322285
 10
159.7558705247603
 20
-156.8475799322285
 10
159.8230394119356
 20
-156.8475799322285
 10
159.8860807992162
 20
-156.8214038217852
 10
159.9336352424474
 20
-156.7738493785539
 10
160.0314605177294
 20
-156.6756666274974
 10
160.0314605177294
 20
-156.5164979962306
 10
159.9336352424474
 20
-156.4183199431798
 10
159.9336352424474
 20
-156.4183199431798
 10
154.6571028770629
 20
-151.1421403555642
 10
154.6571028770629
 20
-151.1421403555642
 97
        0
 97
        0
 75
     2
 76
     1
 98
        0
  0
ENDBLK
  5
50
330
4D
100
AcDbEntity
  8
0
100
AcDbBlockEnd
  0
BLOCK
  5
55
330
53
100
AcDbEntity
  8
0
100
AcDbBlockBegin
  2
block 5
 70
     0
 10
0.0
 20
0.0
 30
0.0
  3
block 5
  1

  0
SPLINE
  5
57
330
53
100
AcDbEntity
  8
Calque 1
370
     0
100
AcDbSpline
210
0.0
220
0.0
230
1.0
 70
    11
 71
     3
 72
    86
 73
    82
 74
     0
 42
0.0000000001
 43
0.0000000001
 12
1.0
 22
0.0
 32
0.0
 13
1.0
 23
0.0
 33
0.0
 40
0.0
 40
0.0
 40
0.0
 40
0.0
 40
1.0
 40
1.0
 40
1.0
 40
2.0
 40
2.0
 40
2.0
 40
3.0
 40
3.0
 40
3.0
 40
4.0
 40
4.0
 40
4.0
 40
5.0
 40
5.0
 40
5.0
 40
6.0
 40
6.0
 40
6.0
 40
7.0
 40
7.0
 40
7.0
 40
8.0
 40
8.0
 40
8.0
 40
9.0
 40
9.0
 40
9.0
 40
10.0
 40
10.0
 40
10.0
 40
11.0
 40
11.0
 40
11.0
 40
12.0
 40
12.0
 40
12.0
 40
13.0
 40
13.0
 40
13.0
 40
14.0
 40
14.0
 40
14.0
 40
15.0
 40
15.0
 40
15.0
 40
16.0
 40
16.0
 40
16.0
 40
17.0
 40
17.0
 40
17.0
 40
18.0
 40
18.0
 40
18.0
 40
19.0
 40
19.0
 40
19.0
 40
20.0
 40
20.0
 40
20.0
 40
21.0
 40
21.0
 40
21.0
 40
22.0
 40
22.0
 40
22.0
 40
23.0
 40
23.0
 40
23.0
 40
24.0
 40
24.0
 40
24.0
 40
25.0
 40
25.0
 40
25.0
 40
26.0
 40
26.0
 40
26.0
 40
27.0
 40
27.0
 40
27.0
 40
27.0
 10
177.9335564498978
 20
-156.4183199431798
 30
0.0
 10
177.9335564498978
 20
-156.4183199431798
 30
0.0
 10
172.6570593622902
 20
-151.1421403555642
 30
0.0
 10
172.6570593622902
 20
-151.1421403555642
 30
0.0
 10
172.3972738133624
 20
-150.8823900844131
 30
0.0
 10
172.25433329027
 20
-150.5368442598954
 30
0.0
 10
172.25433329027
 20
-150.1692498248291
 30
0.0
 10
172.25433329027
 20
-150.1692498248291
 30
0.0
 10
172.25433329027
 20
-145.7081985497511
 30
0.0
 10
172.25433329027
 20
-145.7081985497511
 30
0.0
 10
172.25433329027
 20
-144.742539963276
 30
0.0
 10
171.4684805037245
 20
-143.9569038722081
 30
0.0
 10
170.5028219172494
 20
-143.9569038722081
 30
0.0
 10
170.5028219172494
 20
-143.9569038722081
 30
0.0
 10
164.5028481814326
 20
-143.9569038722081
 30
0.0
 10
164.5028481814326
 20
-143.9569038722081
 30
0.0
 10
163.5371944035601
 20
-143.9569038722081
 30
0.0
 10
162.7516946149971
 20
-144.742539963276
 30
0.0
 10
162.7516946149971
 20
-145.7081985497511
 30
0.0
 10
162.7516946149971
 20
-145.7081985497511
 30
0.0
 10
162.7516946149971
 20
-150.5599512037504
 30
0.0
 10
162.7516946149971
 20
-150.5599512037504
 30
0.0
 10
162.7516946149971
 20
-152.1588106074045
 30
0.0
 10
164.0525626373648
 20
-153.4596786297722
 30
0.0
 10
165.651104541027
 20
-153.4596786297722
 30
0.0
 10
165.651104541027
 20
-153.4596786297722
 30
0.0
 10
168.7441189065621
 20
-153.4596786297722
 30
0.0
 10
168.7441189065621
 20
-153.4596786297722
 30
0.0
 10
169.1117133416284
 20
-153.4596786297722
 30
0.0
 10
169.4572591661462
 20
-153.6026594594578
 30
0.0
 10
169.7170094372972
 20
-153.8624097306087
 30
0.0
 10
169.7170094372972
 20
-153.8624097306087
 30
0.0
 10
172.6284490852424
 20
-156.7738493785539
 30
0.0
 10
172.6284490852424
 20
-156.7738493785539
 30
0.0
 10
172.7263096383013
 20
-156.8717099316129
 30
0.0
 10
172.8861582901118
 20
-156.8717099316129
 30
0.0
 10
172.9839785206165
 20
-156.7738493785539
 30
0.0
 10
173.0818390736754
 20
-156.6756666274974
 30
0.0
 10
173.0818390736754
 20
-156.5164979962306
 30
0.0
 10
172.9839785206165
 20
-156.4183199431798
 30
0.0
 10
172.9839785206165
 20
-156.4183199431798
 30
0.0
 10
170.0725388726713
 20
-153.5068802952346
 30
0.0
 10
170.0725388726713
 20
-153.5068802952346
 30
0.0
 10
169.7180324928266
 20
-153.1523739153899
 30
0.0
 10
169.246051115979
 20
-152.9570360728711
 30
0.0
 10
168.7441189065621
 20
-152.9570360728711
 30
0.0
 10
168.7441189065621
 20
-152.9570360728711
 30
0.0
 10
165.651104541027
 20
-152.9570360728711
 30
0.0
 10
165.651104541027
 20
-152.9570360728711
 30
0.0
 10
164.329563741409
 20
-152.9570360728711
 30
0.0
 10
163.2546851577203
 20
-151.8818095033603
 30
0.0
 10
163.2546851577203
 20
-150.5599512037504
 30
0.0
 10
163.2546851577203
 20
-150.5599512037504
 30
0.0
 10
163.2546851577203
 20
-145.7081985497511
 30
0.0
 10
163.2546851577203
 20
-145.7081985497511
 30
0.0
 10
163.2546851577203
 20
-145.0197174562046
 30
0.0
 10
163.8145081989936
 20
-144.4595416371625
 30
0.0
 10
164.5028481814326
 20
-144.4595416371625
 30
0.0
 10
164.5028481814326
 20
-144.4595416371625
 30
0.0
 10
170.5028219172494
 20
-144.4595416371625
 30
0.0
 10
170.5028219172494
 20
-144.4595416371625
 30
0.0
 10
171.1915146774572
 20
-144.4595416371625
 30
0.0
 10
171.7513377187304
 20
-145.0197174562046
 30
0.0
 10
171.7513377187304
 20
-145.7081985497511
 30
0.0
 10
171.7513377187304
 20
-145.7081985497511
 30
0.0
 10
171.7513377187304
 20
-150.1692498248291
 30
0.0
 10
171.7513377187304
 20
-150.1692498248291
 30
0.0
 10
171.7513377187304
 20
-150.6712173120228
 30
0.0
 10
171.9466707693026
 20
-151.1428459111017
 30
0.0
 10
172.3015299269161
 20
-151.4977050687152
 30
0.0
 10
172.3015299269161
 20
-151.4977050687152
 30
0.0
 10
177.5780270145237
 20
-156.7738493785539
 30
0.0
 10
177.5780270145237
 20
-156.7738493785539
 30
0.0
 10
177.6255814577549
 20
-156.8214038217852
 30
0.0
 10
177.6886228450355
 20
-156.8475799322285
 30
0.0
 10
177.7557917322107
 20
-156.8475799322285
 30
0.0
 10
177.822960619386
 20
-156.8475799322285
 30
0.0
 10
177.8860020066666
 20
-156.8214038217852
 30
0.0
 10
177.9335564498978
 20
-156.7738493785539
 30
0.0
 10
178.0313817251798
 20
-156.6756666274974
 30
0.0
 10
178.0313817251798
 20
-156.5164979962306
 30
0.0
 10
177.9335564498978
 20
-156.4183199431798
 30
0.0
  0
HATCH
  5
58
330
53
100
AcDbEntity
  8
Calque 1
 62
    13
420
 13395046
100
AcDbHatch
 10
0.0
 20
0.0
 30
0.0
210
0.0
220
0.0
230
1.0
  2
SOLID
 70
     1
 71
     0
 91
        1
 92
        1
 93
        1
 72
     4
 94
        3
 73
     0
 74
     1
 95
       86
 96
       82
 40
0.0
 40
0.0
 40
0.0
 40
0.0
 40
1.0
 40
1.0
 40
1.0
 40
2.0
 40
2.0
 40
2.0
 40
3.0
 40
3.0
 40
3.0
 40
4.0
 40
4.0
 40
4.0
 40
5.0
 40
5.0
 40
5.0
 40
6.0
 40
6.0
 40
6.0
 40
7.0
 40
7.0
 40
7.0
 40
8.0
 40
8.0
 40
8.0
 40
9.0
 40
9.0
 40
9.0
 40
10.0
 40
10.0
 40
10.0
 40
11.0
 40
11.0
 40
11.0
 40
12.0
 40
12.0
 40
12.0
 40
13.0
 40
13.0
 40
13.0
 40
14.0
 40
14.0
 40
14.0
 40
15.0
 40
15.0
 40
15.0
 40
16.0
 40
16.0
 40
16.0
 40
17.0
 40
17.0
 40
17.0
 40
18.0
 40
18.0
 40
18.0
 40
19.0
 40
19.0
 40
19.0
 40
20.0
 40
20.0
 40
20.0
 40
21.0
 40
21.0
 40
21.0
 40
22.0
 40
22.0
 40
22.0
 40
23.0
 40
23.0
 40
23.0
 40
24.0
 40
24.0
 40
24.0
 40
25.0
 40
25.0
 40
25.0
 40
26.0
 40
26.0
 40
26.0
 40
27.0
 40
27.0
 40
27.0
 40
27.0
 10
177.9335564498978
 20
-156.4183199431798
 10
177.9335564498978
 20
-156.4183199431798
 10
172.6570593622902
 20
-151.1421403555642
 10
172.6570593622902
 20
-151.1421403555642
 10
172.3972738133624
 20
-150.8823900844131
 10
172.25433329027
 20
-150.5368442598954
 10
172.25433329027
 20
-150.1692498248291
 10
172.25433329027
 20
-150.1692498248291
 10
172.25433329027
 20
-145.7081985497511
 10
172.25433329027
 20
-145.7081985497511
 10
172.25433329027
 20
-144.742539963276
 10
171.4684805037245
 20
-143.9569038722081
 10
170.5028219172494
 20
-143.9569038722081
 10
170.5028219172494
 20
-143.9569038722081
 10
164.5028481814326
 20
-143.9569038722081
 10
164.5028481814326
 20
-143.9569038722081
 10
163.5371944035601
 20
-143.9569038722081
 10
162.7516946149971
 20
-144.742539963276
 10
162.7516946149971
 20
-145.7081985497511
 10
162.7516946149971
 20
-145.7081985497511
 10
162.7516946149971
 20
-150.5599512037504
 10
162.7516946149971
 20
-150.5599512037504
 10
162.7516946149971
 20
-152.1588106074045
 10
164.0525626373648
 20
-153.4596786297722
 10
165.651104541027
 20
-153.4596786297722
 10
165.651104541027
 20
-153.4596786297722
 10
168.7441189065621
 20
-153.4596786297722
 10
168.7441189065621
 20
-153.4596786297722
 10
169.1117133416284
 20
-153.4596786297722
 10
169.4572591661462
 20
-153.6026594594578
 10
169.7170094372972
 20
-153.8624097306087
 10
169.7170094372972
 20
-153.8624097306087
 10
172.6284490852424
 20
-156.7738493785539
 10
172.6284490852424
 20
-156.7738493785539
 10
172.7263096383013
 20
-156.8717099316129
 10
172.8861582901118
 20
-156.8717099316129
 10
172.9839785206165
 20
-156.7738493785539
 10
173.0818390736754
 20
-156.6756666274974
 10
173.0818390736754
 20
-156.5164979962306
 10
172.9839785206165
 20
-156.4183199431798
 10
172.9839785206165
 20
-156.4183199431798
 10
170.0725388726713
 20
-153.5068802952346
 10
170.0725388726713
 20
-153.5068802952346
 10
169.7180324928266
 20
-153.1523739153899
 10
169.246051115979
 20
-152.9570360728711
 10
168.7441189065621
 20
-152.9570360728711
 10
168.7441189065621
 20
-152.9570360728711
 10
165.651104541027
 20
-152.9570360728711
 10
165.651104541027
 20
-152.9570360728711
 10
164.329563741409
 20
-152.9570360728711
 10
163.2546851577203
 20
-151.8818095033603
 10
163.2546851577203
 20
-150.5599512037504
 10
163.2546851577203
 20
-150.5599512037504
 10
163.2546851577203
 20
-145.7081985497511
 10
163.2546851577203
 20
-145.7081985497511
 10
163.2546851577203
 20
-145.0197174562046
 10
163.8145081989936
 20
-144.4595416371625
 10
164.5028481814326
 20
-144.4595416371625
 10
164.5028481814326
 20
-144.4595416371625
 10
170.5028219172494
 20
-144.4595416371625
 10
170.5028219172494
 20
-144.4595416371625
 10
171.1915146774572
 20
-144.4595416371625
 10
171.7513377187304
 20
-145.0197174562046
 10
171.7513377187304
 20
-145.7081985497511
 10
171.7513377187304
 20
-145.7081985497511
 10
171.7513377187304
 20
-150.1692498248291
 10
171.7513377187304
 20
-150.1692498248291
 10
171.7513377187304
 20
-150.6712173120228
 10
171.9466707693026
 20
-151.1428459111017
 10
172.3015299269161
 20
-151.4977050687152
 10
172.3015299269161
 20
-151.4977050687152
 10
177.5780270145237
 20
-156.7738493785539
 10
177.5780270145237
 20
-156.7738493785539
 10
177.6255814577549
 20
-156.8214038217852
 10
177.6886228450355
 20
-156.8475799322285
 10
177.7557917322107
 20
-156.8475799322285
 10
177.822960619386
 20
-156.8475799322285
 10
177.8860020066666
 20
-156.8214038217852
 10
177.9335564498978
 20
-156.7738493785539
 10
178.0313817251798
 20
-156.6756666274974
 10
178.0313817251798
 20
-156.5164979962306
 10
177.9335564498978
 20
-156.4183199431798
 97
        0
 97
        0
 75
     2
 76
     1
 98
        0
  0
ENDBLK
  5
56
330
53
100
AcDbEntity
  8
0
100
AcDbBlockEnd
  0
BLOCK
  5
5B
330
59
100
AcDbEntity
  8
0
100
AcDbBlockBegin
  2
block 6
 70
     0
 10
0.0
 20
0.0
 30
0.0
  3
block 6
  1

  0
SPLINE
  5
5D
330
59
100
AcDbEntity
  8
Calque 1
 62
    13
420
 13395046
370
    35
100
AcDbSpline
210
0.0
220
0.0
230
1.0
 70
    11
 71
     3
 72
    29
 73
    25
 74
     0
 42
0.0000000001
 43
0.0000000001
 12
1.0
 22
0.0
 32
0.0
 13
1.0
 23
0.0
 33
0.0
 40
0.0
 40
0.0
 40
0.0
 40
0.0
 40
1.0
 40
1.0
 40
1.0
 40
2.0
 40
2.0
 40
2.0
 40
3.0
 40
3.0
 40
3.0
 40
4.0
 40
4.0
 40
4.0
 40
5.0
 40
5.0
 40
5.0
 40
6.0
 40
6.0
 40
6.0
 40
7.0
 40
7.0
 40
7.0
 40
8.0
 40
8.0
 40
8.0
 40
8.0
 10
131.2788729179357
 20
-156.0178113422865
 30
0.0
 10
131.2788729179357
 20
-156.0178113422865
 30
0.0
 10
79.09887813804718
 20
-156.0178113422865
 30
0.0
 10
79.09887813804718
 20
-156.0178113422865
 30
0.0
 10
78.823887867285
 20
-156.0178113422865
 30
0.0
 10
78.59888886923923
 20
-155.7928096813601
 30
0.0
 10
78.59888886923923
 20
-155.517819410598
 30
0.0
 10
78.59888886923923
 20
-155.517819410598
 30
0.0
 10
78.59888886923923
 20
-141.737825873266
 30
0.0
 10
78.59888886923923
 20
-141.737825873266
 30
0.0
 10
78.59888886923923
 20
-141.4628305201893
 30
0.0
 10
78.823887867285
 20
-141.2378339415774
 30
0.0
 10
79.09887813804718
 20
-141.2378339415774
 30
0.0
 10
79.09887813804718
 20
-141.2378339415774
 30
0.0
 10
131.2788729179357
 20
-141.2378339415774
 30
0.0
 10
131.2788729179357
 20
-141.2378339415774
 30
0.0
 10
131.5538631886979
 20
-141.2378339415774
 30
0.0
 10
131.7788648496243
 20
-141.4628305201893
 30
0.0
 10
131.7788648496243
 20
-141.737825873266
 30
0.0
 10
131.7788648496243
 20
-141.737825873266
 30
0.0
 10
131.7788648496243
 20
-155.517819410598
 30
0.0
 10
131.7788648496243
 20
-155.517819410598
 30
0.0
 10
131.7788648496243
 20
-155.7928096813601
 30
0.0
 10
131.5538631886979
 20
-156.0178113422865
 30
0.0
 10
131.2788729179357
 20
-156.0178113422865
 30
0.0
  0
ENDBLK
  5
5C
330
59
100
AcDbEntity
  8
0
100
AcDbBlockEnd
  0
BLOCK
  5
60
330
5E
100
AcDbEntity
  8
0
100
AcDbBlockBegin
  2
block 7
 70
     0
 10
0.0
 20
0.0
 30
0.0
  3
block 7
  1

  0
SPLINE
  5
62
330
5E
100
AcDbEntity
  8
Calque 1
 62
   143
420
  3713248
370
    35
100
AcDbSpline
210
0.0
220
0.0
230
1.0
 70
    11
 71
     3
 72
    29
 73
    25
 74
     0
 42
0.0000000001
 43
0.0000000001
 12
1.0
 22
0.0
 32
0.0
 13
1.0
 23
0.0
 33
0.0
 40
0.0
 40
0.0
 40
0.0
 40
0.0
 40
1.0
 40
1.0
 40
1.0
 40
2.0
 40
2.0
 40
2.0
 40
3.0
 40
3.0
 40
3.0
 40
4.0
 40
4.0
 40
4.0
 40
5.0
 40
5.0
 40
5.0
 40
6.0
 40
6.0
 40
6.0
 40
7.0
 40
7.0
 40
7.0
 40
8.0
 40
8.0
 40
8.0
 40
8.0
 10
-23.81111004960292
 20
-132.644590827476
 30
0.0
 10
-23.81111004960292
 20
-132.644590827476
 30
0.0
 10
234.188840014706
 20
-132.644590827476
 30
0.0
 10
234.188840014706
 20
-132.644590827476
 30
0.0
 10
235.8388521948329
 20
-132.644590827476
 30
0.0
 10
237.1888621603912
 20
-133.9945655152574
 30
0.0
 10
237.1888621603912
 20
-135.6445776953844
 30
0.0
 10
237.1888621603912
 20
-135.6445776953844
 30
0.0
 10
237.1888621603912
 20
-161.6445814765135
 30
0.0
 10
237.1888621603912
 20
-161.6445814765135
 30
0.0
 10
237.1888621603912
 20
-163.2945583788635
 30
0.0
 10
235.8388521948329
 20
-164.6445638477274
 30
0.0
 10
234.188840014706
 20
-164.6445638477274
 30
0.0
 10
234.188840014706
 20
-164.6445638477274
 30
0.0
 10
-23.81111004960292
 20
-164.6445638477274
 30
0.0
 10
-23.81111004960292
 20
-164.6445638477274
 30
0.0
 10
-25.46111168807928
 20
-164.6445638477274
 30
0.0
 10
-26.81111110440833
 20
-163.2945583788635
 30
0.0
 10
-26.81111110440833
 20
-161.6445814765135
 30
0.0
 10
-26.81111110440833
 20
-161.6445814765135
 30
0.0
 10
-26.81111110440833
 20
-135.6445776953844
 30
0.0
 10
-26.81111110440833
 20
-135.6445776953844
 30
0.0
 10
-26.81111110440833
 20
-133.9945655152574
 30
0.0
 10
-25.46111168807928
 20
-132.644590827476
 30
0.0
 10
-23.81111004960292
 20
-132.644590827476
 30
0.0
  0
ENDBLK
  5
61
330
5E
100
AcDbEntity
  8
0
100
AcDbBlockEnd
  0
ENDSEC
  0
SECTION
  2
ENTITIES
  0
INSERT
  5
42
330
1F
100
AcDbEntity
  8
Calque 1
100
AcDbBlockReference
  2
block 2
 10
0.0
 20
0.0
 30
0.0
  0
INSERT
  5
48
330
1F
100
AcDbEntity
  8
Calque 1
100
AcDbBlockReference
  2
block 3
 10
0.0
 20
0.0
 30
0.0
  0
INSERT
  5
4E
330
1F
100
AcDbEntity
  8
Calque 1
100
AcDbBlockReference
  2
block 4
 10
0.0
 20
0.0
 30
0.0
  0
INSERT
  5
54
330
1F
100
AcDbEntity
  8
Calque 1
100
AcDbBlockReference
  2
block 5
 10
0.0
 20
0.0
 30
0.0
  0
INSERT
  5
5A
330
1F
100
AcDbEntity
  8
Calque 1
100
AcDbBlockReference
  2
block 6
 10
0.0
 20
0.0
 30
0.0
  0
INSERT
  5
5F
330
1F
100
AcDbEntity
  8
Calque 1
100
AcDbBlockReference
  2
block 7
 10
0.0
 20
0.0
 30
0.0
  0
ENDSEC
  0
SECTION
  2
OBJECTS
  0
DICTIONARY
  5
C
330
0
100
AcDbDictionary
281
     1
  3
ACAD_GROUP
350
D
  3
ACAD_LAYOUT
350
1A
  3
ACAD_MATERIAL
350
3B
  3
ACAD_MLEADERSTYLE
350
64
  3
ACAD_MLINESTYLE
350
17
  3
ACAD_PLOTSETTINGS
350
19
  3
ACAD_PLOTSTYLENAME
350
E
  3
ACAD_TABLESTYLE
350
63
  3
ACAD_VISUALSTYLE
350
2A
  0
SUN
  5
3F
330
29
100
AcDbSun
 90
        1
290
     0
 63
     7
421
 16777215
 40
1.0
291
     1
 91
  2455826
 92
 54000000
292
     0
 70
     2
 71
   256
280
     1
  0
DICTIONARY
  5
D
102
{ACAD_REACTORS
330
C
102
}
330
C
100
AcDbDictionary
281
     1
  0
DICTIONARY
  5
1A
102
{ACAD_REACTORS
330
C
102
}
330
C
100
AcDbDictionary
281
     1
  3
Layout1
350
1E
  3
Layout2
350
26
  3
Model
350
22
  0
DICTIONARY
  5
3B
102
{ACAD_REACTORS
330
C
102
}
330
C
100
AcDbDictionary
281
     1
  3
ByBlock
350
3D
  3
ByLayer
350
3C
  3
Global
350
3E
  0
DICTIONARY
  5
64
102
{ACAD_REACTORS
330
C
102
}
330
C
100
AcDbDictionary
281
     1
  0
DICTIONARY
  5
17
102
{ACAD_REACTORS
330
C
102
}
330
C
100
AcDbDictionary
281
     1
  3
Standard
350
18
  0
DICTIONARY
  5
19
102
{ACAD_REACTORS
330
C
102
}
330
C
100
AcDbDictionary
281
     1
  0
ACDBDICTIONARYWDFLT
  5
E
102
{ACAD_REACTORS
330
C
102
}
330
C
100
AcDbDictionary
281
     1
  3
Normal
350
F
100
AcDbDictionaryWithDefault
340
F
  0
DICTIONARY
  5
63
102
{ACAD_REACTORS
330
C
102
}
330
C
100
AcDbDictionary
281
     1
  0
DICTIONARY
  5
2A
102
{ACAD_REACTORS
330
C
102
}
330
C
100
AcDbDictionary
281
     1
  3
2dWireframe
350
2F
  3
3D Hidden
350
31
  3
3dWireframe
350
30
  3
Basic
350
32
  3
Brighten
350
36
  3
ColorChange
350
3A
  3
Conceptual
350
34
  3
Dim
350
35
  3
Facepattern
350
39
  3
Flat
350
2B
  3
FlatWithEdges
350
2C
  3
Gouraud
350
2D
  3
GouraudWithEdges
350
2E
  3
Linepattern
350
38
  3
Realistic
350
33
  3
Thicken
350
37
  0
LAYOUT
  5
1E
102
{ACAD_REACTORS
330
1A
102
}
330
1A
100
AcDbPlotSettings
  1

  2
none_device
  4

  6

 40
0.0
 41
0.0
 42
0.0
 43
0.0
 44
0.0
 45
0.0
 46
0.0
 47
0.0
 48
0.0
 49
0.0
140
0.0
141
0.0
142
1.0
143
1.0
 70
   688
 72
     0
 73
     0
 74
     5
  7

 75
    16
 76
     0
 77
     2
 78
   300
147
1.0
148
0.0
149
0.0
100
AcDbLayout
  1
Layout1
 70
     1
 71
     1
 10
0.0
 20
0.0
 11
12.0
 21
9.0
 12
0.0
 22
0.0
 32
0.0
 14
1.000000000000000E+20
 24
1.000000000000000E+20
 34
1.000000000000000E+20
 15
-1.000000000000000E+20
 25
-1.000000000000000E+20
 35
-1.000000000000000E+20
146
0.0
 13
0.0
 23
0.0
 33
0.0
 16
1.0
 26
0.0
 36
0.0
 17
0.0
 27
1.0
 37
0.0
 76
     0
330
1B
  0
LAYOUT
  5
26
102
{ACAD_REACTORS
330
1A
102
}
330
1A
100
AcDbPlotSettings
  1

  2
none_device
  4

  6

 40
0.0
 41
0.0
 42
0.0
 43
0.0
 44
0.0
 45
0.0
 46
0.0
 47
0.0
 48
0.0
 49
0.0
140
0.0
141
0.0
142
1.0
143
1.0
 70
   688
 72
     0
 73
     0
 74
     5
  7

 75
    16
 76
     0
 77
     2
 78
   300
147
1.0
148
0.0
149
0.0
100
AcDbLayout
  1
Layout2
 70
     1
 71
     2
 10
0.0
 20
0.0
 11
0.0
 21
0.0
 12
0.0
 22
0.0
 32
0.0
 14
0.0
 24
0.0
 34
0.0
 15
0.0
 25
0.0
 35
0.0
146
0.0
 13
0.0
 23
0.0
 33
0.0
 16
1.0
 26
0.0
 36
0.0
 17
0.0
 27
1.0
 37
0.0
 76
     0
330
23
  0
LAYOUT
  5
22
102
{ACAD_REACTORS
330
1A
102
}
330
1A
100
AcDbPlotSettings
  1

  2
none_device
  4

  6

 40
0.0
 41
0.0
 42
0.0
 43
0.0
 44
0.0
 45
0.0
 46
0.0
 47
0.0
 48
0.0
 49
0.0
140
0.0
141
0.0
142
1.0
143
1.0
 70
  1712
 72
     0
 73
     0
 74
     0
  7

 75
     0
 76
     0
 77
     2
 78
   300
147
1.0
148
0.0
149
0.0
100
AcDbLayout
  1
Model
 70
     1
 71
     0
 10
0.0
 20
0.0
 11
12.0
 21
9.0
 12
0.0
 22
0.0
 32
0.0
 14
1.000000000000000E+20
 24
1.000000000000000E+20
 34
1.000000000000000E+20
 15
-1.000000000000000E+20
 25
-1.000000000000000E+20
 35
-1.000000000000000E+20
146
0.0
 13
0.0
 23
0.0
 33
0.0
 16
1.0
 26
0.0
 36
0.0
 17
0.0
 27
1.0
 37
0.0
 76
     0
330
1F
331
29
  0
MATERIAL
  5
3D
102
{ACAD_REACTORS
330
3B
102
}
330
3B
100
AcDbMaterial
  1
ByBlock
 72
     1
 94
      127
  0
MATERIAL
  5
3C
102
{ACAD_REACTORS
330
3B
102
}
330
3B
100
AcDbMaterial
  1
ByLayer
 72
     1
 94
      127
  0
MATERIAL
  5
3E
102
{ACAD_REACTORS
330
3B
102
}
330
3B
100
AcDbMaterial
  1
Global
 72
     1
 94
      127
  0
MLINESTYLE
  5
18
102
{ACAD_REACTORS
330
17
102
}
330
17
100
AcDbMlineStyle
  2
Standard
 70
     0
  3

 62
   256
 51
90.0
 52
90.0
 71
     2
 49
0.5
 62
   256
  6
BYLAYER
 49
-0.5
 62
   256
  6
BYLAYER
  0
ACDBPLACEHOLDER
  5
F
102
{ACAD_REACTORS
330
E
102
}
330
E
  0
VISUALSTYLE
  5
2F
102
{ACAD_REACTORS
330
2A
102
}
330
2A
100
AcDbVisualStyle
  2
2dWireframe
 70
     4
177
     2
291
     0
 71
     0
176
     1
 72
     2
176
     1
 73
     0
176
     1
 90
        0
176
     1
 40
-0.6
176
     1
 41
-30.0
176
     1
 62
     5
 63
     7
421
 16777215
176
     1
 74
     1
176
     1
 91
        4
176
     1
 64
     7
176
     1
 65
   257
176
     1
 75
     1
176
     1
175
     1
176
     1
 42
1.0
176
     1
 92
        0
176
     1
 66
   257
176
     1
 43
1.0
176
     1
 76
     1
176
     1
 77
     6
176
     1
 78
     2
176
     1
 67
     7
176
     1
 79
     5
176
     1
170
     0
176
     1
171
     0
176
     1
290
     0
176
     1
 93
        1
176
     1
 44
0.0
176
     1
173
     0
176
     1
  0
VISUALSTYLE
  5
31
102
{ACAD_REACTORS
330
2A
102
}
330
2A
100
AcDbVisualStyle
  2
3D Hidden
 70
     6
177
     2
291
     0
 71
     1
176
     1
 72
     2
176
     1
 73
     2
176
     1
 90
        0
176
     1
 40
-0.6
176
     1
 41
-30.0
176
     1
 62
     5
 63
     7
421
 16777215
176
     1
 74
     2
176
     1
 91
        2
176
     1
 64
     7
176
     1
 65
   257
176
     1
 75
     2
176
     1
175
     1
176
     1
 42
40.0
176
     1
 92
        0
176
     1
 66
   257
176
     1
 43
1.0
176
     1
 76
     1
176
     1
 77
     6
176
     1
 78
     2
176
     1
 67
     7
176
     1
 79
     3
176
     1
170
     0
176
     1
171
     0
176
     1
290
     0
176
     1
 93
        1
176
     1
 44
0.0
176
     1
173
     0
176
     1
  0
VISUALSTYLE
  5
30
102
{ACAD_REACTORS
330
2A
102
}
330
2A
100
AcDbVisualStyle
  2
3dWireframe
 70
     5
177
     2
291
     0
 71
     0
176
     1
 72
     2
176
     1
 73
     0
176
     1
 90
        0
176
     1
 40
-0.6
176
     1
 41
-30.0
176
     1
 62
     5
 63
     7
421
 16777215
176
     1
 74
     1
176
     1
 91
        4
176
     1
 64
     7
176
     1
 65
   257
176
     1
 75
     1
176
     1
175
     1
176
     1
 42
1.0
176
     1
 92
        0
176
     1
 66
   257
176
     1
 43
1.0
176
     1
 76
     1
176
     1
 77
     6
176
     1
 78
     2
176
     1
 67
     7
176
     1
 79
     5
176
     1
170
     0
176
     1
171
     0
176
     1
290
     0
176
     1
 93
        1
176
     1
 44
0.0
176
     1
173
     0
176
     1
  0
VISUALSTYLE
  5
32
102
{ACAD_REACTORS
330
2A
102
}
330
2A
100
AcDbVisualStyle
  2
Basic
 70
     7
177
     2
291
     1
 71
     1
176
     1
 72
     0
176
     1
 73
     1
176
     1
 90
        0
176
     1
 40
-0.6
176
     1
 41
-30.0
176
     1
 62
     5
 63
     7
421
 16777215
176
     1
 74
     0
176
     1
 91
        4
176
     1
 64
     7
176
     1
 65
   257
176
     1
 75
     1
176
     1
175
     1
176
     1
 42
1.0
176
     1
 92
        8
176
     1
 66
     7
176
     1
 43
1.0
176
     1
 76
     1
176
     1
 77
     6
176
     1
 78
     2
176
     1
 67
     7
176
     1
 79
     5
176
     1
170
     0
176
     1
171
     0
176
     1
290
     0
176
     1
 93
        1
176
     1
 44
0.0
176
     1
173
     0
176
     1
  0
VISUALSTYLE
  5
36
102
{ACAD_REACTORS
330
2A
102
}
330
2A
100
AcDbVisualStyle
  2
Brighten
 70
    12
177
     2
291
     1
 71
     2
176
     1
 72
     2
176
     1
 73
     0
176
     1
 90
        0
176
     1
 40
-0.6
176
     1
 41
-30.0
176
     1
 62
     5
 63
     7
421
 16777215
176
     1
 74
     1
176
     1
 91
        4
176
     1
 64
     7
176
     1
 65
   257
176
     1
 75
     1
176
     1
175
     1
176
     1
 42
1.0
176
     1
 92
        8
176
     1
 66
     7
176
     1
 43
1.0
176
     1
 76
     1
176
     1
 77
     6
176
     1
 78
     2
176
     1
 67
     7
176
     1
 79
     5
176
     1
170
     0
176
     1
171
     0
176
     1
290
     0
176
     1
 93
        1
176
     1
 44
50.0
176
     1
173
     0
176
     1
  0
VISUALSTYLE
  5
3A
102
{ACAD_REACTORS
330
2A
102
}
330
2A
100
AcDbVisualStyle
  2
ColorChange
 70
    16
177
     2
291
     1
 71
     2
176
     1
 72
     2
176
     1
 73
     3
176
     1
 90
        0
176
     1
 40
-0.6
176
     1
 41
-30.0
176
     1
 62
     5
 63
     8
421
  8421504
176
     1
 74
     1
176
     1
 91
        4
176
     1
 64
     7
176
     1
 65
   257
176
     1
 75
     1
176
     1
175
     1
176
     1
 42
1.0
176
     1
 92
        8
176
     1
 66
     8
424
  8421504
176
     1
 43
1.0
176
     1
 76
     1
176
     1
 77
     6
176
     1
 78
     2
176
     1
 67
     7
176
     1
 79
     5
176
     1
170
     0
176
     1
171
     0
176
     1
290
     0
176
     1
 93
        1
176
     1
 44
0.0
176
     1
173
     0
176
     1
  0
VISUALSTYLE
  5
34
102
{ACAD_REACTORS
330
2A
102
}
330
2A
100
AcDbVisualStyle
  2
Conceptual
 70
     9
177
     2
291
     0
 71
     3
176
     1
 72
     2
176
     1
 73
     0
176
     1
 90
        0
176
     1
 40
-0.6
176
     1
 41
-30.0
176
     1
 62
     5
 63
     7
421
 16777215
176
     1
 74
     2
176
     1
 91
        2
176
     1
 64
     7
176
     1
 65
   257
176
     1
 75
     1
176
     1
175
     1
176
     1
 42
40.0
176
     1
 92
        8
176
     1
 66
     7
176
     1
 43
1.0
176
     1
 76
     1
176
     1
 77
     6
176
     1
 78
     2
176
     1
 67
     7
176
     1
 79
     3
176
     1
170
     0
176
     1
171
     0
176
     1
290
     0
176
     1
 93
        1
176
     1
 44
0.0
176
     1
173
     0
176
     1
  0
VISUALSTYLE
  5
35
102
{ACAD_REACTORS
330
2A
102
}
330
2A
100
AcDbVisualStyle
  2
Dim
 70
    11
177
     2
291
     1
 71
     2
176
     1
 72
     2
176
     1
 73
     0
176
     1
 90
        0
176
     1
 40
-0.6
176
     1
 41
-30.0
176
     1
 62
     5
 63
     7
421
 16777215
176
     1
 74
     1
176
     1
 91
        4
176
     1
 64
     7
176
     1
 65
   257
176
     1
 75
     1
176
     1
175
     1
176
     1
 42
1.0
176
     1
 92
        8
176
     1
 66
     7
176
     1
 43
1.0
176
     1
 76
     1
176
     1
 77
     6
176
     1
 78
     2
176
     1
 67
     7
176
     1
 79
     5
176
     1
170
     0
176
     1
171
     0
176
     1
290
     0
176
     1
 93
        1
176
     1
 44
-50.0
176
     1
173
     0
176
     1
  0
VISUALSTYLE
  5
39
102
{ACAD_REACTORS
330
2A
102
}
330
2A
100
AcDbVisualStyle
  2
Facepattern
 70
    15
177
     2
291
     1
 71
     2
176
     1
 72
     2
176
     1
 73
     0
176
     1
 90
        0
176
     1
 40
-0.6
176
     1
 41
-30.0
176
     1
 62
     5
 63
     7
421
 16777215
176
     1
 74
     1
176
     1
 91
        4
176
     1
 64
     7
176
     1
 65
   257
176
     1
 75
     1
176
     1
175
     1
176
     1
 42
1.0
176
     1
 92
        8
176
     1
 66
     7
176
     1
 43
1.0
176
     1
 76
     1
176
     1
 77
     6
176
     1
 78
     2
176
     1
 67
     7
176
     1
 79
     5
176
     1
170
     0
176
     1
171
     0
176
     1
290
     0
176
     1
 93
        1
176
     1
 44
0.0
176
     1
173
     0
176
     1
  0
VISUALSTYLE
  5
2B
102
{ACAD_REACTORS
330
2A
102
}
330
2A
100
AcDbVisualStyle
  2
Flat
 70
     0
177
     2
291
     1
 71
     2
176
     1
 72
     1
176
     1
 73
     1
176
     1
 90
        2
176
     1
 40
-0.6
176
     1
 41
30.0
176
     1
 62
     5
 63
     7
421
 16777215
176
     1
 74
     0
176
     1
 91
        4
176
     1
 64
     7
176
     1
 65
   257
176
     1
 75
     1
176
     1
175
     1
176
     1
 42
1.0
176
     1
 92
        8
176
     1
 66
     7
176
     1
 43
1.0
176
     1
 76
     1
176
     1
 77
     6
176
     1
 78
     2
176
     1
 67
     7
176
     1
 79
     5
176
     1
170
     0
176
     1
171
     0
176
     1
290
     0
176
     1
 93
       13
176
     1
 44
0.0
176
     1
173
     0
176
     1
  0
VISUALSTYLE
  5
2C
102
{ACAD_REACTORS
330
2A
102
}
330
2A
100
AcDbVisualStyle
  2
FlatWithEdges
 70
     1
177
     2
291
     1
 71
     2
176
     1
 72
     1
176
     1
 73
     1
176
     1
 90
        2
176
     1
 40
-0.6
176
     1
 41
30.0
176
     1
 62
     5
 63
     7
421
 16777215
176
     1
 74
     1
176
     1
 91
        4
176
     1
 64
     7
176
     1
 65
   257
176
     1
 75
     1
176
     1
175
     1
176
     1
 42
1.0
176
     1
 92
        0
176
     1
 66
   257
176
     1
 43
1.0
176
     1
 76
     1
176
     1
 77
     6
176
     1
 78
     2
176
     1
 67
     7
176
     1
 79
     5
176
     1
170
     0
176
     1
171
     0
176
     1
290
     0
176
     1
 93
       13
176
     1
 44
0.0
176
     1
173
     0
176
     1
  0
VISUALSTYLE
  5
2D
102
{ACAD_REACTORS
330
2A
102
}
330
2A
100
AcDbVisualStyle
  2
Gouraud
 70
     2
177
     2
291
     1
 71
     2
176
     1
 72
     2
176
     1
 73
     1
176
     1
 90
        2
176
     1
 40
-0.6
176
     1
 41
30.0
176
     1
 62
     5
 63
     7
421
 16777215
176
     1
 74
     0
176
     1
 91
        4
176
     1
 64
     7
176
     1
 65
   257
176
     1
 75
     1
176
     1
175
     1
176
     1
 42
1.0
176
     1
 92
        0
176
     1
 66
     7
176
     1
 43
1.0
176
     1
 76
     1
176
     1
 77
     6
176
     1
 78
     2
176
     1
 67
     7
176
     1
 79
     5
176
     1
170
     0
176
     1
171
     0
176
     1
290
     0
176
     1
 93
       13
176
     1
 44
0.0
176
     1
173
     0
176
     1
  0
VISUALSTYLE
  5
2E
102
{ACAD_REACTORS
330
2A
102
}
330
2A
100
AcDbVisualStyle
  2
GouraudWithEdges
 70
     3
177
     2
291
     1
 71
     2
176
     1
 72
     2
176
     1
 73
     1
176
     1
 90
        2
176
     1
 40
-0.6
176
     1
 41
30.0
176
     1
 62
     5
 63
     7
421
 16777215
176
     1
 74
     1
176
     1
 91
        4
176
     1
 64
     7
176
     1
 65
   257
176
     1
 75
     1
176
     1
175
     1
176
     1
 42
1.0
176
     1
 92
        0
176
     1
 66
   257
176
     1
 43
1.0
176
     1
 76
     1
176
     1
 77
     6
176
     1
 78
     2
176
     1
 67
     7
176
     1
 79
     5
176
     1
170
     0
176
     1
171
     0
176
     1
290
     0
176
     1
 93
       13
176
     1
 44
0.0
176
     1
173
     0
176
     1
  0
VISUALSTYLE
  5
38
102
{ACAD_REACTORS
330
2A
102
}
330
2A
100
AcDbVisualStyle
  2
Linepattern
 70
    14
177
     2
291
     1
 71
     2
176
     1
 72
     2
176
     1
 73
     0
176
     1
 90
        0
176
     1
 40
-0.6
176
     1
 41
-30.0
176
     1
 62
     5
 63
     7
421
 16777215
176
     1
 74
     1
176
     1
 91
        4
176
     1
 64
     7
176
     1
 65
   257
176
     1
 75
     7
176
     1
175
     7
176
     1
 42
1.0
176
     1
 92
        8
176
     1
 66
     7
176
     1
 43
1.0
176
     1
 76
     1
176
     1
 77
     6
176
     1
 78
     2
176
     1
 67
     7
176
     1
 79
     5
176
     1
170
     0
176
     1
171
     0
176
     1
290
     0
176
     1
 93
        1
176
     1
 44
0.0
176
     1
173
     0
176
     1
  0
VISUALSTYLE
  5
33
102
{ACAD_REACTORS
330
2A
102
}
330
2A
100
AcDbVisualStyle
  2
Realistic
 70
     8
177
     2
291
     0
 71
     2
176
     1
 72
     2
176
     1
 73
     0
176
     1
 90
        0
176
     1
 40
-0.6
176
     1
 41
-30.0
176
     1
 62
     5
 63
     7
421
 16777215
176
     1
 74
     1
176
     1
 91
        0
176
     1
 64
     7
176
     1
 65
   257
176
     1
 75
     1
176
     1
175
     1
176
     1
 42
1.0
176
     1
 92
        8
176
     1
 66
     8
424
  7895160
176
     1
 43
1.0
176
     1
 76
     1
176
     1
 77
     6
176
     1
 78
     2
176
     1
 67
     7
176
     1
 79
     5
176
     1
170
     0
176
     1
171
     0
176
     1
290
     0
176
     1
 93
       13
176
     1
 44
0.0
176
     1
173
     0
176
     1
  0
VISUALSTYLE
  5
37
102
{ACAD_REACTORS
330
2A
102
}
330
2A
100
AcDbVisualStyle
  2
Thicken
 70
    13
177
     2
291
     1
 71
     2
176
     1
 72
     2
176
     1
 73
     0
176
     1
 90
        0
176
     1
 40
-0.6
176
     1
 41
-30.0
176
     1
 62
     5
 63
     7
421
 16777215
176
     1
 74
     1
176
     1
 91
        4
176
     1
 64
     7
176
     1
 65
   257
176
     1
 75
     1
176
     1
175
     1
176
     1
 42
1.0
176
     1
 92
       12
176
     1
 66
     7
176
     1
 43
1.0
176
     1
 76
     1
176
     1
 77
     6
176
     1
 78
     2
176
     1
 67
     7
176
     1
 79
     5
176
     1
170
     0
176
     1
171
     0
176
     1
290
     0
176
     1
 93
        1
176
     1
 44
0.0
176
     1
173
     0
176
     1
  0
ENDSEC
  0
EOF
