999
"DXF R12 Output" (www.mydxf.blogspot.com)
 0 
SECTION
 2 
HEADER
 9 
$ACADVER
 1 
AC1009
 9 
$EXTMIN
 10 
 0 
 20 
 0 
 9 
$EXTMAX
 10 
 8.5 
 20 
 11 
 0 
ENDSEC
 0 
SECTION
 2 
ENTITIES
0
LINE
8
Layer 1
10
238.717000
20
28.677000
11
229.422000
21
28.677000
0
LINE
8
Layer 1
10
229.422000
20
28.677000
11
229.171881
21
28.427234
0
LINE
8
Layer 1
10
229.171881
20
28.427234
11
229.172000
21
18.932200
0
LINE
8
Layer 1
10
229.172000
20
18.932200
11
229.422119
21
18.682434
0
LINE
8
Layer 1
10
229.422119
20
18.682434
11
238.717000
21
18.682500
0
LINE
8
Layer 1
10
238.717000
20
18.682500
11
238.967119
21
18.932266
0
LINE
8
Layer 1
10
238.967119
20
18.932266
11
238.967000
21
28.427200
0
LINE
8
Layer 1
10
238.967000
20
28.427200
11
238.717000
21
28.677000
0
LINE
8
Layer 1
10
91.301600
20
22.681700
11
88.208500
21
22.681700
0
LINE
8
Layer 1
10
88.208500
20
22.681700
11
87.681716
21
22.785637
0
LINE
8
Layer 1
10
87.681716
20
22.785637
11
87.235894
21
23.084571
0
LINE
8
Layer 1
10
87.235894
20
23.084571
11
84.324424
21
25.996041
0
LINE
8
Layer 1
10
84.324424
20
25.996041
11
83.968825
21
25.996041
0
LINE
8
Layer 1
10
83.968825
20
25.996041
11
83.968825
21
25.640442
0
LINE
8
Layer 1
10
83.968825
20
25.640442
11
86.880295
21
22.728972
0
LINE
8
Layer 1
10
86.880295
20
22.728972
11
87.489233
21
22.321206
0
LINE
8
Layer 1
10
87.489233
20
22.321206
11
88.208505
21
22.179345
0
LINE
8
Layer 1
10
88.208505
20
22.179345
11
91.301600
21
22.179300
0
LINE
8
Layer 1
10
91.301600
20
22.179300
11
92.233547
21
21.990580
0
LINE
8
Layer 1
10
92.233547
20
21.990580
11
92.995367
21
21.476259
0
LINE
8
Layer 1
10
92.995367
20
21.476259
11
93.509407
21
20.714090
0
LINE
8
Layer 1
10
93.509407
20
20.714090
11
93.698010
21
19.781830
0
LINE
8
Layer 1
10
93.698010
20
19.781830
11
93.698000
21
14.930500
0
LINE
8
Layer 1
10
93.698000
20
14.930500
11
93.599768
21
14.444913
0
LINE
8
Layer 1
10
93.599768
20
14.444913
11
93.332037
21
14.048027
0
LINE
8
Layer 1
10
93.332037
20
14.048027
11
92.935255
21
13.780258
0
LINE
8
Layer 1
10
92.935255
20
13.780258
11
92.449870
21
13.682020
0
LINE
8
Layer 1
10
92.449870
20
13.682020
11
86.449900
21
13.682000
0
LINE
8
Layer 1
10
86.449900
20
13.682000
11
85.964313
21
13.780237
0
LINE
8
Layer 1
10
85.964313
20
13.780237
11
85.567427
21
14.048006
0
LINE
8
Layer 1
10
85.567427
20
14.048006
11
85.299658
21
14.444892
0
LINE
8
Layer 1
10
85.299658
20
14.444892
11
85.201420
21
14.930480
0
LINE
8
Layer 1
10
85.201420
20
14.930480
11
85.201400
21
19.391300
0
LINE
8
Layer 1
10
85.201400
20
19.391300
11
85.059319
21
20.110701
0
LINE
8
Layer 1
10
85.059319
20
20.110701
11
84.651068
21
20.719510
0
LINE
8
Layer 1
10
84.651068
20
20.719510
11
79.374600
21
25.996000
0
LINE
8
Layer 1
10
79.374600
20
25.996000
11
79.019354
21
25.996000
0
LINE
8
Layer 1
10
79.019354
20
25.996000
11
79.019354
21
25.640401
0
LINE
8
Layer 1
10
79.019354
20
25.640401
11
84.295844
21
20.364271
0
LINE
8
Layer 1
10
84.295844
20
20.364271
11
84.594646
21
19.918140
0
LINE
8
Layer 1
10
84.594646
20
19.918140
11
84.698715
21
19.391312
0
LINE
8
Layer 1
10
84.698715
20
19.391312
11
84.698700
21
14.930500
0
LINE
8
Layer 1
10
84.698700
20
14.930500
11
84.836542
21
14.249332
0
LINE
8
Layer 1
10
84.836542
20
14.249332
11
85.212211
21
13.692516
0
LINE
8
Layer 1
10
85.212211
20
13.692516
11
85.768923
21
13.316808
0
LINE
8
Layer 1
10
85.768923
20
13.316808
11
86.449890
21
13.178960
0
LINE
8
Layer 1
10
86.449890
20
13.178960
11
92.449900
21
13.178900
0
LINE
8
Layer 1
10
92.449900
20
13.178900
11
93.130809
21
13.316748
0
LINE
8
Layer 1
10
93.130809
20
13.316748
11
93.687397
21
13.692455
0
LINE
8
Layer 1
10
93.687397
20
13.692455
11
94.062943
21
14.249270
0
LINE
8
Layer 1
10
94.062943
20
14.249270
11
94.200730
21
14.930440
0
LINE
8
Layer 1
10
94.200730
20
14.930440
11
94.200700
21
19.781900
0
LINE
8
Layer 1
10
94.200700
20
19.781900
11
93.972547
21
20.909487
0
LINE
8
Layer 1
10
93.972547
20
20.909487
11
93.350700
21
21.831350
0
LINE
8
Layer 1
10
93.350700
20
21.831350
11
92.429078
21
22.453437
0
LINE
8
Layer 1
10
92.429078
20
22.453437
11
91.301600
21
22.681700
0
LINE
8
Layer 1
10
183.232000
20
15.369000
11
182.933198
21
15.814998
0
LINE
8
Layer 1
10
182.933198
20
15.814998
11
182.829129
21
16.341959
0
LINE
8
Layer 1
10
182.829129
20
16.341959
11
182.829000
21
20.802800
0
LINE
8
Layer 1
10
182.829000
20
20.802800
11
182.691158
21
21.483968
0
LINE
8
Layer 1
10
182.691158
20
21.483968
11
182.315489
21
22.040784
0
LINE
8
Layer 1
10
182.315489
20
22.040784
11
181.758777
21
22.416492
0
LINE
8
Layer 1
10
181.758777
20
22.416492
11
181.077810
21
22.554340
0
LINE
8
Layer 1
10
181.077810
20
22.554340
11
175.078000
21
22.554400
0
LINE
8
Layer 1
10
175.078000
20
22.554400
11
174.397035
21
22.416552
0
LINE
8
Layer 1
10
174.397035
20
22.416552
11
173.840323
21
22.040845
0
LINE
8
Layer 1
10
173.840323
20
22.040845
11
173.464653
21
21.484030
0
LINE
8
Layer 1
10
173.464653
20
21.484030
11
173.326810
21
20.802860
0
LINE
8
Layer 1
10
173.326810
20
20.802860
11
173.327000
21
15.951100
0
LINE
8
Layer 1
10
173.327000
20
15.951100
11
173.555214
21
14.823568
0
LINE
8
Layer 1
10
173.555214
20
14.823568
11
174.177192
21
13.901819
0
LINE
8
Layer 1
10
174.177192
20
13.901819
11
175.098943
21
13.279842
0
LINE
8
Layer 1
10
175.098943
20
13.279842
11
176.226470
21
13.051630
0
LINE
8
Layer 1
10
176.226470
20
13.051630
11
179.319000
21
13.051600
0
LINE
8
Layer 1
10
179.319000
20
13.051600
11
179.845961
21
12.947531
0
LINE
8
Layer 1
10
179.845961
20
12.947531
11
180.291959
21
12.648729
0
LINE
8
Layer 1
10
180.291959
20
12.648729
11
183.203429
21
9.737259
0
LINE
8
Layer 1
10
183.203429
20
9.737259
11
183.559028
21
9.737259
0
LINE
8
Layer 1
10
183.559028
20
9.737259
11
183.559028
21
10.092858
0
LINE
8
Layer 1
10
183.559028
20
10.092858
11
180.647558
21
13.004328
0
LINE
8
Layer 1
10
180.647558
20
13.004328
11
180.038576
21
13.412094
0
LINE
8
Layer 1
10
180.038576
20
13.412094
11
179.318998
21
13.553955
0
LINE
8
Layer 1
10
179.318998
20
13.553955
11
176.226000
21
13.554000
0
LINE
8
Layer 1
10
176.226000
20
13.554000
11
175.294053
21
13.742663
0
LINE
8
Layer 1
10
175.294053
20
13.742663
11
174.532233
21
14.256863
0
LINE
8
Layer 1
10
174.532233
20
14.256863
11
174.018193
21
15.018910
0
LINE
8
Layer 1
10
174.018193
20
15.018910
11
173.829590
21
15.951120
0
LINE
8
Layer 1
10
173.829590
20
15.951120
11
173.830000
21
20.802800
0
LINE
8
Layer 1
10
173.830000
20
20.802800
11
173.928232
21
21.288442
0
LINE
8
Layer 1
10
173.928232
20
21.288442
11
174.195963
21
21.685448
0
LINE
8
Layer 1
10
174.195963
20
21.685448
11
174.592745
21
21.953338
0
LINE
8
Layer 1
10
174.592745
20
21.953338
11
175.078130
21
22.051630
0
LINE
8
Layer 1
10
175.078130
20
22.051630
11
181.078000
21
22.051700
0
LINE
8
Layer 1
10
181.078000
20
22.051700
11
181.563587
21
21.953407
0
LINE
8
Layer 1
10
181.563587
20
21.953407
11
181.960473
21
21.685517
0
LINE
8
Layer 1
10
181.960473
20
21.685517
11
182.228242
21
21.288511
0
LINE
8
Layer 1
10
182.228242
20
21.288511
11
182.326480
21
20.802870
0
LINE
8
Layer 1
10
182.326480
20
20.802870
11
182.326000
21
16.342000
0
LINE
8
Layer 1
10
182.326000
20
16.342000
11
182.467905
21
15.622555
0
LINE
8
Layer 1
10
182.467905
20
15.622555
11
182.875979
21
15.013440
0
LINE
8
Layer 1
10
182.875979
20
15.013440
11
188.152469
21
9.737310
0
LINE
8
Layer 1
10
188.152469
20
9.737310
11
188.330269
21
9.663580
0
LINE
8
Layer 1
10
188.330269
20
9.663580
11
188.508069
21
9.737310
0
LINE
8
Layer 1
10
188.508069
20
9.737310
11
188.508069
21
10.092909
0
LINE
8
Layer 1
10
188.508069
20
10.092909
11
183.232000
21
15.369000
0
LINE
8
Layer 1
10
206.508000
20
10.092900
11
201.231510
21
15.369030
0
LINE
8
Layer 1
10
201.231510
20
15.369030
11
200.932708
21
15.815028
0
LINE
8
Layer 1
10
200.932708
20
15.815028
11
200.828639
21
16.341989
0
LINE
8
Layer 1
10
200.828639
20
16.341989
11
200.829000
21
20.802900
0
LINE
8
Layer 1
10
200.829000
20
20.802900
11
200.691152
21
21.484068
0
LINE
8
Layer 1
10
200.691152
20
21.484068
11
200.315445
21
22.040884
0
LINE
8
Layer 1
10
200.315445
20
22.040884
11
199.758630
21
22.416592
0
LINE
8
Layer 1
10
199.758630
20
22.416592
11
199.077460
21
22.554440
0
LINE
8
Layer 1
10
199.077460
20
22.554440
11
193.077000
21
22.554400
0
LINE
8
Layer 1
10
193.077000
20
22.554400
11
192.395886
21
22.416552
0
LINE
8
Layer 1
10
192.395886
20
22.416552
11
191.839191
21
22.040845
0
LINE
8
Layer 1
10
191.839191
20
22.040845
11
191.463603
21
21.484030
0
LINE
8
Layer 1
10
191.463603
20
21.484030
11
191.325810
21
20.802860
0
LINE
8
Layer 1
10
191.325810
20
20.802860
11
191.326000
21
15.951100
0
LINE
8
Layer 1
10
191.326000
20
15.951100
11
191.554214
21
14.823568
0
LINE
8
Layer 1
10
191.554214
20
14.823568
11
192.176192
21
13.901819
0
LINE
8
Layer 1
10
192.176192
20
13.901819
11
193.097943
21
13.279842
0
LINE
8
Layer 1
10
193.097943
20
13.279842
11
194.225470
21
13.051630
0
LINE
8
Layer 1
10
194.225470
20
13.051630
11
197.319000
21
13.051600
0
LINE
8
Layer 1
10
197.319000
20
13.051600
11
197.845961
21
12.947531
0
LINE
8
Layer 1
10
197.845961
20
12.947531
11
198.291959
21
12.648729
0
LINE
8
Layer 1
10
198.291959
20
12.648729
11
201.203429
21
9.737259
0
LINE
8
Layer 1
10
201.203429
20
9.737259
11
201.559028
21
9.737259
0
LINE
8
Layer 1
10
201.559028
20
9.737259
11
201.559028
21
10.092858
0
LINE
8
Layer 1
10
201.559028
20
10.092858
11
198.647558
21
13.004328
0
LINE
8
Layer 1
10
198.647558
20
13.004328
11
198.038576
21
13.412270
0
LINE
8
Layer 1
10
198.038576
20
13.412270
11
197.318998
21
13.554307
0
LINE
8
Layer 1
10
197.318998
20
13.554307
11
194.226000
21
13.554300
0
LINE
8
Layer 1
10
194.226000
20
13.554300
11
193.293901
21
13.742909
0
LINE
8
Layer 1
10
193.293901
20
13.742909
11
192.532098
21
14.256987
0
LINE
8
Layer 1
10
192.532098
20
14.256987
11
192.018143
21
15.018915
0
LINE
8
Layer 1
10
192.018143
20
15.018915
11
191.829590
21
15.951070
0
LINE
8
Layer 1
10
191.829590
20
15.951070
11
191.829000
21
20.802900
0
LINE
8
Layer 1
10
191.829000
20
20.802900
11
191.927182
21
21.288542
0
LINE
8
Layer 1
10
191.927182
20
21.288542
11
192.194830
21
21.685548
0
LINE
8
Layer 1
10
192.194830
20
21.685548
11
192.591596
21
21.953438
0
LINE
8
Layer 1
10
192.591596
20
21.953438
11
193.077130
21
22.051730
0
LINE
8
Layer 1
10
193.077130
20
22.051730
11
199.077000
21
22.051700
0
LINE
8
Layer 1
10
199.077000
20
22.051700
11
199.562790
21
21.953407
0
LINE
8
Layer 1
10
199.562790
20
21.953407
11
199.959780
21
21.685517
0
LINE
8
Layer 1
10
199.959780
20
21.685517
11
200.227587
21
21.288511
0
LINE
8
Layer 1
10
200.227587
20
21.288511
11
200.325830
21
20.802870
0
LINE
8
Layer 1
10
200.325830
20
20.802870
11
200.326000
21
16.342000
0
LINE
8
Layer 1
10
200.326000
20
16.342000
11
200.467905
21
15.622555
0
LINE
8
Layer 1
10
200.467905
20
15.622555
11
200.875979
21
15.013440
0
LINE
8
Layer 1
10
200.875979
20
15.013440
11
206.152000
21
9.737300
0
LINE
8
Layer 1
10
206.152000
20
9.737300
11
206.329800
21
9.663570
0
LINE
8
Layer 1
10
206.329800
20
9.663570
11
206.507600
21
9.737300
0
LINE
8
Layer 1
10
206.507600
20
9.737300
11
206.507600
21
10.092899
0
LINE
8
Layer 1
10
159.854000
20
10.493500
11
107.674000
21
10.493500
0
LINE
8
Layer 1
10
107.674000
20
10.493500
11
107.321003
21
10.640388
0
LINE
8
Layer 1
10
107.321003
20
10.640388
11
107.174115
21
10.993385
0
LINE
8
Layer 1
10
107.174115
20
10.993385
11
107.174000
21
24.773600
0
LINE
8
Layer 1
10
107.174000
20
24.773600
11
107.320888
21
25.126597
0
LINE
8
Layer 1
10
107.320888
20
25.126597
11
107.673885
21
25.273485
0
LINE
8
Layer 1
10
107.673885
20
25.273485
11
159.854000
21
25.273400
0
LINE
8
Layer 1
10
159.854000
20
25.273400
11
160.207130
21
25.126512
0
LINE
8
Layer 1
10
160.207130
20
25.126512
11
160.353885
21
24.773515
0
LINE
8
Layer 1
10
160.353885
20
24.773515
11
160.354000
21
10.993400
0
LINE
8
Layer 1
10
160.354000
20
10.993400
11
160.207125
21
10.640400
0
LINE
8
Layer 1
10
160.207125
20
10.640400
11
159.854000
21
10.493500
0
LINE
8
Layer 1
10
159.854000
20
10.493500
11
159.854000
21
10.493500
0
LINE
8
Layer 1
10
4.763880
20
33.866500
11
262.763000
21
33.866500
0
LINE
8
Layer 1
10
262.763000
20
33.866500
11
263.927765
21
33.629770
0
LINE
8
Layer 1
10
263.927765
20
33.629770
11
264.881557
21
32.985218
0
LINE
8
Layer 1
10
264.881557
20
32.985218
11
265.525986
21
32.031302
0
LINE
8
Layer 1
10
265.525986
20
32.031302
11
265.762660
21
30.866480
0
LINE
8
Layer 1
10
265.762660
20
30.866480
11
265.763000
21
4.866470
0
LINE
8
Layer 1
10
265.763000
20
4.866470
11
265.526326
21
3.701648
0
LINE
8
Layer 1
10
265.526326
20
3.701648
11
264.881897
21
2.747732
0
LINE
8
Layer 1
10
264.881897
20
2.747732
11
263.928105
21
2.103180
0
LINE
8
Layer 1
10
263.928105
20
2.103180
11
262.763340
21
1.866450
0
LINE
8
Layer 1
10
262.763340
20
1.866450
11
4.763880
21
1.866450
0
LINE
8
Layer 1
10
4.763880
20
1.866450
11
3.599058
21
2.103180
0
LINE
8
Layer 1
10
3.599058
20
2.103180
11
2.645143
21
2.747732
0
LINE
8
Layer 1
10
2.645143
20
2.747732
11
2.000590
21
3.701648
0
LINE
8
Layer 1
10
2.000590
20
3.701648
11
1.763860
21
4.866470
0
LINE
8
Layer 1
10
1.763860
20
4.866470
11
1.763860
21
30.866500
0
LINE
8
Layer 1
10
1.763860
20
30.866500
11
2.000590
21
32.031302
0
LINE
8
Layer 1
10
2.000590
20
32.031302
11
2.645142
21
32.985213
0
LINE
8
Layer 1
10
2.645142
20
32.985213
11
3.599058
21
33.629767
0
LINE
8
Layer 1
10
3.599058
20
33.629767
11
4.763880
21
33.866500
0
LINE
8
Layer 1
10
4.763880
20
33.866500
11
4.763880
21
33.866500
 0 
ENDSEC
 0 
EOF