  0
SECTION
  2
HEADER
  9
$ACADVER
  1
AC1014
  9
$HANDSEED
  5
FFFF
  9
$INSUNITS
 70
     4
  9
$MEASUREMENT
 70
     1
  0
ENDSEC
  0
SECTION
  2
TABLES
  0
TABLE
  2
VPORT
  5
8
330
0
100
AcDbSymbolTable
 70
     4
  0
VPORT
  5
2E
330
8
100
AcDbSymbolTableRecord
100
AcDbViewportTableRecord
  2
*ACTIVE
 70
     0
 10
0.0
 20
0.0
 11
1.0
 21
1.0
 12
210.0
 22
148.5
 13
0.0
 23
0.0
 14
10.0
 24
10.0
 15
10.0
 25
10.0
 16
0.0
 26
0.0
 36
1.0
 17
0.0
 27
0.0
 37
0.0
 40
341.0
 41
1.24
 42
50.0
 43
0.0
 44
0.0
 50
0.0
 51
0.0
 71
     0
 72
   100
 73
     1
 74
     3
 75
     0
 76
     0
 77
     0
 78
     0
  0
ENDTAB
  0
TABLE
  2
LTYPE
  5
5
330
0
100
AcDbSymbolTable
 70
     1
  0
LTYPE
  5
14
330
5
100
AcDbSymbolTableRecord
100
AcDbLinetypeTableRecord
  2
BYBLOCK
 70
     0
  3

 72
    65
 73
     0
 40
0.0
  0
LTYPE
  5
15
330
5
100
AcDbSymbolTableRecord
100
AcDbLinetypeTableRecord
  2
BYLAYER
 70
     0
  3

 72
    65
 73
     0
 40
0.0
  0
LTYPE
  5
16
330
5
100
AcDbSymbolTableRecord
100
AcDbLinetypeTableRecord
  2
CONTINUOUS
 70
     0
  3
Solid line
 72
    65
 73
     0
 40
0.0
  0
ENDTAB
  0
TABLE
  2
LAYER
  5
2
100
AcDbSymbolTable
 70
2
  0
LAYER
  5
50
100
AcDbSymbolTableRecord
100
AcDbLayerTableRecord
  2
0
 70
0
  6
CONTINUOUS
  0
LAYER
  5
51
100
AcDbSymbolTableRecord
100
AcDbLayerTableRecord
  2
Page_1
 70
0
  6
CONTINUOUS
  0
ENDTAB
  0
TABLE
  2
STYLE
  5
3
330
0
100
AcDbSymbolTable
 70
     1
  0
STYLE
  5
11
330
3
100
AcDbSymbolTableRecord
100
AcDbTextStyleTableRecord
  2
STANDARD
 70
     0
 40
0.0
 41
1.0
 50
0.0
 71
     0
 42
2.5
  3
txt
  4

  0
ENDTAB
  0
TABLE
  2
VIEW
  5
6
330
0
100
AcDbSymbolTable
 70
     0
  0
ENDTAB
  0
TABLE
  2
UCS
  5
7
330
0
100
AcDbSymbolTable
 70
     0
  0
ENDTAB
  0
TABLE
  2
APPID
  5
9
330
0
100
AcDbSymbolTable
 70
     2
  0
APPID
  5
12
330
9
100
AcDbSymbolTableRecord
100
AcDbRegAppTableRecord
  2
ACAD
 70
     0
  0
ENDTAB
  0
TABLE
  2
DIMSTYLE
  5
A
330
0
100
AcDbSymbolTable
 70
     1
  0
DIMSTYLE
105
27
330
A
100
AcDbSymbolTableRecord
100
AcDbDimStyleTableRecord
  2
ISO-25
 70
     0
  3

  4

  5

  6

  7

 40
1.0
 41
2.5
 42
0.625
 43
3.75
 44
1.25
 45
0.0
 46
0.0
 47
0.0
 48
0.0
140
2.5
141
2.5
142
0.0
143
0.03937007874016
144
1.0
145
0.0
146
1.0
147
0.625
 71
     0
 72
     0
 73
     0
 74
     0
 75
     0
 76
     0
 77
     1
 78
     8
170
     0
171
     3
172
     1
173
     0
174
     0
175
     0
176
     0
177
     0
178
     0
270
     2
271
     2
272
     2
273
     2
274
     3
340
11
275
     0
280
     0
281
     0
282
     0
283
     0
284
     8
285
     0
286
     0
287
     3
288
     0
  0
ENDTAB
  0
TABLE
  2
BLOCK_RECORD
  5
1
330
0
100
AcDbSymbolTable
 70
     1
  0
BLOCK_RECORD
  5
1F
330
1
100
AcDbSymbolTableRecord
100
AcDbBlockTableRecord
  2
*MODEL_SPACE
  0
BLOCK_RECORD
  5
1B
330
1
100
AcDbSymbolTableRecord
100
AcDbBlockTableRecord
  2
*PAPER_SPACE
  0
ENDTAB
  0
ENDSEC
  0
SECTION
  2
BLOCKS
  0
BLOCK
  5
20
330
1F
100
AcDbEntity
  8
0
100
AcDbBlockBegin
  2
*MODEL_SPACE
 70
     0
 10
0.0
 20
0.0
 30
0.0
  3
*MODEL_SPACE
  1

  0
ENDBLK
  5
21
330
1F
100
AcDbEntity
  8
0
100
AcDbBlockEnd
  0
BLOCK
  5
1C
330
1B
100
AcDbEntity
 67
     1
  8
0
100
AcDbBlockBegin
  2
*PAPER_SPACE
  1

  0
ENDBLK
  5
1D
330
1B
100
AcDbEntity
 67
     1
  8
0
100
AcDbBlockEnd
  0
ENDSEC
  0
SECTION
  2
ENTITIES
  0
SPLINE
  5
100
100
AcDbEntity
  8
Page_1
 62
7
100
AcDbSpline
 70
8
 71
3
 72
8
 73
4
 74
0
 40
0
 40
0
 40
0
 40
0
 40
1
 40
1
 40
1
 40
1
 10
229.421401
 20
28.677037
 30
0.0
 10
229.283465
 20
28.677037
 30
0.0
 10
229.171282
 20
28.565206
 30
0.0
 10
229.171282
 20
28.427271
 30
0.0
  0
LWPOLYLINE
  5
101
100
AcDbEntity
  8
Page_1
 62
7
100
AcDbPolyline
 90
2
 70
0
 10
238.716014
 20
28.677037
 30
0.0
 10
229.421401
 20
28.677037
 30
0.0
  0
SPLINE
  5
102
100
AcDbEntity
  8
Page_1
 62
7
100
AcDbSpline
 70
8
 71
3
 72
8
 73
4
 74
0
 40
0
 40
0
 40
0
 40
0
 40
1
 40
1
 40
1
 40
1
 10
229.171282
 20
18.932280
 30
0.0
 10
229.171282
 20
18.794345
 30
0.0
 10
229.283465
 20
18.682514
 30
0.0
 10
229.421401
 20
18.682514
 30
0.0
  0
LWPOLYLINE
  5
103
100
AcDbEntity
  8
Page_1
 62
7
100
AcDbPolyline
 90
2
 70
0
 10
229.171282
 20
28.427271
 30
0.0
 10
229.171282
 20
18.932280
 30
0.0
  0
SPLINE
  5
104
100
AcDbEntity
  8
Page_1
 62
7
100
AcDbSpline
 70
8
 71
3
 72
8
 73
4
 74
0
 40
0
 40
0
 40
0
 40
0
 40
1
 40
1
 40
1
 40
1
 10
238.716014
 20
18.682514
 30
0.0
 10
238.854303
 20
18.682514
 30
0.0
 10
238.966133
 20
18.794345
 30
0.0
 10
238.966133
 20
18.932280
 30
0.0
  0
LWPOLYLINE
  5
105
100
AcDbEntity
  8
Page_1
 62
7
100
AcDbPolyline
 90
2
 70
0
 10
229.421401
 20
18.682514
 30
0.0
 10
238.716014
 20
18.682514
 30
0.0
  0
SPLINE
  5
106
100
AcDbEntity
  8
Page_1
 62
7
100
AcDbSpline
 70
8
 71
3
 72
8
 73
4
 74
0
 40
0
 40
0
 40
0
 40
0
 40
1
 40
1
 40
1
 40
1
 10
238.966133
 20
28.427271
 30
0.0
 10
238.966133
 20
28.565206
 30
0.0
 10
238.854303
 20
28.677037
 30
0.0
 10
238.716014
 20
28.677037
 30
0.0
  0
LWPOLYLINE
  5
107
100
AcDbEntity
  8
Page_1
 62
7
100
AcDbPolyline
 90
2
 70
0
 10
238.966133
 20
18.932280
 30
0.0
 10
238.966133
 20
28.427271
 30
0.0
  0
SPLINE
  5
108
100
AcDbEntity
  8
Page_1
 62
7
100
AcDbSpline
 70
8
 71
3
 72
8
 73
4
 74
0
 40
0
 40
0
 40
0
 40
0
 40
1
 40
1
 40
1
 40
1
 10
88.208336
 20
22.681734
 30
0.0
 10
87.840742
 20
22.681734
 30
0.0
 10
87.495374
 20
22.824609
 30
0.0
 10
87.235730
 20
23.084606
 30
0.0
  0
LWPOLYLINE
  5
109
100
AcDbEntity
  8
Page_1
 62
7
100
AcDbPolyline
 90
2
 70
0
 10
91.301484
 20
22.681734
 30
0.0
 10
88.208336
 20
22.681734
 30
0.0
  0
SPLINE
  5
10a
100
AcDbEntity
  8
Page_1
 62
7
100
AcDbSpline
 70
8
 71
3
 72
8
 73
4
 74
0
 40
0
 40
0
 40
0
 40
0
 40
1
 40
1
 40
1
 40
1
 10
84.324262
 20
25.996073
 30
0.0
 10
84.225838
 20
26.093792
 30
0.0
 10
84.066735
 20
26.093792
 30
0.0
 10
83.968663
 20
25.996073
 30
0.0
  0
SPLINE
  5
10b
100
AcDbEntity
  8
Page_1
 62
7
100
AcDbSpline
 70
8
 71
3
 72
8
 73
4
 74
0
 40
0
 40
0
 40
0
 40
0
 40
1
 40
1
 40
1
 40
1
 10
83.968663
 20
25.996073
 30
0.0
 10
83.870591
 20
25.898001
 30
0.0
 10
83.870591
 20
25.738546
 30
0.0
 10
83.968663
 20
25.640474
 30
0.0
  0
LWPOLYLINE
  5
10c
100
AcDbEntity
  8
Page_1
 62
7
100
AcDbPolyline
 90
2
 70
0
 10
87.235730
 20
23.084606
 30
0.0
 10
84.324262
 20
25.996073
 30
0.0
  0
SPLINE
  5
10d
100
AcDbEntity
  8
Page_1
 62
7
100
AcDbSpline
 70
8
 71
3
 72
8
 73
4
 74
0
 40
0
 40
0
 40
0
 40
0
 40
1
 40
1
 40
1
 40
1
 10
86.880131
 20
22.729006
 30
0.0
 10
87.234672
 20
22.374466
 30
0.0
 10
87.706687
 20
22.179380
 30
0.0
 10
88.208336
 20
22.179380
 30
0.0
  0
LWPOLYLINE
  5
10e
100
AcDbEntity
  8
Page_1
 62
7
100
AcDbPolyline
 90
2
 70
0
 10
83.968663
 20
25.640474
 30
0.0
 10
86.880131
 20
22.729006
 30
0.0
  0
SPLINE
  5
10f
100
AcDbEntity
  8
Page_1
 62
7
100
AcDbSpline
 70
8
 71
3
 72
8
 73
4
 74
0
 40
0
 40
0
 40
0
 40
0
 40
1
 40
1
 40
1
 40
1
 10
91.301484
 20
22.179380
 30
0.0
 10
92.622986
 20
22.179380
 30
0.0
 10
93.697897
 20
21.103763
 30
0.0
 10
93.697897
 20
19.781908
 30
0.0
  0
LWPOLYLINE
  5
110
100
AcDbEntity
  8
Page_1
 62
7
100
AcDbPolyline
 90
2
 70
0
 10
88.208336
 20
22.179380
 30
0.0
 10
91.301484
 20
22.179380
 30
0.0
  0
SPLINE
  5
111
100
AcDbEntity
  8
Page_1
 62
7
100
AcDbSpline
 70
8
 71
3
 72
8
 73
4
 74
0
 40
0
 40
0
 40
0
 40
0
 40
1
 40
1
 40
1
 40
1
 10
93.697897
 20
14.930520
 30
0.0
 10
93.697897
 20
14.241900
 30
0.0
 10
93.138040
 20
13.682043
 30
0.0
 10
92.449773
 20
13.682043
 30
0.0
  0
LWPOLYLINE
  5
112
100
AcDbEntity
  8
Page_1
 62
7
100
AcDbPolyline
 90
2
 70
0
 10
93.697897
 20
19.781908
 30
0.0
 10
93.697897
 20
14.930520
 30
0.0
  0
SPLINE
  5
113
100
AcDbEntity
  8
Page_1
 62
7
100
AcDbSpline
 70
8
 71
3
 72
8
 73
4
 74
0
 40
0
 40
0
 40
0
 40
0
 40
1
 40
1
 40
1
 40
1
 10
86.449743
 20
13.682043
 30
0.0
 10
85.761123
 20
13.682043
 30
0.0
 10
85.201266
 20
14.241900
 30
0.0
 10
85.201266
 20
14.930520
 30
0.0
  0
LWPOLYLINE
  5
114
100
AcDbEntity
  8
Page_1
 62
7
100
AcDbPolyline
 90
2
 70
0
 10
92.449773
 20
13.682043
 30
0.0
 10
86.449743
 20
13.682043
 30
0.0
  0
SPLINE
  5
115
100
AcDbEntity
  8
Page_1
 62
7
100
AcDbSpline
 70
8
 71
3
 72
8
 73
4
 74
0
 40
0
 40
0
 40
0
 40
0
 40
1
 40
1
 40
1
 40
1
 10
85.201266
 20
19.391384
 30
0.0
 10
85.201266
 20
19.893386
 30
0.0
 10
85.005827
 20
20.365048
 30
0.0
 10
84.650934
 20
20.719589
 30
0.0
  0
LWPOLYLINE
  5
116
100
AcDbEntity
  8
Page_1
 62
7
100
AcDbPolyline
 90
2
 70
0
 10
85.201266
 20
14.930520
 30
0.0
 10
85.201266
 20
19.391384
 30
0.0
  0
SPLINE
  5
117
100
AcDbEntity
  8
Page_1
 62
7
100
AcDbSpline
 70
8
 71
3
 72
8
 73
4
 74
0
 40
0
 40
0
 40
0
 40
0
 40
1
 40
1
 40
1
 40
1
 10
79.374450
 20
25.996073
 30
0.0
 10
79.279553
 20
26.090617
 30
0.0
 10
79.114100
 20
26.090617
 30
0.0
 10
79.019203
 20
25.996073
 30
0.0
  0
SPLINE
  5
118
100
AcDbEntity
  8
Page_1
 62
7
100
AcDbSpline
 70
8
 71
3
 72
8
 73
4
 74
0
 40
0
 40
0
 40
0
 40
0
 40
1
 40
1
 40
1
 40
1
 10
79.019203
 20
25.996073
 30
0.0
 10
78.921131
 20
25.898001
 30
0.0
 10
78.921131
 20
25.738546
 30
0.0
 10
79.019203
 20
25.640474
 30
0.0
  0
LWPOLYLINE
  5
119
100
AcDbEntity
  8
Page_1
 62
7
100
AcDbPolyline
 90
2
 70
0
 10
84.650934
 20
20.719589
 30
0.0
 10
79.374450
 20
25.996073
 30
0.0
  0
SPLINE
  5
11a
100
AcDbEntity
  8
Page_1
 62
7
100
AcDbSpline
 70
8
 71
3
 72
8
 73
4
 74
0
 40
0
 40
0
 40
0
 40
0
 40
1
 40
1
 40
1
 40
1
 10
84.295687
 20
20.364343
 30
0.0
 10
84.555331
 20
20.104346
 30
0.0
 10
84.698559
 20
19.758978
 30
0.0
 10
84.698559
 20
19.391384
 30
0.0
  0
LWPOLYLINE
  5
11b
100
AcDbEntity
  8
Page_1
 62
7
100
AcDbPolyline
 90
2
 70
0
 10
79.019203
 20
25.640474
 30
0.0
 10
84.295687
 20
20.364343
 30
0.0
  0
SPLINE
  5
11c
100
AcDbEntity
  8
Page_1
 62
7
100
AcDbSpline
 70
8
 71
3
 72
8
 73
4
 74
0
 40
0
 40
0
 40
0
 40
0
 40
1
 40
1
 40
1
 40
1
 10
84.698559
 20
14.930520
 30
0.0
 10
84.698559
 20
13.964617
 30
0.0
 10
85.484193
 20
13.178983
 30
0.0
 10
86.449743
 20
13.178983
 30
0.0
  0
LWPOLYLINE
  5
11d
100
AcDbEntity
  8
Page_1
 62
7
100
AcDbPolyline
 90
2
 70
0
 10
84.698559
 20
19.391384
 30
0.0
 10
84.698559
 20
14.930520
 30
0.0
  0
SPLINE
  5
11e
100
AcDbEntity
  8
Page_1
 62
7
100
AcDbSpline
 70
8
 71
3
 72
8
 73
4
 74
0
 40
0
 40
0
 40
0
 40
0
 40
1
 40
1
 40
1
 40
1
 10
92.449773
 20
13.178983
 30
0.0
 10
93.415323
 20
13.178983
 30
0.0
 10
94.200604
 20
13.964617
 30
0.0
 10
94.200604
 20
14.930520
 30
0.0
  0
LWPOLYLINE
  5
11f
100
AcDbEntity
  8
Page_1
 62
7
100
AcDbPolyline
 90
2
 70
0
 10
86.449743
 20
13.178983
 30
0.0
 10
92.449773
 20
13.178983
 30
0.0
  0
SPLINE
  5
120
100
AcDbEntity
  8
Page_1
 62
7
100
AcDbSpline
 70
8
 71
3
 72
8
 73
4
 74
0
 40
0
 40
0
 40
0
 40
0
 40
1
 40
1
 40
1
 40
1
 10
94.200604
 20
19.781908
 30
0.0
 10
94.200604
 20
21.380693
 30
0.0
 10
92.900269
 20
22.681734
 30
0.0
 10
91.301484
 20
22.681734
 30
0.0
  0
SPLINE
  5
121
100
AcDbEntity
  8
Page_1
 62
7
100
AcDbSpline
 70
8
 71
3
 72
8
 73
4
 74
0
 40
0
 40
0
 40
0
 40
0
 40
1
 40
1
 40
1
 40
1
 10
183.231616
 20
15.369022
 30
0.0
 10
182.971972
 20
15.628666
 30
0.0
 10
182.828745
 20
15.974387
 30
0.0
 10
182.828745
 20
16.341981
 30
0.0
  0
LWPOLYLINE
  5
122
100
AcDbEntity
  8
Page_1
 62
7
100
AcDbPolyline
 90
2
 70
0
 10
94.200604
 20
14.930520
 30
0.0
 10
94.200604
 20
19.781908
 30
0.0
  0
SPLINE
  5
123
100
AcDbEntity
  8
Page_1
 62
7
100
AcDbSpline
 70
8
 71
3
 72
8
 73
4
 74
0
 40
0
 40
0
 40
0
 40
0
 40
1
 40
1
 40
1
 40
1
 10
182.828745
 20
20.802845
 30
0.0
 10
182.828745
 20
21.768748
 30
0.0
 10
182.043111
 20
22.554382
 30
0.0
 10
181.077560
 20
22.554382
 30
0.0
  0
LWPOLYLINE
  5
124
100
AcDbEntity
  8
Page_1
 62
7
100
AcDbPolyline
 90
2
 70
0
 10
182.828745
 20
16.341981
 30
0.0
 10
182.828745
 20
20.802845
 30
0.0
  0
SPLINE
  5
125
100
AcDbEntity
  8
Page_1
 62
7
100
AcDbSpline
 70
8
 71
3
 72
8
 73
4
 74
0
 40
0
 40
0
 40
0
 40
0
 40
1
 40
1
 40
1
 40
1
 10
175.077531
 20
22.554382
 30
0.0
 10
174.111980
 20
22.554382
 30
0.0
 10
173.326346
 20
21.768748
 30
0.0
 10
173.326346
 20
20.802845
 30
0.0
  0
LWPOLYLINE
  5
126
100
AcDbEntity
  8
Page_1
 62
7
100
AcDbPolyline
 90
2
 70
0
 10
181.077560
 20
22.554382
 30
0.0
 10
175.077531
 20
22.554382
 30
0.0
  0
SPLINE
  5
127
100
AcDbEntity
  8
Page_1
 62
7
100
AcDbSpline
 70
8
 71
3
 72
8
 73
4
 74
0
 40
0
 40
0
 40
0
 40
0
 40
1
 40
1
 40
1
 40
1
 10
173.326346
 20
15.951104
 30
0.0
 10
173.326346
 20
14.352319
 30
0.0
 10
174.627035
 20
13.051631
 30
0.0
 10
176.225820
 20
13.051631
 30
0.0
  0
LWPOLYLINE
  5
128
100
AcDbEntity
  8
Page_1
 62
7
100
AcDbPolyline
 90
2
 70
0
 10
173.326346
 20
20.802845
 30
0.0
 10
173.326346
 20
15.951104
 30
0.0
  0
SPLINE
  5
129
100
AcDbEntity
  8
Page_1
 62
7
100
AcDbSpline
 70
8
 71
3
 72
8
 73
4
 74
0
 40
0
 40
0
 40
0
 40
0
 40
1
 40
1
 40
1
 40
1
 10
179.318615
 20
13.051631
 30
0.0
 10
179.686208
 20
13.051631
 30
0.0
 10
180.031930
 20
12.908403
 30
0.0
 10
180.291573
 20
12.648759
 30
0.0
  0
LWPOLYLINE
  5
12a
100
AcDbEntity
  8
Page_1
 62
7
100
AcDbPolyline
 90
2
 70
0
 10
176.225820
 20
13.051631
 30
0.0
 10
179.318615
 20
13.051631
 30
0.0
  0
SPLINE
  5
12b
100
AcDbEntity
  8
Page_1
 62
7
100
AcDbSpline
 70
8
 71
3
 72
8
 73
4
 74
0
 40
0
 40
0
 40
0
 40
0
 40
1
 40
1
 40
1
 40
1
 10
183.203041
 20
9.737292
 30
0.0
 10
183.300760
 20
9.639572
 30
0.0
 10
183.460568
 20
9.639572
 30
0.0
 10
183.558640
 20
9.737292
 30
0.0
  0
SPLINE
  5
12c
100
AcDbEntity
  8
Page_1
 62
7
100
AcDbSpline
 70
8
 71
3
 72
8
 73
4
 74
0
 40
0
 40
0
 40
0
 40
0
 40
1
 40
1
 40
1
 40
1
 10
183.558640
 20
9.737292
 30
0.0
 10
183.656359
 20
9.835364
 30
0.0
 10
183.656359
 20
9.994819
 30
0.0
 10
183.558640
 20
10.092891
 30
0.0
  0
LWPOLYLINE
  5
12d
100
AcDbEntity
  8
Page_1
 62
7
100
AcDbPolyline
 90
2
 70
0
 10
180.291573
 20
12.648759
 30
0.0
 10
183.203041
 20
9.737292
 30
0.0
  0
SPLINE
  5
12e
100
AcDbEntity
  8
Page_1
 62
7
100
AcDbSpline
 70
8
 71
3
 72
8
 73
4
 74
0
 40
0
 40
0
 40
0
 40
0
 40
1
 40
1
 40
1
 40
1
 10
180.647173
 20
13.004358
 30
0.0
 10
180.292632
 20
13.358899
 30
0.0
 10
179.820616
 20
13.553985
 30
0.0
 10
179.318615
 20
13.553985
 30
0.0
  0
LWPOLYLINE
  5
12f
100
AcDbEntity
  8
Page_1
 62
7
100
AcDbPolyline
 90
2
 70
0
 10
183.558640
 20
10.092891
 30
0.0
 10
180.647173
 20
13.004358
 30
0.0
  0
SPLINE
  5
130
100
AcDbEntity
  8
Page_1
 62
7
100
AcDbSpline
 70
8
 71
3
 72
8
 73
4
 74
0
 40
0
 40
0
 40
0
 40
0
 40
1
 40
1
 40
1
 40
1
 10
176.225820
 20
13.553985
 30
0.0
 10
174.904317
 20
13.553985
 30
0.0
 10
173.829406
 20
14.629249
 30
0.0
 10
173.829406
 20
15.951104
 30
0.0
  0
LWPOLYLINE
  5
131
100
AcDbEntity
  8
Page_1
 62
7
100
AcDbPolyline
 90
2
 70
0
 10
179.318615
 20
13.553985
 30
0.0
 10
176.225820
 20
13.553985
 30
0.0
  0
SPLINE
  5
132
100
AcDbEntity
  8
Page_1
 62
7
100
AcDbSpline
 70
8
 71
3
 72
8
 73
4
 74
0
 40
0
 40
0
 40
0
 40
0
 40
1
 40
1
 40
1
 40
1
 10
173.829406
 20
20.802845
 30
0.0
 10
173.829406
 20
21.491465
 30
0.0
 10
174.389263
 20
22.051675
 30
0.0
 10
175.077531
 20
22.051675
 30
0.0
  0
LWPOLYLINE
  5
133
100
AcDbEntity
  8
Page_1
 62
7
100
AcDbPolyline
 90
2
 70
0
 10
173.829406
 20
15.951104
 30
0.0
 10
173.829406
 20
20.802845
 30
0.0
  0
SPLINE
  5
134
100
AcDbEntity
  8
Page_1
 62
7
100
AcDbSpline
 70
8
 71
3
 72
8
 73
4
 74
0
 40
0
 40
0
 40
0
 40
0
 40
1
 40
1
 40
1
 40
1
 10
181.077560
 20
22.051675
 30
0.0
 10
181.766181
 20
22.051675
 30
0.0
 10
182.326038
 20
21.491465
 30
0.0
 10
182.326038
 20
20.802845
 30
0.0
  0
LWPOLYLINE
  5
135
100
AcDbEntity
  8
Page_1
 62
7
100
AcDbPolyline
 90
2
 70
0
 10
175.077531
 20
22.051675
 30
0.0
 10
181.077560
 20
22.051675
 30
0.0
  0
SPLINE
  5
136
100
AcDbEntity
  8
Page_1
 62
7
100
AcDbSpline
 70
8
 71
3
 72
8
 73
4
 74
0
 40
0
 40
0
 40
0
 40
0
 40
1
 40
1
 40
1
 40
1
 10
182.326038
 20
16.341981
 30
0.0
 10
182.326038
 20
15.839979
 30
0.0
 10
182.521123
 20
15.368316
 30
0.0
 10
182.876017
 20
15.013423
 30
0.0
  0
LWPOLYLINE
  5
137
100
AcDbEntity
  8
Page_1
 62
7
100
AcDbPolyline
 90
2
 70
0
 10
182.326038
 20
20.802845
 30
0.0
 10
182.326038
 20
16.341981
 30
0.0
  0
SPLINE
  5
138
100
AcDbEntity
  8
Page_1
 62
7
100
AcDbSpline
 70
8
 71
3
 72
8
 73
4
 74
0
 40
0
 40
0
 40
0
 40
0
 40
1
 40
1
 40
1
 40
1
 10
188.152501
 20
9.737292
 30
0.0
 10
188.200126
 20
9.689667
 30
0.0
 10
188.263273
 20
9.663561
 30
0.0
 10
188.330301
 20
9.663561
 30
0.0
  0
SPLINE
  5
139
100
AcDbEntity
  8
Page_1
 62
7
100
AcDbSpline
 70
8
 71
3
 72
8
 73
4
 74
0
 40
0
 40
0
 40
0
 40
0
 40
1
 40
1
 40
1
 40
1
 10
188.330301
 20
9.663561
 30
0.0
 10
188.397681
 20
9.663561
 30
0.0
 10
188.460475
 20
9.689667
 30
0.0
 10
188.508100
 20
9.737292
 30
0.0
  0
SPLINE
  5
13a
100
AcDbEntity
  8
Page_1
 62
7
100
AcDbSpline
 70
8
 71
3
 72
8
 73
4
 74
0
 40
0
 40
0
 40
0
 40
0
 40
1
 40
1
 40
1
 40
1
 10
188.508100
 20
9.737292
 30
0.0
 10
188.605819
 20
9.835364
 30
0.0
 10
188.605819
 20
9.994819
 30
0.0
 10
188.508100
 20
10.092891
 30
0.0
  0
LWPOLYLINE
  5
13b
100
AcDbEntity
  8
Page_1
 62
7
100
AcDbPolyline
 90
2
 70
0
 10
182.876017
 20
15.013423
 30
0.0
 10
188.152501
 20
9.737292
 30
0.0
  0
LWPOLYLINE
  5
13c
100
AcDbEntity
  8
Page_1
 62
7
100
AcDbPolyline
 90
2
 70
0
 10
188.508100
 20
10.092891
 30
0.0
 10
183.231616
 20
15.369022
 30
0.0
  0
SPLINE
  5
13d
100
AcDbEntity
  8
Page_1
 62
7
100
AcDbSpline
 70
8
 71
3
 72
8
 73
4
 74
0
 40
0
 40
0
 40
0
 40
0
 40
1
 40
1
 40
1
 40
1
 10
201.231705
 20
15.368987
 30
0.0
 10
200.972061
 20
15.628630
 30
0.0
 10
200.828833
 20
15.974352
 30
0.0
 10
200.828833
 20
16.341945
 30
0.0
  0
LWPOLYLINE
  5
13e
100
AcDbEntity
  8
Page_1
 62
7
100
AcDbPolyline
 90
2
 70
0
 10
206.508189
 20
10.092855
 30
0.0
 10
201.231705
 20
15.368987
 30
0.0
  0
SPLINE
  5
13f
100
AcDbEntity
  8
Page_1
 62
7
100
AcDbSpline
 70
8
 71
3
 72
8
 73
4
 74
0
 40
0
 40
0
 40
0
 40
0
 40
1
 40
1
 40
1
 40
1
 10
200.828833
 20
20.802809
 30
0.0
 10
200.828833
 20
21.768712
 30
0.0
 10
200.043199
 20
22.554347
 30
0.0
 10
199.077296
 20
22.554347
 30
0.0
  0
LWPOLYLINE
  5
140
100
AcDbEntity
  8
Page_1
 62
7
100
AcDbPolyline
 90
2
 70
0
 10
200.828833
 20
16.341945
 30
0.0
 10
200.828833
 20
20.802809
 30
0.0
  0
SPLINE
  5
141
100
AcDbEntity
  8
Page_1
 62
7
100
AcDbSpline
 70
8
 71
3
 72
8
 73
4
 74
0
 40
0
 40
0
 40
0
 40
0
 40
1
 40
1
 40
1
 40
1
 10
193.077619
 20
22.554347
 30
0.0
 10
192.111716
 20
22.554347
 30
0.0
 10
191.326435
 20
21.768712
 30
0.0
 10
191.326435
 20
20.802809
 30
0.0
  0
LWPOLYLINE
  5
142
100
AcDbEntity
  8
Page_1
 62
7
100
AcDbPolyline
 90
2
 70
0
 10
199.077296
 20
22.554347
 30
0.0
 10
193.077619
 20
22.554347
 30
0.0
  0
SPLINE
  5
143
100
AcDbEntity
  8
Page_1
 62
7
100
AcDbSpline
 70
8
 71
3
 72
8
 73
4
 74
0
 40
0
 40
0
 40
0
 40
0
 40
1
 40
1
 40
1
 40
1
 10
191.326435
 20
15.951069
 30
0.0
 10
191.326435
 20
14.352284
 30
0.0
 10
192.627123
 20
13.051595
 30
0.0
 10
194.225908
 20
13.051595
 30
0.0
  0
LWPOLYLINE
  5
144
100
AcDbEntity
  8
Page_1
 62
7
100
AcDbPolyline
 90
2
 70
0
 10
191.326435
 20
20.802809
 30
0.0
 10
191.326435
 20
15.951069
 30
0.0
  0
SPLINE
  5
145
100
AcDbEntity
  8
Page_1
 62
7
100
AcDbSpline
 70
8
 71
3
 72
8
 73
4
 74
0
 40
0
 40
0
 40
0
 40
0
 40
1
 40
1
 40
1
 40
1
 10
197.318703
 20
13.051595
 30
0.0
 10
197.686297
 20
13.051595
 30
0.0
 10
198.032018
 20
12.908368
 30
0.0
 10
198.291662
 20
12.648724
 30
0.0
  0
LWPOLYLINE
  5
146
100
AcDbEntity
  8
Page_1
 62
7
100
AcDbPolyline
 90
2
 70
0
 10
194.225908
 20
13.051595
 30
0.0
 10
197.318703
 20
13.051595
 30
0.0
  0
SPLINE
  5
147
100
AcDbEntity
  8
Page_1
 62
7
100
AcDbSpline
 70
8
 71
3
 72
8
 73
4
 74
0
 40
0
 40
0
 40
0
 40
0
 40
1
 40
1
 40
1
 40
1
 10
201.203130
 20
9.737256
 30
0.0
 10
201.300849
 20
9.639537
 30
0.0
 10
201.460657
 20
9.639537
 30
0.0
 10
201.558729
 20
9.737256
 30
0.0
  0
SPLINE
  5
148
100
AcDbEntity
  8
Page_1
 62
7
100
AcDbSpline
 70
8
 71
3
 72
8
 73
4
 74
0
 40
0
 40
0
 40
0
 40
0
 40
1
 40
1
 40
1
 40
1
 10
201.558729
 20
9.737256
 30
0.0
 10
201.656448
 20
9.835681
 30
0.0
 10
201.656448
 20
9.994783
 30
0.0
 10
201.558729
 20
10.092855
 30
0.0
  0
LWPOLYLINE
  5
149
100
AcDbEntity
  8
Page_1
 62
7
100
AcDbPolyline
 90
2
 70
0
 10
198.291662
 20
12.648724
 30
0.0
 10
201.203130
 20
9.737256
 30
0.0
  0
SPLINE
  5
14a
100
AcDbEntity
  8
Page_1
 62
7
100
AcDbSpline
 70
8
 71
3
 72
8
 73
4
 74
0
 40
0
 40
0
 40
0
 40
0
 40
1
 40
1
 40
1
 40
1
 10
198.647261
 20
13.004323
 30
0.0
 10
198.292720
 20
13.358864
 30
0.0
 10
197.820705
 20
13.554302
 30
0.0
 10
197.318703
 20
13.554302
 30
0.0
  0
LWPOLYLINE
  5
14b
100
AcDbEntity
  8
Page_1
 62
7
100
AcDbPolyline
 90
2
 70
0
 10
201.558729
 20
10.092855
 30
0.0
 10
198.647261
 20
13.004323
 30
0.0
  0
SPLINE
  5
14c
100
AcDbEntity
  8
Page_1
 62
7
100
AcDbSpline
 70
8
 71
3
 72
8
 73
4
 74
0
 40
0
 40
0
 40
0
 40
0
 40
1
 40
1
 40
1
 40
1
 10
194.225908
 20
13.554302
 30
0.0
 10
192.904053
 20
13.554302
 30
0.0
 10
191.829495
 20
14.629214
 30
0.0
 10
191.829495
 20
15.951069
 30
0.0
  0
LWPOLYLINE
  5
14d
100
AcDbEntity
  8
Page_1
 62
7
100
AcDbPolyline
 90
2
 70
0
 10
197.318703
 20
13.554302
 30
0.0
 10
194.225908
 20
13.554302
 30
0.0
  0
SPLINE
  5
14e
100
AcDbEntity
  8
Page_1
 62
7
100
AcDbSpline
 70
8
 71
3
 72
8
 73
4
 74
0
 40
0
 40
0
 40
0
 40
0
 40
1
 40
1
 40
1
 40
1
 10
191.829495
 20
20.802809
 30
0.0
 10
191.829495
 20
21.491430
 30
0.0
 10
192.388999
 20
22.051639
 30
0.0
 10
193.077619
 20
22.051639
 30
0.0
  0
LWPOLYLINE
  5
14f
100
AcDbEntity
  8
Page_1
 62
7
100
AcDbPolyline
 90
2
 70
0
 10
191.829495
 20
15.951069
 30
0.0
 10
191.829495
 20
20.802809
 30
0.0
  0
SPLINE
  5
150
100
AcDbEntity
  8
Page_1
 62
7
100
AcDbSpline
 70
8
 71
3
 72
8
 73
4
 74
0
 40
0
 40
0
 40
0
 40
0
 40
1
 40
1
 40
1
 40
1
 10
199.077296
 20
22.051639
 30
0.0
 10
199.766269
 20
22.051639
 30
0.0
 10
200.326126
 20
21.491430
 30
0.0
 10
200.326126
 20
20.802809
 30
0.0
  0
LWPOLYLINE
  5
151
100
AcDbEntity
  8
Page_1
 62
7
100
AcDbPolyline
 90
2
 70
0
 10
193.077619
 20
22.051639
 30
0.0
 10
199.077296
 20
22.051639
 30
0.0
  0
SPLINE
  5
152
100
AcDbEntity
  8
Page_1
 62
7
100
AcDbSpline
 70
8
 71
3
 72
8
 73
4
 74
0
 40
0
 40
0
 40
0
 40
0
 40
1
 40
1
 40
1
 40
1
 10
200.326126
 20
16.341945
 30
0.0
 10
200.326126
 20
15.839944
 30
0.0
 10
200.521212
 20
15.368281
 30
0.0
 10
200.876105
 20
15.013388
 30
0.0
  0
LWPOLYLINE
  5
153
100
AcDbEntity
  8
Page_1
 62
7
100
AcDbPolyline
 90
2
 70
0
 10
200.326126
 20
20.802809
 30
0.0
 10
200.326126
 20
16.341945
 30
0.0
  0
SPLINE
  5
154
100
AcDbEntity
  8
Page_1
 62
7
100
AcDbSpline
 70
8
 71
3
 72
8
 73
4
 74
0
 40
0
 40
0
 40
0
 40
0
 40
1
 40
1
 40
1
 40
1
 10
206.152590
 20
9.737256
 30
0.0
 10
206.200214
 20
9.689631
 30
0.0
 10
206.263362
 20
9.663526
 30
0.0
 10
206.330389
 20
9.663526
 30
0.0
  0
SPLINE
  5
155
100
AcDbEntity
  8
Page_1
 62
7
100
AcDbSpline
 70
8
 71
3
 72
8
 73
4
 74
0
 40
0
 40
0
 40
0
 40
0
 40
1
 40
1
 40
1
 40
1
 10
206.330389
 20
9.663526
 30
0.0
 10
206.397417
 20
9.663526
 30
0.0
 10
206.460564
 20
9.689631
 30
0.0
 10
206.508189
 20
9.737256
 30
0.0
  0
SPLINE
  5
156
100
AcDbEntity
  8
Page_1
 62
7
100
AcDbSpline
 70
8
 71
3
 72
8
 73
4
 74
0
 40
0
 40
0
 40
0
 40
0
 40
1
 40
1
 40
1
 40
1
 10
206.508189
 20
9.737256
 30
0.0
 10
206.605908
 20
9.835681
 30
0.0
 10
206.605908
 20
9.994783
 30
0.0
 10
206.508189
 20
10.092855
 30
0.0
  0
LWPOLYLINE
  5
157
100
AcDbEntity
  8
Page_1
 62
7
100
AcDbPolyline
 90
2
 70
0
 10
200.876105
 20
15.013388
 30
0.0
 10
206.152590
 20
9.737256
 30
0.0
  0
SPLINE
  5
158
100
AcDbEntity
  8
Page_1
 62
1
100
AcDbSpline
 70
8
 71
3
 72
8
 73
4
 74
0
 40
0
 40
0
 40
0
 40
0
 40
1
 40
1
 40
1
 40
1
 10
107.673507
 20
10.493363
 30
0.0
 10
107.398694
 20
10.493363
 30
0.0
 10
107.173622
 20
10.718435
 30
0.0
 10
107.173622
 20
10.993248
 30
0.0
  0
LWPOLYLINE
  5
159
100
AcDbEntity
  8
Page_1
 62
1
100
AcDbPolyline
 90
2
 70
0
 10
159.853444
 20
10.493363
 30
0.0
 10
107.673507
 20
10.493363
 30
0.0
  0
SPLINE
  5
15a
100
AcDbEntity
  8
Page_1
 62
1
100
AcDbSpline
 70
8
 71
3
 72
8
 73
4
 74
0
 40
0
 40
0
 40
0
 40
0
 40
1
 40
1
 40
1
 40
1
 10
107.173622
 20
24.773419
 30
0.0
 10
107.173622
 20
25.048232
 30
0.0
 10
107.398694
 20
25.273304
 30
0.0
 10
107.673507
 20
25.273304
 30
0.0
  0
LWPOLYLINE
  5
15b
100
AcDbEntity
  8
Page_1
 62
1
100
AcDbPolyline
 90
2
 70
0
 10
107.173622
 20
10.993248
 30
0.0
 10
107.173622
 20
24.773419
 30
0.0
  0
SPLINE
  5
15c
100
AcDbEntity
  8
Page_1
 62
1
100
AcDbSpline
 70
8
 71
3
 72
8
 73
4
 74
0
 40
0
 40
0
 40
0
 40
0
 40
1
 40
1
 40
1
 40
1
 10
159.853444
 20
25.273304
 30
0.0
 10
160.128610
 20
25.273304
 30
0.0
 10
160.353329
 20
25.048232
 30
0.0
 10
160.353329
 20
24.773419
 30
0.0
  0
LWPOLYLINE
  5
15d
100
AcDbEntity
  8
Page_1
 62
1
100
AcDbPolyline
 90
2
 70
0
 10
107.673507
 20
25.273304
 30
0.0
 10
159.853444
 20
25.273304
 30
0.0
  0
SPLINE
  5
15e
100
AcDbEntity
  8
Page_1
 62
1
100
AcDbSpline
 70
8
 71
3
 72
8
 73
4
 74
0
 40
0
 40
0
 40
0
 40
0
 40
1
 40
1
 40
1
 40
1
 10
160.353329
 20
10.993248
 30
0.0
 10
160.353329
 20
10.718435
 30
0.0
 10
160.128610
 20
10.493363
 30
0.0
 10
159.853444
 20
10.493363
 30
0.0
  0
LWPOLYLINE
  5
15f
100
AcDbEntity
  8
Page_1
 62
1
100
AcDbPolyline
 90
2
 70
0
 10
160.353329
 20
24.773419
 30
0.0
 10
160.353329
 20
10.993248
 30
0.0
  0
LWPOLYLINE
  5
160
100
AcDbEntity
  8
Page_1
 62
1
100
AcDbPolyline
 90
1
 70
1
 10
159.853444
 20
10.493363
 30
0.0
  0
SPLINE
  5
161
100
AcDbEntity
  8
Page_1
 62
4
100
AcDbSpline
 70
8
 71
3
 72
8
 73
4
 74
0
 40
0
 40
0
 40
0
 40
0
 40
1
 40
1
 40
1
 40
1
 10
262.763369
 20
33.866526
 30
0.0
 10
264.413306
 20
33.866526
 30
0.0
 10
265.763031
 20
32.516449
 30
0.0
 10
265.763031
 20
30.866511
 30
0.0
  0
LWPOLYLINE
  5
162
100
AcDbEntity
  8
Page_1
 62
4
100
AcDbPolyline
 90
2
 70
0
 10
4.763864
 20
33.866526
 30
0.0
 10
262.763369
 20
33.866526
 30
0.0
  0
SPLINE
  5
163
100
AcDbEntity
  8
Page_1
 62
4
100
AcDbSpline
 70
8
 71
3
 72
8
 73
4
 74
0
 40
0
 40
0
 40
0
 40
0
 40
1
 40
1
 40
1
 40
1
 10
265.763031
 20
4.866501
 30
0.0
 10
265.763031
 20
3.216563
 30
0.0
 10
264.413306
 20
1.866486
 30
0.0
 10
262.763369
 20
1.866486
 30
0.0
  0
LWPOLYLINE
  5
164
100
AcDbEntity
  8
Page_1
 62
4
100
AcDbPolyline
 90
2
 70
0
 10
265.763031
 20
30.866511
 30
0.0
 10
265.763031
 20
4.866501
 30
0.0
  0
SPLINE
  5
165
100
AcDbEntity
  8
Page_1
 62
4
100
AcDbSpline
 70
8
 71
3
 72
8
 73
4
 74
0
 40
0
 40
0
 40
0
 40
0
 40
1
 40
1
 40
1
 40
1
 10
4.763864
 20
1.866486
 30
0.0
 10
3.113926
 20
1.866486
 30
0.0
 10
1.763849
 20
3.216563
 30
0.0
 10
1.763849
 20
4.866501
 30
0.0
  0
LWPOLYLINE
  5
166
100
AcDbEntity
  8
Page_1
 62
4
100
AcDbPolyline
 90
2
 70
0
 10
262.763369
 20
1.866486
 30
0.0
 10
4.763864
 20
1.866486
 30
0.0
  0
SPLINE
  5
167
100
AcDbEntity
  8
Page_1
 62
4
100
AcDbSpline
 70
8
 71
3
 72
8
 73
4
 74
0
 40
0
 40
0
 40
0
 40
0
 40
1
 40
1
 40
1
 40
1
 10
1.763849
 20
30.866511
 30
0.0
 10
1.763849
 20
32.516449
 30
0.0
 10
3.113926
 20
33.866526
 30
0.0
 10
4.763864
 20
33.866526
 30
0.0
  0
LWPOLYLINE
  5
168
100
AcDbEntity
  8
Page_1
 62
4
100
AcDbPolyline
 90
2
 70
0
 10
1.763849
 20
4.866501
 30
0.0
 10
1.763849
 20
30.866511
 30
0.0
  0
LWPOLYLINE
  5
169
100
AcDbEntity
  8
Page_1
 62
4
100
AcDbPolyline
 90
1
 70
1
 10
4.763864
 20
33.866526
 30
0.0
  0
ENDSEC
  0
SECTION
  2
OBJECTS
  0
DICTIONARY
  5
C
330
0
100
AcDbDictionary
  3
ACAD_GROUP
350
D
  3
ACAD_MLINESTYLE
350
17
  0
DICTIONARY
  5
D
330
C
100
AcDbDictionary
  0
DICTIONARY
  5
1A
330
C
100
AcDbDictionary
  0
DICTIONARY
  5
17
330
C
100
AcDbDictionary
  3
STANDARD
350
18
  0
DICTIONARY
  5
19
330
C
100
AcDbDictionary
  0
ENDSEC
  0
EOF
